<svg width="155" height="216" viewBox="0 0 155 216" fill="none" xmlns="http://www.w3.org/2000/svg">
<rect x="2.5" y="2.5" width="150" height="211" rx="16.5" fill="white"/>
<rect x="2.5" y="2.5" width="150" height="211" rx="16.5" stroke="black" stroke-width="5"/>
<ellipse cx="48.5" cy="162" rx="17.5" ry="25" fill="black"/>
<ellipse cx="105.5" cy="162" rx="17.5" ry="25" fill="black"/>
<rect x="2" y="109" width="150" height="5" fill="black"/>
<rect x="45" y="34" width="74" height="44" rx="10" fill="#693875" stroke="black" stroke-width="4"/>
<rect x="68" y="33" width="4" height="46" fill="black"/>
<rect x="92" y="33" width="4" height="46" fill="black"/>
<path d="M58.5 46.4986C58.5 47.9996 56.703 53.9994 53.4998 53.9994C51.0145 53.9994 49.5 50.1418 49.5 45.9997C49.5 41.8576 54.5 38.4976 56 38.9989C60.499 40.5026 58.5 42.4996 58.5 46.4986Z" fill="#CB9DD6"/>
<circle cx="59.5" cy="58.5" r="3.5" fill="#CB9DD6"/>
<path d="M33 47C33 45.3431 34.3431 44 36 44H44V68H36C34.3431 68 33 66.6569 33 65V47Z" fill="black"/>
</svg>
