<svg width="1339" height="784" viewBox="0 0 1339 784" fill="none" xmlns="http://www.w3.org/2000/svg">
<mask id="path-1-inside-1_132_12" fill="white">
<path fill-rule="evenodd" clip-rule="evenodd" d="M122 0C55.7258 0 1.99995 53.7258 1.99995 120V487.682C1.99995 550.402 50.119 601.884 111.454 607.225L4.95679 751.676C-8.04226 769.307 12.6814 792 31.4172 780.65L316.947 607.682H1219C1285.27 607.682 1339 553.956 1339 487.682V120C1339 53.7258 1285.27 0 1219 0H122Z"/>
</mask>
<path fill-rule="evenodd" clip-rule="evenodd" d="M122 0C55.7258 0 1.99995 53.7258 1.99995 120V487.682C1.99995 550.402 50.119 601.884 111.454 607.225L4.95679 751.676C-8.04226 769.307 12.6814 792 31.4172 780.65L316.947 607.682H1219C1285.27 607.682 1339 553.956 1339 487.682V120C1339 53.7258 1285.27 0 1219 0H122Z" fill="#EEE3FA"/>
<path d="M111.454 607.225L115.479 610.192L120.769 603.017L111.888 602.244L111.454 607.225ZM4.95679 751.676L8.98127 754.643H8.98127L4.95679 751.676ZM31.4172 780.65L28.8266 776.374L28.8266 776.374L31.4172 780.65ZM316.947 607.682V602.682H315.551L314.356 603.405L316.947 607.682ZM6.99995 120C6.99995 56.4873 58.4872 5 122 5V-5C52.9644 -5 -3.00005 50.9644 -3.00005 120H6.99995ZM6.99995 487.682V120H-3.00005V487.682H6.99995ZM111.888 602.244C53.1135 597.126 6.99995 547.786 6.99995 487.682H-3.00005C-3.00005 553.018 47.1244 606.643 111.021 612.206L111.888 602.244ZM8.98127 754.643L115.479 610.192L107.43 604.258L0.932303 748.709L8.98127 754.643ZM28.8266 776.374C14.7747 784.886 -0.76804 767.867 8.98127 754.643L0.932304 748.709C-15.3165 770.748 10.588 799.114 34.0079 784.927L28.8266 776.374ZM314.356 603.405L28.8266 776.374L34.0079 784.927L319.538 611.958L314.356 603.405ZM1219 602.682H316.947V612.682H1219V602.682ZM1334 487.682C1334 551.194 1282.51 602.682 1219 602.682V612.682C1288.04 612.682 1344 556.717 1344 487.682H1334ZM1334 120V487.682H1344V120H1334ZM1219 5C1282.51 5 1334 56.4873 1334 120H1344C1344 50.9644 1288.04 -5 1219 -5V5ZM122 5H1219V-5H122V5Z" fill="#4F0063" mask="url(#path-1-inside-1_132_12)"/>
</svg>
