<svg width="5200" height="653" viewBox="0 0 5200 653" fill="none" xmlns="http://www.w3.org/2000/svg">
<path d="M4832.52 400L4867.02 396C4873.12 385.448 4859.84 442.546 4913.52 477C4967.2 511.453 5053.49 474.228 5052.02 477.5C5052.02 477.5 5051.01 528.634 5051.02 533.5C5051.03 538.366 4917.09 533.507 4890.52 505.5C4863.96 477.492 4838.52 449.5 4832.52 400Z" fill="white" stroke="black" stroke-width="3"/>
<path d="M5052.02 477.5L5051.16 534.21C5051.16 534.21 5040.72 538.147 5030.69 538.758C5020.47 539.381 5010.64 536.03 5008.49 526.038C5006.86 518.52 5024.48 521.534 5024.48 521.534C5024.48 521.534 5004.94 504.929 5004.63 497.839C5004.3 490.672 5019.64 493.489 5019.64 493.489C5019.64 493.489 5009 481.562 5008.41 476.538C5007.92 472.29 5012.32 465.827 5012.32 465.827C5012.32 465.827 5017.7 461.485 5025.51 462.77C5032.79 463.969 5037.26 464.626 5042.52 469.5C5046.7 473.366 5052.41 476.941 5052.02 477.5Z" fill="#693875" stroke="black" stroke-width="3"/>
<path d="M4899.52 390L4948.02 387C4945.7 386.439 4919.91 400.308 4911.02 436C4904.36 522.225 4910.43 571.423 4914.39 649.714L4865.39 649.714C4870.63 566.869 4869.49 469.886 4876.39 439.714C4883.28 409.542 4899.52 390 4899.52 390Z" fill="white" stroke="black" stroke-width="3"/>
<path d="M4914.38 649.714L4865.38 649.714C4865.38 649.714 4851.86 637.165 4851.43 627.132C4850.99 616.904 4853.93 606.099 4863.98 604.116C4871.53 602.624 4879.07 612.242 4879.07 612.242C4879.07 612.242 4885.17 599.912 4892.27 599.716C4899.46 599.519 4906.18 611.763 4906.18 611.763C4906.18 611.763 4911.91 605.034 4916.95 604.537C4921.21 604.116 4924.31 604.929 4927.38 607.912C4931.19 611.608 4930.58 623.154 4930.58 623.154C4930.58 623.154 4929.56 632.77 4925.76 638.777C4922.63 643.727 4914.38 649.714 4914.38 649.714Z" fill="#693875" stroke="black" stroke-width="3"/>
<path d="M4743.25 335.305C4817.91 396.943 4844.5 390 4844.5 390L4834.5 342.126C4834.5 342.126 4738.9 285.021 4702.35 278.08C4665.8 271.139 4632.65 315.503 4632.65 315.503L4668.84 342.126C4668.84 342.126 4682.45 285.115 4743.25 335.305Z" fill="white" stroke="black" stroke-width="3"/>
<path d="M4668.65 342.122L4632.64 315.518C4632.64 315.518 4622.18 324.968 4618.35 334.233C4613.82 345.199 4615.47 357.172 4623.32 363.754C4631.07 370.259 4634.1 353.085 4631.65 352.169C4630.98 353.744 4637.37 372.659 4644.29 374.02C4651.33 375.407 4654.18 367.53 4654.18 367.53C4654.18 367.53 4657.42 374.88 4667.4 378.674C4677.39 382.467 4678.78 366.39 4678.78 366.39C4678.78 366.39 4676.83 356.982 4673.76 351.409C4670.94 346.28 4668.65 342.122 4668.65 342.122Z" fill="#693875" stroke="black" stroke-width="3"/>
<path fill-rule="evenodd" clip-rule="evenodd" d="M5095.92 456.31C5095.92 456.31 5095.31 456.718 5094.27 457.357C5094.94 456.468 5095.57 456.037 5095.92 456.31Z" fill="#693875"/>
<path d="M5095.53 427.662L5145.51 429.187C5149.03 431.4 5148.09 450.915 5148.02 452.703C5147.94 454.491 5143.61 468.609 5138.61 471.979C5134.82 474.529 5129.9 476.931 5125.51 476.204C5119.64 475.231 5118.3 467.148 5120.29 463.116C5117.79 468.069 5103.8 477.597 5095.57 473.176C5088.83 469.554 5091.85 460.536 5094.26 457.359L5094.27 457.357C5095.31 456.718 5095.92 456.31 5095.92 456.31C5095.57 456.037 5094.94 456.468 5094.27 457.357L5094.26 457.359C5090.02 459.961 5078.67 466.382 5072.74 464.636C5059.62 460.771 5066.01 445.787 5074.79 438.919C5082.69 432.73 5095.53 427.662 5095.53 427.662Z" fill="#693875"/>
<path d="M5094.26 457.359L5094.27 457.357M5094.26 457.359C5091.85 460.536 5088.83 469.554 5095.57 473.176C5103.8 477.597 5117.79 468.069 5120.29 463.116C5118.3 467.148 5119.64 475.231 5125.51 476.204C5129.9 476.931 5134.82 474.529 5138.61 471.979C5143.61 468.609 5147.94 454.491 5148.02 452.703C5148.09 450.915 5149.03 431.4 5145.51 429.187L5095.53 427.662C5095.53 427.662 5082.69 432.73 5074.79 438.919C5066.01 445.787 5059.62 460.771 5072.74 464.636C5078.67 466.382 5090.02 459.961 5094.26 457.359ZM5094.27 457.357C5094.94 456.468 5095.57 456.037 5095.92 456.31C5095.92 456.31 5095.31 456.718 5094.27 457.357Z" stroke="black" stroke-width="3"/>
<path d="M5095.94 290.338C5019.62 235.175 4999.82 256.717 4994.61 258.775C4994.61 258.775 4982.42 263.652 4982.29 273.186C4982.15 282.72 5039.91 295.023 5086.1 330.272C5132.29 365.522 5084.01 437.687 5095.56 427.652L5145.53 429.188C5146.02 429.697 5172.45 345.643 5095.94 290.338Z" fill="white" stroke="black" stroke-width="3"/>
<path d="M4880.47 201.268C4885.77 245.898 4853.82 286.373 4809.12 291.671C4764.43 296.97 4726.25 273.324 4720.96 228.694C4715.67 184.064 4745.26 135.35 4789.96 130.052C4834.66 124.753 4875.18 156.638 4880.47 201.268Z" fill="white" stroke="black" stroke-width="3"/>
<path d="M4841.64 205.872C4844.4 229.145 4827.74 250.251 4804.43 253.014C4781.12 255.778 4759.99 239.151 4757.23 215.877C4754.47 192.604 4771.13 171.497 4794.44 168.734C4817.75 165.971 4838.88 182.598 4841.64 205.872Z" fill="#693875" stroke="black" stroke-width="3"/>
<path d="M5034.87 193.109C5040.16 237.739 5009.72 292.97 4965.02 298.269C4920.32 303.567 4879.8 271.683 4874.51 227.053C4869.21 182.423 4901.16 141.948 4945.86 136.649C4990.55 131.351 5029.57 148.479 5034.87 193.109Z" fill="white" stroke="black" stroke-width="3"/>
<path d="M4997.53 212.469C5000.29 235.742 4983.64 256.849 4960.33 259.612C4937.02 262.375 4915.89 245.748 4913.13 222.475C4910.37 199.202 4927.03 178.095 4950.33 175.332C4973.64 172.569 4994.78 189.196 4997.53 212.469Z" fill="#693875" stroke="black" stroke-width="3"/>
<path d="M4720.85 228.663L5034.65 191.463L5053.46 350.107C5055.08 363.798 5045.28 376.213 5031.57 377.839L4767.42 409.153C4753.71 410.778 4741.28 400.998 4739.66 387.308L4720.85 228.663Z" fill="white" stroke="black" stroke-width="3"/>
<path d="M4730.41 267.749C4728.78 254.059 4738.58 241.643 4752.29 240.017L4968.78 214.354C4982.49 212.728 4994.92 222.509 4996.54 236.199L5009 341.301C5010.63 354.991 5000.83 367.407 4987.12 369.032L4770.63 394.696C4756.92 396.321 4744.49 386.541 4742.87 372.851L4730.41 267.749Z" fill="black" stroke="black" stroke-width="3"/>
<rect width="99.9993" height="99.8471" transform="matrix(0.993046 -0.117723 0.11775 0.993043 4748.63 268.605)" stroke="black" stroke-width="3"/>
<rect width="99.9993" height="99.8471" transform="matrix(0.993046 -0.117723 0.11775 0.993043 4879.72 253.065)" stroke="black" stroke-width="3"/>
<path d="M4280.36 565.74L4307.44 521.5C4307.44 521.5 4328.2 523.569 4336.45 529.3C4344.86 535.142 4351.67 544.027 4347.17 553.222C4343.79 560.14 4331.57 560.315 4331.57 560.315C4331.57 560.315 4337.69 572.635 4333.54 578.408C4329.35 584.244 4315.54 582.184 4315.54 582.184C4315.54 582.184 4317.42 590.819 4314.77 595.132C4312.52 598.779 4310 600.754 4305.76 601.394C4300.52 602.185 4291.7 594.707 4291.7 594.707C4291.7 594.707 4284.66 588.079 4282.18 581.418C4280.14 575.928 4280.36 565.74 4280.36 565.74Z" fill="#693875" stroke="black" stroke-width="3"/>
<path d="M4142.48 354.822L4168.7 344.5C4168.7 344.5 4173.6 439.616 4206.94 473C4240.28 506.383 4307.44 521 4307.44 521L4280.26 565.842C4280.26 565.842 4183.73 508.77 4168.7 485.609C4153.67 462.449 4140.87 405.669 4142.48 354.822Z" fill="white" stroke="black" stroke-width="3"/>
<path d="M4202.31 338.058L4226.45 345.617L4142.86 641.733L4094.44 649.349L4202.31 338.058Z" fill="white" stroke="black" stroke-width="3"/>
<path d="M4142.94 642L4094.44 650C4094.44 650 4088.68 639.27 4086.45 629.479C4084.19 619.497 4085.9 609.25 4095.41 605.504C4102.57 602.687 4102.45 620.562 4102.45 620.562C4102.45 620.562 4115.67 598.589 4122.61 597.128C4129.63 595.65 4129.34 611.235 4129.34 611.235C4129.34 611.235 4139.38 598.803 4144.24 597.412C4148.36 596.237 4155.45 599.533 4155.45 599.533C4155.45 599.533 4160.6 604.144 4160.6 612.051C4160.6 619.429 4157.35 623.992 4152.62 629.392C4148.77 633.796 4142.94 642 4142.94 642Z" fill="#693875" stroke="black" stroke-width="3"/>
<path fill-rule="evenodd" clip-rule="evenodd" d="M4446.98 332.811C4446.98 332.811 4446.8 333.529 4446.48 334.707C4446.37 333.595 4446.53 332.851 4446.98 332.811Z" fill="#693875"/>
<path d="M4427.2 312.083L4464.87 279.197C4468.95 278.423 4481.54 293.364 4482.7 294.727C4483.86 296.091 4490.3 309.382 4488.92 315.258C4487.88 319.702 4485.91 324.806 4482.2 327.261C4477.24 330.541 4470.75 325.533 4469.47 321.223C4471 326.553 4467.23 343.057 4458.19 345.415C4450.79 347.346 4446.87 338.68 4446.48 334.708L4446.48 334.707C4446.8 333.529 4446.98 332.811 4446.98 332.811C4446.53 332.851 4446.37 333.595 4446.48 334.707L4446.48 334.708C4445.13 339.505 4441.19 351.931 4435.65 354.685C4423.4 360.781 4417.9 345.447 4419.65 334.446C4421.24 324.533 4427.2 312.083 4427.2 312.083Z" fill="#693875"/>
<path d="M4446.48 334.708L4446.48 334.707M4446.48 334.708C4446.87 338.68 4450.79 347.346 4458.19 345.415C4467.23 343.057 4471 326.553 4469.47 321.223C4470.75 325.533 4477.24 330.541 4482.2 327.261C4485.91 324.806 4487.88 319.702 4488.92 315.258C4490.3 309.382 4483.86 296.091 4482.7 294.727C4481.54 293.364 4468.95 278.423 4464.87 279.197L4427.2 312.083C4427.2 312.083 4421.24 324.533 4419.65 334.446C4417.9 345.447 4423.4 360.781 4435.65 354.685C4441.19 351.931 4445.13 339.505 4446.48 334.708ZM4446.48 334.707C4446.37 333.595 4446.53 332.851 4446.98 332.811C4446.98 332.811 4446.8 333.529 4446.48 334.707Z" stroke="black" stroke-width="3"/>
<path d="M4334.07 211.158C4240.61 222.651 4240.76 251.909 4238.34 256.964C4238.34 256.964 4245.44 291.854 4250.16 280.779C4254.89 269.705 4290.58 247.816 4354.03 247.12C4417.48 246.424 4427.17 312.759 4427.22 312.053L4464.88 279.187C4465.58 279.227 4427.78 199.636 4334.07 211.158Z" fill="white" stroke="black" stroke-width="3"/>
<path fill-rule="evenodd" clip-rule="evenodd" d="M3944.12 288.419C3944.12 288.419 3943.88 287.723 3943.51 286.554C3944.21 287.429 3944.47 288.144 3944.12 288.419Z" fill="#693875"/>
<path d="M3971.98 295.112L3958.16 343.168C3955.14 346.035 3936.46 340.306 3934.75 339.789C3933.04 339.272 3920.42 331.592 3918.4 325.909C3916.86 321.61 3915.75 316.255 3917.54 312.179C3919.93 306.732 3928.09 307.423 3931.51 310.349C3927.32 306.705 3921.55 290.791 3927.86 283.909C3933.04 278.272 3941.03 283.428 3943.51 286.553L3943.51 286.554C3943.88 287.723 3944.12 288.419 3944.12 288.419C3944.47 288.144 3944.21 287.429 3943.51 286.554L3943.51 286.553C3942.04 281.795 3938.62 269.213 3941.78 263.899C3948.76 252.136 3961.7 262.035 3966.19 272.231C3970.24 281.418 3971.98 295.112 3971.98 295.112Z" fill="#693875"/>
<path d="M3943.51 286.553L3943.51 286.554M3943.51 286.553C3941.03 283.428 3933.04 278.272 3927.86 283.909C3921.55 290.791 3927.32 306.705 3931.51 310.349C3928.09 307.423 3919.93 306.732 3917.54 312.179C3915.75 316.255 3916.86 321.61 3918.4 325.909C3920.43 331.592 3933.04 339.272 3934.75 339.789C3936.46 340.306 3955.14 346.035 3958.16 343.168L3971.98 295.112C3971.98 295.112 3970.24 281.418 3966.19 272.231C3961.7 262.035 3948.76 252.136 3941.78 263.899C3938.62 269.213 3942.04 281.795 3943.51 286.553ZM3943.51 286.554C3944.21 287.429 3944.47 288.144 3944.12 288.419C3944.12 288.419 3943.88 287.723 3943.51 286.554Z" stroke="black" stroke-width="3"/>
<path d="M4104.95 329.423C4177.25 269.091 4161.26 244.586 4160.56 239.026C4160.56 239.026 4135.67 213.56 4137.71 225.428C4139.74 237.295 4121.62 275.038 4068.68 310.027C4015.74 345.015 3971.63 294.531 3971.98 295.146L3958.15 343.184C3957.54 343.532 4032.46 389.909 4104.95 329.423Z" fill="white" stroke="black" stroke-width="3"/>
<path d="M4332.8 145.49C4337.91 190.142 4305.8 230.485 4261.08 235.601C4216.36 240.716 4178.28 216.913 4173.17 172.262C4168.06 127.611 4197.86 79.019 4242.57 73.9039C4287.29 68.7888 4327.69 100.839 4332.8 145.49Z" fill="white" stroke="black" stroke-width="3"/>
<path d="M4293.94 149.935C4296.61 173.219 4279.86 194.257 4256.54 196.925C4233.22 199.592 4212.16 182.879 4209.49 159.594C4206.83 136.31 4223.57 115.272 4246.89 112.604C4270.21 109.937 4291.28 126.65 4293.94 149.935Z" fill="#693875" stroke="black" stroke-width="3"/>
<path d="M4179.19 167.115C4184.3 211.766 4153.63 266.872 4108.91 271.987C4064.19 277.102 4027.05 246.151 4021.94 201.5C4011.44 155 4045.69 115.406 4090.41 110.29C4135.13 105.175 4174.08 122.463 4179.19 167.115Z" fill="white" stroke="black" stroke-width="3"/>
<path d="M4141.78 186.321C4144.44 209.606 4127.7 230.644 4104.38 233.311C4081.06 235.979 4059.99 219.265 4057.33 195.981C4054.66 172.697 4071.41 151.658 4094.73 148.991C4118.05 146.324 4139.11 163.037 4141.78 186.321Z" fill="#693875" stroke="black" stroke-width="3"/>
<path d="M4020.28 189.351L4334.23 153.438L4352.39 312.158C4353.95 325.855 4344.1 338.231 4330.39 339.8L4066.11 370.03C4052.39 371.599 4040 361.768 4038.44 348.071L4020.28 189.351Z" fill="white" stroke="black" stroke-width="3"/>
<path d="M4029.68 228.475C4028.11 214.778 4037.96 202.403 4051.68 200.834L4268.26 176.058C4281.98 174.489 4294.37 184.321 4295.94 198.017L4307.97 303.17C4309.54 316.866 4299.69 329.242 4285.97 330.811L4069.38 355.586C4055.66 357.155 4043.27 347.324 4041.71 333.627L4029.68 228.475Z" fill="black" stroke="black" stroke-width="3"/>
<rect width="99.9993" height="99.8471" transform="matrix(0.993521 -0.113649 0.113676 0.993518 4047.9 229.406)" stroke="black" stroke-width="3"/>
<path d="M4142.99 268.778C4146.12 296.171 4126.42 320.922 4098.99 324.06C4071.55 327.198 4046.77 307.536 4043.64 280.143C4040.5 252.749 4060.2 227.999 4087.64 224.86C4115.07 221.722 4139.86 241.385 4142.99 268.778Z" fill="white"/>
<path d="M4131.07 270.142C4133.45 290.961 4118.48 309.771 4097.63 312.156C4076.78 314.541 4057.94 299.598 4055.56 278.779C4053.18 257.96 4068.15 239.149 4089 236.764C4109.85 234.379 4128.69 249.323 4131.07 270.142Z" fill="black"/>
<path d="M4047.47 317.663C4053.98 316.807 4060.26 314.678 4065.94 311.396C4071.63 308.114 4076.62 303.744 4080.61 298.536C4084.61 293.328 4087.55 287.383 4089.25 281.041C4090.95 274.699 4091.38 268.084 4090.53 261.574C4089.67 255.064 4087.54 248.786 4084.26 243.099C4080.98 237.412 4076.61 232.426 4071.4 228.428C4066.19 224.43 4060.25 221.496 4053.91 219.796C4047.56 218.095 4040.95 217.66 4034.44 218.515L4040.95 268.089L4047.47 317.663Z" fill="black"/>
<path d="M4043.44 224.781C4044.87 231.189 4047.55 237.253 4051.32 242.626C4055.09 248 4059.89 252.577 4065.43 256.097C4070.97 259.618 4077.16 262.012 4083.62 263.143C4090.09 264.274 4096.72 264.12 4103.13 262.69C4109.54 261.26 4115.6 258.581 4120.97 254.808C4126.35 251.034 4130.93 246.239 4134.45 240.696C4137.97 235.154 4140.36 228.972 4141.49 222.504C4142.62 216.036 4142.47 209.408 4141.04 203L4092.24 213.89L4043.44 224.781Z" fill="black"/>
<rect width="99.9993" height="99.8471" transform="matrix(0.993521 -0.113649 0.113676 0.993518 4179.04 214.404)" stroke="black" stroke-width="3"/>
<path d="M4263.21 255.025C4266.34 282.418 4246.64 307.169 4219.21 310.308C4191.77 313.446 4166.99 293.783 4163.86 266.39C4160.72 238.997 4180.42 214.246 4207.86 211.108C4235.29 207.969 4260.07 227.632 4263.21 255.025Z" fill="white"/>
<path d="M4251.28 256.389C4253.67 277.208 4238.69 296.018 4217.84 298.404C4196.99 300.789 4178.16 285.845 4175.78 265.026C4173.4 244.207 4188.37 225.397 4209.22 223.012C4230.07 220.627 4248.9 235.57 4251.28 256.389Z" fill="black"/>
<path d="M4157.44 218.78C4158.87 225.189 4161.55 231.253 4165.32 236.626C4169.1 242 4173.89 246.577 4179.43 250.097C4184.98 253.617 4191.16 256.012 4197.63 257.143C4204.09 258.274 4210.72 258.12 4217.13 256.69C4223.54 255.26 4229.6 252.581 4234.98 248.808C4240.35 245.034 4244.93 240.239 4248.45 234.696C4251.97 229.153 4254.36 222.972 4255.49 216.504C4256.62 210.036 4256.47 203.408 4255.04 197L4206.24 207.89L4157.44 218.78Z" fill="black"/>
<path d="M4159.44 313.91C4166 314.188 4172.55 313.172 4178.72 310.919C4184.89 308.665 4190.55 305.22 4195.38 300.778C4200.22 296.336 4204.13 290.985 4206.9 285.031C4209.67 279.076 4211.24 272.635 4211.51 266.075C4211.79 259.515 4210.78 252.964 4208.52 246.797C4206.27 240.629 4202.82 234.966 4198.38 230.131C4193.94 225.295 4188.59 221.382 4182.64 218.614C4176.68 215.846 4170.24 214.278 4163.68 214L4161.56 263.955L4159.44 313.91Z" fill="black"/>
<path d="M3497.28 325.245L3522.08 320.238L3591.47 620L3552.7 650L3497.28 325.245Z" fill="white" stroke="black" stroke-width="3"/>
<path d="M3590.83 621.667L3552.7 650C3552.7 650 3531.73 645.648 3525.84 637.514C3519.84 629.22 3516.35 618.58 3523.63 611.391C3529.12 605.983 3540.71 609.856 3540.71 609.856C3540.71 609.856 3539 596.206 3544.82 592.128C3550.71 588.006 3563.07 594.518 3563.07 594.518C3563.07 594.518 3564.14 585.745 3568.07 582.553C3571.4 579.853 3574.43 578.823 3578.64 579.62C3583.85 580.607 3589.7 590.58 3589.7 590.58C3589.7 590.58 3594.16 599.164 3594.29 606.27C3594.41 612.127 3590.83 621.667 3590.83 621.667Z" fill="#693875" stroke="black" stroke-width="3"/>
<path d="M3550.11 332.35L3609.54 341.532C3609.54 341.532 3473.75 380.946 3457.7 409.5C3441.65 438.054 3468.7 517 3468.7 517L3423.2 517C3423.2 517 3409.95 447.255 3423.2 405C3436.46 362.745 3532.68 334.384 3550.11 332.35Z" fill="white" stroke="black" stroke-width="3"/>
<path d="M3423.2 517L3468.7 517C3468.7 517 3473.03 527.648 3473.81 537.659C3474.6 547.865 3471.41 557.754 3461.46 560.076C3453.97 561.823 3456.69 544.155 3456.69 544.155C3456.69 544.155 3440.41 563.971 3433.33 564.407C3426.17 564.848 3428.73 549.471 3428.73 549.471C3428.73 549.471 3416.98 560.31 3411.97 560.978C3407.73 561.543 3401.19 557.251 3401.19 557.251C3401.19 557.251 3396.76 551.939 3397.91 544.117C3398.99 536.817 3402.87 532.775 3408.33 528.12C3412.78 524.323 3423.2 517 3423.2 517Z" fill="#693875" stroke="black" stroke-width="3"/>
<path d="M3350.74 404.628L3336.22 356.926C3336.22 356.926 3324.25 351.001 3314.34 349.339C3304.66 347.714 3290.89 352.007 3291.81 362.204C3292.5 369.875 3309.51 376.318 3309.51 376.318C3309.51 376.318 3294.18 382.08 3295.99 388.954C3297.82 395.902 3317.34 404.778 3317.34 404.778C3317.34 404.778 3305.46 407.209 3306.4 412.187C3307.2 416.395 3307.88 418.527 3311.6 420.637C3316.22 423.251 3327.89 423.486 3327.89 423.486C3327.89 423.486 3339.27 423.345 3343.96 418.011C3347.83 413.614 3350.74 404.628 3350.74 404.628Z" fill="#693875" stroke="black" stroke-width="3"/>
<path d="M3451.99 296.132C3491.62 207.795 3513.54 186.014 3513.54 186.014L3465.8 200.597C3472.92 203.412 3435.51 234.155 3399.05 300.429C3362.59 366.703 3331.48 356.476 3336.62 358.065L3350.93 404.56C3357.33 413.788 3412.68 383.747 3451.99 296.132Z" fill="white" stroke="black" stroke-width="3"/>
<path d="M3732.29 254.612C3635.73 261.531 3607.32 277.069 3607.32 277.069L3651.43 301.058C3651.43 301.058 3770.14 288.004 3801.38 267.803C3832.62 247.601 3825.99 192.619 3825.99 192.619L3781.44 198.324C3781.44 198.324 3810.93 248.978 3732.29 254.612Z" fill="white" stroke="black" stroke-width="3"/>
<path d="M3781.57 198.196L3825.99 192.596C3825.99 192.596 3827.04 178.542 3823.42 169.194C3819.13 158.131 3809.67 150.608 3799.45 151.256C3789.35 151.897 3799.01 166.419 3801.42 165.389C3800.82 163.787 3783.14 154.509 3777.19 158.298C3771.13 162.159 3774.51 169.821 3774.51 169.821C3774.51 169.821 3767.1 166.737 3757.25 170.886C3747.4 175.034 3757.49 187.627 3757.49 187.627C3757.49 187.627 3765.4 193.087 3771.47 195.003C3777.05 196.766 3781.57 198.196 3781.57 198.196Z" fill="#693875" stroke="black" stroke-width="3"/>
<path d="M3720.91 174.63C3714.79 219.154 3673.68 250.279 3629.09 244.149C3584.5 238.02 3553.51 205.522 3559.63 160.997C3565.75 116.473 3606.66 76.7833 3651.25 82.9131C3695.84 89.0429 3727.03 130.106 3720.91 174.63Z" fill="white" stroke="black" stroke-width="3"/>
<path d="M3682.16 169.304C3678.97 192.522 3657.54 208.753 3634.28 205.557C3611.03 202.36 3594.77 180.947 3597.96 157.729C3601.15 134.51 3622.58 118.28 3645.84 121.476C3669.09 124.673 3685.35 146.086 3682.16 169.304Z" fill="#693875" stroke="black" stroke-width="3"/>
<path d="M3570.23 139.645C3564.11 184.169 3523.01 215.294 3478.41 209.164C3433.82 203.034 3402.84 170.536 3408.96 126.012C3415.07 81.488 3455.98 41.7981 3500.57 47.9279C3545.16 54.0577 3576.35 95.1208 3570.23 139.645Z" fill="white" stroke="black" stroke-width="3"/>
<path d="M3531.49 134.319C3528.3 157.537 3506.86 173.768 3483.61 170.571C3460.35 167.375 3444.09 145.962 3447.28 122.743C3450.47 99.5253 3471.91 83.2945 3495.16 86.491C3518.42 89.6876 3534.68 111.101 3531.49 134.319Z" fill="#693875" stroke="black" stroke-width="3"/>
<path d="M3408.85 125.954L3721.91 168.986L3700.16 327.255C3698.28 340.912 3685.67 350.46 3671.99 348.58L3408.47 312.356C3394.79 310.476 3385.22 297.88 3387.1 284.222L3408.85 125.954Z" fill="white" stroke="black" stroke-width="3"/>
<path d="M3408.26 166.187C3410.14 152.53 3422.75 142.982 3436.43 144.862L3652.39 174.549C3666.07 176.429 3675.64 189.025 3673.76 202.683L3659.35 307.536C3657.47 321.193 3644.86 330.741 3631.19 328.861L3415.22 299.174C3401.54 297.294 3391.97 284.698 3393.85 271.04L3408.26 166.187Z" fill="black" stroke="black" stroke-width="3"/>
<rect width="99.9993" height="99.8471" transform="matrix(0.990684 0.136179 -0.136152 0.990688 3425.68 171.607)" stroke="black" stroke-width="3"/>
<path d="M3508.05 233.321C3504.29 260.637 3479.07 279.732 3451.72 275.971C3424.36 272.211 3405.23 247.019 3408.98 219.704C3412.73 192.388 3437.95 173.293 3465.31 177.054C3492.67 180.814 3511.8 206.006 3508.05 233.321Z" fill="white"/>
<path d="M3496.16 231.687C3493.31 252.447 3474.14 266.959 3453.35 264.101C3432.56 261.243 3418.02 242.097 3420.87 221.338C3423.72 200.578 3442.89 186.066 3463.68 188.924C3484.47 191.782 3499.01 210.928 3496.16 231.687Z" fill="black"/>
<path d="M3399.94 250.339C3406.26 252.101 3412.87 252.599 3419.39 251.806C3425.91 251.012 3432.21 248.943 3437.93 245.716C3443.64 242.489 3448.67 238.167 3452.72 232.997C3456.77 227.827 3459.76 221.91 3461.52 215.585C3463.28 209.26 3463.78 202.649 3462.99 196.131C3462.19 189.613 3460.12 183.315 3456.9 177.597C3453.67 171.879 3449.35 166.852 3444.18 162.804C3439.01 158.756 3433.09 155.766 3426.76 154.005L3413.35 202.172L3399.94 250.339Z" fill="black"/>
<path d="M3423.28 163C3422.28 169.49 3422.58 176.113 3424.14 182.49C3425.7 188.867 3428.51 194.874 3432.4 200.166C3436.28 205.459 3441.17 209.935 3446.79 213.338C3452.4 216.741 3458.63 219.005 3465.12 220C3471.61 220.995 3478.24 220.702 3484.61 219.137C3490.99 217.573 3497 214.768 3502.29 210.882C3507.58 206.997 3512.06 202.106 3515.46 196.491C3518.86 190.876 3521.13 184.645 3522.12 178.155L3472.7 170.577L3423.28 163Z" fill="black"/>
<rect width="99.9993" height="99.8471" transform="matrix(0.990684 0.136179 -0.136152 0.990688 3556.46 189.582)" stroke="black" stroke-width="3"/>
<path d="M3627.92 249.798C3624.17 277.114 3598.95 296.209 3571.59 292.448C3544.23 288.688 3525.1 263.496 3528.85 236.181C3532.61 208.865 3557.83 189.77 3585.18 193.531C3612.54 197.291 3631.68 222.483 3627.92 249.798Z" fill="white"/>
<path d="M3616.03 248.164C3613.18 268.924 3594.01 283.436 3573.22 280.578C3552.43 277.72 3537.89 258.574 3540.74 237.815C3543.59 217.055 3562.76 202.543 3583.55 205.401C3604.34 208.259 3618.89 227.405 3616.03 248.164Z" fill="black"/>
<path d="M3522.7 268.429C3529.16 269.589 3535.79 269.464 3542.21 268.061C3548.62 266.659 3554.7 264.007 3560.09 260.257C3565.48 256.507 3570.07 251.732 3573.62 246.204C3577.16 240.677 3579.58 234.506 3580.74 228.043C3581.9 221.58 3581.78 214.952 3580.38 208.537C3578.97 202.123 3576.32 196.047 3572.57 190.657C3568.82 185.267 3564.05 180.669 3558.52 177.125C3552.99 173.581 3546.82 171.16 3540.36 170L3531.53 219.215L3522.7 268.429Z" fill="black"/>
<path d="M3541.62 181C3541.1 187.546 3541.88 194.129 3543.91 200.374C3545.94 206.618 3549.18 212.402 3553.45 217.395C3557.71 222.387 3562.92 226.491 3568.77 229.471C3574.62 232.451 3581 234.25 3587.55 234.765C3594.09 235.279 3600.68 234.499 3606.92 232.47C3613.16 230.44 3618.95 227.2 3623.94 222.936C3628.93 218.671 3633.04 213.464 3636.02 207.614C3639 201.763 3640.8 195.383 3641.31 188.837L3591.46 184.918L3541.62 181Z" fill="black"/>
<path d="M2855.7 354.118L2881.22 346.947L2934.42 650L2888.42 650L2855.7 354.118Z" fill="white" stroke="black" stroke-width="3"/>
<path d="M2934.42 650H2888.42C2888.42 650 2871.89 637.451 2871.46 627.418C2871.02 617.19 2873.96 606.384 2884.01 604.402C2891.56 602.91 2899.1 612.527 2899.1 612.527C2899.1 612.527 2905.2 600.198 2912.31 600.002C2919.49 599.805 2926.21 612.049 2926.21 612.049C2926.21 612.049 2931.94 605.32 2936.98 604.823C2941.25 604.402 2944.34 605.215 2947.42 608.198C2951.22 611.893 2950.61 623.44 2950.61 623.44C2950.61 623.44 2949.59 633.056 2945.79 639.062C2942.66 644.013 2934.42 650 2934.42 650Z" fill="#693875" stroke="black" stroke-width="3"/>
<path d="M2906.42 361.969L2966.42 366C2966.42 366 2881.92 389.5 2881.92 417.5C2881.92 445.5 2967.39 519.048 2972.42 511L2936.92 540C2936.92 540 2851.42 465 2851.42 424C2851.42 383 2889.23 365.496 2906.42 361.969Z" fill="white" stroke="black" stroke-width="3"/>
<path d="M2936.65 540.877L2973.14 510.411C2973.14 510.411 2983.01 515.639 2990.1 522.75C2997.32 529.999 3001.32 539.59 2995.25 547.818C2990.69 554.008 2981.29 538.802 2981.29 538.802C2981.29 538.802 2981.77 564.441 2976.67 569.371C2971.5 574.354 2963.47 560.995 2963.47 560.995C2963.47 560.995 2961.57 576.865 2958.19 580.628C2955.33 583.808 2947.57 584.786 2947.57 584.786C2947.57 584.786 2940.75 583.621 2936.56 576.921C2932.64 570.669 2932.96 565.077 2934.09 557.992C2935.02 552.215 2936.65 540.877 2936.65 540.877Z" fill="#693875" stroke="black" stroke-width="3"/>
<path fill-rule="evenodd" clip-rule="evenodd" d="M3183.34 243.304C3183.34 243.304 3183.29 242.568 3183.16 241.352C3182.87 242.43 3182.91 243.191 3183.34 243.304Z" fill="#693875"/>
<path d="M3160.39 260.456L3192.07 299.147C3195.97 300.59 3210.87 287.95 3212.24 286.799C3213.61 285.647 3222.16 273.61 3221.78 267.588C3221.49 263.032 3220.4 257.672 3217.15 254.634C3212.8 250.575 3205.57 254.434 3203.59 258.471C3205.99 253.471 3205.02 236.569 3196.5 232.741C3189.52 229.606 3184.21 237.499 3183.16 241.35L3183.16 241.352C3183.29 242.568 3183.34 243.304 3183.34 243.304C3182.91 243.191 3182.87 242.43 3183.16 241.352L3183.16 241.35C3182.64 236.398 3180.81 223.488 3175.81 219.852C3164.75 211.805 3156.77 226.009 3156.67 237.15C3156.58 247.188 3160.39 260.456 3160.39 260.456Z" fill="#693875"/>
<path d="M3183.16 241.35L3183.16 241.352M3183.16 241.35C3184.21 237.499 3189.52 229.606 3196.5 232.741C3205.02 236.569 3205.99 253.471 3203.59 258.471C3205.57 254.434 3212.8 250.575 3217.15 254.634C3220.4 257.672 3221.49 263.032 3221.78 267.588C3222.16 273.61 3213.61 285.647 3212.24 286.799C3210.87 287.95 3195.97 300.59 3192.07 299.147L3160.39 260.456C3160.39 260.456 3156.58 247.188 3156.67 237.15C3156.77 226.009 3164.75 211.805 3175.81 219.852C3180.81 223.488 3182.64 236.398 3183.16 241.35ZM3183.16 241.352C3182.87 242.43 3182.91 243.191 3183.34 243.304C3183.34 243.304 3183.29 242.568 3183.16 241.352Z" stroke="black" stroke-width="3"/>
<path d="M3051.78 344.491C2961.53 317.618 2966.54 288.791 2964.99 283.404C2964.99 283.404 2973.98 248.782 2976.8 260.488C2979.62 272.194 3011.17 299.712 3073.63 310.949C3136.08 322.186 3160.48 259.785 3160.4 260.488L3192.08 299.159C3192.78 299.237 3142.27 371.433 3051.78 344.491Z" fill="white" stroke="black" stroke-width="3"/>
<path fill-rule="evenodd" clip-rule="evenodd" d="M2726.62 502.459C2726.62 502.459 2727.19 502.925 2728.17 503.663C2727.58 502.712 2727 502.222 2726.62 502.459Z" fill="#693875"/>
<path d="M2729.81 473.986L2679.92 470.623C2676.2 472.481 2675.23 491.994 2675.13 493.781C2675.03 495.568 2677.96 510.042 2682.61 513.885C2686.13 516.792 2690.79 519.663 2695.23 519.367C2701.16 518.973 2703.29 511.06 2701.71 506.853C2703.71 512.026 2716.71 522.876 2725.33 519.279C2732.39 516.333 2730.26 507.063 2728.17 503.665L2728.17 503.663C2727.19 502.925 2726.62 502.459 2726.62 502.459C2727 502.222 2727.58 502.712 2728.17 503.663L2728.17 503.665C2732.14 506.669 2742.81 514.168 2748.88 513.01C2762.32 510.445 2757.41 494.908 2749.35 487.216C2742.09 480.285 2729.81 473.986 2729.81 473.986Z" fill="#693875"/>
<path d="M2728.17 503.665L2728.17 503.663M2728.17 503.665C2730.26 507.063 2732.39 516.333 2725.33 519.279C2716.71 522.876 2703.71 512.026 2701.71 506.853C2703.29 511.06 2701.16 518.973 2695.23 519.367C2690.79 519.663 2686.13 516.792 2682.61 513.885C2677.96 510.042 2675.03 495.568 2675.13 493.781C2675.23 491.994 2676.2 472.481 2679.92 470.623L2729.81 473.986C2729.81 473.986 2742.09 480.285 2749.35 487.216C2757.41 494.908 2762.32 510.445 2748.88 513.01C2742.81 514.168 2732.14 506.669 2728.17 503.665ZM2728.17 503.663C2727.58 502.712 2727 502.222 2726.62 502.459C2726.62 502.459 2727.19 502.925 2728.17 503.663Z" stroke="black" stroke-width="3"/>
<path d="M2742.81 337.279C2824.15 289.834 2841.75 313.207 2846.74 315.764C2846.74 315.764 2862.21 347.831 2851.75 341.879C2841.28 335.927 2799.63 340.116 2748.7 377.983C2697.78 415.851 2730.24 474.51 2729.78 473.973L2679.9 470.622C2679.37 471.081 2661.26 384.846 2742.81 337.279Z" fill="white" stroke="black" stroke-width="3"/>
<path d="M2918.65 170.333C2916.38 215.219 2878.11 249.767 2833.15 247.499C2788.2 245.231 2754.53 215.521 2756.79 170.636C2759.06 125.75 2796.4 82.6857 2841.35 84.9538C2886.3 87.2219 2920.91 125.448 2918.65 170.333Z" fill="white" stroke="black" stroke-width="3"/>
<path d="M2879.59 168.363C2878.41 191.769 2858.45 209.785 2835.01 208.602C2811.56 207.42 2793.52 187.486 2794.7 164.079C2795.88 140.673 2815.84 122.657 2839.28 123.84C2862.72 125.022 2880.77 144.956 2879.59 168.363Z" fill="#693875" stroke="black" stroke-width="3"/>
<path d="M3072.22 188.167C3069.96 233.053 3030.69 282.401 2985.74 280.133C2940.79 277.864 2906.18 239.639 2908.44 194.753C2910.7 149.867 2948.98 115.319 2993.93 117.587C3038.89 119.855 3074.48 143.281 3072.22 188.167Z" fill="white" stroke="black" stroke-width="3"/>
<path d="M3032.17 200.996C3030.99 224.403 3011.03 242.419 2987.59 241.236C2964.15 240.053 2946.1 220.12 2947.28 196.713C2948.46 173.306 2968.42 155.29 2991.87 156.473C3015.31 157.656 3033.35 177.589 3032.17 200.996Z" fill="#693875" stroke="black" stroke-width="3"/>
<path d="M2756.69 170.587L3072.28 186.508L3064.24 346.061C3063.54 359.83 3051.8 370.427 3038.01 369.732L2772.35 356.33C2758.56 355.634 2747.95 343.908 2748.64 330.14L2756.69 170.587Z" fill="white" stroke="black" stroke-width="3"/>
<path d="M2759.56 210.721C2760.25 196.953 2772 186.355 2785.79 187.051L3003.51 198.034C3017.3 198.73 3027.91 210.456 3027.22 224.224L3021.89 329.928C3021.19 343.697 3009.45 354.295 2995.66 353.599L2777.94 342.615C2764.15 341.92 2753.54 330.194 2754.23 316.425L2759.56 210.721Z" fill="black" stroke="black" stroke-width="3"/>
<rect width="99.9993" height="99.8471" transform="matrix(0.99873 0.0503838 -0.0503571 0.998731 2777.39 214.621)" stroke="black" stroke-width="3"/>
<path d="M2864.76 269.015C2863.37 296.552 2839.89 317.748 2812.31 316.356C2784.73 314.965 2763.5 291.514 2764.89 263.977C2766.27 236.44 2789.76 215.245 2817.34 216.636C2844.91 218.027 2866.15 241.478 2864.76 269.015Z" fill="white"/>
<path d="M2852.77 268.411C2851.72 289.339 2833.87 305.447 2812.91 304.39C2791.95 303.333 2775.81 285.51 2776.87 264.582C2777.93 243.653 2795.77 227.545 2816.73 228.602C2837.69 229.66 2853.83 247.483 2852.77 268.411Z" fill="black"/>
<path d="M2761.41 313.996C2767.98 314.055 2774.49 312.82 2780.58 310.362C2786.67 307.904 2792.22 304.271 2796.9 299.67C2801.58 295.069 2805.32 289.59 2807.88 283.547C2810.45 277.503 2811.8 271.013 2811.86 264.448C2811.92 257.882 2810.69 251.369 2808.23 245.28C2805.77 239.191 2802.14 233.647 2797.54 228.962C2792.93 224.278 2787.46 220.545 2781.41 217.978C2775.37 215.411 2768.88 214.059 2762.31 214L2761.86 263.998L2761.41 313.996Z" fill="black"/>
<path d="M2771.33 206C2770.82 212.546 2771.6 219.129 2773.63 225.374C2775.66 231.618 2778.9 237.402 2783.16 242.394C2787.43 247.387 2792.63 251.49 2798.49 254.471C2804.34 257.451 2810.72 259.25 2817.26 259.764C2823.81 260.279 2830.39 259.499 2836.64 257.47C2842.88 255.44 2848.66 252.2 2853.66 247.935C2858.65 243.671 2862.75 238.464 2865.73 232.614C2868.71 226.763 2870.51 220.382 2871.03 213.836L2821.18 209.918L2771.33 206Z" fill="black"/>
<rect width="99.9993" height="99.8471" transform="matrix(0.99873 0.0503838 -0.0503571 0.998731 2909.22 221.27)" stroke="black" stroke-width="3"/>
<path d="M2985.6 275.111C2984.22 302.648 2960.73 323.843 2933.15 322.452C2905.57 321.061 2884.34 297.609 2885.73 270.072C2887.12 242.535 2910.6 221.34 2938.18 222.731C2965.76 224.123 2986.99 247.574 2985.6 275.111Z" fill="white"/>
<path d="M2973.62 274.506C2972.56 295.434 2954.72 311.543 2933.76 310.486C2912.8 309.428 2896.66 291.605 2897.72 270.677C2898.77 249.749 2916.62 233.641 2937.58 234.698C2958.54 235.755 2974.67 253.578 2973.62 274.506Z" fill="black"/>
<path d="M2878.9 322.631C2885.46 322.237 2891.87 320.557 2897.77 317.685C2903.68 314.814 2908.96 310.807 2913.32 305.894C2917.67 300.982 2921.02 295.259 2923.16 289.053C2925.31 282.847 2926.21 276.28 2925.82 269.725C2925.42 263.171 2923.74 256.758 2920.87 250.854C2918 244.949 2913.99 239.667 2909.08 235.311C2904.17 230.954 2898.45 227.608 2892.24 225.463C2886.03 223.318 2879.47 222.417 2872.91 222.81L2875.91 272.72L2878.9 322.631Z" fill="black"/>
<path d="M2899.34 213C2898.82 219.546 2899.6 226.129 2901.63 232.374C2903.66 238.618 2906.9 244.402 2911.16 249.394C2915.43 254.387 2920.64 258.49 2926.49 261.471C2932.34 264.451 2938.72 266.25 2945.26 266.764C2951.81 267.279 2958.39 266.499 2964.64 264.47C2970.88 262.44 2976.66 259.2 2981.66 254.935C2986.65 250.671 2990.75 245.464 2993.73 239.614C2996.71 233.763 2998.51 227.382 2999.03 220.836L2949.18 216.918L2899.34 213Z" fill="black"/>
<path d="M2096.6 316.794C2152.62 395.76 2191.99 400.602 2191.99 400.602L2183.32 351.106C2183.25 343.029 2116.28 267.681 2063.93 254.487C2011.58 241.293 1985.97 290.712 1985.97 290.712L2021.07 319.499C2021.07 319.499 2052.62 254.8 2096.6 316.794Z" fill="white" stroke="black" stroke-width="3"/>
<path d="M2021.07 319.499L1985.97 290.712C1985.97 290.712 1976.24 299.978 1971.84 309.007C1966.64 319.693 1965.49 331.532 1972.91 338.583C1980.25 345.551 1988.6 330.17 1986.2 329.107C1985.44 330.64 1988.45 348.555 1995.27 350.333C2002.23 352.144 2005.55 344.443 2005.55 344.443C2005.55 344.443 2008.33 351.984 2018.07 356.377C2027.81 360.77 2030.19 344.786 2030.19 344.786C2030.19 344.786 2029.37 335.141 2026.65 329.387C2024.15 324.09 2021.07 319.499 2021.07 319.499Z" fill="#693875" stroke="black" stroke-width="3"/>
<path d="M2211.58 358.192L2251.29 349.676C2252.81 340.944 2238.35 406.186 2296.16 443.039C2353.98 479.891 2427.83 454.641 2427.83 454.641L2418.88 501.212C2418.88 501.212 2296.5 490.991 2272.82 467.812C2249.15 444.632 2229.31 405.799 2211.58 358.192Z" fill="white" stroke="black" stroke-width="3"/>
<path d="M2427.83 454.641L2419.07 501.366C2419.07 501.366 2408.13 503.612 2398.14 502.64C2387.95 501.65 2378.77 496.794 2378.21 486.588C2377.79 478.908 2394.72 484.654 2394.72 484.654C2394.72 484.654 2378.03 465.185 2378.83 458.133C2379.64 451.004 2394.34 456.196 2394.34 456.196C2394.34 456.196 2385.7 442.745 2385.91 437.691C2386.09 433.419 2391.46 427.728 2391.46 427.728C2391.46 427.728 2397.46 424.286 2404.96 426.781C2411.96 429.11 2415.27 433.632 2418.91 439.816C2421.87 444.859 2427.83 454.641 2427.83 454.641Z" fill="#693875" stroke="black" stroke-width="3"/>
<path d="M2191.01 392L2217.01 392C2217.01 392 2198.08 406.439 2191.01 440C2180.36 524.998 2191.12 570.344 2199.51 650L2150.51 650C2155.75 567.155 2154.61 470.172 2161.51 440C2168.4 409.828 2191.01 392 2191.01 392Z" fill="white" stroke="black" stroke-width="3"/>
<path d="M2199.51 650L2150.51 650C2150.51 650 2136.98 637.451 2136.55 627.418C2136.11 617.19 2139.05 606.384 2149.1 604.402C2156.65 602.91 2164.19 612.527 2164.19 612.527C2164.19 612.527 2170.29 600.198 2177.39 600.002C2184.58 599.805 2191.3 612.049 2191.3 612.049C2191.3 612.049 2197.03 605.32 2202.07 604.823C2206.33 604.402 2209.43 605.215 2212.51 608.198C2216.31 611.893 2215.7 623.44 2215.7 623.44C2215.7 623.44 2214.68 633.056 2210.88 639.062C2207.75 644.013 2199.51 650 2199.51 650Z" fill="#693875" stroke="black" stroke-width="3"/>
<path d="M2437.41 329.094C2381.4 250.121 2351.8 234.91 2351.8 234.91L2353.41 285.097C2342.62 294.319 2412.9 396.837 2458.21 403.245C2503.52 409.653 2535.24 380.861 2535.24 380.861C2535.24 380.861 2509.72 350.211 2507.78 345.303C2505.84 340.395 2480.19 389.423 2437.41 329.094Z" fill="white" stroke="black" stroke-width="3"/>
<path d="M2507.96 345.359L2535.26 380.85C2535.26 380.85 2547.91 374.645 2554.14 366.792C2561.52 357.498 2563.22 345.533 2557.5 337.046C2551.84 328.658 2544.19 344.333 2546.3 345.889C2547.38 344.559 2546.44 324.616 2540.17 321.402C2533.77 318.128 2528.87 324.918 2528.87 324.918C2528.87 324.918 2527.78 316.96 2519.22 310.563C2510.67 304.165 2504.9 319.239 2504.9 319.239C2504.9 319.239 2504.19 328.821 2505.61 335.023C2506.91 340.731 2507.96 345.359 2507.96 345.359Z" fill="#693875" stroke="black" stroke-width="3"/>
<path d="M2233.66 236.654C2238.96 281.284 2207.01 321.759 2162.31 327.058C2117.62 332.356 2078.87 281.284 2073.57 236.654C2068.28 192.024 2098.45 170.737 2143.15 165.438C2187.85 160.14 2228.37 192.024 2233.66 236.654Z" fill="white" stroke="black" stroke-width="3"/>
<path d="M2194.83 241.258C2197.59 264.531 2180.93 285.638 2157.62 288.401C2134.31 291.164 2113.18 274.537 2110.42 251.264C2107.66 227.991 2124.32 206.884 2147.63 204.121C2170.94 201.358 2192.07 217.985 2194.83 241.258Z" fill="#693875" stroke="black" stroke-width="3"/>
<circle cx="2306.42" cy="205.557" r="81.5" fill="white" stroke="black" stroke-width="3"/>
<circle cx="2306.31" cy="205.557" r="42.5" fill="#693875" stroke="black" stroke-width="3"/>
<path d="M2074 235.109L2387.8 197.909L2406.62 356.553C2408.24 370.244 2398.44 382.659 2384.73 384.285L2120.58 415.599C2106.87 417.224 2094.44 407.444 2092.81 393.754L2074 235.109Z" fill="white" stroke="black" stroke-width="3"/>
<path d="M2083.56 274.195C2081.94 260.505 2091.74 248.089 2105.45 246.463L2321.93 220.8C2335.64 219.174 2348.07 228.955 2349.7 242.645L2362.16 347.747C2363.78 361.437 2353.98 373.853 2340.27 375.478L2123.79 401.142C2110.08 402.767 2097.65 392.987 2096.03 379.297L2083.56 274.195Z" fill="black" stroke="black" stroke-width="3"/>
<rect width="99.9993" height="99.8471" transform="matrix(0.993046 -0.117723 0.11775 0.993043 2101.79 275.051)" stroke="black" stroke-width="3"/>
<path d="M2197.04 314.032C2200.29 341.412 2180.69 366.244 2153.27 369.494C2125.85 372.745 2100.98 353.184 2097.74 325.804C2094.49 298.424 2114.09 273.593 2141.51 270.342C2168.93 267.091 2193.8 286.652 2197.04 314.032Z" fill="white"/>
<path d="M2185.13 315.445C2187.59 336.254 2172.7 355.125 2151.86 357.596C2131.02 360.067 2112.12 345.201 2109.65 324.392C2107.19 303.583 2122.08 284.711 2142.92 282.24C2163.76 279.77 2182.66 294.636 2185.13 315.445Z" fill="black"/>
<path d="M2091.51 275.091C2092.3 281.609 2094.37 287.906 2097.6 293.624C2100.82 299.342 2105.15 304.369 2110.32 308.416C2115.49 312.464 2121.4 315.453 2127.73 317.214C2134.06 318.975 2140.67 319.473 2147.18 318.679C2153.7 317.885 2160 315.815 2165.72 312.587C2171.44 309.359 2176.46 305.037 2180.51 299.867C2184.56 294.697 2187.55 288.78 2189.31 282.454C2191.07 276.129 2191.57 269.518 2190.77 263L2141.14 269.045L2091.51 275.091Z" fill="black"/>
<rect width="99.9993" height="99.8471" transform="matrix(0.993046 -0.117723 0.11775 0.993043 2232.87 259.51)" stroke="black" stroke-width="3"/>
<path d="M2317.2 299.787C2320.45 327.167 2300.85 351.998 2273.43 355.249C2246.01 358.5 2221.14 338.939 2217.9 311.559C2214.65 284.179 2234.25 259.347 2261.67 256.097C2289.09 252.846 2313.95 272.406 2317.2 299.787Z" fill="white"/>
<path d="M2305.28 301.199C2307.75 322.008 2292.86 340.88 2272.02 343.351C2251.18 345.821 2232.28 330.955 2229.81 310.146C2227.35 289.337 2242.24 270.465 2263.08 267.995C2283.92 265.524 2302.82 280.39 2305.28 301.199Z" fill="black"/>
<path d="M2210.51 260.091C2211.3 266.609 2213.37 272.906 2216.6 278.624C2219.82 284.342 2224.15 289.369 2229.32 293.416C2234.49 297.464 2240.4 300.453 2246.73 302.214C2253.06 303.975 2259.67 304.473 2266.18 303.679C2272.7 302.885 2279 300.815 2284.72 297.587C2290.44 294.359 2295.46 290.037 2299.51 284.867C2303.56 279.697 2306.55 273.78 2308.31 267.454C2310.07 261.129 2310.57 254.518 2309.77 248L2260.14 254.045L2210.51 260.091Z" fill="black"/>
<path d="M1674.04 366.854L1693.66 349.032C1693.66 349.032 1700.34 453.387 1733.68 486.771C1767.03 520.154 1838.12 536.79 1838.12 536.79L1811.82 577.875C1811.82 577.875 1715.29 520.802 1700.26 497.642C1685.23 474.481 1672.44 417.702 1674.04 366.854Z" fill="white" stroke="black" stroke-width="3"/>
<path d="M1652.72 368.034L1627.48 359.946L1561.81 649.866L1623.04 617.898L1652.72 368.034Z" fill="white" stroke="black" stroke-width="3" stroke-linecap="round" stroke-linejoin="round"/>
<path d="M1622.51 618.778L1561.58 649.794C1561.58 649.794 1549.92 644.241 1548.22 634.345C1546.47 624.257 1548.74 616.486 1556.95 610.367C1563.46 605.511 1576.84 603.519 1577.45 605.386C1577.45 605.386 1582.13 592.91 1589.15 591.81C1596.25 590.697 1604.58 599.379 1604.58 599.379C1607.61 591.836 1612.81 586.792 1612.81 586.792C1615.84 581.987 1634.89 575.747 1635.14 589.221C1635.14 589.221 1635.5 598.031 1632.5 604.474C1630.03 609.784 1622.51 618.778 1622.51 618.778Z" fill="#693875" stroke="black" stroke-width="3"/>
<path fill-rule="evenodd" clip-rule="evenodd" d="M1915.43 465.621C1915.43 465.621 1916.15 465.452 1917.33 465.128C1916.22 465.013 1915.47 465.177 1915.43 465.621Z" fill="#693875"/>
<path d="M1894.8 445.741L1861.73 483.249C1860.94 487.332 1875.82 499.993 1877.17 501.159C1878.53 502.325 1891.79 508.824 1897.67 507.477C1902.12 506.458 1907.24 504.516 1909.71 500.814C1913.01 495.868 1908.04 489.357 1903.73 488.052C1909.06 489.617 1925.58 485.923 1927.98 476.896C1929.95 469.502 1921.3 465.539 1917.33 465.128L1917.33 465.128C1916.15 465.452 1915.43 465.621 1915.43 465.621C1915.47 465.177 1916.22 465.013 1917.33 465.128L1917.33 465.128C1922.13 463.809 1934.58 459.922 1937.36 454.402C1943.52 442.185 1928.21 436.604 1917.2 438.306C1907.28 439.84 1894.8 445.741 1894.8 445.741Z" fill="#693875"/>
<path d="M1917.33 465.128L1917.33 465.128M1917.33 465.128C1921.3 465.539 1929.95 469.502 1927.98 476.896C1925.58 485.923 1909.06 489.617 1903.73 488.052C1908.04 489.357 1913.01 495.868 1909.71 500.814C1907.24 504.516 1902.12 506.458 1897.67 507.477C1891.79 508.824 1878.53 502.325 1877.17 501.159C1875.82 499.993 1860.94 487.332 1861.73 483.249L1894.8 445.741C1894.8 445.741 1907.28 439.84 1917.2 438.306C1928.21 436.604 1943.52 442.185 1937.36 454.402C1934.58 459.922 1922.13 463.809 1917.33 465.128ZM1917.33 465.128C1916.22 465.013 1915.47 465.177 1915.43 465.621C1915.43 465.621 1916.15 465.452 1917.33 465.128Z" stroke="black" stroke-width="3"/>
<path d="M1819.8 374.5C1825.55 292.841 1793.13 281.454 1815 268.554C1815 268.554 1816.8 221 1824.3 237C1831.8 253 1870.78 296.479 1861.72 364.302C1852.67 432.125 1890.44 448.457 1894.77 445.758L1861.72 483.261C1861.72 489.302 1815.05 442.095 1819.8 374.5Z" fill="white" stroke="black" stroke-width="3"/>
<path d="M1474.48 293.469C1518.63 313.913 1536.53 309.935 1536.53 309.935L1546.96 362.536C1525.9 355.844 1431.79 319.044 1404.65 292.643C1377.5 266.242 1395.19 207.607 1401.13 205.469L1441.58 224.12C1441.58 224.12 1409.98 263.599 1474.48 293.469Z" fill="white" stroke="black" stroke-width="3"/>
<path d="M1441.88 225.068L1400.39 205.634C1400.39 205.634 1404.48 192.6 1410.76 184.768C1418.2 175.498 1428.41 169.4 1437.96 173.098C1447.39 176.753 1437.05 190.875 1435.07 189.166C1436.13 187.818 1453.61 182.885 1458.14 188.295C1462.74 193.808 1457.2 200.105 1457.2 200.105C1457.2 200.105 1465.21 199.396 1473.34 206.324C1481.48 213.252 1468.04 222.235 1468.04 222.235C1468.04 222.235 1458.97 225.613 1452.61 225.614C1446.75 225.616 1441.88 225.068 1441.88 225.068Z" fill="#693875" stroke="black" stroke-width="3"/>
<path d="M1838.86 537.553L1812.95 578.741C1812.95 578.741 1802.71 576.01 1793.85 571.287C1784.81 566.472 1778.18 558.465 1781.58 548.805C1784.13 541.538 1797.57 553.331 1797.57 553.331C1797.57 553.331 1789.6 528.928 1793.04 522.708C1796.52 516.421 1808.11 526.848 1808.11 526.848C1808.11 526.848 1805.28 511.097 1807.41 506.501C1809.22 502.616 1816.35 499.4 1816.35 499.4C1816.35 499.4 1823.21 498.511 1829.19 503.691C1834.77 508.524 1836.09 513.974 1837.08 521.088C1837.89 526.89 1838.86 537.553 1838.86 537.553Z" fill="#693875" stroke="black" stroke-width="3"/>
<path d="M1818.19 156.318C1823.16 201.054 1790.92 241.347 1746.18 246.313C1701.45 251.28 1663.45 227.309 1658.48 182.573C1653.51 137.836 1683.46 89.2757 1728.2 84.3088C1772.93 79.342 1813.22 111.582 1818.19 156.318Z" fill="white" stroke="black" stroke-width="3"/>
<path d="M1779.32 160.633C1781.91 183.962 1765.1 204.973 1741.77 207.564C1718.44 210.154 1697.43 193.342 1694.84 170.013C1692.25 146.684 1709.06 125.673 1732.39 123.083C1755.72 120.493 1776.73 137.305 1779.32 160.633Z" fill="#693875" stroke="black" stroke-width="3"/>
<path d="M1664.9 171.239C1669.87 215.976 1639.03 271.058 1594.29 276.024C1549.56 280.991 1509.26 248.752 1504.3 204.015C1499.33 159.279 1531.57 118.987 1576.31 114.02C1621.04 109.053 1659.94 126.503 1664.9 171.239Z" fill="white" stroke="black" stroke-width="3"/>
<path d="M1627.43 190.344C1630.02 213.673 1613.21 234.685 1589.88 237.275C1566.55 239.865 1545.54 223.053 1542.95 199.724C1540.36 176.395 1557.17 155.384 1580.5 152.794C1603.83 150.204 1624.84 167.016 1627.43 190.344Z" fill="#693875" stroke="black" stroke-width="3"/>
<path d="M1504.48 199.28L1818.55 164.41L1836.21 323.433C1837.73 337.156 1827.84 349.516 1814.12 351.039L1549.75 380.391C1536.02 381.915 1523.66 372.025 1522.14 358.303L1504.48 199.28Z" fill="white" stroke="black" stroke-width="3"/>
<path d="M1513.76 238.496C1512.24 224.773 1522.13 212.413 1535.85 210.89L1752.52 186.834C1766.24 185.311 1778.6 195.2 1780.12 208.923L1791.82 314.276C1793.34 327.998 1783.45 340.358 1769.73 341.882L1553.06 365.937C1539.34 367.461 1526.98 357.571 1525.46 343.848L1513.76 238.496Z" fill="black" stroke="black" stroke-width="3"/>
<rect x="1531.98" y="239.491" width="100" height="100" transform="rotate(-6.33527 1531.98 239.491)" stroke="black" stroke-width="3"/>
<path d="M1626.95 279.255C1630 306.7 1610.22 331.42 1582.77 334.467C1555.33 337.514 1530.61 317.735 1527.56 290.289C1524.51 262.844 1544.29 238.125 1571.74 235.077C1599.18 232.03 1623.9 251.809 1626.95 279.255Z" fill="white"/>
<path d="M1615.02 280.579C1617.34 301.438 1602.31 320.224 1581.45 322.54C1560.59 324.856 1541.8 309.824 1539.49 288.965C1537.17 268.107 1552.2 249.32 1573.06 247.004C1593.92 244.688 1612.71 259.72 1615.02 280.579Z" fill="black"/>
<path d="M1626.02 336.689C1619.62 335.211 1613.58 332.487 1608.23 328.673C1602.89 324.859 1598.35 320.03 1594.87 314.461C1591.39 308.892 1589.04 302.693 1587.96 296.216C1586.88 289.74 1587.08 283.114 1588.56 276.716C1590.04 270.319 1592.76 264.275 1596.58 258.93C1600.39 253.585 1605.22 249.044 1610.79 245.565C1616.36 242.087 1622.56 239.739 1629.03 238.657C1635.51 237.574 1642.13 237.778 1648.53 239.256L1637.28 287.972L1626.02 336.689Z" fill="black"/>
<path d="M1525.51 231.763C1526.27 238.285 1528.31 244.594 1531.5 250.329C1534.7 256.064 1538.99 261.114 1544.14 265.189C1549.29 269.264 1555.19 272.285 1561.51 274.08C1567.82 275.875 1574.43 276.408 1580.95 275.649C1587.48 274.891 1593.78 272.855 1599.52 269.658C1605.26 266.461 1610.3 262.165 1614.38 257.017C1618.46 251.868 1621.48 245.968 1623.27 239.652C1625.07 233.336 1625.6 226.728 1624.84 220.206L1575.18 225.984L1525.51 231.763Z" fill="black"/>
<rect x="1663.17" y="224.926" width="100" height="100" transform="rotate(-6.33527 1663.17 224.926)" stroke="black" stroke-width="3"/>
<path d="M1747.21 265.903C1750.26 293.348 1730.48 318.068 1703.03 321.115C1675.59 324.162 1650.87 304.383 1647.82 276.937C1644.77 249.492 1664.55 224.773 1692 221.725C1719.44 218.678 1744.16 238.457 1747.21 265.903Z" fill="white"/>
<path d="M1735.28 267.227C1737.6 288.086 1722.57 306.872 1701.71 309.188C1680.85 311.504 1662.06 296.472 1659.75 275.613C1657.43 254.755 1672.46 235.968 1693.32 233.652C1714.18 231.336 1732.97 246.368 1735.28 267.227Z" fill="black"/>
<path d="M1745.02 330.689C1738.62 329.211 1732.58 326.487 1727.23 322.673C1721.89 318.859 1717.35 314.03 1713.87 308.461C1710.39 302.892 1708.04 296.693 1706.96 290.216C1705.88 283.74 1706.08 277.114 1707.56 270.716C1709.04 264.319 1711.76 258.275 1715.57 252.93C1719.39 247.585 1724.22 243.044 1729.79 239.565C1735.36 236.087 1741.56 233.739 1748.03 232.657C1754.51 231.574 1761.13 231.778 1767.53 233.256L1756.28 281.972L1745.02 330.689Z" fill="black"/>
<path d="M1642.3 227.654C1643.86 234.033 1646.65 240.045 1650.53 245.345C1654.4 250.644 1659.29 255.129 1664.9 258.542C1670.5 261.955 1676.73 264.229 1683.22 265.236C1689.71 266.242 1696.33 265.961 1702.71 264.408C1709.09 262.855 1715.1 260.06 1720.4 256.184C1725.7 252.308 1730.19 247.425 1733.6 241.816C1737.01 236.207 1739.29 229.98 1740.29 223.491C1741.3 217.003 1741.02 210.38 1739.47 204L1690.88 215.827L1642.3 227.654Z" fill="black"/>
<path d="M1026.55 324.878L1051.35 319.871L1120.74 619.632L1081.97 649.632L1026.55 324.878Z" fill="white" stroke="black" stroke-width="3"/>
<path d="M1120.1 621.3L1081.97 649.633C1081.97 649.633 1061 645.281 1055.12 637.146C1049.11 628.853 1045.62 618.213 1052.91 611.024C1058.39 605.616 1069.98 609.489 1069.98 609.489C1069.98 609.489 1068.27 595.838 1074.1 591.761C1079.98 587.638 1092.34 594.151 1092.34 594.151C1092.34 594.151 1093.41 585.378 1097.35 582.185C1100.67 579.486 1103.7 578.456 1107.91 579.253C1113.12 580.24 1118.97 590.213 1118.97 590.213C1118.97 590.213 1123.43 598.797 1123.56 605.903C1123.68 611.76 1120.1 621.3 1120.1 621.3Z" fill="#693875" stroke="black" stroke-width="3"/>
<path d="M948.903 315.212L1008.33 324.394C1008.33 324.394 872.548 363.808 856.497 392.362C840.445 420.916 867.497 499.862 867.497 499.862L821.997 499.862C821.997 499.862 808.742 430.117 821.997 387.862C835.251 345.607 931.477 317.246 948.903 315.212Z" fill="white" stroke="black" stroke-width="3"/>
<path d="M821.997 499.862L867.497 499.862C867.497 499.862 871.823 510.51 872.601 520.521C873.395 530.727 870.209 540.616 860.254 542.938C852.764 544.685 855.483 527.017 855.483 527.017C855.483 527.017 839.208 546.833 832.124 547.269C824.963 547.71 827.523 532.333 827.523 532.333C827.523 532.333 815.776 543.172 810.762 543.84C806.524 544.405 799.988 540.113 799.988 540.113C799.988 540.113 795.556 534.801 796.711 526.979C797.788 519.679 801.667 515.637 807.125 510.982C811.576 507.186 821.997 499.862 821.997 499.862Z" fill="#693875" stroke="black" stroke-width="3"/>
<path d="M820.394 280.118C907.394 272.118 955.132 196.792 976.48 233.166L949.126 275.275C933.08 285.53 817.394 315.618 801.448 317.479C785.502 319.341 775.255 330.59 775.394 328.118C775.394 328.118 764.891 299.409 751.394 295.618C737.896 291.827 733.393 288.118 820.394 280.118Z" fill="white" stroke="black" stroke-width="3"/>
<path d="M773.647 285L785.147 323C785.147 323 773.024 332.844 763.042 333.768C751.227 334.861 740.276 329.749 736.3 320.314C732.371 310.991 749.676 313.159 749.827 315.773C748.125 315.948 731.937 304.262 732.678 297.25C733.432 290.105 741.798 289.714 741.798 289.714C741.798 289.714 735.73 284.45 735.053 273.787C734.376 263.124 750.147 266.541 750.147 266.541C750.147 266.541 758.559 271.184 762.979 275.759C767.047 279.97 773.647 285 773.647 285Z" fill="#693875" stroke="black" stroke-width="3"/>
<path fill-rule="evenodd" clip-rule="evenodd" d="M987.064 431.216C987.064 431.216 986.561 430.676 985.76 429.751C986.748 430.273 987.276 430.823 987.064 431.216Z" fill="#693875"/>
<path d="M1015.26 426.139L1021.93 475.696C1020.33 479.533 1000.92 481.8 999.146 482.016C997.37 482.231 982.733 480.273 978.59 475.886C975.455 472.568 972.281 468.112 972.28 463.661C972.279 457.713 980.033 455.061 984.336 456.366C979.041 454.712 967.352 442.465 970.368 433.624C972.837 426.382 982.228 427.888 985.758 429.751L985.76 429.751C986.561 430.676 987.064 431.216 987.064 431.216C987.276 430.823 986.748 430.273 985.76 429.751L985.758 429.751C982.496 425.987 974.305 415.843 975.057 409.708C976.723 396.13 992.551 399.988 1000.76 407.517C1008.16 414.302 1015.26 426.139 1015.26 426.139Z" fill="#693875"/>
<path d="M985.758 429.751L985.76 429.751M985.758 429.751C982.228 427.888 972.837 426.382 970.368 433.624C967.352 442.465 979.041 454.712 984.336 456.366C980.033 455.061 972.279 457.713 972.28 463.661C972.281 468.112 975.455 472.568 978.59 475.886C982.733 480.273 997.37 482.231 999.146 482.016C1000.92 481.8 1020.33 479.533 1021.93 475.696L1015.26 426.139C1015.26 426.139 1008.16 414.302 1000.76 407.517C992.551 399.988 976.723 396.13 975.057 409.708C974.305 415.843 982.496 425.987 985.758 429.751ZM985.76 429.751C986.748 430.273 987.276 430.823 987.064 431.216C987.064 431.216 986.561 430.676 985.76 429.751Z" stroke="black" stroke-width="3"/>
<path d="M1154.92 408.596C1196.86 324.28 1164.09 295.994 1161.21 291.188C1161.21 291.188 1132.34 285.639 1138.97 295.687C1145.61 305.734 1144.19 347.577 1109.8 400.903C1075.4 454.229 1014.71 425.747 1015.28 426.17L1021.94 475.712C1021.51 476.278 1112.88 493.127 1154.92 408.596Z" fill="white" stroke="black" stroke-width="3"/>
<path d="M1043.74 142.479C1037.62 187.004 996.514 218.128 951.923 211.999C907.331 205.869 876.344 173.371 882.463 128.847C888.582 84.3224 929.489 44.6325 974.081 50.7622C1018.67 56.892 1049.86 97.9552 1043.74 142.479Z" fill="white" stroke="black" stroke-width="3"/>
<path d="M1005 137.153C1001.81 160.372 980.369 176.602 957.116 173.406C933.863 170.209 917.599 148.796 920.79 125.578C923.981 102.36 945.418 86.1289 968.671 89.3254C991.924 92.5219 1008.19 113.935 1005 137.153Z" fill="#693875" stroke="black" stroke-width="3"/>
<path d="M1195.21 173.468C1189.09 217.992 1145.72 263.777 1101.13 257.647C1056.54 251.517 1025.35 210.454 1031.47 165.93C1037.59 121.406 1078.7 90.2809 1123.29 96.4107C1167.88 102.541 1201.33 128.944 1195.21 173.468Z" fill="white" stroke="black" stroke-width="3"/>
<path d="M1154.21 182.802C1151.02 206.02 1129.58 222.251 1106.33 219.054C1083.07 215.858 1066.81 194.444 1070 171.226C1073.19 148.008 1094.63 131.777 1117.88 134.974C1141.13 138.17 1157.4 159.584 1154.21 182.802Z" fill="#693875" stroke="black" stroke-width="3"/>
<path d="M882.36 128.788L1195.42 171.821L1173.66 330.089C1171.79 343.747 1159.18 353.294 1145.5 351.414L881.978 315.191C868.299 313.31 858.732 300.714 860.609 287.057L882.36 128.788Z" fill="white" stroke="black" stroke-width="3"/>
<path d="M881.768 169.022C883.645 155.364 896.255 145.816 909.934 147.697L1125.9 177.383C1139.58 179.264 1149.15 191.86 1147.27 205.517L1132.86 310.37C1130.98 324.028 1118.37 333.575 1104.69 331.695L888.726 302.008C875.048 300.128 865.481 287.532 867.358 273.874L881.768 169.022Z" fill="black" stroke="black" stroke-width="3"/>
<rect width="99.9993" height="99.8471" transform="matrix(0.990684 0.136179 -0.136152 0.990688 899.192 174.441)" stroke="black" stroke-width="3"/>
<path d="M981.556 236.156C977.802 263.471 952.582 282.566 925.225 278.805C897.868 275.045 878.734 249.853 882.488 222.538C886.242 195.222 911.462 176.128 938.819 179.888C966.176 183.648 985.31 208.84 981.556 236.156Z" fill="white"/>
<path d="M969.668 234.521C966.815 255.281 947.647 269.793 926.856 266.935C906.065 264.077 891.523 244.932 894.376 224.172C897.229 203.412 916.397 188.9 937.188 191.758C957.979 194.616 972.521 213.762 969.668 234.521Z" fill="black"/>
<path d="M1004.75 256.29C998.951 259.373 992.603 261.285 986.067 261.914C979.532 262.544 972.936 261.881 966.656 259.962C960.377 258.043 954.537 254.905 949.47 250.729C944.403 246.553 940.208 241.42 937.125 235.623C934.042 229.826 932.131 223.478 931.501 216.942C930.871 210.406 931.535 203.811 933.454 197.531C935.373 191.252 938.51 185.412 942.686 180.345C946.862 175.278 951.995 171.083 957.792 168L981.27 212.145L1004.75 256.29Z" fill="black"/>
<path d="M894.005 170C893.433 176.541 894.155 183.131 896.129 189.393C898.104 195.655 901.292 201.467 905.513 206.497C909.733 211.527 914.903 215.676 920.727 218.708C926.552 221.74 932.916 223.595 939.457 224.168C945.998 224.74 952.588 224.018 958.85 222.044C965.112 220.069 970.924 216.881 975.954 212.66C980.984 208.439 985.134 203.269 988.165 197.445C991.197 191.621 993.052 185.257 993.625 178.716L943.815 174.358L894.005 170Z" fill="black"/>
<rect width="99.9993" height="99.8471" transform="matrix(0.990684 0.136179 -0.136152 0.990688 1029.96 192.416)" stroke="black" stroke-width="3"/>
<path d="M1101.43 252.632C1097.67 279.948 1072.45 299.043 1045.1 295.282C1017.74 291.522 998.607 266.33 1002.36 239.015C1006.12 211.699 1031.34 192.604 1058.69 196.365C1086.05 200.125 1105.18 225.317 1101.43 252.632Z" fill="white"/>
<path d="M1089.54 250.998C1086.69 271.758 1067.52 286.27 1046.73 283.412C1025.94 280.554 1011.4 261.408 1014.25 240.649C1017.1 219.889 1036.27 205.377 1057.06 208.235C1077.85 211.093 1092.39 230.239 1089.54 250.998Z" fill="black"/>
<path d="M1114.52 276.693C1108.24 278.6 1101.64 279.25 1095.11 278.606C1088.57 277.963 1082.23 276.038 1076.44 272.943C1070.65 269.848 1065.52 265.643 1061.36 260.567C1057.19 255.492 1054.07 249.645 1052.16 243.362C1050.26 237.079 1049.61 230.481 1050.25 223.947C1050.89 217.412 1052.82 211.069 1055.91 205.278C1059.01 199.487 1063.21 194.362 1068.29 190.197C1073.36 186.031 1079.21 182.906 1085.49 181L1100.01 228.847L1114.52 276.693Z" fill="black"/>
<path d="M1004.01 183C1003.43 189.541 1004.15 196.131 1006.13 202.393C1008.1 208.655 1011.29 214.467 1015.51 219.497C1019.73 224.527 1024.9 228.676 1030.73 231.708C1036.55 234.74 1042.92 236.595 1049.46 237.168C1056 237.74 1062.59 237.018 1068.85 235.044C1075.11 233.069 1080.92 229.881 1085.95 225.66C1090.98 221.439 1095.13 216.269 1098.17 210.445C1101.2 204.621 1103.05 198.257 1103.62 191.716L1053.81 187.358L1004.01 183Z" fill="black"/>
<path d="M366.566 353.454L392.077 346.282L445.279 649.336L399.279 649.336L366.566 353.454Z" fill="white" stroke="black" stroke-width="3"/>
<path d="M445.279 649.336H399.279C399.279 649.336 382.752 636.787 382.321 626.754C381.881 616.526 384.826 605.72 394.87 603.737C402.427 602.246 409.962 611.863 409.962 611.863C409.962 611.863 416.062 599.533 423.167 599.338C430.35 599.141 437.074 611.384 437.074 611.384C437.074 611.384 442.805 604.656 447.846 604.158C452.107 603.738 455.207 604.55 458.279 607.534C462.085 611.229 461.471 622.775 461.471 622.775C461.471 622.775 460.457 632.392 456.657 638.398C453.525 643.349 445.279 649.336 445.279 649.336Z" fill="#693875" stroke="black" stroke-width="3"/>
<path d="M276.756 357.119L336.756 361.15C336.756 361.15 252.256 384.65 252.256 412.65C252.256 440.65 337.732 514.198 342.756 506.15L307.256 535.15C307.256 535.15 221.756 460.15 221.756 419.15C221.756 378.15 259.57 360.646 276.756 357.119Z" fill="white" stroke="black" stroke-width="3"/>
<path d="M306.986 536.027L343.478 505.561C343.478 505.561 353.345 510.79 360.435 517.9C367.664 525.149 371.658 534.74 365.592 542.968C361.029 549.158 351.629 533.952 351.629 533.952C351.629 533.952 352.11 559.591 347.004 564.521C341.843 569.504 333.81 556.145 333.81 556.145C333.81 556.145 331.909 572.015 328.528 575.778C325.671 578.959 317.912 579.936 317.912 579.936C317.912 579.936 311.093 578.772 306.894 572.071C302.976 565.819 303.303 560.227 304.434 553.142C305.356 547.365 306.986 536.027 306.986 536.027Z" fill="#693875" stroke="black" stroke-width="3"/>
<path d="M492.519 363.376C436.367 284.516 455.213 299.781 455.213 299.781L477.9 252.598C483.799 247.687 546.069 348.521 546.942 392.845C547.816 437.169 499.392 476.744 493.601 475.722L473.385 435.606C473.385 435.606 527.478 412.474 492.519 363.376Z" fill="white" stroke="black" stroke-width="3"/>
<path d="M473.357 435.794L493.583 475.736C493.583 475.736 482.522 484.471 472.748 486.7C461.18 489.339 449.651 485.712 444.469 476.883C439.347 468.157 456.786 468.029 457.28 470.6C455.616 470.998 438.032 461.544 437.843 454.495C437.651 447.314 445.892 445.825 445.892 445.825C445.892 445.825 439.184 441.405 437.11 430.924C435.035 420.443 451.119 421.755 451.119 421.755C451.119 421.755 460.069 425.25 465.052 429.204C469.639 432.843 473.357 435.794 473.357 435.794Z" fill="#693875" stroke="black" stroke-width="3"/>
<path fill-rule="evenodd" clip-rule="evenodd" d="M96.0819 383.102C96.0819 383.102 95.4699 382.69 94.4805 381.971C95.5609 382.256 96.1997 382.671 96.0819 383.102Z" fill="#693875"/>
<path d="M122.403 371.784L140.104 418.55C139.406 422.65 121.016 429.245 119.334 429.857C117.652 430.468 102.952 431.869 97.924 428.532C94.1206 426.008 90.0214 422.386 89.0145 418.049C87.6689 412.255 94.6226 407.92 99.1097 408.218C93.5778 407.804 79.423 398.516 80.3619 389.222C81.1309 381.609 90.6193 380.954 94.4789 381.97L94.4805 381.971C95.4699 382.69 96.0819 383.102 96.0819 383.102C96.1997 382.671 95.5609 382.256 94.4805 381.971L94.4789 381.97C90.4507 379.041 80.1784 371.012 79.5246 364.865C78.0776 351.262 94.3687 351.442 104.069 356.921C112.81 361.858 122.403 371.784 122.403 371.784Z" fill="#693875"/>
<path d="M94.4789 381.97L94.4805 381.971M94.4789 381.97C90.6193 380.954 81.1309 381.609 80.3619 389.222C79.423 398.516 93.5778 407.804 99.1097 408.218C94.6226 407.92 87.6689 412.255 89.0145 418.049C90.0214 422.386 94.1206 426.008 97.924 428.532C102.952 431.869 117.652 430.468 119.334 429.857C121.016 429.245 139.406 422.65 140.104 418.55L122.403 371.784C122.403 371.784 112.81 361.858 104.069 356.921C94.3687 351.442 78.0776 351.262 79.5246 364.865C80.1784 371.012 90.4507 379.041 94.4789 381.97ZM94.4805 381.971C95.5609 382.256 96.1997 382.671 96.0819 383.102C96.0819 383.102 95.4699 382.69 94.4805 381.971Z" stroke="black" stroke-width="3"/>
<path d="M249.448 319.655C271.237 228.043 243.761 217.986 239.866 213.956C239.866 213.956 204.689 208.458 213.423 216.745C222.157 225.033 230.241 266.112 208.786 325.833C187.332 385.554 121.778 371.526 122.424 371.81L140.11 418.565C139.827 419.212 227.603 411.5 249.448 319.655Z" fill="white" stroke="black" stroke-width="3"/>
<path d="M358.792 170.56C356.529 215.445 318.253 249.994 273.299 247.726C228.346 245.458 194.676 215.748 196.939 170.862C199.202 125.977 236.54 82.9123 281.494 85.1804C326.447 87.4485 361.055 125.674 358.792 170.56Z" fill="white" stroke="black" stroke-width="3"/>
<path d="M319.733 168.589C318.553 191.996 298.593 210.012 275.151 208.829C251.709 207.646 233.662 187.713 234.842 164.306C236.022 140.899 255.982 122.883 279.424 124.066C302.866 125.249 320.913 145.183 319.733 168.589Z" fill="#693875" stroke="black" stroke-width="3"/>
<path d="M512.032 189.417C509.769 234.303 471.492 268.852 426.539 266.583C381.585 264.315 347.916 234.606 350.179 189.72C352.442 144.834 389.78 101.77 434.733 104.038C479.687 106.306 514.294 144.532 512.032 189.417Z" fill="white" stroke="black" stroke-width="3"/>
<path d="M473.156 183.909C471.976 207.316 452.016 225.332 428.574 224.149C405.132 222.967 387.085 203.033 388.265 179.626C389.445 156.22 409.405 138.204 432.847 139.386C456.289 140.569 474.336 160.503 473.156 183.909Z" fill="#693875" stroke="black" stroke-width="3"/>
<path d="M196.831 170.813L512.429 186.734L504.384 346.288C503.69 360.056 491.948 370.654 478.159 369.958L212.498 356.556C198.708 355.86 188.092 344.135 188.786 330.366L196.831 170.813Z" fill="white" stroke="black" stroke-width="3"/>
<path d="M199.705 210.948C200.399 197.179 212.141 186.582 225.93 187.277L443.652 198.261C457.442 198.957 468.058 210.682 467.363 224.451L462.034 330.155C461.34 343.923 449.598 354.521 435.809 353.825L218.086 342.842C204.297 342.146 193.681 330.421 194.375 316.652L199.705 210.948Z" fill="black" stroke="black" stroke-width="3"/>
<rect width="99.9993" height="99.8471" transform="matrix(0.99873 0.0503838 -0.0503571 0.998731 217.531 214.847)" stroke="black" stroke-width="3"/>
<path d="M304.902 269.242C303.514 296.779 280.031 317.974 252.452 316.583C224.873 315.192 203.641 291.741 205.03 264.204C206.418 236.667 229.901 215.471 257.48 216.863C285.059 218.254 306.29 241.705 304.902 269.242Z" fill="white"/>
<path d="M292.917 268.637C291.862 289.565 274.015 305.674 253.055 304.616C232.095 303.559 215.959 285.736 217.014 264.808C218.07 243.88 235.917 227.772 256.877 228.829C277.837 229.886 293.973 247.709 292.917 268.637Z" fill="black"/>
<path d="M292.917 268.637C291.862 289.565 274.015 305.674 253.055 304.616C232.095 303.559 215.959 285.736 217.015 264.808C218.07 243.88 235.917 227.771 256.877 228.829C277.837 229.886 293.973 247.709 292.917 268.637Z" fill="black"/>
<path d="M320.88 306.871C314.585 308.738 307.984 309.348 301.454 308.664C294.923 307.98 288.592 306.017 282.82 302.886C277.048 299.755 271.95 295.518 267.816 290.417C263.682 285.315 260.593 279.45 258.725 273.155C256.858 266.86 256.249 260.259 256.933 253.728C257.617 247.198 259.58 240.866 262.711 235.095C265.842 229.323 270.079 224.225 275.18 220.09C280.281 215.956 286.147 212.867 292.442 211L306.661 258.936L320.88 306.871Z" fill="black"/>
<path d="M299.602 202C300.483 208.507 300.074 215.123 298.397 221.472C296.721 227.82 293.811 233.777 289.833 239C285.854 244.224 280.886 248.613 275.212 251.917C269.538 255.221 263.268 257.374 256.761 258.255C250.255 259.136 243.638 258.727 237.289 257.05C230.941 255.374 224.985 252.464 219.761 248.486C214.537 244.507 210.148 239.539 206.844 233.865C203.541 228.19 201.387 221.921 200.506 215.414L250.054 208.707L299.602 202Z" fill="black"/>
<rect width="99.9993" height="99.8471" transform="matrix(0.99873 0.0503838 -0.0503571 0.998731 349.364 221.497)" stroke="black" stroke-width="3"/>
<path d="M425.748 275.337C424.36 302.874 400.877 324.07 373.298 322.678C345.719 321.287 324.488 297.836 325.876 270.299C327.265 242.762 350.747 221.567 378.326 222.958C405.905 224.349 427.137 247.8 425.748 275.337Z" fill="white"/>
<path d="M413.764 274.733C412.709 295.661 394.862 311.769 373.902 310.712C352.942 309.655 336.806 291.832 337.861 270.904C338.916 249.976 356.763 233.867 377.723 234.925C398.683 235.982 414.819 253.805 413.764 274.733Z" fill="black"/>
<path d="M422.602 211C423.483 217.507 423.074 224.123 421.397 230.472C419.721 236.82 416.811 242.777 412.833 248C408.854 253.224 403.886 257.613 398.212 260.917C392.538 264.221 386.268 266.374 379.761 267.255C373.255 268.136 366.638 267.727 360.289 266.05C353.941 264.374 347.985 261.464 342.761 257.486C337.537 253.507 333.148 248.539 329.844 242.865C326.541 237.19 324.387 230.921 323.506 224.414L373.054 217.707L422.602 211Z" fill="black"/>
<path d="M452.88 313.871C446.585 315.738 439.984 316.348 433.454 315.664C426.923 314.98 420.592 313.017 414.82 309.886C409.048 306.755 403.95 302.518 399.816 297.417C395.682 292.315 392.593 286.45 390.725 280.155C388.858 273.86 388.249 267.259 388.933 260.728C389.617 254.198 391.58 247.866 394.711 242.095C397.842 236.323 402.079 231.225 407.18 227.09C412.281 222.956 418.147 219.867 424.442 218L438.661 265.936L452.88 313.871Z" fill="black"/>
</svg>
