<svg width="3900" height="651" viewBox="0 0 3900 651" fill="none" xmlns="http://www.w3.org/2000/svg">
<path d="M3595.43 275.957L3619.37 279.395C3585.21 326.938 3571.42 391.006 3568.37 401.68C3565.32 412.353 3561.28 432.68 3553.33 464.856C3545.38 497.033 3556.37 528.68 3556.37 528.68L3514.87 566.18C3510.83 570.586 3510.38 472.431 3535.87 409.68C3561.35 346.928 3559.7 321.993 3595.43 275.957Z" fill="white" stroke="black" stroke-width="3" stroke-linecap="round" stroke-linejoin="round"/>
<path d="M3611.92 369.68H3585.23C3596.45 392.601 3601.33 407.018 3608.23 434.68C3617.81 521.056 3616.08 567.933 3599.73 648.68H3652.88C3649.59 531.531 3646.02 481.964 3635.73 430.68C3629.02 407.726 3624.74 394.682 3611.92 369.68Z" fill="white" stroke="black" stroke-width="3" stroke-linecap="round" stroke-linejoin="round"/>
<path d="M3556.91 529.83L3514.98 566.239C3514.98 566.239 3501.13 569.192 3495 562.73C3488.74 556.142 3489.35 549.775 3495.81 541.887C3500.67 535.953 3511.21 531.44 3511.21 531.44C3511.21 531.44 3510.29 520.505 3515.56 515.736C3520.89 510.916 3529.53 512.644 3529.53 512.644C3529.53 512.644 3531.11 503.215 3534.64 499.59C3537.63 496.526 3540.93 495.569 3544.98 495.569C3550.01 495.569 3553.58 501.242 3553.58 501.242C3553.58 501.242 3558.38 508.367 3558.98 514.885C3559.48 520.256 3556.91 529.83 3556.91 529.83Z" fill="#693875" stroke="black" stroke-width="3"/>
<path d="M3599.81 648.928L3652.98 648.928C3652.98 648.928 3666.38 643.427 3666.96 634.17C3667.55 624.732 3654.76 607.806 3654.76 607.806L3639.55 615.068L3626.53 603.291L3612.45 614.191L3601.79 607.347L3591.98 610.863C3591.98 610.863 3587.48 629.363 3587.95 631.302C3588.43 633.242 3589.26 637.245 3592.97 642.852C3596.03 647.473 3599.81 648.928 3599.81 648.928Z" fill="#693875" stroke="black" stroke-width="3"/>
<path d="M3389.87 298.194C3408.46 275.444 3418.52 275.627 3424.37 275.695V312.694C3425.16 319.578 3416.83 307.587 3411.37 330.694C3405.9 353.801 3407.87 357.194 3407.87 357.194C3407.87 357.194 3352.23 364.646 3356.37 347.694C3360.51 330.742 3374.99 316.396 3389.87 298.194Z" fill="white" stroke="black" stroke-width="3"/>
<path d="M3358.37 342.694L3407.87 357.194C3407.87 357.194 3416.74 369.959 3415.38 379.284C3413.99 388.79 3411.73 394.971 3401.46 394.744C3393.73 394.574 3387.37 391.694 3387.37 391.694C3387.37 391.694 3379.12 397.911 3372.07 396.639C3364.94 395.353 3358.87 384.194 3358.87 384.194C3358.87 384.194 3344.19 388.947 3339.37 387.194C3328.37 383.194 3328.1 376.61 3329.37 372.694C3334.37 357.194 3335.37 357.194 3342.87 349.694C3346.38 346.185 3356.12 340.342 3358.37 342.694Z" fill="#693875" stroke="black" stroke-width="3"/>
<path d="M3793.62 329.293C3778.7 268.44 3714.37 239.77 3714.37 239.77L3721.13 288.682C3721.13 288.682 3743.44 291.311 3756.24 354.654C3769.04 417.998 3764.66 400.937 3764.66 400.937L3800.58 401.52C3800.58 401.52 3812.16 404.966 3793.62 329.293Z" fill="white" stroke="black" stroke-width="3"/>
<path d="M3802.85 399.692L3764.66 400.937C3764.66 400.937 3755.41 407.961 3755.53 413.886C3755.65 419.927 3758.41 426.267 3766.25 427.317C3772.15 428.107 3777.54 422.342 3777.54 422.342C3777.54 422.342 3782.81 429.544 3788.3 429.574C3793.86 429.605 3798.5 422.299 3798.5 422.299C3798.5 422.299 3803.23 426.201 3807.15 426.434C3810.46 426.631 3812.81 426.115 3815.05 424.318C3817.83 422.092 3816.83 415.286 3816.83 415.286C3816.83 415.286 3815.62 409.624 3812.42 406.125C3809.78 403.242 3802.85 399.692 3802.85 399.692Z" fill="#693875" stroke="black" stroke-width="3"/>
<path d="M3575.37 224.162C3575.37 269.166 3611.86 305.649 3656.87 305.649C3701.88 305.649 3738.37 269.166 3738.37 224.162C3744.87 154.174 3701.88 142.676 3656.87 142.676C3611.86 142.676 3575.37 179.158 3575.37 224.162Z" fill="white" stroke="black" stroke-width="3"/>
<circle cx="42.5" cy="42.5" r="42.5" transform="matrix(-1 0 0 1 3700.37 181.704)" fill="#693875" stroke="black" stroke-width="3"/>
<ellipse cx="81.5" cy="81.4864" rx="81.5" ry="81.4864" transform="matrix(-1 0 0 1 3585.26 119.68)" fill="white" stroke="black" stroke-width="3"/>
<circle cx="42.5" cy="42.5" r="42.5" transform="matrix(-1 0 0 1 3546.37 158.704)" fill="#693875" stroke="black" stroke-width="3"/>
<path d="M3738.26 198.667H3422.26V358.636C3422.26 372.443 3433.45 383.636 3447.26 383.636H3713.26C3727.07 383.636 3738.26 372.443 3738.26 358.636V198.667Z" fill="white" stroke="black" stroke-width="3"/>
<rect width="268" height="155.974" rx="25" transform="matrix(-1 0 0 1 3714.26 213.664)" fill="black" stroke="black" stroke-width="3"/>
<rect width="100" height="99.9833" transform="matrix(-1 0 0 1 3569.37 241.659)" stroke="black" stroke-width="3"/>
<ellipse cx="50" cy="49.9916" rx="50" ry="49.9916" transform="matrix(-1 0 0 1 3569.37 241.659)" fill="white"/>
<ellipse cx="38" cy="37.9936" rx="38" ry="37.9936" transform="matrix(-1 0 0 1 3557.37 253.657)" fill="black"/>
<path d="M3569.62 239.68C3569.72 246.245 3568.53 252.766 3566.11 258.871C3563.69 264.975 3560.09 270.543 3555.52 275.257C3550.95 279.972 3545.5 283.739 3539.47 286.346C3533.45 288.952 3526.96 290.345 3520.4 290.447C3513.83 290.548 3507.31 289.356 3501.21 286.937C3495.1 284.519 3489.54 280.921 3484.82 276.351C3480.11 271.78 3476.34 266.326 3473.73 260.299C3471.13 254.272 3469.73 247.791 3469.63 241.226L3519.63 240.453L3569.62 239.68Z" fill="black"/>
<path d="M3460.63 241.743C3467.2 241.734 3473.7 243.02 3479.77 245.525C3485.84 248.03 3491.36 251.706 3496.01 256.343C3500.65 260.98 3504.34 266.487 3506.87 272.55C3509.39 278.613 3510.69 285.114 3510.7 291.68C3510.7 298.246 3509.42 304.749 3506.91 310.819C3504.41 316.888 3500.73 322.405 3496.1 327.053C3491.46 331.702 3485.95 335.392 3479.89 337.913C3473.82 340.433 3467.32 341.734 3460.76 341.743L3460.7 291.743L3460.63 241.743Z" fill="black"/>
<rect width="100" height="99.9833" transform="matrix(-1 0 0 1 3697.37 241.659)" stroke="black" stroke-width="3"/>
<ellipse cx="50" cy="49.9916" rx="50" ry="49.9916" transform="matrix(-1 0 0 1 3697.37 241.659)" fill="white"/>
<ellipse cx="38" cy="37.9936" rx="38" ry="37.9936" transform="matrix(-1 0 0 1 3685.37 253.657)" fill="black"/>
<path d="M3697.62 239.68C3697.72 246.245 3696.53 252.766 3694.11 258.871C3691.69 264.975 3688.09 270.543 3683.52 275.257C3678.95 279.972 3673.5 283.739 3667.47 286.346C3661.45 288.952 3654.96 290.345 3648.4 290.447C3641.83 290.548 3635.31 289.356 3629.21 286.937C3623.1 284.519 3617.54 280.921 3612.82 276.351C3608.11 271.78 3604.34 266.326 3601.73 260.299C3599.13 254.272 3597.73 247.791 3597.63 241.226L3647.63 240.453L3697.62 239.68Z" fill="black"/>
<path d="M3584.63 253.813C3591.2 253.795 3597.7 255.071 3603.78 257.568C3609.85 260.065 3615.37 263.733 3620.03 268.363C3624.68 272.994 3628.38 278.496 3630.91 284.556C3633.44 290.615 3634.75 297.114 3634.77 303.68C3634.78 310.246 3633.51 316.751 3631.01 322.824C3628.51 328.897 3624.85 334.419 3620.21 339.074C3615.58 343.729 3610.08 347.427 3604.02 349.956C3597.96 352.484 3591.46 353.795 3584.9 353.812L3584.77 303.813L3584.63 253.813Z" fill="black"/>
<path d="M2936.04 318.26L2959.97 321.698C2925.82 369.241 2906.22 432.158 2903.17 442.831C2900.12 453.504 2896 482.205 2893.93 507.16C2891.86 532.115 2899.65 571.616 2899.65 571.616L2852.4 591.979C2852.4 591.979 2852.63 490.18 2871.5 438.281C2890.37 386.381 2900.31 364.296 2936.04 318.26Z" fill="white" stroke="black" stroke-width="3" stroke-linecap="round" stroke-linejoin="round"/>
<path d="M2742.16 286.492C2766.39 269.878 2773.31 267.925 2779.16 267.993V304.992C2783.99 317.967 2770.66 299.493 2765.66 314.992C2760.66 330.492 2763.16 329.992 2763.16 329.992C2763.16 329.992 2700.34 328.306 2714.16 313.492C2727.98 298.679 2727.71 296.406 2742.16 286.492Z" fill="white" stroke="black" stroke-width="3"/>
<path d="M2713.86 316.024L2762.75 326.282C2762.75 326.282 2779.56 339.297 2776.04 346.37C2773.64 351.18 2772.45 355.016 2763.23 357.428C2756 359.318 2745.22 355.34 2745.22 355.34C2745.22 355.34 2732.91 362.793 2725.85 361.617C2718.72 360.427 2707.68 348.474 2707.68 348.474C2707.68 348.474 2700.28 354.047 2695.44 352.511C2684.41 349.008 2680.13 342.737 2680.08 339.302C2679.88 326.477 2684.19 321.204 2693.73 317.621C2698.69 315.757 2711.59 314.038 2713.86 316.024Z" fill="#693875" stroke="black" stroke-width="3"/>
<path d="M3145.16 308.993C3126.38 249.22 3069.16 232.069 3069.16 232.069L3075.93 280.981C3075.93 280.981 3113.16 284.993 3111.66 327.493C3110.16 369.993 3109.66 361.992 3109.66 361.992L3153.16 361.993C3152.08 358.018 3155.81 342.891 3145.16 308.993Z" fill="white" stroke="black" stroke-width="3"/>
<path d="M3153.16 361.493L3110.16 361.493C3110.16 361.493 3099.55 367.568 3099.66 373.493C3099.78 379.534 3102.82 383.443 3110.66 384.493C3116.57 385.283 3121.16 380.493 3121.16 380.493C3121.16 380.493 3128.67 384.729 3134.16 384.759C3139.72 384.79 3147.16 376.993 3147.16 376.993C3147.16 376.993 3152.25 382.76 3156.16 382.993C3159.47 383.19 3162.92 383.29 3165.16 381.493C3167.94 379.267 3166.66 372.993 3166.66 372.993C3166.66 372.993 3164.37 367.992 3161.16 364.493C3158.52 361.609 3153.16 361.493 3153.16 361.493Z" fill="#693875" stroke="black" stroke-width="3"/>
<path d="M2899.9 571.978L2852.67 591.978C2852.67 591.978 2837.22 584.345 2832.94 575.26C2828.58 565.999 2826.94 562.763 2835.43 557.049C2841.82 552.75 2852.67 550.834 2852.67 550.834C2852.67 550.834 2856.59 544.32 2863.06 541.391C2869.61 538.43 2877.48 539.902 2877.48 539.902C2877.48 539.902 2881.76 534.361 2886.21 531.952C2889.98 529.915 2893.48 530.19 2897.47 531.753C2902.41 533.688 2904.39 540.966 2904.39 540.966C2904.39 540.966 2907.17 550.226 2905.99 557.235C2905.02 563.011 2899.9 571.978 2899.9 571.978Z" fill="#693875" stroke="black" stroke-width="3"/>
<path d="M2959.6 370.979L2931.51 375.993C2951.16 397.493 2959.49 410.817 2966.4 438.479C2969.4 489.979 2971.4 612.979 2971.4 612.979L3014.4 641.979C3014.4 641.979 3010.69 493.263 3000.4 441.979C2994.6 417.479 2980.56 385.979 2959.6 370.979Z" fill="white" stroke="black" stroke-width="3" stroke-linecap="round" stroke-linejoin="round"/>
<path d="M3014.6 641.978L2971.6 612.978C2971.6 612.978 2966.16 601.326 2970.54 592.291C2975.01 583.08 2976.5 579.769 2986.28 582.792C2993.64 585.066 3001.94 592.306 3001.94 592.306C3001.94 592.306 3009.47 591.266 3015.82 594.467C3022.23 597.702 3026.03 604.754 3026.03 604.754C3026.03 604.754 3033.02 604.601 3037.7 606.556C3041.65 608.209 3043.63 611.108 3044.92 615.192C3046.52 620.251 3042.09 626.361 3042.09 626.361C3042.09 626.361 3036.64 634.343 3030.44 637.826C3025.33 640.696 3014.6 641.978 3014.6 641.978Z" fill="#693875" stroke="black" stroke-width="3"/>
<path d="M2930.16 216.461C2930.16 261.465 2966.65 297.947 3011.66 297.947C3056.67 297.947 3093.16 261.465 3093.16 216.461C3099.66 146.473 3056.67 134.975 3011.66 134.975C2966.65 134.975 2930.16 171.457 2930.16 216.461Z" fill="white" stroke="black" stroke-width="3"/>
<circle cx="42.5" cy="42.5" r="42.5" transform="matrix(-1 0 0 1 3055.16 174.002)" fill="#693875" stroke="black" stroke-width="3"/>
<ellipse cx="81.5" cy="81.4864" rx="81.5" ry="81.4864" transform="matrix(-1 0 0 1 2940.05 111.979)" fill="white" stroke="black" stroke-width="3"/>
<circle cx="42.5" cy="42.5" r="42.5" transform="matrix(-1 0 0 1 2901.16 151.002)" fill="#693875" stroke="black" stroke-width="3"/>
<path d="M3093.05 190.965H2777.05V350.934C2777.05 364.742 2788.25 375.934 2802.05 375.934H3068.05C3081.86 375.934 3093.05 364.742 3093.05 350.934V190.965Z" fill="white" stroke="black" stroke-width="3"/>
<rect width="268" height="155.974" rx="25" transform="matrix(-1 0 0 1 3069.05 205.963)" fill="black" stroke="black" stroke-width="3"/>
<rect width="100" height="99.9833" transform="matrix(-1 0 0 1 2924.16 233.958)" stroke="black" stroke-width="3"/>
<ellipse cx="50" cy="49.9916" rx="50" ry="49.9916" transform="matrix(-1 0 0 1 2924.16 233.958)" fill="white"/>
<ellipse cx="38" cy="37.9936" rx="38" ry="37.9936" transform="matrix(-1 0 0 1 2912.16 245.956)" fill="black"/>
<path d="M2924.59 231.979C2924.69 238.544 2923.5 245.065 2921.08 251.169C2918.66 257.274 2915.07 262.842 2910.5 267.556C2905.93 272.27 2900.47 276.038 2894.44 278.644C2888.42 281.251 2881.94 282.644 2875.37 282.746C2868.81 282.847 2862.28 281.655 2856.18 279.236C2850.08 276.817 2844.51 273.22 2839.79 268.65C2835.08 264.079 2831.31 258.625 2828.71 252.598C2826.1 246.571 2824.71 240.09 2824.6 233.525L2874.6 232.752L2924.59 231.979Z" fill="black"/>
<path d="M2825.21 234.979C2831.73 235.741 2838.04 237.78 2843.77 240.98C2849.51 244.18 2854.56 248.478 2858.63 253.628C2862.7 258.779 2865.72 264.681 2867.51 270.998C2869.3 277.315 2869.83 283.923 2869.07 290.445C2868.31 296.966 2866.27 303.274 2863.07 309.008C2859.87 314.741 2855.57 319.788 2850.42 323.861C2845.27 327.934 2839.37 330.952 2833.05 332.743C2826.73 334.535 2820.13 335.065 2813.6 334.303L2819.41 284.641L2825.21 234.979Z" fill="black"/>
<path d="M2825.6 334.914C2825.94 328.356 2827.56 321.929 2830.38 315.998C2833.19 310.067 2837.15 304.749 2842.03 300.348C2846.9 295.947 2852.59 292.549 2858.78 290.347C2864.96 288.146 2871.52 287.184 2878.08 287.518C2884.64 287.851 2891.06 289.473 2897 292.291C2902.93 295.108 2908.24 299.066 2912.64 303.939C2917.05 308.812 2920.44 314.504 2922.65 320.69C2924.85 326.876 2925.81 333.435 2925.48 339.993L2875.54 337.453L2825.6 334.914Z" fill="black"/>
<rect width="100" height="99.9833" transform="matrix(-1 0 0 1 3052.16 233.958)" stroke="black" stroke-width="3"/>
<ellipse cx="50" cy="49.9916" rx="50" ry="49.9916" transform="matrix(-1 0 0 1 3052.16 233.958)" fill="white"/>
<ellipse cx="38" cy="37.9936" rx="38" ry="37.9936" transform="matrix(-1 0 0 1 3040.16 245.956)" fill="black"/>
<path d="M3051.59 231.979C3051.69 238.544 3050.5 245.065 3048.08 251.169C3045.66 257.274 3042.07 262.842 3037.5 267.556C3032.93 272.27 3027.47 276.038 3021.44 278.644C3015.42 281.251 3008.94 282.644 3002.37 282.746C2995.81 282.847 2989.28 281.655 2983.18 279.236C2977.08 276.817 2971.51 273.22 2966.79 268.65C2962.08 264.079 2958.31 258.625 2955.71 252.598C2953.1 246.571 2951.71 240.09 2951.6 233.525L3001.6 232.752L3051.59 231.979Z" fill="black"/>
<path d="M2947.37 238.979C2953.93 239.029 2960.43 240.372 2966.47 242.931C2972.52 245.49 2978 249.215 2982.61 253.893C2987.22 258.571 2990.86 264.111 2993.33 270.196C2995.79 276.282 2997.03 282.793 2996.98 289.359C2996.93 295.925 2995.59 302.417 2993.03 308.464C2990.47 314.511 2986.75 319.994 2982.07 324.602C2977.39 329.209 2971.85 332.85 2965.77 335.316C2959.68 337.782 2953.17 339.026 2946.6 338.976L2946.99 288.977L2947.37 238.979Z" fill="black"/>
<path d="M2949.6 338.933C2949.88 332.373 2951.45 325.932 2954.22 319.979C2956.99 314.025 2960.91 308.675 2965.74 304.235C2970.58 299.794 2976.25 296.35 2982.41 294.098C2988.58 291.847 2995.13 290.832 3001.69 291.113C3008.25 291.393 3014.69 292.962 3020.65 295.732C3026.6 298.501 3031.95 302.416 3036.39 307.253C3040.83 312.09 3044.28 317.754 3046.53 323.922C3048.78 330.09 3049.79 336.641 3049.51 343.201L2999.56 341.067L2949.6 338.933Z" fill="black"/>
<path d="M2256.19 365.537H2280.37C2253.32 417.453 2242.87 482.517 2241.37 493.515C2239.87 504.513 2239.87 533.509 2241.37 558.504C2242.87 583.5 2256.19 621.494 2256.19 621.494L2211.87 644.579C2211.87 644.579 2198.07 547.571 2209.37 493.515C2220.67 439.46 2227.36 416.186 2256.19 365.537Z" fill="white" stroke="black" stroke-width="3" stroke-linecap="round" stroke-linejoin="round"/>
<path d="M2089.87 293.093C2108.46 270.343 2118.52 270.525 2124.37 270.593V307.593C2125.16 314.477 2116.83 302.485 2111.37 325.593C2105.9 348.7 2107.87 352.093 2107.87 352.093C2107.87 352.093 2052.23 359.544 2056.37 342.593C2060.51 325.641 2074.99 311.295 2089.87 293.093Z" fill="white" stroke="black" stroke-width="3"/>
<path d="M2058.37 337.593L2107.87 352.093C2107.87 352.093 2116.74 364.858 2115.38 374.183C2113.99 383.689 2111.73 389.87 2101.46 389.643C2093.73 389.473 2087.37 386.593 2087.37 386.593C2087.37 386.593 2079.12 392.81 2072.07 391.538C2064.94 390.252 2058.87 379.093 2058.87 379.093C2058.87 379.093 2044.19 383.846 2039.37 382.093C2028.37 378.093 2028.1 371.509 2029.37 367.593C2034.37 352.093 2035.37 352.093 2042.87 344.593C2046.38 341.084 2056.12 335.241 2058.37 337.593Z" fill="#693875" stroke="black" stroke-width="3"/>
<path d="M2493.62 324.192C2478.7 263.339 2414.37 234.669 2414.37 234.669L2421.13 283.581C2421.13 283.581 2443.44 286.21 2456.24 349.553C2469.04 412.897 2464.66 395.836 2464.66 395.836L2500.58 396.419C2500.58 396.419 2512.16 399.865 2493.62 324.192Z" fill="white" stroke="black" stroke-width="3"/>
<path d="M2502.85 394.591L2464.66 395.836C2464.66 395.836 2455.41 402.86 2455.53 408.785C2455.65 414.826 2458.41 421.166 2466.25 422.216C2472.15 423.006 2477.54 417.241 2477.54 417.241C2477.54 417.241 2482.81 424.443 2488.3 424.473C2493.86 424.503 2498.5 417.198 2498.5 417.198C2498.5 417.198 2503.23 421.1 2507.15 421.333C2510.46 421.53 2512.81 421.014 2515.05 419.217C2517.83 416.991 2516.83 410.185 2516.83 410.185C2516.83 410.185 2515.62 404.523 2512.42 401.024C2509.78 398.141 2502.85 394.591 2502.85 394.591Z" fill="#693875" stroke="black" stroke-width="3"/>
<path d="M2257.3 621.243L2212.28 644.578C2212.28 644.578 2195.22 636.872 2190.57 627.972C2185.83 618.899 2184.05 615.734 2192.3 609.673C2198.51 605.114 2209.27 602.751 2209.27 602.751C2209.27 602.751 2212.92 596.081 2219.26 592.887C2225.68 589.658 2233.61 590.804 2233.61 590.804C2233.61 590.804 2237.65 585.091 2242 582.499C2245.68 580.309 2249.2 580.439 2253.24 581.835C2258.26 583.564 2260.54 590.754 2260.54 590.754C2260.54 590.754 2263.7 599.891 2262.81 606.943C2262.08 612.755 2257.3 621.243 2257.3 621.243Z" fill="#693875" stroke="black" stroke-width="3"/>
<path d="M2296.33 365.579H2269.63C2289.28 387.079 2300.38 388.917 2307.28 416.579C2310.28 468.079 2290.28 507.579 2290.28 507.579L2335.28 517.079C2335.28 517.079 2345.58 463.363 2335.28 412.079C2328.58 389.125 2317.28 380.579 2296.33 365.579Z" fill="white" stroke="black" stroke-width="3" stroke-linecap="round" stroke-linejoin="round"/>
<path d="M2290.81 508.618L2336.67 518.93C2336.67 518.93 2353.53 510.688 2356.25 501.021C2359.03 491.166 2360.11 487.704 2350.79 483.471C2343.78 480.286 2332.76 480.189 2332.76 480.189C2332.76 480.189 2327.82 474.412 2320.95 472.593C2314.01 470.754 2306.48 473.507 2306.48 473.507C2306.48 473.507 2301.35 468.748 2296.56 467.108C2292.51 465.721 2289.1 466.571 2285.42 468.771C2280.87 471.495 2280.13 479 2280.13 479C2280.13 479 2278.91 488.593 2281.23 495.311C2283.14 500.847 2290.81 508.618 2290.81 508.618Z" fill="#693875" stroke="black" stroke-width="3"/>
<path d="M2275.37 219.061C2275.37 264.065 2311.86 300.547 2356.87 300.547C2401.88 300.547 2438.37 264.065 2438.37 219.061C2444.87 149.073 2401.88 137.575 2356.87 137.575C2311.86 137.575 2275.37 174.057 2275.37 219.061Z" fill="white" stroke="black" stroke-width="3"/>
<circle cx="42.5" cy="42.5" r="42.5" transform="matrix(-1 0 0 1 2400.37 176.603)" fill="#693875" stroke="black" stroke-width="3"/>
<ellipse cx="81.5" cy="81.4864" rx="81.5" ry="81.4864" transform="matrix(-1 0 0 1 2285.26 114.579)" fill="white" stroke="black" stroke-width="3"/>
<circle cx="42.5" cy="42.5" r="42.5" transform="matrix(-1 0 0 1 2246.37 153.603)" fill="#693875" stroke="black" stroke-width="3"/>
<path d="M2438.26 193.565H2122.26V353.535C2122.26 367.342 2133.45 378.534 2147.26 378.534H2413.26C2427.07 378.534 2438.26 367.342 2438.26 353.534V193.565Z" fill="white" stroke="black" stroke-width="3"/>
<rect width="268" height="155.974" rx="25" transform="matrix(-1 0 0 1 2414.26 208.563)" fill="black" stroke="black" stroke-width="3"/>
<rect width="100" height="99.9833" transform="matrix(-1 0 0 1 2269.37 236.558)" stroke="black" stroke-width="3"/>
<rect width="100" height="99.9833" transform="matrix(-1 0 0 1 2397.37 236.558)" stroke="black" stroke-width="3"/>
<path d="M1603.57 267.444L1579.63 270.882C1613.79 318.425 1627.58 382.494 1630.63 393.167C1633.68 403.84 1637.72 424.167 1645.67 456.344C1653.62 488.52 1642.63 520.167 1642.63 520.167L1684.13 557.667C1688.17 562.073 1688.62 463.918 1663.13 401.167C1637.65 338.416 1639.3 313.48 1603.57 267.444Z" fill="white" stroke="black" stroke-width="3" stroke-linecap="round" stroke-linejoin="round"/>
<path d="M1588.08 369.68H1614.77C1603.55 392.601 1598.67 407.018 1591.77 434.68C1582.19 521.056 1583.92 567.933 1600.27 648.68H1547.12C1550.41 531.531 1553.98 481.964 1564.27 430.68C1570.98 407.726 1575.26 394.682 1588.08 369.68Z" fill="white" stroke="black" stroke-width="3" stroke-linecap="round" stroke-linejoin="round"/>
<path d="M1600.27 648.928L1547.11 648.928C1547.11 648.928 1533.71 643.427 1533.13 634.17C1532.54 624.732 1545.32 607.806 1545.32 607.806L1560.53 615.068L1573.55 603.291L1587.63 614.191L1598.3 607.347L1608.11 610.863C1608.11 610.863 1612.61 629.363 1612.13 631.302C1611.65 633.242 1610.82 637.245 1607.11 642.852C1604.06 647.473 1600.27 648.928 1600.27 648.928Z" fill="#693875" stroke="black" stroke-width="3"/>
<path d="M1642.09 521.317L1684.02 557.727C1684.02 557.727 1697.87 560.679 1704 554.217C1710.26 547.629 1709.65 541.263 1703.19 533.374C1698.33 527.44 1687.79 522.927 1687.79 522.927C1687.79 522.927 1688.71 511.992 1683.44 507.224C1678.11 502.403 1669.47 504.131 1669.47 504.131C1669.47 504.131 1667.89 494.702 1664.36 491.078C1661.37 488.013 1658.07 487.056 1654.02 487.056C1648.99 487.056 1645.42 492.729 1645.42 492.729C1645.42 492.729 1640.62 499.855 1640.02 506.372C1639.52 511.744 1642.09 521.317 1642.09 521.317Z" fill="#693875" stroke="black" stroke-width="3"/>
<path d="M1810.13 298.194C1791.54 275.444 1781.48 275.627 1775.63 275.695V312.694C1774.84 319.578 1783.17 307.587 1788.63 330.694C1794.1 353.801 1792.13 357.194 1792.13 357.194C1792.13 357.194 1847.77 364.646 1843.63 347.694C1839.49 330.742 1825.01 316.396 1810.13 298.194Z" fill="white" stroke="black" stroke-width="3"/>
<path d="M1841.63 342.694L1792.13 357.194C1792.13 357.194 1783.26 369.959 1784.62 379.284C1786.01 388.79 1788.27 394.971 1798.54 394.744C1806.27 394.574 1812.63 391.694 1812.63 391.694C1812.63 391.694 1820.88 397.911 1827.93 396.639C1835.06 395.353 1841.13 384.194 1841.13 384.194C1841.13 384.194 1855.81 388.947 1860.63 387.194C1871.63 383.194 1871.9 376.61 1870.63 372.694C1865.63 357.194 1864.63 357.194 1857.13 349.694C1853.62 346.185 1843.88 340.342 1841.63 342.694Z" fill="#693875" stroke="black" stroke-width="3"/>
<path d="M1406.38 329.293C1421.3 268.44 1485.63 239.77 1485.63 239.77L1478.87 288.682C1478.87 288.682 1456.56 291.311 1443.76 354.654C1430.96 417.998 1435.34 400.937 1435.34 400.937L1399.42 401.52C1399.42 401.52 1387.84 404.966 1406.38 329.293Z" fill="white" stroke="black" stroke-width="3"/>
<path d="M1397.15 399.692L1435.34 400.937C1435.34 400.937 1444.59 407.961 1444.47 413.886C1444.35 419.927 1441.59 426.267 1433.75 427.317C1427.85 428.107 1422.46 422.342 1422.46 422.342C1422.46 422.342 1417.19 429.544 1411.7 429.574C1406.14 429.605 1401.5 422.299 1401.5 422.299C1401.5 422.299 1396.77 426.201 1392.85 426.434C1389.54 426.631 1387.19 426.115 1384.95 424.318C1382.17 422.092 1383.17 415.286 1383.17 415.286C1383.17 415.286 1384.38 409.624 1387.58 406.125C1390.22 403.242 1397.15 399.692 1397.15 399.692Z" fill="#693875" stroke="black" stroke-width="3"/>
<path d="M1624.63 224.162C1624.63 269.166 1588.14 305.649 1543.13 305.649C1498.12 305.649 1461.63 269.166 1461.63 224.162C1455.13 154.174 1498.12 142.676 1543.13 142.676C1588.14 142.676 1624.63 179.158 1624.63 224.162Z" fill="white" stroke="black" stroke-width="3"/>
<circle cx="1542.13" cy="224.204" r="42.5" fill="#693875" stroke="black" stroke-width="3"/>
<ellipse cx="1696.24" cy="201.166" rx="81.5" ry="81.4864" fill="white" stroke="black" stroke-width="3"/>
<circle cx="1696.13" cy="201.204" r="42.5" fill="#693875" stroke="black" stroke-width="3"/>
<path d="M1461.74 198.667H1777.74V358.636C1777.74 372.443 1766.55 383.636 1752.74 383.636H1486.74C1472.93 383.636 1461.74 372.443 1461.74 358.636V198.667Z" fill="white" stroke="black" stroke-width="3"/>
<rect x="1485.74" y="213.664" width="268" height="155.974" rx="25" fill="black" stroke="black" stroke-width="3"/>
<rect x="1630.63" y="241.659" width="100" height="99.9833" stroke="black" stroke-width="3"/>
<ellipse cx="1680.63" cy="291.651" rx="50" ry="49.9916" fill="white"/>
<ellipse cx="1680.63" cy="291.651" rx="38" ry="37.9936" fill="black"/>
<path d="M1729.62 239.68C1729.72 246.245 1728.53 252.766 1726.11 258.871C1723.69 264.975 1720.09 270.543 1715.52 275.257C1710.95 279.972 1705.5 283.739 1699.47 286.346C1693.45 288.952 1686.96 290.345 1680.4 290.447C1673.83 290.548 1667.31 289.356 1661.21 286.937C1655.1 284.519 1649.54 280.921 1644.82 276.351C1640.11 271.78 1636.34 266.326 1633.73 260.299C1631.13 254.272 1629.73 247.791 1629.63 241.226L1679.63 240.453L1729.62 239.68Z" fill="black"/>
<path d="M1735.31 341.677C1728.75 341.722 1722.24 340.473 1716.15 338.002C1710.07 335.53 1704.53 331.885 1699.86 327.274C1695.18 322.663 1691.46 317.176 1688.91 311.127C1686.36 305.078 1685.02 298.585 1684.97 292.019C1684.93 285.453 1686.18 278.943 1688.65 272.86C1691.12 266.776 1694.77 261.239 1699.38 256.565C1703.99 251.89 1709.47 248.17 1715.52 245.616C1721.57 243.062 1728.07 241.724 1734.63 241.68L1734.97 291.679L1735.31 341.677Z" fill="black"/>
<rect x="1502.63" y="241.659" width="100" height="99.9833" stroke="black" stroke-width="3"/>
<ellipse cx="1552.63" cy="291.651" rx="50" ry="49.9916" fill="white"/>
<ellipse cx="1552.63" cy="291.651" rx="38" ry="37.9936" fill="black"/>
<path d="M1602.62 239.68C1602.72 246.245 1601.53 252.766 1599.11 258.871C1596.69 264.975 1593.09 270.543 1588.52 275.257C1583.95 279.972 1578.5 283.739 1572.47 286.346C1566.45 288.952 1559.96 290.345 1553.4 290.447C1546.83 290.548 1540.31 289.356 1534.21 286.937C1528.1 284.519 1522.54 280.921 1517.82 276.351C1513.11 271.78 1509.34 266.326 1506.73 260.299C1504.13 254.272 1502.73 247.791 1502.63 241.226L1552.63 240.453L1602.62 239.68Z" fill="black"/>
<path d="M1608.63 347.999C1602.07 347.957 1595.57 346.622 1589.52 344.07C1583.47 341.519 1577.98 337.8 1573.37 333.128C1568.76 328.455 1565.11 322.919 1562.64 316.837C1560.16 310.755 1558.91 304.245 1558.95 297.679C1559 291.113 1560.33 284.62 1562.88 278.57C1565.43 272.52 1569.15 267.031 1573.83 262.418C1578.5 257.805 1584.03 254.158 1590.12 251.684C1596.2 249.211 1602.71 247.959 1609.27 248.001L1608.95 298L1608.63 347.999Z" fill="black"/>
<path d="M1513.19 357.215C1512.19 350.724 1512.49 344.102 1514.06 337.726C1515.63 331.349 1518.43 325.344 1522.32 320.053C1526.21 314.762 1531.1 310.288 1536.72 306.888C1542.34 303.487 1548.57 301.226 1555.06 300.234C1561.55 299.242 1568.17 299.538 1574.55 301.106C1580.92 302.673 1586.93 305.481 1592.22 309.369C1597.51 313.257 1601.99 318.149 1605.39 323.766C1608.79 329.383 1611.05 335.615 1612.04 342.105L1562.61 349.66L1513.19 357.215Z" fill="black"/>
<path d="M963.96 318.26L940.026 321.698C974.181 369.241 993.778 432.158 996.827 442.831C999.876 453.504 1004 482.205 1006.07 507.16C1008.14 532.115 1000.35 571.616 1000.35 571.616L1047.6 591.979C1047.6 591.979 1047.37 490.18 1028.5 438.281C1009.63 386.381 999.694 364.296 963.96 318.26Z" fill="white" stroke="black" stroke-width="3" stroke-linecap="round" stroke-linejoin="round"/>
<path d="M1157.84 286.492C1133.61 269.878 1126.69 267.925 1120.84 267.993V304.992C1116.01 317.967 1129.34 299.493 1134.34 314.992C1139.34 330.492 1136.84 329.992 1136.84 329.992C1136.84 329.992 1199.66 328.306 1185.84 313.492C1172.02 298.679 1172.29 296.406 1157.84 286.492Z" fill="white" stroke="black" stroke-width="3"/>
<path d="M1186.14 316.024L1137.25 326.282C1137.25 326.282 1120.44 339.297 1123.96 346.37C1126.36 351.18 1127.55 355.016 1136.77 357.428C1144 359.318 1154.78 355.34 1154.78 355.34C1154.78 355.34 1167.09 362.793 1174.15 361.617C1181.28 360.427 1192.32 348.474 1192.32 348.474C1192.32 348.474 1199.72 354.047 1204.56 352.511C1215.59 349.008 1219.87 342.737 1219.92 339.302C1220.12 326.477 1215.81 321.204 1206.27 317.621C1201.31 315.757 1188.41 314.038 1186.14 316.024Z" fill="#693875" stroke="black" stroke-width="3"/>
<path d="M754.837 308.993C773.619 249.22 830.839 232.069 830.839 232.069L824.072 280.981C824.072 280.981 786.837 284.993 788.337 327.493C789.837 369.993 790.337 361.992 790.337 361.992L746.837 361.993C747.924 358.018 744.186 342.891 754.837 308.993Z" fill="white" stroke="black" stroke-width="3"/>
<path d="M746.837 361.493L789.837 361.493C789.837 361.493 800.454 367.568 800.337 373.493C800.219 379.534 797.183 383.443 789.337 384.493C783.435 385.283 778.837 380.493 778.837 380.493C778.837 380.493 771.333 384.729 765.837 384.759C760.282 384.79 752.837 376.993 752.837 376.993C752.837 376.993 747.753 382.76 743.837 382.993C740.527 383.19 737.076 383.29 734.837 381.493C732.064 379.267 733.337 372.993 733.337 372.993C733.337 372.993 735.634 367.992 738.837 364.493C741.478 361.609 746.837 361.493 746.837 361.493Z" fill="#693875" stroke="black" stroke-width="3"/>
<path d="M1000.1 571.978L1047.33 591.978C1047.33 591.978 1062.78 584.345 1067.06 575.26C1071.42 565.999 1073.06 562.763 1064.57 557.049C1058.18 552.75 1047.33 550.834 1047.33 550.834C1047.33 550.834 1043.41 544.32 1036.94 541.391C1030.39 538.43 1022.52 539.902 1022.52 539.902C1022.52 539.902 1018.24 534.361 1013.79 531.952C1010.02 529.915 1006.52 530.19 1002.53 531.753C997.59 533.688 995.612 540.966 995.612 540.966C995.612 540.966 992.827 550.226 994.007 557.235C994.979 563.011 1000.1 571.978 1000.1 571.978Z" fill="#693875" stroke="black" stroke-width="3"/>
<path d="M941.793 375.993H968.489C948.837 397.493 940.507 410.817 933.604 438.479C930.604 489.979 928.604 612.979 928.604 612.979L885.604 641.979C885.604 641.979 889.308 493.263 899.604 441.979C899.604 418.479 920.837 390.993 941.793 375.993Z" fill="white" stroke="black" stroke-width="3" stroke-linecap="round" stroke-linejoin="round"/>
<path d="M885.604 641.978L928.604 612.978C928.604 612.978 934.05 601.326 929.667 592.291C925.199 583.08 923.712 579.769 913.931 582.792C906.572 585.066 898.27 592.306 898.27 592.306C898.27 592.306 890.739 591.266 884.393 594.467C877.978 597.702 874.18 604.754 874.18 604.754C874.18 604.754 867.183 604.601 862.51 606.556C858.56 608.209 856.574 611.108 855.286 615.192C853.691 620.251 858.113 626.361 858.113 626.361C858.113 626.361 863.571 634.343 869.767 637.826C874.873 640.696 885.604 641.978 885.604 641.978Z" fill="#693875" stroke="black" stroke-width="3"/>
<path d="M969.837 216.461C969.837 261.465 933.349 297.947 888.337 297.947C843.326 297.947 806.837 261.465 806.837 216.461C800.338 146.473 843.326 134.975 888.337 134.975C933.349 134.975 969.837 171.457 969.837 216.461Z" fill="white" stroke="black" stroke-width="3"/>
<circle cx="887.337" cy="216.502" r="42.5" fill="#693875" stroke="black" stroke-width="3"/>
<ellipse cx="1041.45" cy="193.465" rx="81.5" ry="81.4864" fill="white" stroke="black" stroke-width="3"/>
<circle cx="1041.34" cy="193.502" r="42.5" fill="#693875" stroke="black" stroke-width="3"/>
<path d="M806.946 190.965H1122.95V350.934C1122.95 364.742 1111.75 375.934 1097.95 375.934H831.946C818.139 375.934 806.946 364.742 806.946 350.934V190.965Z" fill="white" stroke="black" stroke-width="3"/>
<rect x="830.946" y="205.963" width="268" height="155.974" rx="25" fill="black" stroke="black" stroke-width="3"/>
<rect x="975.837" y="233.958" width="100" height="99.9833" stroke="black" stroke-width="3"/>
<ellipse cx="1025.84" cy="283.95" rx="50" ry="49.9916" fill="white"/>
<ellipse cx="1025.84" cy="283.95" rx="38" ry="37.9936" fill="black"/>
<path d="M1074.59 222.979C1074.69 229.544 1073.5 236.065 1071.08 242.169C1068.66 248.274 1065.07 253.842 1060.5 258.556C1055.93 263.27 1050.47 267.038 1044.44 269.644C1038.42 272.251 1031.94 273.644 1025.37 273.746C1018.81 273.847 1012.28 272.655 1006.18 270.236C1000.08 267.817 994.508 264.22 989.794 259.65C985.079 255.079 981.312 249.625 978.705 243.598C976.099 237.571 974.706 231.09 974.604 224.525L1024.6 223.752L1074.59 222.979Z" fill="black"/>
<path d="M1095.19 298.659C1089.7 302.254 1083.55 304.731 1077.1 305.95C1070.65 307.169 1064.02 307.105 1057.59 305.761C1051.16 304.418 1045.06 301.822 1039.64 298.122C1034.22 294.421 1029.57 289.688 1025.98 284.194C1022.38 278.699 1019.91 272.55 1018.69 266.098C1017.47 259.646 1017.53 253.018 1018.88 246.59C1020.22 240.163 1022.82 234.063 1026.52 228.639C1030.22 223.215 1034.95 218.573 1040.44 214.979L1067.82 256.819L1095.19 298.659Z" fill="black"/>
<rect x="847.837" y="233.958" width="100" height="99.9833" stroke="black" stroke-width="3"/>
<ellipse cx="897.837" cy="283.95" rx="50" ry="49.9916" fill="white"/>
<ellipse cx="897.837" cy="283.95" rx="38" ry="37.9936" fill="black"/>
<path d="M946.592 222.979C946.694 229.544 945.501 236.065 943.082 242.169C940.664 248.274 937.066 253.842 932.496 258.556C927.925 263.27 922.471 267.038 916.444 269.644C910.418 272.251 903.936 273.644 897.371 273.746C890.806 273.847 884.285 272.655 878.18 270.236C872.076 267.817 866.508 264.22 861.794 259.65C857.079 255.079 853.312 249.625 850.705 243.598C848.099 237.571 846.706 231.09 846.604 224.525L896.598 223.752L946.592 222.979Z" fill="black"/>
<path d="M974.093 303.705C968.267 306.734 961.902 308.585 955.36 309.154C948.819 309.723 942.23 308.997 935.968 307.019C929.707 305.041 923.897 301.85 918.87 297.626C913.842 293.403 909.695 288.231 906.667 282.405C903.638 276.579 901.787 270.213 901.218 263.672C900.649 257.131 901.375 250.541 903.353 244.28C905.331 238.019 908.522 232.209 912.746 227.181C916.969 222.154 922.141 218.007 927.967 214.979L951.03 259.342L974.093 303.705Z" fill="black"/>
<path d="M343.811 365.537H319.632C346.68 417.453 357.132 482.517 358.632 493.515C360.132 504.513 360.132 533.509 358.632 558.504C357.132 583.5 343.811 621.494 343.811 621.494L388.132 644.579C388.132 644.579 401.932 547.571 390.632 493.515C379.332 439.46 372.637 416.186 343.811 365.537Z" fill="white" stroke="black" stroke-width="3" stroke-linecap="round" stroke-linejoin="round"/>
<path d="M301.206 364.579H327.902C308.25 386.079 297.153 387.917 290.25 415.579C287.25 467.079 307.25 506.579 307.25 506.579L262.25 516.079C262.25 516.079 251.954 462.363 262.25 411.079C268.958 388.125 280.25 379.579 301.206 364.579Z" fill="white" stroke="black" stroke-width="3" stroke-linecap="round" stroke-linejoin="round"/>
<path d="M510.132 293.093C491.543 270.343 481.48 270.525 475.632 270.593V307.593C474.84 314.477 483.167 302.485 488.632 325.593C494.097 348.7 492.132 352.093 492.132 352.093C492.132 352.093 547.774 359.544 543.632 342.593C539.491 325.641 525.006 311.295 510.132 293.093Z" fill="white" stroke="black" stroke-width="3"/>
<path d="M541.632 337.593L492.132 352.093C492.132 352.093 483.259 364.858 484.621 374.183C486.01 383.689 488.275 389.87 498.544 389.643C506.27 389.473 512.632 386.593 512.632 386.593C512.632 386.593 520.883 392.81 527.933 391.538C535.059 390.252 541.132 379.093 541.132 379.093C541.132 379.093 555.81 383.846 560.632 382.093C571.632 378.093 571.895 371.509 570.632 367.593C565.632 352.093 564.632 352.093 557.132 344.593C553.623 341.084 543.875 335.241 541.632 337.593Z" fill="#693875" stroke="black" stroke-width="3"/>
<path d="M106.384 324.192C121.297 263.339 185.633 234.669 185.633 234.669L178.867 283.581C178.867 283.581 156.562 286.21 143.761 349.553C130.96 412.897 135.34 395.836 135.34 395.836L99.4208 396.419C99.4208 396.419 87.8394 399.865 106.384 324.192Z" fill="white" stroke="black" stroke-width="3"/>
<path d="M97.15 394.591L135.34 395.836C135.34 395.836 144.587 402.86 144.47 408.785C144.352 414.826 141.593 421.166 133.748 422.216C127.845 423.006 122.456 417.241 122.456 417.241C122.456 417.241 117.193 424.443 111.697 424.473C106.142 424.503 101.497 417.198 101.497 417.198C101.497 417.198 96.7699 421.1 92.8545 421.333C89.5444 421.53 87.187 421.014 84.948 419.217C82.1746 416.991 83.1653 410.185 83.1653 410.185C83.1653 410.185 84.3794 404.523 87.5831 401.024C90.2236 398.141 97.15 394.591 97.15 394.591Z" fill="#693875" stroke="black" stroke-width="3"/>
<path d="M342.969 621.243L387.985 644.578C387.985 644.578 405.045 636.872 409.697 627.972C414.439 618.899 416.214 615.734 407.963 609.673C401.755 605.114 390.996 602.751 390.996 602.751C390.996 602.751 387.349 596.081 381 592.887C374.581 589.658 366.655 590.804 366.655 590.804C366.655 590.804 362.612 585.091 358.26 582.499C354.58 580.309 351.069 580.439 347.02 581.835C342.006 583.564 339.729 590.754 339.729 590.754C339.729 590.754 336.563 599.891 337.452 606.943C338.185 612.755 342.969 621.243 342.969 621.243Z" fill="#693875" stroke="black" stroke-width="3"/>
<path d="M306.721 507.618L260.866 517.93C260.866 517.93 244 509.688 241.28 500.021C238.507 490.166 237.421 486.704 246.743 482.471C253.756 479.286 264.771 479.189 264.771 479.189C264.771 479.189 269.712 473.412 276.583 471.593C283.529 469.754 291.05 472.507 291.05 472.507C291.05 472.507 296.181 467.748 300.974 466.108C305.026 464.721 308.435 465.571 312.11 467.771C316.661 470.495 317.409 478 317.409 478C317.409 478 318.627 487.593 316.305 494.311C314.392 499.847 306.721 507.618 306.721 507.618Z" fill="#693875" stroke="black" stroke-width="3"/>
<path d="M324.632 219.061C324.632 264.065 288.143 300.547 243.132 300.547C198.121 300.547 161.632 264.065 161.632 219.061C155.132 149.073 198.121 137.575 243.132 137.575C288.143 137.575 324.632 174.057 324.632 219.061Z" fill="white" stroke="black" stroke-width="3"/>
<circle cx="242.132" cy="219.103" r="42.5" fill="#693875" stroke="black" stroke-width="3"/>
<ellipse cx="396.241" cy="196.065" rx="81.5" ry="81.4864" fill="white" stroke="black" stroke-width="3"/>
<circle cx="396.132" cy="196.103" r="42.5" fill="#693875" stroke="black" stroke-width="3"/>
<path d="M161.741 193.565H477.741V353.535C477.741 367.342 466.548 378.534 452.741 378.534H186.741C172.934 378.534 161.741 367.342 161.741 353.534V193.565Z" fill="white" stroke="black" stroke-width="3"/>
<rect x="185.741" y="208.563" width="268" height="155.974" rx="25" fill="black" stroke="black" stroke-width="3"/>
<rect x="330.632" y="236.558" width="100" height="99.9833" stroke="black" stroke-width="3"/>
<ellipse cx="380.632" cy="286.55" rx="50" ry="49.9916" fill="white"/>
<ellipse cx="380.632" cy="286.55" rx="38" ry="37.9936" fill="black"/>
<path d="M429.62 225.579C429.722 232.144 428.529 238.665 426.11 244.769C423.692 250.874 420.094 256.442 415.524 261.156C410.953 265.87 405.499 269.638 399.472 272.244C393.446 274.851 386.965 276.244 380.399 276.346C373.834 276.447 367.313 275.255 361.209 272.836C355.104 270.418 349.536 266.82 344.822 262.25C340.108 257.679 336.34 252.225 333.734 246.198C331.127 240.171 329.734 233.69 329.632 227.125L379.626 226.352L429.62 225.579Z" fill="black"/>
<rect x="202.632" y="236.558" width="100" height="99.9833" stroke="black" stroke-width="3"/>
<ellipse cx="252.632" cy="286.55" rx="50" ry="49.9916" fill="white"/>
<ellipse cx="252.632" cy="286.55" rx="38" ry="37.9936" fill="black"/>
<path d="M301.62 227.579C301.722 234.144 300.529 240.665 298.11 246.769C295.692 252.874 292.094 258.442 287.524 263.156C282.953 267.87 277.499 271.638 271.472 274.244C265.446 276.851 258.965 278.244 252.399 278.346C245.834 278.447 239.313 277.255 233.209 274.836C227.104 272.418 221.536 268.82 216.822 264.25C212.108 259.679 208.34 254.225 205.734 248.198C203.127 242.171 201.734 235.69 201.632 229.125L251.626 228.352L301.62 227.579Z" fill="black"/>
</svg>
