<svg width="5200" height="653" viewBox="0 0 5200 653" fill="none" xmlns="http://www.w3.org/2000/svg">
<path d="M4917.48 400L4882.98 396C4876.88 385.448 4890.16 442.546 4836.48 477C4782.8 511.454 4696.51 474.228 4697.98 477.5C4697.98 477.5 4698.99 528.634 4698.98 533.5C4698.97 538.366 4832.91 533.508 4859.48 505.5C4886.04 477.492 4911.48 449.5 4917.48 400Z" fill="white" stroke="black" stroke-width="3"/>
<path d="M4697.98 477.5L4698.84 534.21C4698.84 534.21 4709.28 538.148 4719.31 538.759C4729.53 539.381 4739.36 536.03 4741.51 526.038C4743.14 518.52 4725.52 521.534 4725.52 521.534C4725.52 521.534 4745.06 504.93 4745.37 497.839C4745.7 490.672 4730.36 493.489 4730.36 493.489C4730.36 493.489 4741 481.562 4741.59 476.538C4742.08 472.291 4737.68 465.827 4737.68 465.827C4737.68 465.827 4732.3 461.485 4724.49 462.77C4717.21 463.97 4712.74 464.626 4707.48 469.5C4703.3 473.366 4697.59 476.942 4697.98 477.5Z" fill="#693875" stroke="black" stroke-width="3"/>
<path d="M4850.48 390L4801.98 387C4804.3 386.439 4830.09 400.308 4838.98 436C4845.64 522.225 4839.57 571.423 4835.62 649.714L4884.62 649.714C4879.37 566.869 4880.51 469.887 4873.62 439.714C4866.72 409.542 4850.48 390 4850.48 390Z" fill="white" stroke="black" stroke-width="3"/>
<path d="M4835.62 649.714L4884.62 649.714C4884.62 649.714 4898.14 637.166 4898.57 627.133C4899.01 616.904 4896.07 606.099 4886.02 604.116C4878.47 602.624 4870.93 612.242 4870.93 612.242C4870.93 612.242 4864.83 599.912 4857.73 599.717C4850.54 599.519 4843.82 611.763 4843.82 611.763C4843.82 611.763 4838.09 605.035 4833.05 604.537C4828.79 604.117 4825.69 604.929 4822.62 607.912C4818.81 611.608 4819.42 623.154 4819.42 623.154C4819.42 623.154 4820.44 632.77 4824.24 638.777C4827.37 643.727 4835.62 649.714 4835.62 649.714Z" fill="#693875" stroke="black" stroke-width="3"/>
<path d="M5006.75 335.306C4932.09 396.943 4902.5 392 4902.5 392L4915 347C4915 347 5011.1 285.021 5047.65 278.08C5084.2 271.139 5117.35 315.503 5117.35 315.503L5081.16 342.127C5081.16 342.127 5067.55 285.115 5006.75 335.306Z" fill="white" stroke="black" stroke-width="3"/>
<path d="M5081.35 342.122L5117.36 315.519C5117.36 315.519 5127.82 324.968 5131.65 334.233C5136.18 345.2 5134.53 357.172 5126.68 363.754C5118.93 370.259 5115.9 353.085 5118.35 352.17C5119.02 353.745 5112.63 372.659 5105.72 374.021C5098.67 375.408 5095.82 367.53 5095.82 367.53C5095.82 367.53 5092.58 374.881 5082.6 378.674C5072.61 382.467 5071.22 366.39 5071.22 366.39C5071.22 366.39 5073.17 356.983 5076.24 351.41C5079.06 346.28 5081.35 342.122 5081.35 342.122Z" fill="#693875" stroke="black" stroke-width="3"/>
<path fill-rule="evenodd" clip-rule="evenodd" d="M4654.08 456.31C4654.08 456.31 4654.69 456.718 4655.74 457.357C4655.06 456.468 4654.43 456.037 4654.08 456.31Z" fill="#693875"/>
<path d="M4654.47 427.662L4604.49 429.187C4600.97 431.4 4601.91 450.915 4601.98 452.703C4602.06 454.491 4606.39 468.609 4611.4 471.979C4615.18 474.529 4620.1 476.931 4624.49 476.204C4630.36 475.231 4631.7 467.148 4629.71 463.116C4632.21 468.069 4646.2 477.597 4654.43 473.176C4661.17 469.554 4658.15 460.536 4655.74 457.359L4655.74 457.357C4654.69 456.718 4654.08 456.31 4654.08 456.31C4654.43 456.037 4655.06 456.468 4655.74 457.357L4655.74 457.359C4659.98 459.961 4671.33 466.382 4677.26 464.636C4690.38 460.771 4683.99 445.787 4675.21 438.919C4667.31 432.73 4654.47 427.662 4654.47 427.662Z" fill="#693875"/>
<path d="M4655.74 457.359L4655.74 457.357M4655.74 457.359C4658.15 460.536 4661.17 469.554 4654.43 473.176C4646.2 477.597 4632.21 468.069 4629.71 463.116C4631.7 467.148 4630.36 475.231 4624.49 476.204C4620.1 476.931 4615.18 474.529 4611.4 471.979C4606.39 468.609 4602.06 454.491 4601.98 452.703C4601.91 450.915 4600.97 431.4 4604.49 429.187L4654.47 427.662C4654.47 427.662 4667.31 432.73 4675.21 438.919C4683.99 445.787 4690.38 460.771 4677.26 464.636C4671.33 466.382 4659.98 459.961 4655.74 457.359ZM4655.74 457.357C4655.06 456.468 4654.43 456.037 4654.08 456.31C4654.08 456.31 4654.69 456.718 4655.74 457.357Z" stroke="black" stroke-width="3"/>
<path d="M4654.06 290.339C4730.38 235.175 4750.18 256.717 4755.39 258.775C4755.39 258.775 4767.58 263.652 4767.71 273.186C4767.85 282.72 4710.09 295.023 4663.9 330.272C4617.71 365.522 4665.99 437.688 4654.44 427.652L4604.47 429.188C4603.98 429.697 4577.55 345.643 4654.06 290.339Z" fill="white" stroke="black" stroke-width="3"/>
<path d="M4869.53 201.268C4864.23 245.898 4896.18 286.373 4940.88 291.672C4985.57 296.97 5023.75 273.324 5029.04 228.694C5034.33 184.064 5004.74 135.351 4960.04 130.052C4915.34 124.754 4874.82 156.638 4869.53 201.268Z" fill="white" stroke="black" stroke-width="3"/>
<path d="M4908.36 205.872C4905.6 229.145 4922.26 250.252 4945.57 253.015C4968.88 255.778 4990.01 239.151 4992.77 215.878C4995.53 192.605 4978.87 171.498 4955.56 168.735C4932.25 165.972 4911.12 182.599 4908.36 205.872Z" fill="#693875" stroke="black" stroke-width="3"/>
<path d="M4715.13 193.109C4709.84 237.739 4740.28 292.971 4784.98 298.269C4829.68 303.568 4870.2 271.683 4875.49 227.053C4880.79 182.423 4848.84 141.948 4804.14 136.65C4759.45 131.351 4720.43 148.479 4715.13 193.109Z" fill="white" stroke="black" stroke-width="3"/>
<path d="M4752.47 212.469C4749.71 235.743 4766.36 256.849 4789.67 259.612C4812.98 262.375 4834.11 245.748 4836.87 222.475C4839.63 199.202 4822.98 178.095 4799.67 175.332C4776.36 172.569 4755.23 189.196 4752.47 212.469Z" fill="#693875" stroke="black" stroke-width="3"/>
<path d="M5029.15 228.664L4715.35 191.463L4696.54 350.108C4694.92 363.798 4704.72 376.214 4718.43 377.839L4982.58 409.153C4996.29 410.779 5008.72 400.998 5010.34 387.308L5029.15 228.664Z" fill="white" stroke="black" stroke-width="3"/>
<path d="M5019.59 267.749C5021.22 254.059 5011.42 241.643 4997.71 240.018L4781.22 214.354C4767.51 212.729 4755.08 222.509 4753.46 236.199L4741 341.301C4739.37 354.991 4749.17 367.407 4762.88 369.033L4979.37 394.696C4993.08 396.322 5005.51 386.541 5007.13 372.851L5019.59 267.749Z" fill="black" stroke="black" stroke-width="3"/>
<rect width="99.9993" height="99.8471" transform="matrix(-0.993046 -0.117723 -0.11775 0.993043 5001.37 268.605)" stroke="black" stroke-width="3"/>
<rect width="99.9993" height="99.8471" transform="matrix(-0.993046 -0.117723 -0.11775 0.993043 4870.28 253.065)" stroke="black" stroke-width="3"/>
<path d="M4168.64 565.74L4141.56 521.5C4141.56 521.5 4120.8 523.569 4112.55 529.3C4104.14 535.142 4097.33 544.027 4101.83 553.222C4105.21 560.139 4117.43 560.315 4117.43 560.315C4117.43 560.315 4111.31 572.635 4115.46 578.408C4119.65 584.244 4133.46 582.184 4133.46 582.184C4133.46 582.184 4131.58 590.819 4134.23 595.132C4136.48 598.779 4139 600.754 4143.24 601.393C4148.48 602.185 4157.3 594.707 4157.3 594.707C4157.3 594.707 4164.34 588.078 4166.82 581.418C4168.86 575.928 4168.64 565.74 4168.64 565.74Z" fill="#693875" stroke="black" stroke-width="3"/>
<path d="M4306.52 354.821L4280.3 344.499C4280.3 344.499 4275.4 439.616 4242.06 472.999C4208.72 506.383 4141.56 520.999 4141.56 520.999L4168.74 565.842C4168.74 565.842 4265.27 508.769 4280.3 485.609C4295.33 462.449 4308.13 405.669 4306.52 354.821Z" fill="white" stroke="black" stroke-width="3"/>
<path d="M4246.69 338.057L4222.55 345.616L4306.14 641.732L4354.56 649.348L4246.69 338.057Z" fill="white" stroke="black" stroke-width="3"/>
<path d="M4306.06 642L4354.56 650C4354.56 650 4360.32 639.27 4362.55 629.479C4364.81 619.496 4363.1 609.249 4353.59 605.504C4346.43 602.686 4346.55 620.562 4346.55 620.562C4346.55 620.562 4333.33 598.589 4326.39 597.127C4319.37 595.65 4319.66 611.235 4319.66 611.235C4319.66 611.235 4309.62 598.802 4304.76 597.412C4300.64 596.237 4293.55 599.533 4293.55 599.533C4293.55 599.533 4288.4 604.143 4288.4 612.05C4288.4 619.429 4291.65 623.992 4296.38 629.392C4300.23 633.795 4306.06 642 4306.06 642Z" fill="#693875" stroke="black" stroke-width="3"/>
<path fill-rule="evenodd" clip-rule="evenodd" d="M4002.02 332.811C4002.02 332.811 4002.2 333.528 4002.52 334.707C4002.63 333.595 4002.47 332.851 4002.02 332.811Z" fill="#693875"/>
<path d="M4021.8 312.083L3984.13 279.197C3980.05 278.423 3967.46 293.364 3966.3 294.727C3965.14 296.09 3958.7 309.382 3960.08 315.257C3961.12 319.702 3963.09 324.806 3966.8 327.261C3971.76 330.541 3978.25 325.533 3979.53 321.223C3978 326.553 3981.77 343.056 3990.81 345.414C3998.21 347.346 4002.13 338.68 4002.52 334.708L4002.52 334.707C4002.2 333.528 4002.02 332.811 4002.02 332.811C4002.47 332.851 4002.63 333.595 4002.52 334.707L4002.52 334.708C4003.87 339.504 4007.81 351.931 4013.35 354.685C4025.6 360.781 4031.1 345.447 4029.35 334.446C4027.76 324.533 4021.8 312.083 4021.8 312.083Z" fill="#693875"/>
<path d="M4002.52 334.708L4002.52 334.707M4002.52 334.708C4002.13 338.68 3998.21 347.346 3990.81 345.414C3981.77 343.056 3978 326.553 3979.53 321.223C3978.25 325.533 3971.76 330.541 3966.8 327.261C3963.09 324.806 3961.12 319.702 3960.08 315.257C3958.7 309.382 3965.14 296.09 3966.3 294.727C3967.46 293.364 3980.05 278.423 3984.13 279.197L4021.8 312.083C4021.8 312.083 4027.76 324.533 4029.35 334.446C4031.1 345.447 4025.6 360.781 4013.35 354.685C4007.81 351.931 4003.87 339.504 4002.52 334.708ZM4002.52 334.707C4002.63 333.595 4002.47 332.851 4002.02 332.811C4002.02 332.811 4002.2 333.528 4002.52 334.707Z" stroke="black" stroke-width="3"/>
<path d="M4114.93 211.158C4208.39 222.651 4208.24 251.909 4210.66 256.964C4210.66 256.964 4203.56 291.853 4198.84 280.779C4194.11 269.704 4158.42 247.815 4094.97 247.12C4031.52 246.424 4021.83 312.758 4021.78 312.053L3984.12 279.186C3983.42 279.227 4021.22 199.636 4114.93 211.158Z" fill="white" stroke="black" stroke-width="3"/>
<path fill-rule="evenodd" clip-rule="evenodd" d="M4504.88 288.419C4504.88 288.419 4505.12 287.722 4505.49 286.554C4504.79 287.429 4504.53 288.144 4504.88 288.419Z" fill="#693875"/>
<path d="M4477.02 295.112L4490.84 343.168C4493.86 346.034 4512.54 340.305 4514.25 339.789C4515.96 339.272 4528.58 331.592 4530.6 325.909C4532.14 321.61 4533.25 316.255 4531.46 312.179C4529.07 306.732 4520.91 307.423 4517.49 310.348C4521.68 306.705 4527.45 290.791 4521.14 283.908C4515.96 278.272 4507.97 283.427 4505.49 286.552L4505.49 286.554C4505.12 287.722 4504.88 288.419 4504.88 288.419C4504.53 288.144 4504.79 287.429 4505.49 286.554L4505.49 286.552C4506.96 281.794 4510.38 269.213 4507.22 263.899C4500.24 252.136 4487.3 262.035 4482.81 272.231C4478.76 281.418 4477.02 295.112 4477.02 295.112Z" fill="#693875"/>
<path d="M4505.49 286.552L4505.49 286.554M4505.49 286.552C4507.97 283.427 4515.96 278.272 4521.14 283.908C4527.45 290.791 4521.68 306.705 4517.49 310.348C4520.91 307.423 4529.07 306.732 4531.46 312.179C4533.25 316.255 4532.14 321.61 4530.6 325.909C4528.57 331.592 4515.96 339.272 4514.25 339.789C4512.54 340.305 4493.86 346.034 4490.84 343.168L4477.02 295.112C4477.02 295.112 4478.76 281.418 4482.81 272.231C4487.3 262.035 4500.24 252.136 4507.22 263.899C4510.38 269.213 4506.96 281.794 4505.49 286.552ZM4505.49 286.554C4504.79 287.429 4504.53 288.144 4504.88 288.419C4504.88 288.419 4505.12 287.722 4505.49 286.554Z" stroke="black" stroke-width="3"/>
<path d="M4344.05 329.423C4271.75 269.091 4287.74 244.586 4288.44 239.026C4288.44 239.026 4313.33 213.56 4311.29 225.428C4309.26 237.295 4327.38 275.038 4380.32 310.026C4433.26 345.015 4477.37 294.531 4477.02 295.146L4490.85 343.183C4491.46 343.532 4416.54 389.909 4344.05 329.423Z" fill="white" stroke="black" stroke-width="3"/>
<path d="M4116.2 145.49C4111.09 190.142 4143.2 230.485 4187.92 235.6C4232.64 240.715 4270.72 216.913 4275.83 172.262C4280.94 127.61 4251.14 79.0188 4206.43 73.9037C4161.71 68.7885 4121.31 100.839 4116.2 145.49Z" fill="white" stroke="black" stroke-width="3"/>
<path d="M4155.06 149.935C4152.39 173.219 4169.14 194.257 4192.46 196.925C4215.78 199.592 4236.84 182.879 4239.51 159.594C4242.17 136.31 4225.43 115.272 4202.11 112.604C4178.79 109.937 4157.72 126.65 4155.06 149.935Z" fill="#693875" stroke="black" stroke-width="3"/>
<path d="M4269.81 167.115C4264.7 211.766 4295.37 266.872 4340.09 271.987C4384.81 277.102 4421.95 246.151 4427.06 201.5C4437.56 155 4403.31 115.406 4358.59 110.29C4313.87 105.175 4274.92 122.463 4269.81 167.115Z" fill="white" stroke="black" stroke-width="3"/>
<path d="M4307.22 186.321C4304.56 209.606 4321.3 230.644 4344.62 233.311C4367.94 235.979 4389.01 219.265 4391.67 195.981C4394.34 172.697 4377.59 151.658 4354.27 148.991C4330.95 146.324 4309.89 163.037 4307.22 186.321Z" fill="#693875" stroke="black" stroke-width="3"/>
<path d="M4428.72 189.351L4114.77 153.438L4096.61 312.158C4095.05 325.855 4104.9 338.23 4118.61 339.799L4382.89 370.03C4396.61 371.599 4409 361.768 4410.56 348.071L4428.72 189.351Z" fill="white" stroke="black" stroke-width="3"/>
<path d="M4419.32 228.475C4420.89 214.778 4411.04 202.403 4397.32 200.834L4180.74 176.058C4167.02 174.489 4154.63 184.321 4153.06 198.017L4141.03 303.17C4139.46 316.866 4149.31 329.242 4163.03 330.811L4379.62 355.586C4393.34 357.155 4405.73 347.324 4407.29 333.627L4419.32 228.475Z" fill="black" stroke="black" stroke-width="3"/>
<rect width="99.9993" height="99.8471" transform="matrix(-0.993521 -0.113649 -0.113676 0.993518 4401.1 229.406)" stroke="black" stroke-width="3"/>
<path d="M4306.01 268.778C4302.88 296.171 4322.58 320.922 4350.01 324.06C4377.45 327.198 4402.23 307.536 4405.36 280.142C4408.5 252.749 4388.8 227.998 4361.36 224.86C4333.93 221.722 4309.14 241.384 4306.01 268.778Z" fill="white"/>
<path d="M4317.93 270.141C4315.55 290.96 4330.52 309.771 4351.37 312.156C4372.22 314.541 4391.06 299.598 4393.44 278.779C4395.82 257.96 4380.85 239.149 4360 236.764C4339.15 234.379 4320.31 249.323 4317.93 270.141Z" fill="black"/>
<path d="M4401.53 317.662C4395.02 316.807 4388.74 314.677 4383.06 311.396C4377.37 308.114 4372.38 303.744 4368.39 298.536C4364.39 293.327 4361.45 287.382 4359.75 281.04C4358.05 274.698 4357.62 268.084 4358.47 261.573C4359.33 255.063 4361.46 248.786 4364.74 243.098C4368.02 237.411 4372.39 232.426 4377.6 228.428C4382.81 224.43 4388.75 221.496 4395.09 219.795C4401.44 218.095 4408.05 217.66 4414.56 218.515L4408.05 268.089L4401.53 317.662Z" fill="black"/>
<path d="M4405.56 224.78C4404.13 231.189 4401.45 237.253 4397.68 242.626C4393.91 247.999 4389.11 252.577 4383.57 256.097C4378.03 259.617 4371.84 262.011 4365.38 263.143C4358.91 264.274 4352.28 264.12 4345.87 262.69C4339.46 261.26 4333.4 258.581 4328.03 254.807C4322.65 251.034 4318.07 246.239 4314.55 240.696C4311.03 235.153 4308.64 228.971 4307.51 222.504C4306.38 216.036 4306.53 209.408 4307.96 203L4356.76 213.89L4405.56 224.78Z" fill="black"/>
<rect width="99.9993" height="99.8471" transform="matrix(-0.993521 -0.113649 -0.113676 0.993518 4269.96 214.404)" stroke="black" stroke-width="3"/>
<path d="M4185.79 255.025C4182.66 282.419 4202.36 307.169 4229.79 310.308C4257.23 313.446 4282.01 293.783 4285.14 266.39C4288.28 238.997 4268.58 214.246 4241.14 211.108C4213.71 207.97 4188.93 227.632 4185.79 255.025Z" fill="white"/>
<path d="M4197.72 256.389C4195.33 277.208 4210.31 296.018 4231.16 298.404C4252.01 300.789 4270.84 285.845 4273.22 265.026C4275.6 244.207 4260.63 225.397 4239.78 223.012C4218.93 220.627 4200.1 235.57 4197.72 256.389Z" fill="black"/>
<path d="M4291.56 218.781C4290.13 225.189 4287.45 231.253 4283.68 236.626C4279.9 242 4275.11 246.577 4269.57 250.097C4264.02 253.618 4257.84 256.012 4251.37 257.143C4244.91 258.274 4238.28 258.12 4231.87 256.69C4225.46 255.26 4219.4 252.581 4214.02 248.808C4208.65 245.034 4204.07 240.239 4200.55 234.696C4197.03 229.154 4194.64 222.972 4193.51 216.504C4192.38 210.036 4192.53 203.408 4193.96 197L4242.76 207.89L4291.56 218.781Z" fill="black"/>
<path d="M4289.56 313.91C4283 314.188 4276.45 313.172 4270.28 310.919C4264.11 308.666 4258.45 305.22 4253.62 300.778C4248.78 296.336 4244.87 290.985 4242.1 285.031C4239.33 279.077 4237.76 272.635 4237.49 266.075C4237.21 259.515 4238.22 252.964 4240.48 246.797C4242.73 240.63 4246.18 234.966 4250.62 230.131C4255.06 225.295 4260.41 221.382 4266.36 218.614C4272.32 215.846 4278.76 214.278 4285.32 214L4287.44 263.955L4289.56 313.91Z" fill="black"/>
<path d="M3652.72 325.245L3627.92 320.238L3558.53 620L3597.3 650L3652.72 325.245Z" fill="white" stroke="black" stroke-width="3"/>
<path d="M3559.17 621.667L3597.3 650C3597.3 650 3618.27 645.648 3624.16 637.514C3630.16 629.22 3633.65 618.58 3626.37 611.391C3620.88 605.983 3609.29 609.856 3609.29 609.856C3609.29 609.856 3611 596.206 3605.18 592.128C3599.29 588.006 3586.93 594.518 3586.93 594.518C3586.93 594.518 3585.86 585.745 3581.93 582.553C3578.6 579.853 3575.57 578.823 3571.36 579.62C3566.15 580.607 3560.3 590.58 3560.3 590.58C3560.3 590.58 3555.84 599.164 3555.71 606.27C3555.59 612.127 3559.17 621.667 3559.17 621.667Z" fill="#693875" stroke="black" stroke-width="3"/>
<path d="M3599.89 332.35L3540.46 341.532C3540.46 341.532 3676.25 380.946 3692.3 409.5C3708.35 438.054 3681.3 517 3681.3 517L3726.8 517C3726.8 517 3740.05 447.255 3726.8 405C3713.54 362.745 3617.32 334.384 3599.89 332.35Z" fill="white" stroke="black" stroke-width="3"/>
<path d="M3726.8 517L3681.3 517C3681.3 517 3676.97 527.648 3676.19 537.659C3675.4 547.865 3678.59 557.754 3688.54 560.076C3696.03 561.823 3693.31 544.155 3693.31 544.155C3693.31 544.155 3709.59 563.971 3716.67 564.407C3723.83 564.848 3721.27 549.471 3721.27 549.471C3721.27 549.471 3733.02 560.31 3738.03 560.978C3742.27 561.543 3748.81 557.251 3748.81 557.251C3748.81 557.251 3753.24 551.939 3752.09 544.117C3751.01 536.817 3747.13 532.775 3741.67 528.12C3737.22 524.323 3726.8 517 3726.8 517Z" fill="#693875" stroke="black" stroke-width="3"/>
<path d="M3799.26 404.628L3813.78 356.926C3813.78 356.926 3825.75 351.001 3835.66 349.339C3845.34 347.714 3859.11 352.007 3858.19 362.204C3857.5 369.875 3840.49 376.318 3840.49 376.318C3840.49 376.318 3855.82 382.08 3854.01 388.954C3852.18 395.902 3832.66 404.778 3832.66 404.778C3832.66 404.778 3844.54 407.209 3843.6 412.187C3842.8 416.395 3842.12 418.527 3838.4 420.637C3833.78 423.251 3822.11 423.486 3822.11 423.486C3822.11 423.486 3810.73 423.345 3806.04 418.011C3802.17 413.614 3799.26 404.628 3799.26 404.628Z" fill="#693875" stroke="black" stroke-width="3"/>
<path d="M3698.01 296.132C3658.38 207.795 3636.46 186.014 3636.46 186.014L3684.2 200.597C3677.08 203.412 3714.49 234.155 3750.95 300.429C3787.41 366.703 3818.52 356.476 3813.38 358.065L3799.07 404.56C3792.67 413.788 3737.32 383.747 3698.01 296.132Z" fill="white" stroke="black" stroke-width="3"/>
<path d="M3417.71 254.612C3514.27 261.531 3542.68 277.069 3542.68 277.069L3498.57 301.057C3498.57 301.057 3379.86 288.004 3348.62 267.802C3317.38 247.601 3324.01 192.619 3324.01 192.619L3368.56 198.324C3368.56 198.324 3339.07 248.978 3417.71 254.612Z" fill="white" stroke="black" stroke-width="3"/>
<path d="M3368.43 198.196L3324.01 192.596C3324.01 192.596 3322.96 178.542 3326.58 169.195C3330.87 158.132 3340.33 150.608 3350.55 151.256C3360.65 151.897 3350.99 166.42 3348.58 165.389C3349.18 163.787 3366.86 154.509 3372.81 158.298C3378.87 162.159 3375.49 169.822 3375.49 169.822C3375.49 169.822 3382.9 166.738 3392.75 170.886C3402.6 175.034 3392.51 187.627 3392.51 187.627C3392.51 187.627 3384.6 193.087 3378.53 195.003C3372.95 196.766 3368.43 198.196 3368.43 198.196Z" fill="#693875" stroke="black" stroke-width="3"/>
<path d="M3429.09 174.63C3435.21 219.154 3476.32 250.279 3520.91 244.149C3565.5 238.02 3596.49 205.522 3590.37 160.997C3584.25 116.473 3543.34 76.7832 3498.75 82.913C3454.16 89.0428 3422.97 130.106 3429.09 174.63Z" fill="white" stroke="black" stroke-width="3"/>
<path d="M3467.84 169.304C3471.03 192.522 3492.46 208.753 3515.72 205.557C3538.97 202.36 3555.23 180.947 3552.04 157.729C3548.85 134.51 3527.42 118.28 3504.16 121.476C3480.91 124.673 3464.65 146.086 3467.84 169.304Z" fill="#693875" stroke="black" stroke-width="3"/>
<path d="M3579.77 139.645C3585.89 184.169 3626.99 215.294 3671.59 209.164C3716.18 203.034 3747.16 170.536 3741.04 126.012C3734.93 81.488 3694.02 41.7981 3649.43 47.9279C3604.84 54.0577 3573.65 95.1208 3579.77 139.645Z" fill="white" stroke="black" stroke-width="3"/>
<path d="M3618.51 134.319C3621.7 157.537 3643.14 173.768 3666.39 170.571C3689.65 167.375 3705.91 145.962 3702.72 122.744C3699.53 99.5254 3678.09 83.2947 3654.84 86.4912C3631.58 89.6877 3615.32 111.101 3618.51 134.319Z" fill="#693875" stroke="black" stroke-width="3"/>
<path d="M3741.15 125.954L3428.09 168.986L3449.84 327.255C3451.72 340.912 3464.33 350.46 3478.01 348.58L3741.53 312.356C3755.21 310.476 3764.78 297.88 3762.9 284.222L3741.15 125.954Z" fill="white" stroke="black" stroke-width="3"/>
<path d="M3741.74 166.187C3739.86 152.529 3727.25 142.982 3713.57 144.862L3497.61 174.549C3483.93 176.429 3474.36 189.025 3476.24 202.683L3490.65 307.536C3492.53 321.193 3505.14 330.741 3518.81 328.861L3734.78 299.174C3748.46 297.293 3758.03 284.697 3756.15 271.04L3741.74 166.187Z" fill="black" stroke="black" stroke-width="3"/>
<rect width="99.9993" height="99.8471" transform="matrix(-0.990684 0.136179 0.136152 0.990688 3724.32 171.606)" stroke="black" stroke-width="3"/>
<path d="M3641.95 233.321C3645.71 260.636 3670.93 279.731 3698.28 275.971C3725.64 272.21 3744.77 247.019 3741.02 219.703C3737.27 192.388 3712.05 173.293 3684.69 177.054C3657.33 180.814 3638.2 206.006 3641.95 233.321Z" fill="white"/>
<path d="M3653.84 231.687C3656.69 252.446 3675.86 266.959 3696.65 264.101C3717.44 261.243 3731.98 242.097 3729.13 221.337C3726.28 200.578 3707.11 186.066 3686.32 188.924C3665.53 191.781 3650.99 210.927 3653.84 231.687Z" fill="black"/>
<path d="M3750.06 250.339C3743.74 252.1 3737.13 252.599 3730.61 251.805C3724.09 251.012 3717.79 248.943 3712.07 245.716C3706.36 242.488 3701.33 238.166 3697.28 232.997C3693.23 227.827 3690.24 221.91 3688.48 215.585C3686.72 209.259 3686.22 202.649 3687.01 196.131C3687.81 189.613 3689.88 183.315 3693.1 177.597C3696.33 171.878 3700.65 166.852 3705.82 162.804C3710.99 158.756 3716.91 155.766 3723.24 154.004L3736.65 202.172L3750.06 250.339Z" fill="black"/>
<path d="M3726.72 163C3727.72 169.49 3727.42 176.113 3725.86 182.49C3724.3 188.867 3721.49 194.873 3717.6 200.166C3713.72 205.459 3708.83 209.935 3703.21 213.338C3697.6 216.741 3691.37 219.005 3684.88 220C3678.39 220.995 3671.76 220.702 3665.39 219.137C3659.01 217.573 3653 214.768 3647.71 210.882C3642.42 206.996 3637.94 202.106 3634.54 196.491C3631.14 190.875 3628.87 184.645 3627.88 178.154L3677.3 170.577L3726.72 163Z" fill="black"/>
<rect width="99.9993" height="99.8471" transform="matrix(-0.990684 0.136179 0.136152 0.990688 3593.54 189.581)" stroke="black" stroke-width="3"/>
<path d="M3522.08 249.798C3525.83 277.113 3551.05 296.208 3578.41 292.448C3605.77 288.687 3624.9 263.495 3621.15 236.18C3617.39 208.865 3592.17 189.77 3564.82 193.53C3537.46 197.291 3518.32 222.483 3522.08 249.798Z" fill="white"/>
<path d="M3533.97 248.164C3536.82 268.924 3555.99 283.436 3576.78 280.578C3597.57 277.72 3612.11 258.574 3609.26 237.814C3606.41 217.055 3587.24 202.543 3566.45 205.401C3545.66 208.259 3531.11 227.404 3533.97 248.164Z" fill="black"/>
<path d="M3627.3 268.429C3620.84 269.588 3614.21 269.463 3607.79 268.061C3601.38 266.659 3595.3 264.007 3589.91 260.257C3584.52 256.506 3579.93 251.731 3576.38 246.204C3572.84 240.677 3570.42 234.505 3569.26 228.042C3568.1 221.579 3568.22 214.951 3569.62 208.537C3571.03 202.122 3573.68 196.047 3577.43 190.657C3581.18 185.267 3585.95 180.669 3591.48 177.125C3597.01 173.58 3603.18 171.159 3609.64 170L3618.47 219.215L3627.3 268.429Z" fill="black"/>
<path d="M3608.38 181C3608.9 187.546 3608.12 194.129 3606.09 200.374C3604.06 206.618 3600.82 212.402 3596.55 217.394C3592.29 222.387 3587.08 226.49 3581.23 229.471C3575.38 232.451 3569 234.25 3562.45 234.764C3555.91 235.279 3549.32 234.499 3543.08 232.47C3536.84 230.44 3531.05 227.2 3526.06 222.935C3521.07 218.671 3516.96 213.464 3513.98 207.614C3511 201.763 3509.2 195.382 3508.69 188.836L3558.54 184.918L3608.38 181Z" fill="black"/>
<path d="M2993.3 354.118L2967.78 346.947L2914.58 650L2960.58 650L2993.3 354.118Z" fill="white" stroke="black" stroke-width="3"/>
<path d="M2914.58 650H2960.58C2960.58 650 2977.11 637.451 2977.54 627.418C2977.98 617.19 2975.04 606.384 2964.99 604.402C2957.44 602.91 2949.9 612.527 2949.9 612.527C2949.9 612.527 2943.8 600.198 2936.69 600.002C2929.51 599.805 2922.79 612.049 2922.79 612.049C2922.79 612.049 2917.06 605.32 2912.02 604.823C2907.75 604.402 2904.66 605.215 2901.58 608.198C2897.78 611.893 2898.39 623.44 2898.39 623.44C2898.39 623.44 2899.41 633.056 2903.21 639.062C2906.34 644.013 2914.58 650 2914.58 650Z" fill="#693875" stroke="black" stroke-width="3"/>
<path d="M2942.58 361.969L2882.58 366C2882.58 366 2967.08 389.5 2967.08 417.5C2967.08 445.5 2881.61 519.048 2876.58 511L2912.08 540C2912.08 540 2997.58 465 2997.58 424C2997.58 383 2959.77 365.495 2942.58 361.969Z" fill="white" stroke="black" stroke-width="3"/>
<path d="M2912.35 540.876L2875.86 510.41C2875.86 510.41 2865.99 515.639 2858.9 522.75C2851.68 529.999 2847.68 539.589 2853.75 547.817C2858.31 554.007 2867.71 538.802 2867.71 538.802C2867.71 538.802 2867.23 564.441 2872.33 569.37C2877.5 574.354 2885.53 560.994 2885.53 560.994C2885.53 560.994 2887.43 576.865 2890.81 580.627C2893.67 583.808 2901.43 584.785 2901.43 584.785C2901.43 584.785 2908.25 583.621 2912.44 576.921C2916.36 570.669 2916.04 565.076 2914.91 557.992C2913.98 552.215 2912.35 540.876 2912.35 540.876Z" fill="#693875" stroke="black" stroke-width="3"/>
<path fill-rule="evenodd" clip-rule="evenodd" d="M2665.66 243.304C2665.66 243.304 2665.71 242.568 2665.84 241.352C2666.13 242.43 2666.09 243.191 2665.66 243.304Z" fill="#693875"/>
<path d="M2688.61 260.456L2656.93 299.147C2653.03 300.59 2638.13 287.95 2636.76 286.799C2635.39 285.647 2626.84 273.61 2627.22 267.588C2627.5 263.032 2628.6 257.672 2631.85 254.634C2636.2 250.575 2643.43 254.434 2645.41 258.471C2643.01 253.471 2643.98 236.569 2652.5 232.741C2659.48 229.606 2664.79 237.499 2665.84 241.35L2665.84 241.352C2665.71 242.568 2665.66 243.304 2665.66 243.304C2666.09 243.191 2666.13 242.43 2665.84 241.352L2665.84 241.35C2666.36 236.398 2668.19 223.488 2673.19 219.852C2684.25 211.805 2692.23 226.009 2692.33 237.15C2692.42 247.188 2688.61 260.456 2688.61 260.456Z" fill="#693875"/>
<path d="M2665.84 241.35L2665.84 241.352M2665.84 241.35C2664.79 237.499 2659.48 229.606 2652.5 232.741C2643.98 236.569 2643.01 253.471 2645.41 258.471C2643.43 254.434 2636.2 250.575 2631.85 254.634C2628.6 257.672 2627.5 263.032 2627.22 267.588C2626.84 273.61 2635.39 285.647 2636.76 286.799C2638.13 287.95 2653.03 300.59 2656.93 299.147L2688.61 260.456C2688.61 260.456 2692.42 247.188 2692.33 237.15C2692.23 226.009 2684.25 211.805 2673.19 219.852C2668.19 223.488 2666.36 236.398 2665.84 241.35ZM2665.84 241.352C2666.13 242.43 2666.09 243.191 2665.66 243.304C2665.66 243.304 2665.71 242.568 2665.84 241.352Z" stroke="black" stroke-width="3"/>
<path d="M2797.22 344.491C2887.47 317.618 2882.46 288.791 2884.01 283.404C2884.01 283.404 2875.02 248.782 2872.2 260.488C2869.38 272.194 2837.83 299.712 2775.37 310.949C2712.92 322.185 2688.52 259.785 2688.59 260.487L2656.92 299.159C2656.22 299.237 2706.73 371.433 2797.22 344.491Z" fill="white" stroke="black" stroke-width="3"/>
<path fill-rule="evenodd" clip-rule="evenodd" d="M3122.38 502.459C3122.38 502.459 3121.81 502.925 3120.83 503.663C3121.42 502.712 3122 502.221 3122.38 502.459Z" fill="#693875"/>
<path d="M3119.19 473.986L3169.08 470.623C3172.8 472.481 3173.77 491.994 3173.87 493.781C3173.97 495.568 3171.04 510.042 3166.39 513.884C3162.87 516.791 3158.21 519.662 3153.77 519.367C3147.84 518.973 3145.71 511.06 3147.29 506.853C3145.29 512.026 3132.29 522.875 3123.67 519.279C3116.61 516.333 3118.74 507.063 3120.83 503.665L3120.83 503.663C3121.81 502.925 3122.38 502.459 3122.38 502.459C3122 502.221 3121.42 502.712 3120.83 503.663L3120.83 503.665C3116.86 506.669 3106.19 514.168 3100.12 513.009C3086.68 510.445 3091.59 494.908 3099.65 487.215C3106.91 480.284 3119.19 473.986 3119.19 473.986Z" fill="#693875"/>
<path d="M3120.83 503.665L3120.83 503.663M3120.83 503.665C3118.74 507.063 3116.61 516.333 3123.67 519.279C3132.29 522.875 3145.29 512.026 3147.29 506.853C3145.71 511.06 3147.84 518.973 3153.77 519.367C3158.21 519.662 3162.87 516.791 3166.39 513.884C3171.04 510.042 3173.97 495.568 3173.87 493.781C3173.77 491.994 3172.8 472.481 3169.08 470.623L3119.19 473.986C3119.19 473.986 3106.91 480.284 3099.65 487.215C3091.59 494.908 3086.68 510.445 3100.12 513.009C3106.19 514.168 3116.86 506.669 3120.83 503.665ZM3120.83 503.663C3121.42 502.712 3122 502.221 3122.38 502.459C3122.38 502.459 3121.81 502.925 3120.83 503.663Z" stroke="black" stroke-width="3"/>
<path d="M3106.19 337.279C3024.85 289.834 3007.25 313.207 3002.26 315.764C3002.26 315.764 2986.79 347.831 2997.25 341.879C3007.72 335.926 3049.37 340.116 3100.3 377.983C3151.22 415.851 3118.76 474.509 3119.22 473.973L3169.1 470.621C3169.63 471.081 3187.74 384.845 3106.19 337.279Z" fill="white" stroke="black" stroke-width="3"/>
<path d="M2930.35 170.333C2932.62 215.219 2970.89 249.767 3015.85 247.499C3060.8 245.231 3094.47 215.521 3092.21 170.635C3089.94 125.75 3052.6 82.6854 3007.65 84.9535C2962.7 87.2216 2928.09 125.447 2930.35 170.333Z" fill="white" stroke="black" stroke-width="3"/>
<path d="M2969.41 168.362C2970.59 191.769 2990.55 209.785 3013.99 208.602C3037.44 207.419 3055.48 187.486 3054.3 164.079C3053.12 140.673 3033.16 122.657 3009.72 123.839C2986.28 125.022 2968.23 144.956 2969.41 168.362Z" fill="#693875" stroke="black" stroke-width="3"/>
<path d="M2776.78 188.167C2779.04 233.052 2818.31 282.4 2863.26 280.132C2908.21 277.864 2942.82 239.639 2940.56 194.753C2938.3 149.867 2900.02 115.319 2855.07 117.587C2810.11 119.855 2774.52 143.281 2776.78 188.167Z" fill="white" stroke="black" stroke-width="3"/>
<path d="M2816.83 200.996C2818.01 224.402 2837.97 242.418 2861.41 241.236C2884.85 240.053 2902.9 220.119 2901.72 196.713C2900.54 173.306 2880.58 155.29 2857.13 156.473C2833.69 157.655 2815.65 177.589 2816.83 200.996Z" fill="#693875" stroke="black" stroke-width="3"/>
<path d="M3092.31 170.586L2776.72 186.507L2784.76 346.061C2785.46 359.829 2797.2 370.427 2810.99 369.731L3076.65 356.329C3090.44 355.634 3101.05 343.908 3100.36 330.14L3092.31 170.586Z" fill="white" stroke="black" stroke-width="3"/>
<path d="M3089.44 210.721C3088.75 196.953 3077 186.355 3063.21 187.051L2845.49 198.034C2831.7 198.73 2821.09 210.455 2821.78 224.224L2827.11 329.928C2827.81 343.697 2839.55 354.294 2853.34 353.599L3071.06 342.615C3084.85 341.919 3095.46 330.194 3094.77 316.425L3089.44 210.721Z" fill="black" stroke="black" stroke-width="3"/>
<rect width="99.9993" height="99.8471" transform="matrix(-0.99873 0.0503838 0.0503571 0.998731 3071.61 214.62)" stroke="black" stroke-width="3"/>
<path d="M2984.24 269.015C2985.63 296.552 3009.11 317.747 3036.69 316.356C3064.27 314.965 3085.5 291.514 3084.11 263.977C3082.73 236.44 3059.24 215.244 3031.66 216.636C3004.09 218.027 2982.85 241.478 2984.24 269.015Z" fill="white"/>
<path d="M2996.23 268.41C2997.28 289.339 3015.13 305.447 3036.09 304.39C3057.05 303.332 3073.19 285.509 3072.13 264.581C3071.07 243.653 3053.23 227.545 3032.27 228.602C3011.31 229.659 2995.17 247.482 2996.23 268.41Z" fill="black"/>
<path d="M3087.59 313.996C3081.02 314.055 3074.51 312.82 3068.42 310.362C3062.33 307.904 3056.78 304.27 3052.1 299.669C3047.42 295.068 3043.68 289.59 3041.12 283.546C3038.55 277.503 3037.2 271.013 3037.14 264.447C3037.08 257.881 3038.31 251.368 3040.77 245.28C3043.23 239.191 3046.86 233.646 3051.46 228.962C3056.07 224.277 3061.54 220.545 3067.59 217.978C3073.63 215.41 3080.12 214.059 3086.69 214L3087.14 263.998L3087.59 313.996Z" fill="black"/>
<path d="M3077.67 206C3078.18 212.546 3077.4 219.129 3075.37 225.373C3073.34 231.618 3070.1 237.402 3065.84 242.394C3061.57 247.387 3056.37 251.49 3050.51 254.471C3044.66 257.451 3038.28 259.25 3031.74 259.764C3025.19 260.279 3018.61 259.499 3012.36 257.469C3006.12 255.44 3000.34 252.2 2995.34 247.935C2990.35 243.67 2986.25 238.464 2983.27 232.613C2980.29 226.763 2978.49 220.382 2977.97 213.836L3027.82 209.918L3077.67 206Z" fill="black"/>
<rect width="99.9993" height="99.8471" transform="matrix(-0.99873 0.0503838 0.0503571 0.998731 2939.78 221.27)" stroke="black" stroke-width="3"/>
<path d="M2863.4 275.11C2864.78 302.647 2888.27 323.843 2915.85 322.451C2943.43 321.06 2964.66 297.609 2963.27 270.072C2961.88 242.535 2938.4 221.34 2910.82 222.731C2883.24 224.122 2862.01 247.573 2863.4 275.11Z" fill="white"/>
<path d="M2875.38 274.506C2876.44 295.434 2894.28 311.542 2915.24 310.485C2936.2 309.428 2952.34 291.605 2951.28 270.677C2950.23 249.749 2932.38 233.64 2911.42 234.698C2890.46 235.755 2874.33 253.578 2875.38 274.506Z" fill="black"/>
<path d="M2970.1 322.63C2963.54 322.237 2957.13 320.556 2951.23 317.685C2945.32 314.813 2940.04 310.807 2935.68 305.894C2931.33 300.981 2927.98 295.259 2925.84 289.053C2923.69 282.847 2922.79 276.279 2923.18 269.725C2923.58 263.171 2925.26 256.758 2928.13 250.853C2931 244.948 2935.01 239.667 2939.92 235.31C2944.83 230.954 2950.55 227.608 2956.76 225.463C2962.97 223.318 2969.53 222.416 2976.09 222.81L2973.09 272.72L2970.1 322.63Z" fill="black"/>
<path d="M2949.66 213C2950.18 219.546 2949.4 226.129 2947.37 232.373C2945.34 238.618 2942.1 244.402 2937.84 249.394C2933.57 254.387 2928.36 258.49 2922.51 261.471C2916.66 264.451 2910.28 266.25 2903.74 266.764C2897.19 267.279 2890.61 266.499 2884.36 264.469C2878.12 262.44 2872.34 259.2 2867.34 254.935C2862.35 250.67 2858.25 245.464 2855.27 239.613C2852.29 233.763 2850.49 227.382 2849.97 220.836L2899.82 216.918L2949.66 213Z" fill="black"/>
<path d="M2453.4 316.794C2397.38 395.76 2358.01 400.602 2358.01 400.602L2366.68 351.106C2366.75 343.029 2433.72 267.681 2486.07 254.487C2538.42 241.292 2564.03 290.712 2564.03 290.712L2528.93 319.498C2528.93 319.498 2497.38 254.799 2453.4 316.794Z" fill="white" stroke="black" stroke-width="3"/>
<path d="M2528.93 319.499L2564.03 290.712C2564.03 290.712 2573.76 299.977 2578.16 309.006C2583.36 319.693 2584.51 331.532 2577.09 338.583C2569.75 345.551 2561.4 330.169 2563.8 329.106C2564.56 330.64 2561.55 348.555 2554.73 350.333C2547.77 352.144 2544.45 344.443 2544.45 344.443C2544.45 344.443 2541.67 351.984 2531.93 356.377C2522.19 360.77 2519.81 344.786 2519.81 344.786C2519.81 344.786 2520.63 335.141 2523.35 329.387C2525.85 324.09 2528.93 319.499 2528.93 319.499Z" fill="#693875" stroke="black" stroke-width="3"/>
<path d="M2338.42 358.192L2298.71 349.676C2297.19 340.943 2311.65 406.186 2253.84 443.038C2196.02 479.891 2122.17 454.641 2122.17 454.641L2131.12 501.212C2131.12 501.212 2253.5 490.991 2277.18 467.811C2300.85 444.632 2320.69 405.799 2338.42 358.192Z" fill="white" stroke="black" stroke-width="3"/>
<path d="M2122.17 454.641L2130.93 501.366C2130.93 501.366 2141.87 503.612 2151.86 502.64C2162.05 501.649 2171.23 496.794 2171.79 486.587C2172.21 478.908 2155.28 484.654 2155.28 484.654C2155.28 484.654 2171.97 465.185 2171.17 458.133C2170.36 451.004 2155.66 456.196 2155.66 456.196C2155.66 456.196 2164.3 442.744 2164.09 437.691C2163.91 433.419 2158.54 427.727 2158.54 427.727C2158.54 427.727 2152.54 424.285 2145.04 426.781C2138.04 429.11 2134.73 433.631 2131.09 439.815C2128.13 444.858 2122.17 454.641 2122.17 454.641Z" fill="#693875" stroke="black" stroke-width="3"/>
<path d="M2358.99 392L2332.99 392C2332.99 392 2351.92 406.439 2358.99 440C2369.64 524.998 2358.88 570.344 2350.49 650L2399.49 650C2394.25 567.155 2395.39 470.172 2388.49 440C2381.6 409.828 2358.99 392 2358.99 392Z" fill="white" stroke="black" stroke-width="3"/>
<path d="M2350.49 650L2399.49 650C2399.49 650 2413.02 637.451 2413.45 627.418C2413.89 617.19 2410.95 606.384 2400.9 604.402C2393.35 602.91 2385.81 612.527 2385.81 612.527C2385.81 612.527 2379.71 600.198 2372.61 600.002C2365.42 599.805 2358.7 612.049 2358.7 612.049C2358.7 612.049 2352.97 605.32 2347.93 604.823C2343.67 604.402 2340.57 605.215 2337.49 608.198C2333.69 611.893 2334.3 623.44 2334.3 623.44C2334.3 623.44 2335.32 633.056 2339.12 639.062C2342.25 644.013 2350.49 650 2350.49 650Z" fill="#693875" stroke="black" stroke-width="3"/>
<path d="M2112.59 329.094C2168.6 250.12 2198.2 234.909 2198.2 234.909L2196.59 285.097C2207.38 294.319 2137.1 396.837 2091.79 403.245C2046.48 409.653 2014.76 380.86 2014.76 380.86C2014.76 380.86 2040.28 350.21 2042.22 345.302C2044.16 340.395 2069.81 389.423 2112.59 329.094Z" fill="white" stroke="black" stroke-width="3"/>
<path d="M2042.04 345.359L2014.74 380.85C2014.74 380.85 2002.09 374.645 1995.86 366.792C1988.48 357.497 1986.78 345.532 1992.5 337.045C1998.16 328.658 2005.81 344.332 2003.7 345.888C2002.62 344.559 2003.56 324.616 2009.83 321.402C2016.23 318.128 2021.13 324.918 2021.13 324.918C2021.13 324.918 2022.22 316.959 2030.78 310.562C2039.33 304.165 2045.1 319.239 2045.1 319.239C2045.1 319.239 2045.81 328.821 2044.39 335.022C2043.09 340.731 2042.04 345.359 2042.04 345.359Z" fill="#693875" stroke="black" stroke-width="3"/>
<path d="M2316.34 236.654C2311.04 281.284 2342.99 321.759 2387.69 327.058C2432.38 332.356 2471.13 281.284 2476.43 236.654C2481.72 192.024 2451.55 170.737 2406.85 165.438C2362.15 160.14 2321.63 192.024 2316.34 236.654Z" fill="white" stroke="black" stroke-width="3"/>
<path d="M2355.17 241.258C2352.41 264.531 2369.07 285.638 2392.38 288.401C2415.69 291.164 2436.82 274.537 2439.58 251.264C2442.34 227.99 2425.68 206.884 2402.37 204.121C2379.06 201.358 2357.93 217.984 2355.17 241.258Z" fill="#693875" stroke="black" stroke-width="3"/>
<circle cx="81.5" cy="81.5" r="81.5" transform="matrix(-1 -6.25423e-09 -2.10541e-08 1 2325.08 124.056)" fill="white" stroke="black" stroke-width="3"/>
<circle cx="42.5" cy="42.5" r="42.5" transform="matrix(-1 -6.25423e-09 -2.10541e-08 1 2286.19 163.056)" fill="#693875" stroke="black" stroke-width="3"/>
<path d="M2476 235.109L2162.2 197.908L2143.38 356.553C2141.76 370.243 2151.56 382.659 2165.27 384.284L2429.42 415.598C2443.13 417.224 2455.56 407.443 2457.19 393.753L2476 235.109Z" fill="white" stroke="black" stroke-width="3"/>
<path d="M2466.44 274.194C2468.06 260.504 2458.26 248.088 2444.55 246.463L2228.07 220.799C2214.36 219.174 2201.93 228.954 2200.3 242.645L2187.84 347.747C2186.22 361.437 2196.02 373.853 2209.73 375.478L2426.21 401.141C2439.92 402.767 2452.35 392.986 2453.97 379.296L2466.44 274.194Z" fill="black" stroke="black" stroke-width="3"/>
<rect width="99.9993" height="99.8471" transform="matrix(-0.993046 -0.117723 -0.11775 0.993043 2448.21 275.051)" stroke="black" stroke-width="3"/>
<path d="M2352.96 314.032C2349.71 341.412 2369.31 366.243 2396.73 369.494C2424.15 372.745 2449.02 353.184 2452.26 325.804C2455.51 298.424 2435.91 273.592 2408.49 270.342C2381.07 267.091 2356.2 286.652 2352.96 314.032Z" fill="white"/>
<path d="M2364.87 315.444C2362.41 336.253 2377.3 355.125 2398.14 357.596C2418.98 360.066 2437.88 345.2 2440.35 324.391C2442.81 303.582 2427.92 284.711 2407.08 282.24C2386.24 279.769 2367.34 294.635 2364.87 315.444Z" fill="black"/>
<path d="M2458.49 275.09C2457.7 281.608 2455.63 287.906 2452.4 293.624C2449.18 299.342 2444.85 304.368 2439.68 308.416C2434.51 312.463 2428.6 315.453 2422.27 317.214C2415.94 318.975 2409.33 319.472 2402.82 318.678C2396.3 317.885 2390 315.815 2384.28 312.587C2378.56 309.359 2373.54 305.037 2369.49 299.867C2365.44 294.696 2362.45 288.78 2360.69 282.454C2358.93 276.128 2358.43 269.518 2359.23 263L2408.86 269.045L2458.49 275.09Z" fill="black"/>
<rect width="99.9993" height="99.8471" transform="matrix(-0.993046 -0.117723 -0.11775 0.993043 2317.13 259.51)" stroke="black" stroke-width="3"/>
<path d="M2232.8 299.786C2229.55 327.167 2249.15 351.998 2276.57 355.249C2303.99 358.5 2328.86 338.939 2332.1 311.559C2335.35 284.178 2315.75 259.347 2288.33 256.096C2260.91 252.845 2236.05 272.406 2232.8 299.786Z" fill="white"/>
<path d="M2244.72 301.199C2242.25 322.008 2257.14 340.88 2277.98 343.35C2298.82 345.821 2317.72 330.955 2320.19 310.146C2322.65 289.337 2307.76 270.465 2286.92 267.995C2266.08 265.524 2247.18 280.39 2244.72 301.199Z" fill="black"/>
<path d="M2339.49 260.09C2338.7 266.608 2336.63 272.906 2333.4 278.624C2330.18 284.342 2325.85 289.368 2320.68 293.416C2315.51 297.463 2309.6 300.453 2303.27 302.214C2296.94 303.975 2290.33 304.472 2283.82 303.678C2277.3 302.885 2271 300.815 2265.28 297.587C2259.56 294.359 2254.54 290.037 2250.49 284.867C2246.44 279.696 2243.45 273.78 2241.69 267.454C2239.93 261.128 2239.43 254.518 2240.23 248L2289.86 254.045L2339.49 260.09Z" fill="black"/>
<path d="M1575.96 366.854L1556.34 349.032C1556.34 349.032 1549.66 453.387 1516.32 486.77C1482.97 520.154 1411.88 536.789 1411.88 536.789L1438.18 577.874C1438.18 577.874 1534.71 520.802 1549.74 497.641C1564.77 474.481 1577.56 417.701 1575.96 366.854Z" fill="white" stroke="black" stroke-width="3"/>
<path d="M1597.28 368.033L1622.52 359.945L1688.19 649.866L1626.96 617.898L1597.28 368.033Z" fill="white" stroke="black" stroke-width="3" stroke-linecap="round" stroke-linejoin="round"/>
<path d="M1627.49 618.778L1688.42 649.794C1688.42 649.794 1700.08 644.241 1701.78 634.345C1703.53 624.257 1701.26 616.486 1693.05 610.367C1686.54 605.511 1673.16 603.519 1672.55 605.386C1672.55 605.386 1667.87 592.91 1660.85 591.81C1653.75 590.697 1645.42 599.379 1645.42 599.379C1642.39 591.836 1637.19 586.792 1637.19 586.792C1634.16 581.987 1615.11 575.747 1614.86 589.221C1614.86 589.221 1614.5 598.031 1617.5 604.474C1619.97 609.784 1627.49 618.778 1627.49 618.778Z" fill="#693875" stroke="black" stroke-width="3"/>
<path fill-rule="evenodd" clip-rule="evenodd" d="M1334.57 465.621C1334.57 465.621 1333.85 465.451 1332.67 465.127C1333.78 465.013 1334.53 465.176 1334.57 465.621Z" fill="#693875"/>
<path d="M1355.2 445.741L1388.27 483.248C1389.06 487.332 1374.18 499.993 1372.83 501.159C1371.47 502.325 1358.21 508.824 1352.33 507.476C1347.88 506.457 1342.76 504.515 1340.29 500.813C1336.99 495.867 1341.96 489.357 1346.27 488.052C1340.94 489.617 1324.42 485.923 1322.02 476.895C1320.05 469.501 1328.7 465.539 1332.67 465.128L1332.67 465.127C1333.85 465.451 1334.57 465.621 1334.57 465.621C1334.53 465.176 1333.78 465.013 1332.67 465.127L1332.67 465.128C1327.87 463.809 1315.42 459.922 1312.64 454.402C1306.48 442.185 1321.79 436.603 1332.8 438.306C1342.72 439.839 1355.2 445.741 1355.2 445.741Z" fill="#693875"/>
<path d="M1332.67 465.128L1332.67 465.127M1332.67 465.128C1328.7 465.539 1320.05 469.501 1322.02 476.895C1324.42 485.923 1340.94 489.617 1346.27 488.052C1341.96 489.357 1336.99 495.867 1340.29 500.813C1342.76 504.515 1347.88 506.457 1352.33 507.476C1358.21 508.824 1371.47 502.325 1372.83 501.159C1374.18 499.993 1389.06 487.332 1388.27 483.248L1355.2 445.741C1355.2 445.741 1342.72 439.839 1332.8 438.306C1321.79 436.603 1306.48 442.185 1312.64 454.402C1315.42 459.922 1327.87 463.809 1332.67 465.128ZM1332.67 465.127C1333.78 465.013 1334.53 465.176 1334.57 465.621C1334.57 465.621 1333.85 465.451 1332.67 465.127Z" stroke="black" stroke-width="3"/>
<path d="M1430.2 374.5C1424.45 292.84 1456.87 281.454 1435 268.554C1435 268.554 1433.2 221 1425.7 237C1418.2 253 1379.23 296.479 1388.28 364.302C1397.34 432.125 1359.56 448.457 1355.23 445.758L1388.28 483.26C1388.28 489.302 1434.95 442.095 1430.2 374.5Z" fill="white" stroke="black" stroke-width="3"/>
<path d="M1775.52 293.469C1731.37 313.913 1713.47 309.935 1713.47 309.935L1703.04 362.536C1724.1 355.843 1818.21 319.044 1845.35 292.643C1872.5 266.242 1854.81 207.607 1848.87 205.468L1808.42 224.119C1808.42 224.119 1840.02 263.599 1775.52 293.469Z" fill="white" stroke="black" stroke-width="3"/>
<path d="M1808.12 225.068L1849.61 205.634C1849.61 205.634 1845.52 192.6 1839.24 184.768C1831.8 175.498 1821.59 169.4 1812.04 173.098C1802.61 176.753 1812.95 190.875 1814.93 189.166C1813.87 187.818 1796.39 182.885 1791.86 188.295C1787.26 193.808 1792.8 200.105 1792.8 200.105C1792.8 200.105 1784.79 199.396 1776.66 206.324C1768.52 213.252 1781.96 222.235 1781.96 222.235C1781.96 222.235 1791.03 225.613 1797.39 225.614C1803.25 225.616 1808.12 225.068 1808.12 225.068Z" fill="#693875" stroke="black" stroke-width="3"/>
<path d="M1411.14 537.553L1437.05 578.741C1437.05 578.741 1447.29 576.009 1456.15 571.286C1465.19 566.472 1471.82 558.464 1468.42 548.805C1465.87 541.537 1452.43 553.331 1452.43 553.331C1452.43 553.331 1460.4 528.928 1456.96 522.708C1453.48 516.42 1441.89 526.848 1441.89 526.848C1441.89 526.848 1444.72 511.096 1442.59 506.501C1440.78 502.616 1433.65 499.4 1433.65 499.4C1433.65 499.4 1426.79 498.51 1420.81 503.69C1415.23 508.524 1413.91 513.974 1412.92 521.088C1412.11 526.89 1411.14 537.553 1411.14 537.553Z" fill="#693875" stroke="black" stroke-width="3"/>
<path d="M1431.81 156.318C1426.84 201.054 1459.08 241.347 1503.82 246.313C1548.55 251.28 1586.55 227.309 1591.52 182.573C1596.49 137.836 1566.54 89.2757 1521.8 84.3088C1477.07 79.342 1436.78 111.582 1431.81 156.318Z" fill="white" stroke="black" stroke-width="3"/>
<path d="M1470.68 160.634C1468.09 183.962 1484.9 204.974 1508.23 207.564C1531.56 210.154 1552.57 193.342 1555.16 170.013C1557.75 146.684 1540.94 125.673 1517.61 123.083C1494.28 120.493 1473.27 137.305 1470.68 160.634Z" fill="#693875" stroke="black" stroke-width="3"/>
<path d="M1585.1 171.239C1580.13 215.976 1610.97 271.058 1655.71 276.025C1700.44 280.991 1740.74 248.752 1745.7 204.015C1750.67 159.279 1718.43 118.987 1673.69 114.02C1628.96 109.053 1590.06 126.503 1585.1 171.239Z" fill="white" stroke="black" stroke-width="3"/>
<path d="M1622.57 190.345C1619.98 213.673 1636.79 234.685 1660.12 237.275C1683.45 239.865 1704.46 223.053 1707.05 199.724C1709.64 176.395 1692.83 155.384 1669.5 152.794C1646.17 150.204 1625.16 167.016 1622.57 190.345Z" fill="#693875" stroke="black" stroke-width="3"/>
<path d="M1745.52 199.28L1431.45 164.41L1413.79 323.433C1412.27 337.156 1422.16 349.516 1435.88 351.039L1700.25 380.391C1713.98 381.915 1726.34 372.025 1727.86 358.303L1745.52 199.28Z" fill="white" stroke="black" stroke-width="3"/>
<path d="M1736.24 238.496C1737.76 224.773 1727.87 212.413 1714.15 210.89L1497.48 186.834C1483.76 185.311 1471.4 195.2 1469.88 208.923L1458.18 314.276C1456.66 327.998 1466.55 340.358 1480.27 341.882L1696.94 365.937C1710.66 367.461 1723.02 357.571 1724.54 343.848L1736.24 238.496Z" fill="black" stroke="black" stroke-width="3"/>
<rect width="100" height="100" transform="matrix(-0.993893 -0.110346 -0.110346 0.993893 1718.02 239.491)" stroke="black" stroke-width="3"/>
<path d="M1623.05 279.255C1620 306.7 1639.78 331.42 1667.23 334.467C1694.67 337.514 1719.39 317.735 1722.44 290.289C1725.49 262.844 1705.71 238.125 1678.26 235.077C1650.82 232.03 1626.1 251.809 1623.05 279.255Z" fill="white"/>
<path d="M1634.98 280.579C1632.66 301.438 1647.69 320.224 1668.55 322.54C1689.41 324.856 1708.2 309.824 1710.51 288.965C1712.83 268.107 1697.8 249.32 1676.94 247.004C1656.08 244.688 1637.29 259.72 1634.98 280.579Z" fill="black"/>
<path d="M1623.98 336.689C1630.38 335.211 1636.42 332.487 1641.77 328.673C1647.11 324.859 1651.65 320.03 1655.13 314.461C1658.61 308.892 1660.96 302.693 1662.04 296.216C1663.12 289.74 1662.92 283.114 1661.44 276.716C1659.96 270.319 1657.24 264.275 1653.43 258.93C1649.61 253.585 1644.78 249.044 1639.21 245.565C1633.64 242.087 1627.44 239.739 1620.97 238.657C1614.49 237.574 1607.87 237.778 1601.47 239.256L1612.72 287.972L1623.98 336.689Z" fill="black"/>
<path d="M1724.49 231.763C1723.73 238.285 1721.69 244.594 1718.5 250.329C1715.3 256.064 1711.01 261.114 1705.86 265.189C1700.71 269.264 1694.81 272.286 1688.49 274.08C1682.18 275.875 1675.57 276.408 1669.05 275.65C1662.52 274.891 1656.22 272.855 1650.48 269.658C1644.74 266.461 1639.7 262.165 1635.62 257.017C1631.54 251.869 1628.52 245.968 1626.73 239.652C1624.93 233.336 1624.4 226.728 1625.16 220.206L1674.82 225.985L1724.49 231.763Z" fill="black"/>
<rect width="100" height="100" transform="matrix(-0.993893 -0.110346 -0.110346 0.993893 1586.83 224.926)" stroke="black" stroke-width="3"/>
<path d="M1502.79 265.903C1499.74 293.349 1519.52 318.068 1546.97 321.115C1574.41 324.162 1599.13 304.383 1602.18 276.938C1605.23 249.492 1585.45 224.773 1558 221.726C1530.56 218.678 1505.84 238.457 1502.79 265.903Z" fill="white"/>
<path d="M1514.72 267.227C1512.4 288.086 1527.43 306.872 1548.29 309.188C1569.15 311.504 1587.94 296.472 1590.25 275.613C1592.57 254.755 1577.54 235.968 1556.68 233.652C1535.82 231.336 1517.03 246.368 1514.72 267.227Z" fill="black"/>
<path d="M1504.98 330.689C1511.38 329.211 1517.42 326.487 1522.77 322.673C1528.11 318.859 1532.65 314.03 1536.13 308.461C1539.61 302.892 1541.96 296.693 1543.04 290.216C1544.12 283.74 1543.92 277.114 1542.44 270.716C1540.96 264.319 1538.24 258.275 1534.43 252.93C1530.61 247.585 1525.78 243.044 1520.21 239.565C1514.64 236.087 1508.44 233.739 1501.97 232.657C1495.49 231.574 1488.87 231.778 1482.47 233.256L1493.72 281.972L1504.98 330.689Z" fill="black"/>
<path d="M1607.7 227.653C1606.14 234.033 1603.35 240.045 1599.47 245.344C1595.6 250.644 1590.71 255.129 1585.1 258.542C1579.5 261.954 1573.27 264.229 1566.78 265.236C1560.29 266.242 1553.67 265.961 1547.29 264.408C1540.91 262.855 1534.9 260.06 1529.6 256.184C1524.3 252.307 1519.81 247.425 1516.4 241.816C1512.99 236.206 1510.71 229.98 1509.71 223.491C1508.7 217.003 1508.98 210.38 1510.53 204L1559.12 215.827L1607.7 227.653Z" fill="black"/>
<path d="M923.449 324.878L898.648 319.871L829.262 619.632L868.028 649.632L923.449 324.878Z" fill="white" stroke="black" stroke-width="3"/>
<path d="M829.904 621.3L868.028 649.633C868.028 649.633 888.997 645.281 894.885 637.146C900.888 628.853 904.384 618.213 897.095 611.024C891.611 605.616 880.023 609.489 880.023 609.489C880.023 609.489 881.726 595.838 875.905 591.761C870.02 587.638 857.663 594.151 857.663 594.151C857.663 594.151 856.588 585.378 852.655 582.185C849.33 579.486 846.296 578.456 842.088 579.253C836.877 580.24 831.026 590.213 831.026 590.213C831.026 590.213 826.574 598.797 826.435 605.903C826.321 611.76 829.904 621.3 829.904 621.3Z" fill="#693875" stroke="black" stroke-width="3"/>
<path d="M1001.1 315.212L941.666 324.394C941.666 324.394 1077.45 363.808 1093.5 392.362C1109.56 420.916 1082.5 499.862 1082.5 499.862L1128 499.862C1128 499.862 1141.26 430.117 1128 387.862C1114.75 345.607 1018.52 317.246 1001.1 315.212Z" fill="white" stroke="black" stroke-width="3"/>
<path d="M1128 499.862L1082.5 499.862C1082.5 499.862 1078.18 510.51 1077.4 520.521C1076.6 530.727 1079.79 540.616 1089.75 542.938C1097.24 544.685 1094.52 527.017 1094.52 527.017C1094.52 527.017 1110.79 546.833 1117.88 547.269C1125.04 547.71 1122.48 532.333 1122.48 532.333C1122.48 532.333 1134.22 543.172 1139.24 543.84C1143.48 544.405 1150.01 540.113 1150.01 540.113C1150.01 540.113 1154.44 534.801 1153.29 526.979C1152.21 519.679 1148.33 515.637 1142.88 510.982C1138.42 507.186 1128 499.862 1128 499.862Z" fill="#693875" stroke="black" stroke-width="3"/>
<path d="M1129.61 280.118C1042.61 272.118 994.868 196.792 973.52 233.166L1000.87 275.275C1016.92 285.53 1132.61 315.618 1148.55 317.479C1164.5 319.341 1174.75 330.59 1174.61 328.118C1174.61 328.118 1185.11 299.409 1198.61 295.618C1212.1 291.827 1216.61 288.118 1129.61 280.118Z" fill="white" stroke="black" stroke-width="3"/>
<path d="M1176.35 285L1164.85 323C1164.85 323 1176.98 332.844 1186.96 333.768C1198.77 334.861 1209.72 329.749 1213.7 320.314C1217.63 310.991 1200.32 313.159 1200.17 315.773C1201.88 315.948 1218.06 304.262 1217.32 297.25C1216.57 290.105 1208.2 289.714 1208.2 289.714C1208.2 289.714 1214.27 284.45 1214.95 273.787C1215.62 263.124 1199.85 266.541 1199.85 266.541C1199.85 266.541 1191.44 271.184 1187.02 275.759C1182.95 279.97 1176.35 285 1176.35 285Z" fill="#693875" stroke="black" stroke-width="3"/>
<path fill-rule="evenodd" clip-rule="evenodd" d="M962.936 431.216C962.936 431.216 963.439 430.676 964.24 429.751C963.252 430.273 962.724 430.823 962.936 431.216Z" fill="#693875"/>
<path d="M934.738 426.139L928.065 475.696C929.672 479.533 949.077 481.8 950.854 482.016C952.63 482.231 967.267 480.273 971.41 475.886C974.545 472.568 977.719 468.112 977.72 463.661C977.721 457.713 969.967 455.061 965.664 456.366C970.959 454.712 982.648 442.465 979.633 433.624C977.163 426.382 967.772 427.888 964.242 429.751L964.24 429.751C963.439 430.676 962.936 431.216 962.936 431.216C962.724 430.823 963.252 430.273 964.24 429.751L964.242 429.751C967.504 425.987 975.695 415.843 974.943 409.708C973.277 396.13 957.449 399.988 949.238 407.517C941.839 414.302 934.738 426.139 934.738 426.139Z" fill="#693875"/>
<path d="M964.242 429.751L964.24 429.751M964.242 429.751C967.772 427.888 977.163 426.382 979.633 433.624C982.648 442.465 970.959 454.712 965.664 456.366C969.967 455.061 977.721 457.713 977.72 463.661C977.719 468.112 974.545 472.568 971.41 475.886C967.267 480.273 952.63 482.231 950.854 482.016C949.077 481.8 929.672 479.533 928.065 475.696L934.738 426.139C934.738 426.139 941.839 414.302 949.238 407.517C957.449 399.988 973.277 396.13 974.943 409.708C975.695 415.843 967.504 425.987 964.242 429.751ZM964.24 429.751C963.252 430.273 962.724 430.823 962.936 431.216C962.936 431.216 963.439 430.676 964.24 429.751Z" stroke="black" stroke-width="3"/>
<path d="M795.076 408.596C753.143 324.28 785.906 295.994 788.789 291.188C788.789 291.188 817.665 285.639 811.03 295.687C804.395 305.734 805.806 347.577 840.204 400.903C874.602 454.229 935.289 425.747 934.723 426.17L928.063 475.712C928.485 476.278 837.115 493.127 795.076 408.596Z" fill="white" stroke="black" stroke-width="3"/>
<path d="M906.259 142.48C912.378 187.004 953.486 218.129 998.078 211.999C1042.67 205.869 1073.66 173.371 1067.54 128.847C1061.42 84.3225 1020.51 44.6326 975.92 50.7624C931.328 56.8922 900.14 97.9553 906.259 142.48Z" fill="white" stroke="black" stroke-width="3"/>
<path d="M945.003 137.154C948.194 160.372 969.631 176.602 992.884 173.406C1016.14 170.209 1032.4 148.796 1029.21 125.578C1026.02 102.36 1004.58 86.1291 981.329 89.3256C958.076 92.5222 941.812 113.935 945.003 137.154Z" fill="#693875" stroke="black" stroke-width="3"/>
<path d="M754.79 173.468C760.909 217.992 804.277 263.777 848.868 257.647C893.46 251.517 924.648 210.454 918.529 165.93C912.41 121.406 871.302 90.2809 826.71 96.4107C782.119 102.541 748.671 128.944 754.79 173.468Z" fill="white" stroke="black" stroke-width="3"/>
<path d="M795.794 182.802C798.984 206.02 820.421 222.251 843.675 219.054C866.928 215.858 883.191 194.444 880.001 171.226C876.81 148.008 855.373 131.777 832.12 134.974C808.867 138.17 792.603 159.584 795.794 182.802Z" fill="#693875" stroke="black" stroke-width="3"/>
<path d="M1067.64 128.788L754.585 171.821L776.336 330.089C778.213 343.747 790.823 353.294 804.502 351.414L1068.02 315.191C1081.7 313.31 1091.27 300.714 1089.39 287.057L1067.64 128.788Z" fill="white" stroke="black" stroke-width="3"/>
<path d="M1068.23 169.021C1066.36 155.364 1053.74 145.816 1040.07 147.696L824.098 177.383C810.42 179.264 800.853 191.86 802.73 205.517L817.14 310.37C819.017 324.028 831.627 333.575 845.306 331.695L1061.27 302.008C1074.95 300.128 1084.52 287.532 1082.64 273.874L1068.23 169.021Z" fill="black" stroke="black" stroke-width="3"/>
<rect width="99.9993" height="99.8471" transform="matrix(-0.990684 0.136179 0.136152 0.990688 1050.81 174.441)" stroke="black" stroke-width="3"/>
<path d="M968.444 236.156C972.198 263.471 997.418 282.566 1024.78 278.805C1052.13 275.045 1071.27 249.853 1067.51 222.538C1063.76 195.222 1038.54 176.128 1011.18 179.888C983.824 183.648 964.69 208.84 968.444 236.156Z" fill="white"/>
<path d="M980.332 234.521C983.185 255.281 1002.35 269.793 1023.14 266.935C1043.94 264.077 1058.48 244.931 1055.62 224.172C1052.77 203.412 1033.6 188.9 1012.81 191.758C992.021 194.616 977.479 213.762 980.332 234.521Z" fill="black"/>
<path d="M945.252 256.29C951.049 259.373 957.397 261.285 963.933 261.914C970.469 262.544 977.064 261.881 983.344 259.962C989.623 258.043 995.463 254.905 1000.53 250.729C1005.6 246.553 1009.79 241.42 1012.87 235.623C1015.96 229.826 1017.87 223.478 1018.5 216.942C1019.13 210.406 1018.47 203.811 1016.55 197.531C1014.63 191.252 1011.49 185.412 1007.31 180.345C1003.14 175.278 998.005 171.083 992.208 168L968.73 212.145L945.252 256.29Z" fill="black"/>
<path d="M1055.99 170C1056.57 176.541 1055.85 183.131 1053.87 189.393C1051.9 195.655 1048.71 201.467 1044.49 206.497C1040.27 211.527 1035.1 215.676 1029.27 218.708C1023.45 221.74 1017.08 223.595 1010.54 224.168C1004 224.74 997.412 224.018 991.15 222.044C984.888 220.069 979.076 216.881 974.046 212.66C969.016 208.439 964.867 203.269 961.835 197.445C958.803 191.621 956.948 185.257 956.375 178.716L1006.19 174.358L1055.99 170Z" fill="black"/>
<rect width="99.9993" height="99.8471" transform="matrix(-0.990684 0.136179 0.136152 0.990688 920.037 192.416)" stroke="black" stroke-width="3"/>
<path d="M848.571 252.632C852.325 279.948 877.546 299.043 904.902 295.282C932.259 291.522 951.393 266.33 947.639 239.015C943.885 211.699 918.665 192.604 891.308 196.365C863.951 200.125 844.817 225.317 848.571 252.632Z" fill="white"/>
<path d="M860.459 250.998C863.312 271.758 882.48 286.27 903.271 283.412C924.062 280.554 938.604 261.408 935.751 240.649C932.898 219.889 913.73 205.377 892.939 208.235C872.148 211.093 857.606 230.239 860.459 250.998Z" fill="black"/>
<path d="M835.476 276.693C841.759 278.6 848.356 279.25 854.891 278.606C861.425 277.963 867.769 276.038 873.56 272.943C879.351 269.848 884.475 265.643 888.641 260.567C892.807 255.492 895.932 249.645 897.838 243.362C899.744 237.079 900.394 230.481 899.75 223.947C899.107 217.412 897.183 211.069 894.087 205.278C890.992 199.487 886.787 194.362 881.711 190.197C876.636 186.031 870.789 182.906 864.506 181L849.991 228.847L835.476 276.693Z" fill="black"/>
<path d="M945.995 183C946.567 189.541 945.846 196.131 943.871 202.393C941.897 208.655 938.708 214.467 934.488 219.497C930.267 224.527 925.097 228.676 919.273 231.708C913.449 234.74 907.084 236.595 900.543 237.168C894.002 237.74 887.412 237.018 881.15 235.044C874.888 233.069 869.076 229.881 864.046 225.66C859.016 221.439 854.867 216.269 851.835 210.445C848.803 204.621 846.948 198.257 846.376 191.716L896.185 187.358L945.995 183Z" fill="black"/>
<path d="M283.434 353.454L257.923 346.282L204.721 649.336L250.721 649.336L283.434 353.454Z" fill="white" stroke="black" stroke-width="3"/>
<path d="M204.721 649.335H250.721C250.721 649.335 267.248 636.787 267.679 626.754C268.119 616.525 265.174 605.72 255.13 603.737C247.573 602.246 240.038 611.863 240.038 611.863C240.038 611.863 233.938 599.533 226.833 599.338C219.65 599.14 212.926 611.384 212.926 611.384C212.926 611.384 207.195 604.656 202.154 604.158C197.893 603.738 194.793 604.55 191.721 607.533C187.915 611.229 188.529 622.775 188.529 622.775C188.529 622.775 189.543 632.391 193.343 638.398C196.475 643.348 204.721 649.335 204.721 649.335Z" fill="#693875" stroke="black" stroke-width="3"/>
<path d="M373.244 357.119L313.244 361.15C313.244 361.15 397.744 384.65 397.744 412.65C397.744 440.65 312.268 514.198 307.244 506.15L342.744 535.15C342.744 535.15 428.244 460.15 428.244 419.15C428.244 378.15 390.43 360.646 373.244 357.119Z" fill="white" stroke="black" stroke-width="3"/>
<path d="M343.014 536.027L306.522 505.561C306.522 505.561 296.655 510.79 289.565 517.9C282.336 525.149 278.342 534.74 284.408 542.968C288.971 549.158 298.371 533.952 298.371 533.952C298.371 533.952 297.89 559.591 302.996 564.521C308.157 569.504 316.19 556.145 316.19 556.145C316.19 556.145 318.091 572.015 321.472 575.778C324.329 578.959 332.088 579.936 332.088 579.936C332.088 579.936 338.907 578.772 343.106 572.071C347.024 565.819 346.697 560.227 345.566 553.142C344.644 547.365 343.014 536.027 343.014 536.027Z" fill="#693875" stroke="black" stroke-width="3"/>
<path d="M157.481 363.376C213.633 284.516 194.787 299.781 194.787 299.781L172.1 252.598C166.201 247.687 103.931 348.521 103.058 392.845C102.184 437.169 150.608 476.744 156.399 475.722L176.615 435.606C176.615 435.606 122.522 412.474 157.481 363.376Z" fill="white" stroke="black" stroke-width="3"/>
<path d="M176.643 435.794L156.417 475.736C156.417 475.736 167.478 484.471 177.252 486.7C188.82 489.339 200.349 485.712 205.531 476.883C210.653 468.157 193.214 468.029 192.72 470.6C194.384 470.998 211.968 461.544 212.157 454.495C212.349 447.314 204.108 445.825 204.108 445.825C204.108 445.825 210.816 441.405 212.89 430.924C214.965 420.443 198.881 421.755 198.881 421.755C198.881 421.755 189.931 425.25 184.948 429.204C180.361 432.843 176.643 435.794 176.643 435.794Z" fill="#693875" stroke="black" stroke-width="3"/>
<path fill-rule="evenodd" clip-rule="evenodd" d="M553.918 383.102C553.918 383.102 554.53 382.69 555.52 381.971C554.439 382.256 553.8 382.671 553.918 383.102Z" fill="#693875"/>
<path d="M527.597 371.784L509.896 418.55C510.594 422.65 528.984 429.245 530.666 429.857C532.348 430.468 547.048 431.869 552.076 428.532C555.879 426.008 559.979 422.386 560.986 418.049C562.331 412.255 555.377 407.92 550.89 408.218C556.422 407.804 570.577 398.516 569.638 389.222C568.869 381.609 559.381 380.954 555.521 381.97L555.52 381.971C554.53 382.69 553.918 383.102 553.918 383.102C553.8 382.671 554.439 382.256 555.52 381.971L555.521 381.97C559.549 379.041 569.822 371.012 570.475 364.865C571.922 351.262 555.631 351.442 545.931 356.921C537.19 361.858 527.597 371.784 527.597 371.784Z" fill="#693875"/>
<path d="M555.521 381.97L555.52 381.971M555.521 381.97C559.381 380.954 568.869 381.609 569.638 389.222C570.577 398.516 556.422 407.804 550.89 408.218C555.377 407.92 562.331 412.255 560.986 418.049C559.979 422.386 555.879 426.008 552.076 428.532C547.048 431.869 532.348 430.468 530.666 429.857C528.984 429.245 510.594 422.65 509.896 418.55L527.597 371.784C527.597 371.784 537.19 361.858 545.931 356.921C555.631 351.442 571.922 351.262 570.475 364.865C569.822 371.012 559.549 379.041 555.521 381.97ZM555.52 381.971C554.439 382.256 553.8 382.671 553.918 383.102C553.918 383.102 554.53 382.69 555.52 381.971Z" stroke="black" stroke-width="3"/>
<path d="M400.552 319.655C378.763 228.043 406.239 217.986 410.134 213.956C410.134 213.956 445.311 208.458 436.577 216.745C427.843 225.033 419.759 266.112 441.214 325.833C462.668 385.554 528.222 371.526 527.576 371.81L509.89 418.565C510.173 419.212 422.397 411.5 400.552 319.655Z" fill="white" stroke="black" stroke-width="3"/>
<path d="M291.208 170.56C293.471 215.445 331.747 249.994 376.701 247.726C421.654 245.458 455.324 215.748 453.061 170.862C450.798 125.977 413.46 82.9122 368.506 85.1803C323.553 87.4484 288.945 125.674 291.208 170.56Z" fill="white" stroke="black" stroke-width="3"/>
<path d="M330.267 168.589C331.447 191.996 351.407 210.012 374.849 208.829C398.291 207.646 416.338 187.713 415.158 164.306C413.978 140.899 394.018 122.883 370.576 124.066C347.134 125.249 329.087 145.183 330.267 168.589Z" fill="#693875" stroke="black" stroke-width="3"/>
<path d="M137.968 189.417C140.231 234.303 178.508 268.851 223.461 266.583C268.415 264.315 302.084 234.605 299.821 189.72C297.558 144.834 260.22 101.77 215.267 104.038C170.313 106.306 135.706 144.532 137.968 189.417Z" fill="white" stroke="black" stroke-width="3"/>
<path d="M176.844 183.909C178.024 207.316 197.984 225.332 221.426 224.149C244.868 222.966 262.915 203.033 261.735 179.626C260.555 156.219 240.595 138.203 217.153 139.386C193.711 140.569 175.664 160.503 176.844 183.909Z" fill="#693875" stroke="black" stroke-width="3"/>
<path d="M453.169 170.813L137.571 186.734L145.616 346.288C146.31 360.056 158.052 370.654 171.841 369.958L437.502 356.556C451.292 355.86 461.908 344.135 461.214 330.366L453.169 170.813Z" fill="white" stroke="black" stroke-width="3"/>
<path d="M450.295 210.948C449.601 197.179 437.859 186.582 424.07 187.277L206.348 198.261C192.558 198.957 181.942 210.682 182.637 224.451L187.966 330.155C188.66 343.924 200.402 354.521 214.191 353.826L431.914 342.842C445.703 342.146 456.319 330.421 455.625 316.652L450.295 210.948Z" fill="black" stroke="black" stroke-width="3"/>
<rect width="99.9993" height="99.8471" transform="matrix(-0.99873 0.0503838 0.0503571 0.998731 432.469 214.847)" stroke="black" stroke-width="3"/>
<path d="M345.098 269.242C346.486 296.779 369.969 317.974 397.548 316.583C425.127 315.192 446.359 291.74 444.97 264.203C443.582 236.666 420.099 215.471 392.52 216.862C364.941 218.254 343.71 241.705 345.098 269.242Z" fill="white"/>
<path d="M357.083 268.637C358.138 289.565 375.985 305.674 396.945 304.616C417.905 303.559 434.041 285.736 432.986 264.808C431.93 243.88 414.083 227.771 393.123 228.829C372.163 229.886 356.027 247.709 357.083 268.637Z" fill="black"/>
<path d="M357.083 268.637C358.138 289.565 375.985 305.674 396.945 304.616C417.905 303.559 434.041 285.736 432.985 264.808C431.93 243.88 414.083 227.772 393.123 228.829C372.163 229.886 356.027 247.709 357.083 268.637Z" fill="black"/>
<path d="M329.12 306.871C335.415 308.739 342.016 309.348 348.546 308.664C355.077 307.98 361.408 306.017 367.18 302.886C372.952 299.755 378.05 295.518 382.184 290.417C386.318 285.316 389.407 279.45 391.275 273.155C393.142 266.86 393.751 260.259 393.067 253.729C392.383 247.198 390.42 240.866 387.289 235.095C384.158 229.323 379.921 224.225 374.82 220.091C369.719 215.956 363.853 212.868 357.558 211L343.339 258.936L329.12 306.871Z" fill="black"/>
<path d="M350.398 202C349.517 208.507 349.926 215.124 351.603 221.472C353.279 227.821 356.189 233.777 360.167 239C364.146 244.224 369.114 248.613 374.788 251.917C380.462 255.221 386.732 257.375 393.239 258.255C399.745 259.136 406.362 258.727 412.711 257.05C419.059 255.374 425.015 252.464 430.239 248.486C435.463 244.508 439.852 239.539 443.156 233.865C446.459 228.191 448.613 221.921 449.494 215.414L399.946 208.707L350.398 202Z" fill="black"/>
<rect width="99.9993" height="99.8471" transform="matrix(-0.99873 0.0503838 0.0503571 0.998731 300.636 221.497)" stroke="black" stroke-width="3"/>
<path d="M224.252 275.337C225.64 302.874 249.123 324.07 276.702 322.678C304.281 321.287 325.512 297.836 324.124 270.299C322.735 242.762 299.253 221.567 271.674 222.958C244.095 224.349 222.863 247.8 224.252 275.337Z" fill="white"/>
<path d="M236.236 274.733C237.291 295.661 255.138 311.769 276.098 310.712C297.058 309.654 313.194 291.832 312.139 270.904C311.084 249.975 293.237 233.867 272.277 234.924C251.317 235.982 235.181 253.805 236.236 274.733Z" fill="black"/>
<path d="M227.398 211C226.517 217.507 226.926 224.123 228.603 230.472C230.279 236.82 233.189 242.776 237.167 248C241.146 253.224 246.114 257.613 251.788 260.917C257.462 264.221 263.732 266.374 270.239 267.255C276.745 268.136 283.362 267.726 289.711 266.05C296.059 264.374 302.015 261.464 307.239 257.485C312.463 253.507 316.852 248.539 320.156 242.865C323.459 237.19 325.613 230.921 326.494 224.414L276.946 217.707L227.398 211Z" fill="black"/>
<path d="M197.12 313.871C203.415 315.738 210.016 316.347 216.546 315.664C223.077 314.98 229.408 313.016 235.18 309.886C240.952 306.755 246.05 302.518 250.184 297.417C254.318 292.315 257.407 286.45 259.275 280.155C261.142 273.86 261.751 267.259 261.067 260.728C260.383 254.198 258.42 247.866 255.289 242.095C252.158 236.323 247.921 231.224 242.82 227.09C237.719 222.956 231.853 219.867 225.558 218L211.339 265.936L197.12 313.871Z" fill="black"/>
</svg>
