<svg width="3250" height="650" viewBox="0 0 3250 650" fill="none" xmlns="http://www.w3.org/2000/svg">
<g clip-path="url(#clip0_230_2)">
<path d="M2951.5 352.996H2925L2951.5 648.996H3000.5L2951.5 352.996Z" fill="white" stroke="black" stroke-width="3" stroke-linecap="round" stroke-linejoin="round"/>
<path d="M3000.89 648.996L2951.39 648.996C2951.39 648.996 2937.74 637.243 2937.21 627.215C2936.67 616.992 2939.5 606.157 2949.53 604.073C2957.07 602.505 2964.7 612.045 2964.7 612.045C2964.7 612.045 2970.68 599.654 2977.78 599.387C2984.96 599.116 2991.81 611.291 2991.81 611.291C2991.81 611.291 2997.47 604.505 3002.5 603.956C3006.76 603.493 3009.87 604.274 3012.97 607.226C3016.81 610.882 3016.32 622.434 3016.32 622.434C3016.32 622.434 3015.4 632.06 3011.66 638.105C3008.58 643.087 3000.89 648.996 3000.89 648.996Z" fill="#693875" stroke="black" stroke-width="3"/>
<path d="M2898.5 352.996H2925L2898.5 648.996H2849.5L2898.5 352.996Z" fill="white" stroke="black" stroke-width="3"/>
<path d="M2898.39 648.996L2849.39 648.996C2849.39 648.996 2835.96 637.704 2835.37 627.679C2834.77 617.459 2837.54 606.608 2847.55 604.464C2855.08 602.852 2862.77 612.347 2862.77 612.347C2862.77 612.347 2868.67 599.921 2875.77 599.612C2882.95 599.3 2889.87 611.435 2889.87 611.435C2889.87 611.435 2895.49 604.615 2900.53 604.037C2904.78 603.548 2907.89 604.311 2911.01 607.245C2914.88 610.879 2914.45 622.433 2914.45 622.433C2914.45 622.433 2913.59 632.065 2909.89 638.131C2906.83 643.131 2898.39 648.996 2898.39 648.996Z" fill="#693875" stroke="black" stroke-width="3"/>
<path d="M2699.71 353.848C2723.07 259.892 2767 235.996 2767 235.996V285.382C2767 285.382 2742.82 324.939 2735.71 394.803C2728.61 464.667 2730.5 498.996 2730.5 498.996L2681.23 492.973C2681.23 492.973 2679.34 435.757 2699.71 353.848Z" fill="white" stroke="black" stroke-width="3"/>
<path d="M2681 492.996L2730.5 498.996C2730.5 498.996 2742.28 511.709 2741.61 521.729C2740.92 531.944 2736.81 542.361 2726.61 543.229C2718.93 543.882 2712.5 533.496 2712.5 533.496C2712.5 533.496 2705.08 545.082 2698 544.496C2690.84 543.904 2685.5 530.996 2685.5 530.996C2685.5 530.996 2679.07 537.055 2674 536.996C2669.72 536.946 2666.73 535.798 2664 532.496C2660.62 528.405 2662.5 516.996 2662.5 516.996C2662.5 516.996 2664.56 507.549 2669 501.996C2672.66 497.419 2681 492.996 2681 492.996Z" fill="#693875" stroke="black" stroke-width="3"/>
<path d="M3150.29 353.848C3126.93 259.892 3083 235.996 3083 235.996V285.382C3083 285.382 3107.18 324.939 3114.29 394.803C3121.39 464.667 3119.5 498.996 3119.5 498.996L3168.77 492.973C3168.77 492.973 3170.66 435.757 3150.29 353.848Z" fill="white" stroke="black" stroke-width="3"/>
<path d="M3169 492.996L3119.5 498.996C3119.5 498.996 3107.72 511.709 3108.39 521.729C3109.08 531.944 3113.19 542.361 3123.39 543.229C3131.07 543.882 3137.5 533.496 3137.5 533.496C3137.5 533.496 3144.92 545.082 3152 544.496C3159.16 543.904 3164.5 530.996 3164.5 530.996C3164.5 530.996 3170.93 537.055 3176 536.996C3180.28 536.946 3183.27 535.798 3186 532.496C3189.38 528.405 3187.5 516.996 3187.5 516.996C3187.5 516.996 3185.44 507.549 3181 501.996C3177.34 497.419 3169 492.996 3169 492.996Z" fill="#693875" stroke="black" stroke-width="3"/>
<circle cx="2848.5" cy="170.496" r="81.5" fill="white" stroke="black" stroke-width="3"/>
<circle cx="2848.39" cy="170.496" r="42.5" fill="#693875" stroke="black" stroke-width="3"/>
<path d="M3082.89 170.496C3086.81 217.369 3048.11 252.806 3001.39 251.996C2956.38 251.996 2919.89 215.507 2919.89 170.496C2919.89 125.485 2956.38 88.9961 3001.39 88.9961C3046.4 88.9961 3082.89 125.485 3082.89 170.496Z" fill="white" stroke="black" stroke-width="3"/>
<circle cx="3001.28" cy="170.496" r="42.5" fill="#693875" stroke="black" stroke-width="3"/>
<path d="M2767 167.996H3083V327.996C3083 341.803 3071.81 352.996 3058 352.996H2792C2778.19 352.996 2767 341.803 2767 327.996V167.996Z" fill="white" stroke="black" stroke-width="3"/>
<rect x="2791" y="182.996" width="268" height="156" rx="25" fill="black" stroke="black" stroke-width="3"/>
<rect x="2809" y="210.996" width="100" height="100" stroke="black" stroke-width="3"/>
<circle cx="2859" cy="260.996" r="50" fill="white"/>
<circle cx="2859" cy="260.996" r="38" fill="black"/>
<path d="M2908.88 208.997C2908.98 215.562 2907.79 222.083 2905.37 228.187C2902.95 234.292 2899.35 239.86 2894.78 244.574C2890.21 249.288 2884.76 253.056 2878.73 255.662C2872.7 258.269 2866.22 259.662 2859.66 259.764C2853.09 259.865 2846.57 258.673 2840.47 256.254C2834.36 253.836 2828.79 250.238 2824.08 245.668C2819.37 241.097 2815.6 235.643 2812.99 229.616C2810.39 223.589 2808.99 217.108 2808.89 210.543L2858.89 209.77L2908.88 208.997Z" fill="black"/>
<rect x="2941" y="210.996" width="100" height="100" stroke="black" stroke-width="3"/>
<circle cx="2991" cy="260.996" r="50" fill="white"/>
<circle cx="2991" cy="260.996" r="38" fill="black"/>
<path d="M3040.88 208.997C3040.98 215.562 3039.79 222.083 3037.37 228.187C3034.95 234.292 3031.35 239.86 3026.78 244.574C3022.21 249.288 3016.76 253.056 3010.73 255.662C3004.7 258.269 2998.22 259.662 2991.66 259.764C2985.09 259.865 2978.57 258.673 2972.47 256.254C2966.36 253.836 2960.79 250.238 2956.08 245.668C2951.37 241.097 2947.6 235.643 2944.99 229.616C2942.39 223.589 2940.99 217.108 2940.89 210.543L2990.89 209.77L3040.88 208.997Z" fill="black"/>
</g>
<g clip-path="url(#clip1_230_2)">
<path d="M2248.5 352.996H2275L2248.5 648.996H2199.5L2248.5 352.996Z" fill="white" stroke="black" stroke-width="3"/>
<path d="M2248.39 648.996L2199.39 648.996C2199.39 648.996 2185.96 637.704 2185.37 627.679C2184.77 617.459 2187.54 606.608 2197.55 604.464C2205.08 602.852 2212.77 612.347 2212.77 612.347C2212.77 612.347 2218.67 599.921 2225.77 599.612C2232.95 599.3 2239.87 611.435 2239.87 611.435C2239.87 611.435 2245.49 604.615 2250.53 604.037C2254.78 603.548 2257.89 604.311 2261.01 607.245C2264.88 610.879 2264.45 622.433 2264.45 622.433C2264.45 622.433 2263.59 632.065 2259.89 638.131C2256.83 643.131 2248.39 648.996 2248.39 648.996Z" fill="#693875" stroke="black" stroke-width="3"/>
<path d="M2301.5 352.996H2275L2301.5 648.996H2350.5L2301.5 352.996Z" fill="white" stroke="black" stroke-width="3" stroke-linecap="round" stroke-linejoin="round"/>
<path d="M2350.89 648.996L2301.39 648.996C2301.39 648.996 2287.74 637.243 2287.21 627.215C2286.67 616.992 2289.5 606.157 2299.53 604.073C2307.07 602.505 2314.7 612.045 2314.7 612.045C2314.7 612.045 2320.68 599.654 2327.78 599.387C2334.96 599.116 2341.81 611.291 2341.81 611.291C2341.81 611.291 2347.47 604.505 2352.5 603.956C2356.76 603.493 2359.87 604.274 2362.97 607.226C2366.81 610.882 2366.32 622.434 2366.32 622.434C2366.32 622.434 2365.4 632.06 2361.66 638.105C2358.58 643.087 2350.89 648.996 2350.89 648.996Z" fill="#693875" stroke="black" stroke-width="3"/>
<path d="M2049.71 353.848C2073.07 259.892 2117 235.996 2117 235.996V285.382C2117 285.382 2092.82 324.939 2085.71 394.803C2078.61 464.667 2080.5 498.996 2080.5 498.996L2031.23 492.973C2031.23 492.973 2029.34 435.757 2049.71 353.848Z" fill="white" stroke="black" stroke-width="3"/>
<path d="M2031 492.996L2080.5 498.996C2080.5 498.996 2092.28 511.709 2091.61 521.729C2090.92 531.944 2086.81 542.361 2076.61 543.229C2068.93 543.882 2062.5 533.496 2062.5 533.496C2062.5 533.496 2055.08 545.082 2048 544.496C2040.84 543.904 2035.5 530.996 2035.5 530.996C2035.5 530.996 2029.07 537.055 2024 536.996C2019.72 536.946 2016.73 535.798 2014 532.496C2010.62 528.405 2012.5 516.996 2012.5 516.996C2012.5 516.996 2014.56 507.549 2019 501.996C2022.66 497.419 2031 492.996 2031 492.996Z" fill="#693875" stroke="black" stroke-width="3"/>
<path d="M2500.29 353.848C2476.93 259.892 2433 235.996 2433 235.996V285.382C2433 285.382 2457.18 324.939 2464.29 394.803C2471.39 464.667 2469.5 498.996 2469.5 498.996L2518.77 492.973C2518.77 492.973 2520.66 435.757 2500.29 353.848Z" fill="white" stroke="black" stroke-width="3"/>
<path d="M2519 492.996L2469.5 498.996C2469.5 498.996 2457.72 511.709 2458.39 521.729C2459.08 531.944 2463.19 542.361 2473.39 543.229C2481.07 543.882 2487.5 533.496 2487.5 533.496C2487.5 533.496 2494.92 545.082 2502 544.496C2509.16 543.904 2514.5 530.996 2514.5 530.996C2514.5 530.996 2520.93 537.055 2526 536.996C2530.28 536.946 2533.27 535.798 2536 532.496C2539.38 528.405 2537.5 516.996 2537.5 516.996C2537.5 516.996 2535.44 507.549 2531 501.996C2527.34 497.419 2519 492.996 2519 492.996Z" fill="#693875" stroke="black" stroke-width="3"/>
<path d="M2280.12 170.496C2280.12 215.507 2243.63 251.996 2198.62 251.996C2151.83 255.76 2113.57 223.024 2117.12 170.496C2117.12 125.485 2153.61 88.9961 2198.62 88.9961C2243.63 88.9961 2280.12 125.485 2280.12 170.496Z" fill="white" stroke="black" stroke-width="3"/>
<circle cx="2198.51" cy="170.496" r="42.5" fill="#693875" stroke="black" stroke-width="3"/>
<circle cx="2351.5" cy="170.496" r="81.5" fill="white" stroke="black" stroke-width="3"/>
<circle cx="2351.39" cy="170.496" r="42.5" fill="#693875" stroke="black" stroke-width="3"/>
<path d="M2117 167.996H2433V327.996C2433 341.803 2421.81 352.996 2408 352.996H2142C2128.19 352.996 2117 341.803 2117 327.996V167.996Z" fill="white" stroke="black" stroke-width="3"/>
<rect x="2141" y="182.996" width="268" height="156" rx="25" fill="black" stroke="black" stroke-width="3"/>
<rect x="2158.89" y="210.996" width="100" height="100" stroke="black" stroke-width="3"/>
<circle cx="2208.89" cy="260.996" r="50" fill="white"/>
<circle cx="2208.89" cy="260.996" r="38" fill="black"/>
<path d="M2189.49 190.996C2195.23 194.188 2200.28 198.478 2204.36 203.622C2208.45 208.766 2211.47 214.664 2213.27 220.978C2215.07 227.292 2215.61 233.9 2214.86 240.423C2214.11 246.945 2212.08 253.256 2208.89 258.995C2205.7 264.733 2201.41 269.787 2196.26 273.867C2191.12 277.948 2185.22 280.975 2178.91 282.776C2172.59 284.577 2165.99 285.117 2159.46 284.365C2152.94 283.612 2146.63 281.583 2140.89 278.392L2165.19 234.694L2189.49 190.996Z" fill="black"/>
<path d="M2276.61 278.829C2270.85 281.968 2264.52 283.94 2257.99 284.633C2251.46 285.326 2244.86 284.726 2238.56 282.868C2232.26 281.01 2226.39 277.929 2221.28 273.802C2216.18 269.675 2211.93 264.583 2208.79 258.815C2205.65 253.048 2203.68 246.719 2202.99 240.19C2202.3 233.66 2202.9 227.058 2204.75 220.761C2206.61 214.463 2209.69 208.593 2213.82 203.486C2217.95 198.379 2223.04 194.135 2228.81 190.996L2252.71 234.913L2276.61 278.829Z" fill="black"/>
<rect x="2290.89" y="210.996" width="100" height="100" stroke="black" stroke-width="3"/>
<circle cx="2340.89" cy="260.996" r="50" fill="white"/>
<circle cx="2340.89" cy="260.996" r="38" fill="black"/>
<path d="M2321.49 190.996C2327.23 194.188 2332.28 198.478 2336.36 203.622C2340.45 208.766 2343.47 214.664 2345.27 220.978C2347.07 227.292 2347.61 233.9 2346.86 240.423C2346.11 246.945 2344.08 253.256 2340.89 258.995C2337.7 264.733 2333.41 269.787 2328.26 273.867C2323.12 277.948 2317.22 280.975 2310.91 282.776C2304.59 284.577 2297.99 285.117 2291.46 284.365C2284.94 283.612 2278.63 281.583 2272.89 278.392L2297.19 234.694L2321.49 190.996Z" fill="black"/>
<path d="M2408.61 278.829C2402.85 281.968 2396.52 283.94 2389.99 284.633C2383.46 285.326 2376.86 284.726 2370.56 282.868C2364.26 281.01 2358.39 277.929 2353.28 273.802C2348.18 269.675 2343.93 264.583 2340.79 258.815C2337.65 253.048 2335.68 246.719 2334.99 240.19C2334.3 233.66 2334.9 227.058 2336.75 220.761C2338.61 214.463 2341.69 208.593 2345.82 203.486C2349.95 198.379 2355.04 194.135 2360.81 190.996L2384.71 234.913L2408.61 278.829Z" fill="black"/>
</g>
<g clip-path="url(#clip2_230_2)">
<path d="M1652.1 352.996H1625.6L1632.1 390.496L1652.1 648.996H1701.1L1660.1 390.496L1652.1 352.996Z" fill="white" stroke="black" stroke-width="3" stroke-linecap="round" stroke-linejoin="round"/>
<path d="M1701.49 648.997L1651.99 648.997C1651.99 648.997 1638.34 637.244 1637.81 627.216C1637.26 616.993 1640.1 606.158 1650.12 604.074C1657.66 602.505 1665.3 612.046 1665.3 612.046C1665.3 612.046 1671.27 599.655 1678.37 599.388C1685.55 599.117 1692.4 611.292 1692.4 611.292C1692.4 611.292 1698.06 604.506 1703.1 603.957C1707.36 603.494 1710.46 604.275 1713.57 607.227C1717.41 610.883 1716.91 622.435 1716.91 622.435C1716.91 622.435 1716 632.061 1712.26 638.106C1709.18 643.088 1701.49 648.997 1701.49 648.997Z" fill="#693875" stroke="black" stroke-width="3"/>
<path d="M1599.21 352.996H1625.71L1619.6 390.496L1599.21 648.996H1550.21L1590.6 390.496L1599.21 352.996Z" fill="white" stroke="black" stroke-width="3"/>
<path d="M1599.1 648.996L1550.1 648.996C1550.1 648.996 1536.67 637.704 1536.08 627.679C1535.47 617.459 1538.25 606.608 1548.26 604.464C1555.79 602.852 1563.48 612.347 1563.48 612.347C1563.48 612.347 1569.38 599.921 1576.48 599.612C1583.66 599.3 1590.58 611.435 1590.58 611.435C1590.58 611.435 1596.2 604.615 1601.23 604.037C1605.49 603.548 1608.6 604.311 1611.72 607.245C1615.58 610.879 1615.15 622.433 1615.15 622.433C1615.15 622.433 1614.29 632.065 1610.59 638.131C1607.54 643.131 1599.1 648.996 1599.1 648.996Z" fill="#693875" stroke="black" stroke-width="3"/>
<path d="M1849.65 382.396C1835.29 272.422 1786.79 257.247 1782.36 264.544V313.93C1786.84 296.975 1811.41 335.057 1813.65 423.351C1815.88 511.645 1801.25 520.044 1801.25 520.044L1849.65 523.544C1849.65 523.544 1860.57 466.09 1849.65 382.396Z" fill="white" stroke="black" stroke-width="3"/>
<path d="M1850.13 523.198L1801.25 520.044C1801.25 520.044 1790.09 531.568 1785.3 540.395C1779.79 550.545 1776.64 560.821 1791.25 563.544C1798.82 564.955 1808.25 556.544 1808.25 556.544C1808.25 556.544 1809.68 570.328 1816.75 571.044C1823.9 571.768 1838.78 559.74 1838.78 559.74C1838.78 559.74 1840.26 568.178 1845.25 569.044C1849.47 569.776 1841.42 567.12 1845.25 569.044C1857.09 574.997 1860.07 556.52 1860.75 546.545C1861.88 530.044 1850.44 522.479 1850.13 523.198Z" fill="#693875"/>
<path d="M1845.25 569.044C1857.09 574.997 1860.07 556.52 1860.75 546.545C1861.88 530.044 1850.44 522.479 1850.13 523.198L1801.25 520.044C1801.25 520.044 1790.09 531.568 1785.3 540.395C1779.79 550.545 1776.64 560.821 1791.25 563.544C1798.82 564.955 1808.25 556.544 1808.25 556.544C1808.25 556.544 1809.68 570.328 1816.75 571.044C1823.9 571.768 1838.78 559.74 1838.78 559.74C1838.78 559.74 1840.26 568.178 1845.25 569.044ZM1845.25 569.044C1849.47 569.776 1841.42 567.12 1845.25 569.044Z" stroke="black" stroke-width="3"/>
<path d="M1400.35 380.444C1410.44 270.363 1457.2 261.36 1467.64 262.592V311.978C1463.16 295.023 1438.59 333.105 1436.35 421.399C1434.12 509.693 1448.75 518.092 1448.75 518.092L1400.35 521.592C1400.35 521.592 1392.65 464.496 1400.35 380.444Z" fill="white" stroke="black" stroke-width="3"/>
<path d="M1399.87 521.246L1448.75 518.092C1448.75 518.092 1459.91 529.616 1464.7 538.443C1470.21 548.593 1473.36 558.869 1458.75 561.592C1451.18 563.003 1441.75 554.592 1441.75 554.592C1441.75 554.592 1440.32 568.376 1433.25 569.092C1426.1 569.815 1411.22 557.788 1411.22 557.788C1411.22 557.788 1409.74 566.225 1404.75 567.091C1400.53 567.824 1408.58 565.168 1404.75 567.091C1392.91 573.045 1389.93 554.568 1389.25 544.592C1388.13 528.092 1399.56 520.527 1399.87 521.246Z" fill="#693875"/>
<path d="M1404.75 567.091C1392.91 573.045 1389.93 554.568 1389.25 544.592C1388.13 528.092 1399.56 520.527 1399.87 521.246L1448.75 518.092C1448.75 518.092 1459.91 529.616 1464.7 538.443C1470.21 548.593 1473.36 558.869 1458.75 561.592C1451.18 563.003 1441.75 554.592 1441.75 554.592C1441.75 554.592 1440.32 568.376 1433.25 569.092C1426.1 569.815 1411.22 557.788 1411.22 557.788C1411.22 557.788 1409.74 566.225 1404.75 567.091ZM1404.75 567.091C1400.53 567.824 1408.58 565.168 1404.75 567.091Z" stroke="black" stroke-width="3"/>
<path d="M1632.1 225.448C1632.1 270.459 1590.42 306.948 1547.02 306.948C1503.62 306.948 1469.6 270.459 1469.6 225.448C1459.06 167.258 1498.48 142.536 1553.52 143.948C1596.92 143.948 1632.1 180.436 1632.1 225.448Z" fill="white" stroke="black" stroke-width="3"/>
<ellipse cx="1546.91" cy="225.447" rx="40.9766" ry="42.5" fill="#693875" stroke="black" stroke-width="3"/>
<path d="M1783.6 211.564C1779.5 256.389 1747.11 307.064 1702.1 307.064C1657.09 307.064 1620.6 270.576 1620.6 225.564C1620.6 180.553 1664.1 145.064 1702.1 144.064C1703.46 140.316 1790.29 138.302 1783.6 211.564Z" fill="white" stroke="black" stroke-width="3"/>
<circle cx="1701.1" cy="224.495" r="42.5" fill="#693875" stroke="black" stroke-width="3"/>
<path d="M1467.71 195.996H1783.71V355.996C1783.71 369.803 1772.51 380.996 1758.71 380.996H1492.71C1478.9 380.996 1467.71 369.803 1467.71 355.996V195.996Z" fill="white" stroke="black" stroke-width="3"/>
<rect x="1491.71" y="210.996" width="268" height="156" rx="25" fill="black" stroke="black" stroke-width="3"/>
<rect x="1509.71" y="238.996" width="100" height="100" stroke="black" stroke-width="3"/>
<rect x="1641.71" y="238.996" width="100" height="100" stroke="black" stroke-width="3"/>
</g>
<g clip-path="url(#clip3_230_2)">
<path d="M1000.92 352.996H974.422L980.922 390.496L1000.92 648.996H1049.92L1008.92 390.496L1000.92 352.996Z" fill="white" stroke="black" stroke-width="3" stroke-linecap="round" stroke-linejoin="round"/>
<path d="M1050.31 648.997L1000.81 648.997C1000.81 648.997 987.166 637.244 986.633 627.216C986.09 616.993 988.925 606.158 998.948 604.074C1006.49 602.505 1014.12 612.046 1014.12 612.046C1014.12 612.046 1020.1 599.655 1027.2 599.388C1034.38 599.117 1041.23 611.292 1041.23 611.292C1041.23 611.292 1046.89 604.506 1051.93 603.957C1056.18 603.494 1059.29 604.275 1062.39 607.227C1066.24 610.883 1065.74 622.435 1065.74 622.435C1065.74 622.435 1064.82 632.061 1061.08 638.106C1058 643.088 1050.31 648.997 1050.31 648.997Z" fill="#693875" stroke="black" stroke-width="3"/>
<path d="M948.031 352.996H974.531L968.422 390.496L948.031 648.996H899.031L939.422 390.496L948.031 352.996Z" fill="white" stroke="black" stroke-width="3"/>
<path d="M947.922 648.996L898.922 648.996C898.922 648.996 885.494 637.704 884.903 627.679C884.299 617.459 887.071 606.608 897.082 604.464C904.613 602.852 912.302 612.347 912.302 612.347C912.302 612.347 918.204 599.921 925.305 599.612C932.483 599.3 939.402 611.435 939.402 611.435C939.402 611.435 945.025 604.615 950.057 604.037C954.312 603.548 957.424 604.311 960.543 607.245C964.407 610.879 963.979 622.433 963.979 622.433C963.979 622.433 963.119 632.065 959.416 638.131C956.364 643.131 947.922 648.996 947.922 648.996Z" fill="#693875" stroke="black" stroke-width="3"/>
<path d="M1199.82 381.848C1185.47 271.875 1136.96 256.699 1132.53 263.996V313.382C1137.02 296.427 1161.59 334.509 1163.82 422.803C1166.05 511.097 1151.42 519.496 1151.42 519.496L1199.82 522.996C1199.82 522.996 1210.75 465.542 1199.82 381.848Z" fill="white" stroke="black" stroke-width="3"/>
<path d="M1200.31 522.65L1151.42 519.496C1151.42 519.496 1140.26 531.02 1135.48 539.847C1129.97 549.997 1126.81 560.273 1141.42 562.996C1148.99 564.407 1158.42 555.996 1158.42 555.996C1158.42 555.996 1159.85 569.78 1166.92 570.496C1174.07 571.22 1188.95 559.192 1188.95 559.192C1188.95 559.192 1190.43 567.63 1195.42 568.496C1199.64 569.228 1191.6 566.572 1195.42 568.496C1207.26 574.449 1210.24 555.972 1210.92 545.997C1212.05 529.496 1200.61 521.931 1200.31 522.65Z" fill="#693875"/>
<path d="M1195.42 568.496C1207.26 574.449 1210.24 555.972 1210.92 545.997C1212.05 529.496 1200.61 521.931 1200.31 522.65L1151.42 519.496C1151.42 519.496 1140.26 531.02 1135.48 539.847C1129.97 549.997 1126.81 560.273 1141.42 562.996C1148.99 564.407 1158.42 555.996 1158.42 555.996C1158.42 555.996 1159.85 569.78 1166.92 570.496C1174.07 571.22 1188.95 559.192 1188.95 559.192C1188.95 559.192 1190.43 567.63 1195.42 568.496ZM1195.42 568.496C1199.64 569.228 1191.6 566.572 1195.42 568.496Z" stroke="black" stroke-width="3"/>
<path d="M750.177 381.945C760.264 271.864 807.024 262.861 817.469 264.093V313.479C812.984 296.524 788.412 334.606 786.18 422.9C783.948 511.194 798.578 519.593 798.578 519.593L750.177 523.093C750.177 523.093 742.475 465.997 750.177 381.945Z" fill="white" stroke="black" stroke-width="3"/>
<path d="M749.691 522.747L798.578 519.593C798.578 519.593 809.735 531.117 814.524 539.944C820.031 550.094 823.187 560.37 808.578 563.093C801.006 564.504 791.578 556.093 791.578 556.093C791.578 556.093 790.149 569.877 783.078 570.593C775.929 571.316 761.047 559.289 761.047 559.289C761.047 559.289 759.569 567.726 754.578 568.592C750.358 569.325 758.404 566.669 754.578 568.592C742.736 574.546 739.76 556.069 739.078 546.093C737.95 529.593 749.386 522.028 749.691 522.747Z" fill="#693875"/>
<path d="M754.578 568.592C742.736 574.546 739.76 556.069 739.078 546.093C737.95 529.593 749.386 522.028 749.691 522.747L798.578 519.593C798.578 519.593 809.735 531.117 814.524 539.944C820.031 550.094 823.187 560.37 808.578 563.093C801.006 564.504 791.578 556.093 791.578 556.093C791.578 556.093 790.149 569.877 783.078 570.593C775.929 571.316 761.047 559.289 761.047 559.289C761.047 559.289 759.569 567.726 754.578 568.592ZM754.578 568.592C750.358 569.325 758.404 566.669 754.578 568.592Z" stroke="black" stroke-width="3"/>
<path d="M979.422 207.496C979.422 252.507 942.933 288.996 897.922 288.996C852.91 288.996 816.422 252.507 816.422 207.496C813.336 163.505 851.319 126.522 897.922 125.996C942.933 125.996 979.422 162.485 979.422 207.496Z" fill="white" stroke="black" stroke-width="3"/>
<circle cx="897.813" cy="207.496" r="42.5" fill="#693875" stroke="black" stroke-width="3"/>
<path d="M1132.42 200.496C1132.74 245.507 1095.93 295.997 1050.92 295.997C1005.91 295.997 969.422 259.508 969.422 214.497C969.422 169.485 1012.92 133.996 1050.92 132.997C1050.54 132.111 1131.98 138.971 1132.42 200.496Z" fill="white" stroke="black" stroke-width="3"/>
<circle cx="1050.81" cy="214.496" r="42.5" fill="#693875" stroke="black" stroke-width="3"/>
<path d="M816.531 195.996H1132.53V355.996C1132.53 369.803 1121.34 380.996 1107.53 380.996H841.531C827.723 380.996 816.531 369.803 816.531 355.996V195.996Z" fill="white" stroke="black" stroke-width="3"/>
<rect x="840.531" y="210.996" width="268" height="156" rx="25" fill="black" stroke="black" stroke-width="3"/>
<rect x="858.531" y="238.996" width="100" height="100" stroke="black" stroke-width="3"/>
<circle cx="908.531" cy="288.996" r="50" fill="white"/>
<circle cx="908.531" cy="288.996" r="38" fill="black"/>
<path d="M981.27 301.407C975.859 305.126 969.768 307.743 963.346 309.109C956.923 310.474 950.294 310.561 943.838 309.365C937.382 308.168 931.225 305.712 925.718 302.136C920.211 298.56 915.462 293.934 911.743 288.523C908.024 283.112 905.407 277.021 904.042 270.599C902.676 264.176 902.589 257.547 903.786 251.091C904.982 244.635 907.438 238.478 911.014 232.971C914.59 227.464 919.216 222.715 924.627 218.996L952.949 260.202L981.27 301.407Z" fill="black"/>
<path d="M889.023 218.996C894.761 222.188 899.815 226.478 903.895 231.622C907.976 236.766 911.003 242.664 912.804 248.978C914.605 255.292 915.145 261.9 914.393 268.423C913.641 274.945 911.611 281.256 908.42 286.995C905.229 292.733 900.938 297.787 895.794 301.867C890.65 305.948 884.752 308.975 878.438 310.776C872.124 312.577 865.517 313.117 858.994 312.365C852.471 311.612 846.16 309.583 840.422 306.392L864.722 262.694L889.023 218.996Z" fill="black"/>
<rect x="990.531" y="238.996" width="100" height="100" stroke="black" stroke-width="3"/>
<circle cx="1040.53" cy="288.996" r="50" fill="white"/>
<circle cx="1040.53" cy="288.996" r="38" fill="black"/>
<path d="M1108.14 306.829C1102.38 309.968 1096.05 311.94 1089.52 312.633C1082.99 313.326 1076.39 312.726 1070.09 310.868C1063.79 309.01 1057.92 305.929 1052.81 301.802C1047.71 297.675 1043.46 292.583 1040.32 286.815C1037.19 281.048 1035.21 274.719 1034.52 268.19C1033.83 261.66 1034.43 255.058 1036.29 248.761C1038.14 242.463 1041.22 236.593 1045.35 231.486C1049.48 226.379 1054.57 222.135 1060.34 218.996L1084.24 262.913L1108.14 306.829Z" fill="black"/>
<path d="M1021.02 218.996C1026.76 222.188 1031.82 226.478 1035.9 231.622C1039.98 236.766 1043 242.664 1044.8 248.978C1046.61 255.292 1047.15 261.9 1046.39 268.423C1045.64 274.945 1043.61 281.256 1040.42 286.995C1037.23 292.733 1032.94 297.787 1027.79 301.867C1022.65 305.948 1016.75 308.975 1010.44 310.776C1004.12 312.577 997.517 313.117 990.994 312.365C984.471 311.612 978.16 309.583 972.422 306.392L996.722 262.694L1021.02 218.996Z" fill="black"/>
</g>
<g clip-path="url(#clip4_230_2)">
<path d="M351.5 352.996H325L351.5 648.996H400.5L351.5 352.996Z" fill="white" stroke="black" stroke-width="3" stroke-linecap="round" stroke-linejoin="round"/>
<path d="M400.891 648.996L351.391 648.996C351.391 648.996 337.744 637.243 337.211 627.215C336.668 616.992 339.503 606.157 349.527 604.073C357.068 602.505 364.7 612.045 364.7 612.045C364.7 612.045 370.675 599.654 377.778 599.387C384.958 599.116 391.805 611.291 391.805 611.291C391.805 611.291 397.468 604.505 402.504 603.956C406.761 603.493 409.868 604.274 412.971 607.226C416.813 610.882 416.317 622.434 416.317 622.434C416.317 622.434 415.401 632.06 411.662 638.105C408.58 643.087 400.891 648.996 400.891 648.996Z" fill="#693875" stroke="black" stroke-width="3"/>
<path d="M298.5 352.996H325L298.5 648.996H249.5L298.5 352.996Z" fill="white" stroke="black" stroke-width="3"/>
<path d="M298.391 648.996L249.391 648.996C249.391 648.996 235.964 637.704 235.372 627.679C234.769 617.459 237.54 606.608 247.551 604.464C255.083 602.852 262.771 612.347 262.771 612.347C262.771 612.347 268.673 599.921 275.774 599.612C282.952 599.3 289.872 611.435 289.872 611.435C289.872 611.435 295.494 604.615 300.526 604.037C304.781 603.548 307.893 604.311 311.013 607.245C314.877 610.879 314.449 622.433 314.449 622.433C314.449 622.433 313.588 632.065 309.885 638.131C306.833 643.131 298.391 648.996 298.391 648.996Z" fill="#693875" stroke="black" stroke-width="3"/>
<circle cx="248.5" cy="170.496" r="81.5" fill="white" stroke="black" stroke-width="3"/>
<circle cx="248.391" cy="170.496" r="42.5" fill="#693875" stroke="black" stroke-width="3"/>
<circle cx="401.5" cy="170.496" r="81.5" fill="white" stroke="black" stroke-width="3"/>
<circle cx="401.391" cy="170.496" r="42.5" fill="#693875" stroke="black" stroke-width="3"/>
<path d="M167 167.996H483V327.996C483 341.803 471.807 352.996 458 352.996H192C178.193 352.996 167 341.803 167 327.996V167.996Z" fill="white" stroke="black" stroke-width="3"/>
<rect x="191" y="182.996" width="268" height="156" rx="25" fill="black" stroke="black" stroke-width="3"/>
<rect x="209" y="210.996" width="100" height="100" stroke="black" stroke-width="3"/>
<circle cx="259" cy="260.996" r="50" fill="white"/>
<circle cx="259" cy="260.996" r="38" fill="black"/>
<path d="M308.879 208.996C308.981 215.561 307.788 222.082 305.369 228.186C302.951 234.291 299.354 239.859 294.783 244.573C290.212 249.287 284.758 253.055 278.731 255.661C272.705 258.268 266.224 259.661 259.658 259.763C253.093 259.864 246.572 258.672 240.468 256.253C234.363 253.835 228.795 250.237 224.081 245.667C219.367 241.096 215.599 235.642 212.993 229.615C210.386 223.588 208.993 217.107 208.891 210.542L258.885 209.769L308.879 208.996Z" fill="black"/>
<rect x="341" y="210.996" width="100" height="100" stroke="black" stroke-width="3"/>
<circle cx="391" cy="260.996" r="50" fill="white"/>
<circle cx="391" cy="260.996" r="38" fill="black"/>
<path d="M440.879 208.996C440.981 215.561 439.788 222.082 437.369 228.186C434.951 234.291 431.354 239.859 426.783 244.573C422.212 249.287 416.758 253.055 410.731 255.661C404.705 258.268 398.224 259.661 391.658 259.763C385.093 259.864 378.572 258.672 372.468 256.253C366.363 253.835 360.795 250.237 356.081 245.667C351.367 241.096 347.599 235.642 344.993 229.615C342.386 223.588 340.993 217.107 340.891 210.542L390.885 209.769L440.879 208.996Z" fill="black"/>
<path d="M99.7081 353.848C123.074 259.892 167 235.996 167 235.996V285.382C167 285.382 142.817 324.939 135.711 394.803C128.605 464.667 130.5 498.996 130.5 498.996L81.2329 492.973C81.2329 492.973 79.338 435.757 99.7081 353.848Z" fill="white" stroke="black" stroke-width="3"/>
<path d="M81.0001 492.996L130.5 498.996C130.5 498.996 142.282 511.709 141.609 521.729C140.923 531.944 136.81 542.361 126.609 543.229C118.935 543.882 112.5 533.496 112.5 533.496C112.5 533.496 105.084 545.082 98.0001 544.496C90.8396 543.904 85.5001 530.996 85.5001 530.996C85.5001 530.996 79.0653 537.055 74.0001 536.996C69.718 536.946 66.7263 535.798 64.0001 532.496C60.6233 528.405 62.5001 516.996 62.5001 516.996C62.5001 516.996 64.5638 507.549 69.0001 501.996C72.6564 497.419 81.0001 492.996 81.0001 492.996Z" fill="#693875" stroke="black" stroke-width="3"/>
<path d="M550.292 353.848C526.926 259.892 483 235.996 483 235.996V285.382C483 285.382 507.183 324.939 514.289 394.803C521.395 464.667 519.5 498.996 519.5 498.996L568.767 492.973C568.767 492.973 570.662 435.757 550.292 353.848Z" fill="white" stroke="black" stroke-width="3"/>
<path d="M569 492.996L519.5 498.996C519.5 498.996 507.718 511.709 508.391 521.729C509.077 531.944 513.19 542.361 523.391 543.229C531.065 543.882 537.5 533.496 537.5 533.496C537.5 533.496 544.916 545.082 552 544.496C559.16 543.904 564.5 530.996 564.5 530.996C564.5 530.996 570.935 537.055 576 536.996C580.282 536.946 583.274 535.798 586 532.496C589.377 528.405 587.5 516.996 587.5 516.996C587.5 516.996 585.436 507.549 581 501.996C577.344 497.419 569 492.996 569 492.996Z" fill="#693875" stroke="black" stroke-width="3"/>
</g>
<defs>
<clipPath id="clip0_230_2">
<rect width="650" height="650" fill="white" transform="translate(2600)"/>
</clipPath>
<clipPath id="clip1_230_2">
<rect width="650" height="650" fill="white" transform="translate(1950)"/>
</clipPath>
<clipPath id="clip2_230_2">
<rect width="650" height="650" fill="white" transform="translate(1300)"/>
</clipPath>
<clipPath id="clip3_230_2">
<rect width="650" height="650" fill="white" transform="translate(650)"/>
</clipPath>
<clipPath id="clip4_230_2">
<rect width="650" height="650" fill="white"/>
</clipPath>
</defs>
</svg>
