<svg width="5200" height="657" viewBox="0 0 5200 657" fill="none" xmlns="http://www.w3.org/2000/svg">
<path d="M4917.48 403L4882.98 399C4876.88 388.448 4890.16 445.546 4836.48 480C4782.8 514.454 4696.51 477.228 4697.98 480.5C4697.98 480.5 4698.99 531.634 4698.98 536.5C4698.97 541.366 4832.92 536.508 4859.48 508.5C4886.04 480.492 4911.48 452.5 4917.48 403Z" fill="white" stroke="black" stroke-width="3"/>
<path d="M4697.98 480.5L4698.84 537.21C4698.84 537.21 4709.29 541.148 4719.31 541.759C4729.53 542.381 4739.36 539.03 4741.52 529.038C4743.14 521.52 4725.52 524.534 4725.52 524.534C4725.52 524.534 4745.06 507.93 4745.38 500.839C4745.7 493.672 4730.36 496.489 4730.36 496.489C4730.36 496.489 4741.01 484.562 4741.59 479.538C4742.08 475.291 4737.68 468.827 4737.68 468.827C4737.68 468.827 4732.3 464.485 4724.5 465.77C4717.21 466.97 4712.74 467.626 4707.48 472.5C4703.3 476.366 4697.59 479.942 4697.98 480.5Z" fill="#693875" stroke="black" stroke-width="3"/>
<path d="M4850.48 393L4801.98 390C4804.3 389.439 4830.09 403.308 4838.98 439C4845.64 525.225 4839.57 574.423 4835.62 652.714L4884.62 652.714C4879.37 569.869 4880.51 472.886 4873.62 442.714C4866.72 412.542 4850.48 393 4850.48 393Z" fill="white" stroke="black" stroke-width="3"/>
<path d="M4835.62 652.714L4884.62 652.714C4884.62 652.714 4898.14 640.166 4898.57 630.133C4899.01 619.904 4896.07 609.099 4886.02 607.116C4878.47 605.624 4870.93 615.242 4870.93 615.242C4870.93 615.242 4864.83 602.912 4857.73 602.717C4850.54 602.519 4843.82 614.763 4843.82 614.763C4843.82 614.763 4838.09 608.035 4833.05 607.537C4828.79 607.117 4825.69 607.929 4822.62 610.912C4818.81 614.608 4819.42 626.154 4819.42 626.154C4819.42 626.154 4820.44 635.77 4824.24 641.777C4827.37 646.727 4835.62 652.714 4835.62 652.714Z" fill="#693875" stroke="black" stroke-width="3"/>
<path d="M5006.75 338.306C4932.09 399.943 4904 398 4904 398L4916.18 360.497C4916.18 360.497 5011.1 288.021 5047.65 281.08C5084.2 274.139 5117.35 318.503 5117.35 318.503L5081.16 345.127C5081.16 345.127 5067.55 288.115 5006.75 338.306Z" fill="white" stroke="black" stroke-width="3"/>
<path d="M5081.35 345.122L5117.36 318.519C5117.36 318.519 5127.82 327.968 5131.65 337.233C5136.18 348.2 5134.53 360.172 5126.68 366.754C5118.93 373.259 5115.9 356.085 5118.35 355.17C5119.02 356.745 5112.63 375.659 5105.72 377.021C5098.67 378.408 5095.82 370.53 5095.82 370.53C5095.82 370.53 5092.58 377.881 5082.6 381.674C5072.61 385.467 5071.22 369.39 5071.22 369.39C5071.22 369.39 5073.17 359.983 5076.24 354.41C5079.06 349.28 5081.35 345.122 5081.35 345.122Z" fill="#693875" stroke="black" stroke-width="3"/>
<path fill-rule="evenodd" clip-rule="evenodd" d="M4654.08 459.31C4654.08 459.31 4654.69 459.718 4655.74 460.357C4655.06 459.468 4654.43 459.037 4654.08 459.31Z" fill="#693875"/>
<path d="M4654.47 430.662L4604.49 432.187C4600.97 434.4 4601.91 453.915 4601.99 455.703C4602.06 457.491 4606.39 471.609 4611.4 474.979C4615.18 477.529 4620.1 479.931 4624.49 479.204C4630.36 478.231 4631.7 470.148 4629.71 466.116C4632.21 471.069 4646.2 480.597 4654.43 476.176C4661.17 472.554 4658.15 463.536 4655.74 460.359L4655.74 460.357C4654.69 459.718 4654.08 459.31 4654.08 459.31C4654.43 459.037 4655.06 459.468 4655.74 460.357L4655.74 460.359C4659.98 462.961 4671.33 469.382 4677.26 467.636C4690.38 463.771 4683.99 448.787 4675.21 441.919C4667.31 435.73 4654.47 430.662 4654.47 430.662Z" fill="#693875"/>
<path d="M4655.74 460.359L4655.74 460.357M4655.74 460.359C4658.15 463.536 4661.17 472.554 4654.43 476.176C4646.2 480.597 4632.21 471.069 4629.71 466.116C4631.7 470.148 4630.36 478.231 4624.49 479.204C4620.1 479.931 4615.18 477.529 4611.4 474.979C4606.39 471.609 4602.06 457.491 4601.99 455.703C4601.91 453.915 4600.97 434.4 4604.49 432.187L4654.47 430.662C4654.47 430.662 4667.31 435.73 4675.21 441.919C4683.99 448.787 4690.38 463.771 4677.26 467.636C4671.33 469.382 4659.98 462.961 4655.74 460.359ZM4655.74 460.357C4655.06 459.468 4654.43 459.037 4654.08 459.31C4654.08 459.31 4654.69 459.718 4655.74 460.357Z" stroke="black" stroke-width="3"/>
<path d="M4654.06 293.339C4730.38 238.175 4750.18 259.717 4755.39 261.775C4755.39 261.775 4767.58 266.652 4767.72 276.186C4767.85 285.72 4710.09 298.023 4663.9 333.272C4617.71 368.522 4665.99 440.688 4654.44 430.652L4604.47 432.188C4603.99 432.697 4577.55 348.643 4654.06 293.339Z" fill="white" stroke="black" stroke-width="3"/>
<path d="M4869.53 204.268C4864.23 248.898 4896.18 289.373 4940.88 294.672C4985.57 299.97 5023.75 276.324 5029.04 231.694C5034.33 187.064 5004.74 138.351 4960.04 133.052C4915.34 127.754 4874.82 159.638 4869.53 204.268Z" fill="white" stroke="black" stroke-width="3"/>
<path d="M4908.36 208.872C4905.6 232.145 4922.26 253.252 4945.57 256.015C4968.88 258.778 4990.01 242.151 4992.77 218.878C4995.53 195.605 4978.87 174.498 4955.56 171.735C4932.25 168.972 4911.12 185.599 4908.36 208.872Z" fill="#693875" stroke="black" stroke-width="3"/>
<path d="M4715.13 196.109C4709.84 240.739 4740.28 295.971 4784.98 301.269C4829.68 306.568 4870.2 274.683 4875.49 230.053C4880.79 185.423 4848.84 144.948 4804.14 139.65C4759.45 134.351 4720.43 151.479 4715.13 196.109Z" fill="white" stroke="black" stroke-width="3"/>
<path d="M4752.47 215.469C4749.71 238.743 4766.36 259.849 4789.67 262.612C4812.98 265.375 4834.11 248.748 4836.87 225.475C4839.63 202.202 4822.98 181.095 4799.67 178.332C4776.36 175.569 4755.23 192.196 4752.47 215.469Z" fill="#693875" stroke="black" stroke-width="3"/>
<path d="M5029.15 231.664L4715.35 194.463L4696.54 353.108C4694.92 366.798 4704.72 379.214 4718.43 380.839L4982.58 412.153C4996.29 413.779 5008.72 403.998 5010.34 390.308L5029.15 231.664Z" fill="white" stroke="black" stroke-width="3"/>
<path d="M5019.59 270.749C5021.22 257.059 5011.42 244.643 4997.71 243.018L4781.22 217.354C4767.51 215.729 4755.08 225.509 4753.46 239.199L4740.99 344.301C4739.37 357.991 4749.17 370.407 4762.88 372.033L4979.36 397.696C4993.08 399.322 5005.51 389.541 5007.13 375.851L5019.59 270.749Z" fill="black" stroke="black" stroke-width="3"/>
<rect width="99.9993" height="99.8471" transform="matrix(-0.993046 -0.117723 -0.11775 0.993043 5001.37 271.605)" stroke="black" stroke-width="3"/>
<rect width="99.9993" height="99.8471" transform="matrix(-0.993046 -0.117723 -0.11775 0.993043 4870.28 256.065)" stroke="black" stroke-width="3"/>
<path d="M4169.64 568.74L4142.56 524.5C4142.56 524.5 4121.8 526.569 4113.55 532.3C4105.14 538.142 4098.33 547.027 4102.83 556.222C4106.21 563.139 4118.43 563.315 4118.43 563.315C4118.43 563.315 4112.31 575.635 4116.46 581.408C4120.65 587.244 4134.46 585.184 4134.46 585.184C4134.46 585.184 4132.58 593.819 4135.23 598.132C4137.48 601.779 4140 603.754 4144.24 604.393C4149.48 605.185 4158.3 597.707 4158.3 597.707C4158.3 597.707 4165.34 591.078 4167.82 584.418C4169.86 578.928 4169.64 568.74 4169.64 568.74Z" fill="#693875" stroke="black" stroke-width="3"/>
<path d="M4307.52 357.821L4281.3 347.499C4281.3 347.499 4276.4 442.616 4243.06 475.999C4209.72 509.383 4142.56 523.999 4142.56 523.999L4169.74 568.842C4169.74 568.842 4266.27 511.769 4281.3 488.609C4296.33 465.449 4309.13 408.669 4307.52 357.821Z" fill="white" stroke="black" stroke-width="3"/>
<path d="M4247.69 341.058L4223.55 348.617L4307.14 644.732L4355.56 652.349L4247.69 341.058Z" fill="white" stroke="black" stroke-width="3"/>
<path d="M4307.06 645L4355.56 653C4355.56 653 4361.32 642.27 4363.55 632.479C4365.82 622.496 4364.1 612.249 4354.59 608.504C4347.43 605.686 4347.55 623.562 4347.55 623.562C4347.55 623.562 4334.33 601.589 4327.39 600.127C4320.37 598.65 4320.66 614.235 4320.66 614.235C4320.66 614.235 4310.62 601.802 4305.76 600.412C4301.64 599.237 4294.55 602.533 4294.55 602.533C4294.55 602.533 4289.4 607.143 4289.4 615.05C4289.41 622.429 4292.65 626.992 4297.38 632.392C4301.23 636.795 4307.06 645 4307.06 645Z" fill="#693875" stroke="black" stroke-width="3"/>
<path fill-rule="evenodd" clip-rule="evenodd" d="M4003.02 335.811C4003.02 335.811 4003.2 336.528 4003.53 337.707C4003.63 336.595 4003.47 335.851 4003.02 335.811Z" fill="#693875"/>
<path d="M4022.8 315.083L3985.13 282.197C3981.05 281.423 3968.46 296.364 3967.3 297.727C3966.14 299.09 3959.7 312.382 3961.08 318.257C3962.12 322.702 3964.09 327.806 3967.8 330.261C3972.76 333.541 3979.25 328.533 3980.53 324.223C3979 329.553 3982.77 346.056 3991.81 348.414C3999.21 350.346 4003.13 341.68 4003.53 337.708L4003.53 337.707C4003.2 336.528 4003.02 335.811 4003.02 335.811C4003.47 335.851 4003.63 336.595 4003.53 337.707L4003.53 337.708C4004.87 342.504 4008.82 354.931 4014.35 357.685C4026.6 363.781 4032.1 348.447 4030.35 337.446C4028.76 327.533 4022.8 315.083 4022.8 315.083Z" fill="#693875"/>
<path d="M4003.53 337.708L4003.53 337.707M4003.53 337.708C4003.13 341.68 3999.21 350.346 3991.81 348.414C3982.77 346.056 3979 329.553 3980.53 324.223C3979.25 328.533 3972.76 333.541 3967.8 330.261C3964.09 327.806 3962.12 322.702 3961.08 318.257C3959.7 312.382 3966.14 299.09 3967.3 297.727C3968.46 296.364 3981.05 281.423 3985.13 282.197L4022.8 315.083C4022.8 315.083 4028.76 327.533 4030.35 337.446C4032.1 348.447 4026.6 363.781 4014.35 357.685C4008.82 354.931 4004.87 342.504 4003.53 337.708ZM4003.53 337.707C4003.63 336.595 4003.47 335.851 4003.02 335.811C4003.02 335.811 4003.2 336.528 4003.53 337.707Z" stroke="black" stroke-width="3"/>
<path d="M4115.93 214.158C4209.39 225.651 4209.24 254.909 4211.66 259.964C4211.66 259.964 4204.56 294.853 4199.84 283.779C4195.11 272.704 4159.42 250.815 4095.97 250.12C4032.52 249.424 4022.83 315.758 4022.78 315.053L3985.12 282.186C3984.42 282.227 4022.22 202.636 4115.93 214.158Z" fill="white" stroke="black" stroke-width="3"/>
<path fill-rule="evenodd" clip-rule="evenodd" d="M4505.88 291.419C4505.88 291.419 4506.12 290.722 4506.49 289.554C4505.79 290.429 4505.53 291.144 4505.88 291.419Z" fill="#693875"/>
<path d="M4478.02 298.112L4491.84 346.168C4494.86 349.034 4513.54 343.305 4515.25 342.789C4516.96 342.272 4529.57 334.592 4531.6 328.909C4533.14 324.61 4534.25 319.255 4532.46 315.179C4530.07 309.732 4521.91 310.423 4518.49 313.348C4522.68 309.705 4528.45 293.791 4522.14 286.908C4516.96 281.272 4508.97 286.427 4506.49 289.552L4506.49 289.554C4506.12 290.722 4505.88 291.419 4505.88 291.419C4505.53 291.144 4505.79 290.429 4506.49 289.554L4506.49 289.552C4507.96 284.794 4511.38 272.213 4508.22 266.899C4501.24 255.136 4488.3 265.035 4483.81 275.231C4479.76 284.418 4478.02 298.112 4478.02 298.112Z" fill="#693875"/>
<path d="M4506.49 289.552L4506.49 289.554M4506.49 289.552C4508.97 286.427 4516.96 281.272 4522.14 286.908C4528.45 293.791 4522.68 309.705 4518.49 313.348C4521.91 310.423 4530.07 309.732 4532.46 315.179C4534.25 319.255 4533.14 324.61 4531.6 328.909C4529.57 334.592 4516.96 342.272 4515.25 342.789C4513.54 343.305 4494.86 349.034 4491.84 346.168L4478.02 298.112C4478.02 298.112 4479.76 284.418 4483.81 275.231C4488.3 265.035 4501.24 255.136 4508.22 266.899C4511.38 272.213 4507.96 284.794 4506.49 289.552ZM4506.49 289.554C4505.79 290.429 4505.53 291.144 4505.88 291.419C4505.88 291.419 4506.12 290.722 4506.49 289.554Z" stroke="black" stroke-width="3"/>
<path d="M4345.05 332.423C4272.75 272.091 4288.74 247.586 4289.44 242.026C4289.44 242.026 4314.33 216.56 4312.29 228.428C4310.26 240.295 4328.38 278.038 4381.32 313.026C4434.26 348.015 4478.37 297.531 4478.02 298.146L4491.85 346.183C4492.46 346.532 4417.54 392.909 4345.05 332.423Z" fill="white" stroke="black" stroke-width="3"/>
<path d="M4117.2 148.49C4112.09 193.142 4144.2 233.485 4188.92 238.6C4233.64 243.715 4271.72 219.913 4276.83 175.262C4281.94 130.61 4252.14 82.0188 4207.43 76.9037C4162.71 71.7885 4122.31 103.839 4117.2 148.49Z" fill="white" stroke="black" stroke-width="3"/>
<path d="M4156.06 152.935C4153.39 176.219 4170.14 197.257 4193.46 199.925C4216.78 202.592 4237.84 185.879 4240.51 162.594C4243.17 139.31 4226.43 118.272 4203.11 115.604C4179.79 112.937 4158.72 129.65 4156.06 152.935Z" fill="#693875" stroke="black" stroke-width="3"/>
<path d="M4270.81 170.115C4265.7 214.766 4296.37 269.872 4341.09 274.987C4385.81 280.102 4422.95 249.151 4428.06 204.5C4438.56 158 4404.31 118.406 4359.59 113.29C4314.87 108.175 4275.92 125.463 4270.81 170.115Z" fill="white" stroke="black" stroke-width="3"/>
<path d="M4308.22 189.321C4305.56 212.606 4322.3 233.644 4345.62 236.311C4368.94 238.979 4390.01 222.265 4392.67 198.981C4395.34 175.697 4378.59 154.658 4355.27 151.991C4331.95 149.324 4310.89 166.037 4308.22 189.321Z" fill="#693875" stroke="black" stroke-width="3"/>
<path d="M4429.72 192.351L4115.77 156.438L4097.61 315.158C4096.05 328.855 4105.9 341.23 4119.61 342.799L4383.89 373.03C4397.61 374.599 4410 364.768 4411.56 351.071L4429.72 192.351Z" fill="white" stroke="black" stroke-width="3"/>
<path d="M4420.33 231.475C4421.89 217.778 4412.04 205.403 4398.32 203.834L4181.74 179.058C4168.02 177.489 4155.63 187.321 4154.06 201.017L4142.03 306.17C4140.46 319.866 4150.31 332.242 4164.03 333.811L4380.62 358.586C4394.34 360.155 4406.73 350.324 4408.29 336.627L4420.33 231.475Z" fill="black" stroke="black" stroke-width="3"/>
<rect width="99.9993" height="99.8471" transform="matrix(-0.993521 -0.113649 -0.113676 0.993518 4402.1 232.406)" stroke="black" stroke-width="3"/>
<path d="M4307.01 271.778C4303.88 299.171 4323.58 323.922 4351.01 327.06C4378.45 330.198 4403.23 310.536 4406.36 283.142C4409.5 255.749 4389.8 230.998 4362.36 227.86C4334.93 224.722 4310.14 244.384 4307.01 271.778Z" fill="white"/>
<path d="M4318.93 273.141C4316.55 293.96 4331.52 312.771 4352.37 315.156C4373.22 317.541 4392.06 302.598 4394.44 281.779C4396.82 260.96 4381.85 242.149 4361 239.764C4340.15 237.379 4321.31 252.323 4318.93 273.141Z" fill="black"/>
<path d="M4402.2 332.525C4402.78 325.984 4402.05 319.394 4400.08 313.132C4398.11 306.87 4394.92 301.058 4390.7 296.028C4386.48 290.998 4381.31 286.849 4375.48 283.817C4369.66 280.785 4363.29 278.93 4356.75 278.358C4350.21 277.785 4343.62 278.507 4337.36 280.482C4331.1 282.456 4325.28 285.645 4320.25 289.865C4315.22 294.086 4311.08 299.256 4308.04 305.08C4305.01 310.904 4303.16 317.268 4302.58 323.81L4352.39 328.167L4402.2 332.525Z" fill="black"/>
<path d="M4402.53 320.662C4396.02 319.807 4389.74 317.677 4384.06 314.396C4378.37 311.114 4373.38 306.744 4369.38 301.536C4365.39 296.327 4362.45 290.382 4360.75 284.04C4359.05 277.698 4358.62 271.084 4359.47 264.573C4360.33 258.063 4362.46 251.786 4365.74 246.098C4369.02 240.411 4373.39 235.426 4378.6 231.428C4383.81 227.43 4389.75 224.496 4396.09 222.795C4402.44 221.095 4409.05 220.66 4415.56 221.515L4409.05 271.089L4402.53 320.662Z" fill="black"/>
<path d="M4406.56 227.78C4405.13 234.189 4402.45 240.253 4398.68 245.626C4394.91 250.999 4390.11 255.577 4384.57 259.097C4379.02 262.617 4372.84 265.011 4366.38 266.143C4359.91 267.274 4353.28 267.12 4346.87 265.69C4340.46 264.26 4334.4 261.581 4329.03 257.807C4323.65 254.034 4319.07 249.239 4315.55 243.696C4312.03 238.153 4309.64 231.971 4308.51 225.504C4307.38 219.036 4307.53 212.408 4308.96 206L4357.76 216.89L4406.56 227.78Z" fill="black"/>
<rect width="99.9993" height="99.8471" transform="matrix(-0.993521 -0.113649 -0.113676 0.993518 4270.96 217.404)" stroke="black" stroke-width="3"/>
<path d="M4186.79 258.025C4183.66 285.419 4203.36 310.169 4230.79 313.308C4258.23 316.446 4283.01 296.783 4286.15 269.39C4289.28 241.997 4269.58 217.246 4242.14 214.108C4214.71 210.97 4189.93 230.632 4186.79 258.025Z" fill="white"/>
<path d="M4198.72 259.389C4196.33 280.208 4211.31 299.018 4232.16 301.404C4253.01 303.789 4271.84 288.845 4274.22 268.026C4276.61 247.207 4261.63 228.397 4240.78 226.012C4219.93 223.627 4201.1 238.57 4198.72 259.389Z" fill="black"/>
<path d="M4281.2 319.525C4281.78 312.984 4281.05 306.394 4279.08 300.132C4277.11 293.87 4273.92 288.058 4269.7 283.028C4265.48 277.998 4260.31 273.849 4254.48 270.817C4248.66 267.785 4242.29 265.93 4235.75 265.358C4229.21 264.785 4222.62 265.507 4216.36 267.482C4210.1 269.456 4204.28 272.645 4199.25 276.865C4194.22 281.086 4190.08 286.256 4187.04 292.08C4184.01 297.904 4182.16 304.268 4181.58 310.81L4231.39 315.167L4281.2 319.525Z" fill="black"/>
<path d="M4292.56 221.781C4291.13 228.189 4288.45 234.253 4284.68 239.626C4280.91 245 4276.11 249.577 4270.57 253.097C4265.02 256.618 4258.84 259.012 4252.38 260.143C4245.91 261.274 4239.28 261.12 4232.87 259.69C4226.46 258.26 4220.4 255.581 4215.03 251.808C4209.65 248.034 4205.07 243.239 4201.55 237.696C4198.03 232.154 4195.64 225.972 4194.51 219.504C4193.38 213.036 4193.53 206.408 4194.96 200L4243.76 210.89L4292.56 221.781Z" fill="black"/>
<path d="M4290.56 316.91C4284 317.188 4277.45 316.172 4271.28 313.919C4265.12 311.666 4259.45 308.22 4254.62 303.778C4249.78 299.336 4245.87 293.985 4243.1 288.031C4240.33 282.077 4238.76 275.635 4238.49 269.075C4238.21 262.515 4239.22 255.964 4241.48 249.797C4243.73 243.63 4247.18 237.966 4251.62 233.131C4256.06 228.295 4261.41 224.382 4267.36 221.614C4273.32 218.846 4279.76 217.278 4286.32 217L4288.44 266.955L4290.56 316.91Z" fill="black"/>
<path d="M3652.72 328.245L3627.92 323.238L3558.53 623L3597.3 653L3652.72 328.245Z" fill="white" stroke="black" stroke-width="3"/>
<path d="M3559.18 624.667L3597.3 653C3597.3 653 3618.27 648.648 3624.16 640.514C3630.16 632.22 3633.66 621.58 3626.37 614.391C3620.88 608.983 3609.29 612.856 3609.29 612.856C3609.29 612.856 3611 599.206 3605.18 595.128C3599.29 591.006 3586.93 597.518 3586.93 597.518C3586.93 597.518 3585.86 588.745 3581.93 585.553C3578.6 582.853 3575.57 581.823 3571.36 582.62C3566.15 583.607 3560.3 593.58 3560.3 593.58C3560.3 593.58 3555.85 602.164 3555.71 609.27C3555.59 615.127 3559.18 624.667 3559.18 624.667Z" fill="#693875" stroke="black" stroke-width="3"/>
<path d="M3599.89 335.35L3540.46 344.532C3540.46 344.532 3676.25 383.946 3692.3 412.5C3708.35 441.054 3681.3 520 3681.3 520L3726.8 520C3726.8 520 3740.05 450.255 3726.8 408C3713.54 365.745 3617.32 337.384 3599.89 335.35Z" fill="white" stroke="black" stroke-width="3"/>
<path d="M3726.8 520L3681.3 520C3681.3 520 3676.97 530.648 3676.19 540.659C3675.4 550.865 3678.59 560.754 3688.54 563.076C3696.03 564.823 3693.31 547.155 3693.31 547.155C3693.31 547.155 3709.59 566.971 3716.67 567.407C3723.83 567.848 3721.27 552.471 3721.27 552.471C3721.27 552.471 3733.02 563.31 3738.03 563.978C3742.27 564.543 3748.81 560.251 3748.81 560.251C3748.81 560.251 3753.24 554.939 3752.09 547.117C3751.01 539.817 3747.13 535.775 3741.67 531.12C3737.22 527.323 3726.8 520 3726.8 520Z" fill="#693875" stroke="black" stroke-width="3"/>
<path d="M3799.26 407.628L3813.78 359.927C3813.78 359.927 3825.75 354.001 3835.66 352.339C3845.34 350.714 3859.11 355.008 3858.19 365.204C3857.5 372.875 3840.49 379.318 3840.49 379.318C3840.49 379.318 3855.82 385.08 3854.01 391.954C3852.18 398.902 3832.66 407.778 3832.66 407.778C3832.66 407.778 3844.54 410.21 3843.6 415.187C3842.81 419.396 3842.12 421.527 3838.4 423.638C3833.78 426.251 3822.11 426.486 3822.11 426.486C3822.11 426.486 3810.73 426.346 3806.04 421.011C3802.17 416.614 3799.26 407.628 3799.26 407.628Z" fill="#693875" stroke="black" stroke-width="3"/>
<path d="M3698.01 299.132C3658.38 210.795 3636.46 189.014 3636.46 189.014L3684.19 203.597C3677.07 206.412 3714.49 237.155 3750.95 303.429C3787.41 369.703 3818.52 359.476 3813.38 361.065L3799.07 407.56C3792.67 416.788 3737.32 386.747 3698.01 299.132Z" fill="white" stroke="black" stroke-width="3"/>
<path d="M3417.71 257.612C3514.28 264.531 3542.68 280.069 3542.68 280.069L3498.57 304.058C3498.57 304.058 3379.86 291.004 3348.62 270.803C3317.38 250.601 3324.01 195.619 3324.01 195.619L3368.57 201.324C3368.57 201.324 3339.07 251.978 3417.71 257.612Z" fill="white" stroke="black" stroke-width="3"/>
<path d="M3368.43 201.196L3324.01 195.596C3324.01 195.596 3322.96 181.542 3326.58 172.195C3330.87 161.132 3340.33 153.608 3350.55 154.256C3360.65 154.897 3350.99 169.42 3348.58 168.389C3349.18 166.787 3366.86 157.509 3372.81 161.298C3378.87 165.159 3375.49 172.822 3375.49 172.822C3375.49 172.822 3382.9 169.738 3392.75 173.886C3402.6 178.034 3392.51 190.627 3392.51 190.627C3392.51 190.627 3384.6 196.087 3378.53 198.003C3372.95 199.766 3368.43 201.196 3368.43 201.196Z" fill="#693875" stroke="black" stroke-width="3"/>
<path d="M3429.09 177.63C3435.21 222.154 3476.32 253.279 3520.91 247.149C3565.5 241.02 3596.49 208.522 3590.37 163.997C3584.25 119.473 3543.34 79.7832 3498.75 85.913C3454.16 92.0428 3422.97 133.106 3429.09 177.63Z" fill="white" stroke="black" stroke-width="3"/>
<path d="M3467.84 172.304C3471.03 195.522 3492.46 211.753 3515.72 208.557C3538.97 205.36 3555.23 183.947 3552.04 160.729C3548.85 137.51 3527.42 121.28 3504.16 124.476C3480.91 127.673 3464.65 149.086 3467.84 172.304Z" fill="#693875" stroke="black" stroke-width="3"/>
<path d="M3579.77 142.645C3585.89 187.169 3626.99 218.294 3671.59 212.164C3716.18 206.034 3747.16 173.536 3741.04 129.012C3734.93 84.488 3694.02 44.7981 3649.43 50.9279C3604.84 57.0577 3573.65 98.1208 3579.77 142.645Z" fill="white" stroke="black" stroke-width="3"/>
<path d="M3618.51 137.319C3621.7 160.537 3643.14 176.768 3666.39 173.571C3689.64 170.375 3705.91 148.962 3702.72 125.744C3699.53 102.525 3678.09 86.2947 3654.84 89.4912C3631.58 92.6877 3615.32 114.101 3618.51 137.319Z" fill="#693875" stroke="black" stroke-width="3"/>
<path d="M3741.15 128.954L3428.09 171.986L3449.84 330.255C3451.72 343.912 3464.33 353.46 3478.01 351.58L3741.53 315.356C3755.21 313.476 3764.78 300.88 3762.9 287.222L3741.15 128.954Z" fill="white" stroke="black" stroke-width="3"/>
<path d="M3741.74 169.187C3739.86 155.529 3727.25 145.982 3713.57 147.862L3497.61 177.549C3483.93 179.429 3474.36 192.025 3476.24 205.683L3490.65 310.536C3492.53 324.193 3505.14 333.741 3518.81 331.861L3734.78 302.174C3748.46 300.293 3758.03 287.697 3756.15 274.04L3741.74 169.187Z" fill="black" stroke="black" stroke-width="3"/>
<rect width="99.9993" height="99.8471" transform="matrix(-0.990684 0.136179 0.136152 0.990688 3724.32 174.606)" stroke="black" stroke-width="3"/>
<path d="M3641.95 236.321C3645.71 263.636 3670.93 282.731 3698.28 278.971C3725.64 275.21 3744.77 250.019 3741.02 222.703C3737.27 195.388 3712.05 176.293 3684.69 180.054C3657.33 183.814 3638.2 209.006 3641.95 236.321Z" fill="white"/>
<path d="M3653.84 234.687C3656.69 255.446 3675.86 269.959 3696.65 267.101C3717.44 264.243 3731.99 245.097 3729.13 224.337C3726.28 203.578 3707.11 189.066 3686.32 191.924C3665.53 194.781 3650.99 213.927 3653.84 234.687Z" fill="black"/>
<path d="M3750.3 274.24C3749.16 267.774 3746.76 261.596 3743.23 256.058C3739.7 250.52 3735.12 245.731 3729.74 241.965C3724.36 238.199 3718.29 235.529 3711.88 234.108C3705.47 232.687 3698.84 232.542 3692.38 233.682C3685.91 234.823 3679.73 237.225 3674.19 240.753C3668.66 244.281 3663.87 248.865 3660.1 254.244C3656.34 259.623 3653.67 265.69 3652.24 272.101C3650.82 278.511 3650.68 285.139 3651.82 291.605L3701.06 282.923L3750.3 274.24Z" fill="black"/>
<path d="M3750.06 253.339C3743.74 255.1 3737.13 255.599 3730.61 254.805C3724.09 254.012 3717.79 251.943 3712.07 248.716C3706.36 245.488 3701.33 241.166 3697.28 235.997C3693.23 230.827 3690.24 224.91 3688.48 218.585C3686.72 212.259 3686.22 205.649 3687.02 199.131C3687.81 192.613 3689.88 186.315 3693.11 180.597C3696.33 174.878 3700.65 169.852 3705.82 165.804C3710.99 161.756 3716.91 158.766 3723.24 157.004L3736.65 205.172L3750.06 253.339Z" fill="black"/>
<rect width="99.9993" height="99.8471" transform="matrix(-0.990684 0.136179 0.136152 0.990688 3593.55 192.581)" stroke="black" stroke-width="3"/>
<path d="M3522.08 252.798C3525.83 280.113 3551.05 299.208 3578.41 295.448C3605.77 291.687 3624.9 266.495 3621.15 239.18C3617.39 211.865 3592.17 192.77 3564.82 196.53C3537.46 200.291 3518.33 225.483 3522.08 252.798Z" fill="white"/>
<path d="M3533.97 251.164C3536.82 271.924 3555.99 286.436 3576.78 283.578C3597.57 280.72 3612.11 261.574 3609.26 240.814C3606.41 220.055 3587.24 205.543 3566.45 208.401C3545.66 211.259 3531.11 230.404 3533.97 251.164Z" fill="black"/>
<path d="M3632.3 287.24C3631.16 280.774 3628.76 274.596 3625.23 269.058C3621.7 263.52 3617.12 258.731 3611.74 254.965C3606.36 251.199 3600.29 248.529 3593.88 247.108C3587.47 245.687 3580.84 245.542 3574.38 246.682C3567.91 247.823 3561.73 250.225 3556.19 253.753C3550.66 257.281 3545.87 261.865 3542.1 267.244C3538.34 272.623 3535.67 278.69 3534.24 285.101C3532.82 291.511 3532.68 298.139 3533.82 304.605L3583.06 295.923L3632.3 287.24Z" fill="black"/>
<path d="M3627.3 271.429C3620.84 272.588 3614.21 272.463 3607.79 271.061C3601.38 269.659 3595.3 267.007 3589.91 263.257C3584.52 259.506 3579.93 254.731 3576.38 249.204C3572.84 243.677 3570.42 237.505 3569.26 231.042C3568.1 224.579 3568.22 217.951 3569.63 211.537C3571.03 205.122 3573.68 199.047 3577.43 193.657C3581.18 188.267 3585.96 183.669 3591.48 180.125C3597.01 176.58 3603.18 174.159 3609.64 173L3618.47 222.215L3627.3 271.429Z" fill="black"/>
<path d="M2994.3 357.118L2968.78 349.947L2915.58 653L2961.58 653L2994.3 357.118Z" fill="white" stroke="black" stroke-width="3"/>
<path d="M2915.58 653H2961.58C2961.58 653 2978.11 640.451 2978.54 630.418C2978.98 620.19 2976.03 609.384 2965.99 607.402C2958.43 605.91 2950.9 615.527 2950.9 615.527C2950.9 615.527 2944.8 603.198 2937.69 603.002C2930.51 602.805 2923.79 615.049 2923.79 615.049C2923.79 615.049 2918.06 608.32 2913.02 607.823C2908.75 607.402 2905.65 608.215 2902.58 611.198C2898.78 614.893 2899.39 626.44 2899.39 626.44C2899.39 626.44 2900.4 636.056 2904.2 642.062C2907.34 647.013 2915.58 653 2915.58 653Z" fill="#693875" stroke="black" stroke-width="3"/>
<path d="M2943.58 364.969L2883.58 369C2883.58 369 2968.08 392.5 2968.08 420.5C2968.08 448.5 2882.61 522.048 2877.58 514L2913.08 543C2913.08 543 2998.58 468 2998.58 427C2998.58 386 2960.77 368.496 2943.58 364.969Z" fill="white" stroke="black" stroke-width="3"/>
<path d="M2913.35 543.877L2876.86 513.411C2876.86 513.411 2866.99 518.639 2859.9 525.75C2852.68 532.999 2848.68 542.59 2854.75 550.818C2859.31 557.008 2868.71 541.802 2868.71 541.802C2868.71 541.802 2868.23 567.441 2873.33 572.371C2878.5 577.354 2886.53 563.995 2886.53 563.995C2886.53 563.995 2888.43 579.865 2891.81 583.628C2894.67 586.808 2902.43 587.786 2902.43 587.786C2902.43 587.786 2909.25 586.621 2913.44 579.921C2917.36 573.669 2917.04 568.077 2915.9 560.992C2914.98 555.215 2913.35 543.877 2913.35 543.877Z" fill="#693875" stroke="black" stroke-width="3"/>
<path fill-rule="evenodd" clip-rule="evenodd" d="M2666.66 246.305C2666.66 246.305 2666.71 245.569 2666.84 244.352C2667.13 245.43 2667.09 246.192 2666.66 246.305Z" fill="#693875"/>
<path d="M2689.61 263.456L2657.93 302.147C2654.03 303.59 2639.13 290.95 2637.76 289.799C2636.39 288.647 2627.84 276.611 2628.22 270.588C2628.51 266.032 2629.6 260.672 2632.85 257.634C2637.2 253.575 2644.43 257.434 2646.41 261.471C2644.01 256.471 2644.98 239.57 2653.5 235.741C2660.48 232.606 2665.79 240.499 2666.84 244.351L2666.84 244.352C2666.71 245.569 2666.66 246.305 2666.66 246.305C2667.09 246.192 2667.13 245.43 2666.84 244.352L2666.84 244.351C2667.36 239.398 2669.19 226.488 2674.19 222.852C2685.25 214.805 2693.23 229.01 2693.33 240.15C2693.42 250.188 2689.61 263.456 2689.61 263.456Z" fill="#693875"/>
<path d="M2666.84 244.351L2666.84 244.352M2666.84 244.351C2665.79 240.499 2660.48 232.606 2653.5 235.741C2644.98 239.57 2644.01 256.471 2646.41 261.471C2644.43 257.434 2637.2 253.575 2632.85 257.634C2629.6 260.672 2628.51 266.032 2628.22 270.588C2627.84 276.611 2636.39 288.647 2637.76 289.799C2639.13 290.95 2654.03 303.59 2657.93 302.147L2689.61 263.456C2689.61 263.456 2693.42 250.188 2693.33 240.15C2693.23 229.01 2685.25 214.805 2674.19 222.852C2669.19 226.488 2667.36 239.398 2666.84 244.351ZM2666.84 244.352C2667.13 245.43 2667.09 246.192 2666.66 246.305C2666.66 246.305 2666.71 245.569 2666.84 244.352Z" stroke="black" stroke-width="3"/>
<path d="M2798.22 347.491C2888.47 320.618 2883.46 291.791 2885.01 286.404C2885.01 286.404 2876.02 251.782 2873.2 263.488C2870.38 275.194 2838.83 302.712 2776.37 313.949C2713.92 325.186 2689.52 262.785 2689.6 263.488L2657.92 302.159C2657.22 302.237 2707.74 374.433 2798.22 347.491Z" fill="white" stroke="black" stroke-width="3"/>
<path fill-rule="evenodd" clip-rule="evenodd" d="M3123.38 505.459C3123.38 505.459 3122.81 505.925 3121.83 506.663C3122.42 505.712 3123 505.222 3123.38 505.459Z" fill="#693875"/>
<path d="M3120.19 476.986L3170.08 473.623C3173.8 475.481 3174.78 494.994 3174.87 496.781C3174.97 498.568 3172.04 513.042 3167.39 516.885C3163.87 519.792 3159.21 522.663 3154.77 522.367C3148.84 521.973 3146.71 514.06 3148.29 509.853C3146.29 515.026 3133.3 525.876 3124.67 522.279C3117.61 519.333 3119.74 510.063 3121.83 506.665L3121.83 506.663C3122.81 505.925 3123.38 505.459 3123.38 505.459C3123 505.222 3122.42 505.712 3121.83 506.663L3121.83 506.665C3117.86 509.669 3107.19 517.168 3101.12 516.01C3087.69 513.445 3092.59 497.908 3100.65 490.216C3107.91 483.285 3120.19 476.986 3120.19 476.986Z" fill="#693875"/>
<path d="M3121.83 506.665L3121.83 506.663M3121.83 506.665C3119.74 510.063 3117.61 519.333 3124.67 522.279C3133.3 525.876 3146.29 515.026 3148.29 509.853C3146.71 514.06 3148.84 521.973 3154.77 522.367C3159.21 522.663 3163.87 519.792 3167.39 516.885C3172.04 513.042 3174.97 498.568 3174.87 496.781C3174.78 494.994 3173.8 475.481 3170.08 473.623L3120.19 476.986C3120.19 476.986 3107.91 483.285 3100.65 490.216C3092.59 497.908 3087.69 513.445 3101.12 516.01C3107.19 517.168 3117.86 509.669 3121.83 506.665ZM3121.83 506.663C3122.42 505.712 3123 505.222 3123.38 505.459C3123.38 505.459 3122.81 505.925 3121.83 506.663Z" stroke="black" stroke-width="3"/>
<path d="M3107.19 340.279C3025.85 292.834 3008.25 316.207 3003.26 318.764C3003.26 318.764 2987.79 350.831 2998.25 344.879C3008.72 338.927 3050.37 343.116 3101.3 380.983C3152.22 418.851 3119.76 477.51 3120.22 476.973L3170.1 473.622C3170.63 474.081 3188.74 387.846 3107.19 340.279Z" fill="white" stroke="black" stroke-width="3"/>
<path d="M2931.35 173.333C2933.61 218.219 2971.89 252.767 3016.84 250.499C3061.8 248.231 3095.46 218.521 3093.2 173.636C3090.94 128.75 3053.6 85.6856 3008.65 87.9537C2963.69 90.2218 2929.09 128.447 2931.35 173.333Z" fill="white" stroke="black" stroke-width="3"/>
<path d="M2970.41 171.363C2971.59 194.769 2991.55 212.785 3014.99 211.602C3038.43 210.42 3056.48 190.486 3055.3 167.079C3054.12 143.673 3034.16 125.657 3010.72 126.84C2987.27 128.022 2969.23 147.956 2970.41 171.363Z" fill="#693875" stroke="black" stroke-width="3"/>
<path d="M2777.77 191.167C2780.04 236.053 2819.3 285.401 2864.26 283.133C2909.21 280.864 2943.82 242.639 2941.55 197.753C2939.29 152.867 2901.02 118.319 2856.06 120.587C2811.11 122.855 2775.51 146.281 2777.77 191.167Z" fill="white" stroke="black" stroke-width="3"/>
<path d="M2817.82 203.996C2819 227.403 2838.96 245.419 2862.4 244.236C2885.85 243.053 2903.89 223.119 2902.71 199.713C2901.53 176.306 2881.57 158.29 2858.13 159.473C2834.69 160.656 2816.64 180.589 2817.82 203.996Z" fill="#693875" stroke="black" stroke-width="3"/>
<path d="M3093.31 173.586L2777.71 189.508L2785.76 349.061C2786.45 362.83 2798.19 373.427 2811.98 372.732L3077.64 359.33C3091.43 358.634 3102.05 346.908 3101.35 333.14L3093.31 173.586Z" fill="white" stroke="black" stroke-width="3"/>
<path d="M3090.44 213.721C3089.74 199.953 3078 189.355 3064.21 190.051L2846.49 201.034C2832.7 201.73 2822.08 213.456 2822.78 227.224L2828.11 332.928C2828.8 346.697 2840.54 357.295 2854.33 356.599L3072.05 345.615C3085.84 344.92 3096.46 333.194 3095.77 319.426L3090.44 213.721Z" fill="black" stroke="black" stroke-width="3"/>
<rect width="99.9993" height="99.8471" transform="matrix(-0.99873 0.0503838 0.0503571 0.998731 3072.61 217.621)" stroke="black" stroke-width="3"/>
<path d="M2985.24 272.015C2986.63 299.552 3010.11 320.748 3037.69 319.356C3065.27 317.965 3086.5 294.514 3085.11 266.977C3083.72 239.44 3060.24 218.245 3032.66 219.636C3005.08 221.027 2983.85 244.478 2985.24 272.015Z" fill="white"/>
<path d="M2997.22 271.411C2998.28 292.339 3016.13 308.447 3037.09 307.39C3058.05 306.332 3074.18 288.51 3073.13 267.581C3072.07 246.653 3054.22 230.545 3033.26 231.602C3012.3 232.66 2996.17 250.482 2997.22 271.411Z" fill="black"/>
<path d="M3087.58 321.81C3087.01 315.269 3085.16 308.904 3082.12 303.08C3079.09 297.256 3074.94 292.086 3069.91 287.865C3064.88 283.645 3059.07 280.456 3052.81 278.482C3046.55 276.507 3039.96 275.786 3033.41 276.358C3026.87 276.93 3020.51 278.785 3014.69 281.817C3008.86 284.849 3003.69 288.998 2999.47 294.028C2995.25 299.058 2992.06 304.87 2990.09 311.132C2988.11 317.395 2987.39 323.984 2987.96 330.525L3037.77 326.168L3087.58 321.81Z" fill="black"/>
<path d="M3088.58 316.996C3082.02 317.055 3075.5 315.82 3069.41 313.362C3063.33 310.904 3057.78 307.271 3053.1 302.67C3048.41 298.069 3044.68 292.59 3042.11 286.547C3039.55 280.503 3038.19 274.013 3038.13 267.447C3038.08 260.882 3039.31 254.368 3041.77 248.28C3044.23 242.191 3047.86 236.646 3052.46 231.962C3057.06 227.277 3062.54 223.545 3068.58 220.978C3074.63 218.411 3081.12 217.059 3087.68 217L3088.13 266.998L3088.58 316.996Z" fill="black"/>
<rect width="99.9993" height="99.8471" transform="matrix(-0.99873 0.0503838 0.0503571 0.998731 2940.78 224.27)" stroke="black" stroke-width="3"/>
<path d="M2864.39 278.111C2865.78 305.648 2889.26 326.843 2916.84 325.452C2944.42 324.06 2965.65 300.609 2964.26 273.072C2962.88 245.535 2939.39 224.34 2911.81 225.731C2884.24 227.123 2863 250.574 2864.39 278.111Z" fill="white"/>
<path d="M2876.38 277.506C2877.43 298.434 2895.28 314.543 2916.24 313.485C2937.2 312.428 2953.34 294.605 2952.28 273.677C2951.22 252.749 2933.38 236.64 2912.42 237.698C2891.46 238.755 2875.32 256.578 2876.38 277.506Z" fill="black"/>
<path d="M2970.58 322.81C2970.01 316.269 2968.16 309.904 2965.12 304.08C2962.09 298.256 2957.94 293.086 2952.91 288.865C2947.88 284.645 2942.07 281.456 2935.81 279.482C2929.55 277.507 2922.96 276.786 2916.41 277.358C2909.87 277.93 2903.51 279.785 2897.69 282.817C2891.86 285.849 2886.69 289.998 2882.47 295.028C2878.25 300.058 2875.06 305.87 2873.09 312.132C2871.11 318.395 2870.39 324.984 2870.96 331.525L2920.77 327.168L2970.58 322.81Z" fill="black"/>
<path d="M2971.09 325.63C2964.54 325.237 2958.13 323.557 2952.22 320.685C2946.32 317.813 2941.04 313.807 2936.68 308.894C2932.32 303.982 2928.98 298.259 2926.83 292.053C2924.69 285.847 2923.79 279.28 2924.18 272.725C2924.57 266.171 2926.25 259.758 2929.12 253.853C2932 247.948 2936 242.667 2940.91 238.311C2945.83 233.954 2951.55 230.608 2957.76 228.463C2963.96 226.318 2970.53 225.417 2977.08 225.81L2974.09 275.72L2971.09 325.63Z" fill="black"/>
<path d="M2453.4 316.376C2397.38 395.343 2358.01 400.184 2358.01 400.184L2366.68 350.689C2366.75 342.611 2433.72 267.263 2486.07 254.069C2538.42 240.875 2564.03 290.295 2564.03 290.295L2528.93 319.081C2528.93 319.081 2497.38 254.382 2453.4 316.376Z" fill="white" stroke="black" stroke-width="3"/>
<path d="M2528.93 319.081L2564.03 290.295C2564.03 290.295 2573.76 299.56 2578.16 308.589C2583.36 319.276 2584.51 331.114 2577.09 338.165C2569.75 345.133 2561.4 329.752 2563.8 328.689C2564.56 330.223 2561.55 348.138 2554.73 349.915C2547.77 351.726 2544.45 344.025 2544.45 344.025C2544.45 344.025 2541.67 351.566 2531.93 355.959C2522.19 360.352 2519.81 344.369 2519.81 344.369C2519.81 344.369 2520.63 334.723 2523.35 328.969C2525.85 323.672 2528.93 319.081 2528.93 319.081Z" fill="#693875" stroke="black" stroke-width="3"/>
<path d="M2338.42 357.774L2298.71 349.258C2297.19 340.526 2311.65 405.768 2253.83 442.621C2196.02 479.473 2122.17 454.224 2122.17 454.224L2131.12 500.794C2131.12 500.794 2253.5 490.573 2277.18 467.394C2300.85 444.215 2320.69 405.381 2338.42 357.774Z" fill="white" stroke="black" stroke-width="3"/>
<path d="M2122.17 454.224L2130.93 500.948C2130.93 500.948 2141.87 503.195 2151.86 502.223C2162.05 501.232 2171.23 496.377 2171.79 486.17C2172.21 478.491 2155.28 484.237 2155.28 484.237C2155.28 484.237 2171.97 464.767 2171.17 457.715C2170.36 450.586 2155.66 455.778 2155.66 455.778C2155.66 455.778 2164.3 442.327 2164.09 437.274C2163.91 433.001 2158.54 427.31 2158.54 427.31C2158.54 427.31 2152.54 423.868 2145.04 426.364C2138.04 428.692 2134.73 433.214 2131.09 439.398C2128.13 444.441 2122.17 454.224 2122.17 454.224Z" fill="#693875" stroke="black" stroke-width="3"/>
<path d="M2359 391.583L2333 391.583C2333 391.583 2351.92 406.021 2359 439.583C2369.64 524.581 2358.88 569.927 2350.5 649.583L2399.5 649.583C2394.25 566.737 2395.39 469.755 2388.5 439.583C2381.6 409.41 2359 391.583 2359 391.583Z" fill="white" stroke="black" stroke-width="3"/>
<path d="M2350.49 649.583L2399.49 649.583C2399.49 649.583 2413.02 637.034 2413.45 627.001C2413.89 616.772 2410.95 605.967 2400.9 603.984C2393.35 602.493 2385.81 612.11 2385.81 612.11C2385.81 612.11 2379.71 599.78 2372.61 599.585C2365.42 599.388 2358.7 611.631 2358.7 611.631C2358.7 611.631 2352.97 604.903 2347.93 604.405C2343.67 603.985 2340.57 604.797 2337.49 607.78C2333.69 611.476 2334.3 623.022 2334.3 623.022C2334.3 623.022 2335.32 632.638 2339.12 638.645C2342.25 643.595 2350.49 649.583 2350.49 649.583Z" fill="#693875" stroke="black" stroke-width="3"/>
<path d="M2112.59 328.677C2168.6 249.703 2198.2 234.492 2198.2 234.492L2196.59 284.679C2207.38 293.901 2137.1 396.419 2091.79 402.827C2046.48 409.235 2014.76 380.443 2014.76 380.443C2014.76 380.443 2040.28 349.793 2042.22 344.885C2044.16 339.977 2069.81 389.005 2112.59 328.677Z" fill="white" stroke="black" stroke-width="3"/>
<path d="M2042.04 344.941L2014.74 380.432C2014.74 380.432 2002.09 374.228 1995.86 366.375C1988.48 357.08 1986.78 345.115 1992.5 336.628C1998.16 328.241 2005.81 343.915 2003.7 345.471C2002.62 344.141 2003.56 324.199 2009.83 320.985C2016.23 317.71 2021.13 324.5 2021.13 324.5C2021.13 324.5 2022.22 316.542 2030.78 310.145C2039.33 303.748 2045.1 318.821 2045.1 318.821C2045.1 318.821 2045.81 328.403 2044.39 334.605C2043.09 340.314 2042.04 344.941 2042.04 344.941Z" fill="#693875" stroke="black" stroke-width="3"/>
<path d="M2316.34 236.237C2311.04 280.867 2342.99 321.342 2387.69 326.64C2432.38 331.939 2471.13 280.866 2476.43 236.237C2481.72 191.607 2451.55 170.319 2406.85 165.021C2362.15 159.722 2321.63 191.607 2316.34 236.237Z" fill="white" stroke="black" stroke-width="3"/>
<path d="M2355.17 240.84C2352.41 264.114 2369.07 285.22 2392.38 287.983C2415.69 290.746 2436.82 274.119 2439.58 250.846C2442.34 227.573 2425.68 206.466 2402.37 203.703C2379.06 200.94 2357.93 217.567 2355.17 240.84Z" fill="#693875" stroke="black" stroke-width="3"/>
<circle cx="81.5" cy="81.5" r="81.5" transform="matrix(-1 -6.25423e-09 -2.10541e-08 1 2325.08 123.639)" fill="white" stroke="black" stroke-width="3"/>
<circle cx="42.5" cy="42.5" r="42.5" transform="matrix(-1 -6.25423e-09 -2.10541e-08 1 2286.19 162.639)" fill="#693875" stroke="black" stroke-width="3"/>
<path d="M2476 234.691L2162.2 197.491L2143.38 356.135C2141.76 369.826 2151.56 382.241 2165.27 383.867L2429.42 415.181C2443.13 416.806 2455.56 407.026 2457.19 393.336L2476 234.691Z" fill="white" stroke="black" stroke-width="3"/>
<path d="M2466.44 273.777C2468.06 260.087 2458.26 247.671 2444.55 246.045L2228.07 220.382C2214.36 218.756 2201.93 228.537 2200.3 242.227L2187.84 347.329C2186.22 361.019 2196.02 373.435 2209.73 375.06L2426.21 400.724C2439.92 402.349 2452.35 392.569 2453.97 378.879L2466.44 273.777Z" fill="black" stroke="black" stroke-width="3"/>
<rect width="99.9993" height="99.8471" transform="matrix(-0.993046 -0.117723 -0.11775 0.993043 2448.21 274.633)" stroke="black" stroke-width="3"/>
<path d="M2352.96 313.614C2349.71 340.994 2369.31 365.826 2396.73 369.077C2424.15 372.327 2449.02 352.767 2452.26 325.387C2455.51 298.006 2435.91 273.175 2408.49 269.924C2381.07 266.673 2356.2 286.234 2352.96 313.614Z" fill="white"/>
<path d="M2364.87 315.027C2362.41 335.836 2377.3 354.708 2398.14 357.178C2418.98 359.649 2437.88 344.783 2440.35 323.974C2442.81 303.165 2427.92 284.293 2407.08 281.822C2386.24 279.352 2367.34 294.218 2364.87 315.027Z" fill="black"/>
<path d="M2446.14 377.108C2446.71 370.567 2445.99 363.977 2444.01 357.715C2442.04 351.453 2438.85 345.641 2434.63 340.611C2430.41 335.581 2425.24 331.431 2419.42 328.4C2413.59 325.368 2407.23 323.513 2400.69 322.94C2394.14 322.368 2387.55 323.09 2381.29 325.064C2375.03 327.039 2369.22 330.227 2364.19 334.448C2359.16 338.668 2355.01 343.838 2351.98 349.663C2348.95 355.487 2347.09 361.851 2346.52 368.392L2396.33 372.75L2446.14 377.108Z" fill="black"/>
<rect width="99.9993" height="99.8471" transform="matrix(-0.993046 -0.117723 -0.11775 0.993043 2317.13 259.093)" stroke="black" stroke-width="3"/>
<path d="M2232.8 299.369C2229.55 326.749 2249.15 351.58 2276.57 354.831C2304 358.082 2328.86 338.521 2332.1 311.141C2335.35 283.761 2315.75 258.93 2288.33 255.679C2260.91 252.428 2236.05 271.989 2232.8 299.369Z" fill="white"/>
<path d="M2244.72 300.782C2242.25 321.591 2257.14 340.462 2277.98 342.933C2298.82 345.404 2317.72 330.537 2320.19 309.728C2322.65 288.92 2307.76 270.048 2286.92 267.577C2266.08 265.106 2247.18 279.973 2244.72 300.782Z" fill="black"/>
<path d="M2324.81 365.188C2325.95 358.721 2325.81 352.094 2324.39 345.683C2322.97 339.273 2320.3 333.205 2316.53 327.827C2312.76 322.448 2307.98 317.864 2302.44 314.336C2296.9 310.808 2290.72 308.405 2284.25 307.265C2277.79 306.125 2271.16 306.269 2264.75 307.691C2258.34 309.112 2252.27 311.782 2246.89 315.548C2241.51 319.314 2236.93 324.103 2233.4 329.64C2229.87 335.178 2227.47 341.357 2226.33 347.823L2275.57 356.505L2324.81 365.188Z" fill="black"/>
<path d="M1629.28 369.506L1608.04 351.684C1608.04 351.684 1600.8 456.04 1564.68 489.423C1528.55 522.807 1451.54 539.442 1451.54 539.442L1480.03 580.527C1480.03 580.527 1584.6 523.454 1600.88 500.294C1617.17 477.134 1631.03 420.354 1629.28 369.506Z" fill="white" stroke="black" stroke-width="3"/>
<path d="M1651.12 369.5C1650.43 369.704 1650 370.36 1650.1 371.065L1685.09 618.017C1685.16 618.504 1685.47 618.934 1685.92 619.169L1748.59 651.808C1749.12 652.084 1749.76 652.041 1750.22 651.698C1750.68 651.354 1750.89 650.773 1750.75 650.209L1678.49 363.099C1678.39 362.693 1678.12 362.341 1677.75 362.129C1677.37 361.916 1676.93 361.863 1676.53 361.983L1651.12 369.5Z" fill="white" stroke="black" stroke-width="3" stroke-linecap="round" stroke-linejoin="round"/>
<path d="M1686.65 619.471L1749 651.166C1749 651.166 1760.71 645.901 1762.24 636.173C1763.81 626.255 1761.36 618.551 1752.92 612.367C1746.22 607.46 1732.64 605.253 1732.05 607.082C1732.05 607.082 1727.06 594.694 1719.93 593.481C1712.71 592.255 1704.44 600.666 1704.44 600.666C1701.22 593.172 1695.85 588.103 1695.85 588.103C1692.69 583.309 1673.26 576.809 1673.28 590.093C1673.28 590.093 1673.08 598.775 1676.25 605.183C1678.86 610.464 1686.65 619.471 1686.65 619.471Z" fill="#693875" stroke="black" stroke-width="3"/>
<path fill-rule="evenodd" clip-rule="evenodd" d="M1367.79 468.47C1367.79 468.47 1367.01 468.314 1365.73 468.011C1366.95 467.875 1367.76 468.025 1367.79 468.47Z" fill="#693875"/>
<path d="M1390.73 448.133L1426 485.138C1426.78 489.22 1410.27 502.205 1408.77 503.401C1407.26 504.596 1392.65 511.368 1386.26 510.128C1381.43 509.19 1375.89 507.338 1373.28 503.671C1369.78 498.771 1375.35 492.144 1380.07 490.754C1374.23 492.425 1356.28 489.032 1353.86 480.02C1351.87 472.639 1361.39 468.499 1365.73 468.011L1365.73 468.011C1367.01 468.314 1367.79 468.47 1367.79 468.47C1367.76 468.025 1366.95 467.875 1365.73 468.011L1365.73 468.011C1360.52 466.779 1347.03 463.115 1344.11 457.63C1337.66 445.488 1354.48 439.599 1366.45 441.098C1377.25 442.449 1390.73 448.133 1390.73 448.133Z" fill="#693875"/>
<path d="M1365.73 468.011L1365.73 468.011M1365.73 468.011C1361.39 468.499 1351.87 472.639 1353.86 480.02C1356.28 489.032 1374.23 492.425 1380.07 490.754C1375.35 492.144 1369.78 498.771 1373.28 503.671C1375.89 507.338 1381.43 509.19 1386.26 510.128C1392.65 511.368 1407.26 504.596 1408.77 503.401C1410.27 502.205 1426.78 489.22 1426 485.138L1390.73 448.133C1390.73 448.133 1377.25 442.449 1366.45 441.098C1354.48 439.599 1337.66 445.488 1344.11 457.63C1347.03 463.115 1360.52 466.779 1365.73 468.011ZM1365.73 468.011C1366.95 467.875 1367.76 468.025 1367.79 468.47C1367.79 468.47 1367.01 468.314 1365.73 468.011Z" stroke="black" stroke-width="3"/>
<path d="M1470.45 376.759C1466.11 295.295 1500.48 283.309 1477.72 270.836C1477.72 270.836 1476.82 223.366 1468.58 239.491C1460.35 255.615 1418.41 299.783 1426.53 367.363C1434.65 434.943 1394.54 451.97 1390.03 449.356L1424.05 486.195C1423.92 492.23 1474.05 444.192 1470.45 376.759Z" fill="white" stroke="black" stroke-width="3"/>
<path d="M1845.43 295.928C1797.31 315.637 1777.6 311.436 1777.6 311.436L1766.98 363.575C1789.98 357.215 1892.68 321.939 1922.05 296.073C1951.43 270.207 1931.12 211.679 1924.57 209.472L1880.46 227.451C1880.46 227.451 1915.75 267.13 1845.43 295.928Z" fill="white" stroke="black" stroke-width="3"/>
<path d="M1881.17 227.938L1925.76 208.917C1925.76 208.917 1921.13 195.712 1914.22 187.723C1906.03 178.267 1894.89 171.973 1884.62 175.57C1874.48 179.124 1885.87 193.514 1887.99 191.818C1886.83 190.443 1867.84 185.222 1863.03 190.616C1858.13 196.112 1864.22 202.542 1864.22 202.542C1864.22 202.542 1855.55 201.714 1846.86 208.589C1838.17 215.463 1852.83 224.713 1852.83 224.713C1852.83 224.713 1862.7 228.248 1869.58 228.339C1875.92 228.422 1881.17 227.938 1881.17 227.938Z" fill="#693875" stroke="black" stroke-width="3"/>
<path d="M1450.73 540.205L1478.8 581.394C1478.8 581.394 1489.9 578.662 1499.5 573.939C1509.29 569.124 1516.47 561.117 1512.79 551.458C1510.03 544.19 1495.47 555.984 1495.47 555.984C1495.47 555.984 1504.1 531.581 1500.37 525.361C1496.61 519.073 1484.05 529.501 1484.05 529.501C1484.05 529.501 1487.11 513.749 1484.8 509.154C1482.85 505.269 1475.12 502.053 1475.12 502.053C1475.12 502.053 1467.69 501.163 1461.21 506.343C1455.17 511.177 1453.74 516.627 1452.66 523.741C1451.78 529.543 1450.73 540.205 1450.73 540.205Z" fill="#693875" stroke="black" stroke-width="3"/>
<path d="M1474.41 160.027C1468.32 205.347 1502.09 245.635 1549.84 250.013C1597.59 254.392 1638.64 229.599 1644.73 184.279C1650.82 138.959 1619.65 90.275 1571.9 85.8964C1524.15 81.5179 1480.51 114.707 1474.41 160.027Z" fill="white" stroke="black" stroke-width="3"/>
<path d="M1515.91 163.841C1512.73 187.477 1530.34 208.488 1555.24 210.772C1580.15 213.055 1602.91 195.746 1606.09 172.111C1609.26 148.475 1591.65 127.464 1566.75 125.181C1541.85 122.897 1519.09 140.206 1515.91 163.841Z" fill="#693875" stroke="black" stroke-width="3"/>
<path d="M1640.71 174.764C1634.62 220.089 1666.64 275.362 1714.39 279.741C1762.15 284.121 1805.8 250.927 1811.89 205.602C1817.98 160.277 1784.21 119.984 1736.46 115.605C1688.7 111.226 1646.8 129.439 1640.71 174.764Z" fill="white" stroke="black" stroke-width="3"/>
<path d="M1680.45 193.552C1677.28 217.188 1694.89 238.199 1719.79 240.483C1744.69 242.766 1767.45 225.457 1770.63 201.822C1773.81 178.186 1756.2 157.175 1731.3 154.891C1706.39 152.608 1683.63 169.917 1680.45 193.552Z" fill="#693875" stroke="black" stroke-width="3"/>
<path d="M1812.98 199.704L1474.41 167.063L1453.83 328.013C1452.06 341.903 1462.61 354.318 1477.4 355.744L1762.4 383.221C1777.19 384.647 1790.62 374.544 1792.4 360.654L1812.98 199.704Z" fill="white" stroke="black" stroke-width="3"/>
<path d="M1802.7 239.563C1804.48 225.673 1793.92 213.257 1779.13 211.831L1545.56 189.311C1530.76 187.885 1517.33 197.989 1515.56 211.879L1501.92 318.514C1500.15 332.404 1510.7 344.82 1525.49 346.247L1759.07 368.766C1773.86 370.192 1787.29 360.089 1789.07 346.199L1802.7 239.563Z" fill="black" stroke="black" stroke-width="3"/>
<rect width="107.287" height="100.945" transform="matrix(-0.995505 -0.0958449 -0.12701 0.992037 1783.19 241.392)" stroke="black" stroke-width="3"/>
<path d="M1680.65 282.208C1677.11 309.861 1698.15 334.581 1727.65 337.42C1757.14 340.26 1783.92 320.144 1787.46 292.491C1791 264.838 1769.96 240.119 1740.47 237.279C1710.97 234.44 1684.19 254.555 1680.65 282.208Z" fill="white"/>
<path d="M1693.47 283.442C1690.78 304.459 1706.77 323.245 1729.18 325.403C1751.6 327.561 1771.95 312.274 1774.64 291.257C1777.33 270.241 1761.34 251.454 1738.93 249.296C1716.51 247.138 1696.16 262.426 1693.47 283.442Z" fill="black"/>
<path d="M1779.13 346.539C1780.42 340.02 1780.32 333.35 1778.86 326.909C1777.39 320.468 1774.58 314.382 1770.58 308.999C1766.58 303.615 1761.47 299.041 1755.55 295.535C1749.62 292.03 1743 289.662 1736.06 288.568C1729.11 287.474 1721.98 287.675 1715.07 289.159C1708.16 290.642 1701.61 293.38 1695.79 297.216C1689.97 301.052 1684.99 305.911 1681.14 311.514C1677.29 317.118 1674.65 323.358 1673.36 329.876L1726.24 338.208L1779.13 346.539Z" fill="black"/>
<path d="M1681.1 340.016C1688 338.475 1694.53 335.683 1700.31 331.8C1706.1 327.916 1711.03 323.017 1714.82 317.382C1718.62 311.747 1721.2 305.487 1722.43 298.959C1723.66 292.431 1723.5 285.762 1721.97 279.334C1720.44 272.907 1717.57 266.845 1713.52 261.497C1709.47 256.148 1704.32 251.616 1698.36 248.161C1692.4 244.706 1685.76 242.394 1678.8 241.358C1671.84 240.322 1664.72 240.582 1657.82 242.123L1669.46 291.069L1681.1 340.016Z" fill="black"/>
<rect width="107.287" height="100.945" transform="matrix(-0.995505 -0.0958449 -0.12701 0.992037 1641.06 226.827)" stroke="black" stroke-width="3"/>
<path d="M1550.27 268.774C1546.73 296.427 1567.77 321.146 1597.27 323.986C1626.76 326.825 1653.54 306.71 1657.08 279.057C1660.62 251.403 1639.58 226.684 1610.09 223.845C1580.59 221.005 1553.82 241.12 1550.27 268.774Z" fill="white"/>
<path d="M1563.09 270.008C1560.4 291.024 1576.39 309.811 1598.81 311.969C1621.22 314.127 1641.57 298.839 1644.26 277.823C1646.95 256.806 1630.96 238.02 1608.55 235.862C1586.13 233.703 1565.78 248.991 1563.09 270.008Z" fill="black"/>
<path d="M1652.25 333.432C1653.54 326.913 1653.45 320.243 1651.98 313.801C1650.52 307.36 1647.7 301.274 1643.7 295.891C1639.7 290.508 1634.6 285.933 1628.67 282.428C1622.75 278.922 1616.13 276.555 1609.18 275.461C1602.24 274.367 1595.11 274.567 1588.2 276.051C1581.29 277.535 1574.74 280.273 1568.91 284.109C1563.09 287.945 1558.12 292.803 1554.27 298.407C1550.42 304.011 1547.78 310.25 1546.49 316.769L1599.37 325.1L1652.25 333.432Z" fill="black"/>
<path d="M1552.01 333.972C1558.91 332.431 1565.43 329.639 1571.22 325.755C1577.01 321.872 1581.94 316.972 1585.73 311.338C1589.53 305.703 1592.11 299.443 1593.34 292.914C1594.56 286.386 1594.41 279.718 1592.88 273.29C1591.35 266.862 1588.48 260.801 1584.43 255.452C1580.38 250.103 1575.23 245.572 1569.27 242.117C1563.31 238.661 1556.66 236.349 1549.71 235.313C1542.75 234.277 1535.62 234.537 1528.73 236.078L1540.37 285.025L1552.01 333.972Z" fill="black"/>
<path d="M948.449 324.878L923.648 319.871L854.261 619.632L893.027 649.632L948.449 324.878Z" fill="white" stroke="black" stroke-width="3"/>
<path d="M854.903 621.3L893.027 649.633C893.027 649.633 913.996 645.281 919.884 637.146C925.887 628.853 929.383 618.213 922.094 611.024C916.61 605.616 905.023 609.489 905.023 609.489C905.023 609.489 906.726 595.838 900.904 591.761C895.02 587.638 882.662 594.151 882.662 594.151C882.662 594.151 881.587 585.378 877.655 582.185C874.33 579.486 871.296 578.456 867.088 579.253C861.876 580.24 856.026 590.213 856.026 590.213C856.026 590.213 851.573 598.797 851.435 605.903C851.321 611.76 854.903 621.3 854.903 621.3Z" fill="#693875" stroke="black" stroke-width="3"/>
<path d="M1003.27 315.212L938.889 324.394C938.889 324.394 1085.99 363.808 1103.38 392.362C1120.77 420.916 1091.46 499.862 1091.46 499.862L1140.75 499.862C1140.75 499.862 1155.11 430.117 1140.75 387.862C1126.4 345.607 1022.15 317.246 1003.27 315.212Z" fill="white" stroke="black" stroke-width="3"/>
<path d="M1140.75 499.862L1091.46 499.862C1091.46 499.862 1086.78 510.51 1085.93 520.521C1085.07 530.727 1088.52 540.616 1099.31 542.938C1107.42 544.685 1104.48 527.017 1104.48 527.017C1104.48 527.017 1122.11 546.833 1129.78 547.269C1137.54 547.71 1134.77 532.333 1134.77 532.333C1134.77 532.333 1147.49 543.172 1152.92 543.84C1157.52 544.405 1164.6 540.113 1164.6 540.113C1164.6 540.113 1169.4 534.801 1168.15 526.979C1166.98 519.679 1162.78 515.637 1156.87 510.982C1152.04 507.186 1140.75 499.862 1140.75 499.862Z" fill="#693875" stroke="black" stroke-width="3"/>
<path d="M1142.49 280.064C1048.21 272.185 996.597 196.92 973.403 233.326L1002.98 275.399C1020.35 285.633 1145.68 315.562 1162.96 317.401C1180.24 319.241 1191.32 330.477 1191.18 328.004C1191.18 328.004 1202.61 299.279 1217.24 295.469C1231.87 291.659 1236.76 287.943 1142.49 280.064Z" fill="white" stroke="black" stroke-width="3"/>
<path d="M1193.18 285.022L1180.68 323.052C1180.68 323.052 1193.78 332.883 1204.58 333.793C1217.36 334.87 1229.22 329.741 1233.54 320.297C1237.8 310.965 1219.07 313.158 1218.91 315.773C1220.75 315.946 1238.28 304.233 1237.49 297.219C1236.69 290.073 1227.64 289.693 1227.64 289.693C1227.64 289.693 1234.21 284.419 1234.96 273.751C1235.71 263.083 1218.64 266.523 1218.64 266.523C1218.64 266.523 1209.53 271.18 1204.74 275.763C1200.33 279.981 1193.18 285.022 1193.18 285.022Z" fill="#693875" stroke="black" stroke-width="3"/>
<path fill-rule="evenodd" clip-rule="evenodd" d="M961.939 431.103C961.939 431.103 962.483 430.555 963.349 429.619C962.287 430.153 961.717 430.71 961.939 431.103Z" fill="#693875"/>
<path d="M931.856 426.289L924.189 476.134C925.865 479.972 946.58 482.053 948.477 482.251C950.373 482.45 966.038 480.335 970.514 475.887C973.9 472.522 977.341 468.015 977.39 463.543C977.455 457.568 969.197 454.984 964.583 456.338C970.26 454.623 982.886 442.203 979.758 433.352C977.197 426.104 967.144 427.711 963.351 429.618L963.349 429.619C962.483 430.555 961.939 431.103 961.939 431.103C961.717 430.71 962.287 430.153 963.349 429.619L963.351 429.618C966.877 425.804 975.742 415.533 975.004 409.378C973.371 395.755 956.412 399.791 947.554 407.437C939.573 414.327 931.856 426.289 931.856 426.289Z" fill="#693875"/>
<path d="M963.351 429.618L963.349 429.619M963.351 429.618C967.144 427.711 977.197 426.104 979.758 433.352C982.886 442.203 970.26 454.623 964.583 456.338C969.197 454.984 977.455 457.568 977.39 463.543C977.341 468.015 973.9 472.522 970.514 475.887C966.038 480.335 950.373 482.45 948.477 482.251C946.58 482.053 925.865 479.972 924.189 476.134L931.856 426.289C931.856 426.289 939.573 414.327 947.554 407.437C956.412 399.791 973.371 395.755 975.004 409.378C975.742 415.533 966.877 425.804 963.351 429.618ZM963.349 429.619C962.287 430.153 961.717 430.71 961.939 431.103C961.939 431.103 962.483 430.555 963.349 429.619Z" stroke="black" stroke-width="3"/>
<path d="M779.821 409.22C735.239 324.93 771.104 296.179 774.286 291.321C774.286 291.321 805.684 285.455 798.373 295.617C791.063 305.779 792.135 347.805 828.88 401.034C865.626 454.264 931.798 425.034 931.179 425.465L923.408 475.307C923.86 475.872 824.517 493.724 779.821 409.22Z" fill="white" stroke="black" stroke-width="3"/>
<path d="M902.009 141.252C909.454 186.454 953.982 218.682 1001.47 213.236C1048.95 207.789 1081.37 175.403 1073.92 130.201C1066.48 84.9991 1021.99 44.0991 974.506 49.5456C927.022 54.9921 894.564 96.0506 902.009 141.252Z" fill="white" stroke="black" stroke-width="3"/>
<path d="M943.275 136.509C947.158 160.083 970.381 176.891 995.146 174.05C1019.91 171.21 1036.84 149.796 1032.96 126.222C1029.07 102.648 1005.85 85.8403 981.085 88.6808C956.321 91.5213 939.392 112.935 943.275 136.509Z" fill="#693875" stroke="black" stroke-width="3"/>
<path d="M737.65 172.005C745.096 217.213 792.345 264.334 839.836 258.887C887.327 253.44 919.79 212.376 912.344 167.168C904.898 121.96 860.362 89.7276 812.871 95.1748C765.38 100.622 730.204 126.797 737.65 172.005Z" fill="white" stroke="black" stroke-width="3"/>
<path d="M781.632 182.157C785.515 205.731 808.738 222.539 833.503 219.699C858.267 216.858 875.196 195.445 871.313 171.871C867.43 148.297 844.206 131.489 819.442 134.329C794.677 137.17 777.749 158.583 781.632 182.157Z" fill="#693875" stroke="black" stroke-width="3"/>
<path d="M1073.35 128.788L736.217 169.2L761.518 329.735C763.701 343.588 777.413 353.387 792.143 351.621L1075.93 317.604C1090.66 315.838 1100.84 303.177 1098.65 289.323L1073.35 128.788Z" fill="white" stroke="black" stroke-width="3"/>
<path d="M1074.58 169.377C1072.4 155.523 1058.68 145.723 1043.95 147.489L811.366 175.37C796.635 177.136 786.463 189.798 788.646 203.653L805.409 310.014C807.592 323.868 821.304 333.668 836.035 331.902L1068.62 304.021C1083.35 302.256 1093.53 289.593 1091.34 275.739L1074.58 169.377Z" fill="black" stroke="black" stroke-width="3"/>
<rect width="107.038" height="101.03" transform="matrix(-0.993066 0.118855 0.155943 0.987957 1056.1 174.441)" stroke="black" stroke-width="3"/>
<path d="M968.309 235.797C972.66 263.36 999.982 282.856 1029.33 279.343C1058.69 275.83 1078.96 250.638 1074.6 223.075C1070.25 195.513 1042.93 176.017 1013.58 179.53C984.227 183.043 963.959 208.235 968.309 235.797Z" fill="white"/>
<path d="M981.064 234.271C984.371 255.218 1005.14 270.035 1027.44 267.365C1049.75 264.695 1065.16 245.549 1061.85 224.602C1058.54 203.654 1037.78 188.837 1015.47 191.507C993.162 194.177 977.758 213.323 981.064 234.271Z" fill="black"/>
<path d="M1080.38 273.208C1079.08 266.681 1076.43 260.43 1072.57 254.815C1068.72 249.199 1063.74 244.327 1057.91 240.478C1052.09 236.628 1045.54 233.877 1038.63 232.38C1031.73 230.883 1024.61 230.671 1017.67 231.754C1010.74 232.838 1004.12 235.197 998.215 238.696C992.305 242.195 987.212 246.766 983.228 252.148C979.243 257.529 976.445 263.617 974.992 270.062C973.539 276.507 973.461 283.184 974.761 289.712L1027.57 281.46L1080.38 273.208Z" fill="black"/>
<path d="M943.621 255.852C949.886 259.017 956.729 261.007 963.76 261.708C970.79 262.409 977.87 261.807 984.595 259.936C991.321 258.066 997.559 254.964 1002.96 250.807C1008.35 246.65 1012.8 241.52 1016.05 235.709C1019.29 229.899 1021.27 223.521 1021.87 216.942C1022.47 210.362 1021.68 203.709 1019.55 197.362C1017.41 191.015 1013.98 185.099 1009.43 179.951C1004.88 174.803 999.319 170.524 993.054 167.359L968.337 211.605L943.621 255.852Z" fill="black"/>
<rect width="107.038" height="101.03" transform="matrix(-0.993066 0.118855 0.155943 0.987957 914.43 192.416)" stroke="black" stroke-width="3"/>
<path d="M838.334 252.372C842.684 279.935 870.006 299.431 899.359 295.918C928.712 292.405 948.98 267.213 944.629 239.65C940.279 212.088 912.957 192.592 883.604 196.105C854.251 199.618 833.983 224.81 838.334 252.372Z" fill="white"/>
<path d="M851.089 250.846C854.395 271.793 875.16 286.61 897.468 283.94C919.776 281.27 935.18 262.125 931.874 241.177C928.567 220.229 907.802 205.412 885.494 208.082C863.186 210.752 847.782 229.898 851.089 250.846Z" fill="black"/>
<path d="M952.403 288.314C951.103 281.786 948.449 275.536 944.594 269.921C940.739 264.305 935.757 259.433 929.934 255.584C924.111 251.734 917.56 248.983 910.655 247.486C903.75 245.989 896.627 245.776 889.691 246.86C882.756 247.944 876.145 250.303 870.235 253.802C864.325 257.301 859.233 261.872 855.248 267.254C851.264 272.635 848.465 278.723 847.012 285.168C845.56 291.613 845.481 298.29 846.781 304.818L899.592 296.566L952.403 288.314Z" fill="black"/>
<path d="M824.541 276.486C831.315 278.47 838.411 279.191 845.426 278.609C852.44 278.027 859.234 276.152 865.421 273.091C871.608 270.031 877.065 265.845 881.483 260.772C885.9 255.7 889.19 249.84 891.166 243.528C893.141 237.216 893.763 230.575 892.996 223.984C892.229 217.392 890.087 210.981 886.694 205.114C883.301 199.248 878.723 194.041 873.221 189.793C867.718 185.544 861.4 182.336 854.626 180.352L839.583 228.419L824.541 276.486Z" fill="black"/>
<path d="M201.903 441.529L181.426 481.682C181.426 481.682 192.342 490.329 202.039 492.477C213.516 495.019 225.011 491.29 230.245 482.408C235.417 473.63 218.08 473.652 217.566 476.23C219.217 476.614 236.786 467 237.038 459.943C237.296 452.753 229.117 451.334 229.117 451.334C229.117 451.334 235.826 446.853 237.985 436.344C240.144 425.836 224.142 427.287 224.142 427.287C224.142 427.287 215.211 430.862 210.221 434.862C205.627 438.545 201.903 441.529 201.903 441.529Z" fill="#693875" stroke="black" stroke-width="3"/>
<path d="M221.445 306.322L221.446 306.321L221.45 306.318L221.477 306.297C221.504 306.276 221.545 306.245 221.597 306.205C221.651 306.165 221.715 306.119 221.788 306.068C221.713 306.296 221.62 306.554 221.506 306.845C220.381 309.718 217.49 315.11 211.254 324.81C205.038 334.481 195.55 348.356 181.298 368.162C172.277 380.697 168.847 391.675 168.921 401.13C168.996 410.586 172.573 418.345 177.253 424.45C181.924 430.544 187.715 435.024 192.311 437.974C194.614 439.451 196.629 440.553 198.073 441.287C198.409 441.457 198.713 441.608 198.984 441.739L179.534 479.661C179.475 479.643 179.412 479.622 179.344 479.597C178.78 479.397 178.045 479.053 177.15 478.549C175.367 477.545 173.077 475.98 170.457 473.905C165.222 469.76 158.765 463.657 152.522 456.141C140.002 441.07 128.536 420.56 129.165 398.943C129.479 388.143 133.599 373.712 139.798 358.103C145.982 342.533 154.178 325.933 162.526 310.849C170.875 295.763 179.357 282.227 186.103 272.782C189.482 268.051 192.394 264.391 194.614 262.081C195.735 260.913 196.61 260.165 197.23 259.783C197.24 259.776 197.251 259.769 197.262 259.763L219.154 305.827L219.96 307.524L221.445 306.322ZM221.445 306.322L221.445 306.322L221.445 306.322ZM222.931 305.45C222.932 305.45 222.927 305.451 222.918 305.453C222.926 305.452 222.931 305.451 222.931 305.45Z" fill="white" stroke="black" stroke-width="3"/>
<path fill-rule="evenodd" clip-rule="evenodd" d="M578.914 388.805C578.914 388.805 579.527 388.398 580.517 387.687C579.432 387.964 578.792 388.374 578.914 388.805Z" fill="#693875"/>
<path d="M552.34 377.307L534.877 423.875C535.611 427.976 554.168 434.697 555.865 435.321C557.562 435.944 572.367 437.452 577.402 434.157C581.21 431.665 585.309 428.078 586.289 423.756C587.6 417.98 580.569 413.599 576.056 413.863C581.62 413.491 595.795 404.321 594.78 395.033C593.949 387.426 584.395 386.7 580.519 387.687L580.517 387.687C579.527 388.398 578.914 388.805 578.914 388.805C578.792 388.374 579.432 387.964 580.517 387.687L580.519 387.687C584.551 384.792 594.828 376.85 595.44 370.717C596.794 357.143 580.4 357.202 570.679 362.602C561.919 367.466 552.34 377.307 552.34 377.307Z" fill="#693875"/>
<path d="M580.519 387.687L580.517 387.687M580.519 387.687C584.395 386.7 593.949 387.426 594.78 395.033C595.795 404.321 581.62 413.491 576.056 413.863C580.569 413.599 587.6 417.98 586.289 423.756C585.309 428.078 581.21 431.665 577.402 434.157C572.367 437.452 557.562 435.944 555.865 435.321C554.168 434.697 535.611 427.976 534.877 423.875L552.34 377.307C552.34 377.307 561.919 367.466 570.679 362.602C580.4 357.202 596.794 357.143 595.44 370.717C594.828 376.85 584.551 384.792 580.519 387.687ZM580.517 387.687C579.432 387.964 578.792 388.374 578.914 388.805C578.914 388.805 579.527 388.398 580.517 387.687Z" stroke="black" stroke-width="3"/>
<path d="M550.271 379.746C550.328 379.738 550.383 379.731 550.438 379.724L534.401 422.923C533.815 422.873 532.986 422.779 531.937 422.629C529.578 422.29 526.144 421.669 521.935 420.617C513.515 418.515 502.021 414.703 489.827 408.033C465.463 394.705 438.287 369.968 427.177 324.527C416.003 278.825 417.298 253.776 421.688 239.747C423.875 232.757 426.834 228.489 429.43 225.739C430.734 224.358 431.963 223.341 433.001 222.537C433.262 222.335 433.51 222.147 433.747 221.968L433.818 221.915C434.028 221.756 434.232 221.601 434.422 221.454C434.677 221.257 434.933 221.054 435.168 220.848C435.414 220.813 435.755 220.765 436.174 220.709C437.107 220.583 438.431 220.412 439.994 220.232C443.125 219.872 447.189 219.48 450.971 219.342C454.831 219.201 458.146 219.338 459.93 219.911C460.386 220.057 460.605 220.187 460.704 220.261C460.694 220.281 460.683 220.304 460.669 220.331C460.554 220.548 460.308 220.881 459.833 221.332C457.37 223.671 455.175 228.094 453.552 234.104C451.912 240.174 450.804 248.057 450.657 257.522C450.365 276.458 453.921 301.821 464.892 331.864C476.023 362.347 498.287 374.185 517.614 378.394C527.254 380.493 536.166 380.699 542.621 380.401C545.852 380.252 548.473 379.976 550.271 379.746ZM460.74 220.155C460.74 220.155 460.74 220.157 460.739 220.16C460.74 220.157 460.74 220.155 460.74 220.155Z" fill="white" stroke="black" stroke-width="3"/>
<path d="M316.839 175.637C319.451 220.826 357.725 255.867 402.327 253.904C446.928 251.941 480.106 222.281 477.495 177.093C474.883 131.905 437.471 88.2997 392.869 90.2625C348.267 92.2253 314.228 130.449 316.839 175.637Z" fill="white" stroke="black" stroke-width="3"/>
<path d="M163.601 194.495C166.213 239.683 204.487 274.724 249.089 272.762C293.69 270.799 326.868 241.139 324.257 195.95C321.645 150.762 284.232 107.157 239.631 109.12C195.029 111.083 160.989 149.306 163.601 194.495Z" fill="white" stroke="black" stroke-width="3"/>
<path d="M201.722 191.002C201.404 185.47 202.187 179.928 204.026 174.694C205.865 169.46 208.724 164.636 212.439 160.497C216.155 156.359 220.654 152.987 225.681 150.574C230.707 148.162 236.162 146.755 241.734 146.435C247.306 146.115 252.886 146.889 258.155 148.71C263.425 150.532 268.28 153.367 272.445 157.053C276.609 160.74 280.001 165.205 282.427 170.194C284.853 175.183 286.265 180.599 286.582 186.132L244.152 188.567L201.722 191.002Z" fill="#693875" stroke="black" stroke-width="3"/>
<path d="M356.825 182.486C356.527 176.114 357.33 169.754 359.188 163.768C361.047 157.782 363.924 152.288 367.655 147.598C371.387 142.909 375.9 139.117 380.937 136.438C385.973 133.759 391.435 132.246 397.01 131.985C402.585 131.724 408.165 132.721 413.429 134.918C418.694 137.116 423.541 140.471 427.694 144.791C431.847 149.112 435.224 154.314 437.633 160.101C440.041 165.887 441.434 172.145 441.732 178.516L399.279 180.501L356.825 182.486Z" fill="#693875" stroke="black" stroke-width="3"/>
<path d="M346.564 367.72C348.163 368.226 349.963 368.808 351.923 369.462C359.872 372.112 370.483 375.941 381.104 380.654C391.709 385.361 402.399 390.981 410.461 397.23C418.441 403.416 424.244 410.526 424.244 418.274C424.244 422.117 422.79 426.576 420.402 431.334C418 436.118 414.584 441.337 410.506 446.733C402.348 457.527 391.444 469.156 380.41 479.631C369.375 490.106 358.164 499.469 349.372 505.721C344.987 508.839 341.146 511.226 338.2 512.58C337.603 512.854 337.026 513.095 336.473 513.292L367.705 538.806C367.706 538.806 367.706 538.806 367.706 538.805C368.329 538.249 369.243 537.427 370.408 536.365C372.739 534.241 376.069 531.16 380.067 527.333C388.065 519.679 398.723 509.051 409.377 497.151C420.037 485.245 430.662 472.097 438.614 459.403C446.599 446.654 451.744 434.584 451.744 424.778C451.744 404.803 442.554 390.567 431.212 380.847C419.921 371.172 406.537 366.016 398.138 364.255L346.564 367.72Z" fill="white" stroke="black" stroke-width="3"/>
<path d="M368.014 541.652L331.522 511.186C331.522 511.186 321.656 516.415 314.565 523.526C307.337 530.775 303.342 540.365 309.408 548.593C313.972 554.783 323.371 539.578 323.371 539.578C323.371 539.578 322.89 565.216 327.996 570.146C333.158 575.129 341.191 561.77 341.191 561.77C341.191 561.77 343.092 577.641 346.472 581.403C349.33 584.584 357.088 585.561 357.088 585.561C357.088 585.561 363.907 584.397 368.106 577.697C372.024 571.445 371.697 565.852 370.566 558.768C369.644 552.991 368.014 541.652 368.014 541.652Z" fill="#693875" stroke="black" stroke-width="3"/>
<path d="M274.378 653.461L306.804 360.179L284.114 353.801L231.508 653.461L274.378 653.461Z" fill="white" stroke="black" stroke-width="3"/>
<path d="M229.721 654.961H275.721C275.721 654.961 292.248 642.413 292.679 632.38C293.119 622.151 290.174 611.346 280.13 609.363C272.573 607.872 265.038 617.489 265.038 617.489C265.038 617.489 258.938 605.159 251.833 604.964C244.65 604.766 237.926 617.01 237.926 617.01C237.926 617.01 232.195 610.282 227.154 609.784C222.893 609.364 219.793 610.176 216.721 613.159C212.915 616.855 213.529 628.401 213.529 628.401C213.529 628.401 214.543 638.017 218.343 644.024C221.475 648.974 229.721 654.961 229.721 654.961Z" fill="#693875" stroke="black" stroke-width="3"/>
<path d="M476.004 178.007L164.15 192.659L172.761 351.69C173.466 364.726 184.529 374.782 197.448 374.175L462.48 361.723C475.399 361.116 485.32 350.074 484.614 337.038L476.004 178.007Z" fill="white" stroke="black" stroke-width="3"/>
<path d="M474.765 216.727C474.015 202.874 462.255 192.167 448.498 192.814L231.288 203.019C217.531 203.666 206.987 215.42 207.737 229.273L213.495 335.627C214.245 349.48 226.005 360.187 239.762 359.54L456.972 349.335C470.729 348.688 481.273 336.934 480.523 323.081L474.765 216.727Z" fill="black" stroke="black" stroke-width="3"/>
<rect width="99.5868" height="100.236" transform="matrix(-0.998897 0.0468934 0.0541059 0.998532 457.073 220.473)" stroke="black" stroke-width="3"/>
<path d="M370.256 274.72C371.754 302.359 395.237 323.719 422.706 322.429C450.176 321.14 471.231 297.689 469.733 270.05C468.236 242.411 444.753 221.051 417.283 222.341C389.813 223.63 368.759 247.081 370.256 274.72Z" fill="white"/>
<path d="M382.193 274.16C383.331 295.165 401.178 311.399 422.055 310.419C442.932 309.439 458.933 291.616 457.795 270.61C456.657 249.605 438.81 233.371 417.933 234.351C397.056 235.331 381.055 253.154 382.193 274.16Z" fill="black"/>
<path d="M382.193 274.16C383.331 295.165 401.178 311.399 422.055 310.419C442.932 309.439 458.933 291.616 457.795 270.61C456.657 249.605 438.81 233.371 417.933 234.351C397.056 235.331 381.055 253.154 382.193 274.16Z" fill="black"/>
<path d="M474.429 320.976C473.831 314.41 471.957 308.016 468.912 302.16C465.867 296.304 461.712 291.1 456.683 286.845C451.655 282.59 445.851 279.368 439.604 277.362C433.358 275.357 426.79 274.607 420.275 275.156C413.761 275.705 407.428 277.542 401.639 280.562C395.849 283.582 390.715 287.726 386.532 292.757C382.348 297.788 379.195 303.608 377.254 309.885C375.313 316.161 374.621 322.771 375.219 329.337L424.824 325.157L474.429 320.976Z" fill="black"/>
<path d="M354.494 312.419C360.773 314.317 367.352 314.954 373.855 314.293C380.358 313.632 386.658 311.686 392.395 308.567C398.132 305.447 403.194 301.215 407.291 296.112C411.389 291.009 414.442 285.135 416.276 278.825C418.11 272.515 418.689 265.893 417.981 259.338C417.273 252.782 415.29 246.42 412.147 240.616C409.004 234.812 404.762 229.68 399.663 225.511C394.563 221.343 388.707 218.221 382.428 216.323L368.461 264.371L354.494 312.419Z" fill="black"/>
<path d="M375.257 207.263C374.406 213.79 374.842 220.431 376.538 226.808C378.234 233.185 381.159 239.173 385.143 244.431C389.128 249.688 394.096 254.112 399.763 257.449C405.43 260.786 411.685 262.972 418.171 263.881C424.657 264.79 431.247 264.405 437.565 262.747C443.882 261.089 449.804 258.192 454.992 254.22C460.179 250.248 464.531 245.28 467.799 239.598C471.067 233.917 473.187 227.634 474.037 221.107L424.647 214.185L375.257 207.263Z" fill="black"/>
<rect width="99.5868" height="100.236" transform="matrix(-0.998897 0.0468934 0.0541059 0.998532 325.241 227.123)" stroke="black" stroke-width="3"/>
<path d="M249.367 280.856C250.864 308.495 274.347 329.855 301.817 328.566C329.287 327.276 350.341 303.825 348.844 276.186C347.346 248.547 323.863 227.187 296.393 228.477C268.924 229.766 247.869 253.217 249.367 280.856Z" fill="white"/>
<path d="M261.303 280.296C262.441 301.301 280.288 317.535 301.165 316.555C322.042 315.575 338.044 297.752 336.906 276.747C335.767 255.741 317.921 239.507 297.043 240.487C276.166 241.468 260.165 259.29 261.303 280.296Z" fill="black"/>
<path d="M355.374 326.02C354.777 319.454 352.902 313.06 349.857 307.204C346.813 301.348 342.657 296.144 337.629 291.889C332.6 287.634 326.797 284.412 320.55 282.406C314.303 280.401 307.735 279.651 301.221 280.2C294.706 280.749 288.374 282.586 282.584 285.606C276.794 288.626 271.661 292.77 267.477 297.801C263.293 302.832 260.14 308.652 258.199 314.929C256.258 321.205 255.567 327.815 256.164 334.381L305.769 330.201L355.374 326.02Z" fill="black"/>
<path d="M252.233 216.306C251.383 222.832 251.818 229.473 253.515 235.85C255.211 242.228 258.135 248.216 262.12 253.473C266.105 258.731 271.073 263.154 276.74 266.492C282.406 269.829 288.661 272.014 295.147 272.923C301.633 273.832 308.223 273.447 314.541 271.79C320.859 270.132 326.781 267.234 331.968 263.263C337.156 259.291 341.508 254.322 344.776 248.641C348.044 242.959 350.163 236.676 351.014 230.15L301.623 223.228L252.233 216.306Z" fill="black"/>
<path d="M222.496 319.42C228.775 321.318 235.354 321.955 241.857 321.294C248.36 320.633 254.66 318.687 260.397 315.568C266.134 312.448 271.196 308.216 275.293 303.113C279.391 298.01 282.444 292.136 284.278 285.826C286.112 279.516 286.691 272.894 285.983 266.338C285.275 259.782 283.292 253.421 280.149 247.617C277.006 241.813 272.764 236.68 267.664 232.512C262.565 228.344 256.709 225.221 250.43 223.323L236.463 271.372L222.496 319.42Z" fill="black"/>
</svg>
