<svg width="5200" height="654" viewBox="0 0 5200 654" fill="none" xmlns="http://www.w3.org/2000/svg">
<path d="M448.097 438.529L468.574 478.682C468.574 478.682 457.658 487.329 447.961 489.477C436.484 492.019 424.989 488.29 419.755 479.408C414.583 470.63 431.92 470.652 432.434 473.23C430.783 473.614 413.214 464 412.962 456.943C412.704 449.753 420.883 448.334 420.883 448.334C420.883 448.334 414.174 443.853 412.015 433.344C409.856 422.836 425.858 424.287 425.858 424.287C425.858 424.287 434.789 427.862 439.779 431.862C444.373 435.545 448.097 438.529 448.097 438.529Z" fill="#693875" stroke="black" stroke-width="3"/>
<path d="M428.555 303.322L428.554 303.321L428.55 303.318L428.523 303.297C428.496 303.276 428.455 303.245 428.403 303.205C428.349 303.165 428.285 303.119 428.212 303.068C428.287 303.296 428.38 303.554 428.494 303.845C429.619 306.718 432.51 312.11 438.746 321.81C444.962 331.481 454.45 345.356 468.702 365.162C477.723 377.697 481.153 388.675 481.079 398.13C481.004 407.586 477.427 415.345 472.747 421.45C468.076 427.544 462.285 432.024 457.689 434.974C455.386 436.451 453.371 437.553 451.927 438.287C451.591 438.457 451.287 438.608 451.016 438.739L470.466 476.661C470.525 476.643 470.588 476.622 470.656 476.597C471.22 476.397 471.955 476.053 472.85 475.549C474.633 474.545 476.923 472.98 479.543 470.905C484.778 466.76 491.235 460.657 497.478 453.141C509.998 438.07 521.464 417.56 520.835 395.943C520.521 385.143 516.401 370.712 510.202 355.103C504.018 339.533 495.822 322.933 487.474 307.849C479.125 292.763 470.643 279.227 463.897 269.782C460.518 265.051 457.606 261.391 455.386 259.081C454.265 257.913 453.39 257.165 452.77 256.783C452.76 256.776 452.749 256.769 452.738 256.763L430.846 302.827L430.04 304.524L428.555 303.322ZM428.555 303.322L428.555 303.322L428.555 303.322ZM427.069 302.45C427.068 302.45 427.073 302.451 427.082 302.453C427.074 302.452 427.069 302.451 427.069 302.45Z" fill="white" stroke="black" stroke-width="3"/>
<path fill-rule="evenodd" clip-rule="evenodd" d="M71.0861 385.805C71.0861 385.805 70.4732 385.398 69.4829 384.687C70.5681 384.963 71.2079 385.374 71.0861 385.805Z" fill="#693875"/>
<path d="M97.6598 374.307L115.123 420.875C114.389 424.975 95.8321 431.697 94.135 432.32C92.4379 432.944 77.6331 434.452 72.5982 431.157C68.7895 428.665 64.6914 425.078 63.7107 420.755C62.4001 414.979 69.4308 410.599 73.9442 410.863C68.3802 410.49 54.2049 401.321 55.2197 392.033C56.0508 384.425 65.6047 383.7 69.4813 384.687L69.4829 384.687C70.4732 385.398 71.0861 385.805 71.0861 385.805C71.2079 385.374 70.5681 384.963 69.4829 384.687L69.4813 384.687C65.4495 381.791 55.172 373.85 54.5603 367.717C53.2064 354.143 69.6 354.202 79.3212 359.601C88.0806 364.466 97.6598 374.307 97.6598 374.307Z" fill="#693875"/>
<path d="M69.4813 384.687L69.4829 384.687M69.4813 384.687C65.6047 383.7 56.0508 384.425 55.2197 392.033C54.2049 401.321 68.3802 410.49 73.9442 410.863C69.4308 410.599 62.4001 414.979 63.7107 420.755C64.6914 425.078 68.7895 428.665 72.5982 431.157C77.6331 434.452 92.4379 432.944 94.135 432.32C95.8321 431.697 114.389 424.975 115.123 420.875L97.6598 374.307C97.6598 374.307 88.0806 364.466 79.3212 359.601C69.6 354.202 53.2064 354.143 54.5603 367.717C55.172 373.85 65.4495 381.791 69.4813 384.687ZM69.4829 384.687C70.5681 384.963 71.2079 385.374 71.0861 385.805C71.0861 385.805 70.4732 385.398 69.4829 384.687Z" stroke="black" stroke-width="3"/>
<path d="M99.729 376.745C99.6724 376.738 99.6166 376.731 99.5617 376.724L115.599 419.923C116.185 419.872 117.014 419.779 118.063 419.629C120.422 419.29 123.856 418.668 128.065 417.617C136.485 415.515 147.979 411.703 160.173 405.032C184.537 391.705 211.713 366.967 222.823 321.527C233.997 275.825 232.702 250.776 228.312 236.746C226.125 229.757 223.166 225.489 220.57 222.739C219.266 221.358 218.037 220.341 216.999 219.537C216.738 219.335 216.49 219.147 216.253 218.967L216.182 218.914C215.972 218.755 215.768 218.601 215.578 218.454C215.323 218.257 215.067 218.054 214.832 217.848C214.586 217.813 214.245 217.765 213.826 217.708C212.893 217.583 211.569 217.412 210.006 217.232C206.875 216.872 202.811 216.48 199.029 216.342C195.169 216.2 191.854 216.338 190.07 216.911C189.614 217.057 189.395 217.187 189.296 217.26C189.306 217.281 189.317 217.304 189.331 217.331C189.446 217.548 189.692 217.881 190.167 218.332C192.63 220.671 194.825 225.093 196.448 231.104C198.088 237.174 199.196 245.057 199.343 254.522C199.635 273.458 196.079 298.821 185.108 328.863C173.977 359.347 151.713 371.185 132.386 375.393C122.746 377.493 113.834 377.699 107.379 377.401C104.148 377.252 101.527 376.976 99.729 376.745ZM189.26 217.155C189.26 217.155 189.26 217.157 189.261 217.16C189.26 217.157 189.26 217.155 189.26 217.155Z" fill="white" stroke="black" stroke-width="3"/>
<path d="M333.161 172.637C330.549 217.825 292.275 252.867 247.673 250.904C203.072 248.941 169.894 219.281 172.505 174.093C175.117 128.904 212.529 85.2995 257.131 87.2623C301.733 89.2251 335.772 127.449 333.161 172.637Z" fill="white" stroke="black" stroke-width="3"/>
<path d="M486.399 191.495C483.787 236.683 445.513 271.724 400.911 269.762C356.31 267.799 323.132 238.139 325.743 192.951C328.355 147.762 365.768 104.157 410.369 106.12C454.971 108.083 489.011 146.306 486.399 191.495Z" fill="white" stroke="black" stroke-width="3"/>
<path d="M448.278 188.003C448.596 182.47 447.813 176.928 445.974 171.694C444.135 166.46 441.276 161.636 437.561 157.498C433.845 153.359 429.346 149.987 424.319 147.574C419.293 145.162 413.838 143.755 408.266 143.435C402.694 143.116 397.114 143.889 391.845 145.711C386.575 147.532 381.72 150.367 377.555 154.054C373.391 157.74 369.999 162.205 367.573 167.194C365.147 172.184 363.735 177.599 363.418 183.132L405.848 185.567L448.278 188.003Z" fill="#693875" stroke="black" stroke-width="3"/>
<path d="M293.175 179.486C293.473 173.115 292.67 166.754 290.812 160.768C288.953 154.783 286.076 149.288 282.345 144.599C278.613 139.909 274.1 136.117 269.063 133.438C264.027 130.759 258.565 129.246 252.99 128.985C247.415 128.724 241.835 129.721 236.571 131.918C231.306 134.116 226.459 137.471 222.306 141.791C218.153 146.112 214.776 151.314 212.367 157.101C209.959 162.887 208.566 169.145 208.268 175.516L250.721 177.501L293.175 179.486Z" fill="#693875" stroke="black" stroke-width="3"/>
<path d="M303.436 364.72C301.837 365.226 300.037 365.808 298.077 366.462C290.128 369.112 279.517 372.941 268.896 377.654C258.291 382.361 247.601 387.981 239.539 394.23C231.559 400.416 225.756 407.526 225.756 415.274C225.756 419.117 227.21 423.576 229.598 428.334C232 433.118 235.416 438.337 239.494 443.733C247.652 454.527 258.556 466.156 269.59 476.631C280.625 487.106 291.836 496.469 300.628 502.721C305.013 505.839 308.854 508.226 311.8 509.58C312.397 509.854 312.974 510.095 313.527 510.292L282.295 535.806C282.294 535.806 282.294 535.806 282.294 535.805C281.671 535.249 280.757 534.427 279.592 533.365C277.261 531.241 273.931 528.16 269.933 524.333C261.935 516.679 251.277 506.051 240.623 494.151C229.963 482.245 219.338 469.097 211.386 456.403C203.401 443.654 198.256 431.584 198.256 421.778C198.256 401.803 207.446 387.567 218.788 377.847C230.079 368.172 243.463 363.016 251.862 361.255L303.436 364.72Z" fill="white" stroke="black" stroke-width="3"/>
<path d="M281.986 538.652L318.478 508.186C318.478 508.186 328.344 513.415 335.435 520.526C342.663 527.775 346.658 537.365 340.592 545.593C336.028 551.783 326.629 536.578 326.629 536.578C326.629 536.578 327.11 562.216 322.004 567.146C316.842 572.129 308.809 558.77 308.809 558.77C308.809 558.77 306.908 574.641 303.528 578.403C300.67 581.584 292.912 582.561 292.912 582.561C292.912 582.561 286.093 581.397 281.894 574.697C277.976 568.445 278.303 562.852 279.434 555.768C280.356 549.991 281.986 538.652 281.986 538.652Z" fill="#693875" stroke="black" stroke-width="3"/>
<path d="M375.622 650.461L343.196 357.179L365.886 350.801L418.492 650.461L375.622 650.461Z" fill="white" stroke="black" stroke-width="3"/>
<path d="M420.279 651.961H374.279C374.279 651.961 357.752 639.412 357.321 629.379C356.881 619.151 359.826 608.346 369.87 606.363C377.427 604.871 384.962 614.489 384.962 614.489C384.962 614.489 391.062 602.159 398.167 601.964C405.35 601.766 412.074 614.01 412.074 614.01C412.074 614.01 417.805 607.281 422.846 606.784C427.107 606.363 430.207 607.176 433.279 610.159C437.085 613.855 436.471 625.401 436.471 625.401C436.471 625.401 435.457 635.017 431.657 641.024C428.525 645.974 420.279 651.961 420.279 651.961Z" fill="#693875" stroke="black" stroke-width="3"/>
<path d="M173.996 175.007L485.85 189.659L477.239 348.69C476.534 361.726 465.471 371.782 452.552 371.175L187.52 358.723C174.601 358.116 164.68 347.074 165.386 334.038L173.996 175.007Z" fill="white" stroke="black" stroke-width="3"/>
<path d="M175.235 213.727C175.985 199.873 187.745 189.167 201.502 189.814L418.712 200.019C432.469 200.665 443.013 212.42 442.263 226.273L436.505 332.627C435.755 346.48 423.995 357.187 410.238 356.54L193.028 346.335C179.271 345.688 168.727 333.934 169.477 320.081L175.235 213.727Z" fill="black" stroke="black" stroke-width="3"/>
<rect width="99.5868" height="100.236" transform="matrix(0.998897 0.0468934 -0.0541059 0.998532 192.927 217.473)" stroke="black" stroke-width="3"/>
<path d="M279.744 271.72C278.246 299.359 254.763 320.719 227.294 319.429C199.824 318.14 178.769 294.689 180.267 267.05C181.764 239.411 205.247 218.051 232.717 219.34C260.187 220.63 281.241 244.081 279.744 271.72Z" fill="white"/>
<path d="M267.807 271.159C266.669 292.165 248.822 308.399 227.945 307.419C207.068 306.438 191.067 288.616 192.205 267.61C193.343 246.605 211.19 230.371 232.067 231.351C252.944 232.331 268.945 250.154 267.807 271.159Z" fill="black"/>
<path d="M267.807 271.16C266.669 292.165 248.822 308.399 227.945 307.419C207.068 306.439 191.067 288.616 192.205 267.61C193.343 246.605 211.19 230.371 232.067 231.351C252.944 232.331 268.945 250.154 267.807 271.16Z" fill="black"/>
<path d="M175.571 317.976C176.169 311.41 178.043 305.016 181.088 299.16C184.133 293.304 188.288 288.099 193.317 283.845C198.345 279.59 204.149 276.368 210.396 274.362C216.642 272.356 223.21 271.607 229.725 272.156C236.239 272.705 242.572 274.542 248.361 277.562C254.151 280.582 259.285 284.726 263.468 289.757C267.652 294.788 270.805 300.608 272.746 306.884C274.687 313.161 275.379 319.771 274.781 326.337L225.176 322.157L175.571 317.976Z" fill="black"/>
<path d="M295.506 309.419C289.227 311.317 282.648 311.954 276.145 311.293C269.642 310.632 263.342 308.686 257.605 305.567C251.868 302.447 246.806 298.215 242.709 293.112C238.611 288.009 235.558 282.135 233.724 275.825C231.89 269.515 231.311 262.893 232.019 256.338C232.727 249.782 234.71 243.42 237.853 237.616C240.996 231.812 245.238 226.68 250.337 222.511C255.437 218.343 261.293 215.221 267.572 213.323L281.539 261.371L295.506 309.419Z" fill="black"/>
<path d="M274.743 204.263C275.594 210.789 275.158 217.431 273.462 223.808C271.766 230.185 268.841 236.173 264.857 241.431C260.872 246.688 255.904 251.112 250.237 254.449C244.57 257.786 238.315 259.972 231.829 260.881C225.343 261.79 218.753 261.405 212.435 259.747C206.118 258.089 200.196 255.192 195.008 251.22C189.821 247.248 185.469 242.28 182.201 236.598C178.933 230.917 176.813 224.633 175.963 218.107L225.353 211.185L274.743 204.263Z" fill="black"/>
<rect width="99.5868" height="100.236" transform="matrix(0.998897 0.0468934 -0.0541059 0.998532 324.759 224.122)" stroke="black" stroke-width="3"/>
<path d="M400.633 277.856C399.136 305.495 375.653 326.855 348.183 325.565C320.713 324.276 299.659 300.825 301.156 273.186C302.654 245.547 326.137 224.187 353.607 225.477C381.076 226.766 402.131 250.217 400.633 277.856Z" fill="white"/>
<path d="M388.697 277.296C387.559 298.301 369.712 314.535 348.835 313.555C327.958 312.575 311.956 294.752 313.094 273.746C314.233 252.741 332.079 236.507 352.957 237.487C373.834 238.467 389.835 256.29 388.697 277.296Z" fill="black"/>
<path d="M294.626 323.02C295.223 316.454 297.098 310.06 300.143 304.204C303.187 298.347 307.343 293.143 312.371 288.889C317.4 284.634 323.203 281.412 329.45 279.406C335.697 277.4 342.265 276.651 348.779 277.2C355.294 277.749 361.626 279.586 367.416 282.606C373.206 285.626 378.339 289.769 382.523 294.801C386.707 299.832 389.86 305.652 391.801 311.928C393.742 318.205 394.433 324.815 393.836 331.381L344.231 327.201L294.626 323.02Z" fill="black"/>
<path d="M397.767 213.306C398.617 219.832 398.182 226.473 396.485 232.85C394.789 239.227 391.865 245.216 387.88 250.473C383.895 255.731 378.927 260.154 373.26 263.491C367.594 266.829 361.339 269.014 354.853 269.923C348.367 270.832 341.777 270.447 335.459 268.789C329.141 267.132 323.219 264.234 318.032 260.262C312.844 256.29 308.492 251.322 305.224 245.64C301.956 239.959 299.837 233.676 298.986 227.15L348.377 220.228L397.767 213.306Z" fill="black"/>
<path d="M427.504 316.42C421.225 318.318 414.646 318.955 408.143 318.294C401.64 317.633 395.34 315.687 389.603 312.567C383.866 309.448 378.804 305.216 374.707 300.113C370.609 295.01 367.556 289.135 365.722 282.826C363.888 276.516 363.309 269.894 364.017 263.338C364.725 256.782 366.708 250.421 369.851 244.617C372.994 238.813 377.236 233.68 382.336 229.512C387.435 225.344 393.291 222.221 399.57 220.323L413.537 268.371L427.504 316.42Z" fill="black"/>
<path d="M1001.55 324.878L1026.35 319.871L1095.74 619.632L1056.97 649.632L1001.55 324.878Z" fill="white" stroke="black" stroke-width="3"/>
<path d="M1095.1 621.3L1056.97 649.633C1056.97 649.633 1036 645.281 1030.12 637.146C1024.11 628.853 1020.62 618.213 1027.91 611.024C1033.39 605.616 1044.98 609.489 1044.98 609.489C1044.98 609.489 1043.27 595.838 1049.1 591.761C1054.98 587.638 1067.34 594.151 1067.34 594.151C1067.34 594.151 1068.41 585.378 1072.35 582.185C1075.67 579.486 1078.7 578.456 1082.91 579.253C1088.12 580.24 1093.97 590.213 1093.97 590.213C1093.97 590.213 1098.43 598.797 1098.57 605.903C1098.68 611.76 1095.1 621.3 1095.1 621.3Z" fill="#693875" stroke="black" stroke-width="3"/>
<path d="M946.728 315.213L1011.11 324.394C1011.11 324.394 864.01 363.808 846.621 392.362C829.231 420.916 858.537 499.862 858.537 499.862L809.246 499.862C809.246 499.862 794.886 430.118 809.246 387.862C823.605 345.607 927.85 317.247 946.728 315.213Z" fill="white" stroke="black" stroke-width="3"/>
<path d="M809.246 499.862L858.538 499.862C858.538 499.862 863.224 510.51 864.068 520.521C864.928 530.728 861.476 540.616 850.691 542.938C842.578 544.685 845.523 527.017 845.523 527.017C845.523 527.017 827.891 546.833 820.217 547.269C812.459 547.71 815.233 532.333 815.233 532.333C815.233 532.333 802.507 543.172 797.075 543.841C792.483 544.405 785.403 540.113 785.403 540.113C785.403 540.113 780.601 534.801 781.852 526.979C783.02 519.679 787.222 515.638 793.135 510.982C797.957 507.186 809.246 499.862 809.246 499.862Z" fill="#693875" stroke="black" stroke-width="3"/>
<path d="M807.514 280.064C901.787 272.185 953.403 196.92 976.597 233.326L947.019 275.399C929.647 285.633 804.319 315.562 787.041 317.401C769.763 319.241 758.676 330.477 758.822 328.004C758.822 328.004 747.393 299.279 732.76 295.469C718.126 291.659 713.24 287.943 807.514 280.064Z" fill="white" stroke="black" stroke-width="3"/>
<path d="M756.819 285.022L769.323 323.052C769.323 323.052 756.221 332.883 745.421 333.793C732.639 334.87 720.78 329.741 716.464 320.297C712.197 310.965 730.925 313.158 731.093 315.773C729.251 315.946 711.717 304.233 712.507 297.219C713.312 290.073 722.363 289.693 722.363 289.693C722.363 289.693 715.789 284.419 715.04 273.751C714.29 263.083 731.36 266.523 731.36 266.523C731.36 266.523 740.47 271.18 745.26 275.763C749.668 279.981 756.819 285.022 756.819 285.022Z" fill="#693875" stroke="black" stroke-width="3"/>
<path fill-rule="evenodd" clip-rule="evenodd" d="M988.061 431.103C988.061 431.103 987.517 430.556 986.651 429.619C987.713 430.153 988.283 430.71 988.061 431.103Z" fill="#693875"/>
<path d="M1018.14 426.289L1025.81 476.134C1024.14 479.972 1003.42 482.053 1001.52 482.252C999.627 482.45 983.962 480.335 979.486 475.887C976.1 472.522 972.659 468.015 972.61 463.543C972.545 457.569 980.803 454.984 985.417 456.338C979.74 454.623 967.114 442.203 970.242 433.353C972.803 426.104 982.856 427.712 986.649 429.618L986.651 429.619C987.517 430.556 988.061 431.103 988.061 431.103C988.283 430.71 987.713 430.153 986.651 429.619L986.649 429.618C983.123 425.804 974.258 415.533 974.996 409.378C976.629 395.756 993.588 399.791 1002.45 407.437C1010.43 414.327 1018.14 426.289 1018.14 426.289Z" fill="#693875"/>
<path d="M986.649 429.618L986.651 429.619M986.649 429.618C982.856 427.712 972.803 426.104 970.242 433.353C967.114 442.203 979.74 454.623 985.417 456.338C980.803 454.984 972.545 457.569 972.61 463.543C972.659 468.015 976.1 472.522 979.486 475.887C983.962 480.335 999.627 482.45 1001.52 482.252C1003.42 482.053 1024.14 479.972 1025.81 476.134L1018.14 426.289C1018.14 426.289 1010.43 414.327 1002.45 407.437C993.588 399.791 976.629 395.756 974.996 409.378C974.258 415.533 983.123 425.804 986.649 429.618ZM986.651 429.619C987.713 430.153 988.283 430.71 988.061 431.103C988.061 431.103 987.517 430.556 986.651 429.619Z" stroke="black" stroke-width="3"/>
<path d="M1170.18 409.22C1214.76 324.93 1178.9 296.179 1175.71 291.322C1175.71 291.322 1144.32 285.455 1151.63 295.617C1158.94 305.779 1157.87 347.805 1121.12 401.035C1084.37 454.264 1018.2 425.034 1018.82 425.465L1026.59 475.308C1026.14 475.872 1125.48 493.724 1170.18 409.22Z" fill="white" stroke="black" stroke-width="3"/>
<path d="M1047.99 141.253C1040.55 186.454 996.018 218.682 948.534 213.236C901.05 207.789 868.631 175.403 876.076 130.201C883.521 84.9992 928.01 44.0993 975.494 49.5457C1022.98 54.9922 1055.44 96.0508 1047.99 141.253Z" fill="white" stroke="black" stroke-width="3"/>
<path d="M1006.72 136.509C1002.84 160.083 979.619 176.891 954.854 174.05C930.089 171.21 913.161 149.796 917.044 126.222C920.927 102.648 944.15 85.8403 968.915 88.6808C993.679 91.5213 1010.61 112.935 1006.72 136.509Z" fill="#693875" stroke="black" stroke-width="3"/>
<path d="M1212.35 172.005C1204.9 217.213 1157.66 264.334 1110.16 258.887C1062.67 253.439 1030.21 212.375 1037.66 167.168C1045.1 121.96 1089.64 89.7275 1137.13 95.1746C1184.62 100.622 1219.8 126.797 1212.35 172.005Z" fill="white" stroke="black" stroke-width="3"/>
<path d="M1168.37 182.157C1164.49 205.731 1141.26 222.539 1116.5 219.699C1091.73 216.858 1074.8 195.445 1078.69 171.871C1082.57 148.297 1105.79 131.489 1130.56 134.329C1155.32 137.17 1172.25 158.583 1168.37 182.157Z" fill="#693875" stroke="black" stroke-width="3"/>
<path d="M876.648 128.788L1213.78 169.2L1188.48 329.735C1186.3 343.588 1172.59 353.387 1157.86 351.621L874.066 317.604C859.336 315.838 849.164 303.177 851.348 289.323L876.648 128.788Z" fill="white" stroke="black" stroke-width="3"/>
<path d="M875.421 169.377C877.604 155.523 891.316 145.724 906.047 147.489L1138.63 175.37C1153.37 177.136 1163.54 189.798 1161.35 203.653L1144.59 310.014C1142.41 323.869 1128.7 333.668 1113.97 331.902L881.378 304.022C866.647 302.256 856.475 289.593 858.658 275.739L875.421 169.377Z" fill="black" stroke="black" stroke-width="3"/>
<rect width="107.038" height="101.03" transform="matrix(0.993066 0.118855 -0.155943 0.987957 893.902 174.441)" stroke="black" stroke-width="3"/>
<path d="M981.691 235.797C977.34 263.36 950.018 282.856 920.666 279.343C891.313 275.83 871.044 250.638 875.395 223.075C879.746 195.513 907.068 176.017 936.42 179.53C965.773 183.043 986.041 208.235 981.691 235.797Z" fill="white"/>
<path d="M968.936 234.271C965.629 255.218 944.865 270.035 922.556 267.365C900.248 264.695 884.844 245.55 888.151 224.602C891.457 203.654 912.222 188.837 934.53 191.507C956.838 194.177 972.242 213.323 968.936 234.271Z" fill="black"/>
<path d="M869.618 273.208C870.918 266.681 873.571 260.43 877.426 254.815C881.282 249.199 886.263 244.327 892.086 240.478C897.91 236.628 904.461 233.877 911.366 232.38C918.27 230.883 925.394 230.671 932.329 231.754C939.264 232.838 945.876 235.197 951.785 238.696C957.695 242.195 962.788 246.766 966.772 252.148C970.757 257.529 973.555 263.617 975.008 270.062C976.461 276.507 976.539 283.184 975.239 289.712L922.428 281.46L869.618 273.208Z" fill="black"/>
<path d="M1006.38 255.852C1000.11 259.018 993.271 261.007 986.24 261.708C979.21 262.409 972.13 261.807 965.405 259.936C958.679 258.066 952.441 254.964 947.044 250.807C941.648 246.65 937.2 241.52 933.954 235.709C930.708 229.899 928.728 223.522 928.127 216.942C927.526 210.362 928.315 203.709 930.45 197.362C932.586 191.015 936.024 185.099 940.57 179.951C945.117 174.803 950.681 170.524 956.946 167.359L981.663 211.606L1006.38 255.852Z" fill="black"/>
<rect width="107.038" height="101.03" transform="matrix(0.993066 0.118855 -0.155943 0.987957 1035.57 192.416)" stroke="black" stroke-width="3"/>
<path d="M1111.67 252.373C1107.32 279.935 1079.99 299.431 1050.64 295.918C1021.29 292.405 1001.02 267.213 1005.37 239.651C1009.72 212.088 1037.04 192.592 1066.4 196.105C1095.75 199.618 1116.02 224.81 1111.67 252.373Z" fill="white"/>
<path d="M1098.91 250.846C1095.6 271.794 1074.84 286.611 1052.53 283.941C1030.22 281.271 1014.82 262.125 1018.13 241.177C1021.43 220.23 1042.2 205.413 1064.51 208.083C1086.81 210.753 1102.22 229.898 1098.91 250.846Z" fill="black"/>
<path d="M997.597 288.314C998.897 281.786 1001.55 275.536 1005.41 269.921C1009.26 264.305 1014.24 259.433 1020.07 255.584C1025.89 251.734 1032.44 248.983 1039.35 247.486C1046.25 245.989 1053.37 245.776 1060.31 246.86C1067.24 247.944 1073.86 250.303 1079.76 253.802C1085.67 257.301 1090.77 261.872 1094.75 267.254C1098.74 272.635 1101.53 278.723 1102.99 285.168C1104.44 291.613 1104.52 298.29 1103.22 304.818L1050.41 296.566L997.597 288.314Z" fill="black"/>
<path d="M1125.46 276.486C1118.69 278.47 1111.59 279.192 1104.57 278.609C1097.56 278.027 1090.77 276.152 1084.58 273.091C1078.39 270.031 1072.93 265.845 1068.52 260.773C1064.1 255.7 1060.81 249.841 1058.83 243.528C1056.86 237.216 1056.24 230.575 1057 223.984C1057.77 217.393 1059.91 210.981 1063.31 205.114C1066.7 199.248 1071.28 194.042 1076.78 189.793C1082.28 185.544 1088.6 182.336 1095.37 180.352L1110.42 228.419L1125.46 276.486Z" fill="black"/>
<path d="M1620.71 366.506L1641.96 348.684C1641.96 348.684 1649.2 453.04 1685.32 486.423C1721.45 519.807 1798.46 536.442 1798.46 536.442L1769.97 577.527C1769.97 577.527 1665.4 520.454 1649.12 497.294C1632.83 474.134 1618.97 417.354 1620.71 366.506Z" fill="white" stroke="black" stroke-width="3"/>
<path d="M1598.88 366.5C1599.57 366.704 1600 367.36 1599.9 368.065L1564.91 615.017C1564.84 615.504 1564.53 615.934 1564.08 616.169L1501.41 648.808C1500.88 649.084 1500.24 649.041 1499.78 648.698C1499.32 648.354 1499.11 647.773 1499.25 647.209L1571.51 360.099C1571.61 359.693 1571.88 359.341 1572.25 359.129C1572.63 358.916 1573.07 358.863 1573.47 358.983L1598.88 366.5Z" fill="white" stroke="black" stroke-width="3" stroke-linecap="round" stroke-linejoin="round"/>
<path d="M1563.35 616.472L1501 648.166C1501 648.166 1489.29 642.901 1487.76 633.173C1486.19 623.256 1488.64 615.551 1497.08 609.368C1503.78 604.46 1517.36 602.253 1517.95 604.083C1517.95 604.083 1522.94 591.694 1530.07 590.481C1537.29 589.255 1545.56 597.666 1545.56 597.666C1548.78 590.172 1554.15 585.103 1554.15 585.103C1557.31 580.31 1576.74 573.809 1576.72 587.093C1576.72 587.093 1576.92 595.775 1573.75 602.183C1571.14 607.464 1563.35 616.472 1563.35 616.472Z" fill="#693875" stroke="black" stroke-width="3"/>
<path fill-rule="evenodd" clip-rule="evenodd" d="M1882.21 465.47C1882.21 465.47 1882.99 465.314 1884.27 465.011C1883.05 464.875 1882.24 465.025 1882.21 465.47Z" fill="#693875"/>
<path d="M1859.27 445.133L1824 482.138C1823.22 486.22 1839.73 499.205 1841.23 500.401C1842.74 501.596 1857.35 508.368 1863.74 507.128C1868.57 506.19 1874.11 504.338 1876.72 500.671C1880.22 495.771 1874.65 489.144 1869.93 487.753C1875.77 489.425 1893.72 486.032 1896.14 477.019C1898.13 469.638 1888.61 465.499 1884.27 465.011L1884.27 465.011C1882.99 465.314 1882.21 465.47 1882.21 465.47C1882.24 465.025 1883.05 464.875 1884.27 465.011L1884.27 465.011C1889.48 463.779 1902.97 460.115 1905.89 454.629C1912.34 442.488 1895.52 436.598 1883.55 438.098C1872.75 439.449 1859.27 445.133 1859.27 445.133Z" fill="#693875"/>
<path d="M1884.27 465.011L1884.27 465.011M1884.27 465.011C1888.61 465.499 1898.13 469.638 1896.14 477.019C1893.72 486.032 1875.77 489.425 1869.93 487.753C1874.65 489.144 1880.22 495.771 1876.72 500.671C1874.11 504.338 1868.57 506.19 1863.74 507.128C1857.35 508.368 1842.74 501.596 1841.23 500.401C1839.73 499.205 1823.22 486.22 1824 482.138L1859.27 445.133C1859.27 445.133 1872.75 439.449 1883.55 438.098C1895.52 436.598 1912.34 442.488 1905.89 454.629C1902.97 460.115 1889.48 463.779 1884.27 465.011ZM1884.27 465.011C1883.05 464.875 1882.24 465.025 1882.21 465.47C1882.21 465.47 1882.99 465.314 1884.27 465.011Z" stroke="black" stroke-width="3"/>
<path d="M1779.55 373.759C1783.89 292.295 1749.52 280.309 1772.28 267.835C1772.28 267.835 1773.18 220.366 1781.42 236.491C1789.65 252.615 1831.59 296.783 1823.47 364.363C1815.35 431.943 1855.46 448.97 1859.97 446.356L1825.95 483.194C1826.08 489.23 1775.95 441.192 1779.55 373.759Z" fill="white" stroke="black" stroke-width="3"/>
<path d="M1404.57 292.927C1452.69 312.637 1472.4 308.435 1472.4 308.435L1483.02 360.575C1460.02 354.214 1357.32 318.939 1327.95 293.072C1298.57 267.206 1318.88 208.679 1325.43 206.472L1369.54 224.451C1369.54 224.451 1334.25 264.13 1404.57 292.927Z" fill="white" stroke="black" stroke-width="3"/>
<path d="M1368.83 224.938L1324.24 205.917C1324.24 205.917 1328.87 192.712 1335.78 184.723C1343.97 175.267 1355.11 168.973 1365.38 172.57C1375.52 176.124 1364.13 190.514 1362.01 188.818C1363.17 187.443 1382.16 182.222 1386.97 187.616C1391.87 193.112 1385.78 199.542 1385.78 199.542C1385.78 199.542 1394.45 198.714 1403.14 205.589C1411.83 212.463 1397.17 221.713 1397.17 221.713C1397.17 221.713 1387.3 225.248 1380.42 225.339C1374.08 225.422 1368.83 224.938 1368.83 224.938Z" fill="#693875" stroke="black" stroke-width="3"/>
<path d="M1799.27 537.205L1771.2 578.394C1771.2 578.394 1760.1 575.662 1750.5 570.939C1740.71 566.124 1733.53 558.117 1737.21 548.457C1739.97 541.19 1754.53 552.984 1754.53 552.984C1754.53 552.984 1745.9 528.581 1749.63 522.361C1753.39 516.073 1765.95 526.501 1765.95 526.501C1765.95 526.501 1762.89 510.749 1765.2 506.154C1767.15 502.269 1774.88 499.053 1774.88 499.053C1774.88 499.053 1782.31 498.163 1788.79 503.343C1794.83 508.177 1796.26 513.626 1797.34 520.741C1798.22 526.542 1799.27 537.205 1799.27 537.205Z" fill="#693875" stroke="black" stroke-width="3"/>
<path d="M1775.59 157.027C1781.68 202.347 1747.91 242.635 1700.16 247.013C1652.41 251.392 1611.36 226.599 1605.27 181.279C1599.18 135.959 1630.35 87.275 1678.1 82.8964C1725.85 78.5179 1769.49 111.707 1775.59 157.027Z" fill="white" stroke="black" stroke-width="3"/>
<path d="M1734.09 160.841C1737.27 184.477 1719.66 205.488 1694.76 207.771C1669.85 210.055 1647.09 192.746 1643.91 169.111C1640.74 145.475 1658.35 124.464 1683.25 122.18C1708.15 119.897 1730.91 137.206 1734.09 160.841Z" fill="#693875" stroke="black" stroke-width="3"/>
<path d="M1609.29 171.764C1615.38 217.089 1583.36 272.362 1535.61 276.741C1487.85 281.12 1444.2 247.927 1438.11 202.602C1432.02 157.277 1465.79 116.984 1513.54 112.605C1561.3 108.226 1603.2 126.439 1609.29 171.764Z" fill="white" stroke="black" stroke-width="3"/>
<path d="M1569.54 190.552C1572.72 214.188 1555.11 235.199 1530.21 237.482C1505.31 239.766 1482.54 222.457 1479.37 198.822C1476.19 175.186 1493.8 154.175 1518.7 151.891C1543.61 149.608 1566.37 166.917 1569.54 190.552Z" fill="#693875" stroke="black" stroke-width="3"/>
<path d="M1437.02 196.704L1775.59 164.063L1796.17 325.013C1797.94 338.902 1787.39 351.318 1772.6 352.744L1487.6 380.22C1472.81 381.647 1459.38 371.543 1457.6 357.654L1437.02 196.704Z" fill="white" stroke="black" stroke-width="3"/>
<path d="M1447.3 236.563C1445.52 222.673 1456.08 210.257 1470.87 208.83L1704.44 186.311C1719.24 184.885 1732.67 194.988 1734.44 208.878L1748.08 315.514C1749.85 329.404 1739.3 341.82 1724.51 343.246L1490.93 365.766C1476.14 367.192 1462.71 357.088 1460.93 343.199L1447.3 236.563Z" fill="black" stroke="black" stroke-width="3"/>
<rect width="107.287" height="100.945" transform="matrix(0.995505 -0.0958449 0.12701 0.992037 1466.81 238.392)" stroke="black" stroke-width="3"/>
<path d="M1569.35 279.208C1572.89 306.861 1551.85 331.581 1522.35 334.42C1492.86 337.26 1466.08 317.144 1462.54 289.491C1459 261.838 1480.04 237.119 1509.53 234.279C1539.03 231.44 1565.81 251.555 1569.35 279.208Z" fill="white"/>
<path d="M1556.53 280.442C1559.22 301.459 1543.23 320.245 1520.82 322.403C1498.4 324.561 1478.05 309.274 1475.36 288.257C1472.67 267.241 1488.66 248.454 1511.07 246.296C1533.49 244.138 1553.84 259.426 1556.53 280.442Z" fill="black"/>
<path d="M1470.87 343.539C1469.58 337.02 1469.68 330.35 1471.14 323.909C1472.61 317.468 1475.42 311.382 1479.42 305.999C1483.42 300.615 1488.53 296.041 1494.45 292.535C1500.38 289.03 1507 286.662 1513.94 285.568C1520.89 284.474 1528.02 284.675 1534.93 286.159C1541.84 287.642 1548.39 290.38 1554.21 294.216C1560.03 298.052 1565.01 302.911 1568.86 308.514C1572.71 314.118 1575.35 320.358 1576.64 326.876L1523.76 335.208L1470.87 343.539Z" fill="black"/>
<path d="M1568.9 337.016C1562 335.475 1555.47 332.683 1549.69 328.8C1543.9 324.916 1538.97 320.017 1535.18 314.382C1531.38 308.747 1528.8 302.487 1527.57 295.959C1526.34 289.431 1526.5 282.762 1528.03 276.334C1529.56 269.907 1532.43 263.845 1536.48 258.497C1540.53 253.148 1545.68 248.616 1551.64 245.161C1557.6 241.706 1564.24 239.394 1571.2 238.358C1578.16 237.322 1585.28 237.582 1592.18 239.123L1580.54 288.069L1568.9 337.016Z" fill="black"/>
<rect width="107.287" height="100.945" transform="matrix(0.995505 -0.0958449 0.12701 0.992037 1608.94 223.827)" stroke="black" stroke-width="3"/>
<path d="M1699.73 265.774C1703.27 293.427 1682.23 318.146 1652.73 320.985C1623.24 323.825 1596.46 303.71 1592.92 276.056C1589.38 248.403 1610.42 223.684 1639.91 220.844C1669.41 218.005 1696.18 238.12 1699.73 265.774Z" fill="white"/>
<path d="M1686.91 267.008C1689.6 288.024 1673.61 306.811 1651.19 308.969C1628.78 311.127 1608.43 295.839 1605.74 274.823C1603.05 253.806 1619.04 235.02 1641.45 232.862C1663.87 230.703 1684.22 245.991 1686.91 267.008Z" fill="black"/>
<path d="M1597.75 330.432C1596.46 323.913 1596.55 317.242 1598.02 310.801C1599.48 304.36 1602.3 298.274 1606.3 292.891C1610.3 287.508 1615.4 282.933 1621.33 279.428C1627.25 275.922 1633.87 273.555 1640.82 272.461C1647.76 271.367 1654.89 271.567 1661.8 273.051C1668.71 274.535 1675.26 277.273 1681.09 281.109C1686.91 284.944 1691.88 289.803 1695.73 295.407C1699.58 301.011 1702.22 307.25 1703.51 313.769L1650.63 322.1L1597.75 330.432Z" fill="black"/>
<path d="M1697.99 330.972C1691.09 329.431 1684.57 326.639 1678.78 322.755C1672.99 318.871 1668.06 313.972 1664.27 308.338C1660.47 302.703 1657.89 296.442 1656.66 289.914C1655.44 283.386 1655.59 276.718 1657.12 270.29C1658.65 263.862 1661.52 257.801 1665.57 252.452C1669.62 247.103 1674.77 242.572 1680.73 239.116C1686.69 235.661 1693.34 233.349 1700.29 232.313C1707.25 231.277 1714.38 231.537 1721.27 233.078L1709.63 282.025L1697.99 330.972Z" fill="black"/>
<path d="M2096.6 313.376C2152.62 392.343 2191.99 397.184 2191.99 397.184L2183.32 347.689C2183.25 339.611 2116.28 264.264 2063.93 251.069C2011.58 237.875 1985.97 287.295 1985.97 287.295L2021.07 316.081C2021.07 316.081 2052.62 251.382 2096.6 313.376Z" fill="white" stroke="black" stroke-width="3"/>
<path d="M2021.07 316.081L1985.97 287.295C1985.97 287.295 1976.23 296.56 1971.84 305.589C1966.64 316.276 1965.49 328.114 1972.91 335.165C1980.25 342.133 1988.6 326.752 1986.2 325.689C1985.44 327.223 1988.45 345.138 1995.27 346.915C2002.22 348.727 2005.55 341.025 2005.55 341.025C2005.55 341.025 2008.33 348.567 2018.07 352.96C2027.81 357.353 2030.19 341.369 2030.19 341.369C2030.19 341.369 2029.37 331.723 2026.65 325.969C2024.15 320.673 2021.07 316.081 2021.07 316.081Z" fill="#693875" stroke="black" stroke-width="3"/>
<path d="M2211.58 354.774L2251.29 346.258C2252.81 337.526 2238.35 402.768 2296.17 439.621C2353.98 476.473 2427.83 451.224 2427.83 451.224L2418.88 497.794C2418.88 497.794 2296.5 487.573 2272.82 464.394C2249.15 441.215 2229.31 402.381 2211.58 354.774Z" fill="white" stroke="black" stroke-width="3"/>
<path d="M2427.83 451.224L2419.07 497.948C2419.07 497.948 2408.13 500.195 2398.14 499.223C2387.95 498.232 2378.77 493.377 2378.21 483.17C2377.79 475.491 2394.72 481.237 2394.72 481.237C2394.72 481.237 2378.03 461.767 2378.83 454.715C2379.64 447.586 2394.34 452.778 2394.34 452.778C2394.34 452.778 2385.7 439.327 2385.91 434.274C2386.09 430.001 2391.46 424.31 2391.46 424.31C2391.46 424.31 2397.46 420.868 2404.96 423.364C2411.96 425.692 2415.27 430.214 2418.91 436.398C2421.87 441.441 2427.83 451.224 2427.83 451.224Z" fill="#693875" stroke="black" stroke-width="3"/>
<path d="M2191 388.583L2217 388.583C2217 388.583 2198.08 403.021 2191 436.583C2180.36 521.581 2191.12 566.927 2199.5 646.583L2150.5 646.583C2155.75 563.737 2154.61 466.755 2161.5 436.583C2168.4 406.41 2191 388.583 2191 388.583Z" fill="white" stroke="black" stroke-width="3"/>
<path d="M2199.51 646.583L2150.51 646.583C2150.51 646.583 2136.98 634.034 2136.55 624.001C2136.11 613.772 2139.05 602.967 2149.1 600.984C2156.65 599.493 2164.19 609.11 2164.19 609.11C2164.19 609.11 2170.29 596.78 2177.39 596.585C2184.58 596.388 2191.3 608.631 2191.3 608.631C2191.3 608.631 2197.03 601.903 2202.07 601.405C2206.33 600.985 2209.43 601.797 2212.51 604.78C2216.31 608.476 2215.7 620.022 2215.7 620.022C2215.7 620.022 2214.68 629.638 2210.88 635.645C2207.75 640.595 2199.51 646.583 2199.51 646.583Z" fill="#693875" stroke="black" stroke-width="3"/>
<path d="M2437.4 325.677C2381.4 246.703 2351.8 231.492 2351.8 231.492L2353.41 281.68C2342.62 290.902 2412.9 393.419 2458.21 399.827C2503.52 406.236 2535.24 377.443 2535.24 377.443C2535.24 377.443 2509.72 346.793 2507.78 341.885C2505.84 336.977 2480.19 386.005 2437.4 325.677Z" fill="white" stroke="black" stroke-width="3"/>
<path d="M2507.96 341.942L2535.26 377.433C2535.26 377.433 2547.91 371.228 2554.14 363.375C2561.52 354.08 2563.22 342.115 2557.5 333.628C2551.84 325.241 2544.19 340.915 2546.3 342.471C2547.38 341.142 2546.44 321.199 2540.17 317.985C2533.77 314.71 2528.87 321.5 2528.87 321.5C2528.87 321.5 2527.78 313.542 2519.22 307.145C2510.67 300.748 2504.9 315.821 2504.9 315.821C2504.9 315.821 2504.19 325.403 2505.61 331.605C2506.91 337.314 2507.96 341.942 2507.96 341.942Z" fill="#693875" stroke="black" stroke-width="3"/>
<path d="M2233.66 233.237C2238.96 277.867 2207.01 318.342 2162.31 323.64C2117.62 328.939 2078.87 277.867 2073.57 233.237C2068.28 188.607 2098.45 167.319 2143.15 162.021C2187.85 156.722 2228.37 188.607 2233.66 233.237Z" fill="white" stroke="black" stroke-width="3"/>
<path d="M2194.83 237.84C2197.59 261.114 2180.93 282.22 2157.62 284.983C2134.31 287.746 2113.18 271.12 2110.42 247.846C2107.66 224.573 2124.32 203.466 2147.63 200.703C2170.94 197.94 2192.07 214.567 2194.83 237.84Z" fill="#693875" stroke="black" stroke-width="3"/>
<circle cx="2306.42" cy="202.139" r="81.5" fill="white" stroke="black" stroke-width="3"/>
<circle cx="2306.31" cy="202.139" r="42.5" fill="#693875" stroke="black" stroke-width="3"/>
<path d="M2074 231.692L2387.8 194.491L2406.62 353.136C2408.24 366.826 2398.44 379.242 2384.73 380.867L2120.58 412.181C2106.87 413.807 2094.44 404.026 2092.81 390.336L2074 231.692Z" fill="white" stroke="black" stroke-width="3"/>
<path d="M2083.56 270.777C2081.94 257.087 2091.74 244.671 2105.45 243.046L2321.93 217.382C2335.64 215.757 2348.07 225.537 2349.7 239.227L2362.16 344.329C2363.78 358.02 2353.98 370.435 2340.27 372.061L2123.79 397.724C2110.08 399.35 2097.65 389.569 2096.02 375.879L2083.56 270.777Z" fill="black" stroke="black" stroke-width="3"/>
<rect width="99.9993" height="99.8471" transform="matrix(0.993046 -0.117723 0.11775 0.993043 2101.79 271.633)" stroke="black" stroke-width="3"/>
<path d="M2197.04 310.615C2200.29 337.995 2180.69 362.826 2153.27 366.077C2125.85 369.328 2100.98 349.767 2097.74 322.387C2094.49 295.007 2114.09 270.175 2141.51 266.924C2168.93 263.674 2193.8 283.234 2197.04 310.615Z" fill="white"/>
<path d="M2185.13 312.027C2187.59 332.836 2172.7 351.708 2151.86 354.179C2131.02 356.649 2112.12 341.783 2109.65 320.974C2107.19 300.165 2122.08 281.293 2142.92 278.823C2163.76 276.352 2182.66 291.218 2185.13 312.027Z" fill="black"/>
<path d="M2103.86 374.108C2103.29 367.567 2104.01 360.977 2105.99 354.715C2107.96 348.453 2111.15 342.641 2115.37 337.611C2119.59 332.581 2124.76 328.432 2130.58 325.4C2136.41 322.368 2142.77 320.513 2149.31 319.941C2155.86 319.368 2162.45 320.09 2168.71 322.065C2174.97 324.039 2180.78 327.228 2185.81 331.448C2190.84 335.669 2194.99 340.839 2198.02 346.663C2201.05 352.487 2202.91 358.851 2203.48 365.393L2153.67 369.75L2103.86 374.108Z" fill="black"/>
<rect width="99.9993" height="99.8471" transform="matrix(0.993046 -0.117723 0.11775 0.993043 2232.87 256.093)" stroke="black" stroke-width="3"/>
<path d="M2317.2 296.369C2320.45 323.749 2300.85 348.581 2273.43 351.832C2246 355.082 2221.14 335.522 2217.9 308.141C2214.65 280.761 2234.25 255.93 2261.67 252.679C2289.09 249.428 2313.95 268.989 2317.2 296.369Z" fill="white"/>
<path d="M2305.28 297.782C2307.75 318.591 2292.86 337.463 2272.02 339.933C2251.18 342.404 2232.28 327.538 2229.81 306.729C2227.35 285.92 2242.24 267.048 2263.08 264.577C2283.92 262.107 2302.82 276.973 2305.28 297.782Z" fill="black"/>
<path d="M2225.19 362.188C2224.05 355.722 2224.19 349.094 2225.61 342.684C2227.03 336.273 2229.7 330.205 2233.47 324.827C2237.24 319.448 2242.02 314.864 2247.56 311.336C2253.1 307.808 2259.28 305.405 2265.75 304.265C2272.21 303.125 2278.84 303.27 2285.25 304.691C2291.66 306.112 2297.73 308.782 2303.11 312.548C2308.49 316.314 2313.07 321.103 2316.6 326.641C2320.13 332.178 2322.53 338.357 2323.67 344.823L2274.43 353.506L2225.19 362.188Z" fill="black"/>
<path d="M2855.7 354.118L2881.22 346.947L2934.42 650L2888.42 650L2855.7 354.118Z" fill="white" stroke="black" stroke-width="3"/>
<path d="M2934.42 650H2888.42C2888.42 650 2871.89 637.451 2871.46 627.418C2871.02 617.19 2873.97 606.384 2884.01 604.402C2891.57 602.91 2899.1 612.527 2899.1 612.527C2899.1 612.527 2905.2 600.198 2912.31 600.002C2919.49 599.805 2926.21 612.049 2926.21 612.049C2926.21 612.049 2931.94 605.32 2936.98 604.823C2941.25 604.402 2944.35 605.215 2947.42 608.198C2951.22 611.893 2950.61 623.44 2950.61 623.44C2950.61 623.44 2949.6 633.056 2945.8 639.062C2942.66 644.013 2934.42 650 2934.42 650Z" fill="#693875" stroke="black" stroke-width="3"/>
<path d="M2906.42 361.969L2966.42 366C2966.42 366 2881.92 389.5 2881.92 417.5C2881.92 445.5 2967.39 519.048 2972.42 511L2936.92 540C2936.92 540 2851.42 465 2851.42 424C2851.42 383 2889.23 365.496 2906.42 361.969Z" fill="white" stroke="black" stroke-width="3"/>
<path d="M2936.65 540.877L2973.14 510.411C2973.14 510.411 2983.01 515.639 2990.1 522.75C2997.32 529.999 3001.32 539.59 2995.25 547.818C2990.69 554.008 2981.29 538.802 2981.29 538.802C2981.29 538.802 2981.77 564.441 2976.67 569.371C2971.5 574.354 2963.47 560.995 2963.47 560.995C2963.47 560.995 2961.57 576.865 2958.19 580.628C2955.33 583.808 2947.57 584.786 2947.57 584.786C2947.57 584.786 2940.75 583.621 2936.56 576.921C2932.64 570.669 2932.96 565.077 2934.1 557.992C2935.02 552.215 2936.65 540.877 2936.65 540.877Z" fill="#693875" stroke="black" stroke-width="3"/>
<path fill-rule="evenodd" clip-rule="evenodd" d="M3183.34 243.305C3183.34 243.305 3183.29 242.569 3183.16 241.352C3182.87 242.43 3182.91 243.192 3183.34 243.305Z" fill="#693875"/>
<path d="M3160.39 260.456L3192.07 299.147C3195.97 300.59 3210.87 287.95 3212.24 286.799C3213.61 285.647 3222.16 273.611 3221.78 267.588C3221.49 263.032 3220.4 257.672 3217.15 254.634C3212.8 250.575 3205.57 254.434 3203.59 258.471C3205.99 253.471 3205.02 236.57 3196.5 232.741C3189.52 229.606 3184.21 237.499 3183.16 241.351L3183.16 241.352C3183.29 242.569 3183.34 243.305 3183.34 243.305C3182.91 243.192 3182.87 242.43 3183.16 241.352L3183.16 241.351C3182.64 236.398 3180.81 223.488 3175.81 219.852C3164.75 211.805 3156.77 226.01 3156.67 237.15C3156.58 247.188 3160.39 260.456 3160.39 260.456Z" fill="#693875"/>
<path d="M3183.16 241.351L3183.16 241.352M3183.16 241.351C3184.21 237.499 3189.52 229.606 3196.5 232.741C3205.02 236.57 3205.99 253.471 3203.59 258.471C3205.57 254.434 3212.8 250.575 3217.15 254.634C3220.4 257.672 3221.49 263.032 3221.78 267.588C3222.16 273.611 3213.61 285.647 3212.24 286.799C3210.87 287.95 3195.97 300.59 3192.07 299.147L3160.39 260.456C3160.39 260.456 3156.58 247.188 3156.67 237.15C3156.77 226.01 3164.75 211.805 3175.81 219.852C3180.81 223.488 3182.64 236.398 3183.16 241.351ZM3183.16 241.352C3182.87 242.43 3182.91 243.192 3183.34 243.305C3183.34 243.305 3183.29 242.569 3183.16 241.352Z" stroke="black" stroke-width="3"/>
<path d="M3051.78 344.491C2961.53 317.618 2966.54 288.791 2964.99 283.404C2964.99 283.404 2973.98 248.782 2976.8 260.488C2979.62 272.194 3011.17 299.712 3073.63 310.949C3136.08 322.186 3160.48 259.785 3160.4 260.488L3192.08 299.159C3192.78 299.237 3142.26 371.433 3051.78 344.491Z" fill="white" stroke="black" stroke-width="3"/>
<path fill-rule="evenodd" clip-rule="evenodd" d="M2726.62 502.459C2726.62 502.459 2727.19 502.925 2728.17 503.663C2727.58 502.712 2727 502.222 2726.62 502.459Z" fill="#693875"/>
<path d="M2729.81 473.986L2679.92 470.623C2676.2 472.481 2675.22 491.994 2675.13 493.781C2675.03 495.568 2677.96 510.042 2682.61 513.885C2686.13 516.792 2690.79 519.663 2695.23 519.367C2701.16 518.973 2703.29 511.06 2701.71 506.853C2703.71 512.026 2716.7 522.876 2725.33 519.279C2732.39 516.333 2730.26 507.063 2728.17 503.665L2728.17 503.663C2727.19 502.925 2726.62 502.459 2726.62 502.459C2727 502.222 2727.58 502.712 2728.17 503.663L2728.17 503.665C2732.14 506.669 2742.81 514.168 2748.88 513.01C2762.31 510.445 2757.41 494.908 2749.35 487.216C2742.09 480.285 2729.81 473.986 2729.81 473.986Z" fill="#693875"/>
<path d="M2728.17 503.665L2728.17 503.663M2728.17 503.665C2730.26 507.063 2732.39 516.333 2725.33 519.279C2716.7 522.876 2703.71 512.026 2701.71 506.853C2703.29 511.06 2701.16 518.973 2695.23 519.367C2690.79 519.663 2686.13 516.792 2682.61 513.885C2677.96 510.042 2675.03 495.568 2675.13 493.781C2675.22 491.994 2676.2 472.481 2679.92 470.623L2729.81 473.986C2729.81 473.986 2742.09 480.285 2749.35 487.216C2757.41 494.908 2762.31 510.445 2748.88 513.01C2742.81 514.168 2732.14 506.669 2728.17 503.665ZM2728.17 503.663C2727.58 502.712 2727 502.222 2726.62 502.459C2726.62 502.459 2727.19 502.925 2728.17 503.663Z" stroke="black" stroke-width="3"/>
<path d="M2742.81 337.279C2824.15 289.834 2841.75 313.207 2846.74 315.764C2846.74 315.764 2862.21 347.831 2851.75 341.879C2841.28 335.927 2799.63 340.116 2748.7 377.983C2697.78 415.851 2730.24 474.51 2729.78 473.973L2679.9 470.622C2679.37 471.081 2661.26 384.846 2742.81 337.279Z" fill="white" stroke="black" stroke-width="3"/>
<path d="M2918.65 170.333C2916.39 215.219 2878.11 249.767 2833.16 247.499C2788.2 245.231 2754.54 215.521 2756.8 170.636C2759.06 125.75 2796.4 82.6857 2841.35 84.9538C2886.31 87.2219 2920.91 125.448 2918.65 170.333Z" fill="white" stroke="black" stroke-width="3"/>
<path d="M2879.59 168.363C2878.41 191.769 2858.45 209.785 2835.01 208.602C2811.57 207.42 2793.52 187.486 2794.7 164.079C2795.88 140.673 2815.84 122.657 2839.28 123.84C2862.73 125.022 2880.77 144.956 2879.59 168.363Z" fill="#693875" stroke="black" stroke-width="3"/>
<path d="M3072.23 188.167C3069.96 233.053 3030.7 282.401 2985.74 280.133C2940.79 277.864 2906.18 239.639 2908.45 194.753C2910.71 149.867 2948.98 115.319 2993.94 117.587C3038.89 119.855 3074.49 143.281 3072.23 188.167Z" fill="white" stroke="black" stroke-width="3"/>
<path d="M3032.18 200.996C3031 224.403 3011.04 242.419 2987.6 241.236C2964.15 240.053 2946.11 220.12 2947.29 196.713C2948.47 173.306 2968.43 155.29 2991.87 156.473C3015.31 157.656 3033.36 177.589 3032.18 200.996Z" fill="#693875" stroke="black" stroke-width="3"/>
<path d="M2756.69 170.586L3072.29 186.508L3064.24 346.061C3063.55 359.83 3051.81 370.427 3038.02 369.732L2772.36 356.33C2758.57 355.634 2747.95 343.908 2748.65 330.14L2756.69 170.586Z" fill="white" stroke="black" stroke-width="3"/>
<path d="M2759.56 210.721C2760.26 196.953 2772 186.355 2785.79 187.051L3003.51 198.034C3017.3 198.73 3027.92 210.456 3027.22 224.224L3021.89 329.928C3021.2 343.697 3009.46 354.295 2995.67 353.599L2777.95 342.615C2764.16 341.92 2753.54 330.194 2754.23 316.425L2759.56 210.721Z" fill="black" stroke="black" stroke-width="3"/>
<rect width="99.9993" height="99.8471" transform="matrix(0.99873 0.0503838 -0.0503571 0.998731 2777.39 214.621)" stroke="black" stroke-width="3"/>
<path d="M2864.76 269.015C2863.37 296.552 2839.89 317.748 2812.31 316.356C2784.73 314.965 2763.5 291.514 2764.89 263.977C2766.28 236.44 2789.76 215.245 2817.34 216.636C2844.92 218.027 2866.15 241.478 2864.76 269.015Z" fill="white"/>
<path d="M2852.78 268.411C2851.72 289.339 2833.87 305.447 2812.91 304.39C2791.95 303.333 2775.82 285.51 2776.87 264.582C2777.93 243.653 2795.78 227.545 2816.74 228.602C2837.7 229.66 2853.83 247.483 2852.78 268.411Z" fill="black"/>
<path d="M2762.42 318.81C2762.99 312.269 2764.84 305.904 2767.88 300.08C2770.91 294.256 2775.06 289.086 2780.09 284.865C2785.12 280.645 2790.93 277.456 2797.19 275.482C2803.45 273.507 2810.04 272.786 2816.59 273.358C2823.13 273.93 2829.49 275.785 2835.31 278.817C2841.14 281.849 2846.31 285.998 2850.53 291.028C2854.75 296.058 2857.94 301.87 2859.91 308.132C2861.89 314.395 2862.61 320.984 2862.04 327.525L2812.23 323.168L2762.42 318.81Z" fill="black"/>
<path d="M2761.42 313.996C2767.98 314.055 2774.5 312.82 2780.59 310.362C2786.67 307.904 2792.22 304.271 2796.9 299.67C2801.59 295.069 2805.32 289.59 2807.89 283.547C2810.45 277.503 2811.81 271.013 2811.87 264.448C2811.92 257.882 2810.69 251.369 2808.23 245.28C2805.77 239.191 2802.14 233.647 2797.54 228.962C2792.94 224.278 2787.46 220.545 2781.42 217.978C2775.37 215.411 2768.88 214.059 2762.32 214L2761.87 263.998L2761.42 313.996Z" fill="black"/>
<rect width="99.9993" height="99.8471" transform="matrix(0.99873 0.0503838 -0.0503571 0.998731 2909.22 221.27)" stroke="black" stroke-width="3"/>
<path d="M2985.61 275.111C2984.22 302.648 2960.74 323.843 2933.16 322.452C2905.58 321.061 2884.35 297.609 2885.74 270.072C2887.12 242.535 2910.61 221.34 2938.19 222.731C2965.76 224.123 2987 247.574 2985.61 275.111Z" fill="white"/>
<path d="M2973.62 274.506C2972.57 295.434 2954.72 311.543 2933.76 310.485C2912.8 309.428 2896.66 291.605 2897.72 270.677C2898.78 249.749 2916.62 233.641 2937.58 234.698C2958.54 235.755 2974.68 253.578 2973.62 274.506Z" fill="black"/>
<path d="M2879.42 319.81C2879.99 313.269 2881.84 306.904 2884.88 301.08C2887.91 295.256 2892.06 290.086 2897.09 285.865C2902.12 281.645 2907.93 278.456 2914.19 276.482C2920.45 274.507 2927.04 273.786 2933.59 274.358C2940.13 274.93 2946.49 276.785 2952.31 279.817C2958.14 282.849 2963.31 286.998 2967.53 292.028C2971.75 297.058 2974.94 302.87 2976.91 309.132C2978.89 315.395 2979.61 321.984 2979.04 328.525L2929.23 324.168L2879.42 319.81Z" fill="black"/>
<path d="M2878.91 322.631C2885.46 322.237 2891.87 320.557 2897.78 317.685C2903.68 314.814 2908.96 310.807 2913.32 305.894C2917.68 300.982 2921.02 295.259 2923.17 289.053C2925.31 282.847 2926.21 276.28 2925.82 269.725C2925.43 263.171 2923.75 256.758 2920.88 250.854C2918 244.949 2914 239.667 2909.09 235.311C2904.17 230.954 2898.45 227.608 2892.24 225.463C2886.04 223.318 2879.47 222.417 2872.92 222.81L2875.91 272.72L2878.91 322.631Z" fill="black"/>
<path d="M3497.28 325.245L3522.08 320.238L3591.47 620L3552.7 650L3497.28 325.245Z" fill="white" stroke="black" stroke-width="3"/>
<path d="M3590.82 621.667L3552.7 650C3552.7 650 3531.73 645.648 3525.84 637.514C3519.84 629.22 3516.34 618.58 3523.63 611.391C3529.12 605.983 3540.71 609.856 3540.71 609.856C3540.71 609.856 3539 596.206 3544.82 592.128C3550.71 588.006 3563.07 594.518 3563.07 594.518C3563.07 594.518 3564.14 585.745 3568.07 582.553C3571.4 579.853 3574.43 578.823 3578.64 579.62C3583.85 580.607 3589.7 590.58 3589.7 590.58C3589.7 590.58 3594.15 599.164 3594.29 606.27C3594.41 612.127 3590.82 621.667 3590.82 621.667Z" fill="#693875" stroke="black" stroke-width="3"/>
<path d="M3550.11 332.35L3609.54 341.532C3609.54 341.532 3473.75 380.946 3457.7 409.5C3441.65 438.054 3468.7 517 3468.7 517L3423.2 517C3423.2 517 3409.95 447.255 3423.2 405C3436.46 362.744 3532.68 334.384 3550.11 332.35Z" fill="white" stroke="black" stroke-width="3"/>
<path d="M3423.2 517L3468.7 517C3468.7 517 3473.03 527.648 3473.81 537.659C3474.6 547.865 3471.41 557.754 3461.46 560.076C3453.97 561.823 3456.69 544.154 3456.69 544.154C3456.69 544.154 3440.41 563.971 3433.33 564.407C3426.17 564.847 3428.73 549.471 3428.73 549.471C3428.73 549.471 3416.98 560.31 3411.97 560.978C3407.73 561.543 3401.19 557.25 3401.19 557.25C3401.19 557.25 3396.76 551.939 3397.91 544.116C3398.99 536.817 3402.87 532.775 3408.33 528.12C3412.78 524.323 3423.2 517 3423.2 517Z" fill="#693875" stroke="black" stroke-width="3"/>
<path d="M3350.74 404.628L3336.22 356.926C3336.22 356.926 3324.25 351.001 3314.34 349.339C3304.66 347.714 3290.89 352.007 3291.81 362.204C3292.5 369.875 3309.51 376.318 3309.51 376.318C3309.51 376.318 3294.18 382.08 3295.99 388.954C3297.82 395.902 3317.34 404.778 3317.34 404.778C3317.34 404.778 3305.46 407.209 3306.4 412.187C3307.19 416.395 3307.88 418.527 3311.6 420.637C3316.22 423.251 3327.89 423.486 3327.89 423.486C3327.89 423.486 3339.27 423.345 3343.96 418.011C3347.83 413.614 3350.74 404.628 3350.74 404.628Z" fill="#693875" stroke="black" stroke-width="3"/>
<path d="M3451.99 296.131C3491.62 207.794 3513.54 186.014 3513.54 186.014L3465.81 200.597C3472.93 203.412 3435.51 234.155 3399.05 300.429C3362.59 366.703 3331.48 356.476 3336.62 358.065L3350.93 404.56C3357.33 413.788 3412.68 383.747 3451.99 296.131Z" fill="white" stroke="black" stroke-width="3"/>
<path d="M3732.29 254.612C3635.72 261.531 3607.32 277.069 3607.32 277.069L3651.43 301.057C3651.43 301.057 3770.14 288.004 3801.38 267.802C3832.62 247.601 3825.99 192.619 3825.99 192.619L3781.43 198.324C3781.43 198.324 3810.93 248.978 3732.29 254.612Z" fill="white" stroke="black" stroke-width="3"/>
<path d="M3781.57 198.196L3825.99 192.596C3825.99 192.596 3827.04 178.542 3823.42 169.195C3819.13 158.132 3809.67 150.608 3799.45 151.256C3789.35 151.897 3799.01 166.42 3801.42 165.389C3800.82 163.787 3783.14 154.509 3777.19 158.298C3771.13 162.159 3774.51 169.822 3774.51 169.822C3774.51 169.822 3767.1 166.738 3757.25 170.886C3747.4 175.034 3757.49 187.627 3757.49 187.627C3757.49 187.627 3765.4 193.087 3771.47 195.003C3777.05 196.766 3781.57 198.196 3781.57 198.196Z" fill="#693875" stroke="black" stroke-width="3"/>
<path d="M3720.91 174.63C3714.79 219.154 3673.68 250.279 3629.09 244.149C3584.5 238.02 3553.51 205.522 3559.63 160.997C3565.75 116.473 3606.66 76.7832 3651.25 82.913C3695.84 89.0428 3727.03 130.106 3720.91 174.63Z" fill="white" stroke="black" stroke-width="3"/>
<path d="M3682.16 169.304C3678.97 192.522 3657.54 208.753 3634.28 205.556C3611.03 202.36 3594.77 180.947 3597.96 157.729C3601.15 134.51 3622.58 118.28 3645.84 121.476C3669.09 124.673 3685.35 146.086 3682.16 169.304Z" fill="#693875" stroke="black" stroke-width="3"/>
<path d="M3570.23 139.645C3564.11 184.169 3523.01 215.294 3478.41 209.164C3433.82 203.034 3402.84 170.536 3408.96 126.012C3415.07 81.4879 3455.98 41.798 3500.57 47.9278C3545.16 54.0576 3576.35 95.1207 3570.23 139.645Z" fill="white" stroke="black" stroke-width="3"/>
<path d="M3531.49 134.319C3528.3 157.537 3506.86 173.768 3483.61 170.571C3460.36 167.375 3444.09 145.961 3447.28 122.743C3450.47 99.5251 3471.91 83.2944 3495.16 86.4909C3518.42 89.6874 3534.68 111.101 3531.49 134.319Z" fill="#693875" stroke="black" stroke-width="3"/>
<path d="M3408.85 125.954L3721.91 168.986L3700.16 327.255C3698.28 340.912 3685.67 350.46 3671.99 348.58L3408.47 312.356C3394.79 310.476 3385.22 297.88 3387.1 284.222L3408.85 125.954Z" fill="white" stroke="black" stroke-width="3"/>
<path d="M3408.26 166.187C3410.14 152.529 3422.75 142.982 3436.43 144.862L3652.39 174.549C3666.07 176.429 3675.64 189.025 3673.76 202.683L3659.35 307.536C3657.47 321.193 3644.86 330.741 3631.19 328.861L3415.22 299.174C3401.54 297.294 3391.97 284.698 3393.85 271.04L3408.26 166.187Z" fill="black" stroke="black" stroke-width="3"/>
<rect width="99.9993" height="99.8471" transform="matrix(0.990684 0.136179 -0.136152 0.990688 3425.68 171.607)" stroke="black" stroke-width="3"/>
<path d="M3508.05 233.321C3504.29 260.636 3479.07 279.731 3451.72 275.971C3424.36 272.21 3405.23 247.019 3408.98 219.703C3412.73 192.388 3437.95 173.293 3465.31 177.054C3492.67 180.814 3511.8 206.006 3508.05 233.321Z" fill="white"/>
<path d="M3496.16 231.687C3493.31 252.447 3474.14 266.959 3453.35 264.101C3432.56 261.243 3418.01 242.097 3420.87 221.338C3423.72 200.578 3442.89 186.066 3463.68 188.924C3484.47 191.782 3499.01 210.928 3496.16 231.687Z" fill="black"/>
<path d="M3399.7 271.24C3400.84 264.774 3403.24 258.596 3406.77 253.058C3410.3 247.52 3414.88 242.731 3420.26 238.965C3425.64 235.199 3431.71 232.529 3438.12 231.108C3444.53 229.687 3451.16 229.542 3457.62 230.682C3464.09 231.823 3470.27 234.225 3475.81 237.753C3481.34 241.281 3486.13 245.865 3489.9 251.244C3493.66 256.623 3496.33 262.69 3497.76 269.101C3499.18 275.511 3499.32 282.139 3498.18 288.605L3448.94 279.923L3399.7 271.24Z" fill="black"/>
<path d="M3399.94 250.339C3406.26 252.101 3412.87 252.599 3419.39 251.806C3425.91 251.012 3432.21 248.943 3437.93 245.716C3443.64 242.488 3448.67 238.167 3452.72 232.997C3456.77 227.827 3459.76 221.91 3461.52 215.585C3463.28 209.259 3463.78 202.649 3462.98 196.131C3462.19 189.613 3460.12 183.315 3456.89 177.597C3453.67 171.879 3449.35 166.852 3444.18 162.804C3439.01 158.756 3433.09 155.766 3426.76 154.005L3413.35 202.172L3399.94 250.339Z" fill="black"/>
<rect width="99.9993" height="99.8471" transform="matrix(0.990684 0.136179 -0.136152 0.990688 3556.45 189.581)" stroke="black" stroke-width="3"/>
<path d="M3627.92 249.798C3624.17 277.113 3598.95 296.208 3571.59 292.448C3544.23 288.687 3525.1 263.495 3528.85 236.18C3532.61 208.865 3557.83 189.77 3585.18 193.53C3612.54 197.291 3631.67 222.483 3627.92 249.798Z" fill="white"/>
<path d="M3616.03 248.164C3613.18 268.924 3594.01 283.436 3573.22 280.578C3552.43 277.72 3537.89 258.574 3540.74 237.814C3543.59 217.055 3562.76 202.543 3583.55 205.401C3604.34 208.259 3618.89 227.404 3616.03 248.164Z" fill="black"/>
<path d="M3517.7 284.24C3518.84 277.774 3521.24 271.596 3524.77 266.058C3528.3 260.52 3532.88 255.731 3538.26 251.965C3543.64 248.199 3549.71 245.529 3556.12 244.108C3562.53 242.687 3569.16 242.542 3575.62 243.682C3582.09 244.823 3588.27 247.225 3593.81 250.753C3599.34 254.281 3604.13 258.865 3607.9 264.244C3611.66 269.623 3614.33 275.69 3615.76 282.101C3617.18 288.511 3617.32 295.139 3616.18 301.605L3566.94 292.923L3517.7 284.24Z" fill="black"/>
<path d="M3522.7 268.429C3529.16 269.588 3535.79 269.463 3542.21 268.061C3548.62 266.659 3554.7 264.007 3560.09 260.257C3565.48 256.506 3570.07 251.731 3573.62 246.204C3577.16 240.677 3579.58 234.505 3580.74 228.042C3581.9 221.579 3581.78 214.951 3580.37 208.537C3578.97 202.122 3576.32 196.047 3572.57 190.657C3568.82 185.267 3564.04 180.669 3558.52 177.125C3552.99 173.58 3546.82 171.159 3540.36 170L3531.53 219.215L3522.7 268.429Z" fill="black"/>
<path d="M4280.36 565.74L4307.44 521.5C4307.44 521.5 4328.2 523.569 4336.45 529.3C4344.86 535.142 4351.67 544.027 4347.17 553.222C4343.79 560.14 4331.57 560.315 4331.57 560.315C4331.57 560.315 4337.69 572.635 4333.54 578.408C4329.35 584.244 4315.54 582.184 4315.54 582.184C4315.54 582.184 4317.42 590.819 4314.77 595.132C4312.52 598.779 4310 600.754 4305.76 601.394C4300.52 602.185 4291.7 594.707 4291.7 594.707C4291.7 594.707 4284.66 588.079 4282.18 581.418C4280.14 575.928 4280.36 565.74 4280.36 565.74Z" fill="#693875" stroke="black" stroke-width="3"/>
<path d="M4142.48 354.822L4168.7 344.5C4168.7 344.5 4173.6 439.616 4206.94 473C4240.28 506.383 4307.44 521 4307.44 521L4280.26 565.842C4280.26 565.842 4183.73 508.77 4168.7 485.609C4153.67 462.449 4140.87 405.669 4142.48 354.822Z" fill="white" stroke="black" stroke-width="3"/>
<path d="M4202.31 338.058L4226.45 345.617L4142.86 641.733L4094.44 649.349L4202.31 338.058Z" fill="white" stroke="black" stroke-width="3"/>
<path d="M4142.94 642L4094.44 650C4094.44 650 4088.68 639.27 4086.45 629.479C4084.18 619.497 4085.9 609.25 4095.41 605.504C4102.57 602.687 4102.45 620.562 4102.45 620.562C4102.45 620.562 4115.67 598.589 4122.61 597.128C4129.63 595.65 4129.34 611.235 4129.34 611.235C4129.34 611.235 4139.38 598.803 4144.24 597.412C4148.36 596.237 4155.45 599.533 4155.45 599.533C4155.45 599.533 4160.6 604.144 4160.6 612.051C4160.59 619.429 4157.35 623.992 4152.62 629.392C4148.77 633.796 4142.94 642 4142.94 642Z" fill="#693875" stroke="black" stroke-width="3"/>
<path fill-rule="evenodd" clip-rule="evenodd" d="M4446.98 332.811C4446.98 332.811 4446.8 333.528 4446.47 334.707C4446.37 333.595 4446.53 332.851 4446.98 332.811Z" fill="#693875"/>
<path d="M4427.2 312.083L4464.87 279.197C4468.95 278.423 4481.54 293.364 4482.7 294.727C4483.86 296.09 4490.3 309.382 4488.92 315.257C4487.88 319.702 4485.91 324.806 4482.2 327.261C4477.24 330.541 4470.75 325.533 4469.47 321.223C4471 326.553 4467.23 343.056 4458.19 345.414C4450.79 347.346 4446.87 338.68 4446.47 334.708L4446.47 334.707C4446.8 333.528 4446.98 332.811 4446.98 332.811C4446.53 332.851 4446.37 333.595 4446.47 334.707L4446.47 334.708C4445.13 339.504 4441.18 351.931 4435.65 354.685C4423.4 360.781 4417.9 345.447 4419.65 334.446C4421.24 324.533 4427.2 312.083 4427.2 312.083Z" fill="#693875"/>
<path d="M4446.47 334.708L4446.47 334.707M4446.47 334.708C4446.87 338.68 4450.79 347.346 4458.19 345.414C4467.23 343.056 4471 326.553 4469.47 321.223C4470.75 325.533 4477.24 330.541 4482.2 327.261C4485.91 324.806 4487.88 319.702 4488.92 315.257C4490.3 309.382 4483.86 296.09 4482.7 294.727C4481.54 293.364 4468.95 278.423 4464.87 279.197L4427.2 312.083C4427.2 312.083 4421.24 324.533 4419.65 334.446C4417.9 345.447 4423.4 360.781 4435.65 354.685C4441.18 351.931 4445.13 339.504 4446.47 334.708ZM4446.47 334.707C4446.37 333.595 4446.53 332.851 4446.98 332.811C4446.98 332.811 4446.8 333.528 4446.47 334.707Z" stroke="black" stroke-width="3"/>
<path d="M4334.07 211.158C4240.61 222.651 4240.76 251.909 4238.34 256.964C4238.34 256.964 4245.44 291.853 4250.16 280.779C4254.89 269.705 4290.58 247.816 4354.03 247.12C4417.48 246.424 4427.17 312.759 4427.22 312.053L4464.88 279.187C4465.58 279.227 4427.78 199.636 4334.07 211.158Z" fill="white" stroke="black" stroke-width="3"/>
<path fill-rule="evenodd" clip-rule="evenodd" d="M3944.12 288.419C3944.12 288.419 3943.88 287.723 3943.51 286.554C3944.21 287.429 3944.47 288.144 3944.12 288.419Z" fill="#693875"/>
<path d="M3971.98 295.112L3958.16 343.168C3955.14 346.035 3936.46 340.306 3934.75 339.789C3933.04 339.272 3920.43 331.592 3918.4 325.909C3916.86 321.61 3915.75 316.255 3917.54 312.179C3919.93 306.732 3928.09 307.423 3931.51 310.349C3927.32 306.705 3921.55 290.791 3927.86 283.909C3933.04 278.272 3941.03 283.428 3943.51 286.553L3943.51 286.554C3943.88 287.723 3944.12 288.419 3944.12 288.419C3944.47 288.144 3944.21 287.429 3943.51 286.554L3943.51 286.553C3942.04 281.795 3938.62 269.213 3941.78 263.899C3948.76 252.136 3961.7 262.035 3966.19 272.231C3970.24 281.418 3971.98 295.112 3971.98 295.112Z" fill="#693875"/>
<path d="M3943.51 286.553L3943.51 286.554M3943.51 286.553C3941.03 283.428 3933.04 278.272 3927.86 283.909C3921.55 290.791 3927.32 306.705 3931.51 310.349C3928.09 307.423 3919.93 306.732 3917.54 312.179C3915.75 316.255 3916.86 321.61 3918.4 325.909C3920.43 331.592 3933.04 339.272 3934.75 339.789C3936.46 340.306 3955.14 346.035 3958.16 343.168L3971.98 295.112C3971.98 295.112 3970.24 281.418 3966.19 272.231C3961.7 262.035 3948.76 252.136 3941.78 263.899C3938.62 269.213 3942.04 281.795 3943.51 286.553ZM3943.51 286.554C3944.21 287.429 3944.47 288.144 3944.12 288.419C3944.12 288.419 3943.88 287.723 3943.51 286.554Z" stroke="black" stroke-width="3"/>
<path d="M4104.95 329.423C4177.25 269.091 4161.26 244.586 4160.56 239.026C4160.56 239.026 4135.67 213.56 4137.71 225.428C4139.74 237.295 4121.62 275.038 4068.68 310.027C4015.74 345.015 3971.63 294.531 3971.98 295.146L3958.15 343.184C3957.54 343.532 4032.46 389.909 4104.95 329.423Z" fill="white" stroke="black" stroke-width="3"/>
<path d="M4332.8 145.49C4337.91 190.142 4305.8 230.485 4261.08 235.601C4216.36 240.716 4178.28 216.913 4173.17 172.262C4168.06 127.611 4197.86 79.019 4242.57 73.9039C4287.29 68.7888 4327.69 100.839 4332.8 145.49Z" fill="white" stroke="black" stroke-width="3"/>
<path d="M4293.94 149.935C4296.61 173.219 4279.86 194.257 4256.54 196.925C4233.22 199.592 4212.16 182.879 4209.49 159.594C4206.83 136.31 4223.57 115.272 4246.89 112.604C4270.21 109.937 4291.28 126.65 4293.94 149.935Z" fill="#693875" stroke="black" stroke-width="3"/>
<path d="M4179.19 167.115C4184.3 211.766 4153.63 266.872 4108.91 271.987C4064.19 277.102 4027.05 246.151 4021.94 201.5C4011.44 155 4045.69 115.406 4090.41 110.29C4135.13 105.175 4174.08 122.463 4179.19 167.115Z" fill="white" stroke="black" stroke-width="3"/>
<path d="M4141.78 186.321C4144.44 209.606 4127.7 230.644 4104.38 233.311C4081.06 235.979 4059.99 219.265 4057.33 195.981C4054.66 172.697 4071.41 151.658 4094.73 148.991C4118.05 146.324 4139.11 163.037 4141.78 186.321Z" fill="#693875" stroke="black" stroke-width="3"/>
<path d="M4020.28 189.351L4334.23 153.438L4352.39 312.158C4353.95 325.855 4344.1 338.23 4330.39 339.8L4066.11 370.03C4052.39 371.599 4040 361.768 4038.44 348.071L4020.28 189.351Z" fill="white" stroke="black" stroke-width="3"/>
<path d="M4029.67 228.475C4028.11 214.778 4037.96 202.403 4051.68 200.834L4268.26 176.058C4281.98 174.489 4294.37 184.321 4295.94 198.017L4307.97 303.17C4309.54 316.866 4299.69 329.242 4285.97 330.811L4069.38 355.586C4055.66 357.155 4043.27 347.324 4041.71 333.627L4029.67 228.475Z" fill="black" stroke="black" stroke-width="3"/>
<rect width="99.9993" height="99.8471" transform="matrix(0.993521 -0.113649 0.113676 0.993518 4047.9 229.406)" stroke="black" stroke-width="3"/>
<path d="M4142.99 268.778C4146.12 296.171 4126.42 320.922 4098.99 324.06C4071.55 327.198 4046.77 307.536 4043.64 280.143C4040.5 252.749 4060.2 227.999 4087.64 224.86C4115.07 221.722 4139.86 241.385 4142.99 268.778Z" fill="white"/>
<path d="M4131.07 270.142C4133.45 290.961 4118.48 309.771 4097.63 312.156C4076.78 314.541 4057.94 299.598 4055.56 278.779C4053.18 257.96 4068.15 239.149 4089 236.764C4109.85 234.379 4128.69 249.323 4131.07 270.142Z" fill="black"/>
<path d="M4047.8 329.525C4047.22 322.984 4047.95 316.394 4049.92 310.132C4051.89 303.87 4055.08 298.058 4059.3 293.028C4063.52 287.998 4068.69 283.849 4074.52 280.817C4080.34 277.785 4086.71 275.93 4093.25 275.358C4099.79 274.786 4106.38 275.507 4112.64 277.482C4118.9 279.456 4124.72 282.645 4129.75 286.865C4134.78 291.086 4138.92 296.256 4141.96 302.08C4144.99 307.904 4146.84 314.269 4147.42 320.81L4097.61 325.168L4047.8 329.525Z" fill="black"/>
<path d="M4047.47 317.663C4053.98 316.807 4060.26 314.678 4065.94 311.396C4071.63 308.114 4076.62 303.744 4080.62 298.536C4084.61 293.328 4087.55 287.383 4089.25 281.041C4090.95 274.699 4091.38 268.084 4090.53 261.574C4089.67 255.064 4087.54 248.786 4084.26 243.099C4080.98 237.412 4076.61 232.426 4071.4 228.428C4066.19 224.43 4060.25 221.496 4053.91 219.796C4047.56 218.095 4040.95 217.66 4034.44 218.515L4040.95 268.089L4047.47 317.663Z" fill="black"/>
<path d="M4043.44 224.781C4044.87 231.189 4047.55 237.253 4051.32 242.626C4055.09 248 4059.89 252.577 4065.43 256.097C4070.98 259.618 4077.16 262.012 4083.62 263.143C4090.09 264.274 4096.72 264.12 4103.13 262.69C4109.54 261.26 4115.6 258.581 4120.97 254.808C4126.35 251.034 4130.93 246.239 4134.45 240.696C4137.97 235.154 4140.36 228.972 4141.49 222.504C4142.62 216.036 4142.47 209.408 4141.04 203L4092.24 213.89L4043.44 224.781Z" fill="black"/>
<rect width="99.9993" height="99.8471" transform="matrix(0.993521 -0.113649 0.113676 0.993518 4179.04 214.404)" stroke="black" stroke-width="3"/>
<path d="M4263.21 255.025C4266.34 282.418 4246.64 307.169 4219.21 310.308C4191.77 313.446 4166.99 293.783 4163.85 266.39C4160.72 238.997 4180.42 214.246 4207.86 211.108C4235.29 207.969 4260.07 227.632 4263.21 255.025Z" fill="white"/>
<path d="M4251.28 256.389C4253.67 277.208 4238.69 296.018 4217.84 298.404C4196.99 300.789 4178.16 285.845 4175.78 265.026C4173.39 244.207 4188.37 225.397 4209.22 223.012C4230.07 220.627 4248.9 235.57 4251.28 256.389Z" fill="black"/>
<path d="M4168.8 316.525C4168.22 309.984 4168.95 303.394 4170.92 297.132C4172.89 290.87 4176.08 285.058 4180.3 280.028C4184.52 274.998 4189.69 270.849 4195.52 267.817C4201.34 264.785 4207.71 262.93 4214.25 262.358C4220.79 261.785 4227.38 262.507 4233.64 264.482C4239.9 266.456 4245.72 269.645 4250.75 273.865C4255.78 278.086 4259.92 283.256 4262.96 289.08C4265.99 294.904 4267.84 301.268 4268.42 307.81L4218.61 312.167L4168.8 316.525Z" fill="black"/>
<path d="M4157.44 218.78C4158.87 225.189 4161.55 231.253 4165.32 236.626C4169.09 242 4173.89 246.577 4179.43 250.097C4184.98 253.617 4191.16 256.012 4197.62 257.143C4204.09 258.274 4210.72 258.12 4217.13 256.69C4223.54 255.26 4229.6 252.581 4234.97 248.808C4240.35 245.034 4244.93 240.239 4248.45 234.696C4251.97 229.153 4254.36 222.972 4255.49 216.504C4256.62 210.036 4256.47 203.408 4255.04 197L4206.24 207.89L4157.44 218.78Z" fill="black"/>
<path d="M4159.44 313.91C4166 314.188 4172.55 313.172 4178.72 310.919C4184.88 308.665 4190.55 305.22 4195.38 300.778C4200.22 296.336 4204.13 290.985 4206.9 285.031C4209.67 279.076 4211.24 272.635 4211.51 266.075C4211.79 259.515 4210.78 252.964 4208.52 246.797C4206.27 240.629 4202.82 234.966 4198.38 230.131C4193.94 225.295 4188.59 221.382 4182.64 218.614C4176.68 215.846 4170.24 214.278 4163.68 214L4161.56 263.955L4159.44 313.91Z" fill="black"/>
<path d="M4832.52 400L4867.02 396C4873.12 385.448 4859.84 442.546 4913.52 477C4967.2 511.454 5053.49 474.228 5052.02 477.5C5052.02 477.5 5051.01 528.634 5051.02 533.5C5051.03 538.366 4917.08 533.508 4890.52 505.5C4863.96 477.492 4838.52 449.5 4832.52 400Z" fill="white" stroke="black" stroke-width="3"/>
<path d="M5052.02 477.5L5051.16 534.21C5051.16 534.21 5040.71 538.148 5030.69 538.759C5020.47 539.381 5010.64 536.03 5008.48 526.038C5006.86 518.52 5024.48 521.534 5024.48 521.534C5024.48 521.534 5004.94 504.93 5004.62 497.839C5004.3 490.672 5019.64 493.489 5019.64 493.489C5019.64 493.489 5008.99 481.562 5008.41 476.538C5007.92 472.291 5012.32 465.827 5012.32 465.827C5012.32 465.827 5017.7 461.485 5025.5 462.77C5032.79 463.97 5037.26 464.626 5042.52 469.5C5046.7 473.366 5052.41 476.942 5052.02 477.5Z" fill="#693875" stroke="black" stroke-width="3"/>
<path d="M4899.52 390L4948.02 387C4945.7 386.439 4919.91 400.308 4911.02 436C4904.36 522.225 4910.43 571.423 4914.38 649.714L4865.38 649.714C4870.63 566.869 4869.49 469.886 4876.38 439.714C4883.28 409.542 4899.52 390 4899.52 390Z" fill="white" stroke="black" stroke-width="3"/>
<path d="M4914.38 649.714L4865.38 649.714C4865.38 649.714 4851.86 637.166 4851.43 627.133C4850.99 616.904 4853.93 606.099 4863.98 604.116C4871.53 602.624 4879.07 612.242 4879.07 612.242C4879.07 612.242 4885.17 599.912 4892.27 599.717C4899.46 599.519 4906.18 611.763 4906.18 611.763C4906.18 611.763 4911.91 605.035 4916.95 604.537C4921.21 604.117 4924.31 604.929 4927.38 607.912C4931.19 611.608 4930.58 623.154 4930.58 623.154C4930.58 623.154 4929.56 632.77 4925.76 638.777C4922.63 643.727 4914.38 649.714 4914.38 649.714Z" fill="#693875" stroke="black" stroke-width="3"/>
<path d="M4743.25 335.306C4817.91 396.943 4846 395 4846 395L4833.82 357.497C4833.82 357.497 4738.9 285.021 4702.35 278.08C4665.8 271.139 4632.65 315.503 4632.65 315.503L4668.84 342.127C4668.84 342.127 4682.45 285.115 4743.25 335.306Z" fill="white" stroke="black" stroke-width="3"/>
<path d="M4668.65 342.122L4632.64 315.519C4632.64 315.519 4622.18 324.968 4618.35 334.233C4613.82 345.2 4615.47 357.172 4623.32 363.754C4631.07 370.259 4634.1 353.085 4631.65 352.17C4630.98 353.745 4637.37 372.659 4644.28 374.021C4651.33 375.408 4654.18 367.53 4654.18 367.53C4654.18 367.53 4657.42 374.881 4667.4 378.674C4677.39 382.467 4678.78 366.39 4678.78 366.39C4678.78 366.39 4676.83 356.983 4673.76 351.41C4670.94 346.28 4668.65 342.122 4668.65 342.122Z" fill="#693875" stroke="black" stroke-width="3"/>
<path fill-rule="evenodd" clip-rule="evenodd" d="M5095.92 456.31C5095.92 456.31 5095.31 456.718 5094.26 457.357C5094.94 456.468 5095.57 456.037 5095.92 456.31Z" fill="#693875"/>
<path d="M5095.53 427.662L5145.51 429.187C5149.03 431.4 5148.09 450.915 5148.01 452.703C5147.94 454.491 5143.61 468.609 5138.6 471.979C5134.82 474.529 5129.9 476.931 5125.51 476.204C5119.64 475.231 5118.3 467.148 5120.29 463.116C5117.79 468.069 5103.8 477.597 5095.57 473.176C5088.83 469.554 5091.85 460.536 5094.26 457.359L5094.26 457.357C5095.31 456.718 5095.92 456.31 5095.92 456.31C5095.57 456.037 5094.94 456.468 5094.26 457.357L5094.26 457.359C5090.02 459.961 5078.67 466.382 5072.74 464.636C5059.62 460.771 5066.01 445.787 5074.79 438.919C5082.69 432.73 5095.53 427.662 5095.53 427.662Z" fill="#693875"/>
<path d="M5094.26 457.359L5094.26 457.357M5094.26 457.359C5091.85 460.536 5088.83 469.554 5095.57 473.176C5103.8 477.597 5117.79 468.069 5120.29 463.116C5118.3 467.148 5119.64 475.231 5125.51 476.204C5129.9 476.931 5134.82 474.529 5138.6 471.979C5143.61 468.609 5147.94 454.491 5148.01 452.703C5148.09 450.915 5149.03 431.4 5145.51 429.187L5095.53 427.662C5095.53 427.662 5082.69 432.73 5074.79 438.919C5066.01 445.787 5059.62 460.771 5072.74 464.636C5078.67 466.382 5090.02 459.961 5094.26 457.359ZM5094.26 457.357C5094.94 456.468 5095.57 456.037 5095.92 456.31C5095.92 456.31 5095.31 456.718 5094.26 457.357Z" stroke="black" stroke-width="3"/>
<path d="M5095.94 290.338C5019.62 235.175 4999.82 256.717 4994.61 258.775C4994.61 258.775 4982.42 263.652 4982.28 273.186C4982.15 282.72 5039.91 295.023 5086.1 330.272C5132.29 365.522 5084.01 437.687 5095.56 427.652L5145.53 429.188C5146.01 429.697 5172.45 345.643 5095.94 290.338Z" fill="white" stroke="black" stroke-width="3"/>
<path d="M4880.47 201.268C4885.77 245.898 4853.82 286.373 4809.12 291.672C4764.43 296.97 4726.25 273.324 4720.96 228.694C4715.67 184.064 4745.26 135.351 4789.96 130.052C4834.66 124.754 4875.18 156.638 4880.47 201.268Z" fill="white" stroke="black" stroke-width="3"/>
<path d="M4841.64 205.872C4844.4 229.145 4827.74 250.252 4804.43 253.015C4781.12 255.778 4759.99 239.151 4757.23 215.878C4754.47 192.604 4771.13 171.498 4794.44 168.735C4817.75 165.972 4838.88 182.598 4841.64 205.872Z" fill="#693875" stroke="black" stroke-width="3"/>
<path d="M5034.87 193.109C5040.16 237.739 5009.72 292.97 4965.02 298.269C4920.32 303.567 4879.8 271.683 4874.51 227.053C4869.21 182.423 4901.16 141.948 4945.86 136.649C4990.55 131.351 5029.57 148.479 5034.87 193.109Z" fill="white" stroke="black" stroke-width="3"/>
<path d="M4997.53 212.469C5000.29 235.742 4983.64 256.849 4960.33 259.612C4937.02 262.375 4915.89 245.748 4913.13 222.475C4910.37 199.202 4927.02 178.095 4950.33 175.332C4973.64 172.569 4994.77 189.196 4997.53 212.469Z" fill="#693875" stroke="black" stroke-width="3"/>
<path d="M4720.85 228.663L5034.65 191.463L5053.46 350.108C5055.08 363.798 5045.28 376.214 5031.57 377.839L4767.42 409.153C4753.71 410.779 4741.28 400.998 4739.66 387.308L4720.85 228.663Z" fill="white" stroke="black" stroke-width="3"/>
<path d="M4730.41 267.749C4728.78 254.059 4738.58 241.643 4752.29 240.018L4968.78 214.354C4982.49 212.729 4994.92 222.509 4996.54 236.199L5009.01 341.301C5010.63 354.991 5000.83 367.407 4987.12 369.033L4770.64 394.696C4756.92 396.322 4744.49 386.541 4742.87 372.851L4730.41 267.749Z" fill="black" stroke="black" stroke-width="3"/>
<rect width="99.9993" height="99.8471" transform="matrix(0.993046 -0.117723 0.11775 0.993043 4748.63 268.605)" stroke="black" stroke-width="3"/>
<rect width="99.9993" height="99.8471" transform="matrix(0.993046 -0.117723 0.11775 0.993043 4879.72 253.065)" stroke="black" stroke-width="3"/>
</svg>
