<svg width="3950" height="651" viewBox="0 0 3950 651" fill="none" xmlns="http://www.w3.org/2000/svg">
<path d="M3439.87 298.194C3458.46 275.444 3468.52 275.627 3474.37 275.695V312.694C3475.16 319.578 3466.83 307.587 3461.37 330.694C3455.9 353.801 3457.87 357.194 3457.87 357.194C3457.87 357.194 3402.23 364.646 3406.37 347.694C3410.51 330.742 3424.99 316.396 3439.87 298.194Z" fill="white" stroke="black" stroke-width="3"/>
<path d="M3408.37 342.694L3457.87 357.194C3457.87 357.194 3466.74 369.959 3465.38 379.284C3463.99 388.79 3461.72 394.971 3451.46 394.744C3443.73 394.574 3437.37 391.694 3437.37 391.694C3437.37 391.694 3429.12 397.911 3422.07 396.639C3414.94 395.353 3408.87 384.194 3408.87 384.194C3408.87 384.194 3394.19 388.947 3389.37 387.194C3378.37 383.194 3378.1 376.61 3379.37 372.694C3384.37 357.194 3385.37 357.194 3392.87 349.694C3396.38 346.185 3406.12 340.342 3408.37 342.694Z" fill="#693875" stroke="black" stroke-width="3"/>
<path d="M3843.62 329.293C3828.7 268.44 3764.37 239.77 3764.37 239.77L3771.13 288.682C3771.13 288.682 3793.44 291.311 3806.24 354.654C3819.04 417.998 3814.66 400.937 3814.66 400.937L3850.58 401.52C3850.58 401.52 3862.16 404.966 3843.62 329.293Z" fill="white" stroke="black" stroke-width="3"/>
<path d="M3852.85 399.692L3814.66 400.937C3814.66 400.937 3805.41 407.961 3805.53 413.886C3805.65 419.927 3808.41 426.267 3816.25 427.317C3822.15 428.107 3827.54 422.342 3827.54 422.342C3827.54 422.342 3832.81 429.544 3838.3 429.574C3843.86 429.605 3848.5 422.299 3848.5 422.299C3848.5 422.299 3853.23 426.201 3857.15 426.434C3860.46 426.631 3862.81 426.115 3865.05 424.318C3867.82 422.092 3866.83 415.286 3866.83 415.286C3866.83 415.286 3865.62 409.624 3862.42 406.125C3859.78 403.242 3852.85 399.692 3852.85 399.692Z" fill="#693875" stroke="black" stroke-width="3"/>
<path d="M3645.43 275.957L3669.37 279.395C3635.21 326.938 3621.42 391.006 3618.37 401.68C3615.32 412.353 3611.28 432.68 3603.33 464.856C3595.38 497.033 3606.37 528.68 3606.37 528.68L3564.87 566.18C3560.83 570.586 3560.38 472.431 3585.87 409.68C3611.35 346.928 3609.7 321.993 3645.43 275.957Z" fill="white" stroke="black" stroke-width="3" stroke-linecap="round" stroke-linejoin="round"/>
<path d="M3661.92 369.68H3635.23C3646.45 392.601 3651.33 407.018 3658.23 434.68C3667.81 521.056 3666.08 567.933 3649.73 648.68H3702.88C3699.59 531.531 3696.02 481.964 3685.73 430.68C3679.02 407.726 3674.74 394.682 3661.92 369.68Z" fill="white" stroke="black" stroke-width="3" stroke-linecap="round" stroke-linejoin="round"/>
<path d="M3649.81 648.928L3702.98 648.928C3702.98 648.928 3716.38 643.427 3716.96 634.17C3717.55 624.732 3704.76 607.806 3704.76 607.806L3689.55 615.068L3676.53 603.291L3662.45 614.191L3651.79 607.347L3641.98 610.863C3641.98 610.863 3637.48 629.363 3637.95 631.302C3638.43 633.242 3639.26 637.245 3642.97 642.852C3646.03 647.473 3649.81 648.928 3649.81 648.928Z" fill="#693875" stroke="black" stroke-width="3"/>
<path d="M3606.91 529.83L3564.98 566.239C3564.98 566.239 3551.13 569.192 3545 562.73C3538.74 556.142 3539.35 549.775 3545.81 541.887C3550.67 535.953 3561.21 531.44 3561.21 531.44C3561.21 531.44 3560.29 520.505 3565.56 515.736C3570.89 510.916 3579.53 512.644 3579.53 512.644C3579.53 512.644 3581.11 503.215 3584.64 499.59C3587.63 496.526 3590.93 495.569 3594.98 495.569C3600.01 495.569 3603.58 501.242 3603.58 501.242C3603.58 501.242 3608.38 508.367 3608.98 514.885C3609.48 520.256 3606.91 529.83 3606.91 529.83Z" fill="#693875" stroke="black" stroke-width="3"/>
<path d="M3625.37 224.162C3625.37 269.166 3661.86 305.649 3706.87 305.649C3751.88 305.649 3788.37 269.166 3788.37 224.162C3794.87 154.174 3751.88 142.676 3706.87 142.676C3661.86 142.676 3625.37 179.158 3625.37 224.162Z" fill="white" stroke="black" stroke-width="3"/>
<ellipse cx="81.5" cy="81.4864" rx="81.5" ry="81.4864" transform="matrix(-1 0 0 1 3635.26 119.68)" fill="white" stroke="black" stroke-width="3"/>
<path d="M3788.26 198.667H3472.26V358.636C3472.26 372.443 3483.45 383.636 3497.26 383.636H3763.26C3777.07 383.636 3788.26 372.443 3788.26 358.636V198.667Z" fill="white" stroke="black" stroke-width="3"/>
<path d="M2782.16 286.492C2806.39 269.878 2813.31 267.925 2819.16 267.993V304.992C2823.99 317.967 2810.66 299.493 2805.66 314.992C2800.66 330.492 2803.16 329.992 2803.16 329.992C2803.16 329.992 2740.34 328.306 2754.16 313.492C2767.98 298.679 2767.71 296.406 2782.16 286.492Z" fill="white" stroke="black" stroke-width="3"/>
<path d="M2753.86 316.024L2802.75 326.282C2802.75 326.282 2819.56 339.297 2816.04 346.37C2813.64 351.18 2812.45 355.016 2803.23 357.428C2796 359.318 2785.22 355.34 2785.22 355.34C2785.22 355.34 2772.91 362.793 2765.85 361.617C2758.72 360.427 2747.68 348.474 2747.68 348.474C2747.68 348.474 2740.28 354.047 2735.44 352.511C2724.41 349.008 2720.13 342.737 2720.08 339.302C2719.88 326.477 2724.19 321.204 2733.73 317.621C2738.69 315.757 2751.59 314.038 2753.86 316.024Z" fill="#693875" stroke="black" stroke-width="3"/>
<path d="M3185.16 308.993C3166.38 249.22 3109.16 232.069 3109.16 232.069L3115.93 280.981C3115.93 280.981 3153.16 284.993 3151.66 327.493C3150.16 369.993 3149.66 361.992 3149.66 361.992L3193.16 361.993C3192.08 358.018 3195.81 342.891 3185.16 308.993Z" fill="white" stroke="black" stroke-width="3"/>
<path d="M3193.16 361.493L3150.16 361.493C3150.16 361.493 3139.55 367.568 3139.66 373.493C3139.78 379.534 3142.82 383.443 3150.66 384.493C3156.57 385.283 3161.16 380.493 3161.16 380.493C3161.16 380.493 3168.67 384.729 3174.16 384.759C3179.72 384.79 3187.16 376.993 3187.16 376.993C3187.16 376.993 3192.25 382.76 3196.16 382.993C3199.47 383.19 3202.92 383.29 3205.16 381.493C3207.94 379.267 3206.66 372.993 3206.66 372.993C3206.66 372.993 3204.37 367.992 3201.16 364.493C3198.52 361.609 3193.16 361.493 3193.16 361.493Z" fill="#693875" stroke="black" stroke-width="3"/>
<path d="M2976.04 318.26L2999.97 321.698C2965.82 369.241 2946.22 432.158 2943.17 442.831C2940.12 453.504 2936 482.205 2933.93 507.16C2931.86 532.115 2939.65 571.616 2939.65 571.616L2892.4 591.979C2892.4 591.979 2892.63 490.18 2911.5 438.281C2930.37 386.381 2940.31 364.296 2976.04 318.26Z" fill="white" stroke="black" stroke-width="3" stroke-linecap="round" stroke-linejoin="round"/>
<path d="M2999.6 370.979L2971.51 375.993C2991.16 397.493 2999.49 410.817 3006.4 438.479C3009.4 489.979 3011.4 612.979 3011.4 612.979L3054.4 641.979C3054.4 641.979 3050.69 493.263 3040.4 441.979C3034.6 417.479 3020.56 385.979 2999.6 370.979Z" fill="white" stroke="black" stroke-width="3" stroke-linecap="round" stroke-linejoin="round"/>
<path d="M2939.9 571.978L2892.67 591.978C2892.67 591.978 2877.22 584.345 2872.94 575.26C2868.58 565.999 2866.94 562.763 2875.43 557.049C2881.82 552.75 2892.67 550.834 2892.67 550.834C2892.67 550.834 2896.59 544.32 2903.06 541.391C2909.61 538.43 2917.48 539.902 2917.48 539.902C2917.48 539.902 2921.76 534.361 2926.21 531.952C2929.98 529.915 2933.48 530.19 2937.47 531.753C2942.41 533.688 2944.39 540.966 2944.39 540.966C2944.39 540.966 2947.17 550.226 2945.99 557.235C2945.02 563.011 2939.9 571.978 2939.9 571.978Z" fill="#693875" stroke="black" stroke-width="3"/>
<path d="M3054.6 641.978L3011.6 612.978C3011.6 612.978 3006.16 601.326 3010.54 592.291C3015.01 583.08 3016.5 579.769 3026.28 582.792C3033.64 585.066 3041.94 592.306 3041.94 592.306C3041.94 592.306 3049.47 591.266 3055.81 594.467C3062.23 597.702 3066.03 604.754 3066.03 604.754C3066.03 604.754 3073.02 604.601 3077.7 606.556C3081.65 608.209 3083.63 611.108 3084.92 615.192C3086.52 620.251 3082.09 626.361 3082.09 626.361C3082.09 626.361 3076.64 634.343 3070.44 637.826C3065.33 640.696 3054.6 641.978 3054.6 641.978Z" fill="#693875" stroke="black" stroke-width="3"/>
<path d="M2970.16 216.461C2970.16 261.465 3006.65 297.947 3051.66 297.947C3096.67 297.947 3133.16 261.465 3133.16 216.461C3139.66 146.473 3096.67 134.975 3051.66 134.975C3006.65 134.975 2970.16 171.457 2970.16 216.461Z" fill="white" stroke="black" stroke-width="3"/>
<ellipse cx="81.5" cy="81.4864" rx="81.5" ry="81.4864" transform="matrix(-1 0 0 1 2980.05 111.979)" fill="white" stroke="black" stroke-width="3"/>
<path d="M3133.05 190.965H2817.05V350.934C2817.05 364.742 2828.25 375.934 2842.05 375.934H3108.05C3121.86 375.934 3133.05 364.742 3133.05 350.934V190.965Z" fill="white" stroke="black" stroke-width="3"/>
<path d="M2286.19 365.537H2310.37C2283.32 417.453 2272.87 482.517 2271.37 493.515C2269.87 504.513 2269.87 533.509 2271.37 558.504C2272.87 583.5 2286.19 621.494 2286.19 621.494L2241.87 644.579C2241.87 644.579 2228.07 547.571 2239.37 493.515C2250.67 439.46 2257.36 416.186 2286.19 365.537Z" fill="white" stroke="black" stroke-width="3" stroke-linecap="round" stroke-linejoin="round"/>
<path d="M2119.87 293.093C2138.46 270.343 2148.52 270.525 2154.37 270.593V307.593C2155.16 314.477 2146.83 302.485 2141.37 325.593C2135.9 348.7 2137.87 352.093 2137.87 352.093C2137.87 352.093 2082.23 359.544 2086.37 342.593C2090.51 325.641 2104.99 311.295 2119.87 293.093Z" fill="white" stroke="black" stroke-width="3"/>
<path d="M2088.37 337.593L2137.87 352.093C2137.87 352.093 2146.74 364.858 2145.38 374.183C2143.99 383.689 2141.72 389.87 2131.46 389.643C2123.73 389.473 2117.37 386.593 2117.37 386.593C2117.37 386.593 2109.12 392.81 2102.07 391.538C2094.94 390.252 2088.87 379.093 2088.87 379.093C2088.87 379.093 2074.19 383.846 2069.37 382.093C2058.37 378.093 2058.1 371.509 2059.37 367.593C2064.37 352.093 2065.37 352.093 2072.87 344.593C2076.38 341.084 2086.12 335.241 2088.37 337.593Z" fill="#693875" stroke="black" stroke-width="3"/>
<path d="M2523.62 324.192C2508.7 263.339 2444.37 234.669 2444.37 234.669L2451.13 283.581C2451.13 283.581 2473.44 286.21 2486.24 349.553C2499.04 412.897 2494.66 395.836 2494.66 395.836L2530.58 396.419C2530.58 396.419 2542.16 399.865 2523.62 324.192Z" fill="white" stroke="black" stroke-width="3"/>
<path d="M2532.85 394.591L2494.66 395.836C2494.66 395.836 2485.41 402.86 2485.53 408.785C2485.65 414.826 2488.41 421.166 2496.25 422.216C2502.15 423.006 2507.54 417.241 2507.54 417.241C2507.54 417.241 2512.81 424.443 2518.3 424.473C2523.86 424.503 2528.5 417.198 2528.5 417.198C2528.5 417.198 2533.23 421.1 2537.15 421.333C2540.46 421.53 2542.81 421.014 2545.05 419.217C2547.82 416.991 2546.83 410.185 2546.83 410.185C2546.83 410.185 2545.62 404.523 2542.42 401.024C2539.78 398.141 2532.85 394.591 2532.85 394.591Z" fill="#693875" stroke="black" stroke-width="3"/>
<path d="M2326.33 365.579H2299.63C2319.28 387.079 2330.38 388.917 2337.28 416.579C2340.28 468.079 2320.28 507.579 2320.28 507.579L2365.28 517.079C2365.28 517.079 2375.58 463.363 2365.28 412.079C2358.58 389.125 2347.28 380.579 2326.33 365.579Z" fill="white" stroke="black" stroke-width="3" stroke-linecap="round" stroke-linejoin="round"/>
<path d="M2287.3 621.243L2242.28 644.578C2242.28 644.578 2225.22 636.872 2220.57 627.972C2215.83 618.899 2214.05 615.734 2222.3 609.673C2228.51 605.114 2239.27 602.751 2239.27 602.751C2239.27 602.751 2242.92 596.081 2249.26 592.887C2255.68 589.658 2263.61 590.804 2263.61 590.804C2263.61 590.804 2267.65 585.091 2272 582.499C2275.68 580.309 2279.2 580.439 2283.24 581.835C2288.26 583.564 2290.54 590.754 2290.54 590.754C2290.54 590.754 2293.7 599.891 2292.81 606.943C2292.08 612.755 2287.3 621.243 2287.3 621.243Z" fill="#693875" stroke="black" stroke-width="3"/>
<path d="M2320.81 508.618L2366.67 518.93C2366.67 518.93 2383.53 510.688 2386.25 501.021C2389.03 491.166 2390.11 487.704 2380.79 483.471C2373.78 480.286 2362.76 480.189 2362.76 480.189C2362.76 480.189 2357.82 474.412 2350.95 472.593C2344.01 470.754 2336.48 473.507 2336.48 473.507C2336.48 473.507 2331.35 468.748 2326.56 467.108C2322.51 465.721 2319.1 466.571 2315.42 468.771C2310.87 471.495 2310.13 479 2310.13 479C2310.13 479 2308.91 488.593 2311.23 495.311C2313.14 500.847 2320.81 508.618 2320.81 508.618Z" fill="#693875" stroke="black" stroke-width="3"/>
<path d="M2305.37 219.061C2305.37 264.065 2341.86 300.547 2386.87 300.547C2431.88 300.547 2468.37 264.065 2468.37 219.061C2474.87 149.073 2431.88 137.575 2386.87 137.575C2341.86 137.575 2305.37 174.057 2305.37 219.061Z" fill="white" stroke="black" stroke-width="3"/>
<ellipse cx="81.5" cy="81.4864" rx="81.5" ry="81.4864" transform="matrix(-1 0 0 1 2315.26 114.579)" fill="white" stroke="black" stroke-width="3"/>
<path d="M2468.26 193.565H2152.26V353.535C2152.26 367.342 2163.45 378.534 2177.26 378.534H2443.26C2457.07 378.534 2468.26 367.342 2468.26 353.534V193.565Z" fill="white" stroke="black" stroke-width="3"/>
<path d="M1830.13 298.194C1811.54 275.444 1801.48 275.627 1795.63 275.695V312.694C1794.84 319.578 1803.17 307.587 1808.63 330.694C1814.1 353.801 1812.13 357.194 1812.13 357.194C1812.13 357.194 1867.77 364.646 1863.63 347.694C1859.49 330.742 1845.01 316.396 1830.13 298.194Z" fill="white" stroke="black" stroke-width="3"/>
<path d="M1861.63 342.694L1812.13 357.194C1812.13 357.194 1803.26 369.959 1804.62 379.284C1806.01 388.79 1808.27 394.971 1818.54 394.744C1826.27 394.574 1832.63 391.694 1832.63 391.694C1832.63 391.694 1840.88 397.911 1847.93 396.639C1855.06 395.353 1861.13 384.194 1861.13 384.194C1861.13 384.194 1875.81 388.947 1880.63 387.194C1891.63 383.194 1891.89 376.61 1890.63 372.694C1885.63 357.194 1884.63 357.194 1877.13 349.694C1873.62 346.185 1863.87 340.342 1861.63 342.694Z" fill="#693875" stroke="black" stroke-width="3"/>
<path d="M1426.38 329.293C1441.3 268.44 1505.63 239.77 1505.63 239.77L1498.87 288.682C1498.87 288.682 1476.56 291.311 1463.76 354.654C1450.96 417.998 1455.34 400.937 1455.34 400.937L1419.42 401.52C1419.42 401.52 1407.84 404.966 1426.38 329.293Z" fill="white" stroke="black" stroke-width="3"/>
<path d="M1417.15 399.692L1455.34 400.937C1455.34 400.937 1464.59 407.961 1464.47 413.886C1464.35 419.927 1461.59 426.267 1453.75 427.317C1447.84 428.107 1442.46 422.342 1442.46 422.342C1442.46 422.342 1437.19 429.544 1431.7 429.574C1426.14 429.605 1421.5 422.299 1421.5 422.299C1421.5 422.299 1416.77 426.201 1412.85 426.434C1409.54 426.631 1407.19 426.115 1404.95 424.318C1402.17 422.092 1403.16 415.286 1403.16 415.286C1403.16 415.286 1404.38 409.624 1407.58 406.125C1410.22 403.242 1417.15 399.692 1417.15 399.692Z" fill="#693875" stroke="black" stroke-width="3"/>
<path d="M1608.07 369.68H1634.77C1623.55 392.601 1618.67 407.018 1611.77 434.68C1602.19 521.056 1603.92 567.933 1620.27 648.68H1567.12C1570.41 531.531 1573.98 481.964 1584.27 430.68C1590.98 407.726 1595.26 394.682 1608.07 369.68Z" fill="white" stroke="black" stroke-width="3" stroke-linecap="round" stroke-linejoin="round"/>
<path d="M1623.57 267.444L1599.63 270.882C1633.79 318.425 1647.58 382.494 1650.63 393.167C1653.68 403.84 1657.72 424.167 1665.67 456.344C1673.62 488.52 1662.63 520.167 1662.63 520.167L1704.13 557.667C1708.17 562.073 1708.61 463.918 1683.13 401.167C1657.65 338.416 1659.3 313.48 1623.57 267.444Z" fill="white" stroke="black" stroke-width="3" stroke-linecap="round" stroke-linejoin="round"/>
<path d="M1620.27 648.928L1567.11 648.928C1567.11 648.928 1553.71 643.427 1553.13 634.17C1552.54 624.732 1565.32 607.806 1565.32 607.806L1580.53 615.068L1593.55 603.291L1607.63 614.191L1618.3 607.347L1628.11 610.863C1628.11 610.863 1632.61 629.363 1632.13 631.302C1631.65 633.242 1630.82 637.245 1627.11 642.852C1624.06 647.473 1620.27 648.928 1620.27 648.928Z" fill="#693875" stroke="black" stroke-width="3"/>
<path d="M1662.09 521.317L1704.02 557.727C1704.02 557.727 1717.87 560.679 1724 554.217C1730.26 547.629 1729.65 541.263 1723.19 533.374C1718.33 527.44 1707.79 522.927 1707.79 522.927C1707.79 522.927 1708.71 511.992 1703.44 507.224C1698.11 502.403 1689.47 504.131 1689.47 504.131C1689.47 504.131 1687.89 494.702 1684.35 491.078C1681.37 488.013 1678.07 487.056 1674.02 487.056C1668.99 487.056 1665.42 492.729 1665.42 492.729C1665.42 492.729 1660.62 499.855 1660.02 506.372C1659.52 511.744 1662.09 521.317 1662.09 521.317Z" fill="#693875" stroke="black" stroke-width="3"/>
<path d="M1644.63 224.162C1644.63 269.166 1608.14 305.649 1563.13 305.649C1518.12 305.649 1481.63 269.166 1481.63 224.162C1475.13 154.174 1518.12 142.676 1563.13 142.676C1608.14 142.676 1644.63 179.158 1644.63 224.162Z" fill="white" stroke="black" stroke-width="3"/>
<ellipse cx="1716.24" cy="201.166" rx="81.5" ry="81.4864" fill="white" stroke="black" stroke-width="3"/>
<path d="M1481.74 198.667H1797.74V358.636C1797.74 372.443 1786.55 383.636 1772.74 383.636H1506.74C1492.93 383.636 1481.74 372.443 1481.74 358.636V198.667Z" fill="white" stroke="black" stroke-width="3"/>
<path d="M973.96 318.26L950.026 321.698C984.181 369.241 1003.78 432.158 1006.83 442.831C1009.88 453.504 1014 482.205 1016.07 507.16C1018.14 532.115 1010.35 571.616 1010.35 571.616L1057.6 591.979C1057.6 591.979 1057.37 490.18 1038.5 438.281C1019.63 386.381 1009.69 364.296 973.96 318.26Z" fill="white" stroke="black" stroke-width="3" stroke-linecap="round" stroke-linejoin="round"/>
<path d="M951.793 375.993H978.489C958.837 397.493 950.506 410.817 943.604 438.479C940.604 489.979 938.604 612.979 938.604 612.979L895.604 641.979C895.604 641.979 899.308 493.263 909.604 441.979C909.604 418.479 930.837 390.993 951.793 375.993Z" fill="white" stroke="black" stroke-width="3" stroke-linecap="round" stroke-linejoin="round"/>
<path d="M1167.84 286.492C1143.61 269.878 1136.68 267.925 1130.84 267.993V304.992C1126.01 317.967 1139.34 299.493 1144.34 314.992C1149.34 330.492 1146.84 329.992 1146.84 329.992C1146.84 329.992 1209.66 328.306 1195.84 313.492C1182.02 298.679 1182.29 296.406 1167.84 286.492Z" fill="white" stroke="black" stroke-width="3"/>
<path d="M1196.14 316.024L1147.25 326.282C1147.25 326.282 1130.44 339.297 1133.96 346.37C1136.36 351.18 1137.55 355.016 1146.77 357.428C1154 359.318 1164.78 355.34 1164.78 355.34C1164.78 355.34 1177.09 362.793 1184.15 361.617C1191.28 360.427 1202.32 348.474 1202.32 348.474C1202.32 348.474 1209.72 354.047 1214.55 352.511C1225.59 349.008 1229.87 342.737 1229.92 339.302C1230.12 326.477 1225.81 321.204 1216.27 317.621C1211.31 315.757 1198.41 314.038 1196.14 316.024Z" fill="#693875" stroke="black" stroke-width="3"/>
<path d="M764.837 308.993C783.619 249.22 840.838 232.069 840.838 232.069L834.072 280.981C834.072 280.981 796.837 284.993 798.337 327.493C799.837 369.993 800.337 361.992 800.337 361.992L756.837 361.993C757.924 358.018 754.185 342.891 764.837 308.993Z" fill="white" stroke="black" stroke-width="3"/>
<path d="M756.837 361.493L799.837 361.493C799.837 361.493 810.453 367.568 810.337 373.493C810.218 379.534 807.182 383.443 799.337 384.493C793.434 385.283 788.837 380.493 788.837 380.493C788.837 380.493 781.332 384.729 775.837 384.759C770.281 384.79 762.837 376.993 762.837 376.993C762.837 376.993 757.752 382.76 753.837 382.993C750.526 383.19 747.076 383.29 744.837 381.493C742.063 379.267 743.337 372.993 743.337 372.993C743.337 372.993 745.633 367.992 748.837 364.493C751.477 361.609 756.837 361.493 756.837 361.493Z" fill="#693875" stroke="black" stroke-width="3"/>
<path d="M1010.1 571.978L1057.33 591.978C1057.33 591.978 1072.78 584.345 1077.06 575.26C1081.42 565.999 1083.06 562.763 1074.57 557.049C1068.18 552.75 1057.33 550.834 1057.33 550.834C1057.33 550.834 1053.41 544.32 1046.94 541.391C1040.39 538.43 1032.52 539.902 1032.52 539.902C1032.52 539.902 1028.24 534.361 1023.79 531.952C1020.02 529.915 1016.52 530.19 1012.53 531.753C1007.59 533.688 1005.61 540.966 1005.61 540.966C1005.61 540.966 1002.83 550.226 1004.01 557.235C1004.98 563.011 1010.1 571.978 1010.1 571.978Z" fill="#693875" stroke="black" stroke-width="3"/>
<path d="M895.604 641.978L938.604 612.978C938.604 612.978 944.05 601.326 939.667 592.291C935.199 583.08 933.712 579.769 923.931 582.792C916.572 585.066 908.27 592.306 908.27 592.306C908.27 592.306 900.739 591.266 894.393 594.467C887.978 597.702 884.18 604.754 884.18 604.754C884.18 604.754 877.184 604.601 872.511 606.556C868.56 608.209 866.574 611.108 865.286 615.192C863.691 620.251 868.114 626.361 868.114 626.361C868.114 626.361 873.571 634.343 879.767 637.826C884.873 640.696 895.604 641.978 895.604 641.978Z" fill="#693875" stroke="black" stroke-width="3"/>
<path d="M979.837 216.461C979.837 261.465 943.348 297.947 898.337 297.947C853.326 297.947 816.837 261.465 816.837 216.461C810.337 146.473 853.326 134.975 898.337 134.975C943.348 134.975 979.837 171.457 979.837 216.461Z" fill="white" stroke="black" stroke-width="3"/>
<ellipse cx="1051.45" cy="193.465" rx="81.5" ry="81.4864" fill="white" stroke="black" stroke-width="3"/>
<path d="M816.945 190.965H1132.95V350.934C1132.95 364.742 1121.75 375.934 1107.95 375.934H841.945C828.138 375.934 816.945 364.742 816.945 350.934V190.965Z" fill="white" stroke="black" stroke-width="3"/>
<path d="M343.811 365.537H319.632C346.68 417.453 357.132 482.517 358.632 493.515C360.132 504.513 360.132 533.509 358.632 558.504C357.132 583.5 343.811 621.494 343.811 621.494L388.132 644.579C388.132 644.579 401.932 547.571 390.632 493.515C379.332 439.46 372.637 416.186 343.811 365.537Z" fill="white" stroke="black" stroke-width="3" stroke-linecap="round" stroke-linejoin="round"/>
<path d="M510.131 293.093C491.542 270.343 481.479 270.525 475.631 270.593V307.593C474.84 314.477 483.166 302.485 488.631 325.593C494.097 348.7 492.131 352.093 492.131 352.093C492.131 352.093 547.773 359.544 543.631 342.593C539.49 325.641 525.005 311.295 510.131 293.093Z" fill="white" stroke="black" stroke-width="3"/>
<path d="M541.631 337.593L492.131 352.093C492.131 352.093 483.258 364.858 484.621 374.183C486.009 383.689 488.274 389.87 498.543 389.643C506.27 389.473 512.631 386.593 512.631 386.593C512.631 386.593 520.883 392.81 527.932 391.538C535.058 390.252 541.131 379.093 541.131 379.093C541.131 379.093 555.81 383.846 560.631 382.093C571.631 378.093 571.895 371.509 570.631 367.593C565.631 352.093 564.631 352.093 557.131 344.593C553.623 341.084 543.874 335.241 541.631 337.593Z" fill="#693875" stroke="black" stroke-width="3"/>
<path d="M106.384 324.192C121.297 263.339 185.633 234.669 185.633 234.669L178.867 283.581C178.867 283.581 156.562 286.21 143.761 349.553C130.96 412.897 135.34 395.836 135.34 395.836L99.4208 396.419C99.4208 396.419 87.8394 399.865 106.384 324.192Z" fill="white" stroke="black" stroke-width="3"/>
<path d="M97.149 394.591L135.339 395.836C135.339 395.836 144.586 402.86 144.469 408.785C144.351 414.826 141.592 421.166 133.747 422.216C127.844 423.006 122.455 417.241 122.455 417.241C122.455 417.241 117.192 424.443 111.696 424.473C106.141 424.503 101.496 417.198 101.496 417.198C101.496 417.198 96.7689 421.1 92.8535 421.333C89.5434 421.53 87.186 421.014 84.947 419.217C82.1737 416.991 83.1644 410.185 83.1644 410.185C83.1644 410.185 84.3784 404.523 87.5821 401.024C90.2226 398.141 97.149 394.591 97.149 394.591Z" fill="#693875" stroke="black" stroke-width="3"/>
<path d="M342.969 621.243L387.984 644.578C387.984 644.578 405.045 636.872 409.696 627.972C414.438 618.899 416.213 615.734 407.962 609.673C401.755 605.114 390.996 602.751 390.996 602.751C390.996 602.751 387.349 596.081 380.999 592.887C374.581 589.658 366.654 590.804 366.654 590.804C366.654 590.804 362.612 585.091 358.26 582.499C354.58 580.309 351.068 580.439 347.02 581.835C342.005 583.564 339.728 590.754 339.728 590.754C339.728 590.754 336.563 599.891 337.452 606.943C338.185 612.755 342.969 621.243 342.969 621.243Z" fill="#693875" stroke="black" stroke-width="3"/>
<path d="M301.205 364.579H327.902C308.25 386.079 297.153 387.917 290.25 415.579C287.25 467.079 307.25 506.579 307.25 506.579L262.25 516.079C262.25 516.079 251.954 462.363 262.25 411.079C268.957 388.125 280.25 379.579 301.205 364.579Z" fill="white" stroke="black" stroke-width="3" stroke-linecap="round" stroke-linejoin="round"/>
<path d="M306.72 507.618L260.865 517.93C260.865 517.93 243.999 509.688 241.279 500.021C238.506 490.166 237.42 486.704 246.742 482.471C253.755 479.286 264.77 479.189 264.77 479.189C264.77 479.189 269.711 473.412 276.582 471.593C283.528 469.754 291.049 472.507 291.049 472.507C291.049 472.507 296.181 467.748 300.973 466.108C305.025 464.721 308.435 465.571 312.109 467.771C316.66 470.495 317.409 478 317.409 478C317.409 478 318.626 487.593 316.305 494.311C314.391 499.847 306.72 507.618 306.72 507.618Z" fill="#693875" stroke="black" stroke-width="3"/>
<path d="M324.632 219.061C324.632 264.065 288.143 300.547 243.132 300.547C198.121 300.547 161.632 264.065 161.632 219.061C155.132 149.073 198.121 137.575 243.132 137.575C288.143 137.575 324.632 174.057 324.632 219.061Z" fill="white" stroke="black" stroke-width="3"/>
<ellipse cx="396.241" cy="196.065" rx="81.5" ry="81.4864" fill="white" stroke="black" stroke-width="3"/>
<path d="M161.74 193.565H477.74V353.535C477.74 367.342 466.547 378.534 452.74 378.534H186.74C172.933 378.534 161.74 367.342 161.74 353.534V193.565Z" fill="white" stroke="black" stroke-width="3"/>
</svg>
