<svg width="3250" height="651" viewBox="0 0 3250 651" fill="none" xmlns="http://www.w3.org/2000/svg">
<path d="M2898.61 353H2925.11L2898.61 649H2849.61L2898.61 353Z" fill="white" stroke="black" stroke-width="3"/>
<path d="M2951.61 353H2925.11L2951.61 649H3000.61L2951.61 353Z" fill="white" stroke="black" stroke-width="3" stroke-linecap="round" stroke-linejoin="round"/>
<path d="M3001 649L2951.5 649C2951.5 649 2937.85 637.248 2937.32 627.22C2936.78 616.997 2939.61 606.162 2949.64 604.078C2957.18 602.509 2964.81 612.05 2964.81 612.05C2964.81 612.05 2970.78 599.659 2977.89 599.391C2985.07 599.121 2991.91 611.296 2991.91 611.296C2991.91 611.296 2997.58 604.51 3002.61 603.961C3006.87 603.498 3009.98 604.278 3013.08 607.231C3016.92 610.887 3016.43 622.439 3016.43 622.439C3016.43 622.439 3015.51 632.065 3011.77 638.11C3008.69 643.092 3001 649 3001 649Z" fill="#693875" stroke="black" stroke-width="3"/>
<path d="M2898.5 649L2849.5 649C2849.5 649 2836.07 637.708 2835.48 627.683C2834.88 617.463 2837.65 606.612 2847.66 604.468C2855.19 602.856 2862.88 612.351 2862.88 612.351C2862.88 612.351 2868.78 599.925 2875.88 599.616C2883.06 599.304 2889.98 611.438 2889.98 611.438C2889.98 611.438 2895.6 604.619 2900.64 604.041C2904.89 603.552 2908 604.315 2911.12 607.249C2914.99 610.883 2914.56 622.437 2914.56 622.437C2914.56 622.437 2913.7 632.068 2909.99 638.135C2906.94 643.135 2898.5 649 2898.5 649Z" fill="#693875" stroke="black" stroke-width="3"/>
<path d="M2699.82 353.852C2723.18 259.896 2767.11 236 2767.11 236V285.386C2767.11 285.386 2742.93 324.943 2735.82 394.807C2728.71 464.67 2730.61 499 2730.61 499L2681.34 492.977C2681.34 492.977 2679.45 435.761 2699.82 353.852Z" fill="white" stroke="black" stroke-width="3"/>
<path d="M2681.11 493L2730.61 499C2730.61 499 2742.39 511.713 2741.72 521.733C2741.03 531.948 2736.92 542.365 2726.72 543.233C2719.04 543.886 2712.61 533.5 2712.61 533.5C2712.61 533.5 2705.19 545.086 2698.11 544.5C2690.95 543.908 2685.61 531 2685.61 531C2685.61 531 2679.17 537.059 2674.11 537C2669.83 536.95 2666.84 535.802 2664.11 532.5C2660.73 528.409 2662.61 517 2662.61 517C2662.61 517 2664.67 507.553 2669.11 502C2672.77 497.423 2681.11 493 2681.11 493Z" fill="#693875" stroke="black" stroke-width="3"/>
<path d="M3150.4 353.852C3127.03 259.896 3083.11 236 3083.11 236V285.386C3083.11 285.386 3107.29 324.943 3114.4 394.807C3121.5 464.67 3119.61 499 3119.61 499L3168.88 492.977C3168.88 492.977 3170.77 435.761 3150.4 353.852Z" fill="white" stroke="black" stroke-width="3"/>
<path d="M3169.11 493L3119.61 499C3119.61 499 3107.83 511.713 3108.5 521.733C3109.19 531.948 3113.3 542.365 3123.5 543.233C3131.17 543.886 3137.61 533.5 3137.61 533.5C3137.61 533.5 3145.03 545.086 3152.11 544.5C3159.27 543.908 3164.61 531 3164.61 531C3164.61 531 3171.04 537.059 3176.11 537C3180.39 536.95 3183.38 535.802 3186.11 532.5C3189.49 528.409 3187.61 517 3187.61 517C3187.61 517 3185.55 507.553 3181.11 502C3177.45 497.423 3169.11 493 3169.11 493Z" fill="#693875" stroke="black" stroke-width="3"/>
<circle cx="2848.61" cy="170.5" r="81.5" fill="white" stroke="black" stroke-width="3"/>
<circle cx="2848.5" cy="170.5" r="42.5" fill="#693875" stroke="black" stroke-width="3"/>
<path d="M3083 170.5C3086.91 217.373 3048.21 252.81 3001.5 252C2956.49 252 2920 215.511 2920 170.5C2920 125.489 2956.49 89 3001.5 89C3046.51 89 3083 125.489 3083 170.5Z" fill="white" stroke="black" stroke-width="3"/>
<circle cx="3001.39" cy="170.5" r="42.5" fill="#693875" stroke="black" stroke-width="3"/>
<path d="M2767.11 168H3083.11V328C3083.11 341.807 3071.92 353 3058.11 353H2792.11C2778.3 353 2767.11 341.807 2767.11 328V168Z" fill="white" stroke="black" stroke-width="3"/>
<rect x="2791.11" y="183" width="268" height="156" rx="25" fill="black" stroke="black" stroke-width="3"/>
<rect x="2809.11" y="211" width="100" height="100" stroke="black" stroke-width="3"/>
<circle cx="2859.11" cy="261" r="50" fill="white"/>
<circle cx="2859.11" cy="261" r="38" fill="black"/>
<rect x="2941.11" y="211" width="100" height="100" stroke="black" stroke-width="3"/>
<circle cx="2991.11" cy="261" r="50" fill="white"/>
<circle cx="2991.11" cy="261" r="38" fill="black"/>
<path d="M2248.61 353H2275.11L2248.61 649H2199.61L2248.61 353Z" fill="white" stroke="black" stroke-width="3"/>
<path d="M2301.5 353H2275L2301.5 649H2350.5L2301.5 353Z" fill="white" stroke="black" stroke-width="3" stroke-linecap="round" stroke-linejoin="round"/>
<path d="M2351 649L2301.5 649C2301.5 649 2287.85 637.248 2287.32 627.22C2286.78 616.997 2289.61 606.162 2299.64 604.078C2307.18 602.509 2314.81 612.05 2314.81 612.05C2314.81 612.05 2320.78 599.659 2327.89 599.391C2335.07 599.121 2341.91 611.296 2341.91 611.296C2341.91 611.296 2347.58 604.51 2352.61 603.961C2356.87 603.498 2359.98 604.278 2363.08 607.231C2366.92 610.887 2366.43 622.439 2366.43 622.439C2366.43 622.439 2365.51 632.065 2361.77 638.11C2358.69 643.092 2351 649 2351 649Z" fill="#693875" stroke="black" stroke-width="3"/>
<path d="M2248.5 649L2199.5 649C2199.5 649 2186.07 637.708 2185.48 627.683C2184.88 617.463 2187.65 606.612 2197.66 604.468C2205.19 602.856 2212.88 612.351 2212.88 612.351C2212.88 612.351 2218.78 599.925 2225.88 599.616C2233.06 599.304 2239.98 611.438 2239.98 611.438C2239.98 611.438 2245.6 604.619 2250.64 604.041C2254.89 603.552 2258 604.315 2261.12 607.249C2264.99 610.883 2264.56 622.437 2264.56 622.437C2264.56 622.437 2263.7 632.068 2259.99 638.135C2256.94 643.135 2248.5 649 2248.5 649Z" fill="#693875" stroke="black" stroke-width="3"/>
<path d="M2049.82 353.852C2073.18 259.896 2117.11 236 2117.11 236V285.386C2117.11 285.386 2092.93 324.943 2085.82 394.807C2078.71 464.67 2080.61 499 2080.61 499L2031.34 492.977C2031.34 492.977 2029.45 435.761 2049.82 353.852Z" fill="white" stroke="black" stroke-width="3"/>
<path d="M2031.11 493L2080.61 499C2080.61 499 2092.39 511.713 2091.72 521.733C2091.03 531.948 2086.92 542.365 2076.72 543.233C2069.04 543.886 2062.61 533.5 2062.61 533.5C2062.61 533.5 2055.19 545.086 2048.11 544.5C2040.95 543.908 2035.61 531 2035.61 531C2035.61 531 2029.17 537.059 2024.11 537C2019.83 536.95 2016.84 535.802 2014.11 532.5C2010.73 528.409 2012.61 517 2012.61 517C2012.61 517 2014.67 507.553 2019.11 502C2022.77 497.423 2031.11 493 2031.11 493Z" fill="#693875" stroke="black" stroke-width="3"/>
<path d="M2500.4 353.852C2477.03 259.896 2433.11 236 2433.11 236V285.386C2433.11 285.386 2457.29 324.943 2464.4 394.807C2471.5 464.67 2469.61 499 2469.61 499L2518.88 492.977C2518.88 492.977 2520.77 435.761 2500.4 353.852Z" fill="white" stroke="black" stroke-width="3"/>
<path d="M2519.11 493L2469.61 499C2469.61 499 2457.83 511.713 2458.5 521.733C2459.19 531.948 2463.3 542.365 2473.5 543.233C2481.17 543.886 2487.61 533.5 2487.61 533.5C2487.61 533.5 2495.03 545.086 2502.11 544.5C2509.27 543.908 2514.61 531 2514.61 531C2514.61 531 2521.04 537.059 2526.11 537C2530.39 536.95 2533.38 535.802 2536.11 532.5C2539.49 528.409 2537.61 517 2537.61 517C2537.61 517 2535.55 507.553 2531.11 502C2527.45 497.423 2519.11 493 2519.11 493Z" fill="#693875" stroke="black" stroke-width="3"/>
<path d="M2280 150.5C2280 195.511 2243.51 232 2198.5 232C2151.72 235.764 2113.46 203.028 2117 150.5C2117 105.489 2153.49 69 2198.5 69C2243.51 69 2280 105.489 2280 150.5Z" fill="white" stroke="black" stroke-width="3"/>
<circle cx="2198.39" cy="150.5" r="42.5" fill="#693875" stroke="black" stroke-width="3"/>
<circle cx="2351.61" cy="170.5" r="81.5" fill="white" stroke="black" stroke-width="3"/>
<circle cx="2351.5" cy="170.5" r="42.5" fill="#693875" stroke="black" stroke-width="3"/>
<path d="M2117.11 168H2433.11V328C2433.11 341.807 2421.92 353 2408.11 353H2142.11C2128.3 353 2117.11 341.807 2117.11 328V168Z" fill="white" stroke="black" stroke-width="3"/>
<rect x="2141.11" y="183" width="268" height="156" rx="25" fill="black" stroke="black" stroke-width="3"/>
<rect x="2159" y="211" width="100" height="100" stroke="black" stroke-width="3"/>
<circle cx="2209" cy="261" r="50" fill="white"/>
<circle cx="2209" cy="261" r="38" fill="black"/>
<path d="M2258.88 312.54C2258.98 305.975 2257.79 299.454 2255.37 293.35C2252.95 287.245 2249.35 281.677 2244.78 276.963C2240.21 272.249 2234.76 268.481 2228.73 265.875C2222.71 263.268 2216.23 261.875 2209.66 261.773C2203.09 261.672 2196.57 262.864 2190.47 265.283C2184.36 267.702 2178.8 271.299 2174.08 275.869C2169.37 280.44 2165.6 285.894 2162.99 291.921C2160.39 297.948 2158.99 304.429 2158.89 310.994L2208.89 311.767L2258.88 312.54Z" fill="black"/>
<rect x="2291" y="211" width="100" height="100" stroke="black" stroke-width="3"/>
<circle cx="2341" cy="261" r="50" fill="white"/>
<circle cx="2341" cy="261" r="38" fill="black"/>
<path d="M2390.88 312.54C2390.98 305.975 2389.79 299.454 2387.37 293.35C2384.95 287.245 2381.35 281.677 2376.78 276.963C2372.21 272.249 2366.76 268.481 2360.73 265.875C2354.71 263.268 2348.22 261.875 2341.66 261.773C2335.09 261.672 2328.57 262.864 2322.47 265.283C2316.36 267.702 2310.8 271.299 2306.08 275.869C2301.37 280.44 2297.6 285.894 2294.99 291.921C2292.39 297.948 2290.99 304.429 2290.89 310.994L2340.89 311.767L2390.88 312.54Z" fill="black"/>
<path d="M1652.5 353H1626L1632.5 390.5L1652.5 649H1701.5L1660.5 390.5L1652.5 353Z" fill="white" stroke="black" stroke-width="3" stroke-linecap="round" stroke-linejoin="round"/>
<path d="M1702 649L1652.5 649C1652.5 649 1638.85 637.248 1638.32 627.22C1637.78 616.997 1640.61 606.162 1650.64 604.078C1658.18 602.509 1665.81 612.05 1665.81 612.05C1665.81 612.05 1671.78 599.659 1678.89 599.391C1686.07 599.121 1692.91 611.296 1692.91 611.296C1692.91 611.296 1698.58 604.51 1703.61 603.961C1707.87 603.498 1710.98 604.278 1714.08 607.231C1717.92 610.887 1717.43 622.439 1717.43 622.439C1717.43 622.439 1716.51 632.065 1712.77 638.11C1709.69 643.092 1702 649 1702 649Z" fill="#693875" stroke="black" stroke-width="3"/>
<path d="M1600 353H1626.5L1620.39 390.5L1600 649H1551L1591.39 390.5L1600 353Z" fill="white" stroke="black" stroke-width="3"/>
<path d="M1599.5 649L1550.5 649C1550.5 649 1537.07 637.708 1536.48 627.683C1535.88 617.463 1538.65 606.612 1548.66 604.468C1556.19 602.856 1563.88 612.351 1563.88 612.351C1563.88 612.351 1569.78 599.925 1576.88 599.616C1584.06 599.304 1590.98 611.438 1590.98 611.438C1590.98 611.438 1596.6 604.619 1601.64 604.041C1605.89 603.552 1609 604.315 1612.12 607.249C1615.99 610.883 1615.56 622.437 1615.56 622.437C1615.56 622.437 1614.7 632.068 1610.99 638.135C1607.94 643.135 1599.5 649 1599.5 649Z" fill="#693875" stroke="black" stroke-width="3"/>
<path d="M1850.05 382.469C1835.7 272.496 1787.19 257.32 1782.76 264.617V314.004C1787.25 297.048 1811.82 335.13 1814.05 423.424C1816.28 511.718 1801.65 520.117 1801.65 520.117L1850.05 523.617C1850.05 523.617 1860.98 466.164 1850.05 382.469Z" fill="white" stroke="black" stroke-width="3"/>
<path d="M1850.54 523.272L1801.65 520.117C1801.65 520.117 1790.49 531.641 1785.7 540.468C1780.2 550.618 1777.04 560.894 1791.65 563.617C1799.22 565.028 1808.65 556.617 1808.65 556.617C1808.65 556.617 1810.08 570.401 1817.15 571.117C1824.3 571.841 1839.18 559.813 1839.18 559.813C1839.18 559.813 1840.66 568.251 1845.65 569.117C1849.87 569.849 1841.83 567.193 1845.65 569.117C1857.49 575.071 1860.47 556.593 1861.15 546.618C1862.28 530.118 1850.84 522.552 1850.54 523.272Z" fill="#693875"/>
<path d="M1845.65 569.117C1857.49 575.071 1860.47 556.593 1861.15 546.618C1862.28 530.118 1850.84 522.552 1850.54 523.272L1801.65 520.117C1801.65 520.117 1790.49 531.641 1785.7 540.468C1780.2 550.618 1777.04 560.894 1791.65 563.617C1799.22 565.028 1808.65 556.617 1808.65 556.617C1808.65 556.617 1810.08 570.401 1817.15 571.117C1824.3 571.841 1839.18 559.813 1839.18 559.813C1839.18 559.813 1840.66 568.251 1845.65 569.117ZM1845.65 569.117C1849.87 569.849 1841.83 567.193 1845.65 569.117Z" stroke="black" stroke-width="3"/>
<path d="M1400.76 380.517C1410.84 270.436 1457.6 261.433 1468.05 262.665V312.051C1463.56 295.096 1438.99 333.178 1436.76 421.472C1434.53 509.766 1449.16 518.165 1449.16 518.165L1400.76 521.665C1400.76 521.665 1393.05 464.569 1400.76 380.517Z" fill="white" stroke="black" stroke-width="3"/>
<path d="M1400.27 521.319L1449.16 518.165C1449.16 518.165 1460.31 529.689 1465.1 538.516C1470.61 548.666 1473.77 558.942 1459.16 561.665C1451.58 563.076 1442.16 554.665 1442.16 554.665C1442.16 554.665 1440.73 568.449 1433.66 569.165C1426.51 569.889 1411.63 557.861 1411.63 557.861C1411.63 557.861 1410.15 566.299 1405.16 567.165C1400.94 567.897 1408.98 565.241 1405.16 567.165C1393.31 573.118 1390.34 554.641 1389.66 544.666C1388.53 528.165 1399.96 520.6 1400.27 521.319Z" fill="#693875"/>
<path d="M1405.16 567.165C1393.31 573.118 1390.34 554.641 1389.66 544.666C1388.53 528.165 1399.96 520.6 1400.27 521.319L1449.16 518.165C1449.16 518.165 1460.31 529.689 1465.1 538.516C1470.61 548.666 1473.77 558.942 1459.16 561.665C1451.58 563.076 1442.16 554.665 1442.16 554.665C1442.16 554.665 1440.73 568.449 1433.66 569.165C1426.51 569.889 1411.63 557.861 1411.63 557.861C1411.63 557.861 1410.15 566.299 1405.16 567.165ZM1405.16 567.165C1400.94 567.897 1408.98 565.241 1405.16 567.165Z" stroke="black" stroke-width="3"/>
<path d="M1626 225.52C1626 270.531 1590.82 307.02 1547.42 307.02C1504.02 307.02 1470 270.531 1470 225.52C1459.46 167.33 1492.38 142.608 1547.42 144.02C1590.82 144.02 1626 180.509 1626 225.52Z" fill="white" stroke="black" stroke-width="3"/>
<ellipse cx="1547.32" cy="225.52" rx="40.9766" ry="42.5" fill="#693875" stroke="black" stroke-width="3"/>
<path d="M1784 200.569C1784.32 245.579 1747.51 296.069 1702.5 296.069C1657.49 296.069 1621 259.58 1621 214.569C1621 169.558 1664.5 134.068 1702.5 133.069C1702.12 132.183 1783.56 139.043 1784 200.569Z" fill="white" stroke="black" stroke-width="3"/>
<circle cx="1702.39" cy="214.568" r="42.5" fill="#693875" stroke="black" stroke-width="3"/>
<path d="M1468.11 196.068H1784.11V356.068C1784.11 369.875 1772.92 381.068 1759.11 381.068H1493.11C1479.3 381.068 1468.11 369.875 1468.11 356.068V196.068Z" fill="white" stroke="black" stroke-width="3"/>
<rect x="1492.11" y="211.068" width="268" height="156" rx="25" fill="black" stroke="black" stroke-width="3"/>
<rect x="1510.11" y="239.068" width="100" height="100" stroke="black" stroke-width="3"/>
<circle cx="1560.89" cy="289.068" r="50" fill="white"/>
<circle cx="1560.89" cy="289.068" r="38" fill="black"/>
<path d="M1516.91 263.068C1512.43 267.867 1508.93 273.501 1506.63 279.65C1504.33 285.799 1503.26 292.341 1503.48 298.903C1503.7 305.465 1505.22 311.919 1507.94 317.896C1510.66 323.873 1514.53 329.256 1519.32 333.737C1524.12 338.219 1529.76 341.711 1535.91 344.015C1542.06 346.319 1548.6 347.39 1555.16 347.165C1561.72 346.941 1568.18 345.426 1574.15 342.708C1580.13 339.989 1585.51 336.12 1589.99 331.321L1553.45 297.195L1516.91 263.068Z" fill="black"/>
<rect x="1642.11" y="239.068" width="100" height="100" stroke="black" stroke-width="3"/>
<circle cx="1692.11" cy="289.021" r="50" fill="white"/>
<circle cx="1692.11" cy="289.021" r="38" fill="black"/>
<path d="M1660 327.378C1664.49 332.171 1669.88 336.032 1675.86 338.742C1681.84 341.452 1688.29 342.958 1694.86 343.173C1701.42 343.387 1707.96 342.308 1714.11 339.995C1720.25 337.682 1725.88 334.182 1730.67 329.693C1735.47 325.205 1739.33 319.816 1742.04 313.836C1744.75 307.855 1746.25 301.399 1746.47 294.836C1746.68 288.274 1745.6 281.733 1743.29 275.588C1740.98 269.443 1737.48 263.813 1732.99 259.021L1696.49 293.199L1660 327.378Z" fill="black"/>
<path d="M1000.5 353H974L980.5 390.5L1000.5 649H1049.5L1008.5 390.5L1000.5 353Z" fill="white" stroke="black" stroke-width="3" stroke-linecap="round" stroke-linejoin="round"/>
<path d="M1049.89 649L1000.39 649C1000.39 649 986.744 637.248 986.211 627.22C985.667 616.997 988.503 606.162 998.526 604.078C1006.07 602.509 1013.7 612.05 1013.7 612.05C1013.7 612.05 1019.67 599.659 1026.78 599.391C1033.96 599.121 1040.8 611.296 1040.8 611.296C1040.8 611.296 1046.47 604.51 1051.5 603.961C1055.76 603.498 1058.87 604.278 1061.97 607.231C1065.81 610.887 1065.32 622.439 1065.32 622.439C1065.32 622.439 1064.4 632.065 1060.66 638.11C1057.58 643.092 1049.89 649 1049.89 649Z" fill="#693875" stroke="black" stroke-width="3"/>
<path d="M947.609 353H974.109L968 390.5L947.609 649H898.609L939 390.5L947.609 353Z" fill="white" stroke="black" stroke-width="3"/>
<path d="M947.5 649L898.5 649C898.5 649 885.073 637.708 884.481 627.683C883.878 617.463 886.65 606.612 896.661 604.468C904.192 602.856 911.881 612.351 911.881 612.351C911.881 612.351 917.783 599.925 924.884 599.616C932.062 599.304 938.981 611.438 938.981 611.438C938.981 611.438 944.603 604.619 949.636 604.041C953.89 603.552 957.002 604.315 960.122 607.249C963.986 610.883 963.558 622.437 963.558 622.437C963.558 622.437 962.698 632.068 958.994 638.135C955.942 643.135 947.5 649 947.5 649Z" fill="#693875" stroke="black" stroke-width="3"/>
<path d="M1199.4 381.852C1185.05 271.879 1136.54 256.703 1132.11 264V313.386C1136.59 296.431 1161.17 334.513 1163.4 422.807C1165.63 511.101 1151 519.5 1151 519.5L1199.4 523C1199.4 523 1210.32 465.546 1199.4 381.852Z" fill="white" stroke="black" stroke-width="3"/>
<path d="M1199.89 522.654L1151 519.5C1151 519.5 1139.84 531.024 1135.05 539.851C1129.55 550.001 1126.39 560.277 1141 563C1148.57 564.411 1158 556 1158 556C1158 556 1159.43 569.784 1166.5 570.5C1173.65 571.224 1188.53 559.196 1188.53 559.196C1188.53 559.196 1190.01 567.634 1195 568.5C1199.22 569.232 1191.17 566.576 1195 568.5C1206.84 574.453 1209.82 555.976 1210.5 546.001C1211.63 529.5 1200.19 521.935 1199.89 522.654Z" fill="#693875"/>
<path d="M1195 568.5C1206.84 574.453 1209.82 555.976 1210.5 546.001C1211.63 529.5 1200.19 521.935 1199.89 522.654L1151 519.5C1151 519.5 1139.84 531.024 1135.05 539.851C1129.55 550.001 1126.39 560.277 1141 563C1148.57 564.411 1158 556 1158 556C1158 556 1159.43 569.784 1166.5 570.5C1173.65 571.224 1188.53 559.196 1188.53 559.196C1188.53 559.196 1190.01 567.634 1195 568.5ZM1195 568.5C1199.22 569.232 1191.17 566.576 1195 568.5Z" stroke="black" stroke-width="3"/>
<path d="M749.755 381.949C759.842 271.868 806.602 262.865 817.047 264.097V313.483C812.562 296.528 787.99 334.609 785.758 422.903C783.526 511.198 798.156 519.597 798.156 519.597L749.755 523.097C749.755 523.097 742.053 466.001 749.755 381.949Z" fill="white" stroke="black" stroke-width="3"/>
<path d="M749.27 522.751L798.156 519.597C798.156 519.597 809.314 531.121 814.103 539.948C819.609 550.097 822.765 560.374 808.156 563.097C800.584 564.508 791.156 556.097 791.156 556.097C791.156 556.097 789.728 569.881 782.656 570.597C775.508 571.32 760.625 559.293 760.625 559.293C760.625 559.293 759.147 567.73 754.156 568.596C749.937 569.328 757.982 566.673 754.156 568.596C742.314 574.55 739.338 556.073 738.656 546.097C737.529 529.597 748.964 522.032 749.27 522.751Z" fill="#693875"/>
<path d="M754.156 568.596C742.314 574.55 739.338 556.073 738.656 546.097C737.529 529.597 748.964 522.032 749.27 522.751L798.156 519.597C798.156 519.597 809.314 531.121 814.103 539.948C819.609 550.097 822.765 560.374 808.156 563.097C800.584 564.508 791.156 556.097 791.156 556.097C791.156 556.097 789.728 569.881 782.656 570.597C775.508 571.32 760.625 559.293 760.625 559.293C760.625 559.293 759.147 567.73 754.156 568.596ZM754.156 568.596C749.937 569.328 757.982 566.673 754.156 568.596Z" stroke="black" stroke-width="3"/>
<circle cx="897.609" cy="198.5" r="81.5" fill="white" stroke="black" stroke-width="3"/>
<circle cx="897.5" cy="198.5" r="42.5" fill="#693875" stroke="black" stroke-width="3"/>
<path d="M1132 200.5C1132.32 245.51 1095.51 296 1050.5 296C1005.49 296 969 259.512 969 214.5C969 169.489 1012.5 134 1050.5 133.001C1050.12 132.115 1131.56 138.975 1132 200.5Z" fill="white" stroke="black" stroke-width="3"/>
<circle cx="1050.39" cy="214.5" r="42.5" fill="#693875" stroke="black" stroke-width="3"/>
<path d="M816.109 196H1132.11V356C1132.11 369.807 1120.92 381 1107.11 381H841.109C827.302 381 816.109 369.807 816.109 356V196Z" fill="white" stroke="black" stroke-width="3"/>
<rect x="840.109" y="211" width="268" height="156" rx="25" fill="black" stroke="black" stroke-width="3"/>
<rect x="858.109" y="239" width="100" height="100" stroke="black" stroke-width="3"/>
<circle cx="908.109" cy="289" r="50" fill="white"/>
<circle cx="908.109" cy="289" r="38" fill="black"/>
<path d="M957.988 340.54C958.09 333.975 956.897 327.454 954.478 321.35C952.06 315.245 948.462 309.677 943.892 304.963C939.321 300.249 933.867 296.481 927.84 293.875C921.813 291.268 915.332 289.875 908.767 289.773C902.202 289.672 895.681 290.864 889.576 293.283C883.472 295.702 877.904 299.299 873.19 303.869C868.475 308.44 864.708 313.894 862.101 319.921C859.495 325.948 858.102 332.429 858 338.994L907.994 339.767L957.988 340.54Z" fill="black"/>
<rect x="990.109" y="239" width="100" height="100" stroke="black" stroke-width="3"/>
<circle cx="1040.11" cy="289" r="50" fill="white"/>
<circle cx="1040.11" cy="289" r="38" fill="black"/>
<path d="M1089.99 340.54C1090.09 333.975 1088.9 327.454 1086.48 321.35C1084.06 315.245 1080.46 309.677 1075.89 304.963C1071.32 300.249 1065.87 296.481 1059.84 293.875C1053.81 291.268 1047.33 289.875 1040.77 289.773C1034.2 289.672 1027.68 290.864 1021.58 293.283C1015.47 295.702 1009.9 299.299 1005.19 303.869C1000.48 308.44 996.708 313.894 994.101 319.921C991.495 325.948 990.102 332.429 990 338.994L1039.99 339.767L1089.99 340.54Z" fill="black"/>
<path d="M298.608 351H325.108L298.608 647H249.608L298.608 351Z" fill="white" stroke="black" stroke-width="3"/>
<path d="M351.609 351H325.109L351.609 647H400.609L351.609 351Z" fill="white" stroke="black" stroke-width="3" stroke-linecap="round" stroke-linejoin="round"/>
<path d="M401 647L351.5 647C351.5 647 337.853 635.248 337.32 625.22C336.777 614.997 339.612 604.162 349.636 602.078C357.177 600.509 364.809 610.05 364.809 610.05C364.809 610.05 370.784 597.659 377.887 597.391C385.067 597.121 391.914 609.296 391.914 609.296C391.914 609.296 397.577 602.51 402.612 601.961C406.87 601.498 409.977 602.278 413.08 605.231C416.922 608.887 416.426 620.439 416.426 620.439C416.426 620.439 415.51 630.065 411.771 636.11C408.689 641.092 401 647 401 647Z" fill="#693875" stroke="black" stroke-width="3"/>
<path d="M298.5 647L249.5 647C249.5 647 236.073 635.708 235.481 625.683C234.878 615.463 237.65 604.612 247.661 602.468C255.192 600.856 262.881 610.351 262.881 610.351C262.881 610.351 268.783 597.925 275.884 597.616C283.062 597.304 289.981 609.438 289.981 609.438C289.981 609.438 295.603 602.619 300.636 602.041C304.89 601.552 308.002 602.315 311.122 605.249C314.986 608.883 314.558 620.437 314.558 620.437C314.558 620.437 313.698 630.068 309.994 636.135C306.942 641.135 298.5 647 298.5 647Z" fill="#693875" stroke="black" stroke-width="3"/>
<path d="M99.8168 351.852C123.183 257.896 167.109 234 167.109 234V283.386C167.109 283.386 142.926 322.943 135.82 392.807C128.714 462.67 130.609 497 130.609 497L81.3415 490.977C81.3415 490.977 79.4467 433.761 99.8168 351.852Z" fill="white" stroke="black" stroke-width="3"/>
<path d="M81.109 491L130.609 497C130.609 497 142.391 509.713 141.718 519.733C141.032 529.948 136.919 540.365 126.718 541.233C119.043 541.886 112.609 531.5 112.609 531.5C112.609 531.5 105.192 543.086 98.109 542.5C90.9484 541.908 85.609 529 85.609 529C85.609 529 79.1742 535.059 74.109 535C69.8269 534.95 66.8352 533.802 64.109 530.5C60.7322 526.409 62.609 515 62.609 515C62.609 515 64.6726 505.553 69.109 500C72.7653 495.423 81.109 491 81.109 491Z" fill="#693875" stroke="black" stroke-width="3"/>
<path d="M550.401 351.852C527.035 257.896 483.109 234 483.109 234V283.386C483.109 283.386 507.292 322.943 514.398 392.807C521.504 462.67 519.609 497 519.609 497L568.876 490.977C568.876 490.977 570.771 433.761 550.401 351.852Z" fill="white" stroke="black" stroke-width="3"/>
<path d="M569.109 491L519.609 497C519.609 497 507.827 509.713 508.5 519.733C509.185 529.948 513.299 540.365 523.5 541.233C531.174 541.886 537.609 531.5 537.609 531.5C537.609 531.5 545.025 543.086 552.109 542.5C559.269 541.908 564.609 529 564.609 529C564.609 529 571.044 535.059 576.109 535C580.391 534.95 583.383 533.802 586.109 530.5C589.486 526.409 587.609 515 587.609 515C587.609 515 585.545 505.553 581.109 500C577.452 495.423 569.109 491 569.109 491Z" fill="#693875" stroke="black" stroke-width="3"/>
<circle cx="248.609" cy="168.5" r="81.5" fill="white" stroke="black" stroke-width="3"/>
<circle cx="248.5" cy="168.5" r="42.5" fill="#693875" stroke="black" stroke-width="3"/>
<circle cx="401.609" cy="168.5" r="81.5" fill="white" stroke="black" stroke-width="3"/>
<circle cx="401.5" cy="168.5" r="42.5" fill="#693875" stroke="black" stroke-width="3"/>
<path d="M167.109 166H483.109V326C483.109 339.807 471.917 351 458.109 351H192.109C178.302 351 167.109 339.807 167.109 326V166Z" fill="white" stroke="black" stroke-width="3"/>
<rect x="191.109" y="181" width="268" height="156" rx="25" fill="black" stroke="black" stroke-width="3"/>
<rect x="209.109" y="209" width="100" height="100" stroke="black" stroke-width="3"/>
<circle cx="259.109" cy="259" r="50" fill="white"/>
<circle cx="259.109" cy="259" r="38" fill="black"/>
<rect x="341.109" y="209" width="100" height="100" stroke="black" stroke-width="3"/>
<circle cx="391.109" cy="259" r="50" fill="white"/>
<circle cx="391.109" cy="259" r="38" fill="black"/>
</svg>
