<svg width="12350" height="651" viewBox="0 0 12350 651" fill="none" xmlns="http://www.w3.org/2000/svg">
<path d="M351.5 352.994H325L351.5 648.994H400.5L351.5 352.994Z" fill="white" stroke="black" stroke-width="3" stroke-linecap="round" stroke-linejoin="round"/>
<path d="M400.891 648.994L351.391 648.994C351.391 648.994 337.744 637.241 337.211 627.213C336.667 616.99 339.503 606.155 349.526 604.071C357.067 602.503 364.7 612.043 364.7 612.043C364.7 612.043 370.675 599.652 377.777 599.385C384.957 599.114 391.805 611.289 391.805 611.289C391.805 611.289 397.467 604.503 402.503 603.955C406.76 603.491 409.868 604.272 412.97 607.224C416.813 610.88 416.317 622.432 416.317 622.432C416.317 622.432 415.4 632.058 411.661 638.103C408.58 643.085 400.891 648.994 400.891 648.994Z" fill="#693875" stroke="black" stroke-width="3"/>
<path d="M298.5 352.994H325L298.5 648.994H249.5L298.5 352.994Z" fill="white" stroke="black" stroke-width="3"/>
<path d="M298.391 648.995L249.391 648.995C249.391 648.995 235.964 637.703 235.372 627.678C234.769 617.458 237.54 606.607 247.551 604.463C255.083 602.851 262.771 612.346 262.771 612.346C262.771 612.346 268.673 599.92 275.774 599.611C282.952 599.299 289.872 611.434 289.872 611.434C289.872 611.434 295.494 604.614 300.526 604.036C304.781 603.547 307.893 604.31 311.013 607.244C314.877 610.878 314.449 622.432 314.449 622.432C314.449 622.432 313.588 632.064 309.885 638.13C306.833 643.13 298.391 648.995 298.391 648.995Z" fill="#693875" stroke="black" stroke-width="3"/>
<path d="M99.7074 353.846C123.074 259.89 166.999 235.994 166.999 235.994V285.381C166.999 285.381 142.816 324.937 135.71 394.801C128.604 464.665 130.499 498.994 130.499 498.994L81.2322 492.971C81.2322 492.971 79.3373 435.755 99.7074 353.846Z" fill="white" stroke="black" stroke-width="3"/>
<path d="M80.9996 492.995L130.5 498.995C130.5 498.995 142.281 511.708 141.609 521.728C140.923 531.943 136.81 542.36 126.609 543.228C118.934 543.881 112.5 533.495 112.5 533.495C112.5 533.495 105.083 545.081 97.9996 544.495C90.8391 543.903 85.4996 530.995 85.4996 530.995C85.4996 530.995 79.0648 537.054 73.9996 536.995C69.7175 536.945 66.7258 535.798 63.9996 532.495C60.6228 528.404 62.4996 516.995 62.4996 516.995C62.4996 516.995 64.5633 507.548 68.9996 501.995C72.656 497.418 80.9996 492.995 80.9996 492.995Z" fill="#693875" stroke="black" stroke-width="3"/>
<path d="M550.292 353.846C526.925 259.89 483 235.994 483 235.994V285.381C483 285.381 507.183 324.937 514.289 394.801C521.395 464.665 519.5 498.994 519.5 498.994L568.767 492.971C568.767 492.971 570.662 435.755 550.292 353.846Z" fill="white" stroke="black" stroke-width="3"/>
<path d="M568.999 492.995L519.499 498.995C519.499 498.995 507.718 511.708 508.39 521.728C509.076 531.943 513.189 542.36 523.39 543.228C531.065 543.881 537.499 533.495 537.499 533.495C537.499 533.495 544.916 545.081 551.999 544.495C559.16 543.903 564.499 530.995 564.499 530.995C564.499 530.995 570.934 537.054 575.999 536.995C580.282 536.945 583.273 535.798 585.999 532.495C589.376 528.404 587.499 516.995 587.499 516.995C587.499 516.995 585.436 507.548 580.999 501.995C577.343 497.418 568.999 492.995 568.999 492.995Z" fill="#693875" stroke="black" stroke-width="3"/>
<circle cx="248.5" cy="170.494" r="81.5" fill="white" stroke="black" stroke-width="3"/>
<circle cx="248.391" cy="170.494" r="42.5" fill="#693875" stroke="black" stroke-width="3"/>
<circle cx="401.5" cy="170.494" r="81.5" fill="white" stroke="black" stroke-width="3"/>
<circle cx="401.391" cy="170.494" r="42.5" fill="#693875" stroke="black" stroke-width="3"/>
<path d="M167 167.994H483V327.994C483 341.801 471.807 352.994 458 352.994H192C178.193 352.994 167 341.801 167 327.994V167.994Z" fill="white" stroke="black" stroke-width="3"/>
<rect x="191" y="182.994" width="268" height="156" rx="25" fill="black" stroke="black" stroke-width="3"/>
<rect x="209" y="210.994" width="100" height="100" stroke="black" stroke-width="3"/>
<circle cx="259" cy="260.994" r="50" fill="white"/>
<circle cx="259" cy="260.994" r="38" fill="black"/>
<rect x="341" y="210.994" width="100" height="100" stroke="black" stroke-width="3"/>
<circle cx="391" cy="260.994" r="50" fill="white"/>
<circle cx="391" cy="260.994" r="38" fill="black"/>
<path d="M1000.92 352.994H974.422L980.922 390.494L1000.92 648.994H1049.92L1008.92 390.494L1000.92 352.994Z" fill="white" stroke="black" stroke-width="3" stroke-linecap="round" stroke-linejoin="round"/>
<path d="M1050.31 648.994L1000.81 648.994C1000.81 648.994 987.166 637.241 986.633 627.213C986.089 616.99 988.925 606.155 998.948 604.071C1006.49 602.503 1014.12 612.043 1014.12 612.043C1014.12 612.043 1020.1 599.652 1027.2 599.385C1034.38 599.114 1041.23 611.289 1041.23 611.289C1041.23 611.289 1046.89 604.503 1051.92 603.955C1056.18 603.491 1059.29 604.272 1062.39 607.224C1066.23 610.88 1065.74 622.432 1065.74 622.432C1065.74 622.432 1064.82 632.058 1061.08 638.103C1058 643.085 1050.31 648.994 1050.31 648.994Z" fill="#693875" stroke="black" stroke-width="3"/>
<path d="M948.031 352.994H974.531L968.422 390.494L948.031 648.994H899.031L939.422 390.494L948.031 352.994Z" fill="white" stroke="black" stroke-width="3"/>
<path d="M947.922 648.995L898.922 648.995C898.922 648.995 885.495 637.703 884.903 627.678C884.3 617.458 887.072 606.607 897.082 604.463C904.614 602.851 912.303 612.346 912.303 612.346C912.303 612.346 918.205 599.92 925.305 599.611C932.484 599.299 939.403 611.434 939.403 611.434C939.403 611.434 945.025 604.614 950.058 604.036C954.312 603.547 957.424 604.31 960.544 607.244C964.408 610.878 963.98 622.432 963.98 622.432C963.98 622.432 963.12 632.064 959.416 638.13C956.364 643.13 947.922 648.995 947.922 648.995Z" fill="#693875" stroke="black" stroke-width="3"/>
<path d="M1199.82 381.846C1185.47 271.873 1136.96 256.697 1132.53 263.994V313.38C1137.02 296.425 1161.59 334.507 1163.82 422.801C1166.05 511.095 1151.42 519.494 1151.42 519.494L1199.82 522.994C1199.82 522.994 1210.75 465.541 1199.82 381.846Z" fill="white" stroke="black" stroke-width="3"/>
<path d="M1200.31 522.648L1151.42 519.494C1151.42 519.494 1140.26 531.018 1135.48 539.845C1129.97 549.995 1126.81 560.271 1141.42 562.994C1148.99 564.405 1158.42 555.994 1158.42 555.994C1158.42 555.994 1159.85 569.778 1166.92 570.494C1174.07 571.218 1188.95 559.19 1188.95 559.19C1188.95 559.19 1190.43 567.628 1195.42 568.494C1199.64 569.226 1191.6 566.57 1195.42 568.494C1207.26 574.447 1210.24 555.97 1210.92 545.995C1212.05 529.494 1200.61 521.929 1200.31 522.648Z" fill="#693875"/>
<path d="M1195.42 568.494C1207.26 574.447 1210.24 555.97 1210.92 545.995C1212.05 529.494 1200.61 521.929 1200.31 522.648L1151.42 519.494C1151.42 519.494 1140.26 531.018 1135.48 539.845C1129.97 549.995 1126.81 560.271 1141.42 562.994C1148.99 564.405 1158.42 555.994 1158.42 555.994C1158.42 555.994 1159.85 569.778 1166.92 570.494C1174.07 571.218 1188.95 559.19 1188.95 559.19C1188.95 559.19 1190.43 567.628 1195.42 568.494ZM1195.42 568.494C1199.64 569.226 1191.6 566.57 1195.42 568.494Z" stroke="black" stroke-width="3"/>
<path d="M750.177 381.943C760.264 271.862 807.024 262.859 817.469 264.091V313.477C812.984 296.522 788.412 334.604 786.18 422.898C783.948 511.192 798.578 519.591 798.578 519.591L750.177 523.091C750.177 523.091 742.475 465.995 750.177 381.943Z" fill="white" stroke="black" stroke-width="3"/>
<path d="M749.692 522.746L798.578 519.592C798.578 519.592 809.736 531.116 814.525 539.943C820.031 550.093 823.187 560.369 808.578 563.092C801.006 564.503 791.578 556.092 791.578 556.092C791.578 556.092 790.15 569.876 783.078 570.592C775.93 571.315 761.047 559.288 761.047 559.288C761.047 559.288 759.569 567.725 754.578 568.591C750.358 569.324 758.404 566.668 754.578 568.591C742.736 574.545 739.76 556.068 739.078 546.092C737.95 529.592 749.386 522.027 749.692 522.746Z" fill="#693875"/>
<path d="M754.578 568.591C742.736 574.545 739.76 556.068 739.078 546.092C737.95 529.592 749.386 522.027 749.692 522.746L798.578 519.592C798.578 519.592 809.736 531.116 814.525 539.943C820.031 550.093 823.187 560.369 808.578 563.092C801.006 564.503 791.578 556.092 791.578 556.092C791.578 556.092 790.15 569.876 783.078 570.592C775.93 571.315 761.047 559.288 761.047 559.288C761.047 559.288 759.569 567.725 754.578 568.591ZM754.578 568.591C750.358 569.324 758.404 566.668 754.578 568.591Z" stroke="black" stroke-width="3"/>
<path d="M979.422 207.494C979.422 252.505 942.933 288.994 897.922 288.994C852.911 288.994 816.422 252.505 816.422 207.494C813.336 163.503 851.319 126.52 897.922 125.994C942.933 125.994 979.422 162.483 979.422 207.494Z" fill="white" stroke="black" stroke-width="3"/>
<circle cx="897.812" cy="207.494" r="42.5" fill="#693875" stroke="black" stroke-width="3"/>
<path d="M1132.42 200.494C1132.74 245.505 1095.93 295.995 1050.92 295.995C1005.91 295.995 969.422 259.506 969.422 214.495C969.422 169.483 1012.92 133.994 1050.92 132.995C1050.54 132.109 1131.98 138.969 1132.42 200.494Z" fill="white" stroke="black" stroke-width="3"/>
<circle cx="1050.81" cy="214.494" r="42.5" fill="#693875" stroke="black" stroke-width="3"/>
<path d="M816.53 195.994H1132.53V355.994C1132.53 369.801 1121.34 380.994 1107.53 380.994H841.53C827.723 380.994 816.53 369.801 816.53 355.994V195.994Z" fill="white" stroke="black" stroke-width="3"/>
<rect x="840.53" y="210.994" width="268" height="156" rx="25" fill="black" stroke="black" stroke-width="3"/>
<rect x="858.53" y="238.994" width="100" height="100" stroke="black" stroke-width="3"/>
<circle cx="908.53" cy="288.994" r="50" fill="white"/>
<circle cx="908.53" cy="288.994" r="38" fill="black"/>
<path d="M981.27 301.405C975.859 305.124 969.768 307.741 963.345 309.107C956.923 310.472 950.294 310.559 943.838 309.363C937.382 308.166 931.224 305.71 925.718 302.134C920.211 298.558 915.462 293.932 911.743 288.521C908.024 283.11 905.407 277.019 904.041 270.597C902.676 264.174 902.589 257.545 903.785 251.089C904.982 244.633 907.438 238.476 911.014 232.969C914.59 227.462 919.216 222.713 924.627 218.994L952.948 260.2L981.27 301.405Z" fill="black"/>
<path d="M889.023 218.993C894.762 222.185 899.815 226.475 903.896 231.619C907.976 236.764 911.003 242.661 912.804 248.975C914.606 255.29 915.146 261.897 914.393 268.42C913.641 274.942 911.611 281.253 908.42 286.992C905.229 292.73 900.939 297.784 895.794 301.864C890.65 305.945 884.752 308.972 878.438 310.773C872.124 312.574 865.517 313.114 858.994 312.362C852.471 311.61 846.16 309.58 840.422 306.389L864.722 262.691L889.023 218.993Z" fill="black"/>
<rect x="990.53" y="238.994" width="100" height="100" stroke="black" stroke-width="3"/>
<circle cx="1040.53" cy="288.994" r="50" fill="white"/>
<circle cx="1040.53" cy="288.994" r="38" fill="black"/>
<path d="M1108.14 306.827C1102.38 309.966 1096.05 311.938 1089.52 312.631C1082.99 313.324 1076.39 312.725 1070.09 310.866C1063.79 309.008 1057.92 305.927 1052.81 301.8C1047.71 297.673 1043.46 292.581 1040.32 286.813C1037.19 281.046 1035.21 274.717 1034.52 268.188C1033.83 261.658 1034.43 255.056 1036.29 248.759C1038.14 242.461 1041.22 236.591 1045.35 231.484C1049.48 226.377 1054.57 222.133 1060.34 218.994L1084.24 262.911L1108.14 306.827Z" fill="black"/>
<path d="M1021.02 218.993C1026.76 222.185 1031.82 226.475 1035.9 231.619C1039.98 236.764 1043 242.661 1044.8 248.975C1046.61 255.29 1047.15 261.897 1046.39 268.42C1045.64 274.942 1043.61 281.253 1040.42 286.992C1037.23 292.73 1032.94 297.784 1027.79 301.864C1022.65 305.945 1016.75 308.972 1010.44 310.773C1004.12 312.574 997.517 313.114 990.994 312.362C984.471 311.61 978.16 309.58 972.422 306.389L996.722 262.691L1021.02 218.993Z" fill="black"/>
<path d="M1652.1 352.994H1625.6L1632.1 390.494L1652.1 648.994H1701.1L1660.1 390.494L1652.1 352.994Z" fill="white" stroke="black" stroke-width="3" stroke-linecap="round" stroke-linejoin="round"/>
<path d="M1701.49 648.994L1651.99 648.994C1651.99 648.994 1638.34 637.241 1637.81 627.213C1637.26 616.99 1640.1 606.155 1650.12 604.071C1657.66 602.503 1665.3 612.043 1665.3 612.043C1665.3 612.043 1671.27 599.652 1678.37 599.385C1685.55 599.114 1692.4 611.289 1692.4 611.289C1692.4 611.289 1698.06 604.503 1703.1 603.955C1707.36 603.491 1710.46 604.272 1713.57 607.224C1717.41 610.88 1716.91 622.432 1716.91 622.432C1716.91 622.432 1716 632.058 1712.26 638.103C1709.18 643.085 1701.49 648.994 1701.49 648.994Z" fill="#693875" stroke="black" stroke-width="3"/>
<path d="M1599.21 352.994H1625.71L1619.6 390.494L1599.21 648.994H1550.21L1590.6 390.494L1599.21 352.994Z" fill="white" stroke="black" stroke-width="3"/>
<path d="M1599.1 648.995L1550.1 648.995C1550.1 648.995 1536.67 637.703 1536.08 627.678C1535.47 617.458 1538.25 606.607 1548.26 604.463C1555.79 602.851 1563.48 612.346 1563.48 612.346C1563.48 612.346 1569.38 599.92 1576.48 599.611C1583.66 599.299 1590.58 611.434 1590.58 611.434C1590.58 611.434 1596.2 604.614 1601.23 604.036C1605.49 603.547 1608.6 604.31 1611.72 607.244C1615.58 610.878 1615.15 622.432 1615.15 622.432C1615.15 622.432 1614.29 632.064 1610.59 638.13C1607.54 643.13 1599.1 648.995 1599.1 648.995Z" fill="#693875" stroke="black" stroke-width="3"/>
<path d="M1849.65 382.395C1835.29 272.422 1786.78 257.246 1782.36 264.543V313.929C1786.84 296.974 1811.41 335.056 1813.64 423.35C1815.88 511.644 1801.25 520.043 1801.25 520.043L1849.65 523.543C1849.65 523.543 1860.57 466.089 1849.65 382.395Z" fill="white" stroke="black" stroke-width="3"/>
<path d="M1850.13 523.197L1801.25 520.043C1801.25 520.043 1790.09 531.567 1785.3 540.394C1779.79 550.544 1776.64 560.82 1791.25 563.543C1798.82 564.954 1808.25 556.543 1808.25 556.543C1808.25 556.543 1809.68 570.327 1816.75 571.043C1823.9 571.767 1838.78 559.739 1838.78 559.739C1838.78 559.739 1840.26 568.177 1845.25 569.043C1849.47 569.775 1841.42 567.119 1845.25 569.043C1857.09 574.996 1860.07 556.519 1860.75 546.544C1861.87 530.043 1850.44 522.478 1850.13 523.197Z" fill="#693875"/>
<path d="M1845.25 569.043C1857.09 574.996 1860.07 556.519 1860.75 546.544C1861.87 530.043 1850.44 522.478 1850.13 523.197L1801.25 520.043C1801.25 520.043 1790.09 531.567 1785.3 540.394C1779.79 550.544 1776.64 560.82 1791.25 563.543C1798.82 564.954 1808.25 556.543 1808.25 556.543C1808.25 556.543 1809.68 570.327 1816.75 571.043C1823.9 571.767 1838.78 559.739 1838.78 559.739C1838.78 559.739 1840.26 568.177 1845.25 569.043ZM1845.25 569.043C1849.47 569.775 1841.42 567.119 1845.25 569.043Z" stroke="black" stroke-width="3"/>
<path d="M1400.35 380.443C1410.44 270.362 1457.2 261.359 1467.64 262.591V311.977C1463.16 295.022 1438.59 333.104 1436.35 421.398C1434.12 509.692 1448.75 518.091 1448.75 518.091L1400.35 521.591C1400.35 521.591 1392.65 464.495 1400.35 380.443Z" fill="white" stroke="black" stroke-width="3"/>
<path d="M1399.87 521.246L1448.75 518.092C1448.75 518.092 1459.91 529.616 1464.7 538.443C1470.21 548.593 1473.36 558.869 1458.75 561.592C1451.18 563.003 1441.75 554.592 1441.75 554.592C1441.75 554.592 1440.32 568.376 1433.25 569.092C1426.1 569.815 1411.22 557.788 1411.22 557.788C1411.22 557.788 1409.74 566.225 1404.75 567.091C1400.53 567.824 1408.58 565.168 1404.75 567.091C1392.91 573.045 1389.93 554.568 1389.25 544.592C1388.13 528.092 1399.56 520.527 1399.87 521.246Z" fill="#693875"/>
<path d="M1404.75 567.091C1392.91 573.045 1389.93 554.568 1389.25 544.592C1388.13 528.092 1399.56 520.527 1399.87 521.246L1448.75 518.092C1448.75 518.092 1459.91 529.616 1464.7 538.443C1470.21 548.593 1473.36 558.869 1458.75 561.592C1451.18 563.003 1441.75 554.592 1441.75 554.592C1441.75 554.592 1440.32 568.376 1433.25 569.092C1426.1 569.815 1411.22 557.788 1411.22 557.788C1411.22 557.788 1409.74 566.225 1404.75 567.091ZM1404.75 567.091C1400.53 567.824 1408.58 565.168 1404.75 567.091Z" stroke="black" stroke-width="3"/>
<path d="M1632.1 225.446C1632.1 270.457 1590.42 306.946 1547.02 306.946C1503.62 306.946 1469.6 270.457 1469.6 225.446C1459.06 167.256 1498.48 142.534 1553.52 143.946C1596.92 143.946 1632.1 180.435 1632.1 225.446Z" fill="white" stroke="black" stroke-width="3"/>
<ellipse cx="1546.91" cy="225.445" rx="40.9766" ry="42.5" fill="#693875" stroke="black" stroke-width="3"/>
<path d="M1783.6 211.562C1779.5 256.387 1747.11 307.063 1702.1 307.063C1657.09 307.063 1620.6 270.574 1620.6 225.562C1620.6 180.551 1664.1 145.062 1702.1 144.063C1703.46 140.314 1790.29 138.3 1783.6 211.562Z" fill="white" stroke="black" stroke-width="3"/>
<circle cx="1701.1" cy="224.494" r="42.5" fill="#693875" stroke="black" stroke-width="3"/>
<path d="M1467.71 195.994H1783.71V355.994C1783.71 369.801 1772.51 380.994 1758.71 380.994H1492.71C1478.9 380.994 1467.71 369.801 1467.71 355.994V195.994Z" fill="white" stroke="black" stroke-width="3"/>
<rect x="1491.71" y="210.994" width="268" height="156" rx="25" fill="black" stroke="black" stroke-width="3"/>
<rect x="1509.71" y="238.994" width="100" height="100" stroke="black" stroke-width="3"/>
<rect x="1641.71" y="238.994" width="100" height="100" stroke="black" stroke-width="3"/>
<path d="M2302.1 352.994H2275.6L2282.1 390.494L2302.1 648.994H2351.1L2310.1 390.494L2302.1 352.994Z" fill="white" stroke="black" stroke-width="3" stroke-linecap="round" stroke-linejoin="round"/>
<path d="M2351.49 648.994L2301.99 648.994C2301.99 648.994 2288.34 637.241 2287.81 627.213C2287.26 616.99 2290.1 606.155 2300.12 604.071C2307.66 602.503 2315.3 612.043 2315.3 612.043C2315.3 612.043 2321.27 599.652 2328.37 599.385C2335.55 599.114 2342.4 611.289 2342.4 611.289C2342.4 611.289 2348.06 604.503 2353.1 603.955C2357.36 603.491 2360.47 604.272 2363.57 607.224C2367.41 610.88 2366.91 622.432 2366.91 622.432C2366.91 622.432 2366 632.058 2362.26 638.103C2359.18 643.085 2351.49 648.994 2351.49 648.994Z" fill="#693875" stroke="black" stroke-width="3"/>
<path d="M2249.21 352.994H2275.71L2269.6 390.494L2249.21 648.994H2200.21L2240.6 390.494L2249.21 352.994Z" fill="white" stroke="black" stroke-width="3"/>
<path d="M2249.1 648.995L2200.1 648.995C2200.1 648.995 2186.67 637.703 2186.08 627.678C2185.47 617.458 2188.25 606.607 2198.26 604.463C2205.79 602.851 2213.48 612.346 2213.48 612.346C2213.48 612.346 2219.38 599.92 2226.48 599.611C2233.66 599.299 2240.58 611.434 2240.58 611.434C2240.58 611.434 2246.2 604.614 2251.23 604.036C2255.49 603.547 2258.6 604.31 2261.72 607.244C2265.58 610.878 2265.15 622.432 2265.15 622.432C2265.15 622.432 2264.29 632.064 2260.59 638.13C2257.54 643.13 2249.1 648.995 2249.1 648.995Z" fill="#693875" stroke="black" stroke-width="3"/>
<path d="M2499.65 382.395C2485.29 272.422 2436.79 257.246 2432.36 264.543V313.929C2436.84 296.974 2461.41 335.056 2463.65 423.35C2465.88 511.644 2451.25 520.043 2451.25 520.043L2499.65 523.543C2499.65 523.543 2510.57 466.089 2499.65 382.395Z" fill="white" stroke="black" stroke-width="3"/>
<path d="M2500.13 523.197L2451.25 520.043C2451.25 520.043 2440.09 531.567 2435.3 540.394C2429.79 550.544 2426.64 560.82 2441.25 563.543C2448.82 564.954 2458.25 556.543 2458.25 556.543C2458.25 556.543 2459.68 570.327 2466.75 571.043C2473.9 571.767 2488.78 559.739 2488.78 559.739C2488.78 559.739 2490.26 568.177 2495.25 569.043C2499.47 569.775 2491.42 567.119 2495.25 569.043C2507.09 574.996 2510.07 556.519 2510.75 546.544C2511.88 530.043 2500.44 522.478 2500.13 523.197Z" fill="#693875"/>
<path d="M2495.25 569.043C2507.09 574.996 2510.07 556.519 2510.75 546.544C2511.88 530.043 2500.44 522.478 2500.13 523.197L2451.25 520.043C2451.25 520.043 2440.09 531.567 2435.3 540.394C2429.79 550.544 2426.64 560.82 2441.25 563.543C2448.82 564.954 2458.25 556.543 2458.25 556.543C2458.25 556.543 2459.68 570.327 2466.75 571.043C2473.9 571.767 2488.78 559.739 2488.78 559.739C2488.78 559.739 2490.26 568.177 2495.25 569.043ZM2495.25 569.043C2499.47 569.775 2491.42 567.119 2495.25 569.043Z" stroke="black" stroke-width="3"/>
<path d="M2050.35 380.443C2060.44 270.362 2107.2 261.359 2117.64 262.591V311.977C2113.16 295.022 2088.59 333.104 2086.35 421.398C2084.12 509.692 2098.75 518.091 2098.75 518.091L2050.35 521.591C2050.35 521.591 2042.65 464.495 2050.35 380.443Z" fill="white" stroke="black" stroke-width="3"/>
<path d="M2049.87 521.246L2098.75 518.092C2098.75 518.092 2109.91 529.616 2114.7 538.443C2120.21 548.593 2123.36 558.869 2108.75 561.592C2101.18 563.003 2091.75 554.592 2091.75 554.592C2091.75 554.592 2090.32 568.376 2083.25 569.092C2076.1 569.815 2061.22 557.788 2061.22 557.788C2061.22 557.788 2059.74 566.225 2054.75 567.091C2050.53 567.824 2058.58 565.168 2054.75 567.091C2042.91 573.045 2039.93 554.568 2039.25 544.592C2038.13 528.092 2049.56 520.527 2049.87 521.246Z" fill="#693875"/>
<path d="M2054.75 567.091C2042.91 573.045 2039.93 554.568 2039.25 544.592C2038.13 528.092 2049.56 520.527 2049.87 521.246L2098.75 518.092C2098.75 518.092 2109.91 529.616 2114.7 538.443C2120.21 548.593 2123.36 558.869 2108.75 561.592C2101.18 563.003 2091.75 554.592 2091.75 554.592C2091.75 554.592 2090.32 568.376 2083.25 569.092C2076.1 569.815 2061.22 557.788 2061.22 557.788C2061.22 557.788 2059.74 566.225 2054.75 567.091ZM2054.75 567.091C2050.53 567.824 2058.58 565.168 2054.75 567.091Z" stroke="black" stroke-width="3"/>
<path d="M2282.1 225.446C2282.1 270.457 2240.42 306.946 2197.02 306.946C2153.62 306.946 2119.6 270.457 2119.6 225.446C2109.06 167.256 2148.48 142.534 2203.52 143.946C2246.92 143.946 2282.1 180.435 2282.1 225.446Z" fill="white" stroke="black" stroke-width="3"/>
<ellipse cx="2196.91" cy="225.445" rx="40.9766" ry="42.5" fill="#693875" stroke="black" stroke-width="3"/>
<path d="M2433.6 211.562C2429.5 256.387 2397.11 307.063 2352.1 307.063C2307.08 307.063 2270.6 270.574 2270.6 225.562C2270.6 180.551 2314.1 145.062 2352.1 144.063C2353.46 140.314 2440.29 138.3 2433.6 211.562Z" fill="white" stroke="black" stroke-width="3"/>
<circle cx="2351.1" cy="224.494" r="42.5" fill="#693875" stroke="black" stroke-width="3"/>
<path d="M2117.71 195.994H2433.71V355.994C2433.71 369.801 2422.51 380.994 2408.71 380.994H2142.71C2128.9 380.994 2117.71 369.801 2117.71 355.994V195.994Z" fill="white" stroke="black" stroke-width="3"/>
<rect x="2141.71" y="210.994" width="268" height="156" rx="25" fill="black" stroke="black" stroke-width="3"/>
<rect x="2159.71" y="238.994" width="100" height="100" stroke="black" stroke-width="3"/>
<rect x="2291.71" y="238.994" width="100" height="100" stroke="black" stroke-width="3"/>
<path d="M2952.1 352.994H2925.6L2932.1 390.494L2952.1 648.994H3001.1L2960.1 390.494L2952.1 352.994Z" fill="white" stroke="black" stroke-width="3" stroke-linecap="round" stroke-linejoin="round"/>
<path d="M3001.49 648.994L2951.99 648.994C2951.99 648.994 2938.34 637.241 2937.81 627.213C2937.26 616.99 2940.1 606.155 2950.12 604.071C2957.66 602.503 2965.3 612.043 2965.3 612.043C2965.3 612.043 2971.27 599.652 2978.37 599.385C2985.55 599.114 2992.4 611.289 2992.4 611.289C2992.4 611.289 2998.06 604.503 3003.1 603.955C3007.36 603.491 3010.47 604.272 3013.57 607.224C3017.41 610.88 3016.91 622.432 3016.91 622.432C3016.91 622.432 3016 632.058 3012.26 638.103C3009.18 643.085 3001.49 648.994 3001.49 648.994Z" fill="#693875" stroke="black" stroke-width="3"/>
<path d="M2899.21 352.994H2925.71L2919.6 390.494L2899.21 648.994H2850.21L2890.6 390.494L2899.21 352.994Z" fill="white" stroke="black" stroke-width="3"/>
<path d="M2899.1 648.995L2850.1 648.995C2850.1 648.995 2836.67 637.703 2836.08 627.678C2835.47 617.458 2838.25 606.607 2848.26 604.463C2855.79 602.851 2863.48 612.346 2863.48 612.346C2863.48 612.346 2869.38 599.92 2876.48 599.611C2883.66 599.299 2890.58 611.434 2890.58 611.434C2890.58 611.434 2896.2 604.614 2901.23 604.036C2905.49 603.547 2908.6 604.31 2911.72 607.244C2915.58 610.878 2915.15 622.432 2915.15 622.432C2915.15 622.432 2914.29 632.064 2910.59 638.13C2907.54 643.13 2899.1 648.995 2899.1 648.995Z" fill="#693875" stroke="black" stroke-width="3"/>
<path d="M3149.65 382.395C3135.29 272.422 3086.79 257.246 3082.36 264.543V313.929C3086.84 296.974 3111.41 335.056 3113.65 423.35C3115.88 511.644 3101.25 520.043 3101.25 520.043L3149.65 523.543C3149.65 523.543 3160.57 466.089 3149.65 382.395Z" fill="white" stroke="black" stroke-width="3"/>
<path d="M3150.13 523.197L3101.25 520.043C3101.25 520.043 3090.09 531.567 3085.3 540.394C3079.79 550.544 3076.64 560.82 3091.25 563.543C3098.82 564.954 3108.25 556.543 3108.25 556.543C3108.25 556.543 3109.68 570.327 3116.75 571.043C3123.9 571.767 3138.78 559.739 3138.78 559.739C3138.78 559.739 3140.26 568.177 3145.25 569.043C3149.47 569.775 3141.42 567.119 3145.25 569.043C3157.09 574.996 3160.07 556.519 3160.75 546.544C3161.88 530.043 3150.44 522.478 3150.13 523.197Z" fill="#693875"/>
<path d="M3145.25 569.043C3157.09 574.996 3160.07 556.519 3160.75 546.544C3161.88 530.043 3150.44 522.478 3150.13 523.197L3101.25 520.043C3101.25 520.043 3090.09 531.567 3085.3 540.394C3079.79 550.544 3076.64 560.82 3091.25 563.543C3098.82 564.954 3108.25 556.543 3108.25 556.543C3108.25 556.543 3109.68 570.327 3116.75 571.043C3123.9 571.767 3138.78 559.739 3138.78 559.739C3138.78 559.739 3140.26 568.177 3145.25 569.043ZM3145.25 569.043C3149.47 569.775 3141.42 567.119 3145.25 569.043Z" stroke="black" stroke-width="3"/>
<path d="M2700.35 380.443C2710.44 270.362 2757.2 261.359 2767.64 262.591V311.977C2763.16 295.022 2738.59 333.104 2736.36 421.398C2734.12 509.692 2748.75 518.091 2748.75 518.091L2700.35 521.591C2700.35 521.591 2692.65 464.495 2700.35 380.443Z" fill="white" stroke="black" stroke-width="3"/>
<path d="M2699.87 521.246L2748.75 518.092C2748.75 518.092 2759.91 529.616 2764.7 538.443C2770.21 548.593 2773.36 558.869 2758.75 561.592C2751.18 563.003 2741.75 554.592 2741.75 554.592C2741.75 554.592 2740.32 568.376 2733.25 569.092C2726.1 569.815 2711.22 557.788 2711.22 557.788C2711.22 557.788 2709.74 566.225 2704.75 567.091C2700.53 567.824 2708.58 565.168 2704.75 567.091C2692.91 573.045 2689.93 554.568 2689.25 544.592C2688.13 528.092 2699.56 520.527 2699.87 521.246Z" fill="#693875"/>
<path d="M2704.75 567.091C2692.91 573.045 2689.93 554.568 2689.25 544.592C2688.13 528.092 2699.56 520.527 2699.87 521.246L2748.75 518.092C2748.75 518.092 2759.91 529.616 2764.7 538.443C2770.21 548.593 2773.36 558.869 2758.75 561.592C2751.18 563.003 2741.75 554.592 2741.75 554.592C2741.75 554.592 2740.32 568.376 2733.25 569.092C2726.1 569.815 2711.22 557.788 2711.22 557.788C2711.22 557.788 2709.74 566.225 2704.75 567.091ZM2704.75 567.091C2700.53 567.824 2708.58 565.168 2704.75 567.091Z" stroke="black" stroke-width="3"/>
<path d="M2932.1 225.446C2932.1 270.457 2890.42 306.946 2847.02 306.946C2803.62 306.946 2769.6 270.457 2769.6 225.446C2759.06 167.256 2798.48 142.534 2853.52 143.946C2896.92 143.946 2932.1 180.435 2932.1 225.446Z" fill="white" stroke="black" stroke-width="3"/>
<ellipse cx="2846.91" cy="225.445" rx="40.9766" ry="42.5" fill="#693875" stroke="black" stroke-width="3"/>
<path d="M3083.6 211.562C3079.5 256.387 3047.11 307.063 3002.1 307.063C2957.09 307.063 2920.6 270.574 2920.6 225.562C2920.6 180.551 2964.1 145.062 3002.1 144.063C3003.46 140.314 3090.29 138.3 3083.6 211.562Z" fill="white" stroke="black" stroke-width="3"/>
<circle cx="3001.1" cy="224.494" r="42.5" fill="#693875" stroke="black" stroke-width="3"/>
<path d="M2767.71 195.994H3083.71V355.994C3083.71 369.801 3072.51 380.994 3058.71 380.994H2792.71C2778.9 380.994 2767.71 369.801 2767.71 355.994V195.994Z" fill="white" stroke="black" stroke-width="3"/>
<rect x="2791.71" y="210.994" width="268" height="156" rx="25" fill="black" stroke="black" stroke-width="3"/>
<rect x="2809.71" y="238.994" width="100" height="100" stroke="black" stroke-width="3"/>
<rect x="2941.71" y="238.994" width="100" height="100" stroke="black" stroke-width="3"/>
<path d="M3602.1 352.994H3575.6L3582.1 390.494L3602.1 648.994H3651.1L3610.1 390.494L3602.1 352.994Z" fill="white" stroke="black" stroke-width="3" stroke-linecap="round" stroke-linejoin="round"/>
<path d="M3651.49 648.994L3601.99 648.994C3601.99 648.994 3588.34 637.241 3587.81 627.213C3587.26 616.99 3590.1 606.155 3600.12 604.071C3607.66 602.503 3615.3 612.043 3615.3 612.043C3615.3 612.043 3621.27 599.652 3628.37 599.385C3635.55 599.114 3642.4 611.289 3642.4 611.289C3642.4 611.289 3648.06 604.503 3653.1 603.955C3657.36 603.491 3660.47 604.272 3663.57 607.224C3667.41 610.88 3666.91 622.432 3666.91 622.432C3666.91 622.432 3666 632.058 3662.26 638.103C3659.18 643.085 3651.49 648.994 3651.49 648.994Z" fill="#693875" stroke="black" stroke-width="3"/>
<path d="M3549.21 352.994H3575.71L3569.6 390.494L3549.21 648.994H3500.21L3540.6 390.494L3549.21 352.994Z" fill="white" stroke="black" stroke-width="3"/>
<path d="M3549.1 648.995L3500.1 648.995C3500.1 648.995 3486.67 637.703 3486.08 627.678C3485.47 617.458 3488.25 606.607 3498.26 604.463C3505.79 602.851 3513.48 612.346 3513.48 612.346C3513.48 612.346 3519.38 599.92 3526.48 599.611C3533.66 599.299 3540.58 611.434 3540.58 611.434C3540.58 611.434 3546.2 604.614 3551.23 604.036C3555.49 603.547 3558.6 604.31 3561.72 607.244C3565.58 610.878 3565.15 622.432 3565.15 622.432C3565.15 622.432 3564.29 632.064 3560.59 638.13C3557.54 643.13 3549.1 648.995 3549.1 648.995Z" fill="#693875" stroke="black" stroke-width="3"/>
<path d="M3799.65 382.395C3785.29 272.422 3736.79 257.246 3732.36 264.543V313.929C3736.84 296.974 3761.41 335.056 3763.65 423.35C3765.88 511.644 3751.25 520.043 3751.25 520.043L3799.65 523.543C3799.65 523.543 3810.57 466.089 3799.65 382.395Z" fill="white" stroke="black" stroke-width="3"/>
<path d="M3800.13 523.197L3751.25 520.043C3751.25 520.043 3740.09 531.567 3735.3 540.394C3729.79 550.544 3726.64 560.82 3741.25 563.543C3748.82 564.954 3758.25 556.543 3758.25 556.543C3758.25 556.543 3759.68 570.327 3766.75 571.043C3773.9 571.767 3788.78 559.739 3788.78 559.739C3788.78 559.739 3790.26 568.177 3795.25 569.043C3799.47 569.775 3791.42 567.119 3795.25 569.043C3807.09 574.996 3810.07 556.519 3810.75 546.544C3811.88 530.043 3800.44 522.478 3800.13 523.197Z" fill="#693875"/>
<path d="M3795.25 569.043C3807.09 574.996 3810.07 556.519 3810.75 546.544C3811.88 530.043 3800.44 522.478 3800.13 523.197L3751.25 520.043C3751.25 520.043 3740.09 531.567 3735.3 540.394C3729.79 550.544 3726.64 560.82 3741.25 563.543C3748.82 564.954 3758.25 556.543 3758.25 556.543C3758.25 556.543 3759.68 570.327 3766.75 571.043C3773.9 571.767 3788.78 559.739 3788.78 559.739C3788.78 559.739 3790.26 568.177 3795.25 569.043ZM3795.25 569.043C3799.47 569.775 3791.42 567.119 3795.25 569.043Z" stroke="black" stroke-width="3"/>
<path d="M3350.35 380.443C3360.44 270.362 3407.2 261.359 3417.64 262.591V311.977C3413.16 295.022 3388.59 333.104 3386.36 421.398C3384.12 509.692 3398.75 518.091 3398.75 518.091L3350.35 521.591C3350.35 521.591 3342.65 464.495 3350.35 380.443Z" fill="white" stroke="black" stroke-width="3"/>
<path d="M3349.87 521.246L3398.75 518.092C3398.75 518.092 3409.91 529.616 3414.7 538.443C3420.21 548.593 3423.36 558.869 3408.75 561.592C3401.18 563.003 3391.75 554.592 3391.75 554.592C3391.75 554.592 3390.32 568.376 3383.25 569.092C3376.1 569.815 3361.22 557.788 3361.22 557.788C3361.22 557.788 3359.74 566.225 3354.75 567.091C3350.53 567.824 3358.58 565.168 3354.75 567.091C3342.91 573.045 3339.93 554.568 3339.25 544.592C3338.13 528.092 3349.56 520.527 3349.87 521.246Z" fill="#693875"/>
<path d="M3354.75 567.091C3342.91 573.045 3339.93 554.568 3339.25 544.592C3338.13 528.092 3349.56 520.527 3349.87 521.246L3398.75 518.092C3398.75 518.092 3409.91 529.616 3414.7 538.443C3420.21 548.593 3423.36 558.869 3408.75 561.592C3401.18 563.003 3391.75 554.592 3391.75 554.592C3391.75 554.592 3390.32 568.376 3383.25 569.092C3376.1 569.815 3361.22 557.788 3361.22 557.788C3361.22 557.788 3359.74 566.225 3354.75 567.091ZM3354.75 567.091C3350.53 567.824 3358.58 565.168 3354.75 567.091Z" stroke="black" stroke-width="3"/>
<path d="M3582.1 225.446C3582.1 270.457 3540.42 306.946 3497.02 306.946C3453.62 306.946 3419.6 270.457 3419.6 225.446C3409.06 167.256 3448.48 142.534 3503.52 143.946C3546.92 143.946 3582.1 180.435 3582.1 225.446Z" fill="white" stroke="black" stroke-width="3"/>
<ellipse cx="3496.91" cy="225.445" rx="40.9766" ry="42.5" fill="#693875" stroke="black" stroke-width="3"/>
<path d="M3733.6 211.562C3729.5 256.387 3697.11 307.063 3652.1 307.063C3607.09 307.063 3570.6 270.574 3570.6 225.562C3570.6 180.551 3614.1 145.062 3652.1 144.063C3653.46 140.314 3740.29 138.3 3733.6 211.562Z" fill="white" stroke="black" stroke-width="3"/>
<circle cx="3651.1" cy="224.494" r="42.5" fill="#693875" stroke="black" stroke-width="3"/>
<path d="M3417.71 195.994H3733.71V355.994C3733.71 369.801 3722.51 380.994 3708.71 380.994H3442.71C3428.9 380.994 3417.71 369.801 3417.71 355.994V195.994Z" fill="white" stroke="black" stroke-width="3"/>
<rect x="3441.71" y="210.994" width="268" height="156" rx="25" fill="black" stroke="black" stroke-width="3"/>
<circle cx="3496.6" cy="328.994" r="20" fill="white" stroke="black" stroke-width="3"/>
<path d="M4252.1 352.994H4225.6L4232.1 390.494L4252.1 648.994H4301.1L4260.1 390.494L4252.1 352.994Z" fill="white" stroke="black" stroke-width="3" stroke-linecap="round" stroke-linejoin="round"/>
<path d="M4301.49 648.994L4251.99 648.994C4251.99 648.994 4238.34 637.241 4237.81 627.213C4237.26 616.99 4240.1 606.155 4250.12 604.071C4257.66 602.503 4265.3 612.043 4265.3 612.043C4265.3 612.043 4271.27 599.652 4278.37 599.385C4285.55 599.114 4292.4 611.289 4292.4 611.289C4292.4 611.289 4298.06 604.503 4303.1 603.955C4307.36 603.491 4310.47 604.272 4313.57 607.224C4317.41 610.88 4316.91 622.432 4316.91 622.432C4316.91 622.432 4316 632.058 4312.26 638.103C4309.18 643.085 4301.49 648.994 4301.49 648.994Z" fill="#693875" stroke="black" stroke-width="3"/>
<path d="M4199.21 352.994H4225.71L4219.6 390.494L4199.21 648.994H4150.21L4190.6 390.494L4199.21 352.994Z" fill="white" stroke="black" stroke-width="3"/>
<path d="M4199.1 648.995L4150.1 648.995C4150.1 648.995 4136.67 637.703 4136.08 627.678C4135.47 617.458 4138.25 606.607 4148.26 604.463C4155.79 602.851 4163.48 612.346 4163.48 612.346C4163.48 612.346 4169.38 599.92 4176.48 599.611C4183.66 599.299 4190.58 611.434 4190.58 611.434C4190.58 611.434 4196.2 604.614 4201.23 604.036C4205.49 603.547 4208.6 604.31 4211.72 607.244C4215.58 610.878 4215.15 622.432 4215.15 622.432C4215.15 622.432 4214.29 632.064 4210.59 638.13C4207.54 643.13 4199.1 648.995 4199.1 648.995Z" fill="#693875" stroke="black" stroke-width="3"/>
<path d="M4449.65 382.395C4435.29 272.422 4386.79 257.246 4382.36 264.543V313.929C4386.84 296.974 4411.41 335.056 4413.65 423.35C4415.88 511.644 4401.25 520.043 4401.25 520.043L4449.65 523.543C4449.65 523.543 4460.57 466.089 4449.65 382.395Z" fill="white" stroke="black" stroke-width="3"/>
<path d="M4450.13 523.197L4401.25 520.043C4401.25 520.043 4390.09 531.567 4385.3 540.394C4379.79 550.544 4376.64 560.82 4391.25 563.543C4398.82 564.954 4408.25 556.543 4408.25 556.543C4408.25 556.543 4409.68 570.327 4416.75 571.043C4423.9 571.767 4438.78 559.739 4438.78 559.739C4438.78 559.739 4440.26 568.177 4445.25 569.043C4449.47 569.775 4441.42 567.119 4445.25 569.043C4457.09 574.996 4460.07 556.519 4460.75 546.544C4461.88 530.043 4450.44 522.478 4450.13 523.197Z" fill="#693875"/>
<path d="M4445.25 569.043C4457.09 574.996 4460.07 556.519 4460.75 546.544C4461.88 530.043 4450.44 522.478 4450.13 523.197L4401.25 520.043C4401.25 520.043 4390.09 531.567 4385.3 540.394C4379.79 550.544 4376.64 560.82 4391.25 563.543C4398.82 564.954 4408.25 556.543 4408.25 556.543C4408.25 556.543 4409.68 570.327 4416.75 571.043C4423.9 571.767 4438.78 559.739 4438.78 559.739C4438.78 559.739 4440.26 568.177 4445.25 569.043ZM4445.25 569.043C4449.47 569.775 4441.42 567.119 4445.25 569.043Z" stroke="black" stroke-width="3"/>
<path d="M4000.35 380.443C4010.44 270.362 4057.2 261.359 4067.64 262.591V311.977C4063.16 295.022 4038.59 333.104 4036.36 421.398C4034.12 509.692 4048.75 518.091 4048.75 518.091L4000.35 521.591C4000.35 521.591 3992.65 464.495 4000.35 380.443Z" fill="white" stroke="black" stroke-width="3"/>
<path d="M3999.87 521.246L4048.75 518.092C4048.75 518.092 4059.91 529.616 4064.7 538.443C4070.21 548.593 4073.36 558.869 4058.75 561.592C4051.18 563.003 4041.75 554.592 4041.75 554.592C4041.75 554.592 4040.32 568.376 4033.25 569.092C4026.1 569.815 4011.22 557.788 4011.22 557.788C4011.22 557.788 4009.74 566.225 4004.75 567.091C4000.53 567.824 4008.58 565.168 4004.75 567.091C3992.91 573.045 3989.93 554.568 3989.25 544.592C3988.13 528.092 3999.56 520.527 3999.87 521.246Z" fill="#693875"/>
<path d="M4004.75 567.091C3992.91 573.045 3989.93 554.568 3989.25 544.592C3988.13 528.092 3999.56 520.527 3999.87 521.246L4048.75 518.092C4048.75 518.092 4059.91 529.616 4064.7 538.443C4070.21 548.593 4073.36 558.869 4058.75 561.592C4051.18 563.003 4041.75 554.592 4041.75 554.592C4041.75 554.592 4040.32 568.376 4033.25 569.092C4026.1 569.815 4011.22 557.788 4011.22 557.788C4011.22 557.788 4009.74 566.225 4004.75 567.091ZM4004.75 567.091C4000.53 567.824 4008.58 565.168 4004.75 567.091Z" stroke="black" stroke-width="3"/>
<path d="M4232.1 225.446C4232.1 270.457 4190.42 306.946 4147.02 306.946C4103.62 306.946 4069.6 270.457 4069.6 225.446C4059.06 167.256 4098.48 142.534 4153.52 143.946C4196.92 143.946 4232.1 180.435 4232.1 225.446Z" fill="white" stroke="black" stroke-width="3"/>
<ellipse cx="4146.91" cy="225.445" rx="40.9766" ry="42.5" fill="#693875" stroke="black" stroke-width="3"/>
<path d="M4383.6 211.562C4379.5 256.387 4347.11 307.063 4302.1 307.063C4257.09 307.063 4220.6 270.574 4220.6 225.562C4220.6 180.551 4264.1 145.062 4302.1 144.063C4303.46 140.314 4390.29 138.3 4383.6 211.562Z" fill="white" stroke="black" stroke-width="3"/>
<circle cx="4301.1" cy="224.494" r="42.5" fill="#693875" stroke="black" stroke-width="3"/>
<path d="M4067.71 195.994H4383.71V355.994C4383.71 369.801 4372.51 380.994 4358.71 380.994H4092.71C4078.9 380.994 4067.71 369.801 4067.71 355.994V195.994Z" fill="white" stroke="black" stroke-width="3"/>
<rect x="4091.71" y="210.994" width="268" height="156" rx="25" fill="black" stroke="black" stroke-width="3"/>
<circle cx="4146.6" cy="326.994" r="20" fill="white" stroke="black" stroke-width="3"/>
<circle cx="4225.6" cy="326.994" r="20" fill="white" stroke="black" stroke-width="3"/>
<path d="M4902.1 352.994H4875.6L4882.1 390.494L4902.1 648.994H4951.1L4910.1 390.494L4902.1 352.994Z" fill="white" stroke="black" stroke-width="3" stroke-linecap="round" stroke-linejoin="round"/>
<path d="M4951.49 648.994L4901.99 648.994C4901.99 648.994 4888.34 637.241 4887.81 627.213C4887.26 616.99 4890.1 606.155 4900.12 604.071C4907.66 602.503 4915.3 612.043 4915.3 612.043C4915.3 612.043 4921.27 599.652 4928.37 599.385C4935.55 599.114 4942.4 611.289 4942.4 611.289C4942.4 611.289 4948.06 604.503 4953.1 603.955C4957.36 603.491 4960.47 604.272 4963.57 607.224C4967.41 610.88 4966.91 622.432 4966.91 622.432C4966.91 622.432 4966 632.058 4962.26 638.103C4959.18 643.085 4951.49 648.994 4951.49 648.994Z" fill="#693875" stroke="black" stroke-width="3"/>
<path d="M4849.21 352.994H4875.71L4869.6 390.494L4849.21 648.994H4800.21L4840.6 390.494L4849.21 352.994Z" fill="white" stroke="black" stroke-width="3"/>
<path d="M4849.1 648.995L4800.1 648.995C4800.1 648.995 4786.67 637.703 4786.08 627.678C4785.47 617.458 4788.25 606.607 4798.26 604.463C4805.79 602.851 4813.48 612.346 4813.48 612.346C4813.48 612.346 4819.38 599.92 4826.48 599.611C4833.66 599.299 4840.58 611.434 4840.58 611.434C4840.58 611.434 4846.2 604.614 4851.23 604.036C4855.49 603.547 4858.6 604.31 4861.72 607.244C4865.58 610.878 4865.15 622.432 4865.15 622.432C4865.15 622.432 4864.29 632.064 4860.59 638.13C4857.54 643.13 4849.1 648.995 4849.1 648.995Z" fill="#693875" stroke="black" stroke-width="3"/>
<path d="M5099.65 382.395C5085.29 272.422 5036.79 257.246 5032.36 264.543V313.929C5036.84 296.974 5061.41 335.056 5063.65 423.35C5065.88 511.644 5051.25 520.043 5051.25 520.043L5099.65 523.543C5099.65 523.543 5110.57 466.089 5099.65 382.395Z" fill="white" stroke="black" stroke-width="3"/>
<path d="M5100.13 523.197L5051.25 520.043C5051.25 520.043 5040.09 531.567 5035.3 540.394C5029.79 550.544 5026.64 560.82 5041.25 563.543C5048.82 564.954 5058.25 556.543 5058.25 556.543C5058.25 556.543 5059.68 570.327 5066.75 571.043C5073.9 571.767 5088.78 559.739 5088.78 559.739C5088.78 559.739 5090.26 568.177 5095.25 569.043C5099.47 569.775 5091.42 567.119 5095.25 569.043C5107.09 574.996 5110.07 556.519 5110.75 546.544C5111.88 530.043 5100.44 522.478 5100.13 523.197Z" fill="#693875"/>
<path d="M5095.25 569.043C5107.09 574.996 5110.07 556.519 5110.75 546.544C5111.88 530.043 5100.44 522.478 5100.13 523.197L5051.25 520.043C5051.25 520.043 5040.09 531.567 5035.3 540.394C5029.79 550.544 5026.64 560.82 5041.25 563.543C5048.82 564.954 5058.25 556.543 5058.25 556.543C5058.25 556.543 5059.68 570.327 5066.75 571.043C5073.9 571.767 5088.78 559.739 5088.78 559.739C5088.78 559.739 5090.26 568.177 5095.25 569.043ZM5095.25 569.043C5099.47 569.775 5091.42 567.119 5095.25 569.043Z" stroke="black" stroke-width="3"/>
<path d="M4650.35 380.443C4660.44 270.362 4707.2 261.359 4717.64 262.591V311.977C4713.16 295.022 4688.59 333.104 4686.36 421.398C4684.12 509.692 4698.75 518.091 4698.75 518.091L4650.35 521.591C4650.35 521.591 4642.65 464.495 4650.35 380.443Z" fill="white" stroke="black" stroke-width="3"/>
<path d="M4649.87 521.246L4698.75 518.092C4698.75 518.092 4709.91 529.616 4714.7 538.443C4720.21 548.593 4723.36 558.869 4708.75 561.592C4701.18 563.003 4691.75 554.592 4691.75 554.592C4691.75 554.592 4690.32 568.376 4683.25 569.092C4676.1 569.815 4661.22 557.788 4661.22 557.788C4661.22 557.788 4659.74 566.225 4654.75 567.091C4650.53 567.824 4658.58 565.168 4654.75 567.091C4642.91 573.045 4639.93 554.568 4639.25 544.592C4638.13 528.092 4649.56 520.527 4649.87 521.246Z" fill="#693875"/>
<path d="M4654.75 567.091C4642.91 573.045 4639.93 554.568 4639.25 544.592C4638.13 528.092 4649.56 520.527 4649.87 521.246L4698.75 518.092C4698.75 518.092 4709.91 529.616 4714.7 538.443C4720.21 548.593 4723.36 558.869 4708.75 561.592C4701.18 563.003 4691.75 554.592 4691.75 554.592C4691.75 554.592 4690.32 568.376 4683.25 569.092C4676.1 569.815 4661.22 557.788 4661.22 557.788C4661.22 557.788 4659.74 566.225 4654.75 567.091ZM4654.75 567.091C4650.53 567.824 4658.58 565.168 4654.75 567.091Z" stroke="black" stroke-width="3"/>
<path d="M4882.1 225.446C4882.1 270.457 4840.42 306.946 4797.02 306.946C4753.62 306.946 4719.6 270.457 4719.6 225.446C4709.06 167.256 4748.48 142.534 4803.52 143.946C4846.92 143.946 4882.1 180.435 4882.1 225.446Z" fill="white" stroke="black" stroke-width="3"/>
<ellipse cx="4796.91" cy="225.445" rx="40.9766" ry="42.5" fill="#693875" stroke="black" stroke-width="3"/>
<path d="M5033.6 211.562C5029.5 256.387 4997.11 307.063 4952.1 307.063C4907.09 307.063 4870.6 270.574 4870.6 225.562C4870.6 180.551 4914.1 145.062 4952.1 144.063C4953.46 140.314 5040.29 138.3 5033.6 211.562Z" fill="white" stroke="black" stroke-width="3"/>
<circle cx="4951.1" cy="224.494" r="42.5" fill="#693875" stroke="black" stroke-width="3"/>
<path d="M4717.71 195.994H5033.71V355.994C5033.71 369.801 5022.51 380.994 5008.71 380.994H4742.71C4728.9 380.994 4717.71 369.801 4717.71 355.994V195.994Z" fill="white" stroke="black" stroke-width="3"/>
<rect x="4741.71" y="210.994" width="268" height="156" rx="25" fill="black" stroke="black" stroke-width="3"/>
<circle cx="4875.6" cy="326.994" r="20" fill="white" stroke="black" stroke-width="3"/>
<circle cx="4954.6" cy="326.994" r="20" fill="white" stroke="black" stroke-width="3"/>
<circle cx="4796.6" cy="326.994" r="20" fill="white" stroke="black" stroke-width="3"/>
<path d="M5552.1 352.994H5525.6L5532.1 390.494L5552.1 648.994H5601.1L5560.1 390.494L5552.1 352.994Z" fill="white" stroke="black" stroke-width="3" stroke-linecap="round" stroke-linejoin="round"/>
<path d="M5601.49 648.994L5551.99 648.994C5551.99 648.994 5538.34 637.241 5537.81 627.213C5537.26 616.99 5540.1 606.155 5550.12 604.071C5557.66 602.503 5565.3 612.043 5565.3 612.043C5565.3 612.043 5571.27 599.652 5578.37 599.385C5585.55 599.114 5592.4 611.289 5592.4 611.289C5592.4 611.289 5598.06 604.503 5603.1 603.955C5607.36 603.491 5610.47 604.272 5613.57 607.224C5617.41 610.88 5616.91 622.432 5616.91 622.432C5616.91 622.432 5616 632.058 5612.26 638.103C5609.18 643.085 5601.49 648.994 5601.49 648.994Z" fill="#693875" stroke="black" stroke-width="3"/>
<path d="M5499.21 352.994H5525.71L5519.6 390.494L5499.21 648.994H5450.21L5490.6 390.494L5499.21 352.994Z" fill="white" stroke="black" stroke-width="3"/>
<path d="M5499.1 648.995L5450.1 648.995C5450.1 648.995 5436.67 637.703 5436.08 627.678C5435.47 617.458 5438.25 606.607 5448.26 604.463C5455.79 602.851 5463.48 612.346 5463.48 612.346C5463.48 612.346 5469.38 599.92 5476.48 599.611C5483.66 599.299 5490.58 611.434 5490.58 611.434C5490.58 611.434 5496.2 604.614 5501.23 604.036C5505.49 603.547 5508.6 604.31 5511.72 607.244C5515.58 610.878 5515.15 622.432 5515.15 622.432C5515.15 622.432 5514.29 632.064 5510.59 638.13C5507.54 643.13 5499.1 648.995 5499.1 648.995Z" fill="#693875" stroke="black" stroke-width="3"/>
<path d="M5749.65 382.395C5735.29 272.422 5686.79 257.246 5682.36 264.543V313.929C5686.84 296.974 5711.41 335.056 5713.65 423.35C5715.88 511.644 5701.25 520.043 5701.25 520.043L5749.65 523.543C5749.65 523.543 5760.57 466.089 5749.65 382.395Z" fill="white" stroke="black" stroke-width="3"/>
<path d="M5750.13 523.197L5701.25 520.043C5701.25 520.043 5690.09 531.567 5685.3 540.394C5679.79 550.544 5676.64 560.82 5691.25 563.543C5698.82 564.954 5708.25 556.543 5708.25 556.543C5708.25 556.543 5709.68 570.327 5716.75 571.043C5723.9 571.767 5738.78 559.739 5738.78 559.739C5738.78 559.739 5740.26 568.177 5745.25 569.043C5749.47 569.775 5741.42 567.119 5745.25 569.043C5757.09 574.996 5760.07 556.519 5760.75 546.544C5761.88 530.043 5750.44 522.478 5750.13 523.197Z" fill="#693875"/>
<path d="M5745.25 569.043C5757.09 574.996 5760.07 556.519 5760.75 546.544C5761.88 530.043 5750.44 522.478 5750.13 523.197L5701.25 520.043C5701.25 520.043 5690.09 531.567 5685.3 540.394C5679.79 550.544 5676.64 560.82 5691.25 563.543C5698.82 564.954 5708.25 556.543 5708.25 556.543C5708.25 556.543 5709.68 570.327 5716.75 571.043C5723.9 571.767 5738.78 559.739 5738.78 559.739C5738.78 559.739 5740.26 568.177 5745.25 569.043ZM5745.25 569.043C5749.47 569.775 5741.42 567.119 5745.25 569.043Z" stroke="black" stroke-width="3"/>
<path d="M5300.35 380.443C5310.44 270.362 5357.2 261.359 5367.64 262.591V311.977C5363.16 295.022 5338.59 333.104 5336.36 421.398C5334.12 509.692 5348.75 518.091 5348.75 518.091L5300.35 521.591C5300.35 521.591 5292.65 464.495 5300.35 380.443Z" fill="white" stroke="black" stroke-width="3"/>
<path d="M5299.87 521.246L5348.75 518.092C5348.75 518.092 5359.91 529.616 5364.7 538.443C5370.21 548.593 5373.36 558.869 5358.75 561.592C5351.18 563.003 5341.75 554.592 5341.75 554.592C5341.75 554.592 5340.32 568.376 5333.25 569.092C5326.1 569.815 5311.22 557.788 5311.22 557.788C5311.22 557.788 5309.74 566.225 5304.75 567.091C5300.53 567.824 5308.58 565.168 5304.75 567.091C5292.91 573.045 5289.93 554.568 5289.25 544.592C5288.13 528.092 5299.56 520.527 5299.87 521.246Z" fill="#693875"/>
<path d="M5304.75 567.091C5292.91 573.045 5289.93 554.568 5289.25 544.592C5288.13 528.092 5299.56 520.527 5299.87 521.246L5348.75 518.092C5348.75 518.092 5359.91 529.616 5364.7 538.443C5370.21 548.593 5373.36 558.869 5358.75 561.592C5351.18 563.003 5341.75 554.592 5341.75 554.592C5341.75 554.592 5340.32 568.376 5333.25 569.092C5326.1 569.815 5311.22 557.788 5311.22 557.788C5311.22 557.788 5309.74 566.225 5304.75 567.091ZM5304.75 567.091C5300.53 567.824 5308.58 565.168 5304.75 567.091Z" stroke="black" stroke-width="3"/>
<path d="M5532.1 225.446C5532.1 270.457 5490.42 306.946 5447.02 306.946C5403.62 306.946 5369.6 270.457 5369.6 225.446C5359.06 167.256 5398.48 142.534 5453.52 143.946C5496.92 143.946 5532.1 180.435 5532.1 225.446Z" fill="white" stroke="black" stroke-width="3"/>
<ellipse cx="5446.91" cy="225.445" rx="40.9766" ry="42.5" fill="#693875" stroke="black" stroke-width="3"/>
<path d="M5683.6 211.562C5679.5 256.387 5647.11 307.063 5602.1 307.063C5557.09 307.063 5520.6 270.574 5520.6 225.562C5520.6 180.551 5564.1 145.062 5602.1 144.063C5603.46 140.314 5690.29 138.3 5683.6 211.562Z" fill="white" stroke="black" stroke-width="3"/>
<circle cx="5601.1" cy="224.494" r="42.5" fill="#693875" stroke="black" stroke-width="3"/>
<path d="M5367.71 195.994H5683.71V355.994C5683.71 369.801 5672.51 380.994 5658.71 380.994H5392.71C5378.9 380.994 5367.71 369.801 5367.71 355.994V195.994Z" fill="white" stroke="black" stroke-width="3"/>
<rect x="5391.71" y="210.994" width="268" height="156" rx="25" fill="black" stroke="black" stroke-width="3"/>
<rect x="5409.71" y="238.994" width="100" height="100" stroke="black" stroke-width="3"/>
<rect x="5541.71" y="238.994" width="100" height="100" stroke="black" stroke-width="3"/>
<path d="M6202.1 352.994H6175.6L6182.1 390.494L6202.1 648.994H6251.1L6210.1 390.494L6202.1 352.994Z" fill="white" stroke="black" stroke-width="3" stroke-linecap="round" stroke-linejoin="round"/>
<path d="M6251.49 648.994L6201.99 648.994C6201.99 648.994 6188.34 637.241 6187.81 627.213C6187.26 616.99 6190.1 606.155 6200.12 604.071C6207.66 602.503 6215.3 612.043 6215.3 612.043C6215.3 612.043 6221.27 599.652 6228.37 599.385C6235.55 599.114 6242.4 611.289 6242.4 611.289C6242.4 611.289 6248.06 604.503 6253.1 603.955C6257.36 603.491 6260.47 604.272 6263.57 607.224C6267.41 610.88 6266.91 622.432 6266.91 622.432C6266.91 622.432 6266 632.058 6262.26 638.103C6259.18 643.085 6251.49 648.994 6251.49 648.994Z" fill="#693875" stroke="black" stroke-width="3"/>
<path d="M6149.21 352.994H6175.71L6169.6 390.494L6149.21 648.994H6100.21L6140.6 390.494L6149.21 352.994Z" fill="white" stroke="black" stroke-width="3"/>
<path d="M6149.1 648.995L6100.1 648.995C6100.1 648.995 6086.67 637.703 6086.08 627.678C6085.47 617.458 6088.25 606.607 6098.26 604.463C6105.79 602.851 6113.48 612.346 6113.48 612.346C6113.48 612.346 6119.38 599.92 6126.48 599.611C6133.66 599.299 6140.58 611.434 6140.58 611.434C6140.58 611.434 6146.2 604.614 6151.23 604.036C6155.49 603.547 6158.6 604.31 6161.72 607.244C6165.58 610.878 6165.15 622.432 6165.15 622.432C6165.15 622.432 6164.29 632.064 6160.59 638.13C6157.54 643.13 6149.1 648.995 6149.1 648.995Z" fill="#693875" stroke="black" stroke-width="3"/>
<path d="M6399.65 382.395C6385.29 272.422 6336.79 257.246 6332.36 264.543V313.929C6336.84 296.974 6361.41 335.056 6363.65 423.35C6365.88 511.644 6351.25 520.043 6351.25 520.043L6399.65 523.543C6399.65 523.543 6410.57 466.089 6399.65 382.395Z" fill="white" stroke="black" stroke-width="3"/>
<path d="M6400.13 523.197L6351.25 520.043C6351.25 520.043 6340.09 531.567 6335.3 540.394C6329.79 550.544 6326.64 560.82 6341.25 563.543C6348.82 564.954 6358.25 556.543 6358.25 556.543C6358.25 556.543 6359.68 570.327 6366.75 571.043C6373.9 571.767 6388.78 559.739 6388.78 559.739C6388.78 559.739 6390.26 568.177 6395.25 569.043C6399.47 569.775 6391.42 567.119 6395.25 569.043C6407.09 574.996 6410.07 556.519 6410.75 546.544C6411.88 530.043 6400.44 522.478 6400.13 523.197Z" fill="#693875"/>
<path d="M6395.25 569.043C6407.09 574.996 6410.07 556.519 6410.75 546.544C6411.88 530.043 6400.44 522.478 6400.13 523.197L6351.25 520.043C6351.25 520.043 6340.09 531.567 6335.3 540.394C6329.79 550.544 6326.64 560.82 6341.25 563.543C6348.82 564.954 6358.25 556.543 6358.25 556.543C6358.25 556.543 6359.68 570.327 6366.75 571.043C6373.9 571.767 6388.78 559.739 6388.78 559.739C6388.78 559.739 6390.26 568.177 6395.25 569.043ZM6395.25 569.043C6399.47 569.775 6391.42 567.119 6395.25 569.043Z" stroke="black" stroke-width="3"/>
<path d="M5950.35 380.443C5960.44 270.362 6007.2 261.359 6017.64 262.591V311.977C6013.16 295.022 5988.59 333.104 5986.36 421.398C5984.12 509.692 5998.75 518.091 5998.75 518.091L5950.35 521.591C5950.35 521.591 5942.65 464.495 5950.35 380.443Z" fill="white" stroke="black" stroke-width="3"/>
<path d="M5949.87 521.246L5998.75 518.092C5998.75 518.092 6009.91 529.616 6014.7 538.443C6020.21 548.593 6023.36 558.869 6008.75 561.592C6001.18 563.003 5991.75 554.592 5991.75 554.592C5991.75 554.592 5990.32 568.376 5983.25 569.092C5976.1 569.815 5961.22 557.788 5961.22 557.788C5961.22 557.788 5959.74 566.225 5954.75 567.091C5950.53 567.824 5958.58 565.168 5954.75 567.091C5942.91 573.045 5939.93 554.568 5939.25 544.592C5938.13 528.092 5949.56 520.527 5949.87 521.246Z" fill="#693875"/>
<path d="M5954.75 567.091C5942.91 573.045 5939.93 554.568 5939.25 544.592C5938.13 528.092 5949.56 520.527 5949.87 521.246L5998.75 518.092C5998.75 518.092 6009.91 529.616 6014.7 538.443C6020.21 548.593 6023.36 558.869 6008.75 561.592C6001.18 563.003 5991.75 554.592 5991.75 554.592C5991.75 554.592 5990.32 568.376 5983.25 569.092C5976.1 569.815 5961.22 557.788 5961.22 557.788C5961.22 557.788 5959.74 566.225 5954.75 567.091ZM5954.75 567.091C5950.53 567.824 5958.58 565.168 5954.75 567.091Z" stroke="black" stroke-width="3"/>
<path d="M6182.1 225.446C6182.1 270.457 6140.42 306.946 6097.02 306.946C6053.62 306.946 6019.6 270.457 6019.6 225.446C6009.06 167.256 6048.48 142.534 6103.52 143.946C6146.92 143.946 6182.1 180.435 6182.1 225.446Z" fill="white" stroke="black" stroke-width="3"/>
<ellipse cx="6096.91" cy="225.445" rx="40.9766" ry="42.5" fill="#693875" stroke="black" stroke-width="3"/>
<path d="M6333.6 211.562C6329.5 256.387 6297.11 307.063 6252.1 307.063C6207.09 307.063 6170.6 270.574 6170.6 225.562C6170.6 180.551 6214.1 145.062 6252.1 144.063C6253.46 140.314 6340.29 138.3 6333.6 211.562Z" fill="white" stroke="black" stroke-width="3"/>
<circle cx="6251.1" cy="224.494" r="42.5" fill="#693875" stroke="black" stroke-width="3"/>
<path d="M6017.71 195.994H6333.71V355.994C6333.71 369.801 6322.51 380.994 6308.71 380.994H6042.71C6028.9 380.994 6017.71 369.801 6017.71 355.994V195.994Z" fill="white" stroke="black" stroke-width="3"/>
<rect x="6041.71" y="210.994" width="268" height="156" rx="25" fill="black" stroke="black" stroke-width="3"/>
<rect x="6059.71" y="238.994" width="100" height="100" stroke="black" stroke-width="3"/>
<rect x="6191.71" y="238.994" width="100" height="100" stroke="black" stroke-width="3"/>
<path d="M6798.5 352.996H6825L6798.5 648.996H6749.5L6798.5 352.996Z" fill="white" stroke="black" stroke-width="3"/>
<path d="M6798.39 648.995L6749.39 648.995C6749.39 648.995 6735.96 637.703 6735.37 627.678C6734.77 617.458 6737.54 606.607 6747.55 604.463C6755.08 602.851 6762.77 612.346 6762.77 612.346C6762.77 612.346 6768.67 599.92 6775.77 599.611C6782.95 599.299 6789.87 611.434 6789.87 611.434C6789.87 611.434 6795.49 604.614 6800.53 604.036C6804.78 603.547 6807.89 604.31 6811.01 607.244C6814.88 610.878 6814.45 622.432 6814.45 622.432C6814.45 622.432 6813.59 632.064 6809.89 638.13C6806.83 643.13 6798.39 648.995 6798.39 648.995Z" fill="#693875" stroke="black" stroke-width="3"/>
<path d="M6851.5 352.996H6825L6851.5 648.996H6900.5L6851.5 352.996Z" fill="white" stroke="black" stroke-width="3" stroke-linecap="round" stroke-linejoin="round"/>
<path d="M6900.89 648.996L6851.39 648.996C6851.39 648.996 6837.74 637.243 6837.21 627.215C6836.67 616.992 6839.5 606.157 6849.53 604.073C6857.07 602.505 6864.7 612.045 6864.7 612.045C6864.7 612.045 6870.68 599.654 6877.78 599.387C6884.96 599.116 6891.81 611.291 6891.81 611.291C6891.81 611.291 6897.47 604.505 6902.5 603.956C6906.76 603.493 6909.87 604.274 6912.97 607.226C6916.81 610.882 6916.32 622.434 6916.32 622.434C6916.32 622.434 6915.4 632.06 6911.66 638.105C6908.58 643.087 6900.89 648.996 6900.89 648.996Z" fill="#693875" stroke="black" stroke-width="3"/>
<path d="M6599.71 353.848C6623.07 259.892 6667 235.996 6667 235.996V285.382C6667 285.382 6642.82 324.939 6635.71 394.803C6628.61 464.667 6630.5 498.996 6630.5 498.996L6581.23 492.973C6581.23 492.973 6579.34 435.757 6599.71 353.848Z" fill="white" stroke="black" stroke-width="3"/>
<path d="M6581 492.997L6630.5 498.997C6630.5 498.997 6642.28 511.71 6641.61 521.73C6640.92 531.945 6636.81 542.362 6626.61 543.23C6618.93 543.883 6612.5 533.497 6612.5 533.497C6612.5 533.497 6605.08 545.083 6598 544.497C6590.84 543.905 6585.5 530.997 6585.5 530.997C6585.5 530.997 6579.07 537.056 6574 536.997C6569.72 536.947 6566.73 535.799 6564 532.497C6560.62 528.406 6562.5 516.997 6562.5 516.997C6562.5 516.997 6564.56 507.55 6569 501.997C6572.66 497.42 6581 492.997 6581 492.997Z" fill="#693875" stroke="black" stroke-width="3"/>
<path d="M7050.29 353.848C7026.93 259.892 6983 235.996 6983 235.996V285.382C6983 285.382 7007.18 324.939 7014.29 394.803C7021.39 464.667 7019.5 498.996 7019.5 498.996L7068.77 492.973C7068.77 492.973 7070.66 435.757 7050.29 353.848Z" fill="white" stroke="black" stroke-width="3"/>
<path d="M7069 492.997L7019.5 498.997C7019.5 498.997 7007.72 511.71 7008.39 521.73C7009.08 531.945 7013.19 542.362 7023.39 543.23C7031.07 543.883 7037.5 533.497 7037.5 533.497C7037.5 533.497 7044.92 545.083 7052 544.497C7059.16 543.905 7064.5 530.997 7064.5 530.997C7064.5 530.997 7070.93 537.056 7076 536.997C7080.28 536.947 7083.27 535.799 7086 532.497C7089.38 528.406 7087.5 516.997 7087.5 516.997C7087.5 516.997 7085.44 507.55 7081 501.997C7077.34 497.42 7069 492.997 7069 492.997Z" fill="#693875" stroke="black" stroke-width="3"/>
<path d="M6830.12 192.496C6830.12 237.507 6793.63 273.996 6748.62 273.996C6701.83 277.76 6663.57 245.024 6667.12 192.496C6667.12 147.485 6703.61 110.996 6748.62 110.996C6793.63 110.996 6830.12 147.485 6830.12 192.496Z" fill="white" stroke="black" stroke-width="3"/>
<circle cx="6748.51" cy="192.496" r="42.5" fill="#693875" stroke="black" stroke-width="3"/>
<circle cx="6901.5" cy="192.496" r="81.5" fill="white" stroke="black" stroke-width="3"/>
<circle cx="6901.39" cy="192.496" r="42.5" fill="#693875" stroke="black" stroke-width="3"/>
<path d="M6667 167.996H6983V327.996C6983 341.803 6971.81 352.996 6958 352.996H6692C6678.19 352.996 6667 341.803 6667 327.996V167.996Z" fill="white" stroke="black" stroke-width="3"/>
<rect x="6691" y="182.996" width="268" height="156" rx="25" fill="black" stroke="black" stroke-width="3"/>
<rect x="6911.6" y="218.996" width="20" height="100" transform="rotate(45 6911.6 218.996)" fill="white" stroke="black" stroke-width="3"/>
<rect x="6786.6" y="218.996" width="20" height="100" transform="rotate(45 6786.6 218.996)" fill="white" stroke="black" stroke-width="3"/>
<path d="M7460.21 352.996H7486.71L7460.21 648.996H7411.21L7460.21 352.996Z" fill="white" stroke="black" stroke-width="3"/>
<path d="M7460.1 648.995L7411.1 648.995C7411.1 648.995 7397.68 637.703 7397.08 627.678C7396.48 617.458 7399.25 606.607 7409.26 604.463C7416.8 602.851 7424.48 612.346 7424.48 612.346C7424.48 612.346 7430.39 599.92 7437.49 599.611C7444.66 599.299 7451.58 611.434 7451.58 611.434C7451.58 611.434 7457.21 604.614 7462.24 604.036C7466.49 603.547 7469.61 604.31 7472.73 607.244C7476.59 610.878 7476.16 622.432 7476.16 622.432C7476.16 622.432 7475.3 632.064 7471.6 638.13C7468.55 643.13 7460.1 648.995 7460.1 648.995Z" fill="#693875" stroke="black" stroke-width="3"/>
<path d="M7513.21 352.996H7486.71L7513.21 648.996H7562.21L7513.21 352.996Z" fill="white" stroke="black" stroke-width="3" stroke-linecap="round" stroke-linejoin="round"/>
<path d="M7562.6 648.996L7513.1 648.996C7513.1 648.996 7499.46 637.243 7498.92 627.215C7498.38 616.992 7501.22 606.157 7511.24 604.073C7518.78 602.505 7526.41 612.045 7526.41 612.045C7526.41 612.045 7532.39 599.654 7539.49 599.387C7546.67 599.116 7553.52 611.291 7553.52 611.291C7553.52 611.291 7559.18 604.505 7564.22 603.956C7568.47 603.493 7571.58 604.274 7574.68 607.226C7578.53 610.882 7578.03 622.434 7578.03 622.434C7578.03 622.434 7577.11 632.06 7573.37 638.105C7570.29 643.087 7562.6 648.996 7562.6 648.996Z" fill="#693875" stroke="black" stroke-width="3"/>
<path d="M7261.42 353.848C7284.79 259.892 7328.71 235.996 7328.71 235.996V285.382C7328.71 285.382 7304.53 324.939 7297.42 394.803C7290.32 464.667 7292.21 498.996 7292.21 498.996L7242.95 492.973C7242.95 492.973 7241.05 435.757 7261.42 353.848Z" fill="white" stroke="black" stroke-width="3"/>
<path d="M7242.71 492.997L7292.21 498.997C7292.21 498.997 7303.99 511.71 7303.32 521.73C7302.64 531.945 7298.52 542.362 7288.32 543.23C7280.65 543.883 7274.21 533.497 7274.21 533.497C7274.21 533.497 7266.8 545.083 7259.71 544.497C7252.55 543.905 7247.21 530.997 7247.21 530.997C7247.21 530.997 7240.78 537.056 7235.71 536.997C7231.43 536.947 7228.44 535.799 7225.71 532.497C7222.34 528.406 7224.21 516.997 7224.21 516.997C7224.21 516.997 7226.28 507.55 7230.71 501.997C7234.37 497.42 7242.71 492.997 7242.71 492.997Z" fill="#693875" stroke="black" stroke-width="3"/>
<path d="M7724 346.996C7700.63 253.039 7638.23 228.496 7638.23 228.496V277.882C7638.23 277.882 7680.24 300.132 7687.34 369.996C7694.45 439.86 7642.34 453.496 7642.34 453.496L7687.34 488.996C7687.34 488.996 7744.37 428.905 7724 346.996Z" fill="white" stroke="black" stroke-width="3"/>
<path d="M7686.82 489.12L7642.34 452.996L7620.34 452.996C7620.34 452.996 7594.75 460.942 7604.84 473.996C7609.55 480.091 7626.84 487.496 7626.84 487.496C7626.84 487.496 7622.82 503.015 7628.34 507.496C7633.92 512.026 7654.34 503.922 7654.34 503.922C7654.34 503.922 7637.34 514.496 7652.34 523.996C7655.96 526.287 7648.09 524.492 7652.34 523.996C7657.61 523.381 7671.62 522.312 7678.84 514.496C7686.06 506.68 7687.5 500.971 7686.82 489.12Z" fill="#693875"/>
<path d="M7652.34 523.996C7657.61 523.381 7671.62 522.312 7678.84 514.496C7686.06 506.68 7687.5 500.971 7686.82 489.12L7642.34 452.996L7620.34 452.996C7620.34 452.996 7594.75 460.942 7604.84 473.996C7609.55 480.091 7626.84 487.496 7626.84 487.496C7626.84 487.496 7622.82 503.015 7628.34 507.496C7633.92 512.026 7654.34 503.922 7654.34 503.922C7654.34 503.922 7637.34 514.496 7652.34 523.996ZM7652.34 523.996C7655.96 526.287 7648.09 524.492 7652.34 523.996Z" stroke="black" stroke-width="3"/>
<path d="M7490.83 182.496C7490.83 227.507 7454.34 263.996 7409.33 263.996C7362.55 267.76 7324.29 235.024 7327.83 182.496C7327.83 137.485 7364.32 100.996 7409.33 100.996C7454.34 100.996 7490.83 137.485 7490.83 182.496Z" fill="white" stroke="black" stroke-width="3"/>
<circle cx="7409.22" cy="182.496" r="42.5" fill="#693875" stroke="black" stroke-width="3"/>
<circle cx="7562.21" cy="182.496" r="81.5" fill="white" stroke="black" stroke-width="3"/>
<circle cx="7562.1" cy="182.496" r="42.5" fill="#693875" stroke="black" stroke-width="3"/>
<path d="M7328.71 167.996H7644.71V327.996C7644.71 341.803 7633.52 352.996 7619.71 352.996H7353.71C7339.91 352.996 7328.71 341.803 7328.71 327.996V167.996Z" fill="white" stroke="black" stroke-width="3"/>
<rect x="7352.71" y="182.996" width="268" height="156" rx="25" fill="black" stroke="black" stroke-width="3"/>
<rect x="7502.6" y="233.139" width="20" height="100" transform="rotate(-45 7502.6 233.139)" fill="white" stroke="black" stroke-width="3"/>
<rect x="7377.6" y="233.139" width="20" height="100" transform="rotate(-45 7377.6 233.139)" fill="white" stroke="black" stroke-width="3"/>
<rect x="7573.31" y="218.996" width="20" height="100" transform="rotate(45 7573.31 218.996)" fill="white" stroke="black" stroke-width="3"/>
<rect x="7448.31" y="218.996" width="20" height="100" transform="rotate(45 7448.31 218.996)" fill="white" stroke="black" stroke-width="3"/>
<path d="M8098.5 352.996H8125L8098.5 648.996H8049.5L8098.5 352.996Z" fill="white" stroke="black" stroke-width="3"/>
<path d="M8098.39 648.995L8049.39 648.995C8049.39 648.995 8035.96 637.703 8035.37 627.678C8034.77 617.458 8037.54 606.607 8047.55 604.463C8055.08 602.851 8062.77 612.346 8062.77 612.346C8062.77 612.346 8068.67 599.92 8075.77 599.611C8082.95 599.299 8089.87 611.434 8089.87 611.434C8089.87 611.434 8095.49 604.614 8100.53 604.036C8104.78 603.547 8107.89 604.31 8111.01 607.244C8114.88 610.878 8114.45 622.432 8114.45 622.432C8114.45 622.432 8113.59 632.064 8109.89 638.13C8106.83 643.13 8098.39 648.995 8098.39 648.995Z" fill="#693875" stroke="black" stroke-width="3"/>
<path d="M8151.5 352.996H8125L8151.5 648.996H8200.5L8151.5 352.996Z" fill="white" stroke="black" stroke-width="3" stroke-linecap="round" stroke-linejoin="round"/>
<path d="M8200.89 648.996L8151.39 648.996C8151.39 648.996 8137.74 637.243 8137.21 627.215C8136.67 616.992 8139.5 606.157 8149.53 604.073C8157.07 602.505 8164.7 612.045 8164.7 612.045C8164.7 612.045 8170.68 599.654 8177.78 599.387C8184.96 599.116 8191.81 611.291 8191.81 611.291C8191.81 611.291 8197.47 604.505 8202.5 603.956C8206.76 603.493 8209.87 604.274 8212.97 607.226C8216.81 610.882 8216.32 622.434 8216.32 622.434C8216.32 622.434 8215.4 632.06 8211.66 638.105C8208.58 643.087 8200.89 648.996 8200.89 648.996Z" fill="#693875" stroke="black" stroke-width="3"/>
<path d="M7899.71 353.848C7923.07 259.892 7967 235.996 7967 235.996V285.382C7967 285.382 7942.82 324.939 7935.71 394.803C7928.61 464.667 7930.5 498.996 7930.5 498.996L7881.23 492.973C7881.23 492.973 7879.34 435.757 7899.71 353.848Z" fill="white" stroke="black" stroke-width="3"/>
<path d="M7881 492.997L7930.5 498.997C7930.5 498.997 7942.28 511.71 7941.61 521.73C7940.92 531.945 7936.81 542.362 7926.61 543.23C7918.93 543.883 7912.5 533.497 7912.5 533.497C7912.5 533.497 7905.08 545.083 7898 544.497C7890.84 543.905 7885.5 530.997 7885.5 530.997C7885.5 530.997 7879.07 537.056 7874 536.997C7869.72 536.947 7866.73 535.799 7864 532.497C7860.62 528.406 7862.5 516.997 7862.5 516.997C7862.5 516.997 7864.56 507.55 7869 501.997C7872.66 497.42 7881 492.997 7881 492.997Z" fill="#693875" stroke="black" stroke-width="3"/>
<path d="M8350.29 353.848C8326.93 259.892 8283 235.996 8283 235.996V285.382C8283 285.382 8307.18 324.939 8314.29 394.803C8321.39 464.667 8319.5 498.996 8319.5 498.996L8368.77 492.973C8368.77 492.973 8370.66 435.757 8350.29 353.848Z" fill="white" stroke="black" stroke-width="3"/>
<path d="M8369 492.997L8319.5 498.997C8319.5 498.997 8307.72 511.71 8308.39 521.73C8309.08 531.945 8313.19 542.362 8323.39 543.23C8331.07 543.883 8337.5 533.497 8337.5 533.497C8337.5 533.497 8344.92 545.083 8352 544.497C8359.16 543.905 8364.5 530.997 8364.5 530.997C8364.5 530.997 8370.93 537.056 8376 536.997C8380.28 536.947 8383.27 535.799 8386 532.497C8389.38 528.406 8387.5 516.997 8387.5 516.997C8387.5 516.997 8385.44 507.55 8381 501.997C8377.34 497.42 8369 492.997 8369 492.997Z" fill="#693875" stroke="black" stroke-width="3"/>
<path d="M8131.12 192.496C8131.12 237.507 8094.63 273.996 8049.62 273.996C8002.83 277.76 7964.57 245.024 7968.12 192.496C7968.12 147.485 8004.61 110.996 8049.62 110.996C8094.63 110.996 8131.12 147.485 8131.12 192.496Z" fill="white" stroke="black" stroke-width="3"/>
<circle cx="8049.51" cy="192.496" r="42.5" fill="#693875" stroke="black" stroke-width="3"/>
<circle cx="8201.5" cy="170.496" r="81.5" fill="white" stroke="black" stroke-width="3"/>
<circle cx="8201.39" cy="170.496" r="42.5" fill="#693875" stroke="black" stroke-width="3"/>
<path d="M7967 167.996H8283V327.996C8283 341.803 8271.81 352.996 8258 352.996H7992C7978.19 352.996 7967 341.803 7967 327.996V167.996Z" fill="white" stroke="black" stroke-width="3"/>
<rect x="7991" y="182.996" width="268" height="156" rx="25" fill="black" stroke="black" stroke-width="3"/>
<rect x="8134.74" y="245.912" width="20" height="100" transform="rotate(-60.9808 8134.74 245.912)" fill="white" stroke="black" stroke-width="3"/>
<rect x="8025.06" y="222.773" width="20" height="100" transform="rotate(-29.4053 8025.06 222.773)" fill="white" stroke="black" stroke-width="3"/>
<rect x="8198.83" y="212.85" width="20" height="100" transform="rotate(29.0192 8198.83 212.85)" fill="white" stroke="black" stroke-width="3"/>
<rect x="8096.97" y="228.162" width="20" height="100" transform="rotate(60.5947 8096.97 228.162)" fill="white" stroke="black" stroke-width="3"/>
<path d="M8736.76 352.996H8763.26L8736.76 648.996H8687.76L8736.76 352.996Z" fill="white" stroke="black" stroke-width="3"/>
<path d="M8736.66 648.995L8687.66 648.995C8687.66 648.995 8674.23 637.703 8673.64 627.678C8673.03 617.458 8675.8 606.607 8685.82 604.463C8693.35 602.851 8701.04 612.346 8701.04 612.346C8701.04 612.346 8706.94 599.92 8714.04 599.611C8721.22 599.299 8728.14 611.434 8728.14 611.434C8728.14 611.434 8733.76 604.614 8738.79 604.036C8743.04 603.547 8746.16 604.31 8749.28 607.244C8753.14 610.878 8752.71 622.432 8752.71 622.432C8752.71 622.432 8751.85 632.064 8748.15 638.13C8745.1 643.13 8736.66 648.995 8736.66 648.995Z" fill="#693875" stroke="black" stroke-width="3"/>
<path d="M8789.76 352.996H8763.26L8789.76 648.996H8838.76L8789.76 352.996Z" fill="white" stroke="black" stroke-width="3" stroke-linecap="round" stroke-linejoin="round"/>
<path d="M8839.16 648.996L8789.66 648.996C8789.66 648.996 8776.01 637.243 8775.48 627.215C8774.93 616.992 8777.77 606.157 8787.79 604.073C8795.33 602.505 8802.96 612.045 8802.96 612.045C8802.96 612.045 8808.94 599.654 8816.04 599.387C8823.22 599.116 8830.07 611.291 8830.07 611.291C8830.07 611.291 8835.73 604.505 8840.77 603.956C8845.02 603.493 8848.13 604.274 8851.23 607.226C8855.08 610.882 8854.58 622.434 8854.58 622.434C8854.58 622.434 8853.66 632.06 8849.93 638.105C8846.84 643.087 8839.16 648.996 8839.16 648.996Z" fill="#693875" stroke="black" stroke-width="3"/>
<path d="M8526.02 350.996C8549.39 257.039 8611.79 232.496 8611.79 232.496V281.882C8611.79 281.882 8569.79 304.132 8562.68 373.996C8555.58 443.86 8607.68 457.496 8607.68 457.496L8562.68 492.996C8562.68 492.996 8505.65 432.905 8526.02 350.996Z" fill="white" stroke="black" stroke-width="3"/>
<path d="M8563.21 493.12L8607.68 456.996L8629.68 456.996C8629.68 456.996 8655.27 464.942 8645.18 477.996C8640.47 484.091 8623.18 491.496 8623.18 491.496C8623.18 491.496 8627.2 507.015 8621.68 511.496C8616.1 516.026 8595.68 507.922 8595.68 507.922C8595.68 507.922 8612.68 518.496 8597.68 527.996C8594.06 530.287 8601.94 528.492 8597.68 527.996C8592.41 527.381 8578.4 526.312 8571.18 518.496C8563.96 510.68 8562.52 504.971 8563.21 493.12Z" fill="#693875"/>
<path d="M8597.68 527.996C8592.41 527.381 8578.4 526.312 8571.18 518.496C8563.96 510.68 8562.52 504.971 8563.21 493.12L8607.68 456.996L8629.68 456.996C8629.68 456.996 8655.27 464.942 8645.18 477.996C8640.47 484.091 8623.18 491.496 8623.18 491.496C8623.18 491.496 8627.2 507.015 8621.68 511.496C8616.1 516.026 8595.68 507.922 8595.68 507.922C8595.68 507.922 8612.68 518.496 8597.68 527.996ZM8597.68 527.996C8594.06 530.287 8601.94 528.492 8597.68 527.996Z" stroke="black" stroke-width="3"/>
<path d="M8988.56 353.848C8965.19 259.892 8921.26 235.996 8921.26 235.996V285.382C8921.26 285.382 8945.45 324.939 8952.55 394.803C8959.66 464.667 8957.76 498.996 8957.76 498.996L9007.03 492.973C9007.03 492.973 9008.93 435.757 8988.56 353.848Z" fill="white" stroke="black" stroke-width="3"/>
<path d="M9007.26 492.997L8957.76 498.997C8957.76 498.997 8945.98 511.71 8946.65 521.73C8947.34 531.945 8951.45 542.362 8961.65 543.23C8969.33 543.883 8975.76 533.497 8975.76 533.497C8975.76 533.497 8983.18 545.083 8990.26 544.497C8997.42 543.905 9002.76 530.997 9002.76 530.997C9002.76 530.997 9009.2 537.056 9014.26 536.997C9018.55 536.947 9021.54 535.799 9024.26 532.497C9027.64 528.406 9025.76 516.997 9025.76 516.997C9025.76 516.997 9023.7 507.55 9019.26 501.997C9015.61 497.42 9007.26 492.997 9007.26 492.997Z" fill="#693875" stroke="black" stroke-width="3"/>
<path d="M8768.38 170.496C8768.38 215.507 8731.89 251.996 8686.88 251.996C8640.1 255.76 8601.84 223.024 8605.38 170.496C8605.38 125.485 8641.87 88.9961 8686.88 88.9961C8731.89 88.9961 8768.38 125.485 8768.38 170.496Z" fill="white" stroke="black" stroke-width="3"/>
<circle cx="8686.77" cy="170.496" r="42.5" fill="#693875" stroke="black" stroke-width="3"/>
<circle cx="8839.76" cy="170.496" r="81.5" fill="white" stroke="black" stroke-width="3"/>
<circle cx="8839.66" cy="170.496" r="42.5" fill="#693875" stroke="black" stroke-width="3"/>
<path d="M8605.26 167.996H8921.26V327.996C8921.26 341.803 8910.07 352.996 8896.26 352.996H8630.26C8616.46 352.996 8605.26 341.803 8605.26 327.996V167.996Z" fill="white" stroke="black" stroke-width="3"/>
<rect x="8629.26" y="182.996" width="268" height="156" rx="25" fill="black" stroke="black" stroke-width="3"/>
<rect x="8779.16" y="233.139" width="20" height="100" transform="rotate(-45 8779.16 233.139)" fill="white" stroke="black" stroke-width="3"/>
<rect x="8654.16" y="233.139" width="20" height="100" transform="rotate(-45 8654.16 233.139)" fill="white" stroke="black" stroke-width="3"/>
<rect x="8849.87" y="218.996" width="20" height="100" transform="rotate(45 8849.87 218.996)" fill="white" stroke="black" stroke-width="3"/>
<rect x="8724.87" y="218.996" width="20" height="100" transform="rotate(45 8724.87 218.996)" fill="white" stroke="black" stroke-width="3"/>
<path d="M9398.73 352.996H9425.23L9398.73 648.996H9349.73L9398.73 352.996Z" fill="white" stroke="black" stroke-width="3"/>
<path d="M9398.62 648.995L9349.62 648.995C9349.62 648.995 9336.2 637.703 9335.61 627.678C9335 617.458 9337.77 606.607 9347.78 604.463C9355.32 602.851 9363.01 612.346 9363.01 612.346C9363.01 612.346 9368.91 599.92 9376.01 599.611C9383.19 599.299 9390.11 611.434 9390.11 611.434C9390.11 611.434 9395.73 604.614 9400.76 604.036C9405.01 603.547 9408.13 604.31 9411.25 607.244C9415.11 610.878 9414.68 622.432 9414.68 622.432C9414.68 622.432 9413.82 632.064 9410.12 638.13C9407.07 643.13 9398.62 648.995 9398.62 648.995Z" fill="#693875" stroke="black" stroke-width="3"/>
<path d="M9451.73 352.996H9425.23L9451.73 648.996H9500.73L9451.73 352.996Z" fill="white" stroke="black" stroke-width="3" stroke-linecap="round" stroke-linejoin="round"/>
<path d="M9501.13 648.996L9451.63 648.996C9451.63 648.996 9437.98 637.243 9437.45 627.215C9436.9 616.992 9439.74 606.157 9449.76 604.073C9457.3 602.505 9464.93 612.045 9464.93 612.045C9464.93 612.045 9470.91 599.654 9478.01 599.387C9485.19 599.116 9492.04 611.291 9492.04 611.291C9492.04 611.291 9497.7 604.505 9502.74 603.956C9506.99 603.493 9510.1 604.274 9513.2 607.226C9517.05 610.882 9516.55 622.434 9516.55 622.434C9516.55 622.434 9515.63 632.06 9511.9 638.105C9508.81 643.087 9501.13 648.996 9501.13 648.996Z" fill="#693875" stroke="black" stroke-width="3"/>
<path d="M9185.52 354.496C9208.89 260.539 9271.29 235.996 9271.29 235.996V285.382C9271.29 285.382 9229.29 307.632 9222.18 377.496C9215.07 447.36 9267.18 460.996 9267.18 460.996L9222.18 496.496C9222.18 496.496 9165.15 436.405 9185.52 354.496Z" fill="white" stroke="black" stroke-width="3"/>
<path d="M9222.7 496.62L9267.18 460.496L9289.18 460.496C9289.18 460.496 9314.77 468.442 9304.68 481.496C9299.97 487.591 9282.68 494.996 9282.68 494.996C9282.68 494.996 9286.7 510.515 9281.18 514.996C9275.6 519.526 9255.18 511.422 9255.18 511.422C9255.18 511.422 9272.18 521.996 9257.18 531.496C9253.56 533.787 9261.43 531.992 9257.18 531.496C9251.91 530.881 9237.9 529.812 9230.68 521.996C9223.46 514.18 9222.02 508.471 9222.7 496.62Z" fill="#693875"/>
<path d="M9257.18 531.496C9251.91 530.881 9237.9 529.812 9230.68 521.996C9223.46 514.18 9222.02 508.471 9222.7 496.62L9267.18 460.496L9289.18 460.496C9289.18 460.496 9314.77 468.442 9304.68 481.496C9299.97 487.591 9282.68 494.996 9282.68 494.996C9282.68 494.996 9286.7 510.515 9281.18 514.996C9275.6 519.526 9255.18 511.422 9255.18 511.422C9255.18 511.422 9272.18 521.996 9257.18 531.496ZM9257.18 531.496C9253.56 533.787 9261.43 531.992 9257.18 531.496Z" stroke="black" stroke-width="3"/>
<path d="M9664.48 344.496C9641.11 250.539 9578.71 225.996 9578.71 225.996V275.382C9578.71 275.382 9620.71 297.632 9627.82 367.496C9634.93 437.36 9582.82 450.996 9582.82 450.996L9627.82 486.496C9627.82 486.496 9684.85 426.405 9664.48 344.496Z" fill="white" stroke="black" stroke-width="3"/>
<path d="M9627.3 486.62L9582.82 450.496L9560.82 450.496C9560.82 450.496 9535.23 458.442 9545.32 471.496C9550.03 477.591 9567.32 484.996 9567.32 484.996C9567.32 484.996 9563.3 500.515 9568.82 504.996C9574.4 509.526 9594.82 501.422 9594.82 501.422C9594.82 501.422 9577.82 511.996 9592.82 521.496C9596.44 523.787 9588.57 521.992 9592.82 521.496C9598.09 520.881 9612.1 519.812 9619.32 511.996C9626.54 504.18 9627.98 498.471 9627.3 486.62Z" fill="#693875"/>
<path d="M9592.82 521.496C9598.09 520.881 9612.1 519.812 9619.32 511.996C9626.54 504.18 9627.98 498.471 9627.3 486.62L9582.82 450.496L9560.82 450.496C9560.82 450.496 9535.23 458.442 9545.32 471.496C9550.03 477.591 9567.32 484.996 9567.32 484.996C9567.32 484.996 9563.3 500.515 9568.82 504.996C9574.4 509.526 9594.82 501.422 9594.82 501.422C9594.82 501.422 9577.82 511.996 9592.82 521.496ZM9592.82 521.496C9596.44 523.787 9588.57 521.992 9592.82 521.496Z" stroke="black" stroke-width="3"/>
<path d="M9430.35 170.496C9430.35 215.507 9393.86 251.996 9348.85 251.996C9302.07 255.76 9263.81 223.024 9267.35 170.496C9267.35 125.485 9303.84 88.9961 9348.85 88.9961C9393.86 88.9961 9430.35 125.485 9430.35 170.496Z" fill="white" stroke="black" stroke-width="3"/>
<circle cx="9348.74" cy="170.496" r="42.5" fill="#693875" stroke="black" stroke-width="3"/>
<circle cx="9501.62" cy="179.496" r="81.5" fill="white" stroke="black" stroke-width="3"/>
<circle cx="9501.52" cy="179.496" r="42.5" fill="#693875" stroke="black" stroke-width="3"/>
<path d="M9267.23 167.996H9583.23V327.996C9583.23 341.803 9572.04 352.996 9558.23 352.996H9292.23C9278.43 352.996 9267.23 341.803 9267.23 327.996V167.996Z" fill="white" stroke="black" stroke-width="3"/>
<rect x="9291.23" y="182.996" width="268" height="156" rx="25" fill="black" stroke="black" stroke-width="3"/>
<rect x="9434.98" y="245.912" width="20" height="100" transform="rotate(-60.9808 9434.98 245.912)" fill="white" stroke="black" stroke-width="3"/>
<rect x="9325.29" y="222.773" width="20" height="100" transform="rotate(-29.4053 9325.29 222.773)" fill="white" stroke="black" stroke-width="3"/>
<rect x="9499.06" y="212.85" width="20" height="100" transform="rotate(29.0192 9499.06 212.85)" fill="white" stroke="black" stroke-width="3"/>
<rect x="9397.2" y="228.162" width="20" height="100" transform="rotate(60.5947 9397.2 228.162)" fill="white" stroke="black" stroke-width="3"/>
<path d="M10060.2 352.996H10086.7L10060.2 648.996H10011.2L10060.2 352.996Z" fill="white" stroke="black" stroke-width="3"/>
<path d="M10060.1 648.995L10011.1 648.995C10011.1 648.995 9997.68 637.703 9997.08 627.678C9996.48 617.458 9999.25 606.607 10009.3 604.463C10016.8 602.851 10024.5 612.346 10024.5 612.346C10024.5 612.346 10030.4 599.92 10037.5 599.611C10044.7 599.299 10051.6 611.434 10051.6 611.434C10051.6 611.434 10057.2 604.614 10062.2 604.036C10066.5 603.547 10069.6 604.31 10072.7 607.244C10076.6 610.878 10076.2 622.432 10076.2 622.432C10076.2 622.432 10075.3 632.064 10071.6 638.13C10068.5 643.13 10060.1 648.995 10060.1 648.995Z" fill="#693875" stroke="black" stroke-width="3"/>
<path d="M10113.2 352.996H10086.7L10113.2 648.996H10162.2L10113.2 352.996Z" fill="white" stroke="black" stroke-width="3" stroke-linecap="round" stroke-linejoin="round"/>
<path d="M10162.6 648.996L10113.1 648.996C10113.1 648.996 10099.5 637.243 10098.9 627.215C10098.4 616.992 10101.2 606.157 10111.2 604.073C10118.8 602.505 10126.4 612.045 10126.4 612.045C10126.4 612.045 10132.4 599.654 10139.5 599.387C10146.7 599.116 10153.5 611.291 10153.5 611.291C10153.5 611.291 10159.2 604.505 10164.2 603.956C10168.5 603.493 10171.6 604.274 10174.7 607.226C10178.5 610.882 10178 622.434 10178 622.434C10178 622.434 10177.1 632.06 10173.4 638.105C10170.3 643.087 10162.6 648.996 10162.6 648.996Z" fill="#693875" stroke="black" stroke-width="3"/>
<path d="M9861.42 353.848C9884.79 259.892 9928.71 235.996 9928.71 235.996V285.382C9928.71 285.382 9904.53 324.939 9897.42 394.803C9890.32 464.667 9892.21 498.996 9892.21 498.996L9842.95 492.973C9842.95 492.973 9841.05 435.757 9861.42 353.848Z" fill="white" stroke="black" stroke-width="3"/>
<path d="M9842.71 492.997L9892.21 498.997C9892.21 498.997 9903.99 511.71 9903.32 521.73C9902.64 531.945 9898.52 542.362 9888.32 543.23C9880.65 543.883 9874.21 533.497 9874.21 533.497C9874.21 533.497 9866.8 545.083 9859.71 544.497C9852.55 543.905 9847.21 530.997 9847.21 530.997C9847.21 530.997 9840.78 537.056 9835.71 536.997C9831.43 536.947 9828.44 535.799 9825.71 532.497C9822.34 528.406 9824.21 516.997 9824.21 516.997C9824.21 516.997 9826.28 507.55 9830.71 501.997C9834.37 497.42 9842.71 492.997 9842.71 492.997Z" fill="#693875" stroke="black" stroke-width="3"/>
<path d="M10324 346.996C10300.6 253.039 10238.2 228.496 10238.2 228.496V277.882C10238.2 277.882 10280.2 300.132 10287.3 369.996C10294.4 439.86 10242.3 453.496 10242.3 453.496L10287.3 488.996C10287.3 488.996 10344.4 428.905 10324 346.996Z" fill="white" stroke="black" stroke-width="3"/>
<path d="M10286.8 489.12L10242.3 452.996L10220.3 452.996C10220.3 452.996 10194.8 460.942 10204.8 473.996C10209.6 480.091 10226.8 487.496 10226.8 487.496C10226.8 487.496 10222.8 503.015 10228.3 507.496C10233.9 512.026 10254.3 503.922 10254.3 503.922C10254.3 503.922 10237.3 514.496 10252.3 523.996C10256 526.287 10248.1 524.492 10252.3 523.996C10257.6 523.381 10271.6 522.312 10278.8 514.496C10286.1 506.68 10287.5 500.971 10286.8 489.12Z" fill="#693875"/>
<path d="M10252.3 523.996C10257.6 523.381 10271.6 522.312 10278.8 514.496C10286.1 506.68 10287.5 500.971 10286.8 489.12L10242.3 452.996L10220.3 452.996C10220.3 452.996 10194.8 460.942 10204.8 473.996C10209.6 480.091 10226.8 487.496 10226.8 487.496C10226.8 487.496 10222.8 503.015 10228.3 507.496C10233.9 512.026 10254.3 503.922 10254.3 503.922C10254.3 503.922 10237.3 514.496 10252.3 523.996ZM10252.3 523.996C10256 526.287 10248.1 524.492 10252.3 523.996Z" stroke="black" stroke-width="3"/>
<path d="M10091.8 170.496C10091.8 215.507 10055.3 251.996 10010.3 251.996C9963.55 255.76 9925.29 223.024 9928.83 170.496C9928.83 125.485 9965.32 88.9961 10010.3 88.9961C10055.3 88.9961 10091.8 125.485 10091.8 170.496Z" fill="white" stroke="black" stroke-width="3"/>
<circle cx="10010.2" cy="170.496" r="42.5" fill="#693875" stroke="black" stroke-width="3"/>
<circle cx="10163.2" cy="170.496" r="81.5" fill="white" stroke="black" stroke-width="3"/>
<circle cx="10163.1" cy="170.496" r="42.5" fill="#693875" stroke="black" stroke-width="3"/>
<path d="M9928.71 167.996H10244.7V327.996C10244.7 341.803 10233.5 352.996 10219.7 352.996H9953.71C9939.91 352.996 9928.71 341.803 9928.71 327.996V167.996Z" fill="white" stroke="black" stroke-width="3"/>
<rect x="9952.71" y="182.996" width="268" height="156" rx="25" fill="black" stroke="black" stroke-width="3"/>
<rect x="10102.6" y="233.139" width="20" height="100" transform="rotate(-45 10102.6 233.139)" fill="white" stroke="black" stroke-width="3"/>
<rect x="9977.6" y="233.139" width="20" height="100" transform="rotate(-45 9977.6 233.139)" fill="white" stroke="black" stroke-width="3"/>
<rect x="10173.3" y="218.996" width="20" height="100" transform="rotate(45 10173.3 218.996)" fill="white" stroke="black" stroke-width="3"/>
<rect x="10048.3" y="218.996" width="20" height="100" transform="rotate(45 10048.3 218.996)" fill="white" stroke="black" stroke-width="3"/>
<path d="M10698.5 352.996H10725L10698.5 648.996H10649.5L10698.5 352.996Z" fill="white" stroke="black" stroke-width="3"/>
<path d="M10698.4 648.995L10649.4 648.995C10649.4 648.995 10636 637.703 10635.4 627.678C10634.8 617.458 10637.5 606.607 10647.6 604.463C10655.1 602.851 10662.8 612.346 10662.8 612.346C10662.8 612.346 10668.7 599.92 10675.8 599.611C10683 599.299 10689.9 611.434 10689.9 611.434C10689.9 611.434 10695.5 604.614 10700.5 604.036C10704.8 603.547 10707.9 604.31 10711 607.244C10714.9 610.878 10714.4 622.432 10714.4 622.432C10714.4 622.432 10713.6 632.064 10709.9 638.13C10706.8 643.13 10698.4 648.995 10698.4 648.995Z" fill="#693875" stroke="black" stroke-width="3"/>
<path d="M10751.5 352.996H10725L10751.5 648.996H10800.5L10751.5 352.996Z" fill="white" stroke="black" stroke-width="3" stroke-linecap="round" stroke-linejoin="round"/>
<path d="M10800.9 648.996L10751.4 648.996C10751.4 648.996 10737.7 637.243 10737.2 627.215C10736.7 616.992 10739.5 606.157 10749.5 604.073C10757.1 602.505 10764.7 612.045 10764.7 612.045C10764.7 612.045 10770.7 599.654 10777.8 599.387C10785 599.116 10791.8 611.291 10791.8 611.291C10791.8 611.291 10797.5 604.505 10802.5 603.956C10806.8 603.493 10809.9 604.274 10813 607.226C10816.8 610.882 10816.3 622.434 10816.3 622.434C10816.3 622.434 10815.4 632.06 10811.7 638.105C10808.6 643.087 10800.9 648.996 10800.9 648.996Z" fill="#693875" stroke="black" stroke-width="3"/>
<path d="M10499.7 353.848C10523.1 259.892 10567 235.996 10567 235.996V285.382C10567 285.382 10542.8 324.939 10535.7 394.803C10528.6 464.667 10530.5 498.996 10530.5 498.996L10481.2 492.973C10481.2 492.973 10479.3 435.757 10499.7 353.848Z" fill="white" stroke="black" stroke-width="3"/>
<path d="M10481 492.997L10530.5 498.997C10530.5 498.997 10542.3 511.71 10541.6 521.73C10540.9 531.945 10536.8 542.362 10526.6 543.23C10518.9 543.883 10512.5 533.497 10512.5 533.497C10512.5 533.497 10505.1 545.083 10498 544.497C10490.8 543.905 10485.5 530.997 10485.5 530.997C10485.5 530.997 10479.1 537.056 10474 536.997C10469.7 536.947 10466.7 535.799 10464 532.497C10460.6 528.406 10462.5 516.997 10462.5 516.997C10462.5 516.997 10464.6 507.55 10469 501.997C10472.7 497.42 10481 492.997 10481 492.997Z" fill="#693875" stroke="black" stroke-width="3"/>
<path d="M10950.3 353.848C10926.9 259.892 10883 235.996 10883 235.996V285.382C10883 285.382 10907.2 324.939 10914.3 394.803C10921.4 464.667 10919.5 498.996 10919.5 498.996L10968.8 492.973C10968.8 492.973 10970.7 435.757 10950.3 353.848Z" fill="white" stroke="black" stroke-width="3"/>
<path d="M10969 492.997L10919.5 498.997C10919.5 498.997 10907.7 511.71 10908.4 521.73C10909.1 531.945 10913.2 542.362 10923.4 543.23C10931.1 543.883 10937.5 533.497 10937.5 533.497C10937.5 533.497 10944.9 545.083 10952 544.497C10959.2 543.905 10964.5 530.997 10964.5 530.997C10964.5 530.997 10970.9 537.056 10976 536.997C10980.3 536.947 10983.3 535.799 10986 532.497C10989.4 528.406 10987.5 516.997 10987.5 516.997C10987.5 516.997 10985.4 507.55 10981 501.997C10977.3 497.42 10969 492.997 10969 492.997Z" fill="#693875" stroke="black" stroke-width="3"/>
<path d="M10730.1 188.496C10730.1 233.507 10693.6 269.996 10648.6 269.996C10601.8 273.76 10563.6 241.024 10567.1 188.496C10567.1 143.485 10603.6 106.996 10648.6 106.996C10693.6 106.996 10730.1 143.485 10730.1 188.496Z" fill="white" stroke="black" stroke-width="3"/>
<circle cx="10648.5" cy="188.496" r="42.5" fill="#693875" stroke="black" stroke-width="3"/>
<circle cx="10801.5" cy="188.496" r="81.5" fill="white" stroke="black" stroke-width="3"/>
<circle cx="10801.4" cy="188.496" r="42.5" fill="#693875" stroke="black" stroke-width="3"/>
<path d="M10567 167.996H10883V327.996C10883 341.803 10871.8 352.996 10858 352.996H10592C10578.2 352.996 10567 341.803 10567 327.996V167.996Z" fill="white" stroke="black" stroke-width="3"/>
<rect x="10591" y="182.996" width="268" height="156" rx="25" fill="black" stroke="black" stroke-width="3"/>
<rect x="10740.9" y="233.139" width="20" height="100" transform="rotate(-45 10740.9 233.139)" fill="white" stroke="black" stroke-width="3"/>
<rect x="10615.9" y="233.139" width="20" height="100" transform="rotate(-45 10615.9 233.139)" fill="white" stroke="black" stroke-width="3"/>
<path d="M11348.5 352.996H11375L11348.5 648.996H11299.5L11348.5 352.996Z" fill="white" stroke="black" stroke-width="3"/>
<path d="M11348.4 648.995L11299.4 648.995C11299.4 648.995 11286 637.703 11285.4 627.678C11284.8 617.458 11287.5 606.607 11297.6 604.463C11305.1 602.851 11312.8 612.346 11312.8 612.346C11312.8 612.346 11318.7 599.92 11325.8 599.611C11333 599.299 11339.9 611.434 11339.9 611.434C11339.9 611.434 11345.5 604.614 11350.5 604.036C11354.8 603.547 11357.9 604.31 11361 607.244C11364.9 610.878 11364.4 622.432 11364.4 622.432C11364.4 622.432 11363.6 632.064 11359.9 638.13C11356.8 643.13 11348.4 648.995 11348.4 648.995Z" fill="#693875" stroke="black" stroke-width="3"/>
<path d="M11401.5 352.996H11375L11401.5 648.996H11450.5L11401.5 352.996Z" fill="white" stroke="black" stroke-width="3" stroke-linecap="round" stroke-linejoin="round"/>
<path d="M11450.9 648.996L11401.4 648.996C11401.4 648.996 11387.7 637.243 11387.2 627.215C11386.7 616.992 11389.5 606.157 11399.5 604.073C11407.1 602.505 11414.7 612.045 11414.7 612.045C11414.7 612.045 11420.7 599.654 11427.8 599.387C11435 599.116 11441.8 611.291 11441.8 611.291C11441.8 611.291 11447.5 604.505 11452.5 603.956C11456.8 603.493 11459.9 604.274 11463 607.226C11466.8 610.882 11466.3 622.434 11466.3 622.434C11466.3 622.434 11465.4 632.06 11461.7 638.105C11458.6 643.087 11450.9 648.996 11450.9 648.996Z" fill="#693875" stroke="black" stroke-width="3"/>
<path d="M11149.7 353.848C11173.1 259.892 11217 235.996 11217 235.996V285.382C11217 285.382 11192.8 324.939 11185.7 394.803C11178.6 464.667 11180.5 498.996 11180.5 498.996L11131.2 492.973C11131.2 492.973 11129.3 435.757 11149.7 353.848Z" fill="white" stroke="black" stroke-width="3"/>
<path d="M11131 492.997L11180.5 498.997C11180.5 498.997 11192.3 511.71 11191.6 521.73C11190.9 531.945 11186.8 542.362 11176.6 543.23C11168.9 543.883 11162.5 533.497 11162.5 533.497C11162.5 533.497 11155.1 545.083 11148 544.497C11140.8 543.905 11135.5 530.997 11135.5 530.997C11135.5 530.997 11129.1 537.056 11124 536.997C11119.7 536.947 11116.7 535.799 11114 532.497C11110.6 528.406 11112.5 516.997 11112.5 516.997C11112.5 516.997 11114.6 507.55 11119 501.997C11122.7 497.42 11131 492.997 11131 492.997Z" fill="#693875" stroke="black" stroke-width="3"/>
<path d="M11600.3 353.848C11576.9 259.892 11533 235.996 11533 235.996V285.382C11533 285.382 11557.2 324.939 11564.3 394.803C11571.4 464.667 11569.5 498.996 11569.5 498.996L11618.8 492.973C11618.8 492.973 11620.7 435.757 11600.3 353.848Z" fill="white" stroke="black" stroke-width="3"/>
<path d="M11619 492.997L11569.5 498.997C11569.5 498.997 11557.7 511.71 11558.4 521.73C11559.1 531.945 11563.2 542.362 11573.4 543.23C11581.1 543.883 11587.5 533.497 11587.5 533.497C11587.5 533.497 11594.9 545.083 11602 544.497C11609.2 543.905 11614.5 530.997 11614.5 530.997C11614.5 530.997 11620.9 537.056 11626 536.997C11630.3 536.947 11633.3 535.799 11636 532.497C11639.4 528.406 11637.5 516.997 11637.5 516.997C11637.5 516.997 11635.4 507.55 11631 501.997C11627.3 497.42 11619 492.997 11619 492.997Z" fill="#693875" stroke="black" stroke-width="3"/>
<path d="M11380.1 182.496C11380.1 227.507 11343.6 263.996 11298.6 263.996C11251.8 267.76 11213.6 235.024 11217.1 182.496C11217.1 137.485 11253.6 100.996 11298.6 100.996C11343.6 100.996 11380.1 137.485 11380.1 182.496Z" fill="white" stroke="black" stroke-width="3"/>
<circle cx="11298.5" cy="182.496" r="42.5" fill="#693875" stroke="black" stroke-width="3"/>
<circle cx="11451.5" cy="182.496" r="81.5" fill="white" stroke="black" stroke-width="3"/>
<circle cx="11451.4" cy="182.496" r="42.5" fill="#693875" stroke="black" stroke-width="3"/>
<path d="M11217 167.996H11533V327.996C11533 341.803 11521.8 352.996 11508 352.996H11242C11228.2 352.996 11217 341.803 11217 327.996V167.996Z" fill="white" stroke="black" stroke-width="3"/>
<rect x="11241" y="182.996" width="268" height="156" rx="25" fill="black" stroke="black" stroke-width="3"/>
<path d="M12051.5 352.994H12025L12051.5 648.994H12100.5L12051.5 352.994Z" fill="white" stroke="black" stroke-width="3" stroke-linecap="round" stroke-linejoin="round"/>
<path d="M12100.9 648.994L12051.4 648.994C12051.4 648.994 12037.7 637.241 12037.2 627.213C12036.7 616.99 12039.5 606.155 12049.5 604.071C12057.1 602.503 12064.7 612.043 12064.7 612.043C12064.7 612.043 12070.7 599.652 12077.8 599.385C12085 599.114 12091.8 611.289 12091.8 611.289C12091.8 611.289 12097.5 604.503 12102.5 603.955C12106.8 603.491 12109.9 604.272 12113 607.224C12116.8 610.88 12116.3 622.432 12116.3 622.432C12116.3 622.432 12115.4 632.058 12111.7 638.103C12108.6 643.085 12100.9 648.994 12100.9 648.994Z" fill="#693875" stroke="black" stroke-width="3"/>
<path d="M11998.5 352.994H12025L11998.5 648.994H11949.5L11998.5 352.994Z" fill="white" stroke="black" stroke-width="3"/>
<path d="M11998.4 648.995L11949.4 648.995C11949.4 648.995 11936 637.703 11935.4 627.678C11934.8 617.458 11937.5 606.607 11947.6 604.463C11955.1 602.851 11962.8 612.346 11962.8 612.346C11962.8 612.346 11968.7 599.92 11975.8 599.611C11983 599.299 11989.9 611.434 11989.9 611.434C11989.9 611.434 11995.5 604.614 12000.5 604.036C12004.8 603.547 12007.9 604.31 12011 607.244C12014.9 610.878 12014.4 622.432 12014.4 622.432C12014.4 622.432 12013.6 632.064 12009.9 638.13C12006.8 643.13 11998.4 648.995 11998.4 648.995Z" fill="#693875" stroke="black" stroke-width="3"/>
<circle cx="11948.5" cy="170.494" r="81.5" fill="white" stroke="black" stroke-width="3"/>
<circle cx="11948.4" cy="170.494" r="42.5" fill="#693875" stroke="black" stroke-width="3"/>
<circle cx="12101.5" cy="170.494" r="81.5" fill="white" stroke="black" stroke-width="3"/>
<circle cx="12101.4" cy="170.494" r="42.5" fill="#693875" stroke="black" stroke-width="3"/>
<path d="M11867 167.994H12183V327.994C12183 341.801 12171.8 352.994 12158 352.994H11892C11878.2 352.994 11867 341.801 11867 327.994V167.994Z" fill="white" stroke="black" stroke-width="3"/>
<rect x="11891" y="182.994" width="268" height="156" rx="25" fill="black" stroke="black" stroke-width="3"/>
<rect x="11909" y="210.994" width="100" height="100" stroke="black" stroke-width="3"/>
<circle cx="11959" cy="260.994" r="50" fill="white"/>
<circle cx="11959" cy="260.994" r="38" fill="black"/>
<rect x="12041" y="210.994" width="100" height="100" stroke="black" stroke-width="3"/>
<circle cx="12091" cy="260.994" r="50" fill="white"/>
<circle cx="12091" cy="260.994" r="38" fill="black"/>
<path d="M11799.7 353.846C11823.1 259.89 11867 235.994 11867 235.994V285.381C11867 285.381 11842.8 324.937 11835.7 394.801C11828.6 464.665 11830.5 498.994 11830.5 498.994L11781.2 492.971C11781.2 492.971 11779.3 435.755 11799.7 353.846Z" fill="white" stroke="black" stroke-width="3"/>
<path d="M11781 492.995L11830.5 498.995C11830.5 498.995 11842.3 511.708 11841.6 521.728C11840.9 531.943 11836.8 542.36 11826.6 543.228C11818.9 543.881 11812.5 533.495 11812.5 533.495C11812.5 533.495 11805.1 545.081 11798 544.495C11790.8 543.903 11785.5 530.995 11785.5 530.995C11785.5 530.995 11779.1 537.054 11774 536.995C11769.7 536.945 11766.7 535.798 11764 532.495C11760.6 528.404 11762.5 516.995 11762.5 516.995C11762.5 516.995 11764.6 507.548 11769 501.995C11772.7 497.418 11781 492.995 11781 492.995Z" fill="#693875" stroke="black" stroke-width="3"/>
<path d="M12250.3 353.846C12226.9 259.89 12183 235.994 12183 235.994V285.381C12183 285.381 12207.2 324.937 12214.3 394.801C12221.4 464.665 12219.5 498.994 12219.5 498.994L12268.8 492.971C12268.8 492.971 12270.7 435.755 12250.3 353.846Z" fill="white" stroke="black" stroke-width="3"/>
<path d="M12269 492.995L12219.5 498.995C12219.5 498.995 12207.7 511.708 12208.4 521.728C12209.1 531.943 12213.2 542.36 12223.4 543.228C12231.1 543.881 12237.5 533.495 12237.5 533.495C12237.5 533.495 12244.9 545.081 12252 544.495C12259.2 543.903 12264.5 530.995 12264.5 530.995C12264.5 530.995 12270.9 537.054 12276 536.995C12280.3 536.945 12283.3 535.798 12286 532.495C12289.4 528.404 12287.5 516.995 12287.5 516.995C12287.5 516.995 12285.4 507.548 12281 501.995C12277.3 497.418 12269 492.995 12269 492.995Z" fill="#693875" stroke="black" stroke-width="3"/>
</svg>
