<svg width="9100" height="652" viewBox="0 0 9100 652" fill="none" xmlns="http://www.w3.org/2000/svg">
<path d="M351.5 352.996H325L351.5 648.996H400.5L351.5 352.996Z" fill="white" stroke="black" stroke-width="3" stroke-linecap="round" stroke-linejoin="round"/>
<path d="M400.891 648.996L351.391 648.996C351.391 648.996 337.744 637.243 337.211 627.215C336.667 616.992 339.503 606.157 349.526 604.073C357.067 602.505 364.7 612.045 364.7 612.045C364.7 612.045 370.675 599.654 377.777 599.387C384.957 599.116 391.805 611.291 391.805 611.291C391.805 611.291 397.467 604.505 402.503 603.956C406.76 603.493 409.868 604.274 412.97 607.226C416.813 610.882 416.317 622.434 416.317 622.434C416.317 622.434 415.4 632.06 411.661 638.105C408.58 643.087 400.891 648.996 400.891 648.996Z" fill="#693875" stroke="black" stroke-width="3"/>
<path d="M298.5 352.996H325L298.5 648.996H249.5L298.5 352.996Z" fill="white" stroke="black" stroke-width="3"/>
<path d="M298.391 648.996L249.391 648.996C249.391 648.996 235.964 637.704 235.372 627.679C234.769 617.459 237.54 606.608 247.551 604.464C255.083 602.852 262.771 612.347 262.771 612.347C262.771 612.347 268.673 599.921 275.774 599.612C282.952 599.3 289.872 611.435 289.872 611.435C289.872 611.435 295.494 604.615 300.526 604.037C304.781 603.548 307.893 604.311 311.013 607.245C314.877 610.879 314.449 622.433 314.449 622.433C314.449 622.433 313.588 632.065 309.885 638.131C306.833 643.131 298.391 648.996 298.391 648.996Z" fill="#693875" stroke="black" stroke-width="3"/>
<path d="M99.7074 353.848C123.074 259.892 166.999 235.996 166.999 235.996V285.382C166.999 285.382 142.816 324.939 135.71 394.803C128.604 464.667 130.499 498.996 130.499 498.996L81.2322 492.973C81.2322 492.973 79.3373 435.757 99.7074 353.848Z" fill="white" stroke="black" stroke-width="3"/>
<path d="M80.9996 492.996L130.5 498.996C130.5 498.996 142.281 511.709 141.609 521.729C140.923 531.944 136.81 542.361 126.609 543.229C118.934 543.882 112.5 533.496 112.5 533.496C112.5 533.496 105.083 545.082 97.9996 544.496C90.8391 543.904 85.4996 530.996 85.4996 530.996C85.4996 530.996 79.0648 537.055 73.9996 536.996C69.7175 536.946 66.7258 535.798 63.9996 532.496C60.6228 528.405 62.4996 516.996 62.4996 516.996C62.4996 516.996 64.5633 507.549 68.9996 501.996C72.656 497.419 80.9996 492.996 80.9996 492.996Z" fill="#693875" stroke="black" stroke-width="3"/>
<path d="M550.292 353.848C526.925 259.892 483 235.996 483 235.996V285.382C483 285.382 507.183 324.939 514.289 394.803C521.395 464.667 519.5 498.996 519.5 498.996L568.767 492.973C568.767 492.973 570.662 435.757 550.292 353.848Z" fill="white" stroke="black" stroke-width="3"/>
<path d="M568.999 492.996L519.499 498.996C519.499 498.996 507.718 511.709 508.39 521.729C509.076 531.944 513.189 542.361 523.39 543.229C531.065 543.882 537.499 533.496 537.499 533.496C537.499 533.496 544.916 545.082 551.999 544.496C559.16 543.904 564.499 530.996 564.499 530.996C564.499 530.996 570.934 537.055 575.999 536.996C580.282 536.946 583.273 535.798 585.999 532.496C589.376 528.405 587.499 516.996 587.499 516.996C587.499 516.996 585.436 507.549 580.999 501.996C577.343 497.419 568.999 492.996 568.999 492.996Z" fill="#693875" stroke="black" stroke-width="3"/>
<circle cx="248.5" cy="170.496" r="81.5" fill="white" stroke="black" stroke-width="3"/>
<circle cx="248.391" cy="170.496" r="42.5" fill="#693875" stroke="black" stroke-width="3"/>
<circle cx="401.5" cy="170.496" r="81.5" fill="white" stroke="black" stroke-width="3"/>
<circle cx="401.391" cy="170.496" r="42.5" fill="#693875" stroke="black" stroke-width="3"/>
<path d="M167 167.996H483V327.996C483 341.803 471.807 352.996 458 352.996H192C178.193 352.996 167 341.803 167 327.996V167.996Z" fill="white" stroke="black" stroke-width="3"/>
<rect x="191" y="182.996" width="268" height="156" rx="25" fill="black" stroke="black" stroke-width="3"/>
<rect x="209" y="210.996" width="100" height="100" stroke="black" stroke-width="3"/>
<circle cx="259" cy="260.996" r="50" fill="white"/>
<circle cx="259" cy="260.996" r="38" fill="black"/>
<rect x="341" y="210.996" width="100" height="100" stroke="black" stroke-width="3"/>
<circle cx="391" cy="260.996" r="50" fill="white"/>
<circle cx="391" cy="260.996" r="38" fill="black"/>
<path d="M1000.27 353H973.774L1000.27 649H1049.27L1000.27 353Z" fill="white" stroke="black" stroke-width="3" stroke-linecap="round" stroke-linejoin="round"/>
<path d="M1049.67 649L1000.17 649C1000.17 649 986.518 637.247 985.985 627.219C985.442 616.996 988.277 606.161 998.301 604.077C1005.84 602.508 1013.47 612.049 1013.47 612.049C1013.47 612.049 1019.45 599.658 1026.55 599.391C1033.73 599.12 1040.58 611.295 1040.58 611.295C1040.58 611.295 1046.24 604.509 1051.28 603.96C1055.53 603.497 1058.64 604.278 1061.74 607.23C1065.59 610.886 1065.09 622.438 1065.09 622.438C1065.09 622.438 1064.17 632.064 1060.44 638.109C1057.35 643.091 1049.67 649 1049.67 649Z" fill="#693875" stroke="black" stroke-width="3"/>
<path d="M947.274 353H973.774L947.274 649H898.274L947.274 353Z" fill="white" stroke="black" stroke-width="3"/>
<path d="M947.166 649L898.166 649C898.166 649 884.738 637.708 884.146 627.683C883.543 617.463 886.315 606.612 896.326 604.468C903.857 602.856 911.546 612.351 911.546 612.351C911.546 612.351 917.448 599.925 924.549 599.616C931.727 599.304 938.646 611.438 938.646 611.438C938.646 611.438 944.268 604.619 949.301 604.041C953.555 603.552 956.667 604.315 959.787 607.249C963.651 610.883 963.223 622.437 963.223 622.437C963.223 622.437 962.363 632.068 958.66 638.135C955.607 643.135 947.166 649 947.166 649Z" fill="#693875" stroke="black" stroke-width="3"/>
<path d="M748.482 353.852C778.165 259.5 815.774 236 815.774 236V285.386C815.774 285.386 804.165 322 784.485 394.807C764.804 467.614 748.665 493 748.665 493L705.165 468C705.165 468 723.152 434.366 748.482 353.852Z" fill="white" stroke="black" stroke-width="3"/>
<path d="M705.164 467.999L748.665 493C748.665 493 753.207 508.384 748.665 517.34C744.034 526.471 725.891 532.195 716.165 529C708.847 526.596 718.733 517.34 718.733 517.34C718.733 517.34 698.954 521.223 692.665 517.911C686.308 514.562 692.165 500.999 692.165 500.999C687 501.08 676.889 499.213 675.665 497.5C670.665 490.499 678.135 477.854 690.165 470.999C695.355 468.042 705.164 467.999 705.164 467.999Z" fill="#693875" stroke="black" stroke-width="3"/>
<path d="M1192.66 360C1179.66 264.5 1131.77 236 1131.77 236V285.386C1131.77 285.386 1149.26 319.216 1152.66 390.5C1156.07 461.784 1123.98 496.03 1126.67 495L1178.66 500C1178.66 500 1204.05 443.633 1192.66 360Z" fill="white" stroke="black" stroke-width="3"/>
<path d="M1178.66 500L1126.66 495C1126.66 495 1114.66 496.5 1107.66 508.5C1102.51 517.343 1099.92 533.27 1109.66 536.41C1117 538.772 1131.66 529.5 1131.66 529.5C1131.66 529.5 1129.63 542.477 1136.66 543.5C1143.77 544.533 1162.16 529.5 1162.16 529.5C1162.16 529.5 1159.07 540.52 1163.16 543.5C1174.17 551.5 1189.19 528.756 1189.66 524.5C1192.17 502 1178.66 500 1178.66 500Z" fill="#693875" stroke="black" stroke-width="3"/>
<circle cx="897.165" cy="156.5" r="81.5" fill="white" stroke="black" stroke-width="3"/>
<circle cx="897.056" cy="156.5" r="42.5" fill="#693875" stroke="black" stroke-width="3"/>
<circle cx="1050.17" cy="156.5" r="81.5" fill="white" stroke="black" stroke-width="3"/>
<circle cx="1050.06" cy="156.5" r="42.5" fill="#693875" stroke="black" stroke-width="3"/>
<path d="M815.774 168H1131.77V328C1131.77 341.807 1120.58 353 1106.77 353H840.774C826.967 353 815.774 341.807 815.774 328V168Z" fill="white" stroke="black" stroke-width="3"/>
<rect x="839.774" y="183" width="268" height="156" rx="25" fill="black" stroke="black" stroke-width="3"/>
<rect x="852.665" y="206" width="110" height="110" stroke="black" stroke-width="3"/>
<circle cx="907.665" cy="261" r="55" fill="white"/>
<circle cx="907.665" cy="261" r="41.8" fill="black"/>
<rect x="984.665" y="206" width="110" height="110" stroke="black" stroke-width="3"/>
<circle cx="1039.67" cy="261" r="55" fill="white"/>
<circle cx="1039.67" cy="261" r="41.8" fill="black"/>
<path d="M1696.66 352.996H1670.16L1696.66 648.996H1745.66L1696.66 352.996Z" fill="white" stroke="black" stroke-width="3" stroke-linecap="round" stroke-linejoin="round"/>
<path d="M1746.05 648.996L1696.55 648.996C1696.55 648.996 1682.9 637.243 1682.37 627.215C1681.83 616.992 1684.66 606.157 1694.69 604.073C1702.23 602.505 1709.86 612.045 1709.86 612.045C1709.86 612.045 1715.83 599.654 1722.94 599.387C1730.12 599.116 1736.97 611.291 1736.97 611.291C1736.97 611.291 1742.63 604.505 1747.66 603.956C1751.92 603.493 1755.03 604.274 1758.13 607.226C1761.97 610.882 1761.48 622.434 1761.48 622.434C1761.48 622.434 1760.56 632.06 1756.82 638.105C1753.74 643.087 1746.05 648.996 1746.05 648.996Z" fill="#693875" stroke="black" stroke-width="3"/>
<path d="M1643.66 352.996H1670.16L1643.66 648.996H1594.66L1643.66 352.996Z" fill="white" stroke="black" stroke-width="3"/>
<path d="M1643.55 648.996L1594.55 648.996C1594.55 648.996 1581.12 637.704 1580.53 627.679C1579.93 617.459 1582.7 606.608 1592.71 604.464C1600.24 602.852 1607.93 612.347 1607.93 612.347C1607.93 612.347 1613.83 599.921 1620.93 599.612C1628.11 599.3 1635.03 611.435 1635.03 611.435C1635.03 611.435 1640.65 604.615 1645.69 604.037C1649.94 603.548 1653.05 604.311 1656.17 607.245C1660.04 610.879 1659.61 622.433 1659.61 622.433C1659.61 622.433 1658.75 632.065 1655.05 638.131C1651.99 643.131 1643.55 648.996 1643.55 648.996Z" fill="#693875" stroke="black" stroke-width="3"/>
<path d="M1471.05 357.996C1494.18 263.714 1521.38 244.027 1524.16 243.996V303.496C1520.58 304.193 1516.01 314.296 1498.05 388.996C1480.09 463.696 1436.05 463.496 1436.05 463.496L1394.55 427.496C1394.55 427.496 1450.94 439.969 1471.05 357.996Z" fill="white" stroke="black" stroke-width="3"/>
<path d="M1396.25 427.682L1436.05 463.496C1436.05 463.496 1434.01 480.266 1427.55 487.496C1420.96 494.866 1397 493.617 1388.05 487.496C1381.31 482.89 1398.95 479.558 1398.95 479.558C1398.95 479.558 1373.07 473.157 1367.55 467.996C1361.97 462.778 1376.14 455.487 1376.14 455.487C1371 453.952 1355.39 443.032 1354.55 440.995C1351.11 432.676 1367.26 428.759 1380.7 425.897C1386.5 424.661 1396.25 427.682 1396.25 427.682Z" fill="#693875" stroke="black" stroke-width="3"/>
<path d="M1881.38 390.382C1879.83 286.733 1819.92 250.546 1830.05 255.996L1830.05 309.996C1826.5 310.55 1847.75 320.105 1842.55 390.382C1837.34 460.66 1773.23 487.059 1776.05 486.496L1819.05 520.496C1819.05 520.496 1882.62 472.987 1881.38 390.382Z" fill="white" stroke="black" stroke-width="3"/>
<path d="M1816.95 519.105L1776.01 486.662C1776.01 486.662 1765.12 481.403 1752.72 487.676C1743.59 492.299 1732.77 504.267 1739.24 512.197C1744.11 518.162 1761.47 518.345 1761.47 518.345C1761.47 518.345 1752.71 528.136 1758.06 532.815C1763.47 537.545 1787.07 534.911 1787.07 534.911C1787.07 534.911 1778.49 542.483 1780.31 547.209C1785.2 559.901 1810.17 548.967 1812.88 545.651C1827.2 528.117 1816.95 519.105 1816.95 519.105Z" fill="#693875" stroke="black" stroke-width="3"/>
<circle cx="1597.55" cy="179.496" r="81.5" fill="white" stroke="black" stroke-width="3"/>
<circle cx="1597.44" cy="179.496" r="42.5" fill="#693875" stroke="black" stroke-width="3"/>
<circle cx="1750.55" cy="179.496" r="81.5" fill="white" stroke="black" stroke-width="3"/>
<circle cx="1750.44" cy="179.496" r="42.5" fill="#693875" stroke="black" stroke-width="3"/>
<path d="M1515.66 192.996H1831.66V352.996C1831.66 366.803 1820.47 377.996 1806.66 377.996H1540.66C1526.85 377.996 1515.66 366.803 1515.66 352.996V192.996Z" fill="white" stroke="black" stroke-width="3"/>
<rect x="1539.66" y="207.996" width="268" height="156" rx="25" fill="black" stroke="black" stroke-width="3"/>
<rect x="1547.55" y="225.996" width="120" height="120" stroke="black" stroke-width="3"/>
<circle cx="1607.55" cy="285.996" r="60" fill="white"/>
<circle cx="1607.55" cy="285.996" r="45.6" fill="black"/>
<rect x="1679.55" y="225.996" width="120" height="120" stroke="black" stroke-width="3"/>
<circle cx="1739.55" cy="285.996" r="60" fill="white"/>
<circle cx="1739.55" cy="285.996" r="45.6" fill="black"/>
<path d="M2340.17 352.996H2313.67L2340.17 648.996H2389.17L2340.17 352.996Z" fill="white" stroke="black" stroke-width="3" stroke-linecap="round" stroke-linejoin="round"/>
<path d="M2389.56 648.996L2340.06 648.996C2340.06 648.996 2326.42 637.243 2325.89 627.215C2325.34 616.992 2328.18 606.157 2338.2 604.073C2345.74 602.505 2353.37 612.045 2353.37 612.045C2353.37 612.045 2359.35 599.654 2366.45 599.387C2373.63 599.116 2380.48 611.291 2380.48 611.291C2380.48 611.291 2386.14 604.505 2391.18 603.956C2395.43 603.493 2398.54 604.274 2401.64 607.226C2405.49 610.882 2404.99 622.434 2404.99 622.434C2404.99 622.434 2404.07 632.06 2400.34 638.105C2397.25 643.087 2389.56 648.996 2389.56 648.996Z" fill="#693875" stroke="black" stroke-width="3"/>
<path d="M2287.17 352.996H2313.67L2287.17 648.996H2238.17L2287.17 352.996Z" fill="white" stroke="black" stroke-width="3"/>
<path d="M2287.07 648.996L2238.07 648.996C2238.07 648.996 2224.64 637.704 2224.05 627.679C2223.44 617.459 2226.21 606.608 2236.23 604.464C2243.76 602.852 2251.45 612.347 2251.45 612.347C2251.45 612.347 2257.35 599.921 2264.45 599.612C2271.63 599.3 2278.55 611.435 2278.55 611.435C2278.55 611.435 2284.17 604.615 2289.2 604.037C2293.46 603.548 2296.57 604.311 2299.69 607.245C2303.55 610.879 2303.12 622.433 2303.12 622.433C2303.12 622.433 2302.26 632.065 2298.56 638.131C2295.51 643.131 2287.07 648.996 2287.07 648.996Z" fill="#693875" stroke="black" stroke-width="3"/>
<path d="M2125.06 310.161C2209.7 251.651 2183.94 208.029 2186.84 207.996V273.01C2186.84 273.01 2217.88 306.404 2136.56 354.496C2055.25 402.588 2042.56 374.996 2042.56 374.996L2040.56 321.996C2040.56 321.996 2060.26 354.96 2125.06 310.161Z" fill="white" stroke="black" stroke-width="3"/>
<path d="M2040.43 321.748L2042.8 375.238C2042.8 375.238 2029.41 385.542 2019.72 386C2009.85 386.468 1993.95 368.511 1992.03 357.831C1990.59 349.796 2005.33 360.041 2005.33 360.041C2005.33 360.041 1991.76 337.097 1991.57 329.542C1991.38 321.905 2006.51 326.901 2006.51 326.901C2004 322.156 2000.85 303.371 2001.71 301.344C2005.23 293.062 2019.35 301.834 2030.81 309.411C2035.76 312.68 2040.43 321.748 2040.43 321.748Z" fill="#693875" stroke="black" stroke-width="3"/>
<circle cx="2240.67" cy="195.496" r="81.5" fill="white" stroke="black" stroke-width="3"/>
<circle cx="2240.56" cy="195.496" r="42.5" fill="#693875" stroke="black" stroke-width="3"/>
<circle cx="2395.06" cy="207.496" r="81.5" fill="white" stroke="black" stroke-width="3"/>
<circle cx="2394.95" cy="207.496" r="42.5" fill="#693875" stroke="black" stroke-width="3"/>
<path d="M2159.17 192.996H2475.17V352.996C2475.17 366.803 2463.98 377.996 2450.17 377.996H2184.17C2170.37 377.996 2159.17 366.803 2159.17 352.996V192.996Z" fill="white" stroke="black" stroke-width="3"/>
<rect x="2183.17" y="207.996" width="268" height="156" rx="25" fill="black" stroke="black" stroke-width="3"/>
<rect x="2191.06" y="225.996" width="120" height="120" stroke="black" stroke-width="3"/>
<circle cx="2251.06" cy="285.996" r="60" fill="white"/>
<rect x="2237.56" y="212.996" width="26" height="34" fill="black"/>
<circle cx="2251.06" cy="285.996" r="45.6" fill="black"/>
<rect x="2323.06" y="225.996" width="120" height="120" stroke="black" stroke-width="3"/>
<circle cx="2383.06" cy="285.996" r="60" fill="white"/>
<rect x="2370.56" y="220.996" width="26" height="34" fill="black"/>
<circle cx="2383.06" cy="285.996" r="45.6" fill="black"/>
<path d="M2453.36 432.771C2529.74 358.634 2486.13 271.535 2470.56 272.496L2468.66 338.626C2468.66 338.626 2465.78 357.07 2415.06 405.996C2364.35 454.922 2308.3 432.766 2310.77 434.226L2320.17 488.232C2324.49 496.768 2391.84 492.486 2453.36 432.771Z" fill="white" stroke="black" stroke-width="3"/>
<path d="M2319.54 485.8L2310.64 434.324C2310.64 434.324 2306.02 423.146 2292.6 419.562C2282.71 416.921 2266.66 418.631 2266.21 428.858C2265.86 436.553 2278.68 448.254 2278.68 448.254C2278.68 448.254 2265.62 449.718 2266.5 456.772C2267.38 463.903 2286.73 477.672 2286.73 477.672C2286.73 477.672 2275.28 477.595 2273.49 482.332C2268.68 495.054 2294.58 503.544 2298.81 502.877C2321.17 499.35 2319.54 485.8 2319.54 485.8Z" fill="#693875" stroke="black" stroke-width="3"/>
<path d="M2992.41 352.996H2965.91L2992.41 648.996H3041.41L2992.41 352.996Z" fill="white" stroke="black" stroke-width="3" stroke-linecap="round" stroke-linejoin="round"/>
<path d="M3041.8 648.996L2992.3 648.996C2992.3 648.996 2978.66 637.243 2978.12 627.215C2977.58 616.992 2980.41 606.157 2990.44 604.073C2997.98 602.505 3005.61 612.045 3005.61 612.045C3005.61 612.045 3011.59 599.654 3018.69 599.387C3025.87 599.116 3032.72 611.291 3032.72 611.291C3032.72 611.291 3038.38 604.505 3043.41 603.956C3047.67 603.493 3050.78 604.274 3053.88 607.226C3057.72 610.882 3057.23 622.434 3057.23 622.434C3057.23 622.434 3056.31 632.06 3052.57 638.105C3049.49 643.087 3041.8 648.996 3041.8 648.996Z" fill="#693875" stroke="black" stroke-width="3"/>
<path d="M2939.41 352.996H2965.91L2939.41 648.996H2890.41L2939.41 352.996Z" fill="white" stroke="black" stroke-width="3"/>
<path d="M2939.3 648.996L2890.3 648.996C2890.3 648.996 2876.88 637.704 2876.28 627.679C2875.68 617.459 2878.45 606.608 2888.46 604.464C2895.99 602.852 2903.68 612.347 2903.68 612.347C2903.68 612.347 2909.58 599.921 2916.69 599.612C2923.86 599.3 2930.78 611.435 2930.78 611.435C2930.78 611.435 2936.41 604.615 2941.44 604.037C2945.69 603.548 2948.8 604.311 2951.92 607.245C2955.79 610.879 2955.36 622.433 2955.36 622.433C2955.36 622.433 2954.5 632.065 2950.8 638.131C2947.74 643.131 2939.3 648.996 2939.3 648.996Z" fill="#693875" stroke="black" stroke-width="3"/>
<path d="M2778.12 284.77C2873.84 322.51 2895.74 276.829 2897.39 279.225L2843.38 315.414C2843.38 315.414 2832.91 359.787 2747.69 319.003C2662.48 278.22 2678.34 252.324 2678.34 252.324L2721.26 221.16C2721.26 221.16 2704.84 255.874 2778.12 284.77Z" fill="white" stroke="black" stroke-width="3"/>
<path d="M2721.39 220.914L2678.27 252.65C2678.27 252.65 2662.25 247.265 2656.48 239.472C2650.6 231.529 2656.66 208.323 2664.47 200.788C2670.34 195.119 2670.04 213.07 2670.04 213.07C2670.04 213.07 2681.54 189.017 2687.71 184.655C2693.95 180.246 2698.23 195.601 2698.23 195.601C2700.77 190.872 2714.62 177.797 2716.78 177.385C2725.63 175.703 2726.2 192.312 2726.28 206.052C2726.32 211.979 2721.39 220.914 2721.39 220.914Z" fill="#693875" stroke="black" stroke-width="3"/>
<circle cx="2893.91" cy="203.496" r="81.5" fill="white" stroke="black" stroke-width="3"/>
<circle cx="2893.8" cy="203.496" r="42.5" fill="#693875" stroke="black" stroke-width="3"/>
<path d="M3128.3 205.496C3128.3 250.507 3095.31 301.996 3050.3 301.996C3005.29 301.996 2968.8 265.507 2968.8 220.496C2968.8 175.485 3005.29 138.996 3050.3 138.996C3095.31 138.996 3128.3 160.485 3128.3 205.496Z" fill="white" stroke="black" stroke-width="3"/>
<circle cx="3050.19" cy="220.496" r="42.5" fill="#693875" stroke="black" stroke-width="3"/>
<path d="M2812.41 200.996H3128.41V360.996C3128.41 374.803 3117.22 385.996 3103.41 385.996H2837.41C2823.6 385.996 2812.41 374.803 2812.41 360.996V200.996Z" fill="white" stroke="black" stroke-width="3"/>
<rect x="2836.41" y="215.996" width="268" height="156" rx="25" fill="black" stroke="black" stroke-width="3"/>
<rect x="2844.3" y="233.996" width="120" height="120" stroke="black" stroke-width="3"/>
<circle cx="2904.3" cy="293.996" r="60" fill="white"/>
<rect x="2890.8" y="220.996" width="26" height="34" fill="black"/>
<circle cx="2904.3" cy="293.996" r="45.6" fill="black"/>
<rect x="2844.8" y="252.381" width="26" height="34" transform="rotate(-45 2844.8 252.381)" fill="black"/>
<rect x="2976.3" y="233.996" width="120" height="120" stroke="black" stroke-width="3"/>
<circle cx="3036.3" cy="293.996" r="60" fill="white"/>
<circle cx="3036.3" cy="293.996" r="45.6" fill="black"/>
<rect x="3023.8" y="228.996" width="26" height="34" fill="black"/>
<rect width="26" height="34" transform="matrix(-0.707107 -0.707107 -0.707107 0.707107 3097.23 252.381)" fill="black"/>
<path d="M3106.6 440.771C3182.98 366.634 3140.86 285.535 3125.3 286.496L3121.9 346.626C3121.9 346.626 3119.02 365.07 3068.3 413.996C3017.59 462.922 2961.54 440.766 2964.01 442.226L2973.41 496.232C2977.73 504.767 3045.08 500.486 3106.6 440.771Z" fill="white" stroke="black" stroke-width="3"/>
<path d="M2972.78 493.8L2963.87 442.324C2963.87 442.324 2959.26 431.146 2945.84 427.562C2935.95 424.921 2919.9 426.631 2919.45 436.858C2919.1 444.553 2931.92 456.254 2931.92 456.254C2931.92 456.254 2918.86 457.718 2919.73 464.772C2920.61 471.903 2939.97 485.672 2939.97 485.672C2939.97 485.672 2928.52 485.595 2926.73 490.332C2921.92 503.054 2947.82 511.544 2952.05 510.877C2974.41 507.35 2972.78 493.8 2972.78 493.8Z" fill="#693875" stroke="black" stroke-width="3"/>
<path d="M3601 354H3574.5L3601 650H3650L3601 354Z" fill="white" stroke="black" stroke-width="3" stroke-linecap="round" stroke-linejoin="round"/>
<path d="M3650.4 650L3600.9 650C3600.9 650 3587.25 638.247 3586.72 628.219C3586.17 617.996 3589.01 607.161 3599.03 605.077C3606.57 603.508 3614.2 613.049 3614.2 613.049C3614.2 613.049 3620.18 600.658 3627.28 600.391C3634.46 600.12 3641.31 612.295 3641.31 612.295C3641.31 612.295 3646.97 605.509 3652.01 604.96C3656.27 604.497 3659.37 605.278 3662.48 608.23C3666.32 611.886 3665.82 623.438 3665.82 623.438C3665.82 623.438 3664.91 633.064 3661.17 639.109C3658.08 644.091 3650.4 650 3650.4 650Z" fill="#693875" stroke="black" stroke-width="3"/>
<path d="M3548 354H3574.5L3548 650H3499L3548 354Z" fill="white" stroke="black" stroke-width="3"/>
<path d="M3547.9 650L3498.9 650C3498.9 650 3485.47 638.708 3484.88 628.683C3484.27 618.463 3487.04 607.612 3497.06 605.468C3504.59 603.856 3512.28 613.351 3512.28 613.351C3512.28 613.351 3518.18 600.925 3525.28 600.616C3532.46 600.304 3539.38 612.438 3539.38 612.438C3539.38 612.438 3545 605.619 3550.03 605.041C3554.29 604.552 3557.4 605.315 3560.52 608.249C3564.38 611.883 3563.95 623.437 3563.95 623.437C3563.95 623.437 3563.09 633.068 3559.39 639.135C3556.34 644.135 3547.9 650 3547.9 650Z" fill="#693875" stroke="black" stroke-width="3"/>
<circle cx="3502.5" cy="204.5" r="81.5" fill="white" stroke="black" stroke-width="3"/>
<circle cx="3502.4" cy="204.5" r="42.5" fill="#693875" stroke="black" stroke-width="3"/>
<circle cx="3655.5" cy="204.5" r="81.5" fill="white" stroke="black" stroke-width="3"/>
<circle cx="3655.4" cy="204.5" r="42.5" fill="#693875" stroke="black" stroke-width="3"/>
<path d="M3322.16 264.615C3347.78 334.397 3428.99 326.359 3435.89 331.5L3439.04 293.749C3447.25 283.27 3379.68 293.678 3360.08 245.491C3340.47 197.304 3440.32 183.205 3430.6 182.793L3399.99 134.426C3399.99 134.426 3293.08 185.381 3322.16 264.615Z" fill="white" stroke="black" stroke-width="3"/>
<path d="M3399.13 135.24L3430.12 183.625L3450.33 191.81C3450.33 191.81 3475.39 200.8 3474.38 182.982C3473.95 175.292 3456.13 162.409 3456.13 162.409C3456.13 162.409 3464.46 158.696 3466.18 147.402C3467.26 140.299 3437.33 135.778 3437.33 135.778C3437.33 135.778 3460.79 133.408 3448.58 119.426C3445.64 116.057 3430.31 111.564 3421.03 116.764C3411.75 121.964 3402.15 123.758 3399.13 135.24Z" fill="#693875" stroke="black" stroke-width="3"/>
<path d="M3421 202H3737V362C3737 375.807 3725.81 387 3712 387H3446C3432.2 387 3421 375.807 3421 362V202Z" fill="white" stroke="black" stroke-width="3"/>
<rect x="3445" y="217" width="268" height="156" rx="25" fill="black" stroke="black" stroke-width="3"/>
<rect x="3452.9" y="235" width="120" height="120" stroke="black" stroke-width="3"/>
<circle cx="3512.9" cy="295" r="60" fill="white"/>
<rect x="3499.4" y="222" width="26" height="34" fill="black"/>
<rect x="3453.39" y="253.385" width="26" height="34" transform="rotate(-45 3453.39 253.385)" fill="black"/>
<circle cx="3512.9" cy="295" r="45.6" fill="black"/>
<rect x="3447.39" y="308" width="26" height="34" transform="rotate(-90 3447.39 308)" fill="black"/>
<rect x="3584.9" y="235" width="120" height="120" stroke="black" stroke-width="3"/>
<circle cx="3644.9" cy="295" r="60" fill="white"/>
<circle cx="3644.9" cy="295" r="45.6" fill="black"/>
<rect x="3632.39" y="230" width="26" height="34" fill="black"/>
<rect x="3687.44" y="235" width="26" height="34" transform="rotate(45 3687.44 235)" fill="black"/>
<rect x="3713.39" y="282" width="26" height="34" transform="rotate(90 3713.39 282)" fill="black"/>
<path d="M3699.4 439C3789.51 397.031 3754.46 252.939 3724.5 260.999L3724.5 318.499C3724.5 318.499 3722.61 384.405 3677.9 399C3633.2 413.594 3598.31 320.963 3598.91 334.585L3553.52 369.459C3553.52 369.459 3622.89 474.635 3699.4 439Z" fill="white" stroke="black" stroke-width="3"/>
<path d="M3554.41 370.239L3599.78 334.989L3606.1 314.125C3606.1 314.125 3612.78 288.349 3595.13 290.971C3587.51 292.102 3576.29 311.017 3576.29 311.017C3576.29 311.017 3571.84 303.054 3560.44 302.369C3553.26 301.938 3551.48 332.151 3551.48 332.151C3551.48 332.151 3546.99 309.005 3534.17 322.429C3531.08 325.663 3528 341.338 3534.02 350.11C3540.04 358.882 3542.7 368.281 3554.41 370.239Z" fill="#693875" stroke="black" stroke-width="3"/>
<path d="M4251.44 351.157C4252.18 351.157 4252.8 351.688 4252.92 352.412L4301.92 648.412C4302 648.847 4301.87 649.291 4301.59 649.627C4301.3 649.963 4300.88 650.157 4300.44 650.157H4251.44C4250.67 650.157 4250.02 649.564 4249.95 648.791L4223.45 352.791C4223.41 352.372 4223.55 351.956 4223.84 351.645C4224.12 351.334 4224.52 351.157 4224.94 351.157H4251.44Z" fill="white" stroke="black" stroke-width="3" stroke-linecap="round" stroke-linejoin="round"/>
<path d="M4316.26 622.095C4317.76 622.16 4317.76 622.159 4317.76 622.159L4317.76 622.158L4317.76 622.156L4317.76 622.147L4317.76 622.118C4317.76 622.093 4317.76 622.058 4317.76 622.012C4317.77 621.921 4317.77 621.788 4317.77 621.62C4317.78 621.284 4317.78 620.803 4317.78 620.215C4317.76 619.044 4317.7 617.436 4317.52 615.703C4317.34 613.978 4317.02 612.087 4316.49 610.363C4315.97 608.668 4315.18 606.973 4313.95 605.8C4312.26 604.19 4310.5 603.119 4308.54 602.534C4306.59 601.953 4304.54 601.881 4302.28 602.126C4299.27 602.454 4296.29 604.572 4294.23 606.355C4293.35 607.116 4292.58 607.863 4291.98 608.477C4291.93 608.395 4291.87 608.311 4291.82 608.225C4291.04 607.053 4289.92 605.484 4288.56 603.916C4287.21 602.355 4285.58 600.752 4283.77 599.547C4281.98 598.347 4279.89 597.465 4277.66 597.549C4275.46 597.632 4273.46 598.646 4271.77 599.949C4270.06 601.259 4268.56 602.945 4267.32 604.569C4266.08 606.2 4265.08 607.815 4264.39 609.017C4264.37 609.05 4264.35 609.083 4264.33 609.115C4263.47 608.218 4262.25 607.059 4260.8 605.942C4257.88 603.699 4253.61 601.34 4249.16 602.265C4243.59 603.425 4240.03 607.049 4237.98 611.642C4235.95 616.183 4235.38 621.708 4235.66 626.956C4235.81 629.769 4236.86 632.606 4238.27 635.222C4239.69 637.85 4241.51 640.343 4243.29 642.485C4245.07 644.631 4246.83 646.452 4248.14 647.737C4248.8 648.379 4249.35 648.89 4249.74 649.241C4249.93 649.417 4250.08 649.553 4250.19 649.646C4250.24 649.692 4250.28 649.728 4250.31 649.753L4250.34 649.782L4250.35 649.79L4250.35 649.792L4250.35 649.793C4250.35 649.793 4250.36 649.793 4251.33 648.657L4250.36 649.793L4250.78 650.157L4251.33 650.157L4300.83 650.157L4301.34 650.157L4301.75 649.846L4300.83 648.657C4301.75 649.846 4301.75 649.846 4301.75 649.846L4301.75 649.845L4301.75 649.844L4301.76 649.84L4301.77 649.826L4301.84 649.772C4301.9 649.725 4301.99 649.657 4302.1 649.569C4302.32 649.393 4302.64 649.137 4303.04 648.815C4303.82 648.171 4304.9 647.26 4306.07 646.189C4308.39 644.076 4311.22 641.236 4312.88 638.555C4314.88 635.316 4316.09 631.201 4316.8 627.987C4317.16 626.363 4317.39 624.934 4317.54 623.909C4317.62 623.396 4317.67 622.983 4317.7 622.696C4317.72 622.553 4317.73 622.44 4317.74 622.363L4317.75 622.273L4317.75 622.248L4317.75 622.241L4317.75 622.239L4317.75 622.238C4317.75 622.238 4317.75 622.238 4316.26 622.095ZM4316.26 622.095L4317.76 622.16L4317.76 622.199L4317.75 622.238L4316.26 622.095Z" fill="#693875" stroke="black" stroke-width="3"/>
<path d="M4198.44 351.157H4197.17L4196.96 352.412L4147.96 648.412L4147.67 650.157H4149.44H4198.44H4199.82L4199.94 648.791L4226.44 352.791L4226.58 351.157H4224.94H4198.44Z" fill="white" stroke="black" stroke-width="3"/>
<path d="M4214.39 622.094C4215.89 622.15 4215.89 622.15 4215.89 622.149L4215.89 622.148L4215.89 622.146L4215.89 622.137L4215.89 622.108C4215.89 622.084 4215.89 622.048 4215.9 622.002C4215.9 621.911 4215.9 621.778 4215.9 621.61C4215.91 621.274 4215.91 620.793 4215.9 620.206C4215.88 619.034 4215.81 617.427 4215.61 615.695C4215.42 613.971 4215.1 612.081 4214.55 610.361C4214.02 608.668 4213.22 606.979 4211.98 605.813C4210.28 604.213 4208.52 603.152 4206.56 602.579C4204.61 602.009 4202.55 601.949 4200.3 602.208C4197.29 602.554 4194.32 604.689 4192.27 606.484C4191.39 607.25 4190.63 608.001 4190.03 608.619C4189.98 608.538 4189.92 608.454 4189.87 608.368C4189.08 607.2 4187.95 605.638 4186.59 604.078C4185.22 602.525 4183.59 600.931 4181.77 599.737C4179.97 598.548 4177.88 597.678 4175.65 597.775C4173.45 597.871 4171.46 598.897 4169.77 600.21C4168.07 601.53 4166.58 603.225 4165.35 604.856C4164.12 606.494 4163.13 608.115 4162.44 609.321C4162.42 609.354 4162.41 609.387 4162.39 609.419C4161.52 608.528 4160.3 607.375 4158.84 606.267C4155.9 604.041 4151.62 601.707 4147.18 602.659C4141.61 603.851 4138.07 607.496 4136.05 612.101C4134.05 616.653 4133.51 622.182 4133.82 627.428C4134.14 632.968 4137.95 638.626 4141.4 642.724C4143.16 644.813 4144.89 646.578 4146.19 647.819C4146.84 648.441 4147.38 648.933 4147.76 649.272C4147.95 649.442 4148.1 649.573 4148.2 649.663C4148.25 649.708 4148.29 649.742 4148.32 649.766L4148.36 649.794L4148.36 649.802L4148.37 649.804L4148.37 649.805C4148.37 649.805 4148.37 649.805 4149.33 648.657L4148.37 649.805L4148.79 650.157L4149.33 650.157L4198.33 650.157L4198.8 650.157L4199.19 649.889L4198.33 648.657C4199.19 649.889 4199.19 649.889 4199.19 649.889L4199.19 649.888L4199.19 649.887L4199.2 649.883L4199.22 649.869L4199.3 649.816C4199.36 649.769 4199.46 649.701 4199.58 649.614C4199.82 649.438 4200.17 649.184 4200.6 648.864C4201.46 648.223 4202.63 647.316 4203.9 646.249C4206.4 644.149 4209.44 641.299 4211.11 638.574C4213.09 635.323 4214.28 631.201 4214.97 627.982C4215.31 626.356 4215.54 624.926 4215.69 623.9C4215.76 623.387 4215.81 622.974 4215.84 622.687C4215.85 622.543 4215.87 622.431 4215.87 622.353L4215.88 622.263L4215.89 622.239L4215.89 622.231L4215.89 622.229L4215.89 622.228C4215.89 622.228 4215.89 622.228 4214.39 622.094ZM4214.39 622.094L4215.89 622.15L4215.89 622.189L4215.89 622.228L4214.39 622.094Z" fill="#693875" stroke="black" stroke-width="3"/>
<circle cx="4154.14" cy="217.157" r="83" fill="white" stroke="black" stroke-width="3"/>
<circle cx="4154.03" cy="217.157" r="44" fill="#693875" stroke="black" stroke-width="3"/>
<circle cx="4305.94" cy="203.157" r="83" fill="white" stroke="black" stroke-width="3"/>
<circle cx="4305.83" cy="203.157" r="44" fill="#693875" stroke="black" stroke-width="3"/>
<path d="M4071.44 199.157H4069.94V200.657V360.657C4069.94 375.293 4081.81 387.157 4096.44 387.157H4362.44C4377.08 387.157 4388.94 375.293 4388.94 360.657V200.657V199.157H4387.44H4071.44Z" fill="white" stroke="black" stroke-width="3"/>
<rect x="4093.94" y="214.157" width="271" height="159" rx="26.5" fill="black" stroke="black" stroke-width="3"/>
<rect x="4101.83" y="232.157" width="123" height="123" stroke="black" stroke-width="3"/>
<circle cx="4163.33" cy="293.657" r="60" fill="white"/>
<rect x="4149.83" y="220.657" width="26" height="34" fill="black"/>
<rect x="4103.83" y="252.042" width="26" height="34" transform="rotate(-45 4103.83 252.042)" fill="black"/>
<circle cx="4163.33" cy="293.658" r="45.6" fill="black"/>
<rect x="4097.83" y="306.657" width="26" height="34" transform="rotate(-90 4097.83 306.657)" fill="black"/>
<rect x="4122.02" y="354.084" width="26" height="34" transform="rotate(-135 4122.02 354.084)" fill="black"/>
<rect x="4233.83" y="232.157" width="123" height="123" stroke="black" stroke-width="3"/>
<circle cx="4295.33" cy="293.657" r="60" fill="white"/>
<circle cx="4295.33" cy="293.658" r="45.6" fill="black"/>
<rect x="4282.83" y="228.657" width="26" height="34" fill="black"/>
<rect width="26" height="34" transform="matrix(-0.707107 0.707107 0.707107 0.707107 4332.02 311.657)" fill="black"/>
<rect x="4337.68" y="233.657" width="26" height="34" transform="rotate(45 4337.68 233.657)" fill="black"/>
<rect x="4363.83" y="280.657" width="26" height="34" transform="rotate(90 4363.83 280.657)" fill="black"/>
<path d="M4082.19 335.655L4082.14 334.102L4080.33 283.103L4080.3 282.315L4082.19 335.655ZM4082.19 335.655L4080.64 335.655M4082.19 335.655L4080.64 335.655M4080.64 335.655C4079.57 335.655 4078.28 335.334 4076.89 334.823C4075.47 334.302 4073.84 333.54 4072.04 332.564C4068.43 330.61 4064.1 327.751 4059.47 324.102C4050.22 316.804 4039.68 306.273 4031.3 293.32C4022.91 280.365 4016.66 264.934 4016.07 247.864C4015.47 230.77 4020.57 212.153 4034.69 192.871C4060.19 158.052 4098.95 158.795 4130.84 167.953C4146.82 172.541 4161.2 179.268 4171.58 184.839C4176.78 187.626 4180.98 190.128 4183.88 191.935C4185.33 192.839 4186.46 193.569 4187.23 194.075C4187.61 194.328 4187.91 194.525 4188.1 194.66C4188.2 194.727 4188.28 194.778 4188.33 194.813L4188.39 194.854L4188.41 194.865L4188.41 194.867C4188.41 194.868 4188.41 194.869 4187.56 196.102L4188.41 194.869L4189.5 195.624L4188.89 196.799L4162.62 246.863C4162.65 246.952 4162.67 247.05 4162.68 247.155C4162.7 247.279 4162.72 247.52 4162.64 247.802C4162.55 248.124 4162.33 248.523 4161.88 248.765C4161.47 248.983 4161.09 248.962 4160.89 248.931C4160.69 248.9 4160.52 248.834 4160.43 248.791C4160.11 248.644 4159.79 248.387 4159.58 248.209C4159.33 247.992 4159.02 247.713 4158.68 247.389C4157.96 246.703 4156.98 245.722 4155.79 244.53C4154.77 243.513 4153.6 242.343 4152.31 241.074C4146.64 235.499 4138.36 227.724 4128.98 220.967C4119.56 214.19 4109.18 208.546 4099.29 207.061C4089.53 205.596 4080.22 208.164 4072.6 217.961C4064.75 228.048 4061.36 237.052 4060.59 244.842C4059.82 252.631 4061.66 259.325 4064.48 264.812C4067.3 270.312 4071.1 274.593 4074.21 277.506C4075.76 278.959 4077.13 280.064 4078.11 280.802C4078.6 281.171 4078.98 281.448 4079.25 281.63C4079.38 281.721 4079.48 281.789 4079.55 281.832C4079.58 281.854 4079.6 281.87 4079.62 281.88L4079.64 281.89L4079.64 281.891L4079.64 281.891L4080.64 335.655Z" fill="white" stroke="black" stroke-width="3"/>
<path d="M4185.09 195.078L4185.4 194.494L4186.03 194.32C4192.19 192.635 4197.03 193.811 4201.45 196.086C4203.62 197.205 4205.7 198.594 4207.76 200.005C4208.04 200.193 4208.31 200.381 4208.58 200.569C4210.39 201.811 4212.2 203.055 4214.14 204.209C4219.13 207.181 4222.52 212.793 4224.48 218.024C4225.47 220.665 4226.12 223.28 4226.43 225.533C4226.73 227.722 4226.74 229.777 4226.26 231.18C4224.69 235.765 4222.46 238.402 4219.66 239.287C4216.9 240.159 4214.14 239.148 4211.9 237.769C4210.84 237.115 4209.84 236.339 4208.92 235.539C4209.67 237.819 4210.48 240.465 4211.19 243.159C4212.15 246.875 4212.94 250.773 4213.04 253.954C4213.09 255.538 4212.97 257.054 4212.56 258.314C4212.13 259.594 4211.34 260.77 4209.94 261.313C4204.29 263.523 4199.46 263.212 4196.02 262.324C4194.64 261.966 4193.48 261.515 4192.59 261.102C4192.54 261.497 4192.48 261.936 4192.41 262.413C4192.09 264.554 4191.6 267.461 4190.91 270.508C4190.21 273.547 4189.31 276.772 4188.14 279.53C4187 282.224 4185.51 284.745 4183.5 286.059C4179.45 288.712 4175.83 289.065 4172.72 287.745C4169.74 286.475 4167.54 283.782 4165.95 281.006C4164.34 278.2 4163.24 275.107 4162.55 272.746C4162.2 271.56 4161.95 270.544 4161.78 269.821C4161.7 269.46 4161.64 269.172 4161.6 268.971C4161.58 268.871 4161.56 268.793 4161.55 268.738L4161.54 268.675L4161.54 268.657L4161.54 268.652L4161.54 268.65C4161.54 268.649 4161.54 268.649 4163.01 268.382L4161.54 268.649L4161.53 268.619L4161.53 268.589L4158.52 246.997L4158.45 246.524L4158.67 246.101L4185.09 195.078Z" fill="#693875" stroke="black" stroke-width="3"/>
<path d="M4376.83 263.222L4376.83 261.398L4378.62 261.75C4391.47 264.277 4400.1 277.152 4404.17 293.735C4408.28 310.428 4407.95 331.433 4402.45 351.298C4396.95 371.164 4386.23 390.035 4369.41 402.298C4352.55 414.593 4329.73 420.125 4300.3 413.574C4258.16 404.19 4242.27 366.099 4236.83 331.017C4234.1 313.424 4233.97 296.428 4234.52 283.841C4234.79 277.545 4235.24 272.343 4235.61 268.713C4235.8 266.897 4235.97 265.474 4236.1 264.502C4236.16 264.016 4236.21 263.643 4236.24 263.39C4236.26 263.264 4236.27 263.168 4236.28 263.102L4236.29 263.028L4236.3 263.008L4236.3 263.003C4236.3 263.001 4236.3 263 4237.78 263.222L4236.3 263L4236.5 261.627L4237.89 261.726L4294.27 265.76C4294.43 265.605 4294.61 265.465 4294.8 265.349C4295.22 265.087 4295.96 264.815 4296.75 265.191C4297.43 265.517 4297.73 266.147 4297.87 266.516C4298.02 266.934 4298.1 267.411 4298.15 267.885C4298.34 269.743 4298.13 272.9 4297.78 276.8C4297.59 278.907 4297.35 281.269 4297.09 283.833C4296.37 290.931 4295.49 299.579 4295.03 308.656C4294.41 321.012 4294.59 333.996 4296.98 344.689C4299.39 355.43 4303.93 363.438 4311.69 366.537C4327.77 372.961 4343.95 364.419 4356.45 353.723C4362.65 348.419 4367.81 342.688 4371.43 338.275C4373.24 336.07 4374.66 334.2 4375.62 332.884C4376.1 332.226 4376.47 331.707 4376.72 331.354C4376.76 331.296 4376.8 331.242 4376.83 331.193L4376.83 263.222Z" fill="white" stroke="black" stroke-width="3"/>
<path d="M4237.83 265.892L4237.17 265.849L4236.76 265.337C4232.75 260.361 4231.89 255.457 4232.21 250.499C4232.36 248.059 4232.8 245.599 4233.27 243.146C4233.34 242.82 4233.4 242.494 4233.46 242.167C4233.88 240.016 4234.29 237.859 4234.57 235.62C4235.3 229.853 4239.08 224.501 4243.09 220.613C4245.12 218.651 4247.26 217.008 4249.2 215.823C4251.08 214.673 4252.96 213.843 4254.44 213.722C4259.27 213.325 4262.58 214.311 4264.51 216.52C4266.41 218.699 4266.59 221.64 4266.22 224.239C4266.05 225.472 4265.74 226.704 4265.37 227.864C4267.16 226.264 4269.26 224.461 4271.45 222.739C4274.47 220.363 4277.72 218.081 4280.6 216.717C4282.03 216.038 4283.47 215.538 4284.79 215.417C4286.13 215.293 4287.53 215.554 4288.58 216.61C4292.87 220.91 4294.52 225.463 4295.08 228.965C4295.31 230.378 4295.36 231.617 4295.33 232.596C4295.72 232.487 4296.14 232.368 4296.61 232.241C4298.7 231.674 4301.56 230.959 4304.63 230.377C4307.69 229.796 4311.01 229.338 4314 229.302C4316.93 229.267 4319.84 229.626 4321.84 230.939C4325.9 233.588 4327.67 236.768 4327.7 240.143C4327.73 243.389 4326.15 246.482 4324.24 249.05C4322.31 251.645 4319.91 253.89 4318.03 255.471C4317.08 256.265 4316.25 256.902 4315.65 257.342C4315.36 257.562 4315.12 257.733 4314.95 257.85C4314.87 257.909 4314.8 257.954 4314.75 257.986L4314.7 258.022L4314.69 258.032L4314.68 258.035L4314.68 258.036C4314.68 258.037 4314.68 258.037 4313.84 256.791L4314.68 258.037L4314.65 258.054L4314.63 258.07L4296.04 269.467L4295.64 269.717L4295.16 269.685L4237.83 265.892Z" fill="#693875" stroke="black" stroke-width="3"/>
<path d="M4903.46 351H4876.96L4903.46 647H4952.46L4903.46 351Z" fill="white" stroke="black" stroke-width="3" stroke-linecap="round" stroke-linejoin="round"/>
<path d="M4952.85 647L4903.35 647C4903.35 647 4889.7 635.247 4889.17 625.219C4888.63 614.996 4891.46 604.161 4901.49 602.077C4909.03 600.508 4916.66 610.049 4916.66 610.049C4916.66 610.049 4922.64 597.658 4929.74 597.391C4936.92 597.12 4943.77 609.295 4943.77 609.295C4943.77 609.295 4949.43 602.509 4954.46 601.96C4958.72 601.497 4961.83 602.278 4964.93 605.23C4968.77 608.886 4968.28 620.438 4968.28 620.438C4968.28 620.438 4967.36 630.064 4963.62 636.109C4960.54 641.091 4952.85 647 4952.85 647Z" fill="#693875" stroke="black" stroke-width="3"/>
<path d="M4850.46 351H4876.96L4850.46 647H4801.46L4850.46 351Z" fill="white" stroke="black" stroke-width="3"/>
<path d="M4850.35 647L4801.35 647C4801.35 647 4787.92 635.708 4787.33 625.683C4786.73 615.463 4789.5 604.612 4799.51 602.468C4807.04 600.856 4814.73 610.351 4814.73 610.351C4814.73 610.351 4820.63 597.925 4827.74 597.616C4834.91 597.304 4841.83 609.438 4841.83 609.438C4841.83 609.438 4847.45 602.619 4852.49 602.041C4856.74 601.552 4859.85 602.315 4862.97 605.249C4866.84 608.883 4866.41 620.437 4866.41 620.437C4866.41 620.437 4865.55 630.068 4861.85 636.135C4858.79 641.135 4850.35 647 4850.35 647Z" fill="#693875" stroke="black" stroke-width="3"/>
<circle cx="4804.35" cy="210.5" r="81.5" fill="white" stroke="black" stroke-width="3"/>
<circle cx="4804.24" cy="210.5" r="42.5" fill="#693875" stroke="black" stroke-width="3"/>
<circle cx="4956.96" cy="193.5" r="81.5" fill="white" stroke="black" stroke-width="3"/>
<circle cx="4956.85" cy="193.5" r="42.5" fill="#693875" stroke="black" stroke-width="3"/>
<path d="M4722.46 191H5038.46V351C5038.46 364.807 5027.27 376 5013.46 376H4747.46C4733.65 376 4722.46 364.807 4722.46 351V191Z" fill="white" stroke="black" stroke-width="3"/>
<rect x="4746.46" y="206" width="268" height="156" rx="25" fill="black" stroke="black" stroke-width="3"/>
<rect x="4754.35" y="224" width="120" height="120" stroke="black" stroke-width="3"/>
<circle cx="4814.35" cy="284" r="60" fill="white"/>
<rect x="4800.85" y="211" width="26" height="34" fill="black"/>
<rect x="4800.85" y="319" width="26" height="34" fill="black"/>
<rect x="4751.85" y="297" width="26" height="34" transform="rotate(-90 4751.85 297)" fill="black"/>
<circle cx="4814.35" cy="284" r="45.6" fill="black"/>
<rect width="26" height="34" transform="matrix(-0.707107 0.707107 0.707107 0.707107 4772.24 224)" fill="black"/>
<rect x="4772.24" y="344.427" width="26" height="34" transform="rotate(-135 4772.24 344.427)" fill="black"/>
<rect x="4886.35" y="224" width="120" height="120" stroke="black" stroke-width="3"/>
<circle cx="4946.35" cy="284" r="60" fill="white"/>
<rect x="4933.85" y="219" width="26" height="34" fill="black"/>
<circle cx="4946.35" cy="284" r="45.6" fill="black"/>
<rect width="26" height="34" transform="matrix(-0.707107 0.707107 0.707107 0.707107 4982.24 302)" fill="black"/>
<rect x="4987.89" y="224" width="26" height="34" transform="rotate(45 4987.89 224)" fill="black"/>
<rect x="4974.85" y="297" width="26" height="34" transform="rotate(-90 4974.85 297)" fill="black"/>
<rect x="4932.85" y="323" width="26" height="34" fill="black"/>
<path d="M4934.35 271C4994.39 319.352 5023.35 298 5040.06 300.979C5056.78 303.958 5044.4 262.684 5040.06 260.963C5040.06 257.5 4991.46 281.551 4968.21 253.479C4944.96 225.407 5013.65 161.787 5001.04 166.964L4952.87 136.046C4914.73 191.666 4911.35 252.479 4934.35 271Z" fill="white" stroke="black" stroke-width="3"/>
<path d="M4952.43 137.145L5000.95 167.919L5022.73 166.808C5022.73 166.808 5049.24 164.374 5040.8 148.649C5037.16 141.862 5015.57 137.708 5015.57 137.708C5015.57 137.708 5021.55 130.823 5018.34 119.86C5016.32 112.965 4987.29 121.504 4987.29 121.504C4987.29 121.504 5007.55 109.451 4990.58 101.93C4986.49 100.118 4970.7 102.518 4964.48 111.151C4958.26 119.784 4950.32 125.465 4952.43 137.145Z" fill="#693875" stroke="black" stroke-width="3"/>
<path d="M4780.06 265.909C4723.15 244.775 4722.34 258.042 4721.35 255.5C4698.69 272.535 4704.17 299.133 4721.35 321C4731.35 314 4728.04 298.853 4767.15 307.216C4806.26 315.578 4787.23 399.92 4787.23 399.92L4844.5 397.647C4844.5 397.647 4859.18 295.294 4780.06 265.909Z" fill="white" stroke="black" stroke-width="3"/>
<path d="M4843.16 397.182L4785.75 399.536L4768.49 412.854C4768.49 412.854 4748.09 429.962 4763.98 438.077C4770.84 441.579 4790.95 432.69 4790.95 432.69C4790.95 432.69 4789.96 441.76 4798.84 448.939C4804.43 453.454 4823.43 429.893 4823.43 429.893C4823.43 429.893 4813.64 451.344 4831.87 447.857C4836.27 447.017 4847.88 436.045 4848.07 425.408C4848.26 414.77 4851.56 405.574 4843.16 397.182Z" fill="#693875" stroke="black" stroke-width="3"/>
<path d="M5552.62 344.499H5526.12L5552.62 640.499H5601.62L5552.62 344.499Z" fill="white" stroke="black" stroke-width="3" stroke-linecap="round" stroke-linejoin="round"/>
<path d="M5602.01 640.5L5552.51 640.5C5552.51 640.5 5538.86 628.747 5538.33 618.719C5537.78 608.496 5540.62 597.661 5550.64 595.577C5558.18 594.008 5565.82 603.549 5565.82 603.549C5565.82 603.549 5571.79 591.158 5578.89 590.891C5586.07 590.62 5592.92 602.795 5592.92 602.795C5592.92 602.795 5598.58 596.009 5603.62 595.46C5607.88 594.997 5610.98 595.778 5614.09 598.73C5617.93 602.386 5617.43 613.938 5617.43 613.938C5617.43 613.938 5616.52 623.564 5612.78 629.609C5609.7 634.591 5602.01 640.5 5602.01 640.5Z" fill="#693875" stroke="black" stroke-width="3"/>
<path d="M5499.62 344.499H5526.12L5499.62 640.499H5450.62L5499.62 344.499Z" fill="white" stroke="black" stroke-width="3"/>
<path d="M5499.51 640.499L5450.51 640.499C5450.51 640.499 5437.08 629.207 5436.49 619.182C5435.88 608.962 5438.66 598.111 5448.67 595.967C5456.2 594.355 5463.89 603.85 5463.89 603.85C5463.89 603.85 5469.79 591.424 5476.89 591.115C5484.07 590.803 5490.99 602.937 5490.99 602.937C5490.99 602.937 5496.61 596.118 5501.64 595.54C5505.9 595.051 5509.01 595.814 5512.13 598.748C5515.99 602.382 5515.56 613.936 5515.56 613.936C5515.56 613.936 5514.7 623.567 5511 629.634C5507.95 634.634 5499.51 640.499 5499.51 640.499Z" fill="#693875" stroke="black" stroke-width="3"/>
<circle cx="5453.11" cy="186.998" r="81.5" fill="white" stroke="black" stroke-width="3"/>
<circle cx="5453" cy="186.998" r="42.5" fill="#693875" stroke="black" stroke-width="3"/>
<circle cx="5606.11" cy="186.998" r="81.5" fill="white" stroke="black" stroke-width="3"/>
<circle cx="5606" cy="186.998" r="42.5" fill="#693875" stroke="black" stroke-width="3"/>
<path d="M5371.61 184.498H5687.61V344.498C5687.61 358.305 5676.42 369.498 5662.61 369.498H5396.61C5382.81 369.498 5371.61 358.305 5371.61 344.498V184.498Z" fill="white" stroke="black" stroke-width="3"/>
<rect x="5395.61" y="199.498" width="268" height="156" rx="25" fill="black" stroke="black" stroke-width="3"/>
<rect x="5403.5" y="217.498" width="120" height="120" stroke="black" stroke-width="3"/>
<circle cx="5463.5" cy="277.498" r="60" fill="white"/>
<rect x="5450" y="204.498" width="26" height="34" fill="black"/>
<rect x="5450.01" y="312.498" width="26" height="34" fill="black"/>
<rect x="5401.01" y="290.498" width="26" height="34" transform="rotate(-90 5401.01 290.498)" fill="black"/>
<circle cx="5463.5" cy="277.498" r="45.6" fill="black"/>
<rect width="26" height="34" transform="matrix(-0.707107 0.707107 0.707107 0.707107 5421.39 217.498)" fill="black"/>
<rect width="26" height="34" transform="matrix(-0.707107 0.707107 0.707107 0.707107 5499.39 295.498)" fill="black"/>
<rect x="5421.39" y="337.925" width="26" height="34" transform="rotate(-135 5421.39 337.925)" fill="black"/>
<rect x="5535.5" y="217.498" width="120" height="120" stroke="black" stroke-width="3"/>
<circle cx="5595.5" cy="277.498" r="60" fill="white"/>
<rect x="5583" y="212.498" width="26" height="34" fill="black"/>
<circle cx="5595.5" cy="277.498" r="45.6" fill="black"/>
<rect width="26" height="34" transform="matrix(-0.707107 0.707107 0.707107 0.707107 5631.39 295.498)" fill="black"/>
<rect x="5637.05" y="217.498" width="26" height="34" transform="rotate(45 5637.05 217.498)" fill="black"/>
<rect x="5559.05" y="295.498" width="26" height="34" transform="rotate(45 5559.05 295.498)" fill="black"/>
<rect x="5624.01" y="290.498" width="26" height="34" transform="rotate(-90 5624.01 290.498)" fill="black"/>
<rect x="5582.01" y="316.498" width="26" height="34" fill="black"/>
<path d="M5687.69 316.499C5696.64 313.622 5693.94 282.222 5688.44 271.068C5682.95 259.915 5683 236.999 5683 236.999C5683 236.999 5700.17 156.853 5716.65 81.0369L5669.13 70.4995C5660.58 178.433 5642.18 244.968 5653.32 284.151C5655.81 303.263 5681.81 314.861 5687.69 316.499Z" fill="white" stroke="black" stroke-width="3" stroke-linecap="round" stroke-linejoin="round"/>
<path d="M5718.65 84.3714L5669.77 73.0836C5669.77 73.0836 5660.95 59.682 5662.7 49.7925C5664.48 39.7105 5680.17 28.9636 5690.41 29.1961C5698.11 29.371 5691.34 41.099 5691.34 41.099C5691.34 41.099 5709.14 31.6382 5716.12 32.9815C5723.17 34.3394 5721.51 49.0185 5721.51 49.0185C5726.43 47.4407 5736.64 46.2908 5738.31 47.5747C5745.13 52.8209 5741.66 67.0908 5732.14 77.1441C5728.03 81.4814 5718.65 84.3714 5718.65 84.3714Z" fill="#693875" stroke="black" stroke-width="3"/>
<path d="M5475.17 480.631L5428.01 490.5L5419.01 502C5419.01 502 5396.72 525.083 5414.01 529.5C5421.47 531.406 5432.07 526.761 5432.07 526.761C5432.07 526.761 5433.09 535.827 5443.34 540.874C5449.78 544.048 5463.13 516.883 5463.13 516.883C5463.13 516.883 5458.31 539.962 5475.32 532.547C5479.42 530.76 5488.33 517.502 5486.18 507.083C5484.02 496.664 5485.21 486.969 5475.17 480.631Z" fill="#693875" stroke="black" stroke-width="3"/>
<path d="M5371.2 251.5C5361.5 247.999 5356 288.998 5371.2 308.287C5378.5 316.242 5379.6 325.199 5386.2 337.787C5417.21 413.441 5410.04 415.025 5428.01 490.5L5475.44 480.723C5436.42 379.729 5421 314.999 5398.5 280.499C5397.46 280.281 5380.89 255.001 5371.2 251.5Z" fill="white" stroke="black" stroke-width="3" stroke-linecap="round" stroke-linejoin="round"/>
<path d="M6201.61 353.033H6175.11L6201.61 649.033H6250.61L6201.61 353.033Z" fill="white" stroke="black" stroke-width="3" stroke-linecap="round" stroke-linejoin="round"/>
<path d="M6251 649.034L6201.5 649.034C6201.5 649.034 6187.85 637.281 6187.32 627.253C6186.78 617.03 6189.61 606.195 6199.64 604.111C6207.18 602.543 6214.81 612.083 6214.81 612.083C6214.81 612.083 6220.78 599.692 6227.89 599.425C6235.07 599.155 6241.91 611.329 6241.91 611.329C6241.91 611.329 6247.58 604.543 6252.61 603.995C6256.87 603.531 6259.98 604.312 6263.08 607.264C6266.92 610.921 6266.43 622.472 6266.43 622.472C6266.43 622.472 6265.51 632.098 6261.77 638.143C6258.69 643.125 6251 649.034 6251 649.034Z" fill="#693875" stroke="black" stroke-width="3"/>
<path d="M6148.61 353.033H6175.11L6148.61 649.033H6099.61L6148.61 353.033Z" fill="white" stroke="black" stroke-width="3"/>
<path d="M6148.5 649.033L6099.5 649.033C6099.5 649.033 6086.07 637.741 6085.48 627.716C6084.88 617.496 6087.65 606.645 6097.66 604.502C6105.19 602.889 6112.88 612.384 6112.88 612.384C6112.88 612.384 6118.78 599.958 6125.88 599.65C6133.06 599.337 6139.98 611.472 6139.98 611.472C6139.98 611.472 6145.6 604.652 6150.64 604.074C6154.89 603.585 6158 604.348 6161.12 607.282C6164.99 610.916 6164.56 622.47 6164.56 622.47C6164.56 622.47 6163.7 632.102 6159.99 638.168C6156.94 643.168 6148.5 649.033 6148.5 649.033Z" fill="#693875" stroke="black" stroke-width="3"/>
<path d="M6325 330.532C6318.33 324.646 6326 286.033 6325 286.033C6324 286.033 6345 275.033 6355 261.033C6365 247.033 6372 232.033 6416.23 130.172L6459.28 152.893C6459.28 152.893 6387 279.407 6372 293.033C6357.73 305.992 6325 330.532 6325 330.532Z" fill="white" stroke="black" stroke-width="3" stroke-linecap="round" stroke-linejoin="round"/>
<path d="M6459 153.032L6416 131.032C6416 131.032 6409.25 115.751 6413.04 106.449C6416.89 96.9661 6434.5 89.7593 6444.46 92.1381C6451.95 93.9279 6442.86 103.97 6442.86 103.97C6442.86 103.97 6462.26 98.4625 6468.8 101.243C6475.41 104.054 6470.69 118.055 6470.69 118.055C6475.84 117.546 6486.07 118.57 6487.43 120.176C6492.99 126.738 6486.59 139.959 6475.17 147.786C6470.25 151.163 6459 153.032 6459 153.032Z" fill="#693875" stroke="black" stroke-width="3"/>
<path d="M5958.82 504.896L5911.47 495.917L5898.75 503.085C5898.75 503.085 5869.31 515.852 5883.58 526.564C5889.74 531.187 5901.31 530.962 5901.31 530.962C5901.31 530.962 5898.78 539.727 5906.31 548.319C5911.04 553.723 5933.79 533.755 5933.79 533.755C5933.79 533.755 5920.48 553.218 5939.04 552.897C5943.51 552.82 5956.83 543.994 5958.83 533.545C5960.84 523.097 5965.65 514.599 5958.82 504.896Z" fill="#693875" stroke="black" stroke-width="3"/>
<path d="M6016.24 266.854C6031.24 254.354 6031.13 313.266 6016.24 323.641C6008.94 331.596 6007.84 340.553 6001.24 353.141C5970.23 428.795 5977.4 430.378 5959.43 505.854L5912 496.077C5951.02 395.083 5963.24 327.141 5990.24 296.641C5999.5 283.4 6001.24 279.354 6016.24 266.854Z" fill="white" stroke="black" stroke-width="3" stroke-linecap="round" stroke-linejoin="round"/>
<circle cx="6102.5" cy="212.5" r="81.5" fill="white" stroke="black" stroke-width="3"/>
<circle cx="6102.39" cy="212.5" r="42.5" fill="#693875" stroke="black" stroke-width="3"/>
<circle cx="6255.5" cy="212.5" r="81.5" fill="white" stroke="black" stroke-width="3"/>
<circle cx="6255.39" cy="212.5" r="42.5" fill="#693875" stroke="black" stroke-width="3"/>
<path d="M6020.61 193.033H6336.61V353.033C6336.61 366.84 6325.41 378.033 6311.61 378.033H6045.61C6031.8 378.033 6020.61 366.84 6020.61 353.033V193.033Z" fill="white" stroke="black" stroke-width="3"/>
<rect x="6044.61" y="208.033" width="268" height="156" rx="25" fill="black" stroke="black" stroke-width="3"/>
<rect x="6052.5" y="226.033" width="120" height="120" stroke="black" stroke-width="3"/>
<circle cx="6112.5" cy="286.033" r="60" fill="white"/>
<rect x="6099" y="213.033" width="26" height="34" fill="black"/>
<rect x="6099" y="321.033" width="26" height="34" fill="black"/>
<rect x="6050" y="299.033" width="26" height="34" transform="rotate(-90 6050 299.033)" fill="black"/>
<rect x="6147" y="299.033" width="26" height="34" transform="rotate(-90 6147 299.033)" fill="black"/>
<circle cx="6112.5" cy="286.034" r="45.6" fill="black"/>
<rect width="26" height="34" transform="matrix(-0.707107 0.707107 0.707107 0.707107 6070.38 226.033)" fill="black"/>
<rect width="26" height="34" transform="matrix(-0.707107 0.707107 0.707107 0.707107 6148.38 304.033)" fill="black"/>
<rect x="6070.38" y="346.46" width="26" height="34" transform="rotate(-135 6070.38 346.46)" fill="black"/>
<rect x="6184.5" y="226.033" width="120" height="120" stroke="black" stroke-width="3"/>
<circle cx="6244.5" cy="286.033" r="60" fill="white"/>
<rect x="6232" y="221.033" width="26" height="34" fill="black"/>
<circle cx="6244.5" cy="286.034" r="45.6" fill="black"/>
<rect width="26" height="34" transform="matrix(-0.707107 0.707107 0.707107 0.707107 6280.38 304.033)" fill="black"/>
<rect x="6286.04" y="226.033" width="26" height="34" transform="rotate(45 6286.04 226.033)" fill="black"/>
<rect x="6208.04" y="304.033" width="26" height="34" transform="rotate(45 6208.04 304.033)" fill="black"/>
<rect x="6273" y="299.033" width="26" height="34" transform="rotate(-90 6273 299.033)" fill="black"/>
<rect x="6182" y="299.033" width="26" height="34" transform="rotate(-90 6182 299.033)" fill="black"/>
<rect x="6231" y="325.033" width="26" height="34" fill="black"/>
<g clip-path="url(#clip0_184_2551)">
<path d="M6851.61 352.999H6825.11L6851.61 648.999H6900.61L6851.61 352.999Z" fill="white" stroke="black" stroke-width="3" stroke-linecap="round" stroke-linejoin="round"/>
<path d="M6901 649L6851.5 649C6851.5 649 6837.85 637.247 6837.32 627.219C6836.78 616.996 6839.61 606.161 6849.64 604.077C6857.18 602.508 6864.81 612.049 6864.81 612.049C6864.81 612.049 6870.78 599.658 6877.89 599.391C6885.07 599.12 6891.91 611.295 6891.91 611.295C6891.91 611.295 6897.58 604.509 6902.61 603.96C6906.87 603.497 6909.98 604.278 6913.08 607.23C6916.92 610.886 6916.43 622.438 6916.43 622.438C6916.43 622.438 6915.51 632.064 6911.77 638.109C6908.69 643.091 6901 649 6901 649Z" fill="#693875" stroke="black" stroke-width="3"/>
<path d="M6798.61 352.999H6825.11L6798.61 648.999H6749.61L6798.61 352.999Z" fill="white" stroke="black" stroke-width="3"/>
<path d="M6798.5 648.999L6749.5 648.999C6749.5 648.999 6736.07 637.707 6735.48 627.682C6734.88 617.462 6737.65 606.611 6747.66 604.467C6755.19 602.855 6762.88 612.35 6762.88 612.35C6762.88 612.35 6768.78 599.924 6775.88 599.615C6783.06 599.303 6789.98 611.437 6789.98 611.437C6789.98 611.437 6795.6 604.618 6800.64 604.04C6804.89 603.551 6808 604.314 6811.12 607.248C6814.99 610.882 6814.56 622.436 6814.56 622.436C6814.56 622.436 6813.7 632.067 6809.99 638.134C6806.94 643.134 6798.5 648.999 6798.5 648.999Z" fill="#693875" stroke="black" stroke-width="3"/>
<path d="M7025.5 318.375C7000.5 312.499 6994.01 322.663 6977.5 320.999L6974.5 278.499C6974.5 278.499 6970.71 243.358 7055.93 284.142C7141.15 324.925 7125.29 350.821 7125.29 350.821L7082.37 381.985C7082.37 381.985 7102.19 336.4 7025.5 318.375Z" fill="white" stroke="black" stroke-width="3"/>
<path d="M7082.24 382.232L7125.36 350.495C7125.36 350.495 7141.37 355.881 7147.14 363.673C7153.03 371.617 7146.96 394.822 7139.15 402.357C7133.28 408.026 7133.59 390.076 7133.59 390.076C7133.59 390.076 7122.08 414.128 7115.91 418.49C7109.67 422.9 7105.4 407.545 7105.4 407.545C7102.86 412.273 7089.01 425.348 7086.84 425.76C7078 427.443 7077.43 410.833 7077.34 397.094C7077.31 391.166 7082.24 382.232 7082.24 382.232Z" fill="#693875" stroke="black" stroke-width="3"/>
<path d="M6603.82 373.852C6627.18 279.896 6671.11 256 6671.11 256V305.386C6671.11 305.386 6646.93 344.943 6639.82 414.807C6632.71 484.67 6634.61 519 6634.61 519L6585.34 512.977C6585.34 512.977 6583.45 455.761 6603.82 373.852Z" fill="white" stroke="black" stroke-width="3"/>
<path d="M6585.11 513L6634.61 519C6634.61 519 6646.39 531.713 6645.72 541.733C6645.03 551.948 6640.92 562.365 6630.72 563.233C6623.04 563.886 6616.61 553.5 6616.61 553.5C6616.61 553.5 6609.19 565.086 6602.11 564.5C6594.95 563.908 6589.61 551 6589.61 551C6589.61 551 6583.17 557.059 6578.11 557C6573.83 556.95 6570.84 555.802 6568.11 552.5C6564.73 548.409 6566.61 537 6566.61 537C6566.61 537 6568.67 527.553 6573.11 522C6576.77 517.423 6585.11 513 6585.11 513Z" fill="#693875" stroke="black" stroke-width="3"/>
<circle cx="6752.5" cy="204.5" r="81.5" fill="white" stroke="black" stroke-width="3"/>
<circle cx="6752.39" cy="204.5" r="42.5" fill="#693875" stroke="black" stroke-width="3"/>
<circle cx="6905.5" cy="204.5" r="81.5" fill="white" stroke="black" stroke-width="3"/>
<circle cx="6905.39" cy="204.5" r="42.5" fill="#693875" stroke="black" stroke-width="3"/>
<path d="M6670.61 202H6986.61V362C6986.61 375.807 6975.41 387 6961.61 387H6695.61C6681.8 387 6670.61 375.807 6670.61 362V202Z" fill="white" stroke="black" stroke-width="3"/>
<rect x="6694.61" y="217" width="268" height="156" rx="25" fill="black" stroke="black" stroke-width="3"/>
<rect x="6702.5" y="235" width="120" height="120" stroke="black" stroke-width="3"/>
<circle cx="6762.5" cy="295" r="60" fill="white"/>
<rect x="6749" y="222" width="26" height="34" fill="black"/>
<rect x="6749" y="330" width="26" height="34" fill="black"/>
<rect x="6700" y="308" width="26" height="34" transform="rotate(-90 6700 308)" fill="black"/>
<rect x="6797" y="308" width="26" height="34" transform="rotate(-90 6797 308)" fill="black"/>
<circle cx="6762.5" cy="295" r="45.6" fill="black"/>
<rect width="26" height="34" transform="matrix(-0.707107 0.707107 0.707107 0.707107 6720.38 235)" fill="black"/>
<rect width="26" height="34" transform="matrix(-0.707107 0.707107 0.707107 0.707107 6798.38 313)" fill="black"/>
<rect x="6720.38" y="355.427" width="26" height="34" transform="rotate(-135 6720.38 355.427)" fill="black"/>
<rect x="6798.38" y="277.427" width="26" height="34" transform="rotate(-135 6798.38 277.427)" fill="black"/>
<rect x="6834.5" y="235" width="120" height="120" stroke="black" stroke-width="3"/>
<circle cx="6894.5" cy="295" r="60" fill="white"/>
<rect x="6882" y="230" width="26" height="34" fill="black"/>
<circle cx="6894.5" cy="295" r="45.6" fill="black"/>
<rect width="26" height="34" transform="matrix(-0.707107 0.707107 0.707107 0.707107 6930.38 313)" fill="black"/>
<rect width="26" height="34" transform="matrix(-0.707107 0.707107 0.707107 0.707107 6852.38 235)" fill="black"/>
<rect x="6936.04" y="235" width="26" height="34" transform="rotate(45 6936.04 235)" fill="black"/>
<rect x="6858.04" y="313" width="26" height="34" transform="rotate(45 6858.04 313)" fill="black"/>
<rect x="6923" y="308" width="26" height="34" transform="rotate(-90 6923 308)" fill="black"/>
<rect x="6832" y="308" width="26" height="34" transform="rotate(-90 6832 308)" fill="black"/>
<rect x="6881" y="334" width="26" height="34" fill="black"/>
</g>
<path d="M7501.61 352.999H7475.11L7501.61 648.999H7550.61L7501.61 352.999Z" fill="white" stroke="black" stroke-width="3" stroke-linecap="round" stroke-linejoin="round"/>
<path d="M7551 649L7501.5 649C7501.5 649 7487.85 637.247 7487.32 627.219C7486.78 616.996 7489.61 606.161 7499.64 604.077C7507.18 602.508 7514.81 612.049 7514.81 612.049C7514.81 612.049 7520.78 599.658 7527.89 599.391C7535.07 599.12 7541.91 611.295 7541.91 611.295C7541.91 611.295 7547.58 604.509 7552.61 603.96C7556.87 603.497 7559.98 604.278 7563.08 607.23C7566.92 610.886 7566.43 622.438 7566.43 622.438C7566.43 622.438 7565.51 632.064 7561.77 638.109C7558.69 643.091 7551 649 7551 649Z" fill="#693875" stroke="black" stroke-width="3"/>
<path d="M7448.61 352.999H7475.11L7448.61 648.999H7399.61L7448.61 352.999Z" fill="white" stroke="black" stroke-width="3"/>
<path d="M7448.5 648.999L7399.5 648.999C7399.5 648.999 7386.07 637.707 7385.48 627.682C7384.88 617.462 7387.65 606.611 7397.66 604.467C7405.19 602.855 7412.88 612.35 7412.88 612.35C7412.88 612.35 7418.78 599.924 7425.88 599.615C7433.06 599.303 7439.98 611.437 7439.98 611.437C7439.98 611.437 7445.6 604.618 7450.64 604.04C7454.89 603.551 7458 604.314 7461.12 607.248C7464.99 610.882 7464.56 622.436 7464.56 622.436C7464.56 622.436 7463.7 632.067 7459.99 638.134C7456.94 643.134 7448.5 648.999 7448.5 648.999Z" fill="#693875" stroke="black" stroke-width="3"/>
<circle cx="7402.5" cy="204.5" r="81.5" fill="white" stroke="black" stroke-width="3"/>
<circle cx="7402.39" cy="204.5" r="42.5" fill="#693875" stroke="black" stroke-width="3"/>
<circle cx="7555.5" cy="204.5" r="81.5" fill="white" stroke="black" stroke-width="3"/>
<circle cx="7555.39" cy="204.5" r="42.5" fill="#693875" stroke="black" stroke-width="3"/>
<path d="M7320.61 193H7636.61V353C7636.61 366.807 7625.41 378 7611.61 378H7345.61C7331.8 378 7320.61 366.807 7320.61 353V193Z" fill="white" stroke="black" stroke-width="3"/>
<rect x="7344.61" y="208" width="268" height="156" rx="25" fill="black" stroke="black" stroke-width="3"/>
<rect x="7352.5" y="226" width="120" height="120" stroke="black" stroke-width="3"/>
<circle cx="7412.5" cy="286" r="60" fill="white"/>
<circle cx="7412.5" cy="286" r="45.6" fill="black"/>
<rect x="7484.5" y="226" width="120" height="120" stroke="black" stroke-width="3"/>
<circle cx="7544.5" cy="286" r="60" fill="white"/>
<circle cx="7544.5" cy="286" r="45.6" fill="black"/>
<path d="M7722.35 373.5C7698.99 279.543 7636.59 255 7636.59 255V304.386C7636.59 304.386 7678.59 326.636 7685.7 396.5C7692.8 466.364 7640.7 480 7640.7 480L7685.7 515.5C7685.7 515.5 7742.72 455.409 7722.35 373.5Z" fill="white" stroke="black" stroke-width="3"/>
<path d="M7685.17 515.624L7640.7 479.5L7618.7 479.5C7618.7 479.5 7593.11 487.446 7603.2 500.5C7607.91 506.594 7625.2 514 7625.2 514C7625.2 514 7621.18 529.519 7626.7 534C7632.27 538.529 7652.7 530.426 7652.7 530.426C7652.7 530.426 7635.7 541 7650.7 550.5C7654.31 552.791 7646.44 550.996 7650.7 550.5C7655.96 549.885 7669.98 548.816 7677.2 541C7684.41 533.184 7685.86 527.475 7685.17 515.624Z" fill="#693875"/>
<path d="M7650.7 550.5C7655.96 549.885 7669.98 548.816 7677.2 541C7684.41 533.184 7685.86 527.475 7685.17 515.624L7640.7 479.5L7618.7 479.5C7618.7 479.5 7593.11 487.446 7603.2 500.5C7607.91 506.594 7625.2 514 7625.2 514C7625.2 514 7621.18 529.519 7626.7 534C7632.27 538.529 7652.7 530.426 7652.7 530.426C7652.7 530.426 7635.7 541 7650.7 550.5ZM7650.7 550.5C7654.31 552.791 7646.44 550.996 7650.7 550.5Z" stroke="black" stroke-width="3"/>
<path d="M7253.82 373.852C7277.18 279.896 7321.11 256 7321.11 256V305.386C7321.11 305.386 7296.93 344.943 7289.82 414.807C7282.71 484.67 7284.61 519 7284.61 519L7235.34 512.977C7235.34 512.977 7233.45 455.761 7253.82 373.852Z" fill="white" stroke="black" stroke-width="3"/>
<path d="M7235.11 513L7284.61 519C7284.61 519 7296.39 531.713 7295.72 541.733C7295.03 551.948 7290.92 562.365 7280.72 563.233C7273.04 563.886 7266.61 553.5 7266.61 553.5C7266.61 553.5 7259.19 565.086 7252.11 564.5C7244.95 563.908 7239.61 551 7239.61 551C7239.61 551 7233.17 557.059 7228.11 557C7223.83 556.95 7220.84 555.802 7218.11 552.5C7214.73 548.409 7216.61 537 7216.61 537C7216.61 537 7218.67 527.553 7223.11 522C7226.77 517.423 7235.11 513 7235.11 513Z" fill="#693875" stroke="black" stroke-width="3"/>
<path d="M8151.5 352.996H8125L8151.5 648.996H8200.5L8151.5 352.996Z" fill="white" stroke="black" stroke-width="3" stroke-linecap="round" stroke-linejoin="round"/>
<path d="M8200.89 648.996L8151.39 648.996C8151.39 648.996 8137.74 637.243 8137.21 627.215C8136.67 616.992 8139.5 606.157 8149.53 604.073C8157.07 602.505 8164.7 612.045 8164.7 612.045C8164.7 612.045 8170.68 599.654 8177.78 599.387C8184.96 599.116 8191.81 611.291 8191.81 611.291C8191.81 611.291 8197.47 604.505 8202.5 603.956C8206.76 603.493 8209.87 604.274 8212.97 607.226C8216.81 610.882 8216.32 622.434 8216.32 622.434C8216.32 622.434 8215.4 632.06 8211.66 638.105C8208.58 643.087 8200.89 648.996 8200.89 648.996Z" fill="#693875" stroke="black" stroke-width="3"/>
<path d="M8098.5 352.996H8125L8098.5 648.996H8049.5L8098.5 352.996Z" fill="white" stroke="black" stroke-width="3"/>
<path d="M8098.39 648.996L8049.39 648.996C8049.39 648.996 8035.96 637.704 8035.37 627.679C8034.77 617.459 8037.54 606.608 8047.55 604.464C8055.08 602.852 8062.77 612.347 8062.77 612.347C8062.77 612.347 8068.67 599.921 8075.77 599.612C8082.95 599.3 8089.87 611.435 8089.87 611.435C8089.87 611.435 8095.49 604.615 8100.53 604.037C8104.78 603.548 8107.89 604.311 8111.01 607.245C8114.88 610.879 8114.45 622.433 8114.45 622.433C8114.45 622.433 8113.59 632.065 8109.89 638.131C8106.83 643.131 8098.39 648.996 8098.39 648.996Z" fill="#693875" stroke="black" stroke-width="3"/>
<path d="M7899.71 353.848C7923.07 259.892 7967 235.996 7967 235.996V285.382C7967 285.382 7942.82 324.939 7935.71 394.803C7928.6 464.667 7930.5 498.996 7930.5 498.996L7881.23 492.973C7881.23 492.973 7879.34 435.757 7899.71 353.848Z" fill="white" stroke="black" stroke-width="3"/>
<path d="M7881 492.996L7930.5 498.996C7930.5 498.996 7942.28 511.709 7941.61 521.729C7940.92 531.944 7936.81 542.361 7926.61 543.229C7918.93 543.882 7912.5 533.496 7912.5 533.496C7912.5 533.496 7905.08 545.082 7898 544.496C7890.84 543.904 7885.5 530.996 7885.5 530.996C7885.5 530.996 7879.07 537.055 7874 536.996C7869.72 536.946 7866.73 535.798 7864 532.496C7860.62 528.405 7862.5 516.996 7862.5 516.996C7862.5 516.996 7864.56 507.549 7869 501.996C7872.66 497.419 7881 492.996 7881 492.996Z" fill="#693875" stroke="black" stroke-width="3"/>
<path d="M8350.29 353.848C8326.93 259.892 8283 235.996 8283 235.996V285.382C8283 285.382 8307.18 324.939 8314.29 394.803C8321.4 464.667 8319.5 498.996 8319.5 498.996L8368.77 492.973C8368.77 492.973 8370.66 435.757 8350.29 353.848Z" fill="white" stroke="black" stroke-width="3"/>
<path d="M8369 492.996L8319.5 498.996C8319.5 498.996 8307.72 511.709 8308.39 521.729C8309.08 531.944 8313.19 542.361 8323.39 543.229C8331.07 543.882 8337.5 533.496 8337.5 533.496C8337.5 533.496 8344.92 545.082 8352 544.496C8359.16 543.904 8364.5 530.996 8364.5 530.996C8364.5 530.996 8370.93 537.055 8376 536.996C8380.28 536.946 8383.27 535.798 8386 532.496C8389.38 528.405 8387.5 516.996 8387.5 516.996C8387.5 516.996 8385.44 507.549 8381 501.996C8377.34 497.419 8369 492.996 8369 492.996Z" fill="#693875" stroke="black" stroke-width="3"/>
<circle cx="8048.5" cy="170.496" r="81.5" fill="white" stroke="black" stroke-width="3"/>
<circle cx="8048.39" cy="170.496" r="42.5" fill="#693875" stroke="black" stroke-width="3"/>
<circle cx="8201.5" cy="170.496" r="81.5" fill="white" stroke="black" stroke-width="3"/>
<circle cx="8201.39" cy="170.496" r="42.5" fill="#693875" stroke="black" stroke-width="3"/>
<path d="M7967 167.996H8283V327.996C8283 341.803 8271.81 352.996 8258 352.996H7992C7978.19 352.996 7967 341.803 7967 327.996V167.996Z" fill="white" stroke="black" stroke-width="3"/>
<rect x="7991" y="182.996" width="268" height="156" rx="25" fill="black" stroke="black" stroke-width="3"/>
<ellipse cx="8058.89" cy="272.501" rx="55" ry="56.4682" fill="white" stroke="black" stroke-width="3"/>
<ellipse cx="8058.89" cy="272.502" rx="41.8" ry="42.9158" fill="black" stroke="black" stroke-width="3"/>
<ellipse cx="8190.89" cy="272.501" rx="55" ry="56.4682" fill="white" stroke="black" stroke-width="3"/>
<ellipse cx="8190.89" cy="272.502" rx="41.8" ry="42.9158" fill="black" stroke="black" stroke-width="3"/>
<path d="M8801.5 352.996H8775L8801.5 648.996H8850.5L8801.5 352.996Z" fill="white" stroke="black" stroke-width="3" stroke-linecap="round" stroke-linejoin="round"/>
<path d="M8850.89 648.996L8801.39 648.996C8801.39 648.996 8787.74 637.243 8787.21 627.215C8786.67 616.992 8789.5 606.157 8799.53 604.073C8807.07 602.505 8814.7 612.045 8814.7 612.045C8814.7 612.045 8820.68 599.654 8827.78 599.387C8834.96 599.116 8841.81 611.291 8841.81 611.291C8841.81 611.291 8847.47 604.505 8852.5 603.956C8856.76 603.493 8859.87 604.274 8862.97 607.226C8866.81 610.882 8866.32 622.434 8866.32 622.434C8866.32 622.434 8865.4 632.06 8861.66 638.105C8858.58 643.087 8850.89 648.996 8850.89 648.996Z" fill="#693875" stroke="black" stroke-width="3"/>
<path d="M8748.5 352.996H8775L8748.5 648.996H8699.5L8748.5 352.996Z" fill="white" stroke="black" stroke-width="3"/>
<path d="M8748.39 648.996L8699.39 648.996C8699.39 648.996 8685.96 637.704 8685.37 627.679C8684.77 617.459 8687.54 606.608 8697.55 604.464C8705.08 602.852 8712.77 612.347 8712.77 612.347C8712.77 612.347 8718.67 599.921 8725.77 599.612C8732.95 599.3 8739.87 611.435 8739.87 611.435C8739.87 611.435 8745.49 604.615 8750.53 604.037C8754.78 603.548 8757.89 604.311 8761.01 607.245C8764.88 610.879 8764.45 622.433 8764.45 622.433C8764.45 622.433 8763.59 632.065 8759.89 638.131C8756.83 643.131 8748.39 648.996 8748.39 648.996Z" fill="#693875" stroke="black" stroke-width="3"/>
<path d="M8549.71 353.848C8573.07 259.892 8617 235.996 8617 235.996V285.382C8617 285.382 8592.82 324.939 8585.71 394.803C8578.6 464.667 8580.5 498.996 8580.5 498.996L8531.23 492.973C8531.23 492.973 8529.34 435.757 8549.71 353.848Z" fill="white" stroke="black" stroke-width="3"/>
<path d="M8531 492.996L8580.5 498.996C8580.5 498.996 8592.28 511.709 8591.61 521.729C8590.92 531.944 8586.81 542.361 8576.61 543.229C8568.93 543.882 8562.5 533.496 8562.5 533.496C8562.5 533.496 8555.08 545.082 8548 544.496C8540.84 543.904 8535.5 530.996 8535.5 530.996C8535.5 530.996 8529.07 537.055 8524 536.996C8519.72 536.946 8516.73 535.798 8514 532.496C8510.62 528.405 8512.5 516.996 8512.5 516.996C8512.5 516.996 8514.56 507.549 8519 501.996C8522.66 497.419 8531 492.996 8531 492.996Z" fill="#693875" stroke="black" stroke-width="3"/>
<path d="M9000.29 353.848C8976.93 259.892 8933 235.996 8933 235.996V285.382C8933 285.382 8957.18 324.939 8964.29 394.803C8971.4 464.667 8969.5 498.996 8969.5 498.996L9018.77 492.973C9018.77 492.973 9020.66 435.757 9000.29 353.848Z" fill="white" stroke="black" stroke-width="3"/>
<path d="M9019 492.996L8969.5 498.996C8969.5 498.996 8957.72 511.709 8958.39 521.729C8959.08 531.944 8963.19 542.361 8973.39 543.229C8981.07 543.882 8987.5 533.496 8987.5 533.496C8987.5 533.496 8994.92 545.082 9002 544.496C9009.16 543.904 9014.5 530.996 9014.5 530.996C9014.5 530.996 9020.93 537.055 9026 536.996C9030.28 536.946 9033.27 535.798 9036 532.496C9039.38 528.405 9037.5 516.996 9037.5 516.996C9037.5 516.996 9035.44 507.549 9031 501.996C9027.34 497.419 9019 492.996 9019 492.996Z" fill="#693875" stroke="black" stroke-width="3"/>
<circle cx="8698.5" cy="170.496" r="81.5" fill="white" stroke="black" stroke-width="3"/>
<circle cx="8698.39" cy="170.496" r="42.5" fill="#693875" stroke="black" stroke-width="3"/>
<circle cx="8851.5" cy="170.496" r="81.5" fill="white" stroke="black" stroke-width="3"/>
<circle cx="8851.39" cy="170.496" r="42.5" fill="#693875" stroke="black" stroke-width="3"/>
<path d="M8617 167.996H8933V327.996C8933 341.803 8921.81 352.996 8908 352.996H8642C8628.19 352.996 8617 341.803 8617 327.996V167.996Z" fill="white" stroke="black" stroke-width="3"/>
<rect x="8641" y="182.996" width="268" height="156" rx="25" fill="black" stroke="black" stroke-width="3"/>
<rect x="8659" y="210.996" width="100" height="100" stroke="black" stroke-width="3"/>
<circle cx="8709" cy="260.996" r="50" fill="white"/>
<circle cx="8709" cy="260.996" r="38" fill="black"/>
<rect x="8791" y="210.996" width="100" height="100" stroke="black" stroke-width="3"/>
<circle cx="8841" cy="260.996" r="50" fill="white"/>
<circle cx="8841" cy="260.996" r="38" fill="black"/>
<defs>
<clipPath id="clip0_184_2551">
<rect width="650" height="650" fill="white" transform="translate(6500)"/>
</clipPath>
</defs>
</svg>
