<svg width="7150" height="651" viewBox="0 0 7150 651" fill="none" xmlns="http://www.w3.org/2000/svg">
<path d="M351.5 352.996H325L351.5 648.996H400.5L351.5 352.996Z" fill="white" stroke="black" stroke-width="3" stroke-linecap="round" stroke-linejoin="round"/>
<path d="M400.891 648.996L351.391 648.996C351.391 648.996 337.744 637.243 337.211 627.215C336.667 616.992 339.503 606.157 349.526 604.073C357.067 602.505 364.7 612.045 364.7 612.045C364.7 612.045 370.675 599.654 377.777 599.387C384.957 599.116 391.805 611.291 391.805 611.291C391.805 611.291 397.467 604.505 402.503 603.956C406.76 603.493 409.868 604.274 412.97 607.226C416.813 610.882 416.317 622.434 416.317 622.434C416.317 622.434 415.4 632.06 411.661 638.105C408.58 643.087 400.891 648.996 400.891 648.996Z" fill="#693875" stroke="black" stroke-width="3"/>
<path d="M298.5 352.996H325L298.5 648.996H249.5L298.5 352.996Z" fill="white" stroke="black" stroke-width="3"/>
<path d="M298.391 648.996L249.391 648.996C249.391 648.996 235.964 637.704 235.372 627.679C234.769 617.459 237.54 606.608 247.551 604.464C255.083 602.852 262.771 612.347 262.771 612.347C262.771 612.347 268.673 599.921 275.774 599.612C282.952 599.3 289.872 611.435 289.872 611.435C289.872 611.435 295.494 604.615 300.526 604.037C304.781 603.548 307.893 604.311 311.013 607.245C314.877 610.879 314.449 622.433 314.449 622.433C314.449 622.433 313.588 632.065 309.885 638.131C306.833 643.131 298.391 648.996 298.391 648.996Z" fill="#693875" stroke="black" stroke-width="3"/>
<circle cx="248.5" cy="170.496" r="81.5" fill="white" stroke="black" stroke-width="3"/>
<circle cx="248.391" cy="170.496" r="42.5" fill="#693875" stroke="black" stroke-width="3"/>
<circle cx="401.5" cy="170.496" r="81.5" fill="white" stroke="black" stroke-width="3"/>
<circle cx="401.391" cy="170.496" r="42.5" fill="#693875" stroke="black" stroke-width="3"/>
<path d="M167 167.996H483V327.996C483 341.803 471.807 352.996 458 352.996H192C178.193 352.996 167 341.803 167 327.996V167.996Z" fill="white" stroke="black" stroke-width="3"/>
<rect x="191" y="182.996" width="268" height="156" rx="25" fill="black" stroke="black" stroke-width="3"/>
<rect x="209" y="210.996" width="100" height="100" stroke="black" stroke-width="3"/>
<circle cx="259" cy="260.996" r="50" fill="white"/>
<circle cx="259" cy="260.996" r="38" fill="black"/>
<rect x="341" y="210.996" width="100" height="100" stroke="black" stroke-width="3"/>
<circle cx="391" cy="260.996" r="50" fill="white"/>
<circle cx="391" cy="260.996" r="38" fill="black"/>
<path d="M99.7074 353.848C123.074 259.892 166.999 235.996 166.999 235.996V285.382C166.999 285.382 142.816 324.939 135.71 394.803C128.604 464.667 130.499 498.996 130.499 498.996L81.2322 492.973C81.2322 492.973 79.3373 435.757 99.7074 353.848Z" fill="white" stroke="black" stroke-width="3"/>
<path d="M80.9996 492.996L130.5 498.996C130.5 498.996 142.281 511.709 141.609 521.729C140.923 531.944 136.81 542.361 126.609 543.229C118.934 543.882 112.5 533.496 112.5 533.496C112.5 533.496 105.083 545.082 97.9996 544.496C90.8391 543.904 85.4996 530.996 85.4996 530.996C85.4996 530.996 79.0648 537.055 73.9996 536.996C69.7175 536.946 66.7258 535.798 63.9996 532.496C60.6228 528.405 62.4996 516.996 62.4996 516.996C62.4996 516.996 64.5633 507.549 68.9996 501.996C72.656 497.419 80.9996 492.996 80.9996 492.996Z" fill="#693875" stroke="black" stroke-width="3"/>
<path d="M550.292 353.848C526.925 259.892 483 235.996 483 235.996V285.382C483 285.382 507.183 324.939 514.289 394.803C521.395 464.667 519.5 498.996 519.5 498.996L568.767 492.973C568.767 492.973 570.662 435.757 550.292 353.848Z" fill="white" stroke="black" stroke-width="3"/>
<path d="M568.999 492.996L519.499 498.996C519.499 498.996 507.718 511.709 508.39 521.729C509.076 531.944 513.189 542.361 523.39 543.229C531.065 543.882 537.499 533.496 537.499 533.496C537.499 533.496 544.916 545.082 551.999 544.496C559.16 543.904 564.499 530.996 564.499 530.996C564.499 530.996 570.934 537.055 575.999 536.996C580.282 536.946 583.273 535.798 585.999 532.496C589.376 528.405 587.499 516.996 587.499 516.996C587.499 516.996 585.436 507.549 580.999 501.996C577.343 497.419 568.999 492.996 568.999 492.996Z" fill="#693875" stroke="black" stroke-width="3"/>
<path d="M1003.76 352.996H977.262L1003.76 648.996H1052.76L1003.76 352.996Z" fill="white" stroke="black" stroke-width="3" stroke-linecap="round" stroke-linejoin="round"/>
<path d="M1053.15 648.996L1003.65 648.996C1003.65 648.996 990.005 637.243 989.473 627.215C988.929 616.992 991.765 606.157 1001.79 604.073C1009.33 602.505 1016.96 612.045 1016.96 612.045C1016.96 612.045 1022.94 599.654 1030.04 599.387C1037.22 599.116 1044.07 611.291 1044.07 611.291C1044.07 611.291 1049.73 604.505 1054.76 603.956C1059.02 603.493 1062.13 604.274 1065.23 607.226C1069.07 610.882 1068.58 622.434 1068.58 622.434C1068.58 622.434 1067.66 632.06 1063.92 638.105C1060.84 643.087 1053.15 648.996 1053.15 648.996Z" fill="#693875" stroke="black" stroke-width="3"/>
<path d="M950.762 352.996H977.262L950.762 648.996H901.762L950.762 352.996Z" fill="white" stroke="black" stroke-width="3"/>
<path d="M950.653 648.996L901.653 648.996C901.653 648.996 888.226 637.704 887.634 627.679C887.03 617.459 889.802 606.608 899.813 604.464C907.345 602.852 915.033 612.347 915.033 612.347C915.033 612.347 920.935 599.921 928.036 599.612C935.214 599.3 942.133 611.435 942.133 611.435C942.133 611.435 947.756 604.615 952.788 604.037C957.043 603.548 960.155 604.311 963.274 607.245C967.139 610.879 966.71 622.433 966.71 622.433C966.71 622.433 965.85 632.065 962.147 638.131C959.095 643.131 950.653 648.996 950.653 648.996Z" fill="#693875" stroke="black" stroke-width="3"/>
<path d="M733.494 378.496C756.86 284.539 819.262 259.996 819.262 259.996V309.382C819.262 309.382 777.258 331.632 770.152 401.496C763.047 471.36 815.153 484.996 815.153 484.996L770.152 520.496C770.152 520.496 713.124 460.405 733.494 378.496Z" fill="white" stroke="black" stroke-width="3"/>
<path d="M770.678 520.62L815.152 484.496L837.152 484.496C837.152 484.496 862.74 492.442 852.652 505.496C847.942 511.591 830.652 518.996 830.652 518.996C830.652 518.996 834.669 534.515 829.152 538.996C823.574 543.526 803.152 535.422 803.152 535.422C803.152 535.422 820.152 545.996 805.152 555.496C801.534 557.787 809.406 555.992 805.152 555.496C799.884 554.881 785.87 553.812 778.652 545.996C771.434 538.18 769.99 532.471 770.678 520.62Z" fill="#693875"/>
<path d="M805.152 555.496C799.884 554.881 785.87 553.812 778.652 545.996C771.434 538.18 769.99 532.471 770.678 520.62L815.152 484.496L837.152 484.496C837.152 484.496 862.74 492.442 852.652 505.496C847.942 511.591 830.652 518.996 830.652 518.996C830.652 518.996 834.669 534.515 829.152 538.996C823.574 543.526 803.152 535.422 803.152 535.422C803.152 535.422 820.152 545.996 805.152 555.496ZM805.152 555.496C801.534 557.787 809.406 555.992 805.152 555.496Z" stroke="black" stroke-width="3"/>
<path d="M1216.51 380.496C1193.14 286.539 1130.74 261.996 1130.74 261.996V311.382C1130.74 311.382 1172.74 333.632 1179.85 403.496C1186.95 473.36 1134.85 486.996 1134.85 486.996L1179.85 522.496C1179.85 522.496 1236.88 462.405 1216.51 380.496Z" fill="white" stroke="black" stroke-width="3"/>
<path d="M1179.32 522.62L1134.85 486.496L1112.85 486.496C1112.85 486.496 1087.26 494.442 1097.35 507.496C1102.06 513.591 1119.35 520.996 1119.35 520.996C1119.35 520.996 1115.33 536.515 1120.85 540.996C1126.43 545.526 1146.85 537.422 1146.85 537.422C1146.85 537.422 1129.85 547.996 1144.85 557.496C1148.47 559.787 1140.59 557.992 1144.85 557.496C1150.12 556.881 1164.13 555.812 1171.35 547.996C1178.57 540.18 1180.01 534.471 1179.32 522.62Z" fill="#693875"/>
<path d="M1144.85 557.496C1150.12 556.881 1164.13 555.812 1171.35 547.996C1178.57 540.18 1180.01 534.471 1179.32 522.62L1134.85 486.496L1112.85 486.496C1112.85 486.496 1087.26 494.442 1097.35 507.496C1102.06 513.591 1119.35 520.996 1119.35 520.996C1119.35 520.996 1115.33 536.515 1120.85 540.996C1126.43 545.526 1146.85 537.422 1146.85 537.422C1146.85 537.422 1129.85 547.996 1144.85 557.496ZM1144.85 557.496C1148.47 559.787 1140.59 557.992 1144.85 557.496Z" stroke="black" stroke-width="3"/>
<circle cx="900.761" cy="194.496" r="81.5" fill="white" stroke="black" stroke-width="3"/>
<circle cx="900.652" cy="194.496" r="42.5" fill="#693875" stroke="black" stroke-width="3"/>
<circle cx="1053.76" cy="194.496" r="81.5" fill="white" stroke="black" stroke-width="3"/>
<circle cx="1053.65" cy="194.496" r="42.5" fill="#693875" stroke="black" stroke-width="3"/>
<path d="M819.261 191.996H1135.26V351.996C1135.26 365.803 1124.07 376.996 1110.26 376.996H844.261C830.454 376.996 819.261 365.803 819.261 351.996V191.996Z" fill="white" stroke="black" stroke-width="3"/>
<rect x="843.261" y="206.996" width="268" height="156" rx="25" fill="black" stroke="black" stroke-width="3"/>
<rect x="861.261" y="234.996" width="100" height="100" stroke="black" stroke-width="3"/>
<circle cx="911.261" cy="284.996" r="50" fill="white"/>
<circle cx="911.261" cy="284.996" r="38" fill="black"/>
<path d="M904.245 219.996C901.213 225.82 899.357 232.184 898.784 238.725C898.211 245.266 898.931 251.856 900.905 258.119C902.879 264.381 906.067 270.194 910.287 275.224C914.506 280.254 919.676 284.404 925.5 287.437C931.324 290.47 937.688 292.326 944.229 292.899C950.77 293.472 957.36 292.751 963.622 290.777C969.884 288.804 975.697 285.616 980.727 281.396C985.758 277.176 989.908 272.006 992.94 266.183L948.593 243.09L904.245 219.996Z" fill="black"/>
<rect x="993.261" y="234.996" width="100" height="100" stroke="black" stroke-width="3"/>
<circle cx="1043.26" cy="284.996" r="50" fill="white"/>
<circle cx="1043.26" cy="284.996" r="38" fill="black"/>
<path d="M1058.85 219.996C1061.88 225.82 1063.74 232.184 1064.31 238.725C1064.88 245.266 1064.16 251.856 1062.19 258.119C1060.21 264.381 1057.03 270.194 1052.81 275.224C1048.59 280.254 1043.42 284.404 1037.59 287.437C1031.77 290.47 1025.41 292.326 1018.86 292.899C1012.32 293.472 1005.73 292.751 999.471 290.777C993.208 288.804 987.396 285.616 982.365 281.396C977.335 277.176 973.185 272.006 970.152 266.183L1014.5 243.09L1058.85 219.996Z" fill="black"/>
<path d="M1652.02 352.996H1625.52L1652.02 648.996H1701.02L1652.02 352.996Z" fill="white" stroke="black" stroke-width="3" stroke-linecap="round" stroke-linejoin="round"/>
<path d="M1701.41 648.996L1651.91 648.996C1651.91 648.996 1638.26 637.243 1637.73 627.215C1637.19 616.992 1640.02 606.157 1650.05 604.073C1657.59 602.505 1665.22 612.045 1665.22 612.045C1665.22 612.045 1671.19 599.654 1678.3 599.387C1685.48 599.116 1692.32 611.291 1692.32 611.291C1692.32 611.291 1697.99 604.505 1703.02 603.956C1707.28 603.493 1710.39 604.274 1713.49 607.226C1717.33 610.882 1716.84 622.434 1716.84 622.434C1716.84 622.434 1715.92 632.06 1712.18 638.105C1709.1 643.087 1701.41 648.996 1701.41 648.996Z" fill="#693875" stroke="black" stroke-width="3"/>
<path d="M1599.02 352.996H1625.52L1599.02 648.996H1550.02L1599.02 352.996Z" fill="white" stroke="black" stroke-width="3"/>
<path d="M1598.91 648.996L1549.91 648.996C1549.91 648.996 1536.48 637.704 1535.89 627.679C1535.29 617.459 1538.06 606.608 1548.07 604.464C1555.6 602.852 1563.29 612.347 1563.29 612.347C1563.29 612.347 1569.19 599.921 1576.29 599.612C1583.47 599.3 1590.39 611.435 1590.39 611.435C1590.39 611.435 1596.01 604.615 1601.05 604.037C1605.3 603.548 1608.41 604.311 1611.53 607.245C1615.4 610.879 1614.97 622.433 1614.97 622.433C1614.97 622.433 1614.11 632.065 1610.4 638.131C1607.35 643.131 1598.91 648.996 1598.91 648.996Z" fill="#693875" stroke="black" stroke-width="3"/>
<circle cx="1548.44" cy="207.496" r="81.5" fill="white" stroke="black" stroke-width="3"/>
<circle cx="1548.33" cy="207.496" r="42.5" fill="#693875" stroke="black" stroke-width="3"/>
<circle cx="1701.44" cy="207.496" r="81.5" fill="white" stroke="black" stroke-width="3"/>
<circle cx="1701.33" cy="207.496" r="42.5" fill="#693875" stroke="black" stroke-width="3"/>
<path d="M1466.94 204.996H1782.94V364.996C1782.94 378.803 1771.75 389.996 1757.94 389.996H1491.94C1478.13 389.996 1466.94 378.803 1466.94 364.996V204.996Z" fill="white" stroke="black" stroke-width="3"/>
<rect x="1490.94" y="219.996" width="268" height="156" rx="25" fill="black" stroke="black" stroke-width="3"/>
<rect x="1508.94" y="247.996" width="100" height="100" stroke="black" stroke-width="3"/>
<circle cx="1558.94" cy="297.996" r="50" fill="white"/>
<circle cx="1558.94" cy="297.996" r="38" fill="black"/>
<path d="M1536.54 226.996C1532.9 233.985 1530.68 241.622 1529.99 249.471C1529.3 257.32 1530.17 265.228 1532.54 272.743C1534.9 280.258 1538.73 287.233 1543.79 293.27C1548.86 299.306 1555.06 304.286 1562.05 307.925C1569.04 311.564 1576.67 313.791 1584.52 314.479C1592.37 315.167 1600.28 314.302 1607.8 311.934C1615.31 309.565 1622.29 305.74 1628.32 300.676C1634.36 295.612 1639.34 289.408 1642.98 282.42L1589.76 254.708L1536.54 226.996Z" fill="black"/>
<rect x="1640.94" y="247.996" width="100" height="100" stroke="black" stroke-width="3"/>
<circle cx="1690.94" cy="297.996" r="50" fill="white"/>
<circle cx="1690.94" cy="297.996" r="38" fill="black"/>
<path d="M1706.53 232.996C1709.56 238.82 1711.42 245.184 1711.99 251.725C1712.56 258.266 1711.84 264.856 1709.87 271.119C1707.89 277.381 1704.71 283.194 1700.49 288.224C1696.27 293.254 1691.1 297.404 1685.27 300.437C1679.45 303.47 1673.08 305.326 1666.54 305.899C1660 306.472 1653.41 305.751 1647.15 303.777C1640.89 301.804 1635.08 298.616 1630.05 294.396C1625.01 290.176 1620.86 285.006 1617.83 279.183L1662.18 256.09L1706.53 232.996Z" fill="black"/>
<path d="M1724.27 229.996C1727.91 236.985 1730.13 244.622 1730.82 252.471C1731.51 260.32 1730.64 268.228 1728.27 275.743C1725.91 283.258 1722.08 290.233 1717.02 296.27C1711.95 302.306 1705.75 307.286 1698.76 310.925C1691.77 314.564 1684.14 316.791 1676.29 317.479C1668.44 318.167 1660.53 317.302 1653.01 314.934C1645.5 312.565 1638.52 308.74 1632.49 303.676C1626.45 298.612 1621.47 292.408 1617.83 285.42L1671.05 257.708L1724.27 229.996Z" fill="black"/>
<path d="M1363.83 395.496C1371.12 321.518 1461.54 279.706 1466.94 272.996V322.382C1466.94 322.382 1395.22 339.883 1405.33 404.496C1415.44 469.109 1498.63 444.66 1489.33 447.496L1471.83 501.996C1471.83 501.996 1355.55 479.493 1363.83 395.496Z" fill="white" stroke="black" stroke-width="3"/>
<path d="M1471.5 502.115L1489.33 447.496L1506.83 434.496C1506.83 434.496 1528.83 419.496 1532.33 436.996C1533.84 444.549 1519.83 461.496 1519.83 461.496C1519.83 461.496 1528.83 462.996 1533.33 473.496C1536.16 480.1 1508.33 491.996 1508.33 491.996C1508.33 491.996 1531.63 488.395 1523.33 504.996C1521.33 508.996 1507.62 517.197 1497.33 514.497C1487.04 511.796 1477.3 512.472 1471.5 502.115Z" fill="#693875" stroke="black" stroke-width="3"/>
<path d="M1886.17 395.496C1878.87 321.518 1788.46 279.706 1783.06 272.996V322.382C1783.06 322.382 1854.78 339.883 1844.67 404.496C1834.56 469.109 1751.37 444.66 1760.67 447.496L1778.17 501.996C1778.17 501.996 1894.45 479.493 1886.17 395.496Z" fill="white" stroke="black" stroke-width="3"/>
<path d="M1778.5 502.115L1760.67 447.496L1743.17 434.496C1743.17 434.496 1721.17 419.496 1717.67 436.996C1716.16 444.549 1730.17 461.496 1730.17 461.496C1730.17 461.496 1721.17 462.996 1716.67 473.496C1713.84 480.1 1741.67 491.996 1741.67 491.996C1741.67 491.996 1718.37 488.395 1726.67 504.996C1728.67 508.996 1742.38 517.197 1752.67 514.497C1762.96 511.796 1772.7 512.472 1778.5 502.115Z" fill="#693875" stroke="black" stroke-width="3"/>
<path d="M2302.02 352.996H2275.52L2302.02 648.996H2351.02L2302.02 352.996Z" fill="white" stroke="black" stroke-width="3" stroke-linecap="round" stroke-linejoin="round"/>
<path d="M2351.41 648.996L2301.91 648.996C2301.91 648.996 2288.26 637.243 2287.73 627.215C2287.19 616.992 2290.02 606.157 2300.05 604.073C2307.59 602.505 2315.22 612.045 2315.22 612.045C2315.22 612.045 2321.19 599.654 2328.3 599.387C2335.48 599.116 2342.32 611.291 2342.32 611.291C2342.32 611.291 2347.99 604.505 2353.02 603.956C2357.28 603.493 2360.39 604.274 2363.49 607.226C2367.33 610.882 2366.84 622.434 2366.84 622.434C2366.84 622.434 2365.92 632.06 2362.18 638.105C2359.1 643.087 2351.41 648.996 2351.41 648.996Z" fill="#693875" stroke="black" stroke-width="3"/>
<path d="M2249.02 352.996H2275.52L2249.02 648.996H2200.02L2249.02 352.996Z" fill="white" stroke="black" stroke-width="3"/>
<path d="M2248.91 648.996L2199.91 648.996C2199.91 648.996 2186.48 637.704 2185.89 627.679C2185.29 617.459 2188.06 606.608 2198.07 604.464C2205.6 602.852 2213.29 612.347 2213.29 612.347C2213.29 612.347 2219.19 599.921 2226.29 599.612C2233.47 599.3 2240.39 611.435 2240.39 611.435C2240.39 611.435 2246.01 604.615 2251.05 604.037C2255.3 603.548 2258.41 604.311 2261.53 607.245C2265.4 610.879 2264.97 622.433 2264.97 622.433C2264.97 622.433 2264.11 632.065 2260.4 638.131C2257.35 643.131 2248.91 648.996 2248.91 648.996Z" fill="#693875" stroke="black" stroke-width="3"/>
<circle cx="2198.44" cy="207.496" r="81.5" fill="white" stroke="black" stroke-width="3"/>
<circle cx="2198.33" cy="207.496" r="42.5" fill="#693875" stroke="black" stroke-width="3"/>
<circle cx="2351.44" cy="207.496" r="81.5" fill="white" stroke="black" stroke-width="3"/>
<circle cx="2351.33" cy="207.496" r="42.5" fill="#693875" stroke="black" stroke-width="3"/>
<path d="M2116.94 204.996H2432.94V364.996C2432.94 378.803 2421.75 389.996 2407.94 389.996H2141.94C2128.13 389.996 2116.94 378.803 2116.94 364.996V204.996Z" fill="white" stroke="black" stroke-width="3"/>
<rect x="2140.94" y="219.996" width="268" height="156" rx="25" fill="black" stroke="black" stroke-width="3"/>
<rect x="2158.94" y="247.996" width="100" height="100" stroke="black" stroke-width="3"/>
<circle cx="2208.94" cy="297.996" r="50" fill="white"/>
<circle cx="2208.94" cy="297.996" r="38" fill="black"/>
<path d="M2186.54 226.996C2182.9 233.985 2180.68 241.622 2179.99 249.471C2179.3 257.32 2180.17 265.228 2182.54 272.743C2184.9 280.258 2188.73 287.233 2193.79 293.27C2198.86 299.306 2205.06 304.286 2212.05 307.925C2219.04 311.564 2226.67 313.791 2234.52 314.479C2242.37 315.167 2250.28 314.302 2257.8 311.934C2265.31 309.565 2272.29 305.74 2278.32 300.676C2284.36 295.612 2289.34 289.408 2292.98 282.42L2239.76 254.708L2186.54 226.996Z" fill="black"/>
<rect x="2290.94" y="247.996" width="100" height="100" stroke="black" stroke-width="3"/>
<circle cx="2340.94" cy="297.996" r="50" fill="white"/>
<circle cx="2340.94" cy="297.996" r="38" fill="black"/>
<path d="M2356.53 232.996C2359.56 238.82 2361.42 245.184 2361.99 251.725C2362.56 258.266 2361.84 264.856 2359.87 271.119C2357.89 277.381 2354.71 283.194 2350.49 288.224C2346.27 293.254 2341.1 297.404 2335.27 300.437C2329.45 303.47 2323.08 305.326 2316.54 305.899C2310 306.472 2303.41 305.751 2297.15 303.777C2290.89 301.804 2285.08 298.616 2280.05 294.396C2275.01 290.176 2270.86 285.006 2267.83 279.183L2312.18 256.09L2356.53 232.996Z" fill="black"/>
<path d="M2374.27 229.996C2377.91 236.985 2380.13 244.622 2380.82 252.471C2381.51 260.32 2380.64 268.228 2378.27 275.743C2375.91 283.258 2372.08 290.233 2367.02 296.27C2361.95 302.306 2355.75 307.286 2348.76 310.925C2341.77 314.564 2334.14 316.791 2326.29 317.479C2318.44 318.167 2310.53 317.302 2303.01 314.934C2295.5 312.565 2288.52 308.74 2282.49 303.676C2276.45 298.612 2271.47 292.408 2267.83 285.42L2321.05 257.708L2374.27 229.996Z" fill="black"/>
<path d="M2013.83 395.496C2021.12 321.518 2111.54 279.706 2116.94 272.996V322.382C2116.94 322.382 2045.22 339.883 2055.33 404.496C2065.44 469.109 2148.63 444.66 2139.33 447.496L2121.83 501.996C2121.83 501.996 2005.55 479.493 2013.83 395.496Z" fill="white" stroke="black" stroke-width="3"/>
<path d="M2121.5 502.115L2139.33 447.496L2156.83 434.496C2156.83 434.496 2178.83 419.496 2182.33 436.996C2183.84 444.549 2169.83 461.496 2169.83 461.496C2169.83 461.496 2178.83 462.996 2183.33 473.496C2186.16 480.1 2158.33 491.996 2158.33 491.996C2158.33 491.996 2181.63 488.395 2173.33 504.996C2171.33 508.996 2157.62 517.197 2147.33 514.497C2137.04 511.796 2127.3 512.472 2121.5 502.115Z" fill="#693875" stroke="black" stroke-width="3"/>
<path d="M2536.17 395.496C2528.87 321.518 2438.46 279.706 2433.06 272.996V322.382C2433.06 322.382 2504.78 339.883 2494.67 404.496C2484.56 469.109 2401.37 444.66 2410.67 447.496L2428.17 501.996C2428.17 501.996 2544.45 479.493 2536.17 395.496Z" fill="white" stroke="black" stroke-width="3"/>
<path d="M2428.5 502.115L2410.67 447.496L2393.17 434.496C2393.17 434.496 2371.17 419.496 2367.67 436.996C2366.16 444.549 2380.17 461.496 2380.17 461.496C2380.17 461.496 2371.17 462.996 2366.67 473.496C2363.84 480.1 2391.67 491.996 2391.67 491.996C2391.67 491.996 2368.37 488.395 2376.67 504.996C2378.67 508.996 2392.38 517.197 2402.67 514.497C2412.96 511.796 2422.7 512.472 2428.5 502.115Z" fill="#693875" stroke="black" stroke-width="3"/>
<path d="M2952.21 352.996H2925.71L2952.21 648.996H3001.21L2952.21 352.996Z" fill="white" stroke="black" stroke-width="3" stroke-linecap="round" stroke-linejoin="round"/>
<path d="M3001.6 648.996L2952.1 648.996C2952.1 648.996 2938.45 637.243 2937.92 627.215C2937.38 616.992 2940.21 606.157 2950.24 604.073C2957.78 602.505 2965.41 612.045 2965.41 612.045C2965.41 612.045 2971.38 599.654 2978.49 599.387C2985.67 599.116 2992.51 611.291 2992.51 611.291C2992.51 611.291 2998.18 604.505 3003.21 603.956C3007.47 603.493 3010.58 604.274 3013.68 607.226C3017.52 610.882 3017.03 622.434 3017.03 622.434C3017.03 622.434 3016.11 632.06 3012.37 638.105C3009.29 643.087 3001.6 648.996 3001.6 648.996Z" fill="#693875" stroke="black" stroke-width="3"/>
<path d="M2899.21 352.996H2925.71L2899.21 648.996H2850.21L2899.21 352.996Z" fill="white" stroke="black" stroke-width="3"/>
<path d="M2899.1 648.996L2850.1 648.996C2850.1 648.996 2836.67 637.704 2836.08 627.679C2835.48 617.459 2838.25 606.608 2848.26 604.464C2855.79 602.852 2863.48 612.347 2863.48 612.347C2863.48 612.347 2869.38 599.921 2876.48 599.612C2883.66 599.3 2890.58 611.435 2890.58 611.435C2890.58 611.435 2896.2 604.615 2901.23 604.037C2905.49 603.548 2908.6 604.311 2911.72 607.245C2915.58 610.879 2915.16 622.433 2915.16 622.433C2915.16 622.433 2914.3 632.065 2910.59 638.131C2907.54 643.131 2899.1 648.996 2899.1 648.996Z" fill="#693875" stroke="black" stroke-width="3"/>
<path d="M2705.96 443.08C2675.45 375.293 2767.76 296.003 2769.1 287.497L2769.1 340.497C2782.29 342.247 2726.73 382.074 2746.43 430.222C2766.13 478.37 2847.34 418.599 2840.69 425.689L2852.65 481.667C2852.65 481.667 2740.6 520.047 2705.96 443.08Z" fill="white" stroke="black" stroke-width="3"/>
<path d="M3144.04 442.58C3174.55 374.793 3082.24 295.503 3080.9 286.997L3080.9 339.997C3067.71 341.747 3123.27 381.574 3103.57 429.722C3083.87 477.87 3002.66 418.099 3009.31 425.189L2997.35 481.167C2997.35 481.167 3109.4 519.547 3144.04 442.58Z" fill="white" stroke="black" stroke-width="3"/>
<circle cx="2849.1" cy="226.496" r="81.5" fill="white" stroke="black" stroke-width="3"/>
<circle cx="2848.99" cy="226.496" r="42.5" fill="#693875" stroke="black" stroke-width="3"/>
<circle cx="3002.1" cy="226.496" r="81.5" fill="white" stroke="black" stroke-width="3"/>
<circle cx="3001.99" cy="226.496" r="42.5" fill="#693875" stroke="black" stroke-width="3"/>
<path d="M2767.13 218.996H3083.13V378.996C3083.13 392.803 3071.94 403.996 3058.13 403.996H2792.13C2778.32 403.996 2767.13 392.803 2767.13 378.996V218.996Z" fill="white" stroke="black" stroke-width="3"/>
<rect x="2791.13" y="233.996" width="268" height="156" rx="25" fill="black" stroke="black" stroke-width="3"/>
<rect x="2809.13" y="261.996" width="100" height="100" stroke="black" stroke-width="3"/>
<circle cx="2859.13" cy="311.996" r="50" fill="white"/>
<circle cx="2859.13" cy="311.996" r="38" fill="black"/>
<path d="M2924.22 373.042C2916.41 374.034 2908.47 373.476 2900.87 371.401C2893.27 369.326 2886.15 365.774 2879.92 360.947C2873.69 356.121 2868.48 350.116 2864.57 343.274C2860.66 336.431 2858.14 328.887 2857.15 321.07C2856.16 313.253 2856.72 305.318 2858.79 297.717C2860.87 290.116 2864.42 282.998 2869.24 276.769C2874.07 270.541 2880.08 265.324 2886.92 261.417C2893.76 257.509 2901.31 254.988 2909.12 253.996L2916.67 313.519L2924.22 373.042Z" fill="black"/>
<rect x="2941.13" y="261.996" width="100" height="100" stroke="black" stroke-width="3"/>
<circle cx="2991.13" cy="311.996" r="50" fill="white"/>
<circle cx="2991.13" cy="311.996" r="38" fill="black"/>
<path d="M2921.6 373.042C2929.42 374.034 2937.35 373.476 2944.95 371.401C2952.55 369.326 2959.67 365.774 2965.9 360.947C2972.13 356.121 2977.34 350.116 2981.25 343.274C2985.16 336.431 2987.68 328.887 2988.67 321.07C2989.66 313.253 2989.11 305.318 2987.03 297.717C2984.96 290.116 2981.4 282.998 2976.58 276.769C2971.75 270.541 2965.75 265.324 2958.9 261.417C2952.06 257.509 2944.52 254.988 2936.7 253.996L2929.15 313.519L2921.6 373.042Z" fill="black"/>
<path d="M2851.46 481.685L2839.76 425.432L2848.47 405.448C2848.47 405.448 2860.09 381.49 2871.84 394.929C2876.91 400.729 2873.18 422.401 2873.18 422.401C2873.18 422.401 2881.74 419.224 2890.86 426.094C2896.61 430.414 2878.38 454.58 2878.38 454.58C2878.38 454.58 2896.8 439.863 2897.86 458.394C2898.12 462.858 2890.31 476.793 2880.04 479.57C2869.76 482.347 2861.65 487.782 2851.46 481.685Z" fill="#693875" stroke="black" stroke-width="3"/>
<path d="M2998.54 481.185L3010.24 424.932L3001.53 404.948C3001.53 404.948 2989.91 380.99 2978.16 394.429C2973.09 400.229 2976.82 421.901 2976.82 421.901C2976.82 421.901 2968.26 418.724 2959.14 425.594C2953.39 429.914 2971.62 454.08 2971.62 454.08C2971.62 454.08 2953.2 439.363 2952.14 457.894C2951.88 462.358 2959.69 476.293 2969.96 479.07C2980.24 481.847 2988.35 487.282 2998.54 481.185Z" fill="#693875" stroke="black" stroke-width="3"/>
<path d="M3607.25 352.996H3580.75L3607.25 648.996H3656.25L3607.25 352.996Z" fill="white" stroke="black" stroke-width="3" stroke-linecap="round" stroke-linejoin="round"/>
<path d="M3656.64 648.996L3607.14 648.996C3607.14 648.996 3593.49 637.243 3592.96 627.215C3592.42 616.992 3595.25 606.157 3605.28 604.073C3612.82 602.505 3620.45 612.045 3620.45 612.045C3620.45 612.045 3626.42 599.654 3633.53 599.387C3640.71 599.116 3647.55 611.291 3647.55 611.291C3647.55 611.291 3653.22 604.505 3658.25 603.956C3662.51 603.493 3665.62 604.274 3668.72 607.226C3672.56 610.882 3672.07 622.434 3672.07 622.434C3672.07 622.434 3671.15 632.06 3667.41 638.105C3664.33 643.087 3656.64 648.996 3656.64 648.996Z" fill="#693875" stroke="black" stroke-width="3"/>
<path d="M3554.25 352.995H3580.75L3554.25 648.995H3505.25L3554.25 352.995Z" fill="white" stroke="black" stroke-width="3"/>
<path d="M3554.14 648.995L3505.14 648.995C3505.14 648.995 3491.71 637.703 3491.12 627.678C3490.52 617.458 3493.29 606.607 3503.3 604.463C3510.83 602.851 3518.52 612.346 3518.52 612.346C3518.52 612.346 3524.42 599.92 3531.52 599.611C3538.7 599.299 3545.62 611.434 3545.62 611.434C3545.62 611.434 3551.24 604.614 3556.28 604.036C3560.53 603.547 3563.64 604.31 3566.76 607.244C3570.63 610.878 3570.2 622.432 3570.2 622.432C3570.2 622.432 3569.34 632.064 3565.63 638.13C3562.58 643.13 3554.14 648.995 3554.14 648.995Z" fill="#693875" stroke="black" stroke-width="3"/>
<path d="M3377.32 421.735C3340.41 357.214 3424.62 269.375 3425.14 260.779L3430.26 313.531C3443.56 313.999 3392.1 359.008 3416.36 405.027C3440.62 451.046 3515.68 383.708 3509.74 391.408L3527.05 445.968C3527.05 445.968 3419.24 494.995 3377.32 421.735Z" fill="white" stroke="black" stroke-width="3"/>
<path d="M3781.08 405.579C3811.59 337.792 3719.28 258.502 3717.94 249.996L3717.94 302.996C3704.75 304.746 3760.31 344.573 3740.61 392.721C3720.91 440.869 3639.7 381.098 3646.36 388.188L3634.4 444.166C3634.4 444.166 3746.44 482.546 3781.08 405.579Z" fill="white" stroke="black" stroke-width="3"/>
<path d="M3585.64 226.496C3585.64 271.507 3549.15 307.995 3504.14 307.995C3459.13 307.995 3421.64 271.507 3421.64 226.496C3416.85 180.763 3456.47 144.593 3504.14 144.996C3549.15 144.996 3585.64 181.484 3585.64 226.496Z" fill="white" stroke="black" stroke-width="3"/>
<circle cx="3504.03" cy="226.495" r="42.5" fill="#693875" stroke="black" stroke-width="3"/>
<path d="M3738.14 226.495C3738.14 271.507 3702.15 307.995 3657.14 307.995C3612.13 307.995 3575.64 271.507 3575.64 226.495C3575.64 181.484 3612.13 144.995 3657.14 144.995C3707.38 140.839 3744.63 176.593 3738.14 226.495Z" fill="white" stroke="black" stroke-width="3"/>
<circle cx="3657.03" cy="226.496" r="42.5" fill="#693875" stroke="black" stroke-width="3"/>
<path d="M3422.17 204.996H3738.17V364.996C3738.17 378.803 3726.98 389.996 3713.17 389.996H3447.17C3433.36 389.996 3422.17 378.803 3422.17 364.996V204.996Z" fill="white" stroke="black" stroke-width="3"/>
<rect x="3446.17" y="219.996" width="268" height="156" rx="25" fill="black" stroke="black" stroke-width="3"/>
<rect x="3464.17" y="247.996" width="100" height="100" stroke="black" stroke-width="3"/>
<circle cx="3514.17" cy="297.996" r="50" fill="white"/>
<circle cx="3514.17" cy="297.996" r="38" fill="black"/>
<path d="M3564.64 355.996C3564.64 349.43 3563.35 342.928 3560.83 336.862C3558.32 330.796 3554.64 325.284 3550 320.641C3545.35 315.998 3539.84 312.315 3533.77 309.802C3527.71 307.289 3521.21 305.996 3514.64 305.996C3508.07 305.996 3501.57 307.289 3495.51 309.802C3489.44 312.315 3483.93 315.998 3479.29 320.641C3474.64 325.284 3470.96 330.796 3468.45 336.862C3465.93 342.928 3464.64 349.43 3464.64 355.996L3514.64 355.996H3564.64Z" fill="black"/>
<rect x="3596.17" y="247.996" width="100" height="100" stroke="black" stroke-width="3"/>
<circle cx="3646.17" cy="297.996" r="50" fill="white"/>
<circle cx="3646.17" cy="297.996" r="38" fill="black"/>
<path d="M3696.64 357.996C3696.64 351.43 3695.35 344.928 3692.83 338.862C3690.32 332.796 3686.64 327.284 3682 322.641C3677.35 317.998 3671.84 314.315 3665.77 311.802C3659.71 309.289 3653.21 307.996 3646.64 307.996C3640.07 307.996 3633.57 309.289 3627.51 311.802C3621.44 314.315 3615.93 317.998 3611.29 322.641C3606.64 327.284 3602.96 332.796 3600.45 338.862C3597.93 344.928 3596.64 351.43 3596.64 357.996L3646.64 357.996H3696.64Z" fill="black"/>
<path d="M3635.58 444.185L3647.28 387.932L3638.57 367.948C3638.57 367.948 3626.95 343.99 3615.2 357.429C3610.14 363.229 3613.86 384.901 3613.86 384.901C3613.86 384.901 3605.3 381.724 3596.18 388.594C3590.44 392.914 3608.66 417.08 3608.66 417.08C3608.66 417.08 3590.24 402.363 3589.18 420.894C3588.92 425.358 3596.74 439.293 3607.01 442.07C3617.28 444.847 3625.39 450.282 3635.58 444.185Z" fill="#693875" stroke="black" stroke-width="3"/>
<path d="M3525.88 446.101L3508.8 391.242L3515.54 370.51C3515.54 370.51 3524.79 345.541 3537.78 357.783C3543.38 363.066 3541.77 384.996 3541.77 384.996C3541.77 384.996 3549.98 381.008 3559.73 386.963C3565.86 390.708 3550.05 416.522 3550.05 416.522C3550.05 416.522 3566.97 400.094 3569.81 418.435C3570.5 422.855 3564.07 437.479 3554.11 441.236C3544.16 444.992 3536.61 451.186 3525.88 446.101Z" fill="#693875" stroke="black" stroke-width="3"/>
<path d="M4250.61 353H4224.11L4250.61 649H4299.61L4250.61 353Z" fill="white" stroke="black" stroke-width="3" stroke-linecap="round" stroke-linejoin="round"/>
<path d="M4300 649L4250.5 649C4250.5 649 4236.85 637.247 4236.32 627.219C4235.78 616.996 4238.61 606.161 4248.64 604.077C4256.18 602.508 4263.81 612.049 4263.81 612.049C4263.81 612.049 4269.78 599.658 4276.89 599.391C4284.07 599.12 4290.91 611.295 4290.91 611.295C4290.91 611.295 4296.58 604.509 4301.61 603.96C4305.87 603.497 4308.98 604.278 4312.08 607.23C4315.92 610.886 4315.43 622.438 4315.43 622.438C4315.43 622.438 4314.51 632.064 4310.77 638.109C4307.69 643.091 4300 649 4300 649Z" fill="#693875" stroke="black" stroke-width="3"/>
<path d="M4197.61 353H4224.11L4197.61 649H4148.61L4197.61 353Z" fill="white" stroke="black" stroke-width="3"/>
<path d="M4197.5 649L4148.5 649C4148.5 649 4135.07 637.708 4134.48 627.683C4133.88 617.463 4136.65 606.612 4146.66 604.468C4154.19 602.856 4161.88 612.351 4161.88 612.351C4161.88 612.351 4167.78 599.925 4174.88 599.616C4182.06 599.304 4188.98 611.438 4188.98 611.438C4188.98 611.438 4194.6 604.619 4199.64 604.041C4203.89 603.552 4207 604.315 4210.12 607.249C4213.99 610.883 4213.56 622.437 4213.56 622.437C4213.56 622.437 4212.7 632.068 4208.99 638.135C4205.94 643.135 4197.5 649 4197.5 649Z" fill="#693875" stroke="black" stroke-width="3"/>
<path d="M4006.89 421.583C3976.38 353.796 4068.69 274.506 4070.03 265.999L4070.03 319C4083.23 320.75 4027.67 360.577 4047.37 408.725C4067.06 456.873 4148.28 397.102 4141.62 404.192L4153.58 460.17C4153.58 460.17 4041.54 498.55 4006.89 421.583Z" fill="white" stroke="black" stroke-width="3"/>
<path d="M4442.44 421.583C4472.95 353.796 4380.64 274.506 4379.3 265.999L4379.3 319C4366.11 320.75 4421.67 360.577 4401.97 408.725C4382.27 456.873 4301.06 397.102 4307.72 404.192L4295.76 460.17C4295.76 460.17 4407.8 498.55 4442.44 421.583Z" fill="white" stroke="black" stroke-width="3"/>
<path d="M4228.49 234.275C4228.49 279.287 4192.01 315.775 4146.99 315.775C4101.98 315.775 4068.66 279.175 4065.49 234.275C4061 170.5 4083.39 159.135 4142 153C4187.01 153 4228.49 189.264 4228.49 234.275Z" fill="white" stroke="black" stroke-width="3"/>
<circle cx="4146.89" cy="234.275" r="42.5" fill="#693875" stroke="black" stroke-width="3"/>
<path d="M4381.49 234.275C4381.49 279.286 4345.01 315.775 4299.99 315.775C4254.98 315.775 4218.49 279.286 4218.49 234.275C4218.49 189.264 4254.98 152.775 4299.99 152.775C4348.23 146.695 4388.19 176.616 4381.49 234.275Z" fill="white" stroke="black" stroke-width="3"/>
<circle cx="4299.89" cy="234.275" r="42.5" fill="#693875" stroke="black" stroke-width="3"/>
<path d="M4065.53 205H4381.53V365C4381.53 378.807 4370.34 390 4356.53 390H4090.53C4076.72 390 4065.53 378.807 4065.53 365V205Z" fill="white" stroke="black" stroke-width="3"/>
<rect x="4089.53" y="220" width="268" height="156" rx="25" fill="black" stroke="black" stroke-width="3"/>
<rect x="4107.53" y="248" width="100" height="100" stroke="black" stroke-width="3"/>
<circle cx="4157.53" cy="298" r="50" fill="white"/>
<circle cx="4157.53" cy="298" r="38" fill="black"/>
<path d="M4218 348C4218 340.121 4216.45 332.319 4213.43 325.039C4210.42 317.759 4206 311.145 4200.43 305.574C4194.85 300.002 4188.24 295.582 4180.96 292.567C4173.68 289.552 4165.88 288 4158 288C4150.12 288 4142.32 289.552 4135.04 292.567C4127.76 295.583 4121.14 300.002 4115.57 305.574C4110 311.145 4105.58 317.759 4102.57 325.039C4099.55 332.319 4098 340.121 4098 348L4158 348H4218Z" fill="black"/>
<rect x="4239.53" y="248" width="100" height="100" stroke="black" stroke-width="3"/>
<circle cx="4289.53" cy="298" r="50" fill="white"/>
<circle cx="4289.53" cy="298" r="38" fill="black"/>
<path d="M4350 348C4350 340.121 4348.45 332.319 4345.43 325.039C4342.42 317.759 4338 311.145 4332.43 305.574C4326.85 300.002 4320.24 295.582 4312.96 292.567C4305.68 289.552 4297.88 288 4290 288C4282.12 288 4274.32 289.552 4267.04 292.567C4259.76 295.583 4253.14 300.002 4247.57 305.574C4242 311.145 4237.58 317.759 4234.57 325.039C4231.55 332.319 4230 340.121 4230 348L4290 348H4350Z" fill="black"/>
<path d="M4152.4 460.189L4140.7 403.935L4149.41 383.952C4149.41 383.952 4161.03 359.994 4172.77 373.433C4177.84 379.233 4174.12 400.905 4174.12 400.905C4174.12 400.905 4182.67 397.728 4191.8 404.598C4197.54 408.918 4179.32 433.084 4179.32 433.084C4179.32 433.084 4197.74 418.367 4198.8 436.897C4199.05 441.362 4191.24 455.297 4180.97 458.074C4170.7 460.851 4162.58 466.286 4152.4 460.189Z" fill="#693875" stroke="black" stroke-width="3"/>
<path d="M4296.94 460.189L4308.64 403.935L4299.93 383.952C4299.93 383.952 4288.31 359.994 4276.56 373.433C4271.5 379.233 4275.22 400.905 4275.22 400.905C4275.22 400.905 4266.66 397.728 4257.54 404.598C4251.8 408.918 4270.02 433.084 4270.02 433.084C4270.02 433.084 4251.6 418.367 4250.54 436.897C4250.28 441.362 4258.1 455.297 4268.37 458.074C4278.64 460.851 4286.75 466.286 4296.94 460.189Z" fill="#693875" stroke="black" stroke-width="3"/>
<path d="M4904.95 352.996H4878.45L4904.95 648.996H4953.95L4904.95 352.996Z" fill="white" stroke="black" stroke-width="3" stroke-linecap="round" stroke-linejoin="round"/>
<path d="M4954.34 648.996L4904.84 648.996C4904.84 648.996 4891.19 637.243 4890.66 627.215C4890.12 616.992 4892.95 606.157 4902.97 604.073C4910.52 602.505 4918.15 612.045 4918.15 612.045C4918.15 612.045 4924.12 599.654 4931.23 599.387C4938.41 599.116 4945.25 611.291 4945.25 611.291C4945.25 611.291 4950.92 604.505 4955.95 603.956C4960.21 603.493 4963.32 604.274 4966.42 607.226C4970.26 610.882 4969.77 622.434 4969.77 622.434C4969.77 622.434 4968.85 632.06 4965.11 638.105C4962.03 643.087 4954.34 648.996 4954.34 648.996Z" fill="#693875" stroke="black" stroke-width="3"/>
<path d="M4851.95 352.995H4878.45L4851.95 648.995H4802.95L4851.95 352.995Z" fill="white" stroke="black" stroke-width="3"/>
<path d="M4851.84 648.995L4802.84 648.995C4802.84 648.995 4789.41 637.703 4788.82 627.678C4788.22 617.458 4790.99 606.607 4801 604.463C4808.53 602.851 4816.22 612.346 4816.22 612.346C4816.22 612.346 4822.12 599.92 4829.22 599.611C4836.4 599.299 4843.32 611.434 4843.32 611.434C4843.32 611.434 4848.94 604.614 4853.97 604.036C4858.23 603.547 4861.34 604.31 4864.46 607.244C4868.33 610.878 4867.9 622.432 4867.9 622.432C4867.9 622.432 4867.04 632.064 4863.33 638.13C4860.28 643.13 4851.84 648.995 4851.84 648.995Z" fill="#693875" stroke="black" stroke-width="3"/>
<path d="M4694.29 441.328C4639.25 383.812 4714.46 281.086 4719.84 276.996L4722.84 334.496C4735.9 331.961 4694.59 376.883 4728.58 416.268C4762.56 455.653 4820.55 373.161 4816.5 381.999L4845.64 431.269C4845.64 431.269 4752.65 502.309 4694.29 441.328Z" fill="white" stroke="black" stroke-width="3"/>
<path d="M5055.71 442.99C5110.75 385.474 5035.54 282.748 5030.16 278.658L5027.16 336.158C5014.1 333.623 5055.41 378.545 5021.42 417.93C4987.44 457.315 4929.45 374.823 4933.5 383.661L4904.36 432.931C4904.36 432.931 4997.35 503.972 5055.71 442.99Z" fill="white" stroke="black" stroke-width="3"/>
<path d="M4884.34 207.496C4884.34 252.507 4847.85 288.995 4802.84 288.995C4757.83 288.995 4720.34 252.507 4720.34 207.496C4715.55 161.763 4755.17 125.593 4802.84 125.996C4847.85 125.996 4884.34 162.484 4884.34 207.496Z" fill="white" stroke="black" stroke-width="3"/>
<circle cx="4802.73" cy="207.495" r="42.5" fill="#693875" stroke="black" stroke-width="3"/>
<path d="M5036.84 207.495C5036.84 252.507 5000.85 288.995 4955.84 288.995C4910.83 288.995 4874.34 252.507 4874.34 207.495C4874.34 162.484 4910.83 125.995 4955.84 125.995C5006.07 121.839 5043.33 157.593 5036.84 207.495Z" fill="white" stroke="black" stroke-width="3"/>
<circle cx="4955.73" cy="207.496" r="42.5" fill="#693875" stroke="black" stroke-width="3"/>
<path d="M4719.87 204.996H5035.87V364.996C5035.87 378.803 5024.68 389.996 5010.87 389.996H4744.87C4731.06 389.996 4719.87 378.803 4719.87 364.996V204.996Z" fill="white" stroke="black" stroke-width="3"/>
<rect x="4743.87" y="219.996" width="268" height="156" rx="25" fill="black" stroke="black" stroke-width="3"/>
<rect x="4761.87" y="247.996" width="100" height="100" stroke="black" stroke-width="3"/>
<circle cx="4811.87" cy="297.996" r="50" fill="white"/>
<circle cx="4811.87" cy="297.996" r="38" fill="black"/>
<path d="M4791.73 371.749C4797.52 368.637 4802.63 364.417 4806.78 359.329C4810.93 354.241 4814.04 348.386 4815.93 342.097C4817.81 335.808 4818.44 329.209 4817.78 322.677C4817.12 316.144 4815.18 309.806 4812.06 304.024C4808.95 298.242 4804.73 293.13 4799.64 288.979C4794.56 284.828 4788.7 281.72 4782.41 279.832C4776.12 277.945 4769.52 277.314 4762.99 277.976C4756.46 278.639 4750.12 280.581 4744.34 283.693L4768.04 327.721L4791.73 371.749Z" fill="black"/>
<path d="M4834.37 371.749C4828.59 368.637 4823.47 364.417 4819.32 359.329C4815.17 354.241 4812.06 348.386 4810.18 342.097C4808.29 335.808 4807.66 329.209 4808.32 322.677C4808.98 316.144 4810.92 309.806 4814.04 304.024C4817.15 298.242 4821.37 293.13 4826.46 288.979C4831.54 284.828 4837.4 281.72 4843.69 279.832C4849.98 277.945 4856.58 277.314 4863.11 277.976C4869.64 278.639 4875.98 280.581 4881.76 283.693L4858.06 327.721L4834.37 371.749Z" fill="black"/>
<rect x="4893.87" y="247.996" width="100" height="100" stroke="black" stroke-width="3"/>
<circle cx="4943.87" cy="297.996" r="50" fill="white"/>
<circle cx="4943.87" cy="297.996" r="38" fill="black"/>
<path d="M4994.34 350.996C4994.34 344.43 4993.05 337.928 4990.53 331.862C4988.02 325.796 4984.34 320.284 4979.69 315.641C4975.05 310.998 4969.54 307.315 4963.47 304.802C4957.41 302.289 4950.91 300.996 4944.34 300.996C4937.77 300.996 4931.27 302.289 4925.21 304.802C4919.14 307.315 4913.63 310.998 4908.98 315.641C4904.34 320.284 4900.66 325.796 4898.15 331.862C4895.63 337.928 4894.34 344.43 4894.34 350.996L4944.34 350.996H4994.34Z" fill="black"/>
<path d="M4923.73 371.749C4929.52 368.637 4934.63 364.417 4938.78 359.329C4942.93 354.241 4946.04 348.386 4947.93 342.097C4949.81 335.808 4950.44 329.209 4949.78 322.677C4949.12 316.144 4947.18 309.806 4944.06 304.024C4940.95 298.242 4936.73 293.13 4931.64 288.979C4926.56 284.828 4920.7 281.72 4914.41 279.832C4908.12 277.945 4901.52 277.314 4894.99 277.976C4888.46 278.639 4882.12 280.581 4876.34 283.693L4900.04 327.721L4923.73 371.749Z" fill="black"/>
<path d="M4959.37 374.749C4953.59 371.637 4948.47 367.417 4944.32 362.329C4940.17 357.241 4937.06 351.386 4935.18 345.097C4933.29 338.808 4932.66 332.209 4933.32 325.677C4933.98 319.144 4935.92 312.806 4939.04 307.024C4942.15 301.242 4946.37 296.13 4951.46 291.979C4956.54 287.828 4962.4 284.72 4968.69 282.832C4974.98 280.945 4981.58 280.314 4988.11 280.976C4994.64 281.639 5000.98 283.581 5006.76 286.693L4983.06 330.721L4959.37 374.749Z" fill="black"/>
<path d="M4844.52 431.662L4815.54 382.05L4817.45 360.333C4817.45 360.333 4820.85 333.923 4836.25 342.931C4842.9 346.819 4846.26 368.549 4846.26 368.549C4846.26 368.549 4853.36 362.817 4864.2 366.428C4871.02 368.699 4861.43 397.404 4861.43 397.404C4861.43 397.404 4874.21 377.594 4881.11 394.826C4882.77 398.978 4879.79 414.674 4870.94 420.573C4862.08 426.471 4856.12 434.205 4844.52 431.662Z" fill="#693875" stroke="black" stroke-width="3"/>
<path d="M4905.48 433.324L4934.46 383.712L4932.55 361.995C4932.55 361.995 4929.15 335.585 4913.75 344.593C4907.1 348.481 4903.74 370.211 4903.74 370.211C4903.74 370.211 4896.64 364.479 4885.8 368.09C4878.98 370.361 4888.57 399.066 4888.57 399.066C4888.57 399.066 4875.79 379.256 4868.89 396.488C4867.23 400.64 4870.21 416.336 4879.06 422.235C4887.92 428.133 4893.88 435.867 4905.48 433.324Z" fill="#693875" stroke="black" stroke-width="3"/>
<path d="M5550.61 353H5524.11L5550.61 649H5599.61L5550.61 353Z" fill="white" stroke="black" stroke-width="3" stroke-linecap="round" stroke-linejoin="round"/>
<path d="M5600 649L5550.5 649C5550.5 649 5536.85 637.247 5536.32 627.219C5535.78 616.996 5538.61 606.161 5548.64 604.077C5556.18 602.508 5563.81 612.049 5563.81 612.049C5563.81 612.049 5569.78 599.658 5576.89 599.391C5584.07 599.12 5590.91 611.295 5590.91 611.295C5590.91 611.295 5596.58 604.509 5601.61 603.96C5605.87 603.497 5608.98 604.278 5612.08 607.23C5615.92 610.886 5615.43 622.438 5615.43 622.438C5615.43 622.438 5614.51 632.064 5610.77 638.109C5607.69 643.091 5600 649 5600 649Z" fill="#693875" stroke="black" stroke-width="3"/>
<path d="M5497.61 353H5524.11L5497.61 649H5448.61L5497.61 353Z" fill="white" stroke="black" stroke-width="3"/>
<path d="M5497.5 649L5448.5 649C5448.5 649 5435.07 637.708 5434.48 627.683C5433.88 617.463 5436.65 606.612 5446.66 604.468C5454.19 602.856 5461.88 612.351 5461.88 612.351C5461.88 612.351 5467.78 599.925 5474.88 599.616C5482.06 599.304 5488.98 611.438 5488.98 611.438C5488.98 611.438 5494.6 604.619 5499.64 604.041C5503.89 603.552 5507 604.315 5510.12 607.249C5513.99 610.883 5513.56 622.437 5513.56 622.437C5513.56 622.437 5512.7 632.068 5508.99 638.135C5505.94 643.135 5497.5 649 5497.5 649Z" fill="#693875" stroke="black" stroke-width="3"/>
<path d="M5306.89 421.584C5276.38 353.797 5368.69 274.507 5370.03 266L5370.03 319C5383.23 320.751 5327.67 360.578 5347.37 408.726C5367.06 456.874 5448.28 397.103 5441.62 404.193L5453.58 460.171C5453.58 460.171 5341.54 498.551 5306.89 421.584Z" fill="white" stroke="black" stroke-width="3"/>
<path d="M5742.44 421.584C5772.95 353.797 5680.64 274.507 5679.3 266L5679.3 319C5666.11 320.751 5721.67 360.578 5701.97 408.726C5682.27 456.874 5601.06 397.103 5607.72 404.193L5595.76 460.171C5595.76 460.171 5707.8 498.551 5742.44 421.584Z" fill="white" stroke="black" stroke-width="3"/>
<circle cx="5447.03" cy="207.5" r="81.5" fill="white" stroke="black" stroke-width="3"/>
<circle cx="5446.92" cy="207.5" r="42.5" fill="#693875" stroke="black" stroke-width="3"/>
<circle cx="5600.03" cy="207.5" r="81.5" fill="white" stroke="black" stroke-width="3"/>
<circle cx="5599.92" cy="207.5" r="42.5" fill="#693875" stroke="black" stroke-width="3"/>
<path d="M5365.53 205H5681.53V365C5681.53 378.807 5670.34 390 5656.53 390H5390.53C5376.72 390 5365.53 378.807 5365.53 365V205Z" fill="white" stroke="black" stroke-width="3"/>
<rect x="5389.53" y="220" width="268" height="156" rx="25" fill="black" stroke="black" stroke-width="3"/>
<rect x="5407.53" y="248" width="100" height="100" stroke="black" stroke-width="3"/>
<circle cx="5457.53" cy="298" r="50" fill="white"/>
<circle cx="5457.53" cy="298" r="38" fill="black"/>
<path d="M5518 348C5518 340.121 5516.45 332.319 5513.43 325.039C5510.42 317.759 5506 311.145 5500.43 305.574C5494.85 300.002 5488.24 295.582 5480.96 292.567C5473.68 289.552 5465.88 288 5458 288C5450.12 288 5442.32 289.552 5435.04 292.567C5427.76 295.583 5421.15 300.002 5415.57 305.574C5410 311.145 5405.58 317.759 5402.57 325.039C5399.55 332.319 5398 340.121 5398 348L5458 348H5518Z" fill="black"/>
<rect x="5539.53" y="248" width="100" height="100" stroke="black" stroke-width="3"/>
<circle cx="5589.53" cy="298" r="50" fill="white"/>
<circle cx="5589.53" cy="298" r="38" fill="black"/>
<path d="M5650 348C5650 340.121 5648.45 332.319 5645.43 325.039C5642.42 317.759 5638 311.145 5632.43 305.574C5626.85 300.002 5620.24 295.582 5612.96 292.567C5605.68 289.552 5597.88 288 5590 288C5582.12 288 5574.32 289.552 5567.04 292.567C5559.76 295.583 5553.15 300.002 5547.57 305.574C5542 311.145 5537.58 317.759 5534.57 325.039C5531.55 332.319 5530 340.121 5530 348L5590 348H5650Z" fill="black"/>
<path d="M5452.4 460.189L5440.7 403.935L5449.41 383.952C5449.41 383.952 5461.03 359.994 5472.77 373.433C5477.84 379.233 5474.12 400.905 5474.12 400.905C5474.12 400.905 5482.67 397.728 5491.8 404.598C5497.54 408.918 5479.32 433.084 5479.32 433.084C5479.32 433.084 5497.74 418.367 5498.8 436.897C5499.05 441.362 5491.24 455.297 5480.97 458.074C5470.7 460.851 5462.58 466.286 5452.4 460.189Z" fill="#693875" stroke="black" stroke-width="3"/>
<path d="M5596.94 460.189L5608.64 403.935L5599.93 383.952C5599.93 383.952 5588.31 359.994 5576.56 373.433C5571.5 379.233 5575.22 400.905 5575.22 400.905C5575.22 400.905 5566.66 397.728 5557.54 404.598C5551.8 408.918 5570.02 433.084 5570.02 433.084C5570.02 433.084 5551.6 418.367 5550.54 436.897C5550.28 441.362 5558.1 455.297 5568.37 458.074C5578.64 460.851 5586.75 466.286 5596.94 460.189Z" fill="#693875" stroke="black" stroke-width="3"/>
<path d="M6203.76 352.996H6177.26L6203.76 648.996H6252.76L6203.76 352.996Z" fill="white" stroke="black" stroke-width="3" stroke-linecap="round" stroke-linejoin="round"/>
<path d="M6253.15 648.996L6203.65 648.996C6203.65 648.996 6190.01 637.243 6189.47 627.215C6188.93 616.992 6191.77 606.157 6201.79 604.073C6209.33 602.505 6216.96 612.045 6216.96 612.045C6216.96 612.045 6222.94 599.654 6230.04 599.387C6237.22 599.116 6244.07 611.291 6244.07 611.291C6244.07 611.291 6249.73 604.505 6254.77 603.956C6259.02 603.493 6262.13 604.274 6265.23 607.226C6269.08 610.882 6268.58 622.434 6268.58 622.434C6268.58 622.434 6267.66 632.06 6263.92 638.105C6260.84 643.087 6253.15 648.996 6253.15 648.996Z" fill="#693875" stroke="black" stroke-width="3"/>
<path d="M6150.76 352.996H6177.26L6150.76 648.996H6101.76L6150.76 352.996Z" fill="white" stroke="black" stroke-width="3"/>
<path d="M6150.65 648.996L6101.65 648.996C6101.65 648.996 6088.23 637.704 6087.63 627.679C6087.03 617.459 6089.8 606.608 6099.81 604.464C6107.34 602.852 6115.03 612.347 6115.03 612.347C6115.03 612.347 6120.93 599.921 6128.04 599.612C6135.21 599.3 6142.13 611.435 6142.13 611.435C6142.13 611.435 6147.76 604.615 6152.79 604.037C6157.04 603.548 6160.15 604.311 6163.27 607.245C6167.14 610.879 6166.71 622.433 6166.71 622.433C6166.71 622.433 6165.85 632.065 6162.15 638.131C6159.09 643.131 6150.65 648.996 6150.65 648.996Z" fill="#693875" stroke="black" stroke-width="3"/>
<path d="M5933.49 378.496C5956.86 284.539 6019.26 259.996 6019.26 259.996V309.382C6019.26 309.382 5977.26 331.632 5970.15 401.496C5963.05 471.36 6015.15 484.996 6015.15 484.996L5970.15 520.496C5970.15 520.496 5913.12 460.405 5933.49 378.496Z" fill="white" stroke="black" stroke-width="3"/>
<path d="M5970.68 520.62L6015.15 484.496L6037.15 484.496C6037.15 484.496 6062.74 492.442 6052.65 505.496C6047.94 511.591 6030.65 518.996 6030.65 518.996C6030.65 518.996 6034.67 534.515 6029.15 538.996C6023.57 543.526 6003.15 535.422 6003.15 535.422C6003.15 535.422 6020.15 545.996 6005.15 555.496C6001.53 557.787 6009.41 555.992 6005.15 555.496C5999.88 554.881 5985.87 553.812 5978.65 545.996C5971.43 538.18 5969.99 532.471 5970.68 520.62Z" fill="#693875"/>
<path d="M6005.15 555.496C5999.88 554.881 5985.87 553.812 5978.65 545.996C5971.43 538.18 5969.99 532.471 5970.68 520.62L6015.15 484.496L6037.15 484.496C6037.15 484.496 6062.74 492.442 6052.65 505.496C6047.94 511.591 6030.65 518.996 6030.65 518.996C6030.65 518.996 6034.67 534.515 6029.15 538.996C6023.57 543.526 6003.15 535.422 6003.15 535.422C6003.15 535.422 6020.15 545.996 6005.15 555.496ZM6005.15 555.496C6001.53 557.787 6009.41 555.992 6005.15 555.496Z" stroke="black" stroke-width="3"/>
<path d="M6416.51 380.496C6393.14 286.539 6330.74 261.996 6330.74 261.996V311.382C6330.74 311.382 6372.74 333.632 6379.85 403.496C6386.95 473.36 6334.85 486.996 6334.85 486.996L6379.85 522.496C6379.85 522.496 6436.88 462.405 6416.51 380.496Z" fill="white" stroke="black" stroke-width="3"/>
<path d="M6379.32 522.62L6334.85 486.496L6312.85 486.496C6312.85 486.496 6287.26 494.442 6297.35 507.496C6302.06 513.591 6319.35 520.996 6319.35 520.996C6319.35 520.996 6315.33 536.515 6320.85 540.996C6326.43 545.526 6346.85 537.422 6346.85 537.422C6346.85 537.422 6329.85 547.996 6344.85 557.496C6348.47 559.787 6340.59 557.992 6344.85 557.496C6350.12 556.881 6364.13 555.812 6371.35 547.996C6378.57 540.18 6380.01 534.471 6379.32 522.62Z" fill="#693875"/>
<path d="M6344.85 557.496C6350.12 556.881 6364.13 555.812 6371.35 547.996C6378.57 540.18 6380.01 534.471 6379.32 522.62L6334.85 486.496L6312.85 486.496C6312.85 486.496 6287.26 494.442 6297.35 507.496C6302.06 513.591 6319.35 520.996 6319.35 520.996C6319.35 520.996 6315.33 536.515 6320.85 540.996C6326.43 545.526 6346.85 537.422 6346.85 537.422C6346.85 537.422 6329.85 547.996 6344.85 557.496ZM6344.85 557.496C6348.47 559.787 6340.59 557.992 6344.85 557.496Z" stroke="black" stroke-width="3"/>
<circle cx="6100.76" cy="194.496" r="81.5" fill="white" stroke="black" stroke-width="3"/>
<circle cx="6100.65" cy="194.496" r="42.5" fill="#693875" stroke="black" stroke-width="3"/>
<circle cx="6253.76" cy="194.496" r="81.5" fill="white" stroke="black" stroke-width="3"/>
<circle cx="6253.65" cy="194.496" r="42.5" fill="#693875" stroke="black" stroke-width="3"/>
<path d="M6019.26 191.996H6335.26V351.996C6335.26 365.803 6324.07 376.996 6310.26 376.996H6044.26C6030.45 376.996 6019.26 365.803 6019.26 351.996V191.996Z" fill="white" stroke="black" stroke-width="3"/>
<rect x="6043.26" y="206.996" width="268" height="156" rx="25" fill="black" stroke="black" stroke-width="3"/>
<rect x="6061.26" y="234.996" width="100" height="100" stroke="black" stroke-width="3"/>
<circle cx="6111.26" cy="284.996" r="50" fill="white"/>
<circle cx="6111.26" cy="284.996" r="38" fill="black"/>
<path d="M6162.15 337.996C6162.15 331.43 6160.86 324.928 6158.35 318.862C6155.83 312.796 6152.15 307.284 6147.51 302.641C6142.86 297.998 6137.35 294.315 6131.29 291.802C6125.22 289.289 6118.72 287.996 6112.15 287.996C6105.59 287.996 6099.08 289.289 6093.02 291.802C6086.95 294.315 6081.44 297.998 6076.8 302.641C6072.15 307.284 6068.47 312.796 6065.96 318.862C6063.45 324.928 6062.15 331.43 6062.15 337.996L6112.15 337.996H6162.15Z" fill="black"/>
<rect x="6193.26" y="234.996" width="100" height="100" stroke="black" stroke-width="3"/>
<circle cx="6243.26" cy="284.996" r="50" fill="white"/>
<circle cx="6243.26" cy="284.996" r="38" fill="black"/>
<path d="M6294.15 337.996C6294.15 331.43 6292.86 324.928 6290.35 318.862C6287.83 312.796 6284.15 307.284 6279.51 302.641C6274.86 297.998 6269.35 294.315 6263.29 291.802C6257.22 289.289 6250.72 287.996 6244.15 287.996C6237.59 287.996 6231.08 289.289 6225.02 291.802C6218.95 294.315 6213.44 297.998 6208.8 302.641C6204.15 307.284 6200.47 312.796 6197.96 318.862C6195.45 324.928 6194.15 331.43 6194.15 337.996L6244.15 337.996H6294.15Z" fill="black"/>
<path d="M6851.5 352.996H6825L6851.5 648.996H6900.5L6851.5 352.996Z" fill="white" stroke="black" stroke-width="3" stroke-linecap="round" stroke-linejoin="round"/>
<path d="M6900.89 648.996L6851.39 648.996C6851.39 648.996 6837.74 637.243 6837.21 627.215C6836.67 616.992 6839.5 606.157 6849.53 604.073C6857.07 602.505 6864.7 612.045 6864.7 612.045C6864.7 612.045 6870.68 599.654 6877.78 599.387C6884.96 599.116 6891.81 611.291 6891.81 611.291C6891.81 611.291 6897.47 604.505 6902.5 603.956C6906.76 603.493 6909.87 604.274 6912.97 607.226C6916.81 610.882 6916.32 622.434 6916.32 622.434C6916.32 622.434 6915.4 632.06 6911.66 638.105C6908.58 643.087 6900.89 648.996 6900.89 648.996Z" fill="#693875" stroke="black" stroke-width="3"/>
<path d="M6798.5 352.996H6825L6798.5 648.996H6749.5L6798.5 352.996Z" fill="white" stroke="black" stroke-width="3"/>
<path d="M6798.39 648.996L6749.39 648.996C6749.39 648.996 6735.96 637.704 6735.37 627.679C6734.77 617.459 6737.54 606.608 6747.55 604.464C6755.08 602.852 6762.77 612.347 6762.77 612.347C6762.77 612.347 6768.67 599.921 6775.77 599.612C6782.95 599.3 6789.87 611.435 6789.87 611.435C6789.87 611.435 6795.49 604.615 6800.53 604.037C6804.78 603.548 6807.89 604.311 6811.01 607.245C6814.88 610.879 6814.45 622.433 6814.45 622.433C6814.45 622.433 6813.59 632.065 6809.89 638.131C6806.83 643.131 6798.39 648.996 6798.39 648.996Z" fill="#693875" stroke="black" stroke-width="3"/>
<circle cx="6748.5" cy="170.496" r="81.5" fill="white" stroke="black" stroke-width="3"/>
<circle cx="6748.39" cy="170.496" r="42.5" fill="#693875" stroke="black" stroke-width="3"/>
<circle cx="6901.5" cy="170.496" r="81.5" fill="white" stroke="black" stroke-width="3"/>
<circle cx="6901.39" cy="170.496" r="42.5" fill="#693875" stroke="black" stroke-width="3"/>
<path d="M6667 167.996H6983V327.996C6983 341.803 6971.81 352.996 6958 352.996H6692C6678.19 352.996 6667 341.803 6667 327.996V167.996Z" fill="white" stroke="black" stroke-width="3"/>
<rect x="6691" y="182.996" width="268" height="156" rx="25" fill="black" stroke="black" stroke-width="3"/>
<rect x="6709" y="210.996" width="100" height="100" stroke="black" stroke-width="3"/>
<circle cx="6759" cy="260.996" r="50" fill="white"/>
<circle cx="6759" cy="260.996" r="38" fill="black"/>
<rect x="6841" y="210.996" width="100" height="100" stroke="black" stroke-width="3"/>
<circle cx="6891" cy="260.996" r="50" fill="white"/>
<circle cx="6891" cy="260.996" r="38" fill="black"/>
<path d="M6599.71 353.848C6623.07 259.892 6667 235.996 6667 235.996V285.382C6667 285.382 6642.82 324.939 6635.71 394.803C6628.61 464.667 6630.5 498.996 6630.5 498.996L6581.23 492.973C6581.23 492.973 6579.34 435.757 6599.71 353.848Z" fill="white" stroke="black" stroke-width="3"/>
<path d="M6581 492.996L6630.5 498.996C6630.5 498.996 6642.28 511.709 6641.61 521.729C6640.92 531.944 6636.81 542.361 6626.61 543.229C6618.93 543.882 6612.5 533.496 6612.5 533.496C6612.5 533.496 6605.08 545.082 6598 544.496C6590.84 543.904 6585.5 530.996 6585.5 530.996C6585.5 530.996 6579.07 537.055 6574 536.996C6569.72 536.946 6566.73 535.798 6564 532.496C6560.62 528.405 6562.5 516.996 6562.5 516.996C6562.5 516.996 6564.56 507.549 6569 501.996C6572.66 497.419 6581 492.996 6581 492.996Z" fill="#693875" stroke="black" stroke-width="3"/>
<path d="M7050.29 353.848C7026.93 259.892 6983 235.996 6983 235.996V285.382C6983 285.382 7007.18 324.939 7014.29 394.803C7021.39 464.667 7019.5 498.996 7019.5 498.996L7068.77 492.973C7068.77 492.973 7070.66 435.757 7050.29 353.848Z" fill="white" stroke="black" stroke-width="3"/>
<path d="M7069 492.996L7019.5 498.996C7019.5 498.996 7007.72 511.709 7008.39 521.729C7009.08 531.944 7013.19 542.361 7023.39 543.229C7031.07 543.882 7037.5 533.496 7037.5 533.496C7037.5 533.496 7044.92 545.082 7052 544.496C7059.16 543.904 7064.5 530.996 7064.5 530.996C7064.5 530.996 7070.93 537.055 7076 536.996C7080.28 536.946 7083.27 535.798 7086 532.496C7089.38 528.405 7087.5 516.996 7087.5 516.996C7087.5 516.996 7085.44 507.549 7081 501.996C7077.34 497.419 7069 492.996 7069 492.996Z" fill="#693875" stroke="black" stroke-width="3"/>
</svg>
