<svg width="1950" height="651" viewBox="0 0 1950 651" fill="none" xmlns="http://www.w3.org/2000/svg">
<path d="M298.5 352.996H325L298.5 648.996H249.5L298.5 352.996Z" fill="white" stroke="black" stroke-width="3" stroke-linecap="round" stroke-linejoin="round"/>
<path d="M249.109 648.996L298.609 648.996C298.609 648.996 312.256 637.243 312.789 627.215C313.332 616.992 310.497 606.157 300.473 604.073C292.932 602.505 285.3 612.045 285.3 612.045C285.3 612.045 279.325 599.654 272.222 599.387C265.042 599.116 258.195 611.291 258.195 611.291C258.195 611.291 252.532 604.505 247.496 603.956C243.239 603.493 240.132 604.274 237.029 607.226C233.187 610.882 233.683 622.434 233.683 622.434C233.683 622.434 234.599 632.06 238.338 638.105C241.42 643.087 249.109 648.996 249.109 648.996Z" fill="#693875" stroke="black" stroke-width="3"/>
<path d="M351.5 352.996H325L351.5 648.996H400.5L351.5 352.996Z" fill="white" stroke="black" stroke-width="3"/>
<path d="M351.609 648.997L400.609 648.997C400.609 648.997 414.036 637.705 414.628 627.68C415.231 617.46 412.46 606.609 402.449 604.465C394.917 602.853 387.228 612.348 387.228 612.348C387.228 612.348 381.326 599.922 374.226 599.613C367.047 599.301 360.128 611.436 360.128 611.436C360.128 611.436 354.506 604.616 349.473 604.038C345.219 603.549 342.107 604.312 338.987 607.246C335.123 610.88 335.551 622.434 335.551 622.434C335.551 622.434 336.411 632.066 340.115 638.132C343.167 643.132 351.609 648.997 351.609 648.997Z" fill="#693875" stroke="black" stroke-width="3"/>
<path d="M550.292 373.848C526.926 279.892 483 255.996 483 255.996V305.382C483 305.382 507.183 344.939 514.289 414.803C521.395 484.667 519.5 518.996 519.5 518.996L568.767 512.973C568.767 512.973 570.662 455.757 550.292 373.848Z" fill="white" stroke="black" stroke-width="3"/>
<path d="M569 512.997L519.5 518.997C519.5 518.997 507.718 531.71 508.391 541.73C509.077 551.945 513.19 562.362 523.391 563.23C531.065 563.883 537.5 553.497 537.5 553.497C537.5 553.497 544.916 565.083 552 564.497C559.16 563.905 564.5 550.997 564.5 550.997C564.5 550.997 570.935 557.056 576 556.997C580.282 556.947 583.274 555.799 586 552.497C589.377 548.406 587.5 536.997 587.5 536.997C587.5 536.997 585.436 527.55 581 521.997C577.344 517.42 569 512.997 569 512.997Z" fill="#693875" stroke="black" stroke-width="3"/>
<path d="M99.7081 373.848C123.074 279.892 167 255.996 167 255.996V305.382C167 305.382 142.817 344.939 135.711 414.803C128.605 484.667 130.5 518.996 130.5 518.996L81.2329 512.973C81.2329 512.973 79.338 455.757 99.7081 373.848Z" fill="white" stroke="black" stroke-width="3"/>
<path d="M81.0001 512.997L130.5 518.997C130.5 518.997 142.282 531.71 141.609 541.73C140.923 551.945 136.81 562.362 126.609 563.23C118.935 563.883 112.5 553.497 112.5 553.497C112.5 553.497 105.084 565.083 98.0001 564.497C90.8396 563.905 85.5001 550.997 85.5001 550.997C85.5001 550.997 79.0653 557.056 74.0001 556.997C69.718 556.947 66.7263 555.799 64.0001 552.497C60.6233 548.406 62.5001 536.997 62.5001 536.997C62.5001 536.997 64.5638 527.55 69.0001 521.997C72.6564 517.42 81.0001 512.997 81.0001 512.997Z" fill="#693875" stroke="black" stroke-width="3"/>
<circle cx="81.5" cy="81.5" r="81.5" transform="matrix(-1 0 0 1 483 108.996)" fill="white" stroke="black" stroke-width="3"/>
<circle cx="42.5" cy="42.5" r="42.5" transform="matrix(-1 0 0 1 444.108 147.996)" fill="#693875" stroke="black" stroke-width="3"/>
<circle cx="81.5" cy="81.5" r="81.5" transform="matrix(-1 0 0 1 330 108.996)" fill="white" stroke="black" stroke-width="3"/>
<circle cx="42.5" cy="42.5" r="42.5" transform="matrix(-1 0 0 1 291.108 147.996)" fill="#693875" stroke="black" stroke-width="3"/>
<path d="M483 187.996H167V347.996C167 361.803 178.192 372.996 192 372.996H458C471.807 372.996 483 361.803 483 347.996V187.996Z" fill="white" stroke="black" stroke-width="3"/>
<rect width="268" height="156" rx="25" transform="matrix(-1 0 0 1 459 202.996)" fill="black" stroke="black" stroke-width="3"/>
<rect width="100" height="100" transform="matrix(-1 0 0 1 441 230.996)" stroke="black" stroke-width="3"/>
<circle cx="50" cy="50" r="50" transform="matrix(-1 0 0 1 437.89 204.945)" fill="white"/>
<circle cx="38" cy="38" r="38" transform="matrix(-1 0 0 1 425.89 216.945)" fill="black"/>
<path d="M338.011 202.946C337.91 209.511 339.103 216.032 341.521 222.137C343.94 228.241 347.537 233.809 352.108 238.523C356.678 243.238 362.133 247.005 368.159 249.612C374.186 252.218 380.667 253.612 387.232 253.713C393.798 253.815 400.319 252.622 406.423 250.203C412.527 247.785 418.096 244.187 422.81 239.617C427.524 235.046 431.292 229.592 433.898 223.565C436.504 217.539 437.898 211.057 438 204.492L388.005 203.719L338.011 202.946Z" fill="black"/>
<rect width="100" height="100" transform="matrix(-1 0 0 1 309 230.996)" stroke="black" stroke-width="3"/>
<circle cx="50" cy="50" r="50" transform="matrix(-1 0 0 1 305.89 204.945)" fill="white"/>
<circle cx="38" cy="38" r="38" transform="matrix(-1 0 0 1 293.89 216.945)" fill="black"/>
<path d="M219 207.445C218.898 214.011 207.103 216.032 209.521 222.137C211.94 228.241 215.537 233.809 220.108 238.523C224.678 243.238 230.133 247.005 236.159 249.612C242.186 252.218 248.667 253.612 255.232 253.713C261.798 253.815 268.319 252.622 274.423 250.203C280.527 247.785 286.096 244.187 290.81 239.617C295.524 235.046 299.292 229.592 301.898 223.565C304.504 217.539 305.898 211.057 306 204.492L256.005 203.719L219 207.445Z" fill="black"/>
<path d="M948.5 352.996H975L948.5 648.996H899.5L948.5 352.996Z" fill="white" stroke="black" stroke-width="3"/>
<path d="M1001.5 352.996H975L1001.5 648.996H1050.5L1001.5 352.996Z" fill="white" stroke="black" stroke-width="3" stroke-linecap="round" stroke-linejoin="round"/>
<path d="M1050.89 648.996L1001.39 648.996C1001.39 648.996 987.744 637.243 987.211 627.215C986.668 616.992 989.503 606.157 999.526 604.073C1007.07 602.505 1014.7 612.045 1014.7 612.045C1014.7 612.045 1020.67 599.654 1027.78 599.387C1034.96 599.116 1041.81 611.291 1041.81 611.291C1041.81 611.291 1047.47 604.505 1052.5 603.956C1056.76 603.493 1059.87 604.274 1062.97 607.226C1066.81 610.882 1066.32 622.434 1066.32 622.434C1066.32 622.434 1065.4 632.06 1061.66 638.105C1058.58 643.087 1050.89 648.996 1050.89 648.996Z" fill="#693875" stroke="black" stroke-width="3"/>
<path d="M948.391 648.995L899.391 648.995C899.391 648.995 885.964 637.703 885.372 627.678C884.768 617.458 887.54 606.607 897.551 604.463C905.083 602.851 912.771 612.346 912.771 612.346C912.771 612.346 918.673 599.92 925.774 599.611C932.952 599.299 939.871 611.434 939.871 611.434C939.871 611.434 945.494 604.614 950.526 604.036C954.781 603.547 957.893 604.31 961.013 607.244C964.877 610.878 964.448 622.432 964.448 622.432C964.448 622.432 963.588 632.064 959.885 638.13C956.833 643.13 948.391 648.995 948.391 648.995Z" fill="#693875" stroke="black" stroke-width="3"/>
<path d="M749.708 353.848C773.074 259.892 817 235.996 817 235.996V285.382C817 285.382 792.817 324.939 785.711 394.803C778.605 464.667 780.5 498.996 780.5 498.996L731.233 492.973C731.233 492.973 729.338 435.757 749.708 353.848Z" fill="white" stroke="black" stroke-width="3"/>
<path d="M731 492.997L780.5 498.997C780.5 498.997 792.282 511.71 791.609 521.73C790.923 531.945 786.81 542.362 776.609 543.23C768.935 543.883 762.5 533.497 762.5 533.497C762.5 533.497 755.084 545.083 748 544.497C740.84 543.905 735.5 530.997 735.5 530.997C735.5 530.997 729.065 537.056 724 536.997C719.718 536.947 716.726 535.799 714 532.497C710.623 528.406 712.5 516.997 712.5 516.997C712.5 516.997 714.564 507.55 719 501.997C722.656 497.42 731 492.997 731 492.997Z" fill="#693875" stroke="black" stroke-width="3"/>
<path d="M1200.29 353.848C1176.93 259.892 1133 235.996 1133 235.996V285.382C1133 285.382 1157.18 324.939 1164.29 394.803C1171.39 464.667 1169.5 498.996 1169.5 498.996L1218.77 492.973C1218.77 492.973 1220.66 435.757 1200.29 353.848Z" fill="white" stroke="black" stroke-width="3"/>
<path d="M1219 492.997L1169.5 498.997C1169.5 498.997 1157.72 511.71 1158.39 521.73C1159.08 531.945 1163.19 542.362 1173.39 543.23C1181.07 543.883 1187.5 533.497 1187.5 533.497C1187.5 533.497 1194.92 545.083 1202 544.497C1209.16 543.905 1214.5 530.997 1214.5 530.997C1214.5 530.997 1220.93 537.056 1226 536.997C1230.28 536.947 1233.27 535.799 1236 532.497C1239.38 528.406 1237.5 516.997 1237.5 516.997C1237.5 516.997 1235.44 507.55 1231 501.997C1227.34 497.42 1219 492.997 1219 492.997Z" fill="#693875" stroke="black" stroke-width="3"/>
<circle cx="898.391" cy="179.496" r="81.5" fill="white" stroke="black" stroke-width="3"/>
<circle cx="898.282" cy="179.496" r="42.5" fill="#693875" stroke="black" stroke-width="3"/>
<circle cx="1051.39" cy="179.496" r="81.5" fill="white" stroke="black" stroke-width="3"/>
<circle cx="1051.28" cy="179.496" r="42.5" fill="#693875" stroke="black" stroke-width="3"/>
<path d="M817 167.996H1133V327.996C1133 341.803 1121.81 352.996 1108 352.996H842C828.193 352.996 817 341.803 817 327.996V167.996Z" fill="white" stroke="black" stroke-width="3"/>
<rect x="841" y="182.996" width="268" height="156" rx="25" fill="black" stroke="black" stroke-width="3"/>
<rect x="859" y="210.996" width="100" height="100" stroke="black" stroke-width="3"/>
<circle cx="909" cy="247" r="50" fill="white"/>
<circle cx="909" cy="247" r="38" fill="black"/>
<path d="M944 183C944 187.596 943.095 192.148 941.336 196.394C939.577 200.64 936.999 204.499 933.749 207.749C930.499 210.999 926.641 213.577 922.394 215.336C918.148 217.095 913.597 218 909 218C904.404 218 899.853 217.095 895.607 215.336C891.36 213.577 887.502 210.999 884.252 207.749C881.002 204.499 878.424 200.64 876.665 196.394C874.906 192.148 874 187.596 874 183L909 183H944Z" fill="black"/>
<rect x="991" y="210.996" width="100" height="100" stroke="black" stroke-width="3"/>
<circle cx="1041" cy="247" r="50" fill="white"/>
<path d="M1076 183C1076 187.596 1075.1 192.148 1073.34 196.394C1071.58 200.64 1069 204.499 1065.75 207.749C1062.5 210.999 1058.64 213.577 1054.39 215.336C1050.15 217.095 1045.6 218 1041 218C1036.4 218 1031.85 217.095 1027.61 215.336C1023.36 213.577 1019.5 210.999 1016.25 207.749C1013 204.499 1010.42 200.64 1008.66 196.394C1006.91 192.148 1006 187.596 1006 183L1041 183H1076Z" fill="black"/>
<circle cx="1041" cy="247" r="38" fill="black"/>
<path d="M1598.5 352.996H1625L1598.5 648.996H1549.5L1598.5 352.996Z" fill="white" stroke="black" stroke-width="3"/>
<path d="M1651.5 352.996H1625L1651.5 648.996H1700.5L1651.5 352.996Z" fill="white" stroke="black" stroke-width="3" stroke-linecap="round" stroke-linejoin="round"/>
<path d="M1700.89 648.996L1651.39 648.996C1651.39 648.996 1637.74 637.243 1637.21 627.215C1636.67 616.992 1639.5 606.157 1649.53 604.073C1657.07 602.505 1664.7 612.045 1664.7 612.045C1664.7 612.045 1670.67 599.654 1677.78 599.387C1684.96 599.116 1691.81 611.291 1691.81 611.291C1691.81 611.291 1697.47 604.505 1702.5 603.956C1706.76 603.493 1709.87 604.274 1712.97 607.226C1716.81 610.882 1716.32 622.434 1716.32 622.434C1716.32 622.434 1715.4 632.06 1711.66 638.105C1708.58 643.087 1700.89 648.996 1700.89 648.996Z" fill="#693875" stroke="black" stroke-width="3"/>
<path d="M1598.39 648.995L1549.39 648.995C1549.39 648.995 1535.96 637.703 1535.37 627.678C1534.77 617.458 1537.54 606.607 1547.55 604.463C1555.08 602.851 1562.77 612.346 1562.77 612.346C1562.77 612.346 1568.67 599.92 1575.77 599.611C1582.95 599.299 1589.87 611.434 1589.87 611.434C1589.87 611.434 1595.49 604.614 1600.53 604.036C1604.78 603.547 1607.89 604.31 1611.01 607.244C1614.88 610.878 1614.45 622.432 1614.45 622.432C1614.45 622.432 1613.59 632.064 1609.88 638.13C1606.83 643.13 1598.39 648.995 1598.39 648.995Z" fill="#693875" stroke="black" stroke-width="3"/>
<path d="M1399.71 353.848C1423.07 259.892 1467 235.996 1467 235.996V285.382C1467 285.382 1442.82 324.939 1435.71 394.803C1428.61 464.667 1430.5 498.996 1430.5 498.996L1381.23 492.973C1381.23 492.973 1379.34 435.757 1399.71 353.848Z" fill="white" stroke="black" stroke-width="3"/>
<path d="M1381 492.997L1430.5 498.997C1430.5 498.997 1442.28 511.71 1441.61 521.73C1440.92 531.945 1436.81 542.362 1426.61 543.23C1418.93 543.883 1412.5 533.497 1412.5 533.497C1412.5 533.497 1405.08 545.083 1398 544.497C1390.84 543.905 1385.5 530.997 1385.5 530.997C1385.5 530.997 1379.07 537.056 1374 536.997C1369.72 536.947 1366.73 535.799 1364 532.497C1360.62 528.406 1362.5 516.997 1362.5 516.997C1362.5 516.997 1364.56 507.55 1369 501.997C1372.66 497.42 1381 492.997 1381 492.997Z" fill="#693875" stroke="black" stroke-width="3"/>
<path d="M1850.29 353.848C1826.93 259.892 1783 235.996 1783 235.996V285.382C1783 285.382 1807.18 324.939 1814.29 394.803C1821.39 464.667 1819.5 498.996 1819.5 498.996L1868.77 492.973C1868.77 492.973 1870.66 435.757 1850.29 353.848Z" fill="white" stroke="black" stroke-width="3"/>
<path d="M1869 492.997L1819.5 498.997C1819.5 498.997 1807.72 511.71 1808.39 521.73C1809.08 531.945 1813.19 542.362 1823.39 543.23C1831.07 543.883 1837.5 533.497 1837.5 533.497C1837.5 533.497 1844.92 545.083 1852 544.497C1859.16 543.905 1864.5 530.997 1864.5 530.997C1864.5 530.997 1870.93 537.056 1876 536.997C1880.28 536.947 1883.27 535.799 1886 532.497C1889.38 528.406 1887.5 516.997 1887.5 516.997C1887.5 516.997 1885.44 507.55 1881 501.997C1877.34 497.42 1869 492.997 1869 492.997Z" fill="#693875" stroke="black" stroke-width="3"/>
<circle cx="1548.5" cy="170.496" r="81.5" fill="white" stroke="black" stroke-width="3"/>
<circle cx="1548.39" cy="170.496" r="42.5" fill="#693875" stroke="black" stroke-width="3"/>
<circle cx="1701.5" cy="170.496" r="81.5" fill="white" stroke="black" stroke-width="3"/>
<circle cx="1701.39" cy="170.496" r="42.5" fill="#693875" stroke="black" stroke-width="3"/>
<path d="M1467 167.996H1783V327.996C1783 341.803 1771.81 352.996 1758 352.996H1492C1478.19 352.996 1467 341.803 1467 327.996V167.996Z" fill="white" stroke="black" stroke-width="3"/>
<rect x="1491" y="182.996" width="268" height="156" rx="25" fill="black" stroke="black" stroke-width="3"/>
<rect x="1509" y="210.996" width="100" height="100" stroke="black" stroke-width="3"/>
<circle cx="1559" cy="260.996" r="50" fill="white"/>
<circle cx="1559" cy="260.996" r="38" fill="black"/>
<rect x="1641" y="210.996" width="100" height="100" stroke="black" stroke-width="3"/>
<circle cx="1691" cy="260.996" r="50" fill="white"/>
<circle cx="1691" cy="260.996" r="38" fill="black"/>
</svg>
