<svg width="1950" height="651" viewBox="0 0 1950 651" fill="none" xmlns="http://www.w3.org/2000/svg">
<path d="M1651.5 352.996H1625L1651.5 648.996H1700.5L1651.5 352.996Z" fill="white" stroke="black" stroke-width="3" stroke-linecap="round" stroke-linejoin="round"/>
<path d="M1700.89 648.996L1651.39 648.996C1651.39 648.996 1637.74 637.243 1637.21 627.215C1636.67 616.992 1639.5 606.157 1649.53 604.073C1657.07 602.505 1664.7 612.045 1664.7 612.045C1664.7 612.045 1670.67 599.654 1677.78 599.387C1684.96 599.116 1691.8 611.291 1691.8 611.291C1691.8 611.291 1697.47 604.505 1702.5 603.956C1706.76 603.493 1709.87 604.274 1712.97 607.226C1716.81 610.882 1716.32 622.434 1716.32 622.434C1716.32 622.434 1715.4 632.06 1711.66 638.105C1708.58 643.087 1700.89 648.996 1700.89 648.996Z" fill="#693875" stroke="black" stroke-width="3"/>
<path d="M1598.5 352.996H1625L1598.5 648.996H1549.5L1598.5 352.996Z" fill="white" stroke="black" stroke-width="3"/>
<path d="M1598.39 648.997L1549.39 648.997C1549.39 648.997 1535.96 637.705 1535.37 627.68C1534.77 617.46 1537.54 606.609 1547.55 604.465C1555.08 602.853 1562.77 612.348 1562.77 612.348C1562.77 612.348 1568.67 599.922 1575.77 599.613C1582.95 599.301 1589.87 611.436 1589.87 611.436C1589.87 611.436 1595.49 604.616 1600.53 604.038C1604.78 603.549 1607.89 604.312 1611.01 607.246C1614.88 610.88 1614.45 622.434 1614.45 622.434C1614.45 622.434 1613.59 632.066 1609.89 638.132C1606.83 643.132 1598.39 648.997 1598.39 648.997Z" fill="#693875" stroke="black" stroke-width="3"/>
<path d="M1399.71 373.848C1423.07 279.892 1467 255.996 1467 255.996V305.382C1467 305.382 1442.82 344.939 1435.71 414.803C1428.6 484.667 1430.5 518.996 1430.5 518.996L1381.23 512.973C1381.23 512.973 1379.34 455.757 1399.71 373.848Z" fill="white" stroke="black" stroke-width="3"/>
<path d="M1381 512.997L1430.5 518.997C1430.5 518.997 1442.28 531.71 1441.61 541.73C1440.92 551.945 1436.81 562.362 1426.61 563.23C1418.93 563.883 1412.5 553.497 1412.5 553.497C1412.5 553.497 1405.08 565.083 1398 564.497C1390.84 563.905 1385.5 550.997 1385.5 550.997C1385.5 550.997 1379.06 557.056 1374 556.997C1369.72 556.947 1366.73 555.799 1364 552.497C1360.62 548.406 1362.5 536.997 1362.5 536.997C1362.5 536.997 1364.56 527.55 1369 521.997C1372.66 517.42 1381 512.997 1381 512.997Z" fill="#693875" stroke="black" stroke-width="3"/>
<path d="M1850.29 373.848C1826.93 279.892 1783 255.996 1783 255.996V305.382C1783 305.382 1807.18 344.939 1814.29 414.803C1821.39 484.667 1819.5 518.996 1819.5 518.996L1868.77 512.973C1868.77 512.973 1870.66 455.757 1850.29 373.848Z" fill="white" stroke="black" stroke-width="3"/>
<path d="M1869 512.997L1819.5 518.997C1819.5 518.997 1807.72 531.71 1808.39 541.73C1809.08 551.945 1813.19 562.362 1823.39 563.23C1831.06 563.883 1837.5 553.497 1837.5 553.497C1837.5 553.497 1844.92 565.083 1852 564.497C1859.16 563.905 1864.5 550.997 1864.5 550.997C1864.5 550.997 1870.93 557.056 1876 556.997C1880.28 556.947 1883.27 555.799 1886 552.497C1889.38 548.406 1887.5 536.997 1887.5 536.997C1887.5 536.997 1885.44 527.55 1881 521.997C1877.34 517.42 1869 512.997 1869 512.997Z" fill="#693875" stroke="black" stroke-width="3"/>
<circle cx="1548.5" cy="190.496" r="81.5" fill="white" stroke="black" stroke-width="3"/>
<circle cx="1548.39" cy="190.496" r="42.5" fill="#693875" stroke="black" stroke-width="3"/>
<circle cx="1701.5" cy="190.496" r="81.5" fill="white" stroke="black" stroke-width="3"/>
<circle cx="1701.39" cy="190.496" r="42.5" fill="#693875" stroke="black" stroke-width="3"/>
<path d="M1467 187.996H1783V347.996C1783 361.803 1771.81 372.996 1758 372.996H1492C1478.19 372.996 1467 361.803 1467 347.996V187.996Z" fill="white" stroke="black" stroke-width="3"/>
<rect x="1491" y="202.996" width="268" height="156" rx="25" fill="black" stroke="black" stroke-width="3"/>
<rect x="1509" y="230.996" width="100" height="100" stroke="black" stroke-width="3"/>
<circle cx="1562.11" cy="254.945" r="50" fill="white"/>
<circle cx="1562.11" cy="254.945" r="38" fill="black"/>
<path d="M1611.99 202.946C1612.09 209.511 1610.9 216.032 1608.48 222.137C1606.06 228.241 1602.46 233.809 1597.89 238.523C1593.32 243.238 1587.87 247.005 1581.84 249.612C1575.81 252.218 1569.33 253.612 1562.77 253.713C1556.2 253.815 1549.68 252.622 1543.58 250.203C1537.47 247.785 1531.9 244.187 1527.19 239.617C1522.48 235.046 1518.71 229.592 1516.1 223.565C1513.5 217.539 1512.1 211.057 1512 204.492L1561.99 203.719L1611.99 202.946Z" fill="black"/>
<rect x="1641" y="230.996" width="100" height="100" stroke="black" stroke-width="3"/>
<circle cx="1694.11" cy="254.945" r="50" fill="white"/>
<circle cx="1694.11" cy="254.945" r="38" fill="black"/>
<path d="M1731 207.445C1731.1 214.011 1742.9 216.032 1740.48 222.137C1738.06 228.241 1734.46 233.809 1729.89 238.523C1725.32 243.238 1719.87 247.005 1713.84 249.612C1707.81 252.218 1701.33 253.612 1694.77 253.713C1688.2 253.815 1681.68 252.622 1675.58 250.203C1669.47 247.785 1663.9 244.187 1659.19 239.617C1654.48 235.046 1650.71 229.592 1648.1 223.565C1645.5 217.539 1644.1 211.057 1644 204.492L1693.99 203.719L1731 207.445Z" fill="black"/>
<path d="M1001.5 352.996H975L1001.5 648.996H1050.5L1001.5 352.996Z" fill="white" stroke="black" stroke-width="3"/>
<path d="M948.5 352.996H975L948.5 648.996H899.5L948.5 352.996Z" fill="white" stroke="black" stroke-width="3" stroke-linecap="round" stroke-linejoin="round"/>
<path d="M899.109 648.996L948.609 648.996C948.609 648.996 962.256 637.243 962.789 627.215C963.333 616.992 960.497 606.157 950.474 604.073C942.933 602.505 935.3 612.045 935.3 612.045C935.3 612.045 929.325 599.654 922.223 599.387C915.043 599.116 908.195 611.291 908.195 611.291C908.195 611.291 902.533 604.505 897.497 603.956C893.24 603.493 890.132 604.274 887.03 607.226C883.187 610.882 883.683 622.434 883.683 622.434C883.683 622.434 884.6 632.06 888.339 638.105C891.42 643.087 899.109 648.996 899.109 648.996Z" fill="#693875" stroke="black" stroke-width="3"/>
<path d="M1001.61 648.995L1050.61 648.995C1050.61 648.995 1064.04 637.703 1064.63 627.678C1065.23 617.458 1062.46 606.607 1052.45 604.463C1044.92 602.851 1037.23 612.346 1037.23 612.346C1037.23 612.346 1031.33 599.92 1024.23 599.611C1017.05 599.299 1010.13 611.434 1010.13 611.434C1010.13 611.434 1004.51 604.614 999.475 604.036C995.22 603.547 992.108 604.31 988.988 607.244C985.124 610.878 985.552 622.432 985.552 622.432C985.552 622.432 986.412 632.064 990.116 638.13C993.168 643.13 1001.61 648.995 1001.61 648.995Z" fill="#693875" stroke="black" stroke-width="3"/>
<path d="M1200.29 353.848C1176.93 259.892 1133 235.996 1133 235.996V285.382C1133 285.382 1157.18 324.939 1164.29 394.803C1171.4 464.667 1169.5 498.996 1169.5 498.996L1218.77 492.973C1218.77 492.973 1220.66 435.757 1200.29 353.848Z" fill="white" stroke="black" stroke-width="3"/>
<path d="M1219 492.997L1169.5 498.997C1169.5 498.997 1157.72 511.71 1158.39 521.73C1159.08 531.945 1163.19 542.362 1173.39 543.23C1181.07 543.883 1187.5 533.497 1187.5 533.497C1187.5 533.497 1194.92 545.083 1202 544.497C1209.16 543.905 1214.5 530.997 1214.5 530.997C1214.5 530.997 1220.94 537.056 1226 536.997C1230.28 536.947 1233.27 535.799 1236 532.497C1239.38 528.406 1237.5 516.997 1237.5 516.997C1237.5 516.997 1235.44 507.55 1231 501.997C1227.34 497.42 1219 492.997 1219 492.997Z" fill="#693875" stroke="black" stroke-width="3"/>
<path d="M749.708 353.848C773.075 259.892 817 235.996 817 235.996V285.382C817 285.382 792.817 324.939 785.711 394.803C778.605 464.667 780.5 498.996 780.5 498.996L731.233 492.973C731.233 492.973 729.338 435.757 749.708 353.848Z" fill="white" stroke="black" stroke-width="3"/>
<path d="M731.001 492.997L780.501 498.997C780.501 498.997 792.282 511.71 791.61 521.73C790.924 531.945 786.811 542.362 776.61 543.23C768.935 543.883 762.501 533.497 762.501 533.497C762.501 533.497 755.084 545.083 748.001 544.497C740.84 543.905 735.501 530.997 735.501 530.997C735.501 530.997 729.066 537.056 724.001 536.997C719.718 536.947 716.727 535.799 714.001 532.497C710.624 528.406 712.501 516.997 712.501 516.997C712.501 516.997 714.564 507.55 719.001 501.997C722.657 497.42 731.001 492.997 731.001 492.997Z" fill="#693875" stroke="black" stroke-width="3"/>
<circle cx="81.5" cy="81.5" r="81.5" transform="matrix(-1 0 0 1 1133.11 97.9961)" fill="white" stroke="black" stroke-width="3"/>
<circle cx="42.5" cy="42.5" r="42.5" transform="matrix(-1 0 0 1 1094.22 136.996)" fill="#693875" stroke="black" stroke-width="3"/>
<circle cx="81.5" cy="81.5" r="81.5" transform="matrix(-1 0 0 1 980.109 97.9961)" fill="white" stroke="black" stroke-width="3"/>
<circle cx="42.5" cy="42.5" r="42.5" transform="matrix(-1 0 0 1 941.219 136.996)" fill="#693875" stroke="black" stroke-width="3"/>
<path d="M1133 167.996H817V327.996C817 341.803 828.193 352.996 842 352.996H1108C1121.81 352.996 1133 341.803 1133 327.996V167.996Z" fill="white" stroke="black" stroke-width="3"/>
<rect width="268" height="156" rx="25" transform="matrix(-1 0 0 1 1109 182.996)" fill="black" stroke="black" stroke-width="3"/>
<rect width="100" height="100" transform="matrix(-1 0 0 1 1091 210.996)" stroke="black" stroke-width="3"/>
<circle cx="50" cy="50" r="50" transform="matrix(-1 0 0 1 1091 197)" fill="white"/>
<circle cx="38" cy="38" r="38" transform="matrix(-1 0 0 1 1079 209)" fill="black"/>
<path d="M1006 183C1006 187.596 1006.91 192.148 1008.66 196.394C1010.42 200.64 1013 204.499 1016.25 207.749C1019.5 210.999 1023.36 213.577 1027.61 215.336C1031.85 217.095 1036.4 218 1041 218C1045.6 218 1050.15 217.095 1054.39 215.336C1058.64 213.577 1062.5 210.999 1065.75 207.749C1069 204.499 1071.58 200.64 1073.34 196.394C1075.09 192.148 1076 187.596 1076 183L1041 183H1006Z" fill="black"/>
<rect width="100" height="100" transform="matrix(-1 0 0 1 959 210.996)" stroke="black" stroke-width="3"/>
<circle cx="50" cy="50" r="50" transform="matrix(-1 0 0 1 959 197)" fill="white"/>
<path d="M874 183C874 187.596 874.905 192.148 876.664 196.394C878.423 200.64 881.001 204.499 884.251 207.749C887.501 210.999 891.36 213.577 895.606 215.336C899.852 217.095 904.404 218 909 218C913.596 218 918.148 217.095 922.394 215.336C926.64 213.577 930.499 210.999 933.749 207.749C936.999 204.499 939.577 200.64 941.336 196.394C943.095 192.148 944 187.596 944 183L909 183H874Z" fill="black"/>
<circle cx="38" cy="38" r="38" transform="matrix(-1 0 0 1 947 209)" fill="black"/>
<path d="M351.5 352.996H325L351.5 648.996H400.5L351.5 352.996Z" fill="white" stroke="black" stroke-width="3"/>
<path d="M298.5 352.996H325L298.5 648.996H249.5L298.5 352.996Z" fill="white" stroke="black" stroke-width="3" stroke-linecap="round" stroke-linejoin="round"/>
<path d="M249.109 648.996L298.609 648.996C298.609 648.996 312.256 637.243 312.789 627.215C313.333 616.992 310.497 606.157 300.474 604.073C292.933 602.505 285.3 612.045 285.3 612.045C285.3 612.045 279.325 599.654 272.223 599.387C265.043 599.116 258.195 611.291 258.195 611.291C258.195 611.291 252.533 604.505 247.497 603.956C243.24 603.493 240.132 604.274 237.03 607.226C233.187 610.882 233.683 622.434 233.683 622.434C233.683 622.434 234.6 632.06 238.339 638.105C241.42 643.087 249.109 648.996 249.109 648.996Z" fill="#693875" stroke="black" stroke-width="3"/>
<path d="M351.61 648.995L400.61 648.995C400.61 648.995 414.037 637.703 414.629 627.678C415.232 617.458 412.461 606.607 402.45 604.463C394.918 602.851 387.229 612.346 387.229 612.346C387.229 612.346 381.328 599.92 374.227 599.611C367.049 599.299 360.129 611.434 360.129 611.434C360.129 611.434 354.507 604.614 349.475 604.036C345.22 603.547 342.108 604.31 338.988 607.244C335.124 610.878 335.552 622.432 335.552 622.432C335.552 622.432 336.412 632.064 340.116 638.13C343.168 643.13 351.61 648.995 351.61 648.995Z" fill="#693875" stroke="black" stroke-width="3"/>
<path d="M550.293 353.848C526.926 259.892 483.001 235.996 483.001 235.996V285.382C483.001 285.382 507.184 324.939 514.29 394.803C521.396 464.667 519.501 498.996 519.501 498.996L568.768 492.973C568.768 492.973 570.663 435.757 550.293 353.848Z" fill="white" stroke="black" stroke-width="3"/>
<path d="M569 492.997L519.5 498.997C519.5 498.997 507.719 511.71 508.391 521.73C509.077 531.945 513.19 542.362 523.391 543.23C531.066 543.883 537.5 533.497 537.5 533.497C537.5 533.497 544.917 545.083 552 544.497C559.161 543.905 564.5 530.997 564.5 530.997C564.5 530.997 570.935 537.056 576 536.997C580.283 536.947 583.274 535.799 586 532.497C589.377 528.406 587.5 516.997 587.5 516.997C587.5 516.997 585.437 507.55 581 501.997C577.344 497.42 569 492.997 569 492.997Z" fill="#693875" stroke="black" stroke-width="3"/>
<path d="M99.7084 353.848C123.075 259.892 167 235.996 167 235.996V285.382C167 285.382 142.817 324.939 135.711 394.803C128.605 464.667 130.5 498.996 130.5 498.996L81.2331 492.973C81.2331 492.973 79.3383 435.757 99.7084 353.848Z" fill="white" stroke="black" stroke-width="3"/>
<path d="M81.0006 492.997L130.501 498.997C130.501 498.997 142.282 511.71 141.61 521.73C140.924 531.945 136.811 542.362 126.61 543.23C118.935 543.883 112.501 533.497 112.501 533.497C112.501 533.497 105.084 545.083 98.0006 544.497C90.84 543.905 85.5006 530.997 85.5006 530.997C85.5006 530.997 79.0658 537.056 74.0006 536.997C69.7185 536.947 66.7268 535.799 64.0006 532.497C60.6238 528.406 62.5006 516.997 62.5006 516.997C62.5006 516.997 64.5642 507.55 69.0006 501.997C72.6569 497.42 81.0006 492.997 81.0006 492.997Z" fill="#693875" stroke="black" stroke-width="3"/>
<circle cx="81.5" cy="81.5" r="81.5" transform="matrix(-1 0 0 1 483 88.9961)" fill="white" stroke="black" stroke-width="3"/>
<circle cx="42.5" cy="42.5" r="42.5" transform="matrix(-1 0 0 1 444.109 127.996)" fill="#693875" stroke="black" stroke-width="3"/>
<circle cx="81.5" cy="81.5" r="81.5" transform="matrix(-1 0 0 1 330 88.9961)" fill="white" stroke="black" stroke-width="3"/>
<circle cx="42.5" cy="42.5" r="42.5" transform="matrix(-1 0 0 1 291.109 127.996)" fill="#693875" stroke="black" stroke-width="3"/>
<path d="M483 167.996H167V327.996C167 341.803 178.193 352.996 192 352.996H458C471.807 352.996 483 341.803 483 327.996V167.996Z" fill="white" stroke="black" stroke-width="3"/>
<rect width="268" height="156" rx="25" transform="matrix(-1 0 0 1 459 182.996)" fill="black" stroke="black" stroke-width="3"/>
<rect width="100" height="100" transform="matrix(-1 0 0 1 441 210.996)" stroke="black" stroke-width="3"/>
<circle cx="50" cy="50" r="50" transform="matrix(-1 0 0 1 441 210.996)" fill="white"/>
<circle cx="38" cy="38" r="38" transform="matrix(-1 0 0 1 429 222.996)" fill="black"/>
<rect width="100" height="100" transform="matrix(-1 0 0 1 309 210.996)" stroke="black" stroke-width="3"/>
<circle cx="50" cy="50" r="50" transform="matrix(-1 0 0 1 309 210.996)" fill="white"/>
<circle cx="38" cy="38" r="38" transform="matrix(-1 0 0 1 297 222.996)" fill="black"/>
</svg>
