<svg width="5200" height="651" viewBox="0 0 5200 651" fill="none" xmlns="http://www.w3.org/2000/svg">
<path d="M1650.92 352.996H1624.42L1630.92 390.496L1650.92 648.996H1699.92L1658.92 390.496L1650.92 352.996Z" fill="white" stroke="black" stroke-width="3" stroke-linecap="round" stroke-linejoin="round"/>
<path d="M1700.31 648.996L1650.81 648.996C1650.81 648.996 1637.17 637.243 1636.63 627.215C1636.09 616.992 1638.93 606.157 1648.95 604.073C1656.49 602.505 1664.12 612.045 1664.12 612.045C1664.12 612.045 1670.1 599.654 1677.2 599.387C1684.38 599.116 1691.23 611.291 1691.23 611.291C1691.23 611.291 1696.89 604.505 1701.93 603.956C1706.18 603.493 1709.29 604.274 1712.39 607.226C1716.24 610.882 1715.74 622.434 1715.74 622.434C1715.74 622.434 1714.82 632.06 1711.08 638.105C1708 643.087 1700.31 648.996 1700.31 648.996Z" fill="#693875" stroke="black" stroke-width="3"/>
<path d="M1598.03 352.996H1624.53L1618.42 390.496L1598.03 648.996H1549.03L1589.42 390.496L1598.03 352.996Z" fill="white" stroke="black" stroke-width="3"/>
<path d="M1597.92 648.997L1548.92 648.997C1548.92 648.997 1535.49 637.705 1534.9 627.68C1534.3 617.46 1537.07 606.609 1547.08 604.465C1554.61 602.853 1562.3 612.348 1562.3 612.348C1562.3 612.348 1568.2 599.922 1575.3 599.613C1582.48 599.301 1589.4 611.436 1589.4 611.436C1589.4 611.436 1595.02 604.616 1600.06 604.038C1604.31 603.549 1607.42 604.312 1610.54 607.246C1614.41 610.88 1613.98 622.434 1613.98 622.434C1613.98 622.434 1613.12 632.066 1609.42 638.132C1606.36 643.132 1597.92 648.997 1597.92 648.997Z" fill="#693875" stroke="black" stroke-width="3"/>
<path d="M1849.82 381.848C1835.47 271.875 1786.96 256.699 1782.53 263.996V313.382C1787.02 296.427 1811.59 334.509 1813.82 422.803C1816.05 511.097 1801.42 519.496 1801.42 519.496L1849.82 522.996C1849.82 522.996 1860.75 465.542 1849.82 381.848Z" fill="white" stroke="black" stroke-width="3"/>
<path d="M1850.31 522.65L1801.42 519.496C1801.42 519.496 1790.26 531.02 1785.48 539.847C1779.97 549.997 1776.81 560.273 1791.42 562.996C1798.99 564.407 1808.42 555.996 1808.42 555.996C1808.42 555.996 1809.85 569.78 1816.92 570.496C1824.07 571.22 1838.95 559.192 1838.95 559.192C1838.95 559.192 1840.43 567.63 1845.42 568.496C1849.64 569.228 1841.6 566.572 1845.42 568.496C1857.26 574.449 1860.24 555.972 1860.92 545.997C1862.05 529.496 1850.61 521.931 1850.31 522.65Z" fill="#693875"/>
<path d="M1845.42 568.496C1857.26 574.449 1860.24 555.972 1860.92 545.997C1862.05 529.496 1850.61 521.931 1850.31 522.65L1801.42 519.496C1801.42 519.496 1790.26 531.02 1785.48 539.847C1779.97 549.997 1776.81 560.273 1791.42 562.996C1798.99 564.407 1808.42 555.996 1808.42 555.996C1808.42 555.996 1809.85 569.78 1816.92 570.496C1824.07 571.22 1838.95 559.192 1838.95 559.192C1838.95 559.192 1840.43 567.63 1845.42 568.496ZM1845.42 568.496C1849.64 569.228 1841.6 566.572 1845.42 568.496Z" stroke="black" stroke-width="3"/>
<path d="M1400.18 381.945C1410.26 271.864 1457.02 262.861 1467.47 264.093V313.479C1462.98 296.524 1438.41 334.606 1436.18 422.9C1433.95 511.194 1448.58 519.593 1448.58 519.593L1400.18 523.093C1400.18 523.093 1392.48 465.997 1400.18 381.945Z" fill="white" stroke="black" stroke-width="3"/>
<path d="M1399.69 522.748L1448.58 519.594C1448.58 519.594 1459.74 531.118 1464.52 539.945C1470.03 550.095 1473.19 560.371 1458.58 563.094C1451.01 564.505 1441.58 556.094 1441.58 556.094C1441.58 556.094 1440.15 569.878 1433.08 570.594C1425.93 571.317 1411.05 559.29 1411.05 559.29C1411.05 559.29 1409.57 567.727 1404.58 568.593C1400.36 569.325 1408.4 566.67 1404.58 568.593C1392.74 574.547 1389.76 556.07 1389.08 546.094C1387.95 529.594 1399.39 522.029 1399.69 522.748Z" fill="#693875"/>
<path d="M1404.58 568.593C1392.74 574.547 1389.76 556.07 1389.08 546.094C1387.95 529.594 1399.39 522.029 1399.69 522.748L1448.58 519.594C1448.58 519.594 1459.74 531.118 1464.52 539.945C1470.03 550.095 1473.19 560.371 1458.58 563.094C1451.01 564.505 1441.58 556.094 1441.58 556.094C1441.58 556.094 1440.15 569.878 1433.08 570.594C1425.93 571.317 1411.05 559.29 1411.05 559.29C1411.05 559.29 1409.57 567.727 1404.58 568.593ZM1404.58 568.593C1400.36 569.325 1408.4 566.67 1404.58 568.593Z" stroke="black" stroke-width="3"/>
<path d="M1629.42 207.496C1629.42 252.507 1592.93 288.996 1547.92 288.996C1502.91 288.996 1466.42 252.507 1466.42 207.496C1463.34 163.505 1501.32 126.522 1547.92 125.996C1592.93 125.996 1629.42 162.485 1629.42 207.496Z" fill="white" stroke="black" stroke-width="3"/>
<circle cx="1547.81" cy="207.496" r="42.5" fill="#693875" stroke="black" stroke-width="3"/>
<path d="M1782.42 200.496C1782.74 245.507 1745.93 295.997 1700.92 295.997C1655.91 295.997 1619.42 259.508 1619.42 214.497C1619.42 169.485 1662.92 133.996 1700.92 132.997C1700.54 132.111 1781.98 138.971 1782.42 200.496Z" fill="white" stroke="black" stroke-width="3"/>
<circle cx="1700.81" cy="214.496" r="42.5" fill="#693875" stroke="black" stroke-width="3"/>
<path d="M1466.53 195.996H1782.53V355.996C1782.53 369.803 1771.34 380.996 1757.53 380.996H1491.53C1477.72 380.996 1466.53 369.803 1466.53 355.996V195.996Z" fill="white" stroke="black" stroke-width="3"/>
<rect x="1490.53" y="210.996" width="268" height="156" rx="25" fill="black" stroke="black" stroke-width="3"/>
<rect x="1521.42" y="263.996" width="100" height="100" stroke="black" stroke-width="3"/>
<circle cx="1576.11" cy="265" r="50" fill="white"/>
<circle cx="1576.11" cy="265" r="38" fill="black"/>
<path d="M1625.99 213.001C1626.09 219.566 1624.9 226.087 1622.48 232.191C1620.06 238.296 1616.46 243.864 1611.89 248.578C1607.32 253.292 1601.87 257.06 1595.84 259.666C1589.81 262.273 1583.33 263.666 1576.77 263.768C1570.2 263.869 1563.68 262.677 1557.58 260.258C1551.47 257.839 1545.9 254.242 1541.19 249.672C1536.48 245.101 1532.71 239.647 1530.1 233.62C1527.5 227.593 1526.1 221.112 1526 214.547L1575.99 213.774L1625.99 213.001Z" fill="black"/>
<circle cx="1708.11" cy="265" r="50" fill="white"/>
<circle cx="1708.11" cy="265" r="38" fill="black"/>
<path d="M1745.5 217.5C1745.6 224.065 1756.9 226.087 1754.48 232.191C1752.06 238.296 1748.46 243.864 1743.89 248.578C1739.32 253.292 1733.87 257.06 1727.84 259.666C1721.81 262.273 1715.33 263.666 1708.77 263.768C1702.2 263.869 1695.68 262.677 1689.58 260.258C1683.47 257.839 1677.9 254.242 1673.19 249.672C1668.48 245.101 1664.71 239.647 1662.1 233.62C1659.5 227.593 1658.1 221.112 1658 214.547L1707.99 213.774L1745.5 217.5Z" fill="black"/>
<path d="M2950.92 352.996H2924.42L2930.92 390.496L2950.92 648.996H2999.92L2958.92 390.496L2950.92 352.996Z" fill="white" stroke="black" stroke-width="3" stroke-linecap="round" stroke-linejoin="round"/>
<path d="M3000.31 648.996L2950.81 648.996C2950.81 648.996 2937.17 637.243 2936.63 627.215C2936.09 616.992 2938.93 606.157 2948.95 604.073C2956.49 602.505 2964.12 612.045 2964.12 612.045C2964.12 612.045 2970.1 599.654 2977.2 599.387C2984.38 599.116 2991.23 611.291 2991.23 611.291C2991.23 611.291 2996.89 604.505 3001.93 603.956C3006.18 603.493 3009.29 604.274 3012.39 607.226C3016.24 610.882 3015.74 622.434 3015.74 622.434C3015.74 622.434 3014.82 632.06 3011.08 638.105C3008 643.087 3000.31 648.996 3000.31 648.996Z" fill="#693875" stroke="black" stroke-width="3"/>
<path d="M2898.03 352.996H2924.53L2918.42 390.496L2898.03 648.996H2849.03L2889.42 390.496L2898.03 352.996Z" fill="white" stroke="black" stroke-width="3"/>
<path d="M2897.92 648.997L2848.92 648.997C2848.92 648.997 2835.49 637.705 2834.9 627.68C2834.3 617.46 2837.07 606.609 2847.08 604.465C2854.61 602.853 2862.3 612.348 2862.3 612.348C2862.3 612.348 2868.2 599.922 2875.3 599.613C2882.48 599.301 2889.4 611.436 2889.4 611.436C2889.4 611.436 2895.02 604.616 2900.06 604.038C2904.31 603.549 2907.42 604.312 2910.54 607.246C2914.41 610.88 2913.98 622.434 2913.98 622.434C2913.98 622.434 2913.12 632.066 2909.42 638.132C2906.36 643.132 2897.92 648.997 2897.92 648.997Z" fill="#693875" stroke="black" stroke-width="3"/>
<path d="M3149.82 381.848C3135.47 271.875 3086.96 256.699 3082.53 263.996V313.382C3087.02 296.427 3111.59 334.509 3113.82 422.803C3116.05 511.097 3101.42 519.496 3101.42 519.496L3149.82 522.996C3149.82 522.996 3160.75 465.542 3149.82 381.848Z" fill="white" stroke="black" stroke-width="3"/>
<path d="M3150.31 522.65L3101.42 519.496C3101.42 519.496 3090.26 531.02 3085.48 539.847C3079.97 549.997 3076.81 560.273 3091.42 562.996C3098.99 564.407 3108.42 555.996 3108.42 555.996C3108.42 555.996 3109.85 569.78 3116.92 570.496C3124.07 571.22 3138.95 559.192 3138.95 559.192C3138.95 559.192 3140.43 567.63 3145.42 568.496C3149.64 569.228 3141.6 566.572 3145.42 568.496C3157.26 574.449 3160.24 555.972 3160.92 545.997C3162.05 529.496 3150.61 521.931 3150.31 522.65Z" fill="#693875"/>
<path d="M3145.42 568.496C3157.26 574.449 3160.24 555.972 3160.92 545.997C3162.05 529.496 3150.61 521.931 3150.31 522.65L3101.42 519.496C3101.42 519.496 3090.26 531.02 3085.48 539.847C3079.97 549.997 3076.81 560.273 3091.42 562.996C3098.99 564.407 3108.42 555.996 3108.42 555.996C3108.42 555.996 3109.85 569.78 3116.92 570.496C3124.07 571.22 3138.95 559.192 3138.95 559.192C3138.95 559.192 3140.43 567.63 3145.42 568.496ZM3145.42 568.496C3149.64 569.228 3141.6 566.572 3145.42 568.496Z" stroke="black" stroke-width="3"/>
<path d="M2700.18 381.945C2710.26 271.864 2757.02 262.861 2767.47 264.093V313.479C2762.98 296.524 2738.41 334.606 2736.18 422.9C2733.95 511.194 2748.58 519.593 2748.58 519.593L2700.18 523.093C2700.18 523.093 2692.48 465.997 2700.18 381.945Z" fill="white" stroke="black" stroke-width="3"/>
<path d="M2699.69 522.748L2748.58 519.594C2748.58 519.594 2759.74 531.118 2764.52 539.945C2770.03 550.095 2773.19 560.371 2758.58 563.094C2751.01 564.505 2741.58 556.094 2741.58 556.094C2741.58 556.094 2740.15 569.878 2733.08 570.594C2725.93 571.317 2711.05 559.29 2711.05 559.29C2711.05 559.29 2709.57 567.727 2704.58 568.593C2700.36 569.325 2708.4 566.67 2704.58 568.593C2692.74 574.547 2689.76 556.07 2689.08 546.094C2687.95 529.594 2699.39 522.029 2699.69 522.748Z" fill="#693875"/>
<path d="M2704.58 568.593C2692.74 574.547 2689.76 556.07 2689.08 546.094C2687.95 529.594 2699.39 522.029 2699.69 522.748L2748.58 519.594C2748.58 519.594 2759.74 531.118 2764.52 539.945C2770.03 550.095 2773.19 560.371 2758.58 563.094C2751.01 564.505 2741.58 556.094 2741.58 556.094C2741.58 556.094 2740.15 569.878 2733.08 570.594C2725.93 571.317 2711.05 559.29 2711.05 559.29C2711.05 559.29 2709.57 567.727 2704.58 568.593ZM2704.58 568.593C2700.36 569.325 2708.4 566.67 2704.58 568.593Z" stroke="black" stroke-width="3"/>
<path d="M2929.42 207.496C2929.42 252.507 2892.93 288.996 2847.92 288.996C2802.91 288.996 2766.42 252.507 2766.42 207.496C2763.34 163.505 2801.32 126.522 2847.92 125.996C2892.93 125.996 2929.42 162.485 2929.42 207.496Z" fill="white" stroke="black" stroke-width="3"/>
<circle cx="2847.81" cy="207.496" r="42.5" fill="#693875" stroke="black" stroke-width="3"/>
<path d="M3082.42 200.496C3082.74 245.507 3045.93 295.997 3000.92 295.997C2955.91 295.997 2919.42 259.508 2919.42 214.497C2919.42 169.485 2962.92 133.996 3000.92 132.997C3000.54 132.111 3081.98 138.971 3082.42 200.496Z" fill="white" stroke="black" stroke-width="3"/>
<circle cx="3000.81" cy="214.496" r="42.5" fill="#693875" stroke="black" stroke-width="3"/>
<path d="M2766.53 195.996H3082.53V355.996C3082.53 369.803 3071.34 380.996 3057.53 380.996H2791.53C2777.72 380.996 2766.53 369.803 2766.53 355.996V195.996Z" fill="white" stroke="black" stroke-width="3"/>
<rect x="2790.53" y="210.996" width="268" height="156" rx="25" fill="black" stroke="black" stroke-width="3"/>
<circle cx="2845.69" cy="268.004" r="50" fill="white"/>
<circle cx="2845.69" cy="268.004" r="38" fill="black"/>
<path d="M2895.57 216.005C2895.67 222.57 2894.47 229.091 2892.06 235.195C2889.64 241.3 2886.04 246.868 2881.47 251.582C2876.9 256.296 2871.44 260.064 2865.42 262.67C2859.39 265.277 2852.91 266.67 2846.35 266.772C2839.78 266.873 2833.26 265.681 2827.15 263.262C2821.05 260.844 2815.48 257.246 2810.77 252.676C2806.05 248.105 2802.29 242.651 2799.68 236.624C2797.07 230.597 2814.1 228.065 2814 221.5L2845.57 216.778L2895.57 216.005Z" fill="black"/>
<circle cx="2977.69" cy="268.004" r="50" fill="white"/>
<circle cx="2977.69" cy="268.004" r="38" fill="black"/>
<path d="M3015.08 220.504C3015.18 227.069 3026.48 229.091 3024.06 235.195C3021.64 241.3 3018.04 246.868 3013.47 251.582C3008.9 256.296 3003.45 260.064 2997.42 262.67C2991.39 265.276 2984.91 266.67 2978.35 266.772C2971.78 266.873 2965.26 265.681 2959.15 263.262C2953.05 260.843 2947.48 257.246 2942.77 252.675C2938.05 248.105 2934.29 242.651 2931.68 236.624C2929.07 230.597 2927.68 224.116 2927.58 217.551L2977.57 216.778L3015.08 220.504Z" fill="black"/>
<path d="M4250.92 352.996H4224.42L4230.92 390.496L4250.92 648.996H4299.92L4258.92 390.496L4250.92 352.996Z" fill="white" stroke="black" stroke-width="3" stroke-linecap="round" stroke-linejoin="round"/>
<path d="M4300.31 648.996L4250.81 648.996C4250.81 648.996 4237.17 637.243 4236.63 627.215C4236.09 616.992 4238.92 606.157 4248.95 604.073C4256.49 602.505 4264.12 612.045 4264.12 612.045C4264.12 612.045 4270.1 599.654 4277.2 599.387C4284.38 599.116 4291.23 611.291 4291.23 611.291C4291.23 611.291 4296.89 604.505 4301.93 603.956C4306.18 603.493 4309.29 604.274 4312.39 607.226C4316.24 610.882 4315.74 622.434 4315.74 622.434C4315.74 622.434 4314.82 632.06 4311.08 638.105C4308 643.087 4300.31 648.996 4300.31 648.996Z" fill="#693875" stroke="black" stroke-width="3"/>
<path d="M4198.03 352.996H4224.53L4218.42 390.496L4198.03 648.996H4149.03L4189.42 390.496L4198.03 352.996Z" fill="white" stroke="black" stroke-width="3"/>
<path d="M4197.92 648.997L4148.92 648.997C4148.92 648.997 4135.49 637.705 4134.9 627.68C4134.3 617.46 4137.07 606.609 4147.08 604.465C4154.61 602.853 4162.3 612.348 4162.3 612.348C4162.3 612.348 4168.2 599.922 4175.3 599.613C4182.48 599.301 4189.4 611.436 4189.4 611.436C4189.4 611.436 4195.02 604.616 4200.06 604.038C4204.31 603.549 4207.42 604.312 4210.54 607.246C4214.41 610.88 4213.98 622.434 4213.98 622.434C4213.98 622.434 4213.12 632.066 4209.42 638.132C4206.36 643.132 4197.92 648.997 4197.92 648.997Z" fill="#693875" stroke="black" stroke-width="3"/>
<path d="M4449.82 381.848C4435.47 271.875 4386.96 256.699 4382.53 263.996V313.382C4387.02 296.427 4411.59 334.509 4413.82 422.803C4416.05 511.097 4401.42 519.496 4401.42 519.496L4449.82 522.996C4449.82 522.996 4460.75 465.542 4449.82 381.848Z" fill="white" stroke="black" stroke-width="3"/>
<path d="M4450.31 522.65L4401.42 519.496C4401.42 519.496 4390.26 531.02 4385.48 539.847C4379.97 549.997 4376.81 560.273 4391.42 562.996C4398.99 564.407 4408.42 555.996 4408.42 555.996C4408.42 555.996 4409.85 569.78 4416.92 570.496C4424.07 571.22 4438.95 559.192 4438.95 559.192C4438.95 559.192 4440.43 567.63 4445.42 568.496C4449.64 569.228 4441.6 566.572 4445.42 568.496C4457.26 574.449 4460.24 555.972 4460.92 545.997C4462.05 529.496 4450.61 521.931 4450.31 522.65Z" fill="#693875"/>
<path d="M4445.42 568.496C4457.26 574.449 4460.24 555.972 4460.92 545.997C4462.05 529.496 4450.61 521.931 4450.31 522.65L4401.42 519.496C4401.42 519.496 4390.26 531.02 4385.48 539.847C4379.97 549.997 4376.81 560.273 4391.42 562.996C4398.99 564.407 4408.42 555.996 4408.42 555.996C4408.42 555.996 4409.85 569.78 4416.92 570.496C4424.07 571.22 4438.95 559.192 4438.95 559.192C4438.95 559.192 4440.43 567.63 4445.42 568.496ZM4445.42 568.496C4449.64 569.228 4441.6 566.572 4445.42 568.496Z" stroke="black" stroke-width="3"/>
<path d="M4000.18 381.945C4010.26 271.864 4057.02 262.861 4067.47 264.093V313.479C4062.98 296.524 4038.41 334.606 4036.18 422.9C4033.95 511.194 4048.58 519.593 4048.58 519.593L4000.18 523.093C4000.18 523.093 3992.48 465.997 4000.18 381.945Z" fill="white" stroke="black" stroke-width="3"/>
<path d="M3999.69 522.748L4048.58 519.594C4048.58 519.594 4059.74 531.118 4064.52 539.945C4070.03 550.095 4073.19 560.371 4058.58 563.094C4051.01 564.505 4041.58 556.094 4041.58 556.094C4041.58 556.094 4040.15 569.878 4033.08 570.594C4025.93 571.317 4011.05 559.29 4011.05 559.29C4011.05 559.29 4009.57 567.727 4004.58 568.593C4000.36 569.325 4008.4 566.67 4004.58 568.593C3992.74 574.547 3989.76 556.07 3989.08 546.094C3987.95 529.594 3999.39 522.029 3999.69 522.748Z" fill="#693875"/>
<path d="M4004.58 568.593C3992.74 574.547 3989.76 556.07 3989.08 546.094C3987.95 529.594 3999.39 522.029 3999.69 522.748L4048.58 519.594C4048.58 519.594 4059.74 531.118 4064.52 539.945C4070.03 550.095 4073.19 560.371 4058.58 563.094C4051.01 564.505 4041.58 556.094 4041.58 556.094C4041.58 556.094 4040.15 569.878 4033.08 570.594C4025.93 571.317 4011.05 559.29 4011.05 559.29C4011.05 559.29 4009.57 567.727 4004.58 568.593ZM4004.58 568.593C4000.36 569.325 4008.4 566.67 4004.58 568.593Z" stroke="black" stroke-width="3"/>
<path d="M4229.42 207.496C4229.42 252.507 4192.93 288.996 4147.92 288.996C4102.91 288.996 4066.42 252.507 4066.42 207.496C4063.34 163.505 4101.32 126.522 4147.92 125.996C4192.93 125.996 4229.42 162.485 4229.42 207.496Z" fill="white" stroke="black" stroke-width="3"/>
<circle cx="4147.81" cy="207.496" r="42.5" fill="#693875" stroke="black" stroke-width="3"/>
<path d="M4382.42 200.496C4382.74 245.507 4345.93 295.997 4300.92 295.997C4255.91 295.997 4219.42 259.508 4219.42 214.497C4219.42 169.485 4262.92 133.996 4300.92 132.997C4300.54 132.111 4381.98 138.971 4382.42 200.496Z" fill="white" stroke="black" stroke-width="3"/>
<circle cx="4300.81" cy="214.496" r="42.5" fill="#693875" stroke="black" stroke-width="3"/>
<path d="M4066.53 195.996H4382.53V355.996C4382.53 369.803 4371.34 380.996 4357.53 380.996H4091.53C4077.72 380.996 4066.53 369.803 4066.53 355.996V195.996Z" fill="white" stroke="black" stroke-width="3"/>
<rect x="4090.53" y="210.996" width="268" height="156" rx="25" fill="black" stroke="black" stroke-width="3"/>
<circle cx="4145.69" cy="268.004" r="50" fill="white"/>
<circle cx="4145.69" cy="268.004" r="38" fill="black"/>
<path d="M4195.57 216.005C4195.67 222.57 4194.47 229.091 4192.06 235.195C4189.64 241.3 4186.04 246.868 4181.47 251.582C4176.9 256.296 4171.44 260.064 4165.42 262.67C4159.39 265.277 4152.91 266.67 4146.34 266.772C4139.78 266.873 4133.26 265.681 4127.15 263.262C4121.05 260.844 4115.48 257.246 4110.77 252.676C4106.05 248.105 4102.29 242.651 4099.68 236.624C4097.07 230.597 4114.1 228.065 4114 221.5L4145.57 216.778L4195.57 216.005Z" fill="black"/>
<circle cx="4277.69" cy="268.004" r="50" fill="white"/>
<circle cx="4277.69" cy="268.004" r="38" fill="black"/>
<path d="M4315.08 220.504C4315.18 227.069 4326.47 229.091 4324.06 235.195C4321.64 241.3 4318.04 246.868 4313.47 251.582C4308.9 256.296 4303.44 260.064 4297.42 262.67C4291.39 265.276 4284.91 266.67 4278.35 266.772C4271.78 266.873 4265.26 265.681 4259.15 263.262C4253.05 260.843 4247.48 257.246 4242.77 252.675C4238.05 248.105 4234.29 242.651 4231.68 236.624C4229.07 230.597 4227.68 224.116 4227.58 217.551L4277.57 216.778L4315.08 220.504Z" fill="black"/>
<path d="M1001.5 352.996H975L1001.5 648.996H1050.5L1001.5 352.996Z" fill="white" stroke="black" stroke-width="3" stroke-linecap="round" stroke-linejoin="round"/>
<path d="M1050.89 648.996L1001.39 648.996C1001.39 648.996 987.744 637.243 987.211 627.215C986.668 616.992 989.503 606.157 999.527 604.073C1007.07 602.505 1014.7 612.045 1014.7 612.045C1014.7 612.045 1020.68 599.654 1027.78 599.387C1034.96 599.116 1041.81 611.291 1041.81 611.291C1041.81 611.291 1047.47 604.505 1052.5 603.956C1056.76 603.493 1059.87 604.274 1062.97 607.226C1066.81 610.882 1066.32 622.434 1066.32 622.434C1066.32 622.434 1065.4 632.06 1061.66 638.105C1058.58 643.087 1050.89 648.996 1050.89 648.996Z" fill="#693875" stroke="black" stroke-width="3"/>
<path d="M948.5 352.996H975L948.5 648.996H899.5L948.5 352.996Z" fill="white" stroke="black" stroke-width="3"/>
<path d="M948.391 648.997L899.391 648.997C899.391 648.997 885.964 637.705 885.372 627.68C884.769 617.46 887.54 606.609 897.551 604.465C905.083 602.853 912.771 612.348 912.771 612.348C912.771 612.348 918.673 599.922 925.774 599.613C932.952 599.301 939.872 611.436 939.872 611.436C939.872 611.436 945.494 604.616 950.526 604.038C954.781 603.549 957.893 604.312 961.013 607.246C964.877 610.88 964.449 622.434 964.449 622.434C964.449 622.434 963.588 632.066 959.885 638.132C956.833 643.132 948.391 648.997 948.391 648.997Z" fill="#693875" stroke="black" stroke-width="3"/>
<path d="M749.708 373.848C773.075 279.892 817 255.996 817 255.996V305.382C817 305.382 792.817 344.939 785.711 414.803C778.605 484.667 780.5 518.996 780.5 518.996L731.233 512.973C731.233 512.973 729.338 455.757 749.708 373.848Z" fill="white" stroke="black" stroke-width="3"/>
<path d="M731 512.997L780.5 518.997C780.5 518.997 792.282 531.71 791.609 541.73C790.923 551.945 786.81 562.362 776.609 563.23C768.935 563.883 762.5 553.497 762.5 553.497C762.5 553.497 755.084 565.083 748 564.497C740.84 563.905 735.5 550.997 735.5 550.997C735.5 550.997 729.065 557.056 724 556.997C719.718 556.947 716.726 555.799 714 552.497C710.623 548.406 712.5 536.997 712.5 536.997C712.5 536.997 714.564 527.55 719 521.997C722.656 517.42 731 512.997 731 512.997Z" fill="#693875" stroke="black" stroke-width="3"/>
<path d="M1200.29 373.848C1176.93 279.892 1133 255.996 1133 255.996V305.382C1133 305.382 1157.18 344.939 1164.29 414.803C1171.39 484.667 1169.5 518.996 1169.5 518.996L1218.77 512.973C1218.77 512.973 1220.66 455.757 1200.29 373.848Z" fill="white" stroke="black" stroke-width="3"/>
<path d="M1219 512.997L1169.5 518.997C1169.5 518.997 1157.72 531.71 1158.39 541.73C1159.08 551.945 1163.19 562.362 1173.39 563.23C1181.07 563.883 1187.5 553.497 1187.5 553.497C1187.5 553.497 1194.92 565.083 1202 564.497C1209.16 563.905 1214.5 550.997 1214.5 550.997C1214.5 550.997 1220.93 557.056 1226 556.997C1230.28 556.947 1233.27 555.799 1236 552.497C1239.38 548.406 1237.5 536.997 1237.5 536.997C1237.5 536.997 1235.44 527.55 1231 521.997C1227.34 517.42 1219 512.997 1219 512.997Z" fill="#693875" stroke="black" stroke-width="3"/>
<circle cx="898.5" cy="190.496" r="81.5" fill="white" stroke="black" stroke-width="3"/>
<circle cx="898.392" cy="190.496" r="42.5" fill="#693875" stroke="black" stroke-width="3"/>
<circle cx="1051.5" cy="190.496" r="81.5" fill="white" stroke="black" stroke-width="3"/>
<circle cx="1051.39" cy="190.496" r="42.5" fill="#693875" stroke="black" stroke-width="3"/>
<path d="M817 187.996H1133V347.996C1133 361.803 1121.81 372.996 1108 372.996H842C828.193 372.996 817 361.803 817 347.996V187.996Z" fill="white" stroke="black" stroke-width="3"/>
<rect x="841" y="202.996" width="268" height="156" rx="25" fill="black" stroke="black" stroke-width="3"/>
<rect x="859" y="230.996" width="100" height="100" stroke="black" stroke-width="3"/>
<path d="M977 230C977 236.566 975.707 243.068 973.194 249.134C970.682 255.2 966.999 260.712 962.356 265.355C957.713 269.998 952.201 273.681 946.135 276.194C940.068 278.707 933.567 280 927 280C920.434 280 913.933 278.707 907.866 276.194C901.8 273.681 896.288 269.998 891.645 265.355C887.002 260.712 883.319 255.2 880.807 249.134C878.294 243.068 877 236.566 877 230L927 230H977Z" fill="white"/>
<path d="M965 230C965 234.99 964.018 239.932 962.108 244.542C960.198 249.152 957.399 253.341 953.871 256.87C950.342 260.399 946.153 263.198 941.542 265.107C936.932 267.017 931.991 268 927 268C922.01 268 917.069 267.017 912.459 265.107C907.848 263.198 903.659 260.399 900.13 256.87C896.602 253.341 893.803 249.152 891.893 244.542C889.983 239.932 889 234.99 889 230L927 230H965Z" fill="black"/>
<rect x="991" y="230.996" width="100" height="100" stroke="black" stroke-width="3"/>
<path d="M1109 230C1109 236.566 1107.71 243.068 1105.19 249.134C1102.68 255.2 1099 260.712 1094.36 265.355C1089.71 269.998 1084.2 273.681 1078.13 276.194C1072.07 278.707 1065.57 280 1059 280C1052.43 280 1045.93 278.707 1039.87 276.194C1033.8 273.681 1028.29 269.998 1023.65 265.355C1019 260.712 1015.32 255.2 1012.81 249.134C1010.29 243.068 1009 236.566 1009 230L1059 230H1109Z" fill="white"/>
<path d="M1097 230C1097 240.078 1093 249.744 1085.87 256.87C1078.74 263.996 1069.08 268 1059 268C1048.92 268 1039.26 263.996 1032.13 256.87C1025 249.744 1021 240.078 1021 230L1059 230H1097Z" fill="black"/>
<path d="M3548.5 352.996H3575L3548.5 648.996H3499.5L3548.5 352.996Z" fill="white" stroke="black" stroke-width="3" stroke-linecap="round" stroke-linejoin="round"/>
<path d="M3499.11 648.996L3548.61 648.996C3548.61 648.996 3562.26 637.243 3562.79 627.215C3563.33 616.992 3560.5 606.157 3550.47 604.073C3542.93 602.505 3535.3 612.045 3535.3 612.045C3535.3 612.045 3529.32 599.654 3522.22 599.387C3515.04 599.116 3508.19 611.291 3508.19 611.291C3508.19 611.291 3502.53 604.505 3497.5 603.956C3493.24 603.493 3490.13 604.274 3487.03 607.226C3483.19 610.882 3483.68 622.434 3483.68 622.434C3483.68 622.434 3484.6 632.06 3488.34 638.105C3491.42 643.087 3499.11 648.996 3499.11 648.996Z" fill="#693875" stroke="black" stroke-width="3"/>
<path d="M3601.5 352.996H3575L3601.5 648.996H3650.5L3601.5 352.996Z" fill="white" stroke="black" stroke-width="3"/>
<path d="M3601.61 648.997L3650.61 648.997C3650.61 648.997 3664.04 637.705 3664.63 627.68C3665.23 617.46 3662.46 606.609 3652.45 604.465C3644.92 602.853 3637.23 612.348 3637.23 612.348C3637.23 612.348 3631.33 599.922 3624.23 599.613C3617.05 599.301 3610.13 611.436 3610.13 611.436C3610.13 611.436 3604.51 604.616 3599.47 604.038C3595.22 603.549 3592.11 604.312 3588.99 607.246C3585.12 610.88 3585.55 622.434 3585.55 622.434C3585.55 622.434 3586.41 632.066 3590.11 638.132C3593.17 643.132 3601.61 648.997 3601.61 648.997Z" fill="#693875" stroke="black" stroke-width="3"/>
<path d="M3800.29 373.848C3776.93 279.892 3733 255.996 3733 255.996V305.382C3733 305.382 3757.18 344.939 3764.29 414.803C3771.39 484.667 3769.5 518.996 3769.5 518.996L3818.77 512.973C3818.77 512.973 3820.66 455.757 3800.29 373.848Z" fill="white" stroke="black" stroke-width="3"/>
<path d="M3819 512.997L3769.5 518.997C3769.5 518.997 3757.72 531.71 3758.39 541.73C3759.08 551.945 3763.19 562.362 3773.39 563.23C3781.07 563.883 3787.5 553.497 3787.5 553.497C3787.5 553.497 3794.92 565.083 3802 564.497C3809.16 563.905 3814.5 550.997 3814.5 550.997C3814.5 550.997 3820.93 557.056 3826 556.997C3830.28 556.947 3833.27 555.799 3836 552.497C3839.38 548.406 3837.5 536.997 3837.5 536.997C3837.5 536.997 3835.44 527.55 3831 521.997C3827.34 517.42 3819 512.997 3819 512.997Z" fill="#693875" stroke="black" stroke-width="3"/>
<path d="M3349.71 373.848C3373.07 279.892 3417 255.996 3417 255.996V305.382C3417 305.382 3392.82 344.939 3385.71 414.803C3378.61 484.667 3380.5 518.996 3380.5 518.996L3331.23 512.973C3331.23 512.973 3329.34 455.757 3349.71 373.848Z" fill="white" stroke="black" stroke-width="3"/>
<path d="M3331 512.997L3380.5 518.997C3380.5 518.997 3392.28 531.71 3391.61 541.73C3390.92 551.945 3386.81 562.362 3376.61 563.23C3368.93 563.883 3362.5 553.497 3362.5 553.497C3362.5 553.497 3355.08 565.083 3348 564.497C3340.84 563.905 3335.5 550.997 3335.5 550.997C3335.5 550.997 3329.07 557.056 3324 556.997C3319.72 556.947 3316.73 555.799 3314 552.497C3310.62 548.406 3312.5 536.997 3312.5 536.997C3312.5 536.997 3314.56 527.55 3319 521.997C3322.66 517.42 3331 512.997 3331 512.997Z" fill="#693875" stroke="black" stroke-width="3"/>
<circle cx="81.5" cy="81.5" r="81.5" transform="matrix(-1 0 0 1 3733 108.996)" fill="white" stroke="black" stroke-width="3"/>
<circle cx="42.5" cy="42.5" r="42.5" transform="matrix(-1 0 0 1 3694.11 147.996)" fill="#693875" stroke="black" stroke-width="3"/>
<circle cx="81.5" cy="81.5" r="81.5" transform="matrix(-1 0 0 1 3580 108.996)" fill="white" stroke="black" stroke-width="3"/>
<circle cx="42.5" cy="42.5" r="42.5" transform="matrix(-1 0 0 1 3541.11 147.996)" fill="#693875" stroke="black" stroke-width="3"/>
<path d="M3733 187.996H3417V347.996C3417 361.803 3428.19 372.996 3442 372.996H3708C3721.81 372.996 3733 361.803 3733 347.996V187.996Z" fill="white" stroke="black" stroke-width="3"/>
<rect width="268" height="156" rx="25" transform="matrix(-1 0 0 1 3709 202.996)" fill="black" stroke="black" stroke-width="3"/>
<rect width="100" height="100" transform="matrix(-1 0 0 1 3691 230.996)" stroke="black" stroke-width="3"/>
<path d="M3573 230C3573 236.566 3574.29 243.068 3576.81 249.134C3579.32 255.2 3583 260.712 3587.64 265.355C3592.29 269.998 3597.8 273.681 3603.87 276.194C3609.93 278.707 3616.43 280 3623 280C3629.57 280 3636.07 278.707 3642.13 276.194C3648.2 273.681 3653.71 269.998 3658.35 265.355C3663 260.712 3666.68 255.2 3669.19 249.134C3671.71 243.068 3673 236.566 3673 230L3623 230H3573Z" fill="white"/>
<path d="M3585 230C3585 234.99 3585.98 239.932 3587.89 244.542C3589.8 249.152 3592.6 253.341 3596.13 256.87C3599.66 260.399 3603.85 263.198 3608.46 265.107C3613.07 267.017 3618.01 268 3623 268C3627.99 268 3632.93 267.017 3637.54 265.107C3642.15 263.198 3646.34 260.399 3649.87 256.87C3653.4 253.341 3656.2 249.152 3658.11 244.542C3660.02 239.932 3661 234.99 3661 230L3623 230H3585Z" fill="black"/>
<rect width="100" height="100" transform="matrix(-1 0 0 1 3559 230.996)" stroke="black" stroke-width="3"/>
<path d="M3441 230C3441 236.566 3442.29 243.068 3444.81 249.134C3447.32 255.2 3451 260.712 3455.64 265.355C3460.29 269.998 3465.8 273.681 3471.87 276.194C3477.93 278.707 3484.43 280 3491 280C3497.57 280 3504.07 278.707 3510.13 276.194C3516.2 273.681 3521.71 269.998 3526.35 265.355C3531 260.712 3534.68 255.2 3537.19 249.134C3539.71 243.068 3541 236.566 3541 230L3491 230H3441Z" fill="white"/>
<path d="M3453 230C3453 240.078 3457 249.744 3464.13 256.87C3471.26 263.996 3480.92 268 3491 268C3501.08 268 3510.74 263.996 3517.87 256.87C3525 249.744 3529 240.078 3529 230L3491 230H3453Z" fill="black"/>
<path d="M350.922 352.996H324.422L330.922 390.496L350.922 648.996H399.922L358.922 390.496L350.922 352.996Z" fill="white" stroke="black" stroke-width="3" stroke-linecap="round" stroke-linejoin="round"/>
<path d="M400.313 648.996L350.813 648.996C350.813 648.996 337.166 637.243 336.633 627.215C336.09 616.992 338.925 606.157 348.949 604.073C356.49 602.505 364.122 612.045 364.122 612.045C364.122 612.045 370.097 599.654 377.2 599.387C384.38 599.116 391.227 611.291 391.227 611.291C391.227 611.291 396.89 604.505 401.925 603.956C406.183 603.493 409.29 604.274 412.393 607.226C416.235 610.882 415.739 622.434 415.739 622.434C415.739 622.434 414.823 632.06 411.084 638.105C408.002 643.087 400.313 648.996 400.313 648.996Z" fill="#693875" stroke="black" stroke-width="3"/>
<path d="M298.031 352.996H324.531L318.422 390.496L298.031 648.996H249.031L289.422 390.496L298.031 352.996Z" fill="white" stroke="black" stroke-width="3"/>
<path d="M297.922 648.997L248.922 648.997C248.922 648.997 235.495 637.705 234.903 627.68C234.299 617.46 237.071 606.609 247.082 604.465C254.614 602.853 262.302 612.348 262.302 612.348C262.302 612.348 268.204 599.922 275.305 599.613C282.483 599.301 289.402 611.436 289.402 611.436C289.402 611.436 295.025 604.616 300.057 604.038C304.312 603.549 307.424 604.312 310.543 607.246C314.408 610.88 313.979 622.434 313.979 622.434C313.979 622.434 313.119 632.066 309.416 638.132C306.364 643.132 297.922 648.997 297.922 648.997Z" fill="#693875" stroke="black" stroke-width="3"/>
<path d="M549.823 381.848C535.469 271.875 486.96 256.699 482.531 263.996V313.382C487.016 296.427 511.588 334.509 513.82 422.803C516.052 511.097 501.422 519.496 501.422 519.496L549.823 522.996C549.823 522.996 560.747 465.542 549.823 381.848Z" fill="white" stroke="black" stroke-width="3"/>
<path d="M550.309 522.65L501.422 519.496C501.422 519.496 490.265 531.02 485.476 539.847C479.969 549.997 476.813 560.273 491.422 562.996C498.994 564.407 508.422 555.996 508.422 555.996C508.422 555.996 509.851 569.78 516.922 570.496C524.071 571.22 538.954 559.192 538.954 559.192C538.954 559.192 540.432 567.63 545.423 568.496C549.642 569.228 541.597 566.572 545.423 568.496C557.264 574.449 560.241 555.972 560.922 545.997C562.05 529.496 550.614 521.931 550.309 522.65Z" fill="#693875"/>
<path d="M545.423 568.496C557.264 574.449 560.241 555.972 560.922 545.997C562.05 529.496 550.614 521.931 550.309 522.65L501.422 519.496C501.422 519.496 490.265 531.02 485.476 539.847C479.969 549.997 476.813 560.273 491.422 562.996C498.994 564.407 508.422 555.996 508.422 555.996C508.422 555.996 509.851 569.78 516.922 570.496C524.071 571.22 538.954 559.192 538.954 559.192C538.954 559.192 540.432 567.63 545.423 568.496ZM545.423 568.496C549.642 569.228 541.597 566.572 545.423 568.496Z" stroke="black" stroke-width="3"/>
<path d="M100.177 381.945C110.264 271.864 157.024 262.861 167.469 264.093V313.479C162.984 296.524 138.412 334.606 136.18 422.9C133.948 511.194 148.578 519.593 148.578 519.593L100.177 523.093C100.177 523.093 92.4757 465.997 100.177 381.945Z" fill="white" stroke="black" stroke-width="3"/>
<path d="M99.6916 522.748L148.578 519.594C148.578 519.594 159.736 531.118 164.525 539.945C170.031 550.095 173.187 560.371 158.578 563.094C151.006 564.505 141.578 556.094 141.578 556.094C141.578 556.094 140.15 569.878 133.078 570.594C125.93 571.317 111.047 559.29 111.047 559.29C111.047 559.29 109.569 567.727 104.578 568.593C100.358 569.325 108.404 566.67 104.578 568.593C92.7361 574.547 89.7599 556.07 89.0782 546.094C87.9505 529.594 99.3862 522.029 99.6916 522.748Z" fill="#693875"/>
<path d="M104.578 568.593C92.7361 574.547 89.7599 556.07 89.0782 546.094C87.9505 529.594 99.3862 522.029 99.6916 522.748L148.578 519.594C148.578 519.594 159.736 531.118 164.525 539.945C170.031 550.095 173.187 560.371 158.578 563.094C151.006 564.505 141.578 556.094 141.578 556.094C141.578 556.094 140.15 569.878 133.078 570.594C125.93 571.317 111.047 559.29 111.047 559.29C111.047 559.29 109.569 567.727 104.578 568.593ZM104.578 568.593C100.358 569.325 108.404 566.67 104.578 568.593Z" stroke="black" stroke-width="3"/>
<path d="M329.422 207.496C329.422 252.507 292.933 288.996 247.922 288.996C202.911 288.996 166.422 252.507 166.422 207.496C163.336 163.505 201.319 126.522 247.922 125.996C292.933 125.996 329.422 162.485 329.422 207.496Z" fill="white" stroke="black" stroke-width="3"/>
<circle cx="247.813" cy="207.496" r="42.5" fill="#693875" stroke="black" stroke-width="3"/>
<path d="M482.422 200.496C482.743 245.507 445.933 295.997 400.922 295.997C355.911 295.997 319.422 259.508 319.422 214.497C319.422 169.485 362.922 133.996 400.922 132.997C400.543 132.111 481.983 138.971 482.422 200.496Z" fill="white" stroke="black" stroke-width="3"/>
<circle cx="400.813" cy="214.496" r="42.5" fill="#693875" stroke="black" stroke-width="3"/>
<path d="M166.531 195.996H482.531V355.996C482.531 369.803 471.338 380.996 457.531 380.996H191.531C177.724 380.996 166.531 369.803 166.531 355.996V195.996Z" fill="white" stroke="black" stroke-width="3"/>
<rect x="190.531" y="210.996" width="268" height="156" rx="25" fill="black" stroke="black" stroke-width="3"/>
<rect x="195.422" y="263.996" width="100" height="100" stroke="black" stroke-width="3"/>
<circle cx="276.108" cy="263" r="50" fill="white"/>
<circle cx="276.108" cy="263" r="38" fill="black"/>
<path d="M325.988 211.001C326.09 217.566 324.897 224.087 322.478 230.191C320.06 236.296 316.462 241.864 311.892 246.578C307.321 251.292 301.867 255.06 295.84 257.666C289.813 260.273 283.332 261.666 276.767 261.768C270.202 261.869 263.681 260.677 257.576 258.258C251.472 255.839 245.904 252.242 241.19 247.672C236.475 243.101 232.708 237.647 230.101 231.62C227.495 225.593 226.102 219.112 226 212.547L275.994 211.774L325.988 211.001Z" fill="black"/>
<rect x="327.422" y="263.996" width="100" height="100" stroke="black" stroke-width="3"/>
<circle cx="408.108" cy="263" r="50" fill="white"/>
<circle cx="408.108" cy="263" r="38" fill="black"/>
<path d="M446 215C446.102 221.565 456.897 224.087 454.478 230.191C452.06 236.296 448.462 241.864 443.892 246.578C439.321 251.292 433.867 255.06 427.84 257.666C421.814 260.273 415.332 261.666 408.767 261.768C402.202 261.869 395.681 260.677 389.576 258.258C383.472 255.839 377.904 252.242 373.19 247.672C368.475 243.101 364.708 237.647 362.101 231.62C359.495 225.593 358.102 219.112 358 212.547L407.994 211.774L446 215Z" fill="black"/>
<path d="M2301.5 352.996H2275L2301.5 648.996H2350.5L2301.5 352.996Z" fill="white" stroke="black" stroke-width="3" stroke-linecap="round" stroke-linejoin="round"/>
<path d="M2350.89 648.996L2301.39 648.996C2301.39 648.996 2287.74 637.243 2287.21 627.215C2286.67 616.992 2289.5 606.157 2299.53 604.073C2307.07 602.505 2314.7 612.045 2314.7 612.045C2314.7 612.045 2320.68 599.654 2327.78 599.387C2334.96 599.116 2341.81 611.291 2341.81 611.291C2341.81 611.291 2347.47 604.505 2352.5 603.956C2356.76 603.493 2359.87 604.274 2362.97 607.226C2366.81 610.882 2366.32 622.434 2366.32 622.434C2366.32 622.434 2365.4 632.06 2361.66 638.105C2358.58 643.087 2350.89 648.996 2350.89 648.996Z" fill="#693875" stroke="black" stroke-width="3"/>
<path d="M2248.5 352.996H2275L2248.5 648.996H2199.5L2248.5 352.996Z" fill="white" stroke="black" stroke-width="3"/>
<path d="M2248.39 648.997L2199.39 648.997C2199.39 648.997 2185.96 637.705 2185.37 627.68C2184.77 617.46 2187.54 606.609 2197.55 604.465C2205.08 602.853 2212.77 612.348 2212.77 612.348C2212.77 612.348 2218.67 599.922 2225.77 599.613C2232.95 599.301 2239.87 611.436 2239.87 611.436C2239.87 611.436 2245.49 604.616 2250.53 604.038C2254.78 603.549 2257.89 604.312 2261.01 607.246C2264.88 610.88 2264.45 622.434 2264.45 622.434C2264.45 622.434 2263.59 632.066 2259.89 638.132C2256.83 643.132 2248.39 648.997 2248.39 648.997Z" fill="#693875" stroke="black" stroke-width="3"/>
<path d="M2049.71 373.848C2073.07 279.892 2117 255.996 2117 255.996V305.382C2117 305.382 2092.82 344.939 2085.71 414.803C2078.61 484.667 2080.5 518.996 2080.5 518.996L2031.23 512.973C2031.23 512.973 2029.34 455.757 2049.71 373.848Z" fill="white" stroke="black" stroke-width="3"/>
<path d="M2031 512.997L2080.5 518.997C2080.5 518.997 2092.28 531.71 2091.61 541.73C2090.92 551.945 2086.81 562.362 2076.61 563.23C2068.93 563.883 2062.5 553.497 2062.5 553.497C2062.5 553.497 2055.08 565.083 2048 564.497C2040.84 563.905 2035.5 550.997 2035.5 550.997C2035.5 550.997 2029.07 557.056 2024 556.997C2019.72 556.947 2016.73 555.799 2014 552.497C2010.62 548.406 2012.5 536.997 2012.5 536.997C2012.5 536.997 2014.56 527.55 2019 521.997C2022.66 517.42 2031 512.997 2031 512.997Z" fill="#693875" stroke="black" stroke-width="3"/>
<path d="M2500.29 373.848C2476.93 279.892 2433 255.996 2433 255.996V305.382C2433 305.382 2457.18 344.939 2464.29 414.803C2471.39 484.667 2469.5 518.996 2469.5 518.996L2518.77 512.973C2518.77 512.973 2520.66 455.757 2500.29 373.848Z" fill="white" stroke="black" stroke-width="3"/>
<path d="M2519 512.997L2469.5 518.997C2469.5 518.997 2457.72 531.71 2458.39 541.73C2459.08 551.945 2463.19 562.362 2473.39 563.23C2481.07 563.883 2487.5 553.497 2487.5 553.497C2487.5 553.497 2494.92 565.083 2502 564.497C2509.16 563.905 2514.5 550.997 2514.5 550.997C2514.5 550.997 2520.93 557.056 2526 556.997C2530.28 556.947 2533.27 555.799 2536 552.497C2539.38 548.406 2537.5 536.997 2537.5 536.997C2537.5 536.997 2535.44 527.55 2531 521.997C2527.34 517.42 2519 512.997 2519 512.997Z" fill="#693875" stroke="black" stroke-width="3"/>
<circle cx="2198.5" cy="190.496" r="81.5" fill="white" stroke="black" stroke-width="3"/>
<circle cx="2198.39" cy="190.496" r="42.5" fill="#693875" stroke="black" stroke-width="3"/>
<circle cx="2351.5" cy="190.496" r="81.5" fill="white" stroke="black" stroke-width="3"/>
<circle cx="2351.39" cy="190.496" r="42.5" fill="#693875" stroke="black" stroke-width="3"/>
<path d="M2117 187.996H2433V347.996C2433 361.803 2421.81 372.996 2408 372.996H2142C2128.19 372.996 2117 361.803 2117 347.996V187.996Z" fill="white" stroke="black" stroke-width="3"/>
<rect x="2141" y="202.996" width="268" height="156" rx="25" fill="black" stroke="black" stroke-width="3"/>
<rect x="2159" y="230.996" width="100" height="100" stroke="black" stroke-width="3"/>
<circle cx="2212.11" cy="254.945" r="50" fill="white"/>
<circle cx="2212.11" cy="254.945" r="38" fill="black"/>
<path d="M2261.99 202.946C2262.09 209.511 2260.9 216.032 2258.48 222.137C2256.06 228.241 2252.46 233.809 2247.89 238.523C2243.32 243.238 2237.87 247.005 2231.84 249.612C2225.81 252.218 2219.33 253.612 2212.77 253.713C2206.2 253.815 2199.68 252.622 2193.58 250.203C2187.47 247.785 2181.9 244.187 2177.19 239.617C2172.48 235.046 2168.71 229.592 2166.1 223.565C2163.5 217.539 2162.1 211.057 2162 204.492L2211.99 203.719L2261.99 202.946Z" fill="black"/>
<rect x="2291" y="230.996" width="100" height="100" stroke="black" stroke-width="3"/>
<circle cx="2344.11" cy="254.945" r="50" fill="white"/>
<circle cx="2344.11" cy="254.945" r="38" fill="black"/>
<path d="M2381 207.445C2381.1 214.011 2392.9 216.032 2390.48 222.137C2388.06 228.241 2384.46 233.809 2379.89 238.523C2375.32 243.238 2369.87 247.005 2363.84 249.612C2357.81 252.218 2351.33 253.612 2344.77 253.713C2338.2 253.815 2331.68 252.622 2325.58 250.203C2319.47 247.785 2313.9 244.187 2309.19 239.617C2304.48 235.046 2300.71 229.592 2298.1 223.565C2295.5 217.539 2294.1 211.057 2294 204.492L2343.99 203.719L2381 207.445Z" fill="black"/>
<path d="M4901.5 352.996H4875L4901.5 648.996H4950.5L4901.5 352.996Z" fill="white" stroke="black" stroke-width="3" stroke-linecap="round" stroke-linejoin="round"/>
<path d="M4950.89 648.996L4901.39 648.996C4901.39 648.996 4887.74 637.243 4887.21 627.215C4886.67 616.992 4889.5 606.157 4899.53 604.073C4907.07 602.505 4914.7 612.045 4914.7 612.045C4914.7 612.045 4920.68 599.654 4927.78 599.387C4934.96 599.116 4941.81 611.291 4941.81 611.291C4941.81 611.291 4947.47 604.505 4952.5 603.956C4956.76 603.493 4959.87 604.274 4962.97 607.226C4966.81 610.882 4966.32 622.434 4966.32 622.434C4966.32 622.434 4965.4 632.06 4961.66 638.105C4958.58 643.087 4950.89 648.996 4950.89 648.996Z" fill="#693875" stroke="black" stroke-width="3"/>
<path d="M4848.5 352.996H4875L4848.5 648.996H4799.5L4848.5 352.996Z" fill="white" stroke="black" stroke-width="3"/>
<path d="M4848.39 648.997L4799.39 648.997C4799.39 648.997 4785.96 637.705 4785.37 627.68C4784.77 617.46 4787.54 606.609 4797.55 604.465C4805.08 602.853 4812.77 612.348 4812.77 612.348C4812.77 612.348 4818.67 599.922 4825.77 599.613C4832.95 599.301 4839.87 611.436 4839.87 611.436C4839.87 611.436 4845.49 604.616 4850.53 604.038C4854.78 603.549 4857.89 604.312 4861.01 607.246C4864.88 610.88 4864.45 622.434 4864.45 622.434C4864.45 622.434 4863.59 632.066 4859.89 638.132C4856.83 643.132 4848.39 648.997 4848.39 648.997Z" fill="#693875" stroke="black" stroke-width="3"/>
<path d="M4649.71 373.848C4673.07 279.892 4717 255.996 4717 255.996V305.382C4717 305.382 4692.82 344.939 4685.71 414.803C4678.61 484.667 4680.5 518.996 4680.5 518.996L4631.23 512.973C4631.23 512.973 4629.34 455.757 4649.71 373.848Z" fill="white" stroke="black" stroke-width="3"/>
<path d="M4631 512.997L4680.5 518.997C4680.5 518.997 4692.28 531.71 4691.61 541.73C4690.92 551.945 4686.81 562.362 4676.61 563.23C4668.93 563.883 4662.5 553.497 4662.5 553.497C4662.5 553.497 4655.08 565.083 4648 564.497C4640.84 563.905 4635.5 550.997 4635.5 550.997C4635.5 550.997 4629.07 557.056 4624 556.997C4619.72 556.947 4616.73 555.799 4614 552.497C4610.62 548.406 4612.5 536.997 4612.5 536.997C4612.5 536.997 4614.56 527.55 4619 521.997C4622.66 517.42 4631 512.997 4631 512.997Z" fill="#693875" stroke="black" stroke-width="3"/>
<path d="M5100.29 373.848C5076.93 279.892 5033 255.996 5033 255.996V305.382C5033 305.382 5057.18 344.939 5064.29 414.803C5071.39 484.667 5069.5 518.996 5069.5 518.996L5118.77 512.973C5118.77 512.973 5120.66 455.757 5100.29 373.848Z" fill="white" stroke="black" stroke-width="3"/>
<path d="M5119 512.997L5069.5 518.997C5069.5 518.997 5057.72 531.71 5058.39 541.73C5059.08 551.945 5063.19 562.362 5073.39 563.23C5081.07 563.883 5087.5 553.497 5087.5 553.497C5087.5 553.497 5094.92 565.083 5102 564.497C5109.16 563.905 5114.5 550.997 5114.5 550.997C5114.5 550.997 5120.93 557.056 5126 556.997C5130.28 556.947 5133.27 555.799 5136 552.497C5139.38 548.406 5137.5 536.997 5137.5 536.997C5137.5 536.997 5135.44 527.55 5131 521.997C5127.34 517.42 5119 512.997 5119 512.997Z" fill="#693875" stroke="black" stroke-width="3"/>
<circle cx="4798.5" cy="190.496" r="81.5" fill="white" stroke="black" stroke-width="3"/>
<circle cx="4798.39" cy="190.496" r="42.5" fill="#693875" stroke="black" stroke-width="3"/>
<circle cx="4951.5" cy="190.496" r="81.5" fill="white" stroke="black" stroke-width="3"/>
<circle cx="4951.39" cy="190.496" r="42.5" fill="#693875" stroke="black" stroke-width="3"/>
<path d="M4717 187.996H5033V347.996C5033 361.803 5021.81 372.996 5008 372.996H4742C4728.19 372.996 4717 361.803 4717 347.996V187.996Z" fill="white" stroke="black" stroke-width="3"/>
<rect x="4741" y="202.996" width="268" height="156" rx="25" fill="black" stroke="black" stroke-width="3"/>
<rect x="4759" y="230.996" width="100" height="100" stroke="black" stroke-width="3"/>
<circle cx="4812.11" cy="254.945" r="50" fill="white"/>
<circle cx="4812.11" cy="254.945" r="38" fill="black"/>
<path d="M4861.99 202.946C4862.09 209.511 4860.9 216.032 4858.48 222.137C4856.06 228.241 4852.46 233.809 4847.89 238.523C4843.32 243.238 4837.87 247.005 4831.84 249.612C4825.81 252.218 4819.33 253.612 4812.77 253.713C4806.2 253.815 4799.68 252.622 4793.58 250.203C4787.47 247.785 4781.9 244.187 4777.19 239.617C4772.48 235.046 4768.71 229.592 4766.1 223.565C4763.5 217.539 4762.1 211.057 4762 204.492L4811.99 203.719L4861.99 202.946Z" fill="black"/>
<rect x="4891" y="230.996" width="100" height="100" stroke="black" stroke-width="3"/>
<circle cx="4944.11" cy="254.945" r="50" fill="white"/>
<circle cx="4944.11" cy="254.945" r="38" fill="black"/>
<path d="M4981 207.445C4981.1 214.011 4992.9 216.032 4990.48 222.137C4988.06 228.241 4984.46 233.809 4979.89 238.523C4975.32 243.238 4969.87 247.005 4963.84 249.612C4957.81 252.218 4951.33 253.612 4944.77 253.713C4938.2 253.815 4931.68 252.622 4925.58 250.203C4919.47 247.785 4913.9 244.187 4909.19 239.617C4904.48 235.046 4900.71 229.592 4898.1 223.565C4895.5 217.539 4894.1 211.057 4894 204.492L4943.99 203.719L4981 207.445Z" fill="black"/>
</svg>
