<svg width="2600" height="650" viewBox="0 0 2600 650" fill="none" xmlns="http://www.w3.org/2000/svg">
<g clip-path="url(#clip0_223_41484)">
<path d="M2301.5 352.996H2275L2301.5 648.996H2350.5L2301.5 352.996Z" fill="white" stroke="black" stroke-width="3" stroke-linecap="round" stroke-linejoin="round"/>
<path d="M2350.89 648.996L2301.39 648.996C2301.39 648.996 2287.74 637.243 2287.21 627.215C2286.67 616.992 2289.5 606.157 2299.53 604.073C2307.07 602.505 2314.7 612.045 2314.7 612.045C2314.7 612.045 2320.68 599.654 2327.78 599.387C2334.96 599.116 2341.81 611.291 2341.81 611.291C2341.81 611.291 2347.47 604.505 2352.5 603.956C2356.76 603.493 2359.87 604.274 2362.97 607.226C2366.81 610.882 2366.32 622.434 2366.32 622.434C2366.32 622.434 2365.4 632.06 2361.66 638.105C2358.58 643.087 2350.89 648.996 2350.89 648.996Z" fill="#693875" stroke="black" stroke-width="3"/>
<path d="M2248.5 352.996H2275L2248.5 648.996H2199.5L2248.5 352.996Z" fill="white" stroke="black" stroke-width="3"/>
<path d="M2248.39 648.997L2199.39 648.997C2199.39 648.997 2185.96 637.705 2185.37 627.68C2184.77 617.46 2187.54 606.609 2197.55 604.465C2205.08 602.853 2212.77 612.348 2212.77 612.348C2212.77 612.348 2218.67 599.922 2225.77 599.613C2232.95 599.301 2239.87 611.436 2239.87 611.436C2239.87 611.436 2245.49 604.616 2250.53 604.038C2254.78 603.549 2257.89 604.312 2261.01 607.246C2264.88 610.88 2264.45 622.434 2264.45 622.434C2264.45 622.434 2263.59 632.066 2259.89 638.132C2256.83 643.132 2248.39 648.997 2248.39 648.997Z" fill="#693875" stroke="black" stroke-width="3"/>
<path d="M2049.71 373.848C2073.07 279.892 2117 255.996 2117 255.996V305.382C2117 305.382 2092.82 344.939 2085.71 414.803C2078.61 484.667 2080.5 518.996 2080.5 518.996L2031.23 512.973C2031.23 512.973 2029.34 455.757 2049.71 373.848Z" fill="white" stroke="black" stroke-width="3"/>
<path d="M2031 512.997L2080.5 518.997C2080.5 518.997 2092.28 531.71 2091.61 541.73C2090.92 551.945 2086.81 562.362 2076.61 563.23C2068.93 563.883 2062.5 553.497 2062.5 553.497C2062.5 553.497 2055.08 565.083 2048 564.497C2040.84 563.905 2035.5 550.997 2035.5 550.997C2035.5 550.997 2029.07 557.056 2024 556.997C2019.72 556.947 2016.73 555.799 2014 552.497C2010.62 548.406 2012.5 536.997 2012.5 536.997C2012.5 536.997 2014.56 527.55 2019 521.997C2022.66 517.42 2031 512.997 2031 512.997Z" fill="#693875" stroke="black" stroke-width="3"/>
<path d="M2500.29 373.848C2476.93 279.892 2433 255.996 2433 255.996V305.382C2433 305.382 2457.18 344.939 2464.29 414.803C2471.39 484.667 2469.5 518.996 2469.5 518.996L2518.77 512.973C2518.77 512.973 2520.66 455.757 2500.29 373.848Z" fill="white" stroke="black" stroke-width="3"/>
<path d="M2519 512.997L2469.5 518.997C2469.5 518.997 2457.72 531.71 2458.39 541.73C2459.08 551.945 2463.19 562.362 2473.39 563.23C2481.07 563.883 2487.5 553.497 2487.5 553.497C2487.5 553.497 2494.92 565.083 2502 564.497C2509.16 563.905 2514.5 550.997 2514.5 550.997C2514.5 550.997 2520.93 557.056 2526 556.997C2530.28 556.947 2533.27 555.799 2536 552.497C2539.38 548.406 2537.5 536.997 2537.5 536.997C2537.5 536.997 2535.44 527.55 2531 521.997C2527.34 517.42 2519 512.997 2519 512.997Z" fill="#693875" stroke="black" stroke-width="3"/>
<circle cx="2198.5" cy="190.496" r="81.5" fill="white" stroke="black" stroke-width="3"/>
<circle cx="2198.39" cy="190.496" r="42.5" fill="#693875" stroke="black" stroke-width="3"/>
<circle cx="2351.5" cy="190.496" r="81.5" fill="white" stroke="black" stroke-width="3"/>
<circle cx="2351.39" cy="190.496" r="42.5" fill="#693875" stroke="black" stroke-width="3"/>
<path d="M2117 187.996H2433V347.996C2433 361.803 2421.81 372.996 2408 372.996H2142C2128.19 372.996 2117 361.803 2117 347.996V187.996Z" fill="white" stroke="black" stroke-width="3"/>
<rect x="2141" y="202.996" width="268" height="156" rx="25" fill="black" stroke="black" stroke-width="3"/>
<rect x="2159" y="230.996" width="100" height="100" stroke="black" stroke-width="3"/>
<circle cx="2209" cy="307.996" r="50" fill="white"/>
<circle cx="2209" cy="307.996" r="38" fill="black"/>
<path d="M2258.88 255.997C2258.98 262.562 2257.79 269.083 2255.37 275.187C2252.95 281.292 2249.35 286.86 2244.78 291.574C2240.21 296.288 2234.76 300.056 2228.73 302.662C2222.7 305.269 2216.22 306.662 2209.66 306.764C2203.09 306.865 2196.57 305.673 2190.47 303.254C2184.36 300.836 2178.79 297.238 2174.08 292.668C2169.37 288.097 2165.6 282.643 2162.99 276.616C2160.39 270.589 2158.99 264.108 2158.89 257.543L2208.89 256.77L2258.88 255.997Z" fill="black"/>
<rect x="2291" y="230.996" width="100" height="100" stroke="black" stroke-width="3"/>
<circle cx="2341" cy="307.996" r="50" fill="white"/>
<circle cx="2341" cy="307.996" r="38" fill="black"/>
<path d="M2390.88 255.997C2390.98 262.562 2389.79 269.083 2387.37 275.187C2384.95 281.292 2381.35 286.86 2376.78 291.574C2372.21 296.288 2366.76 300.056 2360.73 302.662C2354.7 305.269 2348.22 306.662 2341.66 306.764C2335.09 306.865 2328.57 305.673 2322.47 303.254C2316.36 300.836 2310.79 297.238 2306.08 292.668C2301.37 288.097 2297.6 282.643 2294.99 276.616C2292.39 270.589 2290.99 264.108 2290.89 257.543L2340.89 256.77L2390.88 255.997Z" fill="black"/>
<path d="M1650.92 352.996H1624.42L1630.92 390.496L1650.92 648.996H1699.92L1658.92 390.496L1650.92 352.996Z" fill="white" stroke="black" stroke-width="3" stroke-linecap="round" stroke-linejoin="round"/>
<path d="M1700.31 648.996L1650.81 648.996C1650.81 648.996 1637.17 637.243 1636.63 627.215C1636.09 616.992 1638.93 606.157 1648.95 604.073C1656.49 602.505 1664.12 612.045 1664.12 612.045C1664.12 612.045 1670.1 599.654 1677.2 599.387C1684.38 599.116 1691.23 611.291 1691.23 611.291C1691.23 611.291 1696.89 604.505 1701.93 603.956C1706.18 603.493 1709.29 604.274 1712.39 607.226C1716.24 610.882 1715.74 622.434 1715.74 622.434C1715.74 622.434 1714.82 632.06 1711.08 638.105C1708 643.087 1700.31 648.996 1700.31 648.996Z" fill="#693875" stroke="black" stroke-width="3"/>
<path d="M1598.03 352.996H1624.53L1618.42 390.496L1598.03 648.996H1549.03L1589.42 390.496L1598.03 352.996Z" fill="white" stroke="black" stroke-width="3"/>
<path d="M1597.92 648.997L1548.92 648.997C1548.92 648.997 1535.49 637.705 1534.9 627.68C1534.3 617.46 1537.07 606.609 1547.08 604.465C1554.61 602.853 1562.3 612.348 1562.3 612.348C1562.3 612.348 1568.2 599.922 1575.3 599.613C1582.48 599.301 1589.4 611.436 1589.4 611.436C1589.4 611.436 1595.02 604.616 1600.06 604.038C1604.31 603.549 1607.42 604.312 1610.54 607.246C1614.41 610.88 1613.98 622.434 1613.98 622.434C1613.98 622.434 1613.12 632.066 1609.42 638.132C1606.36 643.132 1597.92 648.997 1597.92 648.997Z" fill="#693875" stroke="black" stroke-width="3"/>
<path d="M1849.82 381.848C1835.47 271.875 1786.96 256.699 1782.53 263.996V313.382C1787.02 296.427 1811.59 334.509 1813.82 422.803C1816.05 511.097 1801.42 519.496 1801.42 519.496L1849.82 522.996C1849.82 522.996 1860.75 465.542 1849.82 381.848Z" fill="white" stroke="black" stroke-width="3"/>
<path d="M1850.31 522.65L1801.42 519.496C1801.42 519.496 1790.26 531.02 1785.48 539.847C1779.97 549.997 1776.81 560.273 1791.42 562.996C1798.99 564.407 1808.42 555.996 1808.42 555.996C1808.42 555.996 1809.85 569.78 1816.92 570.496C1824.07 571.22 1838.95 559.192 1838.95 559.192C1838.95 559.192 1840.43 567.63 1845.42 568.496C1849.64 569.228 1841.6 566.572 1845.42 568.496C1857.26 574.449 1860.24 555.972 1860.92 545.997C1862.05 529.496 1850.61 521.931 1850.31 522.65Z" fill="#693875"/>
<path d="M1845.42 568.496C1857.26 574.449 1860.24 555.972 1860.92 545.997C1862.05 529.496 1850.61 521.931 1850.31 522.65L1801.42 519.496C1801.42 519.496 1790.26 531.02 1785.48 539.847C1779.97 549.997 1776.81 560.273 1791.42 562.996C1798.99 564.407 1808.42 555.996 1808.42 555.996C1808.42 555.996 1809.85 569.78 1816.92 570.496C1824.07 571.22 1838.95 559.192 1838.95 559.192C1838.95 559.192 1840.43 567.63 1845.42 568.496ZM1845.42 568.496C1849.64 569.228 1841.6 566.572 1845.42 568.496Z" stroke="black" stroke-width="3"/>
<path d="M1400.18 381.945C1410.26 271.864 1457.02 262.861 1467.47 264.093V313.479C1462.98 296.524 1438.41 334.606 1436.18 422.9C1433.95 511.194 1448.58 519.593 1448.58 519.593L1400.18 523.093C1400.18 523.093 1392.48 465.997 1400.18 381.945Z" fill="white" stroke="black" stroke-width="3"/>
<path d="M1399.69 522.748L1448.58 519.594C1448.58 519.594 1459.74 531.118 1464.52 539.945C1470.03 550.095 1473.19 560.371 1458.58 563.094C1451.01 564.505 1441.58 556.094 1441.58 556.094C1441.58 556.094 1440.15 569.878 1433.08 570.594C1425.93 571.317 1411.05 559.29 1411.05 559.29C1411.05 559.29 1409.57 567.727 1404.58 568.593C1400.36 569.325 1408.4 566.67 1404.58 568.593C1392.74 574.547 1389.76 556.07 1389.08 546.094C1387.95 529.594 1399.39 522.029 1399.69 522.748Z" fill="#693875"/>
<path d="M1404.58 568.593C1392.74 574.547 1389.76 556.07 1389.08 546.094C1387.95 529.594 1399.39 522.029 1399.69 522.748L1448.58 519.594C1448.58 519.594 1459.74 531.118 1464.52 539.945C1470.03 550.095 1473.19 560.371 1458.58 563.094C1451.01 564.505 1441.58 556.094 1441.58 556.094C1441.58 556.094 1440.15 569.878 1433.08 570.594C1425.93 571.317 1411.05 559.29 1411.05 559.29C1411.05 559.29 1409.57 567.727 1404.58 568.593ZM1404.58 568.593C1400.36 569.325 1408.4 566.67 1404.58 568.593Z" stroke="black" stroke-width="3"/>
<path d="M1629.42 207.496C1629.42 252.507 1592.93 288.996 1547.92 288.996C1502.91 288.996 1466.42 252.507 1466.42 207.496C1463.34 163.505 1501.32 126.522 1547.92 125.996C1592.93 125.996 1629.42 162.485 1629.42 207.496Z" fill="white" stroke="black" stroke-width="3"/>
<circle cx="1547.81" cy="207.496" r="42.5" fill="#693875" stroke="black" stroke-width="3"/>
<path d="M1782.42 200.496C1782.74 245.507 1745.93 295.997 1700.92 295.997C1655.91 295.997 1619.42 259.508 1619.42 214.497C1619.42 169.485 1662.92 133.996 1700.92 132.997C1700.54 132.111 1781.98 138.971 1782.42 200.496Z" fill="white" stroke="black" stroke-width="3"/>
<circle cx="1700.81" cy="214.496" r="42.5" fill="#693875" stroke="black" stroke-width="3"/>
<path d="M1466.53 195.996H1782.53V355.996C1782.53 369.803 1771.34 380.996 1757.53 380.996H1491.53C1477.72 380.996 1466.53 369.803 1466.53 355.996V195.996Z" fill="white" stroke="black" stroke-width="3"/>
<rect x="1490.53" y="210.996" width="268" height="156" rx="25" fill="black" stroke="black" stroke-width="3"/>
<rect x="1521.42" y="263.996" width="100" height="100" stroke="black" stroke-width="3"/>
<circle cx="1571.42" cy="313.996" r="50" fill="white"/>
<circle cx="1571.42" cy="313.996" r="38" fill="black"/>
<path d="M1621.3 261.997C1621.4 268.562 1620.21 275.083 1617.79 281.187C1615.37 287.292 1611.78 292.86 1607.21 297.574C1602.63 302.288 1597.18 306.056 1591.15 308.662C1585.13 311.269 1578.65 312.662 1572.08 312.764C1565.52 312.865 1558.99 311.673 1552.89 309.254C1546.79 306.836 1541.22 303.238 1536.5 298.668C1531.79 294.097 1528.02 288.643 1525.41 282.616C1522.81 276.589 1521.42 270.108 1521.31 263.543L1571.31 262.77L1621.3 261.997Z" fill="black"/>
<rect x="1653.42" y="263.996" width="100" height="100" stroke="black" stroke-width="3"/>
<circle cx="1703.42" cy="313.996" r="50" fill="white"/>
<circle cx="1703.42" cy="313.996" r="38" fill="black"/>
<path d="M1753.3 261.997C1753.4 268.562 1752.21 275.083 1749.79 281.187C1747.37 287.292 1743.78 292.86 1739.21 297.574C1734.63 302.288 1729.18 306.056 1723.15 308.662C1717.13 311.269 1710.65 312.662 1704.08 312.764C1697.52 312.865 1690.99 311.673 1684.89 309.254C1678.79 306.836 1673.22 303.238 1668.5 298.668C1663.79 294.097 1660.02 288.643 1657.41 282.616C1654.81 276.589 1653.42 270.108 1653.31 263.543L1703.31 262.77L1753.3 261.997Z" fill="black"/>
<path d="M1001.5 352.996H975L1001.5 648.996H1050.5L1001.5 352.996Z" fill="white" stroke="black" stroke-width="3" stroke-linecap="round" stroke-linejoin="round"/>
<path d="M1050.89 648.996L1001.39 648.996C1001.39 648.996 987.744 637.243 987.211 627.215C986.668 616.992 989.503 606.157 999.527 604.073C1007.07 602.505 1014.7 612.045 1014.7 612.045C1014.7 612.045 1020.68 599.654 1027.78 599.387C1034.96 599.116 1041.81 611.291 1041.81 611.291C1041.81 611.291 1047.47 604.505 1052.5 603.956C1056.76 603.493 1059.87 604.274 1062.97 607.226C1066.81 610.882 1066.32 622.434 1066.32 622.434C1066.32 622.434 1065.4 632.06 1061.66 638.105C1058.58 643.087 1050.89 648.996 1050.89 648.996Z" fill="#693875" stroke="black" stroke-width="3"/>
<path d="M948.5 352.996H975L948.5 648.996H899.5L948.5 352.996Z" fill="white" stroke="black" stroke-width="3"/>
<path d="M948.391 648.997L899.391 648.997C899.391 648.997 885.964 637.705 885.372 627.68C884.769 617.46 887.54 606.609 897.551 604.465C905.083 602.853 912.771 612.348 912.771 612.348C912.771 612.348 918.673 599.922 925.774 599.613C932.952 599.301 939.872 611.436 939.872 611.436C939.872 611.436 945.494 604.616 950.526 604.038C954.781 603.549 957.893 604.312 961.013 607.246C964.877 610.88 964.449 622.434 964.449 622.434C964.449 622.434 963.588 632.066 959.885 638.132C956.833 643.132 948.391 648.997 948.391 648.997Z" fill="#693875" stroke="black" stroke-width="3"/>
<path d="M749.708 373.848C773.075 279.892 817 255.996 817 255.996V305.382C817 305.382 792.817 344.939 785.711 414.803C778.605 484.667 780.5 518.996 780.5 518.996L731.233 512.973C731.233 512.973 729.338 455.757 749.708 373.848Z" fill="white" stroke="black" stroke-width="3"/>
<path d="M731 512.997L780.5 518.997C780.5 518.997 792.282 531.71 791.609 541.73C790.923 551.945 786.81 562.362 776.609 563.23C768.935 563.883 762.5 553.497 762.5 553.497C762.5 553.497 755.084 565.083 748 564.497C740.84 563.905 735.5 550.997 735.5 550.997C735.5 550.997 729.065 557.056 724 556.997C719.718 556.947 716.726 555.799 714 552.497C710.623 548.406 712.5 536.997 712.5 536.997C712.5 536.997 714.564 527.55 719 521.997C722.656 517.42 731 512.997 731 512.997Z" fill="#693875" stroke="black" stroke-width="3"/>
<path d="M1200.29 373.848C1176.93 279.892 1133 255.996 1133 255.996V305.382C1133 305.382 1157.18 344.939 1164.29 414.803C1171.39 484.667 1169.5 518.996 1169.5 518.996L1218.77 512.973C1218.77 512.973 1220.66 455.757 1200.29 373.848Z" fill="white" stroke="black" stroke-width="3"/>
<path d="M1219 512.997L1169.5 518.997C1169.5 518.997 1157.72 531.71 1158.39 541.73C1159.08 551.945 1163.19 562.362 1173.39 563.23C1181.07 563.883 1187.5 553.497 1187.5 553.497C1187.5 553.497 1194.92 565.083 1202 564.497C1209.16 563.905 1214.5 550.997 1214.5 550.997C1214.5 550.997 1220.93 557.056 1226 556.997C1230.28 556.947 1233.27 555.799 1236 552.497C1239.38 548.406 1237.5 536.997 1237.5 536.997C1237.5 536.997 1235.44 527.55 1231 521.997C1227.34 517.42 1219 512.997 1219 512.997Z" fill="#693875" stroke="black" stroke-width="3"/>
<circle cx="898.5" cy="190.496" r="81.5" fill="white" stroke="black" stroke-width="3"/>
<circle cx="898.392" cy="190.496" r="42.5" fill="#693875" stroke="black" stroke-width="3"/>
<circle cx="1051.5" cy="190.496" r="81.5" fill="white" stroke="black" stroke-width="3"/>
<circle cx="1051.39" cy="190.496" r="42.5" fill="#693875" stroke="black" stroke-width="3"/>
<path d="M817 187.996H1133V347.996C1133 361.803 1121.81 372.996 1108 372.996H842C828.193 372.996 817 361.803 817 347.996V187.996Z" fill="white" stroke="black" stroke-width="3"/>
<rect x="841" y="202.996" width="268" height="156" rx="25" fill="black" stroke="black" stroke-width="3"/>
<rect x="859" y="230.996" width="100" height="100" stroke="black" stroke-width="3"/>
<circle cx="909" cy="307.996" r="50" fill="white"/>
<circle cx="909" cy="307.996" r="38" fill="black"/>
<path d="M958.879 255.997C958.981 262.562 957.788 269.083 955.369 275.187C952.951 281.292 949.354 286.86 944.783 291.574C940.212 296.288 934.758 300.056 928.731 302.662C922.705 305.269 916.224 306.662 909.658 306.764C903.093 306.865 896.572 305.673 890.468 303.254C884.363 300.836 878.795 297.238 874.081 292.668C869.367 288.097 865.599 282.643 862.993 276.616C860.386 270.589 858.993 264.108 858.891 257.543L908.885 256.77L958.879 255.997Z" fill="black"/>
<rect x="991" y="230.996" width="100" height="100" stroke="black" stroke-width="3"/>
<circle cx="1041" cy="307.996" r="50" fill="white"/>
<circle cx="1041" cy="307.996" r="38" fill="black"/>
<path d="M1090.88 255.997C1090.98 262.562 1089.79 269.083 1087.37 275.187C1084.95 281.292 1081.35 286.86 1076.78 291.574C1072.21 296.288 1066.76 300.056 1060.73 302.662C1054.7 305.269 1048.22 306.662 1041.66 306.764C1035.09 306.865 1028.57 305.673 1022.47 303.254C1016.36 300.836 1010.79 297.238 1006.08 292.668C1001.37 288.097 997.599 282.643 994.993 276.616C992.386 270.589 990.993 264.108 990.891 257.543L1040.89 256.77L1090.88 255.997Z" fill="black"/>
<path d="M350.922 352.996H324.422L330.922 390.496L350.922 648.996H399.922L358.922 390.496L350.922 352.996Z" fill="white" stroke="black" stroke-width="3" stroke-linecap="round" stroke-linejoin="round"/>
<path d="M400.313 648.996L350.813 648.996C350.813 648.996 337.166 637.243 336.633 627.215C336.09 616.992 338.925 606.157 348.949 604.073C356.49 602.505 364.122 612.045 364.122 612.045C364.122 612.045 370.097 599.654 377.2 599.387C384.38 599.116 391.227 611.291 391.227 611.291C391.227 611.291 396.89 604.505 401.925 603.956C406.183 603.493 409.29 604.274 412.393 607.226C416.235 610.882 415.739 622.434 415.739 622.434C415.739 622.434 414.823 632.06 411.084 638.105C408.002 643.087 400.313 648.996 400.313 648.996Z" fill="#693875" stroke="black" stroke-width="3"/>
<path d="M298.031 352.996H324.531L318.422 390.496L298.031 648.996H249.031L289.422 390.496L298.031 352.996Z" fill="white" stroke="black" stroke-width="3"/>
<path d="M297.922 648.997L248.922 648.997C248.922 648.997 235.495 637.705 234.903 627.68C234.299 617.46 237.071 606.609 247.082 604.465C254.614 602.853 262.302 612.348 262.302 612.348C262.302 612.348 268.204 599.922 275.305 599.613C282.483 599.301 289.402 611.436 289.402 611.436C289.402 611.436 295.025 604.616 300.057 604.038C304.312 603.549 307.424 604.312 310.543 607.246C314.408 610.88 313.979 622.434 313.979 622.434C313.979 622.434 313.119 632.066 309.416 638.132C306.364 643.132 297.922 648.997 297.922 648.997Z" fill="#693875" stroke="black" stroke-width="3"/>
<path d="M549.823 381.848C535.469 271.875 486.96 256.699 482.531 263.996V313.382C487.016 296.427 511.588 334.509 513.82 422.803C516.052 511.097 501.422 519.496 501.422 519.496L549.823 522.996C549.823 522.996 560.747 465.542 549.823 381.848Z" fill="white" stroke="black" stroke-width="3"/>
<path d="M550.309 522.65L501.422 519.496C501.422 519.496 490.265 531.02 485.476 539.847C479.969 549.997 476.813 560.273 491.422 562.996C498.994 564.407 508.422 555.996 508.422 555.996C508.422 555.996 509.851 569.78 516.922 570.496C524.071 571.22 538.954 559.192 538.954 559.192C538.954 559.192 540.432 567.63 545.423 568.496C549.642 569.228 541.597 566.572 545.423 568.496C557.264 574.449 560.241 555.972 560.922 545.997C562.05 529.496 550.614 521.931 550.309 522.65Z" fill="#693875"/>
<path d="M545.423 568.496C557.264 574.449 560.241 555.972 560.922 545.997C562.05 529.496 550.614 521.931 550.309 522.65L501.422 519.496C501.422 519.496 490.265 531.02 485.476 539.847C479.969 549.997 476.813 560.273 491.422 562.996C498.994 564.407 508.422 555.996 508.422 555.996C508.422 555.996 509.851 569.78 516.922 570.496C524.071 571.22 538.954 559.192 538.954 559.192C538.954 559.192 540.432 567.63 545.423 568.496ZM545.423 568.496C549.642 569.228 541.597 566.572 545.423 568.496Z" stroke="black" stroke-width="3"/>
<path d="M100.177 381.945C110.264 271.864 157.024 262.861 167.469 264.093V313.479C162.984 296.524 138.412 334.606 136.18 422.9C133.948 511.194 148.578 519.593 148.578 519.593L100.177 523.093C100.177 523.093 92.4757 465.997 100.177 381.945Z" fill="white" stroke="black" stroke-width="3"/>
<path d="M99.6916 522.748L148.578 519.594C148.578 519.594 159.736 531.118 164.525 539.945C170.031 550.095 173.187 560.371 158.578 563.094C151.006 564.505 141.578 556.094 141.578 556.094C141.578 556.094 140.15 569.878 133.078 570.594C125.93 571.317 111.047 559.29 111.047 559.29C111.047 559.29 109.569 567.727 104.578 568.593C100.358 569.325 108.404 566.67 104.578 568.593C92.7361 574.547 89.7599 556.07 89.0782 546.094C87.9505 529.594 99.3862 522.029 99.6916 522.748Z" fill="#693875"/>
<path d="M104.578 568.593C92.7361 574.547 89.7599 556.07 89.0782 546.094C87.9505 529.594 99.3862 522.029 99.6916 522.748L148.578 519.594C148.578 519.594 159.736 531.118 164.525 539.945C170.031 550.095 173.187 560.371 158.578 563.094C151.006 564.505 141.578 556.094 141.578 556.094C141.578 556.094 140.15 569.878 133.078 570.594C125.93 571.317 111.047 559.29 111.047 559.29C111.047 559.29 109.569 567.727 104.578 568.593ZM104.578 568.593C100.358 569.325 108.404 566.67 104.578 568.593Z" stroke="black" stroke-width="3"/>
<path d="M329.422 207.496C329.422 252.507 292.933 288.996 247.922 288.996C202.911 288.996 166.422 252.507 166.422 207.496C163.336 163.505 201.319 126.522 247.922 125.996C292.933 125.996 329.422 162.485 329.422 207.496Z" fill="white" stroke="black" stroke-width="3"/>
<circle cx="247.813" cy="207.496" r="42.5" fill="#693875" stroke="black" stroke-width="3"/>
<path d="M482.422 200.496C482.743 245.507 445.933 295.997 400.922 295.997C355.911 295.997 319.422 259.508 319.422 214.497C319.422 169.485 362.922 133.996 400.922 132.997C400.543 132.111 481.983 138.971 482.422 200.496Z" fill="white" stroke="black" stroke-width="3"/>
<circle cx="400.813" cy="214.496" r="42.5" fill="#693875" stroke="black" stroke-width="3"/>
<path d="M166.531 195.996H482.531V355.996C482.531 369.803 471.338 380.996 457.531 380.996H191.531C177.724 380.996 166.531 369.803 166.531 355.996V195.996Z" fill="white" stroke="black" stroke-width="3"/>
<rect x="190.531" y="210.996" width="268" height="156" rx="25" fill="black" stroke="black" stroke-width="3"/>
<rect x="195.422" y="263.996" width="100" height="100" stroke="black" stroke-width="3"/>
<circle cx="245.422" cy="313.996" r="50" fill="white"/>
<circle cx="245.422" cy="313.996" r="38" fill="black"/>
<path d="M295.302 261.997C295.403 268.562 294.21 275.083 291.792 281.187C289.373 287.292 285.776 292.86 281.205 297.574C276.635 302.288 271.18 306.056 265.154 308.662C259.127 311.269 252.646 312.662 246.081 312.764C239.515 312.865 232.994 311.673 226.89 309.254C220.786 306.836 215.217 303.238 210.503 298.668C205.789 294.097 202.021 288.643 199.415 282.616C196.809 276.589 195.415 270.108 195.313 263.543L245.307 262.77L295.302 261.997Z" fill="black"/>
<rect x="327.422" y="263.996" width="100" height="100" stroke="black" stroke-width="3"/>
<circle cx="377.422" cy="313.996" r="50" fill="white"/>
<circle cx="377.422" cy="313.996" r="38" fill="black"/>
<path d="M427.302 261.997C427.403 268.562 426.21 275.083 423.792 281.187C421.373 287.292 417.776 292.86 413.205 297.574C408.635 302.288 403.18 306.056 397.154 308.662C391.127 311.269 384.646 312.662 378.081 312.764C371.515 312.865 364.994 311.673 358.89 309.254C352.786 306.836 347.217 303.238 342.503 298.668C337.789 294.097 334.021 288.643 331.415 282.616C328.809 276.589 327.415 270.108 327.313 263.543L377.307 262.77L427.302 261.997Z" fill="black"/>
</g>
<defs>
<clipPath id="clip0_223_41484">
<rect width="2600" height="650" fill="white"/>
</clipPath>
</defs>
</svg>
