<svg width="12350" height="650" viewBox="0 0 12350 650" fill="none" xmlns="http://www.w3.org/2000/svg">
<g clip-path="url(#clip0_233_40657)">
<path d="M12051.6 353H12025.1L12051.6 649H12100.6L12051.6 353Z" fill="white" stroke="black" stroke-width="3" stroke-linecap="round" stroke-linejoin="round"/>
<path d="M12101 649L12051.5 649C12051.5 649 12037.9 637.247 12037.3 627.219C12036.8 616.996 12039.6 606.161 12049.6 604.077C12057.2 602.508 12064.8 612.049 12064.8 612.049C12064.8 612.049 12070.8 599.658 12077.9 599.391C12085.1 599.12 12091.9 611.295 12091.9 611.295C12091.9 611.295 12097.6 604.509 12102.6 603.96C12106.9 603.497 12110 604.278 12113.1 607.23C12116.9 610.886 12116.4 622.438 12116.4 622.438C12116.4 622.438 12115.5 632.064 12111.8 638.109C12108.7 643.091 12101 649 12101 649Z" fill="#693875" stroke="black" stroke-width="3"/>
<path d="M11998.6 353H12025.1L11998.6 649H11949.6L11998.6 353Z" fill="white" stroke="black" stroke-width="3"/>
<path d="M11998.5 648.999L11949.5 648.999C11949.5 648.999 11936.1 637.707 11935.5 627.682C11934.9 617.462 11937.6 606.611 11947.7 604.467C11955.2 602.855 11962.9 612.35 11962.9 612.35C11962.9 612.35 11968.8 599.924 11975.9 599.615C11983.1 599.303 11990 611.437 11990 611.437C11990 611.437 11995.6 604.618 12000.6 604.04C12004.9 603.551 12008 604.314 12011.1 607.248C12015 610.882 12014.6 622.436 12014.6 622.436C12014.6 622.436 12013.7 632.067 12010 638.134C12006.9 643.134 11998.5 648.999 11998.5 648.999Z" fill="#693875" stroke="black" stroke-width="3"/>
<circle cx="11948.6" cy="170.5" r="81.5" fill="white" stroke="black" stroke-width="3"/>
<circle cx="11948.5" cy="170.5" r="42.5" fill="#693875" stroke="black" stroke-width="3"/>
<circle cx="12101.6" cy="170.5" r="81.5" fill="white" stroke="black" stroke-width="3"/>
<circle cx="12101.5" cy="170.5" r="42.5" fill="#693875" stroke="black" stroke-width="3"/>
<path d="M11867.1 168H12183.1V328C12183.1 341.807 12171.9 353 12158.1 353H11892.1C11878.3 353 11867.1 341.807 11867.1 328V168Z" fill="white" stroke="black" stroke-width="3"/>
<rect x="11891.1" y="183" width="268" height="156" rx="25" fill="black" stroke="black" stroke-width="3"/>
<rect x="11909.1" y="211" width="100" height="100" stroke="black" stroke-width="3"/>
<circle cx="11959.1" cy="261" r="50" fill="white"/>
<circle cx="11959.1" cy="261" r="38" fill="black"/>
<rect x="12041.1" y="211" width="100" height="100" stroke="black" stroke-width="3"/>
<circle cx="12091.1" cy="261" r="50" fill="white"/>
<circle cx="12091.1" cy="261" r="38" fill="black"/>
<path d="M11799.8 353.852C11823.2 259.896 11867.1 236 11867.1 236V285.386C11867.1 285.386 11842.9 324.943 11835.8 394.807C11828.7 464.67 11830.6 499 11830.6 499L11781.3 492.977C11781.3 492.977 11779.4 435.761 11799.8 353.852Z" fill="white" stroke="black" stroke-width="3"/>
<path d="M11781.1 493.003L11830.6 499.003C11830.6 499.003 11842.4 511.716 11841.7 521.736C11841 531.951 11836.9 542.368 11826.7 543.236C11819 543.889 11812.6 533.503 11812.6 533.503C11812.6 533.503 11805.2 545.089 11798.1 544.503C11790.9 543.911 11785.6 531.003 11785.6 531.003C11785.6 531.003 11779.2 537.062 11774.1 537.003C11769.8 536.953 11766.8 535.805 11764.1 532.503C11760.7 528.412 11762.6 517.003 11762.6 517.003C11762.6 517.003 11764.7 507.556 11769.1 502.003C11772.8 497.426 11781.1 493.003 11781.1 493.003Z" fill="#693875" stroke="black" stroke-width="3"/>
<path d="M12250.4 353.852C12227 259.896 12183.1 236 12183.1 236V285.386C12183.1 285.386 12207.3 324.943 12214.4 394.807C12221.5 464.67 12219.6 499 12219.6 499L12268.9 492.977C12268.9 492.977 12270.8 435.761 12250.4 353.852Z" fill="white" stroke="black" stroke-width="3"/>
<path d="M12269.1 493.003L12219.6 499.003C12219.6 499.003 12207.8 511.716 12208.5 521.736C12209.2 531.951 12213.3 542.368 12223.5 543.236C12231.2 543.889 12237.6 533.503 12237.6 533.503C12237.6 533.503 12245 545.089 12252.1 544.503C12259.3 543.911 12264.6 531.003 12264.6 531.003C12264.6 531.003 12271 537.062 12276.1 537.003C12280.4 536.953 12283.4 535.805 12286.1 532.503C12289.5 528.412 12287.6 517.003 12287.6 517.003C12287.6 517.003 12285.5 507.556 12281.1 502.003C12277.5 497.426 12269.1 493.003 12269.1 493.003Z" fill="#693875" stroke="black" stroke-width="3"/>
<path d="M11401.7 353H11375.2L11401.7 649H11450.7L11401.7 353Z" fill="white" stroke="black" stroke-width="3" stroke-linecap="round" stroke-linejoin="round"/>
<path d="M11451.1 649L11401.6 649C11401.6 649 11387.9 637.247 11387.4 627.219C11386.8 616.996 11389.7 606.161 11399.7 604.077C11407.2 602.508 11414.9 612.049 11414.9 612.049C11414.9 612.049 11420.8 599.658 11427.9 599.391C11435.1 599.12 11442 611.295 11442 611.295C11442 611.295 11447.6 604.509 11452.7 603.96C11456.9 603.497 11460 604.278 11463.1 607.23C11467 610.886 11466.5 622.438 11466.5 622.438C11466.5 622.438 11465.6 632.064 11461.8 638.109C11458.7 643.091 11451.1 649 11451.1 649Z" fill="#693875" stroke="black" stroke-width="3"/>
<path d="M11348.7 353H11375.2L11348.7 649H11299.7L11348.7 353Z" fill="white" stroke="black" stroke-width="3"/>
<path d="M11348.6 648.999L11299.6 648.999C11299.6 648.999 11286.1 637.707 11285.5 627.682C11284.9 617.462 11287.7 606.611 11297.7 604.467C11305.2 602.855 11312.9 612.35 11312.9 612.35C11312.9 612.35 11318.8 599.924 11325.9 599.615C11333.1 599.303 11340 611.437 11340 611.437C11340 611.437 11345.7 604.618 11350.7 604.04C11354.9 603.551 11358.1 604.314 11361.2 607.248C11365 610.882 11364.6 622.436 11364.6 622.436C11364.6 622.436 11363.8 632.067 11360 638.134C11357 643.134 11348.6 648.999 11348.6 648.999Z" fill="#693875" stroke="black" stroke-width="3"/>
<path d="M11131.4 378.5C11154.8 284.543 11217.2 260 11217.2 260V309.386C11217.2 309.386 11175.2 331.636 11168.1 401.5C11160.9 471.364 11213.1 485 11213.1 485L11168.1 520.5C11168.1 520.5 11111 460.409 11131.4 378.5Z" fill="white" stroke="black" stroke-width="3"/>
<path d="M11168.6 520.626L11213.1 484.502L11235.1 484.502C11235.1 484.502 11260.6 492.448 11250.6 505.502C11245.8 511.596 11228.6 519.002 11228.6 519.002C11228.6 519.002 11232.6 534.521 11227.1 539.002C11221.5 543.531 11201.1 535.428 11201.1 535.428C11201.1 535.428 11218.1 546.002 11203.1 555.502C11199.4 557.793 11207.3 555.998 11203.1 555.502C11197.8 554.887 11183.8 553.818 11176.6 546.002C11169.3 538.186 11167.9 532.477 11168.6 520.626Z" fill="#693875"/>
<path d="M11203.1 555.502C11197.8 554.887 11183.8 553.818 11176.6 546.002C11169.3 538.186 11167.9 532.477 11168.6 520.626L11213.1 484.502L11235.1 484.502C11235.1 484.502 11260.6 492.448 11250.6 505.502C11245.8 511.596 11228.6 519.002 11228.6 519.002C11228.6 519.002 11232.6 534.521 11227.1 539.002C11221.5 543.531 11201.1 535.428 11201.1 535.428C11201.1 535.428 11218.1 546.002 11203.1 555.502ZM11203.1 555.502C11199.4 557.793 11207.3 555.998 11203.1 555.502Z" stroke="black" stroke-width="3"/>
<path d="M11614.4 380.5C11591 286.543 11528.6 262 11528.6 262V311.386C11528.6 311.386 11570.6 333.636 11577.7 403.5C11584.9 473.364 11532.7 487 11532.7 487L11577.8 522.5C11577.8 522.5 11634.8 462.409 11614.4 380.5Z" fill="white" stroke="black" stroke-width="3"/>
<path d="M11577.2 522.622L11532.8 486.498L11510.8 486.498C11510.8 486.498 11485.2 494.444 11495.3 507.498C11500 513.593 11517.3 520.998 11517.3 520.998C11517.3 520.998 11513.2 536.517 11518.8 540.998C11524.3 545.527 11544.8 537.424 11544.8 537.424C11544.8 537.424 11527.8 547.998 11542.8 557.498C11546.4 559.789 11538.5 557.994 11542.8 557.498C11548 556.883 11562 555.814 11569.3 547.998C11576.5 540.182 11577.9 534.473 11577.2 522.622Z" fill="#693875"/>
<path d="M11542.8 557.498C11548 556.883 11562 555.814 11569.3 547.998C11576.5 540.182 11577.9 534.473 11577.2 522.622L11532.8 486.498L11510.8 486.498C11510.8 486.498 11485.2 494.444 11495.3 507.498C11500 513.593 11517.3 520.998 11517.3 520.998C11517.3 520.998 11513.2 536.517 11518.8 540.998C11524.3 545.527 11544.8 537.424 11544.8 537.424C11544.8 537.424 11527.8 547.998 11542.8 557.498ZM11542.8 557.498C11546.4 559.789 11538.5 557.994 11542.8 557.498Z" stroke="black" stroke-width="3"/>
<circle cx="11298.7" cy="194.5" r="81.5" fill="white" stroke="black" stroke-width="3"/>
<circle cx="11298.6" cy="194.5" r="42.5" fill="#693875" stroke="black" stroke-width="3"/>
<circle cx="11451.7" cy="194.5" r="81.5" fill="white" stroke="black" stroke-width="3"/>
<circle cx="11451.6" cy="194.5" r="42.5" fill="#693875" stroke="black" stroke-width="3"/>
<path d="M11217.2 192H11533.2V352C11533.2 365.807 11522 377 11508.2 377H11242.2C11228.4 377 11217.2 365.807 11217.2 352V192Z" fill="white" stroke="black" stroke-width="3"/>
<rect x="11241.2" y="207" width="268" height="156" rx="25" fill="black" stroke="black" stroke-width="3"/>
<rect x="11259.2" y="235" width="100" height="100" stroke="black" stroke-width="3"/>
<circle cx="11309.1" cy="276" r="50" fill="white"/>
<circle cx="11309.1" cy="276" r="38" fill="black"/>
<rect x="11391.2" y="235" width="100" height="100" stroke="black" stroke-width="3"/>
<circle cx="11441.1" cy="276" r="50" fill="white"/>
<circle cx="11441.1" cy="276" r="38" fill="black"/>
<path d="M10751.6 353H10725.1L10751.6 649H10800.6L10751.6 353Z" fill="white" stroke="black" stroke-width="3" stroke-linecap="round" stroke-linejoin="round"/>
<path d="M10801 649L10751.5 649C10751.5 649 10737.9 637.247 10737.3 627.219C10736.8 616.996 10739.6 606.161 10749.6 604.077C10757.2 602.508 10764.8 612.049 10764.8 612.049C10764.8 612.049 10770.8 599.658 10777.9 599.391C10785.1 599.12 10791.9 611.295 10791.9 611.295C10791.9 611.295 10797.6 604.509 10802.6 603.96C10806.9 603.497 10810 604.278 10813.1 607.23C10816.9 610.886 10816.4 622.438 10816.4 622.438C10816.4 622.438 10815.5 632.064 10811.8 638.109C10808.7 643.091 10801 649 10801 649Z" fill="#693875" stroke="black" stroke-width="3"/>
<path d="M10698.6 353H10725.1L10698.6 649H10649.6L10698.6 353Z" fill="white" stroke="black" stroke-width="3"/>
<path d="M10698.5 648.999L10649.5 648.999C10649.5 648.999 10636.1 637.707 10635.5 627.682C10634.9 617.462 10637.6 606.611 10647.7 604.467C10655.2 602.855 10662.9 612.35 10662.9 612.35C10662.9 612.35 10668.8 599.924 10675.9 599.615C10683.1 599.303 10690 611.437 10690 611.437C10690 611.437 10695.6 604.618 10700.6 604.04C10704.9 603.551 10708 604.314 10711.1 607.248C10715 610.882 10714.6 622.436 10714.6 622.436C10714.6 622.436 10713.7 632.067 10710 638.134C10706.9 643.134 10698.5 648.999 10698.5 648.999Z" fill="#693875" stroke="black" stroke-width="3"/>
<path d="M10463.4 395.5C10470.7 321.522 10561.1 279.71 10566.5 273V322.386C10566.5 322.386 10494.8 339.887 10504.9 404.5C10515 469.113 10598.2 444.664 10588.9 447.5L10571.4 502C10571.4 502 10455.1 479.497 10463.4 395.5Z" fill="white" stroke="black" stroke-width="3"/>
<path d="M10985.8 395.5C10978.5 321.522 10888 279.71 10882.6 273V322.386C10882.6 322.386 10954.4 339.887 10944.3 404.5C10934.1 469.113 10851 444.664 10860.3 447.5L10877.8 502C10877.8 502 10994 479.497 10985.8 395.5Z" fill="white" stroke="black" stroke-width="3"/>
<circle cx="10648" cy="207.5" r="81.5" fill="white" stroke="black" stroke-width="3"/>
<circle cx="10647.9" cy="207.5" r="42.5" fill="#693875" stroke="black" stroke-width="3"/>
<circle cx="10801" cy="207.5" r="81.5" fill="white" stroke="black" stroke-width="3"/>
<circle cx="10800.9" cy="207.5" r="42.5" fill="#693875" stroke="black" stroke-width="3"/>
<path d="M10566.5 205H10882.5V365C10882.5 378.807 10871.3 390 10857.5 390H10591.5C10577.7 390 10566.5 378.807 10566.5 365V205Z" fill="white" stroke="black" stroke-width="3"/>
<rect x="10590.5" y="220" width="268" height="156" rx="25" fill="black" stroke="black" stroke-width="3"/>
<rect x="10608.5" y="248" width="100" height="100" stroke="black" stroke-width="3"/>
<circle cx="10659" cy="281" r="50" fill="white"/>
<circle cx="10659" cy="281" r="38" fill="black"/>
<rect x="10740.5" y="248" width="100" height="100" stroke="black" stroke-width="3"/>
<circle cx="10791" cy="281" r="50" fill="white"/>
<circle cx="10791" cy="281" r="38" fill="black"/>
<path d="M10571.1 502.119L10588.9 447.5L10606.4 434.5C10606.4 434.5 10628.4 419.5 10631.9 437C10633.4 444.553 10619.4 461.5 10619.4 461.5C10619.4 461.5 10628.4 463 10632.9 473.5C10635.8 480.104 10607.9 492 10607.9 492C10607.9 492 10631.2 488.399 10622.9 505C10620.9 509 10607.2 517.201 10596.9 514.5C10586.6 511.8 10576.9 512.476 10571.1 502.119Z" fill="#693875" stroke="black" stroke-width="3"/>
<path d="M10878.1 502.119L10860.3 447.5L10842.8 434.5C10842.8 434.5 10820.8 419.5 10817.3 437C10815.7 444.553 10829.8 461.5 10829.8 461.5C10829.8 461.5 10820.8 463 10816.3 473.5C10813.4 480.104 10841.3 492 10841.3 492C10841.3 492 10818 488.399 10826.3 505C10828.3 509 10842 517.201 10852.3 514.5C10862.5 511.8 10872.3 512.476 10878.1 502.119Z" fill="#693875" stroke="black" stroke-width="3"/>
<path d="M10101.6 353H10075.1L10101.6 649H10150.6L10101.6 353Z" fill="white" stroke="black" stroke-width="3" stroke-linecap="round" stroke-linejoin="round"/>
<path d="M10151 649L10101.5 649C10101.5 649 10087.9 637.247 10087.3 627.219C10086.8 616.996 10089.6 606.161 10099.6 604.077C10107.2 602.508 10114.8 612.049 10114.8 612.049C10114.8 612.049 10120.8 599.658 10127.9 599.391C10135.1 599.12 10141.9 611.295 10141.9 611.295C10141.9 611.295 10147.6 604.509 10152.6 603.96C10156.9 603.497 10160 604.278 10163.1 607.23C10166.9 610.886 10166.4 622.438 10166.4 622.438C10166.4 622.438 10165.5 632.064 10161.8 638.109C10158.7 643.091 10151 649 10151 649Z" fill="#693875" stroke="black" stroke-width="3"/>
<path d="M10048.6 353H10075.1L10048.6 649H9999.61L10048.6 353Z" fill="white" stroke="black" stroke-width="3"/>
<path d="M10048.5 648.999L9999.5 648.999C9999.5 648.999 9986.07 637.707 9985.48 627.682C9984.88 617.462 9987.65 606.611 9997.66 604.467C10005.2 602.855 10012.9 612.35 10012.9 612.35C10012.9 612.35 10018.8 599.924 10025.9 599.615C10033.1 599.303 10040 611.437 10040 611.437C10040 611.437 10045.6 604.618 10050.6 604.04C10054.9 603.551 10058 604.314 10061.1 607.248C10065 610.882 10064.6 622.436 10064.6 622.436C10064.6 622.436 10063.7 632.067 10060 638.134C10056.9 643.134 10048.5 648.999 10048.5 648.999Z" fill="#693875" stroke="black" stroke-width="3"/>
<circle cx="9998.5" cy="219.5" r="81.5" fill="white" stroke="black" stroke-width="3"/>
<circle cx="9998.39" cy="219.5" r="42.5" fill="#693875" stroke="black" stroke-width="3"/>
<circle cx="10151.5" cy="219.5" r="81.5" fill="white" stroke="black" stroke-width="3"/>
<circle cx="10151.4" cy="219.5" r="42.5" fill="#693875" stroke="black" stroke-width="3"/>
<path d="M9916.53 205H10232.5V365C10232.5 378.807 10221.3 390 10207.5 390H9941.53C9927.72 390 9916.53 378.807 9916.53 365V205Z" fill="white" stroke="black" stroke-width="3"/>
<rect x="9940.53" y="220" width="268" height="156" rx="25" fill="black" stroke="black" stroke-width="3"/>
<rect x="9958.53" y="248" width="100" height="100" stroke="black" stroke-width="3"/>
<circle cx="10009" cy="281" r="50" fill="white"/>
<circle cx="10009" cy="281" r="38" fill="black"/>
<rect x="10090.5" y="248" width="100" height="100" stroke="black" stroke-width="3"/>
<circle cx="10141" cy="281" r="50" fill="white"/>
<circle cx="10141" cy="281" r="38" fill="black"/>
<path d="M9813.43 343.611C9820.68 300.969 9911.13 276.868 9916.5 273V323C9916.5 323 9848.01 329.5 9854.72 348.799C9861.42 368.098 9945.26 350.365 9936.01 352L9919.01 407C9919.01 407 9805.19 392.029 9813.43 343.611Z" fill="white" stroke="black" stroke-width="3"/>
<path d="M9918.51 406L9935.01 353L9951.61 338.895C9951.61 338.895 9973.02 323.064 9977.19 340.418C9978.98 347.907 9965.63 365.378 9965.63 365.378C9965.63 365.378 9974.68 366.533 9979.58 376.853C9982.66 383.344 9955.31 396.295 9955.31 396.295C9955.31 396.295 9978.45 391.806 9970.79 408.712C9968.95 412.786 9955.56 421.505 9945.18 419.2C9934.79 416.895 9924.7 416.127 9918.51 406Z" fill="#693875" stroke="black" stroke-width="3"/>
<path d="M10335.6 343.611C10328.3 300.969 10237.9 276.868 10232.5 273V323C10232.5 323 10301 329.5 10294.3 348.799C10287.6 368.098 10203.7 350.365 10213 352L10230 407C10230 407 10343.8 392.029 10335.6 343.611Z" fill="white" stroke="black" stroke-width="3"/>
<path d="M10230.5 406L10214 353L10197.4 338.895C10197.4 338.895 10176 323.064 10171.8 340.418C10170 347.907 10183.4 365.378 10183.4 365.378C10183.4 365.378 10174.3 366.533 10169.4 376.853C10166.3 383.344 10193.7 396.295 10193.7 396.295C10193.7 396.295 10170.6 391.806 10178.2 408.712C10180.1 412.786 10193.4 421.505 10203.8 419.2C10214.2 416.895 10224.3 416.127 10230.5 406Z" fill="#693875" stroke="black" stroke-width="3"/>
<path d="M9451.61 353H9425.11L9451.61 649H9500.61L9451.61 353Z" fill="white" stroke="black" stroke-width="3" stroke-linecap="round" stroke-linejoin="round"/>
<path d="M9501 649L9451.5 649C9451.5 649 9437.85 637.247 9437.32 627.219C9436.78 616.996 9439.61 606.161 9449.64 604.077C9457.18 602.508 9464.81 612.049 9464.81 612.049C9464.81 612.049 9470.78 599.658 9477.89 599.391C9485.07 599.12 9491.91 611.295 9491.91 611.295C9491.91 611.295 9497.58 604.509 9502.61 603.96C9506.87 603.497 9509.98 604.278 9513.08 607.23C9516.92 610.886 9516.43 622.438 9516.43 622.438C9516.43 622.438 9515.51 632.064 9511.77 638.109C9508.69 643.091 9501 649 9501 649Z" fill="#693875" stroke="black" stroke-width="3"/>
<path d="M9398.61 353H9425.11L9398.61 649H9349.61L9398.61 353Z" fill="white" stroke="black" stroke-width="3"/>
<path d="M9398.5 648.999L9349.5 648.999C9349.5 648.999 9336.07 637.707 9335.48 627.682C9334.88 617.462 9337.65 606.611 9347.66 604.467C9355.19 602.855 9362.88 612.35 9362.88 612.35C9362.88 612.35 9368.78 599.924 9375.88 599.615C9383.06 599.303 9389.98 611.437 9389.98 611.437C9389.98 611.437 9395.6 604.618 9400.63 604.04C9404.89 603.551 9408 604.314 9411.12 607.248C9414.98 610.882 9414.56 622.436 9414.56 622.436C9414.56 622.436 9413.7 632.067 9409.99 638.134C9406.94 643.134 9398.5 648.999 9398.5 648.999Z" fill="#693875" stroke="black" stroke-width="3"/>
<circle cx="9348.5" cy="241.5" r="81.5" fill="white" stroke="black" stroke-width="3"/>
<circle cx="9348.39" cy="241.5" r="42.5" fill="#693875" stroke="black" stroke-width="3"/>
<circle cx="9501.5" cy="241.5" r="81.5" fill="white" stroke="black" stroke-width="3"/>
<circle cx="9501.39" cy="241.5" r="42.5" fill="#693875" stroke="black" stroke-width="3"/>
<path d="M9266.53 219H9582.53V379C9582.53 392.807 9571.34 404 9557.53 404H9291.53C9277.72 404 9266.53 392.807 9266.53 379V219Z" fill="white" stroke="black" stroke-width="3"/>
<rect x="9290.53" y="234" width="268" height="156" rx="25" fill="black" stroke="black" stroke-width="3"/>
<rect x="9309" y="242" width="100" height="100" stroke="black" stroke-width="3"/>
<circle cx="9359" cy="292" r="50" fill="white"/>
<circle cx="9359" cy="292" r="38" fill="black"/>
<rect x="9441" y="242" width="100" height="100" stroke="black" stroke-width="3"/>
<circle cx="9491" cy="292" r="50" fill="white"/>
<circle cx="9491" cy="292" r="38" fill="black"/>
<path d="M9163.43 287.139C9170.68 329.781 9261.13 353.632 9266.5 357.5V307.5C9266.5 307.5 9198.01 301.25 9204.72 281.951C9211.42 262.652 9295.26 280.385 9286.01 278.75L9269.01 223.75C9269.01 223.75 9155.19 238.721 9163.43 287.139Z" fill="white" stroke="black" stroke-width="3"/>
<path d="M9268.51 224.75L9285.01 277.75L9301.61 291.855C9301.61 291.855 9323.02 307.686 9327.19 290.332C9328.98 282.843 9315.63 265.372 9315.63 265.372C9315.63 265.372 9324.68 264.217 9329.58 253.897C9332.66 247.406 9305.31 234.455 9305.31 234.455C9305.31 234.455 9328.45 238.944 9320.79 222.038C9318.95 217.964 9305.56 209.245 9295.18 211.55C9284.79 213.855 9274.7 214.623 9268.51 224.75Z" fill="#693875" stroke="black" stroke-width="3"/>
<path d="M9685.58 287.139C9678.33 329.781 9587.87 354.132 9582.5 358V307.5C9582.5 307.5 9651 301.25 9644.29 281.951C9637.58 262.652 9553.75 280.385 9563 278.75L9580 223.75C9580 223.75 9693.82 238.721 9685.58 287.139Z" fill="white" stroke="black" stroke-width="3"/>
<path d="M9580.5 224.75L9564 277.75L9547.4 291.855C9547.4 291.855 9525.99 307.686 9521.82 290.332C9520.02 282.843 9533.37 265.372 9533.37 265.372C9533.37 265.372 9524.32 264.217 9519.43 253.897C9516.35 247.406 9543.7 234.455 9543.7 234.455C9543.7 234.455 9520.55 238.944 9528.21 222.038C9530.06 217.964 9543.45 209.245 9553.83 211.55C9564.22 213.855 9574.31 214.623 9580.5 224.75Z" fill="#693875" stroke="black" stroke-width="3"/>
<path d="M8801.62 353H8775.12L8801.62 649H8850.62L8801.62 353Z" fill="white" stroke="black" stroke-width="3" stroke-linecap="round" stroke-linejoin="round"/>
<path d="M8851.01 649L8801.51 649C8801.51 649 8787.86 637.247 8787.33 627.219C8786.78 616.996 8789.62 606.161 8799.64 604.077C8807.18 602.508 8814.82 612.049 8814.82 612.049C8814.82 612.049 8820.79 599.658 8827.89 599.391C8835.07 599.12 8841.92 611.295 8841.92 611.295C8841.92 611.295 8847.58 604.509 8852.62 603.96C8856.88 603.497 8859.98 604.278 8863.09 607.23C8866.93 610.886 8866.43 622.438 8866.43 622.438C8866.43 622.438 8865.52 632.064 8861.78 638.109C8858.7 643.091 8851.01 649 8851.01 649Z" fill="#693875" stroke="black" stroke-width="3"/>
<path d="M8748.62 353H8775.12L8748.62 649H8699.62L8748.62 353Z" fill="white" stroke="black" stroke-width="3"/>
<path d="M8748.51 648.999L8699.51 648.999C8699.51 648.999 8686.08 637.707 8685.49 627.682C8684.88 617.462 8687.66 606.611 8697.67 604.467C8705.2 602.855 8712.89 612.35 8712.89 612.35C8712.89 612.35 8718.79 599.924 8725.89 599.615C8733.07 599.303 8739.99 611.437 8739.99 611.437C8739.99 611.437 8745.61 604.618 8750.64 604.04C8754.9 603.551 8758.01 604.314 8761.13 607.248C8764.99 610.882 8764.56 622.436 8764.56 622.436C8764.56 622.436 8763.7 632.067 8760 638.134C8756.95 643.134 8748.51 648.999 8748.51 648.999Z" fill="#693875" stroke="black" stroke-width="3"/>
<path d="M9043.09 284.003C9022.53 358.914 8869.04 366.107 8863.42 372.63L8893.72 323.761C8893.72 323.761 8978.07 302.521 8989.53 275.502C9000.99 248.483 8946.92 245.553 8946.92 245.553L8961.61 190.54C8961.61 190.54 9061.09 218.435 9043.09 284.003Z" fill="white" stroke="black" stroke-width="3"/>
<path d="M8509.31 286.446C8530.14 361.285 8683.65 367.938 8689.29 374.442L8658.82 325.68C8658.82 325.68 8574.39 304.736 8562.84 277.757C8551.29 250.778 8605.35 247.658 8605.35 247.658L8590.46 192.698C8590.46 192.698 8491.09 220.942 8509.31 286.446Z" fill="white" stroke="black" stroke-width="3"/>
<path d="M8778.5 239.275C8778.5 284.287 8742.01 320.775 8697 320.775C8651.99 320.775 8618.67 284.175 8615.5 239.275C8611.01 175.5 8633.39 164.135 8692.01 158C8737.02 158 8778.5 194.264 8778.5 239.275Z" fill="white" stroke="black" stroke-width="3"/>
<circle cx="8696.89" cy="239.273" r="42.5" fill="#693875" stroke="black" stroke-width="3"/>
<path d="M8931.5 239.275C8931.5 284.286 8895.01 320.775 8850 320.775C8804.99 320.775 8768.5 284.286 8768.5 239.275C8768.5 194.264 8804.99 157.775 8850 157.775C8898.23 151.695 8938.2 181.616 8931.5 239.275Z" fill="white" stroke="black" stroke-width="3"/>
<circle cx="8849.89" cy="239.273" r="42.5" fill="#693875" stroke="black" stroke-width="3"/>
<path d="M8615.54 210H8931.54V370C8931.54 383.807 8920.34 395 8906.54 395H8640.54C8626.73 395 8615.54 383.807 8615.54 370V210Z" fill="white" stroke="black" stroke-width="3"/>
<rect x="8639.54" y="225" width="268" height="156" rx="25" fill="black" stroke="black" stroke-width="3"/>
<rect x="8653.01" y="254" width="110" height="110" stroke="black" stroke-width="3"/>
<circle cx="8708.01" cy="287" r="55" fill="white"/>
<circle cx="8708.01" cy="286.999" r="41.8" fill="black"/>
<rect x="8785.01" y="254" width="110" height="110" stroke="black" stroke-width="3"/>
<circle cx="8840.01" cy="287" r="55" fill="white"/>
<circle cx="8840.01" cy="286.999" r="41.8" fill="black"/>
<path d="M8590.56 192.662L8605.67 248.098L8622.5 261.949C8622.5 261.949 8643.73 278.02 8648.09 260.715C8649.98 253.247 8636.82 235.626 8636.82 235.626C8636.82 235.626 8645.89 234.574 8650.9 224.31C8654.05 217.854 8626.85 204.594 8626.85 204.594C8626.85 204.594 8649.94 209.345 8642.47 192.353C8640.67 188.259 8627.39 179.388 8616.98 181.576C8606.56 183.764 8596.86 182.606 8590.56 192.662Z" fill="#693875" stroke="black" stroke-width="3"/>
<path d="M8961.52 190.501L8946.6 245.99L8929.82 259.9C8929.82 259.9 8908.64 276.046 8904.22 258.756C8902.31 251.294 8915.4 233.627 8915.4 233.627C8915.4 233.627 8906.34 232.607 8901.29 222.36C8898.11 215.916 8925.27 202.56 8925.27 202.56C8925.27 202.56 8902.19 207.392 8909.6 190.374C8911.39 186.274 8924.64 177.357 8935.06 179.508C8945.48 181.659 8955.18 180.467 8961.52 190.501Z" fill="#693875" stroke="black" stroke-width="3"/>
<path d="M8151.61 353H8125.11L8151.61 649H8200.61L8151.61 353Z" fill="white" stroke="black" stroke-width="3" stroke-linecap="round" stroke-linejoin="round"/>
<path d="M8201 649L8151.5 649C8151.5 649 8137.85 637.247 8137.32 627.219C8136.78 616.996 8139.61 606.161 8149.64 604.077C8157.18 602.508 8164.81 612.049 8164.81 612.049C8164.81 612.049 8170.78 599.658 8177.89 599.391C8185.07 599.12 8191.91 611.295 8191.91 611.295C8191.91 611.295 8197.58 604.509 8202.61 603.96C8206.87 603.497 8209.98 604.278 8213.08 607.23C8216.92 610.886 8216.43 622.438 8216.43 622.438C8216.43 622.438 8215.51 632.064 8211.77 638.109C8208.69 643.091 8201 649 8201 649Z" fill="#693875" stroke="black" stroke-width="3"/>
<path d="M8098.61 353H8125.11L8098.61 649H8049.61L8098.61 353Z" fill="white" stroke="black" stroke-width="3"/>
<path d="M8098.5 648.999L8049.5 648.999C8049.5 648.999 8036.07 637.707 8035.48 627.682C8034.88 617.462 8037.65 606.611 8047.66 604.467C8055.19 602.855 8062.88 612.35 8062.88 612.35C8062.88 612.35 8068.78 599.924 8075.88 599.615C8083.06 599.303 8089.98 611.437 8089.98 611.437C8089.98 611.437 8095.6 604.618 8100.64 604.04C8104.89 603.551 8108 604.314 8111.12 607.248C8114.99 610.882 8114.56 622.436 8114.56 622.436C8114.56 622.436 8113.7 632.067 8109.99 638.134C8106.94 643.134 8098.5 648.999 8098.5 648.999Z" fill="#693875" stroke="black" stroke-width="3"/>
<path d="M8385 296.001C8364.44 370.912 8219.04 366.108 8213.42 372.631L8243.71 323.763C8243.71 323.763 8327.04 314.521 8338.5 287.501C8349.96 260.482 8296.91 245.554 8296.91 245.554L8311.6 190.542C8311.6 190.542 8403 230.433 8385 296.001Z" fill="white" stroke="black" stroke-width="3"/>
<path d="M7867.28 297.571C7887.84 372.482 8033.25 367.678 8038.87 374.202L8008.57 325.333C8008.57 325.333 7925.24 316.091 7913.78 289.072C7902.33 262.052 7955.37 247.124 7955.37 247.124L7940.68 192.112C7940.68 192.112 7849.29 232.004 7867.28 297.571Z" fill="white" stroke="black" stroke-width="3"/>
<path d="M8128.49 239.275C8128.49 284.287 8092.01 320.775 8046.99 320.775C8001.98 320.775 7968.66 284.175 7965.49 239.275C7961 175.5 7983.39 164.135 8042 158C8087.01 158 8128.49 194.264 8128.49 239.275Z" fill="white" stroke="black" stroke-width="3"/>
<circle cx="8046.89" cy="239.273" r="42.5" fill="#693875" stroke="black" stroke-width="3"/>
<path d="M8281.49 239.275C8281.49 284.286 8245.01 320.775 8199.99 320.775C8154.98 320.775 8118.49 284.286 8118.49 239.275C8118.49 194.264 8154.98 157.775 8199.99 157.775C8248.23 151.695 8288.19 181.616 8281.49 239.275Z" fill="white" stroke="black" stroke-width="3"/>
<circle cx="8199.89" cy="239.273" r="42.5" fill="#693875" stroke="black" stroke-width="3"/>
<path d="M7965.53 210H8281.53V370C8281.53 383.807 8270.34 395 8256.53 395H7990.53C7976.72 395 7965.53 383.807 7965.53 370V210Z" fill="white" stroke="black" stroke-width="3"/>
<rect x="7989.53" y="225" width="268" height="156" rx="25" fill="black" stroke="black" stroke-width="3"/>
<rect x="8003" y="254" width="110" height="110" stroke="black" stroke-width="3"/>
<circle cx="8068" cy="287" r="55" fill="white"/>
<circle cx="8068" cy="286.999" r="41.8" fill="black"/>
<rect x="8135" y="254" width="110" height="110" stroke="black" stroke-width="3"/>
<circle cx="8200" cy="287" r="55" fill="white"/>
<circle cx="8200" cy="286.999" r="41.8" fill="black"/>
<path d="M7940.55 192.662L7955.66 248.098L7972.49 261.949C7972.49 261.949 7993.73 278.02 7998.09 260.715C7999.97 253.247 7986.82 235.626 7986.82 235.626C7986.82 235.626 7995.88 234.574 8000.89 224.31C8004.05 217.854 7976.84 204.594 7976.84 204.594C7976.84 204.594 7999.94 209.345 7992.47 192.353C7990.67 188.259 7977.38 179.388 7966.97 181.576C7956.56 183.764 7946.86 182.606 7940.55 192.662Z" fill="#693875" stroke="black" stroke-width="3"/>
<path d="M8311.51 190.501L8296.6 245.99L8279.81 259.9C8279.81 259.9 8258.64 276.046 8254.21 258.756C8252.31 251.294 8265.4 233.627 8265.4 233.627C8265.4 233.627 8256.33 232.607 8251.28 222.36C8248.1 215.916 8275.26 202.56 8275.26 202.56C8275.26 202.56 8252.19 207.392 8259.59 190.374C8261.38 186.274 8274.63 177.357 8285.05 179.508C8295.47 181.659 8305.17 180.467 8311.51 190.501Z" fill="#693875" stroke="black" stroke-width="3"/>
<path d="M7501.62 353H7475.12L7501.62 649H7550.62L7501.62 353Z" fill="white" stroke="black" stroke-width="3" stroke-linecap="round" stroke-linejoin="round"/>
<path d="M7551.01 649L7501.51 649C7501.51 649 7487.86 637.247 7487.33 627.219C7486.78 616.996 7489.62 606.161 7499.64 604.077C7507.18 602.508 7514.82 612.049 7514.82 612.049C7514.82 612.049 7520.79 599.658 7527.89 599.391C7535.07 599.12 7541.92 611.295 7541.92 611.295C7541.92 611.295 7547.58 604.509 7552.62 603.96C7556.88 603.497 7559.98 604.278 7563.09 607.23C7566.93 610.886 7566.43 622.438 7566.43 622.438C7566.43 622.438 7565.52 632.064 7561.78 638.109C7558.7 643.091 7551.01 649 7551.01 649Z" fill="#693875" stroke="black" stroke-width="3"/>
<path d="M7448.62 353H7475.12L7448.62 649H7399.62L7448.62 353Z" fill="white" stroke="black" stroke-width="3"/>
<path d="M7448.51 648.999L7399.51 648.999C7399.51 648.999 7386.08 637.707 7385.49 627.682C7384.88 617.462 7387.66 606.611 7397.67 604.467C7405.2 602.855 7412.89 612.35 7412.89 612.35C7412.89 612.35 7418.79 599.924 7425.89 599.615C7433.07 599.303 7439.99 611.437 7439.99 611.437C7439.99 611.437 7445.61 604.618 7450.64 604.04C7454.9 603.551 7458.01 604.314 7461.13 607.248C7464.99 610.882 7464.56 622.436 7464.56 622.436C7464.56 622.436 7463.7 632.067 7460 638.134C7456.95 643.134 7448.51 648.999 7448.51 648.999Z" fill="#693875" stroke="black" stroke-width="3"/>
<path d="M7743.09 284.003C7722.53 358.914 7569.04 366.107 7563.42 372.63L7593.72 323.761C7593.72 323.761 7678.07 302.521 7689.53 275.502C7700.99 248.483 7646.92 245.553 7646.92 245.553L7661.61 190.54C7661.61 190.54 7761.09 218.435 7743.09 284.003Z" fill="white" stroke="black" stroke-width="3"/>
<path d="M7209.31 286.446C7230.14 361.285 7383.65 367.938 7389.29 374.442L7358.82 325.68C7358.82 325.68 7274.39 304.736 7262.84 277.757C7251.29 250.778 7305.35 247.658 7305.35 247.658L7290.46 192.698C7290.46 192.698 7191.09 220.942 7209.31 286.446Z" fill="white" stroke="black" stroke-width="3"/>
<path d="M7478.5 239.275C7478.5 284.287 7442.01 320.775 7397 320.775C7351.99 320.775 7318.67 284.175 7315.5 239.275C7311.01 175.5 7333.39 164.135 7392.01 158C7437.02 158 7478.5 194.264 7478.5 239.275Z" fill="white" stroke="black" stroke-width="3"/>
<circle cx="7396.89" cy="239.273" r="42.5" fill="#693875" stroke="black" stroke-width="3"/>
<path d="M7631.5 239.275C7631.5 284.286 7595.01 320.775 7550 320.775C7504.99 320.775 7468.5 284.286 7468.5 239.275C7468.5 194.264 7504.99 157.775 7550 157.775C7598.23 151.695 7638.2 181.616 7631.5 239.275Z" fill="white" stroke="black" stroke-width="3"/>
<circle cx="7549.89" cy="239.273" r="42.5" fill="#693875" stroke="black" stroke-width="3"/>
<path d="M7315.54 210H7631.54V370C7631.54 383.807 7620.34 395 7606.54 395H7340.54C7326.73 395 7315.54 383.807 7315.54 370V210Z" fill="white" stroke="black" stroke-width="3"/>
<rect x="7339.54" y="225" width="268" height="156" rx="25" fill="black" stroke="black" stroke-width="3"/>
<rect x="7353.01" y="254" width="110" height="110" stroke="black" stroke-width="3"/>
<circle cx="7408.01" cy="287" r="55" fill="white"/>
<circle cx="7408.01" cy="286.999" r="41.8" fill="black"/>
<rect x="7485.01" y="254" width="110" height="110" stroke="black" stroke-width="3"/>
<circle cx="7540.01" cy="287" r="55" fill="white"/>
<circle cx="7540.01" cy="286.999" r="41.8" fill="black"/>
<path d="M7290.56 192.662L7305.67 248.098L7322.5 261.949C7322.5 261.949 7343.73 278.02 7348.09 260.715C7349.98 253.247 7336.82 235.626 7336.82 235.626C7336.82 235.626 7345.89 234.574 7350.9 224.31C7354.05 217.854 7326.85 204.594 7326.85 204.594C7326.85 204.594 7349.94 209.345 7342.47 192.353C7340.67 188.259 7327.39 179.388 7316.98 181.576C7306.56 183.764 7296.86 182.606 7290.56 192.662Z" fill="#693875" stroke="black" stroke-width="3"/>
<path d="M7661.52 190.501L7646.6 245.99L7629.82 259.9C7629.82 259.9 7608.64 276.046 7604.22 258.756C7602.31 251.294 7615.4 233.627 7615.4 233.627C7615.4 233.627 7606.34 232.607 7601.29 222.36C7598.11 215.916 7625.27 202.56 7625.27 202.56C7625.27 202.56 7602.19 207.392 7609.6 190.374C7611.39 186.274 7624.64 177.357 7635.06 179.508C7645.48 181.659 7655.18 180.467 7661.52 190.501Z" fill="#693875" stroke="black" stroke-width="3"/>
<path d="M6851.61 353H6825.11L6851.61 649H6900.61L6851.61 353Z" fill="white" stroke="black" stroke-width="3" stroke-linecap="round" stroke-linejoin="round"/>
<path d="M6901 649L6851.5 649C6851.5 649 6837.85 637.247 6837.32 627.219C6836.78 616.996 6839.61 606.161 6849.64 604.077C6857.18 602.508 6864.81 612.049 6864.81 612.049C6864.81 612.049 6870.78 599.658 6877.89 599.391C6885.07 599.12 6891.91 611.295 6891.91 611.295C6891.91 611.295 6897.58 604.509 6902.61 603.96C6906.87 603.497 6909.98 604.278 6913.08 607.23C6916.92 610.886 6916.43 622.438 6916.43 622.438C6916.43 622.438 6915.51 632.064 6911.77 638.109C6908.69 643.091 6901 649 6901 649Z" fill="#693875" stroke="black" stroke-width="3"/>
<path d="M6798.61 353H6825.11L6798.61 649H6749.61L6798.61 353Z" fill="white" stroke="black" stroke-width="3"/>
<path d="M6798.5 648.999L6749.5 648.999C6749.5 648.999 6736.07 637.707 6735.48 627.682C6734.88 617.462 6737.65 606.611 6747.66 604.467C6755.19 602.855 6762.88 612.35 6762.88 612.35C6762.88 612.35 6768.78 599.924 6775.88 599.615C6783.06 599.303 6789.98 611.437 6789.98 611.437C6789.98 611.437 6795.6 604.618 6800.64 604.04C6804.89 603.551 6808 604.314 6811.12 607.248C6814.99 610.882 6814.56 622.436 6814.56 622.436C6814.56 622.436 6813.7 632.067 6809.99 638.134C6806.94 643.134 6798.5 648.999 6798.5 648.999Z" fill="#693875" stroke="black" stroke-width="3"/>
<path d="M7107 254.001C7086.44 328.912 6919.04 366.107 6913.42 372.63L6943.71 323.761C6943.71 323.761 7048.04 287.019 7059.5 260C7070.96 232.981 6996.91 245.552 6996.91 245.552L7011.6 190.54C7011.6 190.54 7125 188.433 7107 254.001Z" fill="white" stroke="black" stroke-width="3"/>
<path d="M6545.54 257.708C6566.1 332.619 6733.51 369.814 6739.13 376.337L6708.83 327.468C6708.83 327.468 6604.5 290.726 6593.05 263.707C6581.59 236.688 6655.64 249.259 6655.64 249.259L6640.94 194.247C6640.94 194.247 6527.55 192.14 6545.54 257.708Z" fill="white" stroke="black" stroke-width="3"/>
<path d="M6828.49 239.275C6828.49 284.287 6792.01 320.775 6746.99 320.775C6701.98 320.775 6668.66 284.175 6665.49 239.275C6661 175.5 6683.39 164.135 6742 158C6787.01 158 6828.49 194.264 6828.49 239.275Z" fill="white" stroke="black" stroke-width="3"/>
<circle cx="6746.89" cy="239.273" r="42.5" fill="#693875" stroke="black" stroke-width="3"/>
<path d="M6981.49 239.275C6981.49 284.286 6945.01 320.775 6899.99 320.775C6854.98 320.775 6818.49 284.286 6818.49 239.275C6818.49 194.264 6854.98 157.775 6899.99 157.775C6948.23 151.695 6988.19 181.616 6981.49 239.275Z" fill="white" stroke="black" stroke-width="3"/>
<circle cx="6899.89" cy="239.273" r="42.5" fill="#693875" stroke="black" stroke-width="3"/>
<path d="M6665.53 210H6981.53V370C6981.53 383.807 6970.34 395 6956.53 395H6690.53C6676.72 395 6665.53 383.807 6665.53 370V210Z" fill="white" stroke="black" stroke-width="3"/>
<rect x="6689.53" y="225" width="268" height="156" rx="25" fill="black" stroke="black" stroke-width="3"/>
<rect x="6703" y="254" width="110" height="110" stroke="black" stroke-width="3"/>
<circle cx="6750" cy="287" r="55" fill="white"/>
<circle cx="6750" cy="286.999" r="41.8" fill="black"/>
<rect x="6835" y="254" width="110" height="110" stroke="black" stroke-width="3"/>
<circle cx="6882" cy="287" r="55" fill="white"/>
<circle cx="6882" cy="286.999" r="41.8" fill="black"/>
<path d="M6640.55 192.662L6655.66 248.098L6672.49 261.949C6672.49 261.949 6693.73 278.02 6698.09 260.715C6699.97 253.247 6686.82 235.626 6686.82 235.626C6686.82 235.626 6695.88 234.574 6700.89 224.31C6704.05 217.854 6676.84 204.594 6676.84 204.594C6676.84 204.594 6699.94 209.345 6692.47 192.353C6690.67 188.259 6677.38 179.388 6666.97 181.576C6656.56 183.764 6646.86 182.606 6640.55 192.662Z" fill="#693875" stroke="black" stroke-width="3"/>
<path d="M7011.51 190.501L6996.6 245.99L6979.81 259.9C6979.81 259.9 6958.64 276.046 6954.21 258.756C6952.31 251.294 6965.4 233.627 6965.4 233.627C6965.4 233.627 6956.33 232.607 6951.28 222.36C6948.1 215.916 6975.26 202.56 6975.26 202.56C6975.26 202.56 6952.19 207.392 6959.59 190.374C6961.38 186.274 6974.63 177.357 6985.05 179.508C6995.47 181.659 7005.17 180.467 7011.51 190.501Z" fill="#693875" stroke="black" stroke-width="3"/>
<path d="M6201.62 353H6175.12L6201.62 649H6250.62L6201.62 353Z" fill="white" stroke="black" stroke-width="3" stroke-linecap="round" stroke-linejoin="round"/>
<path d="M6251.01 649L6201.51 649C6201.51 649 6187.86 637.247 6187.33 627.219C6186.78 616.996 6189.62 606.161 6199.64 604.077C6207.18 602.508 6214.82 612.049 6214.82 612.049C6214.82 612.049 6220.79 599.658 6227.89 599.391C6235.07 599.12 6241.92 611.295 6241.92 611.295C6241.92 611.295 6247.58 604.509 6252.62 603.96C6256.88 603.497 6259.98 604.278 6263.09 607.23C6266.93 610.886 6266.43 622.438 6266.43 622.438C6266.43 622.438 6265.52 632.064 6261.78 638.109C6258.7 643.091 6251.01 649 6251.01 649Z" fill="#693875" stroke="black" stroke-width="3"/>
<path d="M6148.62 353H6175.12L6148.62 649H6099.62L6148.62 353Z" fill="white" stroke="black" stroke-width="3"/>
<path d="M6148.51 648.999L6099.51 648.999C6099.51 648.999 6086.08 637.707 6085.49 627.682C6084.88 617.462 6087.66 606.611 6097.67 604.467C6105.2 602.855 6112.89 612.35 6112.89 612.35C6112.89 612.35 6118.79 599.924 6125.89 599.615C6133.07 599.303 6139.99 611.437 6139.99 611.437C6139.99 611.437 6145.61 604.618 6150.64 604.04C6154.9 603.551 6158.01 604.314 6161.13 607.248C6164.99 610.882 6164.56 622.436 6164.56 622.436C6164.56 622.436 6163.7 632.067 6160 638.134C6156.95 643.134 6148.51 648.999 6148.51 648.999Z" fill="#693875" stroke="black" stroke-width="3"/>
<path d="M6443.09 284.003C6422.53 358.914 6269.04 366.107 6263.42 372.63L6293.72 323.761C6293.72 323.761 6378.07 302.521 6389.53 275.502C6400.99 248.483 6346.92 245.553 6346.92 245.553L6361.61 190.54C6361.61 190.54 6461.09 218.435 6443.09 284.003Z" fill="white" stroke="black" stroke-width="3"/>
<path d="M5909.31 286.446C5930.14 361.285 6083.65 367.938 6089.29 374.442L6058.82 325.68C6058.82 325.68 5974.39 304.736 5962.84 277.757C5951.29 250.778 6005.35 247.658 6005.35 247.658L5990.46 192.698C5990.46 192.698 5891.09 220.942 5909.31 286.446Z" fill="white" stroke="black" stroke-width="3"/>
<path d="M6178.5 239.275C6178.5 284.287 6142.01 320.775 6097 320.775C6051.99 320.775 6018.67 284.175 6015.5 239.275C6011.01 175.5 6033.39 164.135 6092.01 158C6137.02 158 6178.5 194.264 6178.5 239.275Z" fill="white" stroke="black" stroke-width="3"/>
<circle cx="6096.89" cy="239.273" r="42.5" fill="#693875" stroke="black" stroke-width="3"/>
<path d="M6331.5 239.275C6331.5 284.286 6295.01 320.775 6250 320.775C6204.99 320.775 6168.5 284.286 6168.5 239.275C6168.5 194.264 6204.99 157.775 6250 157.775C6298.23 151.695 6338.2 181.616 6331.5 239.275Z" fill="white" stroke="black" stroke-width="3"/>
<circle cx="6249.89" cy="239.273" r="42.5" fill="#693875" stroke="black" stroke-width="3"/>
<path d="M6015.54 210H6331.54V370C6331.54 383.807 6320.34 395 6306.54 395H6040.54C6026.73 395 6015.54 383.807 6015.54 370V210Z" fill="white" stroke="black" stroke-width="3"/>
<rect x="6039.54" y="225" width="268" height="156" rx="25" fill="black" stroke="black" stroke-width="3"/>
<rect x="6053.01" y="254" width="110" height="110" stroke="black" stroke-width="3"/>
<circle cx="6108.01" cy="287" r="55" fill="white"/>
<circle cx="6108.01" cy="286.999" r="41.8" fill="black"/>
<rect x="6185.01" y="254" width="110" height="110" stroke="black" stroke-width="3"/>
<circle cx="6240.01" cy="287" r="55" fill="white"/>
<circle cx="6240.01" cy="286.999" r="41.8" fill="black"/>
<path d="M5990.56 192.662L6005.67 248.098L6022.5 261.949C6022.5 261.949 6043.73 278.02 6048.09 260.715C6049.98 253.247 6036.82 235.626 6036.82 235.626C6036.82 235.626 6045.89 234.574 6050.9 224.31C6054.05 217.854 6026.85 204.594 6026.85 204.594C6026.85 204.594 6049.94 209.345 6042.47 192.353C6040.67 188.259 6027.39 179.388 6016.98 181.576C6006.56 183.764 5996.86 182.606 5990.56 192.662Z" fill="#693875" stroke="black" stroke-width="3"/>
<path d="M6361.52 190.501L6346.6 245.99L6329.82 259.9C6329.82 259.9 6308.64 276.046 6304.22 258.756C6302.31 251.294 6315.4 233.627 6315.4 233.627C6315.4 233.627 6306.34 232.607 6301.29 222.36C6298.11 215.916 6325.27 202.56 6325.27 202.56C6325.27 202.56 6302.19 207.392 6309.6 190.374C6311.39 186.274 6324.64 177.357 6335.06 179.508C6345.48 181.659 6355.18 180.467 6361.52 190.501Z" fill="#693875" stroke="black" stroke-width="3"/>
<path d="M5551.61 353H5525.11L5551.61 649H5600.61L5551.61 353Z" fill="white" stroke="black" stroke-width="3" stroke-linecap="round" stroke-linejoin="round"/>
<path d="M5601 649L5551.5 649C5551.5 649 5537.85 637.247 5537.32 627.219C5536.78 616.996 5539.61 606.161 5549.64 604.077C5557.18 602.508 5564.81 612.049 5564.81 612.049C5564.81 612.049 5570.78 599.658 5577.89 599.391C5585.07 599.12 5591.91 611.295 5591.91 611.295C5591.91 611.295 5597.58 604.509 5602.61 603.96C5606.87 603.497 5609.98 604.278 5613.08 607.23C5616.92 610.886 5616.43 622.438 5616.43 622.438C5616.43 622.438 5615.51 632.064 5611.77 638.109C5608.69 643.091 5601 649 5601 649Z" fill="#693875" stroke="black" stroke-width="3"/>
<path d="M5498.61 353H5525.11L5498.61 649H5449.61L5498.61 353Z" fill="white" stroke="black" stroke-width="3"/>
<path d="M5498.5 648.999L5449.5 648.999C5449.5 648.999 5436.07 637.707 5435.48 627.682C5434.88 617.462 5437.65 606.611 5447.66 604.467C5455.19 602.855 5462.88 612.35 5462.88 612.35C5462.88 612.35 5468.78 599.924 5475.88 599.615C5483.06 599.303 5489.98 611.437 5489.98 611.437C5489.98 611.437 5495.6 604.618 5500.64 604.04C5504.89 603.551 5508 604.314 5511.12 607.248C5514.99 610.882 5514.56 622.436 5514.56 622.436C5514.56 622.436 5513.7 632.067 5509.99 638.134C5506.94 643.134 5498.5 648.999 5498.5 648.999Z" fill="#693875" stroke="black" stroke-width="3"/>
<path d="M5785 296.001C5764.44 370.912 5619.04 366.108 5613.42 372.631L5643.71 323.763C5643.71 323.763 5727.04 314.521 5738.5 287.501C5749.96 260.482 5696.91 245.554 5696.91 245.554L5711.6 190.542C5711.6 190.542 5803 230.433 5785 296.001Z" fill="white" stroke="black" stroke-width="3"/>
<path d="M5267.28 297.571C5287.84 372.482 5433.25 367.678 5438.87 374.202L5408.57 325.333C5408.57 325.333 5325.24 316.091 5313.78 289.072C5302.33 262.052 5355.37 247.124 5355.37 247.124L5340.68 192.112C5340.68 192.112 5249.29 232.004 5267.28 297.571Z" fill="white" stroke="black" stroke-width="3"/>
<path d="M5528.49 239.275C5528.49 284.287 5492.01 320.775 5446.99 320.775C5401.98 320.775 5368.66 284.175 5365.49 239.275C5361 175.5 5383.39 164.135 5442 158C5487.01 158 5528.49 194.264 5528.49 239.275Z" fill="white" stroke="black" stroke-width="3"/>
<circle cx="5446.89" cy="239.277" r="42.5" fill="#693875" stroke="black" stroke-width="3"/>
<path d="M5681.5 239.275C5681.5 284.286 5645.01 320.775 5600 320.775C5554.98 320.775 5518.5 284.286 5518.5 239.275C5518.5 194.264 5554.98 157.775 5600 157.775C5648.23 151.695 5688.19 181.616 5681.5 239.275Z" fill="white" stroke="black" stroke-width="3"/>
<circle cx="5599.89" cy="239.273" r="42.5" fill="#693875" stroke="black" stroke-width="3"/>
<path d="M5365.53 210H5681.53V370C5681.53 383.807 5670.34 395 5656.53 395H5390.53C5376.72 395 5365.53 383.807 5365.53 370V210Z" fill="white" stroke="black" stroke-width="3"/>
<rect x="5389.53" y="225" width="268" height="156" rx="25" fill="black" stroke="black" stroke-width="3"/>
<rect x="5403" y="254" width="110" height="110" stroke="black" stroke-width="3"/>
<circle cx="5468" cy="287" r="55" fill="white"/>
<circle cx="5468" cy="286.999" r="41.8" fill="black"/>
<rect x="5535" y="254" width="110" height="110" stroke="black" stroke-width="3"/>
<circle cx="5600" cy="287" r="55" fill="white"/>
<circle cx="5600" cy="286.999" r="41.8" fill="black"/>
<path d="M5340.55 192.662L5355.66 248.098L5372.49 261.949C5372.49 261.949 5393.73 278.02 5398.09 260.715C5399.97 253.247 5386.82 235.626 5386.82 235.626C5386.82 235.626 5395.88 234.574 5400.9 224.31C5404.05 217.854 5376.84 204.594 5376.84 204.594C5376.84 204.594 5399.94 209.345 5392.47 192.353C5390.67 188.259 5377.38 179.388 5366.97 181.576C5356.56 183.764 5346.86 182.606 5340.55 192.662Z" fill="#693875" stroke="black" stroke-width="3"/>
<path d="M5711.51 190.501L5696.6 245.99L5679.81 259.9C5679.81 259.9 5658.64 276.046 5654.21 258.756C5652.3 251.294 5665.4 233.627 5665.4 233.627C5665.4 233.627 5656.33 232.607 5651.28 222.36C5648.1 215.916 5675.26 202.56 5675.26 202.56C5675.26 202.56 5652.19 207.392 5659.59 190.374C5661.38 186.274 5674.63 177.357 5685.05 179.508C5695.47 181.659 5705.17 180.467 5711.51 190.501Z" fill="#693875" stroke="black" stroke-width="3"/>
<path d="M4901.62 353H4875.12L4901.62 649H4950.62L4901.62 353Z" fill="white" stroke="black" stroke-width="3" stroke-linecap="round" stroke-linejoin="round"/>
<path d="M4951.01 649L4901.51 649C4901.51 649 4887.86 637.247 4887.33 627.219C4886.78 616.996 4889.62 606.161 4899.64 604.077C4907.18 602.508 4914.82 612.049 4914.82 612.049C4914.82 612.049 4920.79 599.658 4927.89 599.391C4935.07 599.12 4941.92 611.295 4941.92 611.295C4941.92 611.295 4947.58 604.509 4952.62 603.96C4956.88 603.497 4959.98 604.278 4963.09 607.23C4966.93 610.886 4966.43 622.438 4966.43 622.438C4966.43 622.438 4965.52 632.064 4961.78 638.109C4958.7 643.091 4951.01 649 4951.01 649Z" fill="#693875" stroke="black" stroke-width="3"/>
<path d="M4848.62 353H4875.12L4848.62 649H4799.62L4848.62 353Z" fill="white" stroke="black" stroke-width="3"/>
<path d="M4848.51 648.999L4799.51 648.999C4799.51 648.999 4786.08 637.707 4785.49 627.682C4784.88 617.462 4787.66 606.611 4797.67 604.467C4805.2 602.855 4812.89 612.35 4812.89 612.35C4812.89 612.35 4818.79 599.924 4825.89 599.615C4833.07 599.303 4839.99 611.437 4839.99 611.437C4839.99 611.437 4845.61 604.618 4850.64 604.04C4854.9 603.551 4858.01 604.314 4861.13 607.248C4864.99 610.882 4864.56 622.436 4864.56 622.436C4864.56 622.436 4863.7 632.067 4860 638.134C4856.95 643.134 4848.51 648.999 4848.51 648.999Z" fill="#693875" stroke="black" stroke-width="3"/>
<path d="M5143.09 284.003C5122.53 358.914 4969.04 366.107 4963.42 372.63L4993.72 323.761C4993.72 323.761 5078.07 302.521 5089.53 275.502C5100.99 248.483 5046.92 245.553 5046.92 245.553L5061.61 190.54C5061.61 190.54 5161.09 218.435 5143.09 284.003Z" fill="white" stroke="black" stroke-width="3"/>
<path d="M4609.31 286.446C4630.14 361.285 4783.65 367.938 4789.29 374.442L4758.82 325.68C4758.82 325.68 4674.39 304.736 4662.84 277.757C4651.29 250.778 4705.35 247.658 4705.35 247.658L4690.46 192.698C4690.46 192.698 4591.09 220.942 4609.31 286.446Z" fill="white" stroke="black" stroke-width="3"/>
<path d="M4878.5 239.275C4878.5 284.287 4842.01 320.775 4797 320.775C4751.99 320.775 4718.67 284.175 4715.5 239.275C4711.01 175.5 4733.39 164.135 4792.01 158C4837.02 158 4878.5 194.264 4878.5 239.275Z" fill="white" stroke="black" stroke-width="3"/>
<circle cx="4796.89" cy="239.277" r="42.5" fill="#693875" stroke="black" stroke-width="3"/>
<path d="M5031.5 239.275C5031.5 284.286 4995.01 320.775 4950 320.775C4904.99 320.775 4868.5 284.286 4868.5 239.275C4868.5 194.264 4904.99 157.775 4950 157.775C4998.23 151.695 5038.2 181.616 5031.5 239.275Z" fill="white" stroke="black" stroke-width="3"/>
<circle cx="4949.89" cy="239.273" r="42.5" fill="#693875" stroke="black" stroke-width="3"/>
<path d="M4715.54 210H5031.54V370C5031.54 383.807 5020.34 395 5006.54 395H4740.54C4726.73 395 4715.54 383.807 4715.54 370V210Z" fill="white" stroke="black" stroke-width="3"/>
<rect x="4739.54" y="225" width="268" height="156" rx="25" fill="black" stroke="black" stroke-width="3"/>
<rect x="4753.01" y="254" width="110" height="110" stroke="black" stroke-width="3"/>
<circle cx="4808.01" cy="287" r="55" fill="white"/>
<circle cx="4808.01" cy="286.999" r="41.8" fill="black"/>
<rect x="4885.01" y="254" width="110" height="110" stroke="black" stroke-width="3"/>
<circle cx="4940.01" cy="287" r="55" fill="white"/>
<circle cx="4940.01" cy="286.999" r="41.8" fill="black"/>
<path d="M4690.56 192.662L4705.67 248.098L4722.5 261.949C4722.5 261.949 4743.73 278.02 4748.09 260.715C4749.98 253.247 4736.82 235.626 4736.82 235.626C4736.82 235.626 4745.89 234.574 4750.9 224.31C4754.05 217.854 4726.85 204.594 4726.85 204.594C4726.85 204.594 4749.94 209.345 4742.47 192.353C4740.67 188.259 4727.39 179.388 4716.98 181.576C4706.56 183.764 4696.86 182.606 4690.56 192.662Z" fill="#693875" stroke="black" stroke-width="3"/>
<path d="M5061.52 190.501L5046.6 245.99L5029.82 259.9C5029.82 259.9 5008.64 276.046 5004.22 258.756C5002.31 251.294 5015.4 233.627 5015.4 233.627C5015.4 233.627 5006.34 232.607 5001.29 222.36C4998.11 215.916 5025.27 202.56 5025.27 202.56C5025.27 202.56 5002.19 207.392 5009.6 190.374C5011.39 186.274 5024.64 177.357 5035.06 179.508C5045.48 181.659 5055.18 180.467 5061.52 190.501Z" fill="#693875" stroke="black" stroke-width="3"/>
<path d="M4251.61 353H4225.11L4251.61 649H4300.61L4251.61 353Z" fill="white" stroke="black" stroke-width="3" stroke-linecap="round" stroke-linejoin="round"/>
<path d="M4301 649L4251.5 649C4251.5 649 4237.85 637.247 4237.32 627.219C4236.78 616.996 4239.61 606.161 4249.64 604.077C4257.18 602.508 4264.81 612.049 4264.81 612.049C4264.81 612.049 4270.78 599.658 4277.89 599.391C4285.07 599.12 4291.91 611.295 4291.91 611.295C4291.91 611.295 4297.58 604.509 4302.61 603.96C4306.87 603.497 4309.98 604.278 4313.08 607.23C4316.92 610.886 4316.43 622.438 4316.43 622.438C4316.43 622.438 4315.51 632.064 4311.77 638.109C4308.69 643.091 4301 649 4301 649Z" fill="#693875" stroke="black" stroke-width="3"/>
<path d="M4198.61 353H4225.11L4198.61 649H4149.61L4198.61 353Z" fill="white" stroke="black" stroke-width="3"/>
<path d="M4198.5 648.999L4149.5 648.999C4149.5 648.999 4136.07 637.707 4135.48 627.682C4134.88 617.462 4137.65 606.611 4147.66 604.467C4155.19 602.855 4162.88 612.35 4162.88 612.35C4162.88 612.35 4168.78 599.924 4175.88 599.615C4183.06 599.303 4189.98 611.437 4189.98 611.437C4189.98 611.437 4195.6 604.618 4200.64 604.04C4204.89 603.551 4208 604.314 4211.12 607.248C4214.99 610.882 4214.56 622.436 4214.56 622.436C4214.56 622.436 4213.7 632.067 4209.99 638.134C4206.94 643.134 4198.5 648.999 4198.5 648.999Z" fill="#693875" stroke="black" stroke-width="3"/>
<path d="M4228.49 239.275C4228.49 284.287 4192.01 320.775 4146.99 320.775C4101.98 320.775 4068.66 284.175 4065.49 239.275C4061 175.5 4083.39 164.135 4142 158C4187.01 158 4228.49 194.264 4228.49 239.275Z" fill="white" stroke="black" stroke-width="3"/>
<circle cx="4146.89" cy="239.277" r="42.5" fill="#693875" stroke="black" stroke-width="3"/>
<path d="M4381.5 239.275C4381.5 284.286 4345.01 320.775 4300 320.775C4254.98 320.775 4218.5 284.286 4218.5 239.275C4218.5 194.264 4254.98 157.775 4300 157.775C4348.23 151.695 4388.19 181.616 4381.5 239.275Z" fill="white" stroke="black" stroke-width="3"/>
<circle cx="4299.89" cy="239.273" r="42.5" fill="#693875" stroke="black" stroke-width="3"/>
<path d="M4065.53 210H4381.53V370C4381.53 383.807 4370.34 395 4356.53 395H4090.53C4076.72 395 4065.53 383.807 4065.53 370V210Z" fill="white" stroke="black" stroke-width="3"/>
<rect x="4089.53" y="225" width="268" height="156" rx="25" fill="black" stroke="black" stroke-width="3"/>
<rect x="4103" y="254" width="110" height="110" stroke="black" stroke-width="3"/>
<circle cx="4158" cy="287" r="55" fill="white"/>
<circle cx="4158" cy="286.999" r="41.8" fill="black"/>
<rect x="4235" y="254" width="110" height="110" stroke="black" stroke-width="3"/>
<circle cx="4290" cy="287" r="55" fill="white"/>
<circle cx="4290" cy="286.999" r="41.8" fill="black"/>
<path d="M3959.58 172.456C3937.59 246.957 4064.24 333.948 4065.58 342.455L4065.58 285C4065.58 285 4005.08 222.454 4009.59 193.454C4014.09 164.453 4061.58 190.455 4061.58 190.455L4078.08 135.957C4078.08 135.957 3978.84 107.247 3959.58 172.456Z" fill="white" stroke="black" stroke-width="3"/>
<path d="M4078.18 135.973L4061.62 190.991L4068.56 211.658C4068.56 211.658 4078.04 236.538 4090.91 224.175C4096.47 218.839 4094.65 196.925 4094.65 196.925C4094.65 196.925 4102.89 200.835 4112.59 194.788C4118.68 190.985 4102.64 165.322 4102.64 165.322C4102.64 165.322 4119.7 181.589 4122.37 163.222C4123.02 158.796 4116.45 144.233 4106.46 140.571C4096.47 136.909 4088.86 130.787 4078.18 135.973Z" fill="#693875" stroke="black" stroke-width="3"/>
<path d="M4487 172.501C4509 247.002 4382.84 333.994 4381.5 342.501L4382 285.002C4382 285.002 4441.5 222.5 4437 193.499C4432.5 164.498 4385 190.5 4385 190.5L4368.5 136.002C4368.5 136.002 4467.74 107.292 4487 172.501Z" fill="white" stroke="black" stroke-width="3"/>
<path d="M4368.4 136.02L4384.97 191.038L4378.03 211.705C4378.03 211.705 4368.54 236.585 4355.67 224.221C4350.12 218.885 4351.93 196.972 4351.93 196.972C4351.93 196.972 4343.69 200.882 4334 194.835C4327.9 191.032 4343.95 165.369 4343.95 165.369C4343.95 165.369 4326.88 181.636 4324.21 163.268C4323.57 158.843 4330.13 144.28 4340.12 140.618C4350.11 136.955 4357.72 130.834 4368.4 136.02Z" fill="#693875" stroke="black" stroke-width="3"/>
<path d="M3601.62 353H3575.12L3601.62 649H3650.62L3601.62 353Z" fill="white" stroke="black" stroke-width="3" stroke-linecap="round" stroke-linejoin="round"/>
<path d="M3651.01 649L3601.51 649C3601.51 649 3587.86 637.247 3587.33 627.219C3586.78 616.996 3589.62 606.161 3599.64 604.077C3607.18 602.508 3614.82 612.049 3614.82 612.049C3614.82 612.049 3620.79 599.658 3627.89 599.391C3635.07 599.12 3641.92 611.295 3641.92 611.295C3641.92 611.295 3647.58 604.509 3652.62 603.96C3656.88 603.497 3659.99 604.278 3663.09 607.23C3666.93 610.886 3666.43 622.438 3666.43 622.438C3666.43 622.438 3665.52 632.064 3661.78 638.109C3658.7 643.091 3651.01 649 3651.01 649Z" fill="#693875" stroke="black" stroke-width="3"/>
<path d="M3548.62 353H3575.12L3548.62 649H3499.62L3548.62 353Z" fill="white" stroke="black" stroke-width="3"/>
<path d="M3548.51 648.999L3499.51 648.999C3499.51 648.999 3486.08 637.707 3485.49 627.682C3484.88 617.462 3487.66 606.611 3497.67 604.467C3505.2 602.855 3512.89 612.35 3512.89 612.35C3512.89 612.35 3518.79 599.924 3525.89 599.615C3533.07 599.303 3539.99 611.437 3539.99 611.437C3539.99 611.437 3545.61 604.618 3550.64 604.04C3554.9 603.551 3558.01 604.314 3561.13 607.248C3564.99 610.882 3564.56 622.436 3564.56 622.436C3564.56 622.436 3563.7 632.067 3560 638.134C3556.95 643.134 3548.51 648.999 3548.51 648.999Z" fill="#693875" stroke="black" stroke-width="3"/>
<path d="M3583.01 240.499C3583.01 285.511 3546.52 321.999 3501.51 321.999C3456.5 321.999 3419.01 285.511 3419.01 240.499C3414.22 194.767 3453.83 158.597 3501.51 158.999C3546.52 158.999 3583.01 195.488 3583.01 240.499Z" fill="white" stroke="black" stroke-width="3"/>
<circle cx="3501.4" cy="240.5" r="42.5" fill="#693875" stroke="black" stroke-width="3"/>
<path d="M3735.51 240.5C3735.51 285.511 3699.52 322 3654.51 322C3609.5 322 3573.01 285.511 3573.01 240.5C3573.01 195.489 3609.5 159 3654.51 159C3704.74 154.844 3742 190.598 3735.51 240.5Z" fill="white" stroke="black" stroke-width="3"/>
<circle cx="3654.4" cy="240.5" r="42.5" fill="#693875" stroke="black" stroke-width="3"/>
<path d="M3419.54 219H3735.54V379C3735.54 392.807 3724.35 404 3710.54 404H3444.54C3430.73 404 3419.54 392.807 3419.54 379V219Z" fill="white" stroke="black" stroke-width="3"/>
<rect x="3443.54" y="234" width="268" height="156" rx="25" fill="black" stroke="black" stroke-width="3"/>
<rect x="3461.54" y="262" width="100" height="100" stroke="black" stroke-width="3"/>
<circle cx="3515.01" cy="290" r="50" fill="white"/>
<circle cx="3515.01" cy="290" r="38" fill="black"/>
<rect x="3593.54" y="262" width="100" height="100" stroke="black" stroke-width="3"/>
<circle cx="3647.01" cy="290" r="50" fill="white"/>
<circle cx="3647.01" cy="290" r="38" fill="black"/>
<path d="M3375.31 176.049C3338.39 240.571 3407.51 332.498 3419.51 336.501L3419.51 278.003C3419.51 278.003 3390.09 238.777 3414.35 192.758C3438.61 146.739 3513.67 214.077 3507.73 206.377L3525.04 151.817C3525.04 151.817 3417.23 102.79 3375.31 176.049Z" fill="white" stroke="black" stroke-width="3"/>
<path d="M3523.87 151.685L3506.78 206.544L3513.52 227.276C3513.52 227.276 3522.78 252.245 3535.76 240.003C3541.37 234.72 3539.76 212.79 3539.76 212.79C3539.76 212.79 3547.96 216.779 3557.71 210.823C3563.84 207.078 3548.04 181.265 3548.04 181.265C3548.04 181.265 3564.95 197.692 3567.8 179.351C3568.48 174.931 3562.05 160.307 3552.1 156.55C3542.15 152.794 3534.59 146.6 3523.87 151.685Z" fill="#693875" stroke="black" stroke-width="3"/>
<path d="M3783.45 186.57C3813.96 254.357 3744.51 334 3735.51 340.498L3736.01 280.999C3736.01 280.999 3762.68 247.576 3742.98 199.428C3723.28 151.28 3642.07 211.051 3648.72 203.96L3636.76 147.983C3636.76 147.983 3748.81 109.602 3783.45 186.57Z" fill="white" stroke="black" stroke-width="3"/>
<path d="M3637.95 147.963L3649.65 204.216L3640.94 224.199C3640.94 224.199 3629.31 248.157 3617.57 234.718C3612.5 228.918 3616.22 207.247 3616.22 207.247C3616.22 207.247 3607.67 210.423 3598.54 203.554C3592.8 199.233 3611.03 175.068 3611.03 175.068C3611.03 175.068 3592.61 189.784 3591.55 171.254C3591.29 166.789 3599.1 152.854 3609.37 150.077C3619.64 147.3 3627.76 141.865 3637.95 147.963Z" fill="#693875" stroke="black" stroke-width="3"/>
<path d="M2951.61 353H2925.11L2951.61 649H3000.61L2951.61 353Z" fill="white" stroke="black" stroke-width="3" stroke-linecap="round" stroke-linejoin="round"/>
<path d="M3001 649L2951.5 649C2951.5 649 2937.85 637.247 2937.32 627.219C2936.78 616.996 2939.61 606.161 2949.64 604.077C2957.18 602.508 2964.81 612.049 2964.81 612.049C2964.81 612.049 2970.78 599.658 2977.89 599.391C2985.07 599.12 2991.91 611.295 2991.91 611.295C2991.91 611.295 2997.58 604.509 3002.61 603.96C3006.87 603.497 3009.98 604.278 3013.08 607.23C3016.92 610.886 3016.43 622.438 3016.43 622.438C3016.43 622.438 3015.51 632.064 3011.77 638.109C3008.69 643.091 3001 649 3001 649Z" fill="#693875" stroke="black" stroke-width="3"/>
<path d="M2898.61 353H2925.11L2898.61 649H2849.61L2898.61 353Z" fill="white" stroke="black" stroke-width="3"/>
<path d="M2898.5 648.999L2849.5 648.999C2849.5 648.999 2836.07 637.707 2835.48 627.682C2834.88 617.462 2837.65 606.611 2847.66 604.467C2855.19 602.855 2862.88 612.35 2862.88 612.35C2862.88 612.35 2868.78 599.924 2875.88 599.615C2883.06 599.303 2889.98 611.437 2889.98 611.437C2889.98 611.437 2895.6 604.618 2900.63 604.04C2904.89 603.551 2908 604.314 2911.12 607.248C2914.99 610.882 2914.56 622.436 2914.56 622.436C2914.56 622.436 2913.7 632.067 2909.99 638.134C2906.94 643.134 2898.5 648.999 2898.5 648.999Z" fill="#693875" stroke="black" stroke-width="3"/>
<circle cx="2848.5" cy="241.5" r="81.5" fill="white" stroke="black" stroke-width="3"/>
<circle cx="2848.39" cy="241.5" r="42.5" fill="#693875" stroke="black" stroke-width="3"/>
<circle cx="3001.5" cy="241.5" r="81.5" fill="white" stroke="black" stroke-width="3"/>
<circle cx="3001.39" cy="241.5" r="42.5" fill="#693875" stroke="black" stroke-width="3"/>
<path d="M2766.53 219H3082.53V379C3082.53 392.807 3071.34 404 3057.53 404H2791.53C2777.72 404 2766.53 392.807 2766.53 379V219Z" fill="white" stroke="black" stroke-width="3"/>
<rect x="2790.53" y="234" width="268" height="156" rx="25" fill="black" stroke="black" stroke-width="3"/>
<rect x="2809" y="242" width="100" height="100" stroke="black" stroke-width="3"/>
<circle cx="2859" cy="292" r="50" fill="white"/>
<circle cx="2859" cy="292" r="38" fill="black"/>
<path d="M2923.53 330.443C2918.97 331.022 2914.34 330.697 2909.91 329.486C2905.47 328.276 2901.32 326.203 2897.69 323.388C2894.06 320.573 2891.01 317.07 2888.73 313.079C2886.45 309.087 2884.98 304.686 2884.4 300.126C2883.83 295.567 2884.15 290.938 2885.36 286.504C2886.57 282.07 2888.64 277.918 2891.46 274.284C2894.28 270.651 2897.78 267.608 2901.77 265.329C2905.76 263.049 2910.16 261.578 2914.72 261L2919.13 295.722L2923.53 330.443Z" fill="black"/>
<rect x="2941" y="242" width="100" height="100" stroke="black" stroke-width="3"/>
<circle cx="2991" cy="292" r="50" fill="white"/>
<circle cx="2991" cy="292" r="38" fill="black"/>
<path d="M2932 330.443C2936.56 331.022 2941.19 330.697 2945.62 329.486C2950.06 328.276 2954.21 326.203 2957.84 323.388C2961.48 320.573 2964.52 317.07 2966.8 313.079C2969.08 309.087 2970.55 304.686 2971.13 300.126C2971.71 295.567 2971.38 290.938 2970.17 286.504C2968.96 282.07 2966.89 277.918 2964.07 274.284C2961.26 270.651 2957.75 267.608 2953.76 265.329C2949.77 263.049 2945.37 261.578 2940.81 261L2936.4 295.722L2932 330.443Z" fill="black"/>
<path d="M2663.43 287.139C2670.68 329.781 2761.13 354.132 2766.5 358V307.5C2766.5 307.5 2698.01 301.25 2704.72 281.951C2711.42 262.652 2795.26 280.385 2786.01 278.75L2769.01 223.75C2769.01 223.75 2655.19 238.721 2663.43 287.139Z" fill="white" stroke="black" stroke-width="3"/>
<path d="M2768.51 224.75L2785.01 277.75L2801.61 291.855C2801.61 291.855 2823.02 307.686 2827.19 290.332C2828.98 282.843 2815.63 265.372 2815.63 265.372C2815.63 265.372 2824.68 264.217 2829.58 253.897C2832.66 247.406 2805.31 234.455 2805.31 234.455C2805.31 234.455 2828.45 238.944 2820.79 222.038C2818.95 217.964 2805.56 209.245 2795.18 211.55C2784.79 213.855 2774.7 214.623 2768.51 224.75Z" fill="#693875" stroke="black" stroke-width="3"/>
<path d="M3185.58 287.139C3178.33 329.781 3087.87 353.632 3082.5 357.5V308C3082.5 308 3151 301.25 3144.29 281.951C3137.58 262.652 3053.75 280.385 3063 278.75L3080 223.75C3080 223.75 3193.82 238.721 3185.58 287.139Z" fill="white" stroke="black" stroke-width="3"/>
<path d="M3080.5 224.75L3064 277.75L3047.4 291.855C3047.4 291.855 3025.99 307.686 3021.82 290.332C3020.02 282.843 3033.37 265.372 3033.37 265.372C3033.37 265.372 3024.32 264.217 3019.43 253.897C3016.34 247.406 3043.7 234.455 3043.7 234.455C3043.7 234.455 3020.55 238.944 3028.21 222.038C3030.06 217.964 3043.44 209.245 3053.83 211.55C3064.22 213.855 3074.31 214.623 3080.5 224.75Z" fill="#693875" stroke="black" stroke-width="3"/>
<path d="M2301.61 353H2275.11L2301.61 649H2350.61L2301.61 353Z" fill="white" stroke="black" stroke-width="3" stroke-linecap="round" stroke-linejoin="round"/>
<path d="M2351 649L2301.5 649C2301.5 649 2287.85 637.247 2287.32 627.219C2286.78 616.996 2289.61 606.161 2299.64 604.077C2307.18 602.508 2314.81 612.049 2314.81 612.049C2314.81 612.049 2320.78 599.658 2327.89 599.391C2335.07 599.12 2341.91 611.295 2341.91 611.295C2341.91 611.295 2347.58 604.509 2352.61 603.96C2356.87 603.497 2359.98 604.278 2363.08 607.23C2366.92 610.886 2366.43 622.438 2366.43 622.438C2366.43 622.438 2365.51 632.064 2361.77 638.109C2358.69 643.091 2351 649 2351 649Z" fill="#693875" stroke="black" stroke-width="3"/>
<path d="M2248.61 353H2275.11L2248.61 649H2199.61L2248.61 353Z" fill="white" stroke="black" stroke-width="3"/>
<path d="M2248.5 648.999L2199.5 648.999C2199.5 648.999 2186.07 637.707 2185.48 627.682C2184.88 617.462 2187.65 606.611 2197.66 604.467C2205.19 602.855 2212.88 612.35 2212.88 612.35C2212.88 612.35 2218.78 599.924 2225.88 599.615C2233.06 599.303 2239.98 611.437 2239.98 611.437C2239.98 611.437 2245.6 604.618 2250.64 604.04C2254.89 603.551 2258 604.314 2261.12 607.248C2264.99 610.882 2264.56 622.436 2264.56 622.436C2264.56 622.436 2263.7 632.067 2259.99 638.134C2256.94 643.134 2248.5 648.999 2248.5 648.999Z" fill="#693875" stroke="black" stroke-width="3"/>
<circle cx="2198.5" cy="219.5" r="81.5" fill="white" stroke="black" stroke-width="3"/>
<circle cx="2198.39" cy="219.5" r="42.5" fill="#693875" stroke="black" stroke-width="3"/>
<circle cx="2351.5" cy="219.5" r="81.5" fill="white" stroke="black" stroke-width="3"/>
<circle cx="2351.39" cy="219.5" r="42.5" fill="#693875" stroke="black" stroke-width="3"/>
<path d="M2116.53 205H2432.53V365C2432.53 378.807 2421.34 390 2407.53 390H2141.53C2127.72 390 2116.53 378.807 2116.53 365V205Z" fill="white" stroke="black" stroke-width="3"/>
<rect x="2140.53" y="220" width="268" height="156" rx="25" fill="black" stroke="black" stroke-width="3"/>
<rect x="2158.53" y="248" width="100" height="100" stroke="black" stroke-width="3"/>
<circle cx="2209" cy="281" r="50" fill="white"/>
<circle cx="2209" cy="281" r="38" fill="black"/>
<rect x="2290.53" y="248" width="100" height="100" stroke="black" stroke-width="3"/>
<circle cx="2341" cy="281" r="50" fill="white"/>
<circle cx="2341" cy="281" r="38" fill="black"/>
<path d="M2013.43 343.611C2020.68 300.969 2111.13 276.868 2116.5 273V323C2116.5 323 2048.01 329.5 2054.72 348.799C2061.42 368.098 2145.26 350.365 2136.01 352L2119.01 407C2119.01 407 2005.19 392.029 2013.43 343.611Z" fill="white" stroke="black" stroke-width="3"/>
<path d="M2118.51 406L2135.01 353L2151.61 338.895C2151.61 338.895 2173.02 323.064 2177.19 340.418C2178.98 347.907 2165.63 365.378 2165.63 365.378C2165.63 365.378 2174.68 366.533 2179.58 376.853C2182.66 383.344 2155.31 396.295 2155.31 396.295C2155.31 396.295 2178.45 391.806 2170.79 408.712C2168.95 412.786 2155.56 421.505 2145.18 419.2C2134.79 416.895 2124.7 416.127 2118.51 406Z" fill="#693875" stroke="black" stroke-width="3"/>
<path d="M2535.58 343.611C2528.33 300.969 2438.37 276.368 2433 272.5V323C2433 323 2501 329.5 2494.29 348.799C2487.58 368.098 2403.75 350.365 2413 352L2430 407C2430 407 2543.82 392.029 2535.58 343.611Z" fill="white" stroke="black" stroke-width="3"/>
<path d="M2430.5 406L2414 353L2397.4 338.895C2397.4 338.895 2375.99 323.064 2371.82 340.418C2370.02 347.907 2383.37 365.378 2383.37 365.378C2383.37 365.378 2374.32 366.533 2369.43 376.853C2366.34 383.344 2393.7 396.295 2393.7 396.295C2393.7 396.295 2370.55 391.806 2378.21 408.712C2380.06 412.786 2393.44 421.505 2403.83 419.2C2414.22 416.895 2424.31 416.127 2430.5 406Z" fill="#693875" stroke="black" stroke-width="3"/>
<path d="M1651.61 353H1625.11L1651.61 649H1700.61L1651.61 353Z" fill="white" stroke="black" stroke-width="3" stroke-linecap="round" stroke-linejoin="round"/>
<path d="M1701 649L1651.5 649C1651.5 649 1637.85 637.247 1637.32 627.219C1636.78 616.996 1639.61 606.161 1649.64 604.077C1657.18 602.508 1664.81 612.049 1664.81 612.049C1664.81 612.049 1670.78 599.658 1677.89 599.391C1685.07 599.12 1691.91 611.295 1691.91 611.295C1691.91 611.295 1697.58 604.509 1702.61 603.96C1706.87 603.497 1709.98 604.278 1713.08 607.23C1716.92 610.886 1716.43 622.438 1716.43 622.438C1716.43 622.438 1715.51 632.064 1711.77 638.109C1708.69 643.091 1701 649 1701 649Z" fill="#693875" stroke="black" stroke-width="3"/>
<path d="M1598.61 353H1625.11L1598.61 649H1549.61L1598.61 353Z" fill="white" stroke="black" stroke-width="3"/>
<path d="M1598.5 648.999L1549.5 648.999C1549.5 648.999 1536.07 637.707 1535.48 627.682C1534.88 617.462 1537.65 606.611 1547.66 604.467C1555.19 602.855 1562.88 612.35 1562.88 612.35C1562.88 612.35 1568.78 599.924 1575.88 599.615C1583.06 599.303 1589.98 611.437 1589.98 611.437C1589.98 611.437 1595.6 604.618 1600.64 604.04C1604.89 603.551 1608 604.314 1611.12 607.248C1614.99 610.882 1614.56 622.436 1614.56 622.436C1614.56 622.436 1613.7 632.067 1609.99 638.134C1606.94 643.134 1598.5 648.999 1598.5 648.999Z" fill="#693875" stroke="black" stroke-width="3"/>
<path d="M1363.42 395.5C1370.71 321.522 1461.13 279.71 1466.53 273V322.386C1466.53 322.386 1394.81 339.887 1404.92 404.5C1415.03 469.113 1498.22 444.664 1488.92 447.5L1471.42 502C1471.42 502 1355.14 479.497 1363.42 395.5Z" fill="white" stroke="black" stroke-width="3"/>
<path d="M1471.09 502.119L1488.92 447.5L1506.42 434.5C1506.42 434.5 1528.42 419.5 1531.92 437C1533.43 444.553 1519.42 461.5 1519.42 461.5C1519.42 461.5 1528.42 463 1532.92 473.5C1535.75 480.104 1507.92 492 1507.92 492C1507.92 492 1531.22 488.399 1522.92 505C1520.92 509 1507.21 517.201 1496.92 514.5C1486.63 511.8 1476.89 512.476 1471.09 502.119Z" fill="#693875" stroke="black" stroke-width="3"/>
<path d="M1885.76 395.5C1878.46 321.522 1788.05 279.71 1782.65 273V322.386C1782.65 322.386 1854.37 339.887 1844.26 404.5C1834.15 469.113 1750.96 444.664 1760.26 447.5L1777.76 502C1777.76 502 1894.04 479.497 1885.76 395.5Z" fill="white" stroke="black" stroke-width="3"/>
<path d="M1778.09 502.119L1760.26 447.5L1742.76 434.5C1742.76 434.5 1720.76 419.5 1717.26 437C1715.75 444.553 1729.76 461.5 1729.76 461.5C1729.76 461.5 1720.76 463 1716.26 473.5C1713.43 480.104 1741.26 492 1741.26 492C1741.26 492 1717.96 488.399 1726.26 505C1728.26 509 1741.97 517.201 1752.26 514.5C1762.55 511.8 1772.29 512.476 1778.09 502.119Z" fill="#693875" stroke="black" stroke-width="3"/>
<circle cx="1548.03" cy="207.5" r="81.5" fill="white" stroke="black" stroke-width="3"/>
<circle cx="1547.92" cy="207.5" r="42.5" fill="#693875" stroke="black" stroke-width="3"/>
<circle cx="1701.03" cy="207.5" r="81.5" fill="white" stroke="black" stroke-width="3"/>
<circle cx="1700.92" cy="207.5" r="42.5" fill="#693875" stroke="black" stroke-width="3"/>
<path d="M1466.53 205H1782.53V365C1782.53 378.807 1771.34 390 1757.53 390H1491.53C1477.72 390 1466.53 378.807 1466.53 365V205Z" fill="white" stroke="black" stroke-width="3"/>
<rect x="1490.53" y="220" width="268" height="156" rx="25" fill="black" stroke="black" stroke-width="3"/>
<rect x="1508.53" y="248" width="100" height="100" stroke="black" stroke-width="3"/>
<circle cx="1559" cy="281" r="50" fill="white"/>
<circle cx="1559" cy="281" r="38" fill="black"/>
<rect x="1640.53" y="248" width="100" height="100" stroke="black" stroke-width="3"/>
<circle cx="1691" cy="281" r="50" fill="white"/>
<circle cx="1691" cy="281" r="38" fill="black"/>
<path d="M1001.61 353H975.114L1001.61 649H1050.61L1001.61 353Z" fill="white" stroke="black" stroke-width="3" stroke-linecap="round" stroke-linejoin="round"/>
<path d="M1051 649L1001.5 649C1001.5 649 987.858 637.247 987.325 627.219C986.782 616.996 989.617 606.161 999.64 604.077C1007.18 602.508 1014.81 612.049 1014.81 612.049C1014.81 612.049 1020.79 599.658 1027.89 599.391C1035.07 599.12 1041.92 611.295 1041.92 611.295C1041.92 611.295 1047.58 604.509 1052.62 603.96C1056.87 603.497 1059.98 604.278 1063.08 607.23C1066.93 610.886 1066.43 622.438 1066.43 622.438C1066.43 622.438 1065.51 632.064 1061.78 638.109C1058.69 643.091 1051 649 1051 649Z" fill="#693875" stroke="black" stroke-width="3"/>
<path d="M948.614 353H975.114L948.614 649H899.614L948.614 353Z" fill="white" stroke="black" stroke-width="3"/>
<path d="M948.505 648.999L899.505 648.999C899.505 648.999 886.078 637.707 885.486 627.682C884.883 617.462 887.655 606.611 897.665 604.467C905.197 602.855 912.886 612.35 912.886 612.35C912.886 612.35 918.788 599.924 925.888 599.615C933.067 599.303 939.986 611.437 939.986 611.437C939.986 611.437 945.608 604.618 950.641 604.04C954.895 603.551 958.007 604.314 961.127 607.248C964.991 610.882 964.563 622.436 964.563 622.436C964.563 622.436 963.703 632.067 959.999 638.134C956.947 643.134 948.505 648.999 948.505 648.999Z" fill="#693875" stroke="black" stroke-width="3"/>
<path d="M731.346 378.5C754.713 284.543 817.114 260 817.114 260V309.386C817.114 309.386 775.111 331.636 768.005 401.5C760.899 471.364 813.005 485 813.005 485L768.005 520.5C768.005 520.5 710.976 460.409 731.346 378.5Z" fill="white" stroke="black" stroke-width="3"/>
<path d="M768.53 520.626L813.004 484.502L835.004 484.502C835.004 484.502 860.592 492.448 850.504 505.502C845.795 511.596 828.504 519.002 828.504 519.002C828.504 519.002 832.522 534.521 827.004 539.002C821.427 543.531 801.004 535.428 801.004 535.428C801.004 535.428 818.005 546.002 803.005 555.502C799.387 557.793 807.258 555.998 803.005 555.502C797.736 554.887 783.723 553.818 776.504 546.002C769.286 538.186 767.843 532.477 768.53 520.626Z" fill="#693875"/>
<path d="M803.005 555.502C797.736 554.887 783.723 553.818 776.504 546.002C769.286 538.186 767.843 532.477 768.53 520.626L813.004 484.502L835.004 484.502C835.004 484.502 860.592 492.448 850.504 505.502C845.795 511.596 828.504 519.002 828.504 519.002C828.504 519.002 832.522 534.521 827.004 539.002C821.427 543.531 801.004 535.428 801.004 535.428C801.004 535.428 818.005 546.002 803.005 555.502ZM803.005 555.502C799.387 557.793 807.258 555.998 803.005 555.502Z" stroke="black" stroke-width="3"/>
<path d="M1214.36 380.5C1190.99 286.543 1128.59 262 1128.59 262V311.386C1128.59 311.386 1170.59 333.636 1177.7 403.5C1184.81 473.364 1132.7 487 1132.7 487L1177.7 522.5C1177.7 522.5 1234.73 462.409 1214.36 380.5Z" fill="white" stroke="black" stroke-width="3"/>
<path d="M1177.17 522.622L1132.7 486.498L1110.7 486.498C1110.7 486.498 1085.11 494.444 1095.2 507.498C1099.91 513.593 1117.2 520.998 1117.2 520.998C1117.2 520.998 1113.18 536.517 1118.7 540.998C1124.28 545.527 1144.7 537.424 1144.7 537.424C1144.7 537.424 1127.7 547.998 1142.7 557.498C1146.32 559.789 1138.45 557.994 1142.7 557.498C1147.97 556.883 1161.98 555.814 1169.2 547.998C1176.42 540.182 1177.86 534.473 1177.17 522.622Z" fill="#693875"/>
<path d="M1142.7 557.498C1147.97 556.883 1161.98 555.814 1169.2 547.998C1176.42 540.182 1177.86 534.473 1177.17 522.622L1132.7 486.498L1110.7 486.498C1110.7 486.498 1085.11 494.444 1095.2 507.498C1099.91 513.593 1117.2 520.998 1117.2 520.998C1117.2 520.998 1113.18 536.517 1118.7 540.998C1124.28 545.527 1144.7 537.424 1144.7 537.424C1144.7 537.424 1127.7 547.998 1142.7 557.498ZM1142.7 557.498C1146.32 559.789 1138.45 557.994 1142.7 557.498Z" stroke="black" stroke-width="3"/>
<circle cx="898.613" cy="194.5" r="81.5" fill="white" stroke="black" stroke-width="3"/>
<circle cx="898.505" cy="194.5" r="42.5" fill="#693875" stroke="black" stroke-width="3"/>
<circle cx="1051.61" cy="194.5" r="81.5" fill="white" stroke="black" stroke-width="3"/>
<circle cx="1051.5" cy="194.5" r="42.5" fill="#693875" stroke="black" stroke-width="3"/>
<path d="M817.113 192H1133.11V352C1133.11 365.807 1121.92 377 1108.11 377H842.113C828.306 377 817.113 365.807 817.113 352V192Z" fill="white" stroke="black" stroke-width="3"/>
<rect x="841.113" y="207" width="268" height="156" rx="25" fill="black" stroke="black" stroke-width="3"/>
<rect x="859.113" y="235" width="100" height="100" stroke="black" stroke-width="3"/>
<circle cx="909.005" cy="276" r="50" fill="white"/>
<circle cx="909.005" cy="276" r="38" fill="black"/>
<rect x="991.113" y="235" width="100" height="100" stroke="black" stroke-width="3"/>
<circle cx="1041" cy="276" r="50" fill="white"/>
<circle cx="1041" cy="276" r="38" fill="black"/>
<path d="M351.609 353H325.109L351.609 649H400.609L351.609 353Z" fill="white" stroke="black" stroke-width="3" stroke-linecap="round" stroke-linejoin="round"/>
<path d="M401 649L351.5 649C351.5 649 337.853 637.247 337.32 627.219C336.777 616.996 339.612 606.161 349.636 604.077C357.177 602.508 364.809 612.049 364.809 612.049C364.809 612.049 370.784 599.658 377.887 599.391C385.067 599.12 391.914 611.295 391.914 611.295C391.914 611.295 397.577 604.509 402.612 603.96C406.87 603.497 409.977 604.278 413.08 607.23C416.922 610.886 416.426 622.438 416.426 622.438C416.426 622.438 415.51 632.064 411.771 638.109C408.689 643.091 401 649 401 649Z" fill="#693875" stroke="black" stroke-width="3"/>
<path d="M298.609 353H325.109L298.609 649H249.609L298.609 353Z" fill="white" stroke="black" stroke-width="3"/>
<path d="M298.5 648.999L249.5 648.999C249.5 648.999 236.073 637.707 235.481 627.682C234.878 617.462 237.65 606.611 247.661 604.467C255.192 602.855 262.881 612.35 262.881 612.35C262.881 612.35 268.783 599.924 275.884 599.615C283.062 599.303 289.981 611.437 289.981 611.437C289.981 611.437 295.603 604.618 300.636 604.04C304.89 603.551 308.002 604.314 311.122 607.248C314.986 610.882 314.558 622.436 314.558 622.436C314.558 622.436 313.698 632.067 309.994 638.134C306.942 643.134 298.5 648.999 298.5 648.999Z" fill="#693875" stroke="black" stroke-width="3"/>
<path d="M99.8168 353.852C123.183 259.896 167.109 236 167.109 236V285.386C167.109 285.386 142.926 324.943 135.82 394.807C128.714 464.67 130.609 499 130.609 499L81.3415 492.977C81.3415 492.977 79.4467 435.761 99.8168 353.852Z" fill="white" stroke="black" stroke-width="3"/>
<path d="M81.109 493.003L130.609 499.003C130.609 499.003 142.391 511.716 141.718 521.736C141.032 531.951 136.919 542.368 126.718 543.236C119.043 543.889 112.609 533.503 112.609 533.503C112.609 533.503 105.192 545.089 98.109 544.503C90.9484 543.911 85.609 531.003 85.609 531.003C85.609 531.003 79.1742 537.062 74.109 537.003C69.8269 536.953 66.8352 535.805 64.109 532.503C60.7322 528.412 62.609 517.003 62.609 517.003C62.609 517.003 64.6726 507.556 69.109 502.003C72.7653 497.426 81.109 493.003 81.109 493.003Z" fill="#693875" stroke="black" stroke-width="3"/>
<path d="M550.401 353.852C527.035 259.896 483.109 236 483.109 236V285.386C483.109 285.386 507.292 324.943 514.398 394.807C521.504 464.67 519.609 499 519.609 499L568.876 492.977C568.876 492.977 570.771 435.761 550.401 353.852Z" fill="white" stroke="black" stroke-width="3"/>
<path d="M569.109 493.003L519.609 499.003C519.609 499.003 507.827 511.716 508.5 521.736C509.185 531.951 513.299 542.368 523.5 543.236C531.174 543.889 537.609 533.503 537.609 533.503C537.609 533.503 545.025 545.089 552.109 544.503C559.269 543.911 564.609 531.003 564.609 531.003C564.609 531.003 571.044 537.062 576.109 537.003C580.391 536.953 583.383 535.805 586.109 532.503C589.486 528.412 587.609 517.003 587.609 517.003C587.609 517.003 585.545 507.556 581.109 502.003C577.452 497.426 569.109 493.003 569.109 493.003Z" fill="#693875" stroke="black" stroke-width="3"/>
<circle cx="248.609" cy="170.5" r="81.5" fill="white" stroke="black" stroke-width="3"/>
<circle cx="248.5" cy="170.5" r="42.5" fill="#693875" stroke="black" stroke-width="3"/>
<circle cx="401.609" cy="170.5" r="81.5" fill="white" stroke="black" stroke-width="3"/>
<circle cx="401.5" cy="170.5" r="42.5" fill="#693875" stroke="black" stroke-width="3"/>
<path d="M167.109 168H483.109V328C483.109 341.807 471.917 353 458.109 353H192.109C178.302 353 167.109 341.807 167.109 328V168Z" fill="white" stroke="black" stroke-width="3"/>
<rect x="191.109" y="183" width="268" height="156" rx="25" fill="black" stroke="black" stroke-width="3"/>
<rect x="209.109" y="211" width="100" height="100" stroke="black" stroke-width="3"/>
<circle cx="259.109" cy="261" r="50" fill="white"/>
<circle cx="259.109" cy="261" r="38" fill="black"/>
<rect x="341.109" y="211" width="100" height="100" stroke="black" stroke-width="3"/>
<circle cx="391.109" cy="261" r="50" fill="white"/>
<circle cx="391.109" cy="261" r="38" fill="black"/>
</g>
<defs>
<clipPath id="clip0_233_40657">
<rect width="12350" height="650" fill="white"/>
</clipPath>
</defs>
</svg>
