<svg width="7800" height="650" viewBox="0 0 7800 650" fill="none" xmlns="http://www.w3.org/2000/svg">
<g clip-path="url(#clip0_223_41482)">
<path d="M7501.5 352.996H7475L7501.5 648.996H7550.5L7501.5 352.996Z" fill="white" stroke="black" stroke-width="3" stroke-linecap="round" stroke-linejoin="round"/>
<path d="M7550.89 648.996L7501.39 648.996C7501.39 648.996 7487.74 637.243 7487.21 627.215C7486.67 616.992 7489.5 606.157 7499.53 604.073C7507.07 602.505 7514.7 612.045 7514.7 612.045C7514.7 612.045 7520.68 599.654 7527.78 599.387C7534.96 599.116 7541.81 611.291 7541.81 611.291C7541.81 611.291 7547.47 604.505 7552.5 603.956C7556.76 603.493 7559.87 604.274 7562.97 607.226C7566.81 610.882 7566.32 622.434 7566.32 622.434C7566.32 622.434 7565.4 632.06 7561.66 638.105C7558.58 643.087 7550.89 648.996 7550.89 648.996Z" fill="#693875" stroke="black" stroke-width="3"/>
<path d="M7448.5 352.996H7475L7448.5 648.996H7399.5L7448.5 352.996Z" fill="white" stroke="black" stroke-width="3"/>
<path d="M7448.39 648.995L7399.39 648.995C7399.39 648.995 7385.96 637.703 7385.37 627.678C7384.77 617.458 7387.54 606.607 7397.55 604.463C7405.08 602.851 7412.77 612.346 7412.77 612.346C7412.77 612.346 7418.67 599.92 7425.77 599.611C7432.95 599.299 7439.87 611.434 7439.87 611.434C7439.87 611.434 7445.49 604.614 7450.53 604.036C7454.78 603.547 7457.89 604.31 7461.01 607.244C7464.88 610.878 7464.45 622.432 7464.45 622.432C7464.45 622.432 7463.59 632.064 7459.89 638.13C7456.83 643.13 7448.39 648.995 7448.39 648.995Z" fill="#693875" stroke="black" stroke-width="3"/>
<path d="M7249.71 353.848C7273.07 259.892 7317 235.996 7317 235.996V285.382C7317 285.382 7292.82 324.939 7285.71 394.803C7278.6 464.667 7280.5 498.996 7280.5 498.996L7231.23 492.973C7231.23 492.973 7229.34 435.757 7249.71 353.848Z" fill="white" stroke="black" stroke-width="3"/>
<path d="M7231 492.997L7280.5 498.997C7280.5 498.997 7292.28 511.71 7291.61 521.73C7290.92 531.945 7286.81 542.362 7276.61 543.23C7268.93 543.883 7262.5 533.497 7262.5 533.497C7262.5 533.497 7255.08 545.083 7248 544.497C7240.84 543.905 7235.5 530.997 7235.5 530.997C7235.5 530.997 7229.07 537.056 7224 536.997C7219.72 536.947 7216.73 535.799 7214 532.497C7210.62 528.406 7212.5 516.997 7212.5 516.997C7212.5 516.997 7214.56 507.55 7219 501.997C7222.66 497.42 7231 492.997 7231 492.997Z" fill="#693875" stroke="black" stroke-width="3"/>
<path d="M7700.29 353.848C7676.93 259.892 7633 235.996 7633 235.996V285.382C7633 285.382 7657.18 324.939 7664.29 394.803C7671.4 464.667 7669.5 498.996 7669.5 498.996L7718.77 492.973C7718.77 492.973 7720.66 435.757 7700.29 353.848Z" fill="white" stroke="black" stroke-width="3"/>
<path d="M7719 492.997L7669.5 498.997C7669.5 498.997 7657.72 511.71 7658.39 521.73C7659.08 531.945 7663.19 542.362 7673.39 543.23C7681.07 543.883 7687.5 533.497 7687.5 533.497C7687.5 533.497 7694.92 545.083 7702 544.497C7709.16 543.905 7714.5 530.997 7714.5 530.997C7714.5 530.997 7720.93 537.056 7726 536.997C7730.28 536.947 7733.27 535.799 7736 532.497C7739.38 528.406 7737.5 516.997 7737.5 516.997C7737.5 516.997 7735.44 507.55 7731 501.997C7727.34 497.42 7719 492.997 7719 492.997Z" fill="#693875" stroke="black" stroke-width="3"/>
<circle cx="7398.5" cy="170.496" r="81.5" fill="white" stroke="black" stroke-width="3"/>
<circle cx="7398.39" cy="170.496" r="42.5" fill="#693875" stroke="black" stroke-width="3"/>
<circle cx="7551.5" cy="170.496" r="81.5" fill="white" stroke="black" stroke-width="3"/>
<circle cx="7551.39" cy="170.496" r="42.5" fill="#693875" stroke="black" stroke-width="3"/>
<path d="M7317 167.996H7633V327.996C7633 341.803 7621.81 352.996 7608 352.996H7342C7328.19 352.996 7317 341.803 7317 327.996V167.996Z" fill="white" stroke="black" stroke-width="3"/>
<rect x="7341" y="182.996" width="268" height="156" rx="25" fill="black" stroke="black" stroke-width="3"/>
<rect x="7359" y="210.996" width="100" height="100" stroke="black" stroke-width="3"/>
<circle cx="7409" cy="260.996" r="50" fill="white"/>
<circle cx="7409" cy="260.996" r="38" fill="black"/>
<rect x="7491" y="210.996" width="100" height="100" stroke="black" stroke-width="3"/>
<circle cx="7541" cy="260.996" r="50" fill="white"/>
<circle cx="7541" cy="260.996" r="38" fill="black"/>
<path d="M6850.61 353H6824.11L6850.61 649H6899.61L6850.61 353Z" fill="white" stroke="black" stroke-width="3" stroke-linecap="round" stroke-linejoin="round"/>
<path d="M6900 649L6850.5 649C6850.5 649 6836.85 637.247 6836.32 627.219C6835.78 616.996 6838.61 606.161 6848.64 604.077C6856.18 602.508 6863.81 612.049 6863.81 612.049C6863.81 612.049 6869.78 599.658 6876.89 599.391C6884.07 599.12 6890.91 611.295 6890.91 611.295C6890.91 611.295 6896.58 604.509 6901.61 603.96C6905.87 603.497 6908.98 604.278 6912.08 607.23C6915.92 610.886 6915.43 622.438 6915.43 622.438C6915.43 622.438 6914.51 632.064 6910.77 638.109C6907.69 643.091 6900 649 6900 649Z" fill="#693875" stroke="black" stroke-width="3"/>
<path d="M6797.61 353H6824.11L6797.61 649H6748.61L6797.61 353Z" fill="white" stroke="black" stroke-width="3"/>
<path d="M6797.5 649.001L6748.5 649.001C6748.5 649.001 6735.07 637.709 6734.48 627.684C6733.88 617.464 6736.65 606.613 6746.66 604.469C6754.19 602.857 6761.88 612.352 6761.88 612.352C6761.88 612.352 6767.78 599.926 6774.88 599.617C6782.06 599.305 6788.98 611.439 6788.98 611.439C6788.98 611.439 6794.6 604.62 6799.64 604.042C6803.89 603.553 6807 604.316 6810.12 607.25C6813.99 610.884 6813.56 622.438 6813.56 622.438C6813.56 622.438 6812.7 632.069 6808.99 638.136C6805.94 643.136 6797.5 649.001 6797.5 649.001Z" fill="#693875" stroke="black" stroke-width="3"/>
<path d="M6607.05 378.313C6623.71 282.94 6665.84 255.999 6665.84 255.999L6669.33 305.262C6669.33 305.262 6648 346.429 6645.85 416.621C6643.7 486.812 6648.02 520.921 6648.02 520.921L6598.45 518.396C6598.45 518.396 6592.52 461.457 6607.05 378.313Z" fill="white" stroke="black" stroke-width="3"/>
<path d="M6598.22 518.436L6648.02 520.922C6648.02 520.922 6660.67 532.772 6660.71 542.814C6660.75 553.051 6657.38 563.733 6647.27 565.32C6639.66 566.514 6632.5 556.608 6632.5 556.608C6632.5 556.608 6625.92 568.689 6618.82 568.606C6611.63 568.521 6605.39 556.023 6605.39 556.023C6605.39 556.023 6599.4 562.521 6594.35 562.821C6590.07 563.074 6587.01 562.14 6584.05 559.039C6580.4 555.197 6581.46 543.684 6581.46 543.684C6581.46 543.684 6582.85 534.114 6586.89 528.262C6590.21 523.438 6598.22 518.436 6598.22 518.436Z" fill="#693875" stroke="black" stroke-width="3"/>
<path d="M7063.35 380.5C7039.99 286.543 6977.59 262 6977.59 262V311.386C6977.59 311.386 7019.59 333.636 7026.7 403.5C7033.8 473.364 6981.7 487 6981.7 487L7026.7 522.5C7026.7 522.5 7083.72 462.409 7063.35 380.5Z" fill="white" stroke="black" stroke-width="3"/>
<path d="M7026.17 522.624L6981.7 486.5L6959.7 486.5C6959.7 486.5 6934.11 494.446 6944.2 507.5C6948.91 513.594 6966.2 521 6966.2 521C6966.2 521 6962.18 536.519 6967.7 541C6973.27 545.529 6993.7 537.426 6993.7 537.426C6993.7 537.426 6976.7 548 6991.7 557.5C6995.31 559.791 6987.44 557.996 6991.7 557.5C6996.96 556.885 7010.98 555.816 7018.2 548C7025.41 540.184 7026.86 534.475 7026.17 522.624Z" fill="#693875"/>
<path d="M6991.7 557.5C6996.96 556.885 7010.98 555.816 7018.2 548C7025.41 540.184 7026.86 534.475 7026.17 522.624L6981.7 486.5L6959.7 486.5C6959.7 486.5 6934.11 494.446 6944.2 507.5C6948.91 513.594 6966.2 521 6966.2 521C6966.2 521 6962.18 536.519 6967.7 541C6973.27 545.529 6993.7 537.426 6993.7 537.426C6993.7 537.426 6976.7 548 6991.7 557.5ZM6991.7 557.5C6995.31 559.791 6987.44 557.996 6991.7 557.5Z" stroke="black" stroke-width="3"/>
<circle cx="6747.61" cy="194.5" r="81.5" fill="white" stroke="black" stroke-width="3"/>
<circle cx="6747.5" cy="194.5" r="42.5" fill="#693875" stroke="black" stroke-width="3"/>
<circle cx="6900.61" cy="194.5" r="81.5" fill="white" stroke="black" stroke-width="3"/>
<circle cx="6900.5" cy="194.5" r="42.5" fill="#693875" stroke="black" stroke-width="3"/>
<path d="M6666.11 192H6982.11V352C6982.11 365.807 6970.92 377 6957.11 377H6691.11C6677.3 377 6666.11 365.807 6666.11 352V192Z" fill="white" stroke="black" stroke-width="3"/>
<rect x="6690.11" y="207" width="268" height="156" rx="25" fill="black" stroke="black" stroke-width="3"/>
<rect x="6708.11" y="235" width="100" height="100" stroke="black" stroke-width="3"/>
<circle cx="6758.11" cy="285" r="50" fill="white"/>
<circle cx="6758.11" cy="285" r="38" fill="black"/>
<path d="M6809 338C6809 331.434 6807.71 324.932 6805.19 318.866C6802.68 312.8 6799 307.288 6794.36 302.645C6789.71 298.002 6784.2 294.319 6778.13 291.806C6772.07 289.293 6765.57 288 6759 288C6752.43 288 6745.93 289.293 6739.87 291.806C6733.8 294.319 6728.29 298.002 6723.64 302.645C6719 307.288 6715.32 312.8 6712.81 318.866C6710.29 324.932 6709 331.434 6709 338L6759 338H6809Z" fill="black"/>
<rect x="6840.11" y="235" width="100" height="100" stroke="black" stroke-width="3"/>
<circle cx="6890.11" cy="285" r="50" fill="white"/>
<circle cx="6890.11" cy="285" r="38" fill="black"/>
<path d="M6941 338C6941 331.434 6939.71 324.932 6937.19 318.866C6934.68 312.8 6931 307.288 6926.36 302.645C6921.71 298.002 6916.2 294.319 6910.13 291.806C6904.07 289.293 6897.57 288 6891 288C6884.43 288 6877.93 289.293 6871.87 291.806C6865.8 294.319 6860.29 298.002 6855.64 302.645C6851 307.288 6847.32 312.8 6844.81 318.866C6842.29 324.932 6841 331.434 6841 338L6891 338H6941Z" fill="black"/>
<path d="M6201.61 354H6175.11L6201.61 650H6250.61L6201.61 354Z" fill="white" stroke="black" stroke-width="3" stroke-linecap="round" stroke-linejoin="round"/>
<path d="M6251 650L6201.5 650C6201.5 650 6187.85 638.247 6187.32 628.219C6186.78 617.996 6189.61 607.161 6199.64 605.077C6207.18 603.508 6214.81 613.049 6214.81 613.049C6214.81 613.049 6220.78 600.658 6227.89 600.391C6235.07 600.12 6241.91 612.295 6241.91 612.295C6241.91 612.295 6247.58 605.509 6252.61 604.96C6256.87 604.497 6259.98 605.278 6263.08 608.23C6266.92 611.886 6266.43 623.438 6266.43 623.438C6266.43 623.438 6265.51 633.064 6261.77 639.109C6258.69 644.091 6251 650 6251 650Z" fill="#693875" stroke="black" stroke-width="3"/>
<path d="M6148.61 354H6175.11L6148.61 650H6099.61L6148.61 354Z" fill="white" stroke="black" stroke-width="3"/>
<path d="M6148.5 649.999L6099.5 649.999C6099.5 649.999 6086.07 638.707 6085.48 628.682C6084.88 618.462 6087.65 607.611 6097.66 605.467C6105.19 603.855 6112.88 613.35 6112.88 613.35C6112.88 613.35 6118.78 600.924 6125.88 600.615C6133.06 600.303 6139.98 612.437 6139.98 612.437C6139.98 612.437 6145.6 605.618 6150.64 605.04C6154.89 604.551 6158 605.314 6161.12 608.248C6164.99 611.882 6164.56 623.436 6164.56 623.436C6164.56 623.436 6163.7 633.067 6159.99 639.134C6156.94 644.134 6148.5 649.999 6148.5 649.999Z" fill="#693875" stroke="black" stroke-width="3"/>
<path d="M5959.73 386.165C5974.99 290.557 6016.72 263.001 6016.72 263.001L6020.93 312.208C6020.93 312.208 6000.21 353.683 5999.09 423.898C5997.97 494.114 6002.79 528.156 6002.79 528.156L5953.19 526.359C5953.19 526.359 5946.42 469.513 5959.73 386.165Z" fill="white" stroke="black" stroke-width="3"/>
<path d="M5952.96 526.402L6002.79 528.157C6002.79 528.157 6015.61 539.819 6015.8 549.859C6015.99 560.095 6012.78 570.825 6002.69 572.561C5995.09 573.866 5987.8 564.067 5987.8 564.067C5987.8 564.067 5981.4 576.243 5974.29 576.264C5967.1 576.284 5960.68 563.879 5960.68 563.879C5960.68 563.879 5954.79 570.465 5949.74 570.838C5945.47 571.154 5942.39 570.266 5939.39 567.208C5935.68 563.42 5936.57 551.892 5936.57 551.892C5936.57 551.892 5937.82 542.304 5941.77 536.393C5945.02 531.521 5952.96 526.402 5952.96 526.402Z" fill="#693875" stroke="black" stroke-width="3"/>
<circle cx="6098.5" cy="220.5" r="81.5" fill="white" stroke="black" stroke-width="3"/>
<circle cx="6098.39" cy="220.5" r="42.5" fill="#693875" stroke="black" stroke-width="3"/>
<circle cx="6251.5" cy="220.5" r="81.5" fill="white" stroke="black" stroke-width="3"/>
<circle cx="6251.39" cy="220.5" r="42.5" fill="#693875" stroke="black" stroke-width="3"/>
<path d="M6016.53 206H6332.53V366C6332.53 379.807 6321.34 391 6307.53 391H6041.53C6027.72 391 6016.53 379.807 6016.53 366V206Z" fill="white" stroke="black" stroke-width="3"/>
<rect x="6040.53" y="221" width="268" height="156" rx="25" fill="black" stroke="black" stroke-width="3"/>
<rect x="6058.53" y="249" width="100" height="100" stroke="black" stroke-width="3"/>
<circle cx="6108.53" cy="299" r="50" fill="white"/>
<circle cx="6108.53" cy="299" r="38" fill="black"/>
<path d="M6169 349C6169 341.121 6167.45 333.319 6164.43 326.039C6161.42 318.759 6157 312.145 6151.43 306.574C6145.85 301.002 6139.24 296.582 6131.96 293.567C6124.68 290.552 6116.88 289 6109 289C6101.12 289 6093.32 290.552 6086.04 293.567C6078.76 296.583 6072.14 301.002 6066.57 306.574C6061 312.145 6056.58 318.759 6053.57 326.039C6050.55 333.319 6049 341.121 6049 349L6109 349H6169Z" fill="black"/>
<rect x="6190.53" y="249" width="100" height="100" stroke="black" stroke-width="3"/>
<circle cx="6240.53" cy="299" r="50" fill="white"/>
<circle cx="6240.53" cy="299" r="38" fill="black"/>
<path d="M6301 349C6301 341.121 6299.45 333.319 6296.43 326.039C6293.42 318.759 6289 312.145 6283.43 306.574C6277.85 301.002 6271.24 296.582 6263.96 293.567C6256.68 290.552 6248.88 289 6241 289C6233.12 289 6225.32 290.552 6218.04 293.567C6210.76 296.583 6204.14 301.002 6198.57 306.574C6193 312.145 6188.58 318.759 6185.57 326.039C6182.55 333.319 6181 341.121 6181 349L6241 349H6301Z" fill="black"/>
<path d="M6393.44 422.584C6423.95 354.798 6333.84 275.506 6332.5 267L6332.5 320.001C6332.5 320.001 6372.67 361.578 6352.97 409.726C6333.27 457.874 6252.06 398.103 6258.71 405.194L6246.76 461.171C6246.76 461.171 6358.8 499.552 6393.44 422.584Z" fill="white" stroke="black" stroke-width="3"/>
<path d="M6247.94 461.19L6259.64 404.936L6250.93 384.953C6250.93 384.953 6239.31 360.995 6227.56 374.434C6222.49 380.234 6226.22 401.906 6226.22 401.906C6226.22 401.906 6217.66 398.729 6208.54 405.599C6202.79 409.919 6221.02 434.084 6221.02 434.084C6221.02 434.084 6202.6 419.368 6201.54 437.898C6201.28 442.363 6209.09 456.298 6219.37 459.075C6229.64 461.852 6237.75 467.287 6247.94 461.19Z" fill="#693875" stroke="black" stroke-width="3"/>
<path d="M5551.19 354H5524.69L5551.19 650H5600.19L5551.19 354Z" fill="white" stroke="black" stroke-width="3" stroke-linecap="round" stroke-linejoin="round"/>
<path d="M5600.58 650L5551.08 650C5551.08 650 5537.43 638.247 5536.9 628.219C5536.36 617.996 5539.19 607.161 5549.22 605.077C5556.76 603.508 5564.39 613.049 5564.39 613.049C5564.39 613.049 5570.37 600.658 5577.47 600.391C5584.65 600.12 5591.5 612.295 5591.5 612.295C5591.5 612.295 5597.16 605.509 5602.19 604.96C5606.45 604.497 5609.56 605.278 5612.66 608.23C5616.5 611.886 5616.01 623.438 5616.01 623.438C5616.01 623.438 5615.09 633.064 5611.35 639.109C5608.27 644.091 5600.58 650 5600.58 650Z" fill="#693875" stroke="black" stroke-width="3"/>
<path d="M5498.19 354H5524.69L5498.19 650H5449.19L5498.19 354Z" fill="white" stroke="black" stroke-width="3"/>
<path d="M5498.08 649.999L5449.08 649.999C5449.08 649.999 5435.65 638.707 5435.06 628.682C5434.46 618.462 5437.23 607.611 5447.24 605.467C5454.77 603.855 5462.46 613.35 5462.46 613.35C5462.46 613.35 5468.36 600.924 5475.46 600.615C5482.64 600.303 5489.56 612.437 5489.56 612.437C5489.56 612.437 5495.18 605.618 5500.22 605.04C5504.47 604.551 5507.58 605.314 5510.7 608.248C5514.57 611.882 5514.14 623.436 5514.14 623.436C5514.14 623.436 5513.28 633.067 5509.57 639.134C5506.52 644.134 5498.08 649.999 5498.08 649.999Z" fill="#693875" stroke="black" stroke-width="3"/>
<path d="M5301.4 381.321C5324.76 287.364 5368.69 263.469 5368.69 263.469L5368.69 312.855C5368.69 312.855 5344.51 352.412 5337.4 422.276C5330.3 492.139 5332.19 526.469 5332.19 526.469L5282.92 520.446C5282.92 520.446 5281.03 463.23 5301.4 381.321Z" fill="white" stroke="black" stroke-width="3"/>
<path d="M5282.69 520.47L5332.19 526.47C5332.19 526.47 5343.97 539.183 5343.3 549.203C5342.61 559.417 5338.5 569.834 5328.3 570.703C5320.63 571.356 5314.19 560.97 5314.19 560.97C5314.19 560.97 5306.77 572.555 5299.69 571.97C5292.53 571.377 5287.19 558.47 5287.19 558.47C5287.19 558.47 5280.76 564.528 5275.69 564.47C5271.41 564.42 5268.42 563.272 5265.69 559.97C5262.31 555.879 5264.19 544.47 5264.19 544.47C5264.19 544.47 5266.25 535.023 5270.69 529.47C5274.35 524.893 5282.69 520.47 5282.69 520.47Z" fill="#693875" stroke="black" stroke-width="3"/>
<path d="M5529.39 230.828C5529.39 275.839 5492.9 312.328 5447.89 312.328C5402.88 312.328 5365.39 275.839 5365.39 230.828C5360.6 185.095 5400.22 148.925 5447.89 149.328C5492.9 149.328 5529.39 185.816 5529.39 230.828Z" fill="white" stroke="black" stroke-width="3"/>
<circle cx="5447.79" cy="230.828" r="42.5" fill="#693875" stroke="black" stroke-width="3"/>
<path d="M5681.89 230.828C5681.89 275.84 5645.9 312.328 5600.89 312.328C5555.88 312.328 5519.39 275.84 5519.39 230.828C5519.39 185.817 5555.88 149.328 5600.89 149.328C5651.13 145.172 5688.39 180.926 5681.89 230.828Z" fill="white" stroke="black" stroke-width="3"/>
<circle cx="5600.79" cy="230.828" r="42.5" fill="#693875" stroke="black" stroke-width="3"/>
<path d="M5366.11 206H5682.11V366C5682.11 379.807 5670.92 391 5657.11 391H5391.11C5377.3 391 5366.11 379.807 5366.11 366V206Z" fill="white" stroke="black" stroke-width="3"/>
<rect x="5390.11" y="221" width="268" height="156" rx="25" fill="black" stroke="black" stroke-width="3"/>
<rect x="5408.11" y="249" width="100" height="100" stroke="black" stroke-width="3"/>
<circle cx="5458.11" cy="299" r="50" fill="white"/>
<circle cx="5458.11" cy="299" r="38" fill="black"/>
<path d="M5458.73 378.438C5463.56 373.991 5467.46 368.636 5470.23 362.679C5472.99 356.722 5474.55 350.279 5474.82 343.719C5475.09 337.158 5474.07 330.609 5471.81 324.443C5469.55 318.278 5466.1 312.619 5461.65 307.788C5457.2 302.957 5451.85 299.049 5445.89 296.288C5439.93 293.526 5433.49 291.965 5426.93 291.693C5420.37 291.422 5413.82 292.445 5407.66 294.705C5401.49 296.965 5395.83 300.416 5391 304.863L5424.86 341.651L5458.73 378.438Z" fill="black"/>
<path d="M5478.03 377.753C5472.25 374.641 5467.13 370.421 5462.98 365.333C5458.83 360.245 5455.72 354.39 5453.84 348.101C5451.95 341.812 5451.32 335.213 5451.98 328.681C5452.64 322.148 5454.58 315.81 5457.7 310.028C5460.81 304.246 5465.03 299.134 5470.12 294.983C5475.2 290.832 5481.06 287.724 5487.35 285.836C5493.64 283.948 5500.24 283.318 5506.77 283.98C5513.3 284.643 5519.64 286.585 5525.42 289.697L5501.72 333.725L5478.03 377.753Z" fill="black"/>
<rect x="5540.11" y="249" width="100" height="100" stroke="black" stroke-width="3"/>
<circle cx="5590.11" cy="299" r="50" fill="white"/>
<circle cx="5590.11" cy="299" r="38" fill="black"/>
<path d="M5640.58 352C5640.58 345.434 5639.29 338.932 5636.78 332.866C5634.26 326.8 5630.58 321.288 5625.94 316.645C5621.29 312.002 5615.78 308.319 5609.72 305.806C5603.65 303.293 5597.15 302 5590.58 302C5584.01 302 5577.51 303.293 5571.45 305.806C5565.38 308.319 5559.87 312.002 5555.23 316.645C5550.58 321.288 5546.9 326.8 5544.39 332.866C5541.87 338.932 5540.58 345.434 5540.58 352L5590.58 352H5640.58Z" fill="black"/>
<path d="M5565.39 375.753C5571.18 372.641 5576.29 368.421 5580.44 363.333C5584.59 358.245 5587.7 352.39 5589.59 346.101C5591.47 339.812 5592.1 333.213 5591.44 326.681C5590.78 320.148 5588.84 313.81 5585.72 308.028C5582.61 302.246 5578.39 297.134 5573.3 292.983C5568.22 288.832 5562.36 285.724 5556.07 283.836C5549.78 281.948 5543.18 281.318 5536.65 281.98C5530.12 282.643 5523.78 284.585 5518 287.697L5541.7 331.725L5565.39 375.753Z" fill="black"/>
<path d="M5580.32 374.792C5576.08 369.782 5572.86 363.986 5570.86 357.733C5568.85 351.48 5568.1 344.894 5568.64 338.35C5569.18 331.807 5571.01 325.433 5574.01 319.595C5577.01 313.756 5581.14 308.567 5586.15 304.322C5591.16 300.077 5596.95 296.861 5603.21 294.857C5609.46 292.852 5616.05 292.099 5622.59 292.64C5629.13 293.181 5635.51 295.006 5641.35 298.01C5647.18 301.014 5652.37 305.139 5656.62 310.148L5618.47 342.47L5580.32 374.792Z" fill="black"/>
<path d="M5685.71 440.894C5747.58 390.797 5702 277 5682 272.5L5682 330.001C5682 330.001 5693.56 376.928 5654.87 411.701C5616.18 446.474 5569.08 357.313 5571.98 366.592L5536.85 411.783C5536.85 411.783 5620.11 494.009 5685.71 440.894Z" fill="white" stroke="black" stroke-width="3"/>
<path d="M5537.91 412.312L5572.93 366.762L5573.78 344.978C5573.78 344.978 5573.75 318.351 5557.33 325.338C5550.24 328.354 5544.16 349.485 5544.16 349.485C5544.16 349.485 5537.84 342.902 5526.63 345.113C5519.58 346.504 5525.47 376.192 5525.47 376.192C5525.47 376.192 5515.29 354.925 5506.27 371.147C5504.1 375.055 5505.07 391.001 5513.1 397.972C5521.14 404.943 5526.08 413.369 5537.91 412.312Z" fill="#693875" stroke="black" stroke-width="3"/>
<path d="M4900.19 354H4873.69L4900.19 650H4949.19L4900.19 354Z" fill="white" stroke="black" stroke-width="3" stroke-linecap="round" stroke-linejoin="round"/>
<path d="M4949.58 650L4900.08 650C4900.08 650 4886.43 638.247 4885.9 628.219C4885.36 617.996 4888.19 607.161 4898.22 605.077C4905.76 603.508 4913.39 613.049 4913.39 613.049C4913.39 613.049 4919.37 600.658 4926.47 600.391C4933.65 600.12 4940.5 612.295 4940.5 612.295C4940.5 612.295 4946.16 605.509 4951.19 604.96C4955.45 604.497 4958.56 605.278 4961.66 608.23C4965.5 611.886 4965.01 623.438 4965.01 623.438C4965.01 623.438 4964.09 633.064 4960.35 639.109C4957.27 644.091 4949.58 650 4949.58 650Z" fill="#693875" stroke="black" stroke-width="3"/>
<path d="M4847.19 354H4873.69L4847.19 650H4798.19L4847.19 354Z" fill="white" stroke="black" stroke-width="3"/>
<path d="M4847.08 649.999L4798.08 649.999C4798.08 649.999 4784.65 638.707 4784.06 628.682C4783.46 618.462 4786.23 607.611 4796.24 605.467C4803.77 603.855 4811.46 613.35 4811.46 613.35C4811.46 613.35 4817.36 600.924 4824.46 600.615C4831.64 600.303 4838.56 612.437 4838.56 612.437C4838.56 612.437 4844.18 605.618 4849.22 605.04C4853.47 604.551 4856.58 605.314 4859.7 608.248C4863.57 611.882 4863.14 623.436 4863.14 623.436C4863.14 623.436 4862.28 633.067 4858.57 639.134C4855.52 644.134 4847.08 649.999 4847.08 649.999Z" fill="#693875" stroke="black" stroke-width="3"/>
<path d="M4648.4 395.852C4671.76 301.896 4715.69 278 4715.69 278L4715.69 327.386C4715.69 327.386 4691.51 366.943 4684.4 436.807C4677.3 506.67 4679.19 541 4679.19 541L4629.92 534.977C4629.92 534.977 4628.03 477.761 4648.4 395.852Z" fill="white" stroke="black" stroke-width="3"/>
<path d="M4629.69 535.001L4679.19 541.001C4679.19 541.001 4690.97 553.714 4690.3 563.734C4689.61 573.949 4685.5 584.366 4675.3 585.234C4667.63 585.887 4661.19 575.501 4661.19 575.501C4661.19 575.501 4653.77 587.087 4646.69 586.501C4639.53 585.909 4634.19 573.001 4634.19 573.001C4634.19 573.001 4627.76 579.06 4622.69 579.001C4618.41 578.951 4615.42 577.803 4612.69 574.501C4609.31 570.41 4611.19 559.001 4611.19 559.001C4611.19 559.001 4613.25 549.554 4617.69 544.001C4621.35 539.424 4629.69 535.001 4629.69 535.001Z" fill="#693875" stroke="black" stroke-width="3"/>
<path d="M4879.39 220.828C4879.39 265.839 4842.9 302.328 4797.89 302.328C4752.88 302.328 4715.39 265.839 4715.39 220.828C4710.6 175.095 4750.22 138.925 4797.89 139.328C4842.9 139.328 4879.39 175.816 4879.39 220.828Z" fill="white" stroke="black" stroke-width="3"/>
<circle cx="4797.79" cy="220.828" r="42.5" fill="#693875" stroke="black" stroke-width="3"/>
<path d="M5030.5 220.828C5030.5 265.84 4994.51 302.328 4949.5 302.328C4904.49 302.328 4868 265.84 4868 220.828C4868 175.817 4904.49 139.328 4949.5 139.328C4999.73 135.172 5036.99 170.926 5030.5 220.828Z" fill="white" stroke="black" stroke-width="3"/>
<circle cx="4950.79" cy="220.828" r="42.5" fill="#693875" stroke="black" stroke-width="3"/>
<path d="M4715.11 206H5031.11V366C5031.11 379.807 5019.92 391 5006.11 391H4740.11C4726.3 391 4715.11 379.807 4715.11 366V206Z" fill="white" stroke="black" stroke-width="3"/>
<rect x="4739.11" y="221" width="268" height="156" rx="25" fill="black" stroke="black" stroke-width="3"/>
<rect x="4757.11" y="249" width="100" height="100" stroke="black" stroke-width="3"/>
<circle cx="4807.11" cy="299" r="50" fill="white"/>
<circle cx="4807.11" cy="299" r="38" fill="black"/>
<path d="M4786.98 372.753C4792.76 369.641 4797.87 365.421 4802.02 360.333C4806.17 355.245 4809.28 349.39 4811.17 343.101C4813.05 336.812 4813.69 330.213 4813.02 323.681C4812.36 317.148 4810.42 310.81 4807.31 305.028C4804.19 299.246 4799.97 294.134 4794.89 289.983C4789.8 285.832 4783.94 282.724 4777.65 280.836C4771.37 278.948 4764.77 278.318 4758.23 278.98C4751.7 279.643 4745.36 281.585 4739.58 284.697L4763.28 328.725L4786.98 372.753Z" fill="black"/>
<path d="M4829.61 372.753C4823.83 369.641 4818.71 365.421 4814.56 360.333C4810.41 355.245 4807.31 349.39 4805.42 343.101C4803.53 336.812 4802.9 330.213 4803.56 323.681C4804.22 317.148 4806.17 310.81 4809.28 305.028C4812.39 299.246 4816.61 294.134 4821.7 289.983C4826.79 285.832 4832.64 282.724 4838.93 280.836C4845.22 278.948 4851.82 278.318 4858.35 278.98C4864.88 279.643 4871.22 281.585 4877 284.697L4853.31 328.725L4829.61 372.753Z" fill="black"/>
<rect x="4889.11" y="249" width="100" height="100" stroke="black" stroke-width="3"/>
<circle cx="4939.11" cy="299" r="50" fill="white"/>
<circle cx="4939.11" cy="299" r="38" fill="black"/>
<path d="M4989.58 352C4989.58 345.434 4988.29 338.932 4985.78 332.866C4983.26 326.8 4979.58 321.288 4974.94 316.645C4970.29 312.002 4964.78 308.319 4958.72 305.806C4952.65 303.293 4946.15 302 4939.58 302C4933.01 302 4926.51 303.293 4920.45 305.806C4914.38 308.319 4908.87 312.002 4904.23 316.645C4899.58 321.288 4895.9 326.8 4893.39 332.866C4890.87 338.932 4889.58 345.434 4889.58 352L4939.58 352H4989.58Z" fill="black"/>
<path d="M4918.98 372.753C4924.76 369.641 4929.87 365.421 4934.02 360.333C4938.17 355.245 4941.28 349.39 4943.17 343.101C4945.05 336.812 4945.69 330.213 4945.02 323.681C4944.36 317.148 4942.42 310.81 4939.31 305.028C4936.19 299.246 4931.97 294.134 4926.89 289.983C4921.8 285.832 4915.94 282.724 4909.65 280.836C4903.37 278.948 4896.77 278.318 4890.23 278.98C4883.7 279.643 4877.36 281.585 4871.58 284.697L4895.28 328.725L4918.98 372.753Z" fill="black"/>
<path d="M4954.61 375.753C4948.83 372.641 4943.71 368.421 4939.56 363.333C4935.41 358.245 4932.31 352.39 4930.42 346.101C4928.53 339.812 4927.9 333.213 4928.56 326.681C4929.22 320.148 4931.17 313.81 4934.28 308.028C4937.39 302.246 4941.61 297.134 4946.7 292.983C4951.79 288.832 4957.64 285.724 4963.93 283.836C4970.22 281.948 4976.82 281.318 4983.35 281.98C4989.88 282.643 4996.22 284.585 5002 287.697L4978.31 331.725L4954.61 375.753Z" fill="black"/>
<path d="M5050.95 443.992C5105.99 386.476 5036.87 283.09 5031.5 279L5031.5 337.498C5031.5 337.498 5050.65 379.547 5016.67 418.932C4982.68 458.317 4924.69 375.825 4928.74 384.664L4899.6 433.933C4899.6 433.933 4992.59 504.974 5050.95 443.992Z" fill="white" stroke="black" stroke-width="3"/>
<path d="M4900.72 434.328L4929.7 384.716L4927.8 362.999C4927.8 362.999 4924.4 336.589 4908.99 345.597C4902.34 349.485 4898.98 371.215 4898.98 371.215C4898.98 371.215 4891.88 365.483 4881.04 369.094C4874.22 371.365 4883.82 400.07 4883.82 400.07C4883.82 400.07 4871.03 380.26 4864.13 397.492C4862.47 401.644 4865.45 417.34 4874.3 423.239C4883.16 429.137 4889.12 436.871 4900.72 434.328Z" fill="#693875" stroke="black" stroke-width="3"/>
<path d="M4251.19 354H4224.69L4251.19 650H4300.19L4251.19 354Z" fill="white" stroke="black" stroke-width="3" stroke-linecap="round" stroke-linejoin="round"/>
<path d="M4300.58 650L4251.08 650C4251.08 650 4237.43 638.247 4236.9 628.219C4236.36 617.996 4239.19 607.161 4249.22 605.077C4256.76 603.508 4264.39 613.049 4264.39 613.049C4264.39 613.049 4270.37 600.658 4277.47 600.391C4284.65 600.12 4291.5 612.295 4291.5 612.295C4291.5 612.295 4297.16 605.509 4302.19 604.96C4306.45 604.497 4309.56 605.278 4312.66 608.23C4316.5 611.886 4316.01 623.438 4316.01 623.438C4316.01 623.438 4315.09 633.064 4311.35 639.109C4308.27 644.091 4300.58 650 4300.58 650Z" fill="#693875" stroke="black" stroke-width="3"/>
<path d="M4198.19 354H4224.69L4198.19 650H4149.19L4198.19 354Z" fill="white" stroke="black" stroke-width="3"/>
<path d="M4198.08 649.999L4149.08 649.999C4149.08 649.999 4135.65 638.707 4135.06 628.682C4134.46 618.462 4137.23 607.611 4147.24 605.467C4154.77 603.855 4162.46 613.35 4162.46 613.35C4162.46 613.35 4168.36 600.924 4175.46 600.615C4182.64 600.303 4189.56 612.437 4189.56 612.437C4189.56 612.437 4195.18 605.618 4200.22 605.04C4204.47 604.551 4207.58 605.314 4210.7 608.248C4214.57 611.882 4214.14 623.436 4214.14 623.436C4214.14 623.436 4213.28 633.067 4209.57 639.134C4206.52 644.134 4198.08 649.999 4198.08 649.999Z" fill="#693875" stroke="black" stroke-width="3"/>
<path d="M4001.4 381.321C4024.76 287.364 4068.69 263.469 4068.69 263.469L4068.69 312.855C4068.69 312.855 4044.51 352.412 4037.4 422.276C4030.3 492.139 4032.19 526.469 4032.19 526.469L3982.92 520.446C3982.92 520.446 3981.03 463.23 4001.4 381.321Z" fill="white" stroke="black" stroke-width="3"/>
<path d="M3982.69 520.47L4032.19 526.47C4032.19 526.47 4043.97 539.183 4043.3 549.203C4042.61 559.417 4038.5 569.834 4028.3 570.703C4020.63 571.356 4014.19 560.97 4014.19 560.97C4014.19 560.97 4006.77 572.555 3999.69 571.97C3992.53 571.377 3987.19 558.47 3987.19 558.47C3987.19 558.47 3980.76 564.528 3975.69 564.47C3971.41 564.42 3968.42 563.272 3965.69 559.97C3962.31 555.879 3964.19 544.47 3964.19 544.47C3964.19 544.47 3966.25 535.023 3970.69 529.47C3974.35 524.893 3982.69 520.47 3982.69 520.47Z" fill="#693875" stroke="black" stroke-width="3"/>
<path d="M4230.39 230.829C4230.39 275.84 4193.9 312.329 4148.89 312.329C4103.88 312.329 4066.39 275.84 4066.39 230.829C4056.5 173.5 4101.22 148.927 4148.89 149.329C4193.9 149.329 4230.39 185.818 4230.39 230.829Z" fill="white" stroke="black" stroke-width="3"/>
<circle cx="4148.79" cy="230.828" r="42.5" fill="#693875" stroke="black" stroke-width="3"/>
<path d="M4381.5 229.999C4381.5 275.01 4346.9 312.326 4301.89 312.326C4256.88 312.326 4220.39 275.838 4220.39 230.826C4220.39 185.815 4256.88 149.326 4301.89 149.326C4352.13 145.17 4389.5 172 4381.5 229.999Z" fill="white" stroke="black" stroke-width="3"/>
<circle cx="4301.78" cy="230.828" r="42.5" fill="#693875" stroke="black" stroke-width="3"/>
<path d="M4066.11 206H4382.11V366C4382.11 379.807 4370.92 391 4357.11 391H4091.11C4077.3 391 4066.11 379.807 4066.11 366V206Z" fill="white" stroke="black" stroke-width="3"/>
<rect x="4090.11" y="221" width="268" height="156" rx="25" fill="black" stroke="black" stroke-width="3"/>
<rect x="4108.11" y="249" width="100" height="100" stroke="black" stroke-width="3"/>
<circle cx="4158.11" cy="299" r="50" fill="white"/>
<circle cx="4158.11" cy="299" r="38" fill="black"/>
<path d="M4158.73 378.438C4163.56 373.991 4167.46 368.636 4170.23 362.679C4172.99 356.722 4174.55 350.279 4174.82 343.719C4175.09 337.158 4174.07 330.609 4171.81 324.443C4169.55 318.278 4166.1 312.619 4161.65 307.788C4157.2 302.957 4151.85 299.049 4145.89 296.288C4139.93 293.526 4133.49 291.965 4126.93 291.693C4120.37 291.422 4113.82 292.445 4107.66 294.705C4101.49 296.965 4095.83 300.416 4091 304.863L4124.86 341.651L4158.73 378.438Z" fill="black"/>
<path d="M4178.03 377.753C4172.25 374.641 4167.13 370.421 4162.98 365.333C4158.83 360.245 4155.72 354.39 4153.84 348.101C4151.95 341.812 4151.32 335.213 4151.98 328.681C4152.64 322.148 4154.58 315.81 4157.7 310.028C4160.81 304.246 4165.03 299.134 4170.12 294.983C4175.2 290.832 4181.06 287.724 4187.35 285.836C4193.64 283.948 4200.24 283.318 4206.77 283.98C4213.3 284.643 4219.64 286.585 4225.42 289.697L4201.72 333.725L4178.03 377.753Z" fill="black"/>
<rect x="4240.11" y="249" width="100" height="100" stroke="black" stroke-width="3"/>
<circle cx="4290.11" cy="299" r="50" fill="white"/>
<circle cx="4290.11" cy="299" r="38" fill="black"/>
<path d="M4340.58 352C4340.58 345.434 4339.29 338.932 4336.77 332.866C4334.26 326.8 4330.58 321.288 4325.94 316.645C4321.29 312.002 4315.78 308.319 4309.71 305.806C4303.65 303.293 4297.15 302 4290.58 302C4284.01 302 4277.51 303.293 4271.45 305.806C4265.38 308.319 4259.87 312.002 4255.23 316.645C4250.58 321.288 4246.9 326.8 4244.39 332.866C4241.87 338.932 4240.58 345.434 4240.58 352L4290.58 352H4340.58Z" fill="black"/>
<path d="M4265.39 375.753C4271.17 372.641 4276.29 368.421 4280.44 363.333C4284.59 358.245 4287.7 352.39 4289.58 346.101C4291.47 339.812 4292.1 333.213 4291.44 326.681C4290.78 320.148 4288.84 313.81 4285.72 308.028C4282.61 302.246 4278.39 297.134 4273.3 292.983C4268.22 288.832 4262.36 285.724 4256.07 283.836C4249.78 281.948 4243.18 281.318 4236.65 281.98C4230.12 282.643 4223.78 284.585 4218 287.697L4241.7 331.725L4265.39 375.753Z" fill="black"/>
<path d="M4280.32 374.792C4276.08 369.782 4272.86 363.986 4270.86 357.733C4268.85 351.48 4268.1 344.894 4268.64 338.35C4269.18 331.807 4271.01 325.433 4274.01 319.595C4277.01 313.756 4281.14 308.567 4286.15 304.322C4291.16 300.077 4296.95 296.861 4303.21 294.857C4309.46 292.852 4316.05 292.099 4322.59 292.64C4329.13 293.181 4335.51 295.006 4341.34 298.01C4347.18 301.014 4352.37 305.139 4356.62 310.148L4318.47 342.47L4280.32 374.792Z" fill="black"/>
<path d="M4385.71 440.903C4447.58 390.807 4399.5 279.5 4382.5 274.013L4382.5 332.013C4382.5 332.013 4393.56 376.938 4354.87 411.711C4316.18 446.483 4269.08 357.322 4271.98 366.602L4236.85 411.793C4236.85 411.793 4320.11 494.019 4385.71 440.903Z" fill="white" stroke="black" stroke-width="3"/>
<path d="M4237.91 412.312L4272.93 366.762L4273.78 344.978C4273.78 344.978 4273.75 318.351 4257.33 325.338C4250.24 328.354 4244.16 349.485 4244.16 349.485C4244.16 349.485 4237.84 342.902 4226.63 345.113C4219.58 346.504 4225.47 376.192 4225.47 376.192C4225.47 376.192 4215.29 354.925 4206.27 371.147C4204.1 375.055 4205.07 391.001 4213.1 397.972C4221.14 404.943 4226.08 413.369 4237.91 412.312Z" fill="#693875" stroke="black" stroke-width="3"/>
<path d="M3601.19 354H3574.69L3601.19 650H3650.19L3601.19 354Z" fill="white" stroke="black" stroke-width="3" stroke-linecap="round" stroke-linejoin="round"/>
<path d="M3650.58 650L3601.08 650C3601.08 650 3587.43 638.247 3586.9 628.219C3586.36 617.996 3589.19 607.161 3599.22 605.077C3606.76 603.508 3614.39 613.049 3614.39 613.049C3614.39 613.049 3620.37 600.658 3627.47 600.391C3634.65 600.12 3641.5 612.295 3641.5 612.295C3641.5 612.295 3647.16 605.509 3652.19 604.96C3656.45 604.497 3659.56 605.278 3662.66 608.23C3666.5 611.886 3666.01 623.438 3666.01 623.438C3666.01 623.438 3665.09 633.064 3661.35 639.109C3658.27 644.091 3650.58 650 3650.58 650Z" fill="#693875" stroke="black" stroke-width="3"/>
<path d="M3548.19 354H3574.69L3548.19 650H3499.19L3548.19 354Z" fill="white" stroke="black" stroke-width="3"/>
<path d="M3548.08 649.999L3499.08 649.999C3499.08 649.999 3485.65 638.707 3485.06 628.682C3484.46 618.462 3487.23 607.611 3497.24 605.467C3504.77 603.855 3512.46 613.35 3512.46 613.35C3512.46 613.35 3518.36 600.924 3525.46 600.615C3532.64 600.303 3539.56 612.437 3539.56 612.437C3539.56 612.437 3545.18 605.618 3550.22 605.04C3554.47 604.551 3557.58 605.314 3560.7 608.248C3564.57 611.882 3564.14 623.436 3564.14 623.436C3564.14 623.436 3563.28 633.067 3559.58 639.134C3556.52 644.134 3548.08 649.999 3548.08 649.999Z" fill="#693875" stroke="black" stroke-width="3"/>
<path d="M3349.4 395.852C3372.76 301.896 3416.69 278 3416.69 278L3416.69 327.386C3416.69 327.386 3392.51 366.943 3385.4 436.807C3378.3 506.67 3380.19 541 3380.19 541L3330.92 534.977C3330.92 534.977 3329.03 477.761 3349.4 395.852Z" fill="white" stroke="black" stroke-width="3"/>
<path d="M3330.69 535.001L3380.19 541.001C3380.19 541.001 3391.97 553.714 3391.3 563.734C3390.61 573.949 3386.5 584.366 3376.3 585.234C3368.63 585.887 3362.19 575.501 3362.19 575.501C3362.19 575.501 3354.77 587.087 3347.69 586.501C3340.53 585.909 3335.19 573.001 3335.19 573.001C3335.19 573.001 3328.76 579.06 3323.69 579.001C3319.41 578.951 3316.42 577.803 3313.69 574.501C3310.31 570.41 3312.19 559.001 3312.19 559.001C3312.19 559.001 3314.25 549.554 3318.69 544.001C3322.35 539.424 3330.69 535.001 3330.69 535.001Z" fill="#693875" stroke="black" stroke-width="3"/>
<path d="M3580.39 217.828C3580.39 262.839 3543.9 299.328 3498.89 299.328C3453.88 299.328 3416.39 262.839 3416.39 217.828C3411.6 172.095 3451.22 135.925 3498.89 136.328C3543.9 136.328 3580.39 172.816 3580.39 217.828Z" fill="white" stroke="black" stroke-width="3"/>
<circle cx="3498.79" cy="217.828" r="42.5" fill="#693875" stroke="black" stroke-width="3"/>
<path d="M3732 218C3728.45 262.871 3696.9 299.328 3651.89 299.328C3606.88 299.328 3570.39 262.839 3570.39 217.828C3570.39 172.817 3606.88 136.328 3651.89 136.328C3702.13 132.171 3736 167.5 3732 218Z" fill="white" stroke="black" stroke-width="3"/>
<circle cx="3651.79" cy="217.828" r="42.5" fill="#693875" stroke="black" stroke-width="3"/>
<path d="M3416.11 206H3732.11V366C3732.11 379.807 3720.92 391 3707.11 391H3441.11C3427.3 391 3416.11 379.807 3416.11 366V206Z" fill="white" stroke="black" stroke-width="3"/>
<rect x="3440.11" y="221" width="268" height="156" rx="25" fill="black" stroke="black" stroke-width="3"/>
<rect x="3458.11" y="249" width="100" height="100" stroke="black" stroke-width="3"/>
<circle cx="3508.11" cy="299" r="50" fill="white"/>
<circle cx="3508.11" cy="299" r="38" fill="black"/>
<path d="M3487.98 372.753C3493.76 369.641 3498.87 365.421 3503.02 360.333C3507.17 355.245 3510.28 349.39 3512.17 343.101C3514.05 336.812 3514.69 330.213 3514.02 323.681C3513.36 317.148 3511.42 310.81 3508.31 305.028C3505.19 299.246 3500.97 294.134 3495.89 289.983C3490.8 285.832 3484.94 282.724 3478.65 280.836C3472.37 278.948 3465.77 278.318 3459.23 278.98C3452.7 279.643 3446.36 281.585 3440.58 284.697L3464.28 328.725L3487.98 372.753Z" fill="black"/>
<path d="M3530.61 372.753C3524.83 369.641 3519.71 365.421 3515.56 360.333C3511.41 355.245 3508.31 349.39 3506.42 343.101C3504.53 336.812 3503.9 330.213 3504.56 323.681C3505.22 317.148 3507.17 310.81 3510.28 305.028C3513.39 299.246 3517.61 294.134 3522.7 289.983C3527.79 285.832 3533.64 282.724 3539.93 280.836C3546.22 278.948 3552.82 278.318 3559.35 278.98C3565.88 279.643 3572.22 281.585 3578 284.697L3554.31 328.725L3530.61 372.753Z" fill="black"/>
<rect x="3590.11" y="249" width="100" height="100" stroke="black" stroke-width="3"/>
<circle cx="3640.11" cy="299" r="50" fill="white"/>
<circle cx="3640.11" cy="299" r="38" fill="black"/>
<path d="M3690.58 352C3690.58 345.434 3689.29 338.932 3686.78 332.866C3684.26 326.8 3680.58 321.288 3675.94 316.645C3671.29 312.002 3665.78 308.319 3659.72 305.806C3653.65 303.293 3647.15 302 3640.58 302C3634.01 302 3627.51 303.293 3621.45 305.806C3615.38 308.319 3609.87 312.002 3605.23 316.645C3600.58 321.288 3596.9 326.8 3594.39 332.866C3591.87 338.932 3590.58 345.434 3590.58 352L3640.58 352H3690.58Z" fill="black"/>
<path d="M3619.98 372.753C3625.76 369.641 3630.87 365.421 3635.02 360.333C3639.17 355.245 3642.28 349.39 3644.17 343.101C3646.05 336.812 3646.69 330.213 3646.02 323.681C3645.36 317.148 3643.42 310.81 3640.31 305.028C3637.19 299.246 3632.97 294.134 3627.89 289.983C3622.8 285.832 3616.94 282.724 3610.65 280.836C3604.37 278.948 3597.77 278.318 3591.23 278.98C3584.7 279.643 3578.36 281.585 3572.58 284.697L3596.28 328.725L3619.98 372.753Z" fill="black"/>
<path d="M3655.61 375.753C3649.83 372.641 3644.71 368.421 3640.56 363.333C3636.41 358.245 3633.31 352.39 3631.42 346.101C3629.53 339.812 3628.9 333.213 3629.56 326.681C3630.22 320.148 3632.17 313.81 3635.28 308.028C3638.39 302.246 3642.61 297.134 3647.7 292.983C3652.79 288.832 3658.64 285.724 3664.93 283.836C3671.22 281.948 3677.82 281.318 3684.35 281.98C3690.88 282.643 3697.22 284.585 3703 287.697L3679.31 331.725L3655.61 375.753Z" fill="black"/>
<path d="M3751.95 443.995C3806.99 386.479 3740.5 282.5 3732.5 279L3732.5 337.501C3732.5 337.501 3751.65 379.55 3717.67 418.935C3683.68 458.32 3625.69 375.828 3629.74 384.667L3600.6 433.936C3600.6 433.936 3693.59 504.977 3751.95 443.995Z" fill="white" stroke="black" stroke-width="3"/>
<path d="M3601.72 434.33L3630.7 384.718L3628.8 363.001C3628.8 363.001 3625.4 336.591 3609.99 345.599C3603.34 349.486 3599.98 371.217 3599.98 371.217C3599.98 371.217 3592.88 365.485 3582.04 369.096C3575.22 371.366 3584.82 400.072 3584.82 400.072C3584.82 400.072 3572.03 380.262 3565.13 397.494C3563.47 401.646 3566.45 417.342 3575.3 423.24C3584.16 429.139 3590.12 436.873 3601.72 434.33Z" fill="#693875" stroke="black" stroke-width="3"/>
<path d="M2951.19 354H2924.69L2951.19 650H3000.19L2951.19 354Z" fill="white" stroke="black" stroke-width="3" stroke-linecap="round" stroke-linejoin="round"/>
<path d="M3000.58 650L2951.08 650C2951.08 650 2937.43 638.247 2936.9 628.219C2936.36 617.996 2939.19 607.161 2949.22 605.077C2956.76 603.508 2964.39 613.049 2964.39 613.049C2964.39 613.049 2970.37 600.658 2977.47 600.391C2984.65 600.12 2991.5 612.295 2991.5 612.295C2991.5 612.295 2997.16 605.509 3002.19 604.96C3006.45 604.497 3009.56 605.278 3012.66 608.23C3016.5 611.886 3016.01 623.438 3016.01 623.438C3016.01 623.438 3015.09 633.064 3011.35 639.109C3008.27 644.091 3000.58 650 3000.58 650Z" fill="#693875" stroke="black" stroke-width="3"/>
<path d="M2898.19 354H2924.69L2898.19 650H2849.19L2898.19 354Z" fill="white" stroke="black" stroke-width="3"/>
<path d="M2898.08 649.999L2849.08 649.999C2849.08 649.999 2835.65 638.707 2835.06 628.682C2834.46 618.462 2837.23 607.611 2847.24 605.467C2854.77 603.855 2862.46 613.35 2862.46 613.35C2862.46 613.35 2868.36 600.924 2875.46 600.615C2882.64 600.303 2889.56 612.437 2889.56 612.437C2889.56 612.437 2895.18 605.618 2900.22 605.04C2904.47 604.551 2907.58 605.314 2910.7 608.248C2914.57 611.882 2914.14 623.436 2914.14 623.436C2914.14 623.436 2913.28 633.067 2909.57 639.134C2906.52 644.134 2898.08 649.999 2898.08 649.999Z" fill="#693875" stroke="black" stroke-width="3"/>
<path d="M2701.4 381.321C2724.76 287.364 2768.69 263.469 2768.69 263.469L2768.69 312.855C2768.69 312.855 2744.51 352.412 2737.4 422.276C2730.3 492.139 2732.19 526.469 2732.19 526.469L2682.92 520.446C2682.92 520.446 2681.03 463.23 2701.4 381.321Z" fill="white" stroke="black" stroke-width="3"/>
<path d="M2682.69 520.47L2732.19 526.47C2732.19 526.47 2743.97 539.183 2743.3 549.203C2742.61 559.417 2738.5 569.834 2728.3 570.703C2720.63 571.356 2714.19 560.97 2714.19 560.97C2714.19 560.97 2706.77 572.555 2699.69 571.97C2692.53 571.377 2687.19 558.47 2687.19 558.47C2687.19 558.47 2680.76 564.528 2675.69 564.47C2671.41 564.42 2668.42 563.272 2665.69 559.97C2662.31 555.879 2664.19 544.47 2664.19 544.47C2664.19 544.47 2666.25 535.023 2670.69 529.47C2674.35 524.893 2682.69 520.47 2682.69 520.47Z" fill="#693875" stroke="black" stroke-width="3"/>
<path d="M2929.39 230.829C2929.39 275.841 2892.91 312.329 2847.89 312.329C2802.88 312.329 2767 269.512 2767 224.501C2758 172 2800.22 148.927 2847.89 149.329C2892.91 149.329 2929.39 185.818 2929.39 230.829Z" fill="white" stroke="black" stroke-width="3"/>
<circle cx="2847.79" cy="230.828" r="42.5" fill="#693875" stroke="black" stroke-width="3"/>
<path d="M3081.89 230.828C3081.89 275.84 3045.91 312.328 3000.89 312.328C2955.88 312.328 2919.39 275.84 2919.39 230.828C2919.39 185.817 2955.88 149.328 3000.89 149.328C3051.13 145.172 3088.39 180.926 3081.89 230.828Z" fill="white" stroke="black" stroke-width="3"/>
<circle cx="3000.79" cy="230.828" r="42.5" fill="#693875" stroke="black" stroke-width="3"/>
<path d="M2766.11 206H3082.11V366C3082.11 379.807 3070.92 391 3057.11 391H2791.11C2777.3 391 2766.11 379.807 2766.11 366V206Z" fill="white" stroke="black" stroke-width="3"/>
<rect x="2790.11" y="221" width="268" height="156" rx="25" fill="black" stroke="black" stroke-width="3"/>
<rect x="2808.11" y="249" width="100" height="100" stroke="black" stroke-width="3"/>
<circle cx="2858.11" cy="299" r="50" fill="white"/>
<circle cx="2858.11" cy="299" r="38" fill="black"/>
<path d="M2877.6 370.301C2880.89 364.614 2883.02 358.337 2883.87 351.827C2884.73 345.317 2884.3 338.702 2882.6 332.36C2880.9 326.017 2877.97 320.072 2873.97 314.863C2869.97 309.653 2864.99 305.283 2859.3 302C2853.61 298.716 2847.34 296.586 2840.83 295.729C2834.32 294.871 2827.7 295.305 2821.36 297.004C2815.02 298.704 2809.07 301.636 2803.86 305.633C2798.65 309.63 2794.28 314.614 2791 320.301L2834.3 345.301L2877.6 370.301Z" fill="black"/>
<path d="M2878.03 374.753C2872.25 371.641 2867.13 367.421 2862.98 362.333C2858.83 357.245 2855.72 351.39 2853.84 345.101C2851.95 338.812 2851.32 332.213 2851.98 325.681C2852.64 319.148 2854.58 312.81 2857.7 307.028C2860.81 301.246 2865.03 296.134 2870.12 291.983C2875.2 287.832 2881.06 284.724 2887.35 282.836C2893.64 280.948 2900.24 280.318 2906.77 280.98C2913.3 281.643 2919.64 283.585 2925.42 286.697L2901.72 330.725L2878.03 374.753Z" fill="black"/>
<rect x="2940.11" y="249" width="100" height="100" stroke="black" stroke-width="3"/>
<circle cx="2990.11" cy="299" r="50" fill="white"/>
<circle cx="2990.11" cy="299" r="38" fill="black"/>
<path d="M3040.58 352C3040.58 345.434 3039.29 338.932 3036.78 332.866C3034.26 326.8 3030.58 321.288 3025.94 316.645C3021.29 312.002 3015.78 308.319 3009.72 305.806C3003.65 303.293 2997.15 302 2990.58 302C2984.02 302 2977.51 303.293 2971.45 305.806C2965.38 308.319 2959.87 312.002 2955.23 316.645C2950.58 321.288 2946.9 326.8 2944.39 332.866C2941.87 338.932 2940.58 345.434 2940.58 352L2990.58 352H3040.58Z" fill="black"/>
<path d="M2967.39 372.753C2973.18 369.641 2978.29 365.421 2982.44 360.333C2986.59 355.245 2989.7 349.39 2991.59 343.101C2993.47 336.812 2994.1 330.213 2993.44 323.681C2992.78 317.148 2990.84 310.81 2987.72 305.028C2984.61 299.246 2980.39 294.134 2975.3 289.983C2970.22 285.832 2964.36 282.724 2958.07 280.836C2951.78 278.948 2945.19 278.318 2938.65 278.98C2932.12 279.643 2925.78 281.585 2920 284.697L2943.7 328.725L2967.39 372.753Z" fill="black"/>
<path d="M2970 366.301C2966.72 360.614 2964.59 354.337 2963.73 347.827C2962.87 341.317 2963.31 334.702 2965 328.36C2966.7 322.017 2969.64 316.072 2973.63 310.863C2977.63 305.653 2982.61 301.283 2988.3 298C2993.99 294.716 3000.27 292.586 3006.77 291.729C3013.28 290.871 3019.9 291.305 3026.24 293.004C3032.58 294.704 3038.53 297.636 3043.74 301.633C3048.95 305.63 3053.32 310.614 3056.6 316.301L3013.3 341.301L2970 366.301Z" fill="black"/>
<path d="M3085.71 440.893C3147.58 390.796 3100.5 275 3082.5 275.002L3082.5 332.502C3082.5 332.502 3093.56 376.928 3054.87 411.7C3016.18 446.473 2969.08 357.312 2971.98 366.592L2936.85 411.782C2936.85 411.782 3020.11 494.009 3085.71 440.893Z" fill="white" stroke="black" stroke-width="3"/>
<path d="M2937.91 412.312L2972.93 366.762L2973.78 344.978C2973.78 344.978 2973.75 318.351 2957.33 325.338C2950.24 328.354 2944.16 349.485 2944.16 349.485C2944.16 349.485 2937.84 342.902 2926.63 345.113C2919.58 346.504 2925.47 376.192 2925.47 376.192C2925.47 376.192 2915.29 354.925 2906.27 371.147C2904.1 375.055 2905.07 391.001 2913.1 397.972C2921.14 404.943 2926.08 413.369 2937.91 412.312Z" fill="#693875" stroke="black" stroke-width="3"/>
<path d="M2301.19 353H2274.69L2301.19 649H2350.19L2301.19 353Z" fill="white" stroke="black" stroke-width="3" stroke-linecap="round" stroke-linejoin="round"/>
<path d="M2350.58 649L2301.08 649C2301.08 649 2287.43 637.247 2286.9 627.219C2286.36 616.996 2289.19 606.161 2299.22 604.077C2306.76 602.508 2314.39 612.049 2314.39 612.049C2314.39 612.049 2320.37 599.658 2327.47 599.391C2334.65 599.12 2341.5 611.295 2341.5 611.295C2341.5 611.295 2347.16 604.509 2352.19 603.96C2356.45 603.497 2359.56 604.278 2362.66 607.23C2366.5 610.886 2366.01 622.438 2366.01 622.438C2366.01 622.438 2365.09 632.064 2361.35 638.109C2358.27 643.091 2350.58 649 2350.58 649Z" fill="#693875" stroke="black" stroke-width="3"/>
<path d="M2248.19 353H2274.69L2248.19 649H2199.19L2248.19 353Z" fill="white" stroke="black" stroke-width="3"/>
<path d="M2248.08 648.999L2199.08 648.999C2199.08 648.999 2185.65 637.707 2185.06 627.682C2184.46 617.462 2187.23 606.611 2197.24 604.467C2204.77 602.855 2212.46 612.35 2212.46 612.35C2212.46 612.35 2218.36 599.924 2225.46 599.615C2232.64 599.303 2239.56 611.437 2239.56 611.437C2239.56 611.437 2245.18 604.618 2250.22 604.04C2254.47 603.551 2257.58 604.314 2260.7 607.248C2264.57 610.882 2264.14 622.436 2264.14 622.436C2264.14 622.436 2263.28 632.067 2259.57 638.134C2256.52 643.134 2248.08 648.999 2248.08 648.999Z" fill="#693875" stroke="black" stroke-width="3"/>
<path d="M2049.4 394.852C2072.76 300.896 2116.69 277 2116.69 277L2116.69 326.386C2116.69 326.386 2092.51 365.943 2085.4 435.807C2078.3 505.67 2080.19 540 2080.19 540L2030.92 533.977C2030.92 533.977 2029.03 476.761 2049.4 394.852Z" fill="white" stroke="black" stroke-width="3"/>
<path d="M2030.69 534.001L2080.19 540.001C2080.19 540.001 2091.97 552.714 2091.3 562.734C2090.61 572.949 2086.5 583.366 2076.3 584.234C2068.63 584.887 2062.19 574.501 2062.19 574.501C2062.19 574.501 2054.77 586.087 2047.69 585.501C2040.53 584.909 2035.19 572.001 2035.19 572.001C2035.19 572.001 2028.76 578.06 2023.69 578.001C2019.41 577.951 2016.42 576.803 2013.69 573.501C2010.31 569.41 2012.19 558.001 2012.19 558.001C2012.19 558.001 2014.25 548.554 2018.69 543.001C2022.35 538.424 2030.69 534.001 2030.69 534.001Z" fill="#693875" stroke="black" stroke-width="3"/>
<path d="M2278.39 216.828C2278.39 261.839 2241.9 298.328 2196.89 298.328C2151.88 298.328 2116 256.511 2116 211.5C2114.61 165.172 2149.22 134.926 2196.89 135.328C2241.9 135.328 2278.39 171.817 2278.39 216.828Z" fill="white" stroke="black" stroke-width="3"/>
<circle cx="2196.78" cy="216.828" r="42.5" fill="#693875" stroke="black" stroke-width="3"/>
<path d="M2430.89 216.828C2430.89 261.84 2394.9 298.328 2349.89 298.328C2304.88 298.328 2268.39 261.84 2268.39 216.828C2268.39 171.817 2304.88 135.328 2349.89 135.328C2400.13 131.172 2437.38 166.926 2430.89 216.828Z" fill="white" stroke="black" stroke-width="3"/>
<circle cx="2349.78" cy="216.828" r="42.5" fill="#693875" stroke="black" stroke-width="3"/>
<path d="M2116.11 205H2432.11V365C2432.11 378.807 2420.92 390 2407.11 390H2141.11C2127.3 390 2116.11 378.807 2116.11 365V205Z" fill="white" stroke="black" stroke-width="3"/>
<rect x="2140.11" y="220" width="268" height="156" rx="25" fill="black" stroke="black" stroke-width="3"/>
<rect x="2158.11" y="248" width="100" height="100" stroke="black" stroke-width="3"/>
<circle cx="2208.11" cy="298" r="50" fill="white"/>
<circle cx="2208.11" cy="298" r="38" fill="black"/>
<path d="M2187.97 371.753C2193.75 368.641 2198.87 364.421 2203.02 359.333C2207.17 354.245 2210.28 348.39 2212.16 342.101C2214.05 335.812 2214.68 329.213 2214.02 322.681C2213.36 316.148 2211.42 309.81 2208.3 304.028C2205.19 298.246 2200.97 293.134 2195.88 288.983C2190.8 284.832 2184.94 281.724 2178.65 279.836C2172.36 277.948 2165.76 277.318 2159.23 277.98C2152.7 278.643 2146.36 280.585 2140.58 283.697L2164.28 327.725L2187.97 371.753Z" fill="black"/>
<path d="M2230.61 371.753C2224.82 368.641 2219.71 364.421 2215.56 359.333C2211.41 354.245 2208.3 348.39 2206.41 342.101C2204.53 335.812 2203.9 329.213 2204.56 322.681C2205.22 316.148 2207.16 309.81 2210.28 304.028C2213.39 298.246 2217.61 293.134 2222.7 288.983C2227.78 284.832 2233.64 281.724 2239.93 279.836C2246.22 277.948 2252.82 277.318 2259.35 277.98C2265.88 278.643 2272.22 280.585 2278 283.697L2254.3 327.725L2230.61 371.753Z" fill="black"/>
<rect x="2290.11" y="248" width="100" height="100" stroke="black" stroke-width="3"/>
<circle cx="2340.11" cy="298" r="50" fill="white"/>
<circle cx="2340.11" cy="298" r="38" fill="black"/>
<path d="M2390.58 351C2390.58 344.434 2389.28 337.932 2386.77 331.866C2384.26 325.8 2380.58 320.288 2375.93 315.645C2371.29 311.002 2365.78 307.319 2359.71 304.806C2353.65 302.293 2347.14 301 2340.58 301C2334.01 301 2327.51 302.293 2321.44 304.806C2315.38 307.319 2309.87 311.002 2305.22 315.645C2300.58 320.288 2296.9 325.8 2294.38 331.866C2291.87 337.932 2290.58 344.434 2290.58 351L2340.58 351H2390.58Z" fill="black"/>
<path d="M2319.97 371.753C2325.75 368.641 2330.87 364.421 2335.02 359.333C2339.17 354.245 2342.28 348.39 2344.16 342.101C2346.05 335.812 2346.68 329.213 2346.02 322.681C2345.36 316.148 2343.41 309.81 2340.3 304.028C2337.19 298.246 2332.97 293.134 2327.88 288.983C2322.8 284.832 2316.94 281.724 2310.65 279.836C2304.36 277.948 2297.76 277.318 2291.23 277.98C2284.7 278.643 2278.36 280.585 2272.58 283.697L2296.28 327.725L2319.97 371.753Z" fill="black"/>
<path d="M2355.61 374.753C2349.82 371.641 2344.71 367.421 2340.56 362.333C2336.41 357.245 2333.3 351.39 2331.41 345.101C2329.53 338.812 2328.9 332.213 2329.56 325.681C2330.22 319.148 2332.16 312.81 2335.28 307.028C2338.39 301.246 2342.61 296.134 2347.7 291.983C2352.78 287.832 2358.64 284.724 2364.93 282.836C2371.22 280.948 2377.81 280.318 2384.35 280.98C2390.88 281.643 2397.22 283.585 2403 286.697L2379.3 330.725L2355.61 374.753Z" fill="black"/>
<path d="M2451.95 442.992C2506.99 385.476 2437.87 282.091 2432.5 278.001L2432.5 335.5C2432.5 335.5 2451.65 378.547 2417.67 417.932C2383.68 457.317 2325.69 374.825 2329.74 383.664L2300.6 432.933C2300.6 432.933 2393.59 503.974 2451.95 442.992Z" fill="white" stroke="black" stroke-width="3"/>
<path d="M2301.72 433.328L2330.7 383.716L2328.8 361.999C2328.8 361.999 2325.4 335.589 2309.99 344.597C2303.34 348.485 2299.98 370.215 2299.98 370.215C2299.98 370.215 2292.88 364.483 2282.04 368.094C2275.22 370.365 2284.82 399.07 2284.82 399.07C2284.82 399.07 2272.03 379.26 2265.13 396.492C2263.47 400.644 2266.45 416.34 2275.3 422.239C2284.16 428.137 2290.12 435.871 2301.72 433.328Z" fill="#693875" stroke="black" stroke-width="3"/>
<path d="M1651.61 353H1625.11L1651.61 649H1700.61L1651.61 353Z" fill="white" stroke="black" stroke-width="3" stroke-linecap="round" stroke-linejoin="round"/>
<path d="M1701 649L1651.5 649C1651.5 649 1637.85 637.247 1637.32 627.219C1636.78 616.996 1639.61 606.161 1649.64 604.077C1657.18 602.508 1664.81 612.049 1664.81 612.049C1664.81 612.049 1670.78 599.658 1677.89 599.391C1685.07 599.12 1691.91 611.295 1691.91 611.295C1691.91 611.295 1697.58 604.509 1702.61 603.96C1706.87 603.497 1709.98 604.278 1713.08 607.23C1716.92 610.886 1716.43 622.438 1716.43 622.438C1716.43 622.438 1715.51 632.064 1711.77 638.109C1708.69 643.091 1701 649 1701 649Z" fill="#693875" stroke="black" stroke-width="3"/>
<path d="M1598.61 353H1625.11L1598.61 649H1549.61L1598.61 353Z" fill="white" stroke="black" stroke-width="3"/>
<path d="M1598.5 648.999L1549.5 648.999C1549.5 648.999 1536.07 637.707 1535.48 627.682C1534.88 617.462 1537.65 606.611 1547.66 604.467C1555.19 602.855 1562.88 612.35 1562.88 612.35C1562.88 612.35 1568.78 599.924 1575.88 599.615C1583.06 599.303 1589.98 611.437 1589.98 611.437C1589.98 611.437 1595.6 604.618 1600.64 604.04C1604.89 603.551 1608 604.314 1611.12 607.248C1614.99 610.882 1614.56 622.436 1614.56 622.436C1614.56 622.436 1613.7 632.067 1609.99 638.134C1606.94 643.134 1598.5 648.999 1598.5 648.999Z" fill="#693875" stroke="black" stroke-width="3"/>
<path d="M1409.73 385.165C1424.99 289.557 1466.72 262.001 1466.72 262.001L1470.93 311.208C1470.93 311.208 1450.21 352.683 1449.09 422.898C1447.97 493.114 1452.79 527.156 1452.79 527.156L1403.19 525.359C1403.19 525.359 1396.42 468.513 1409.73 385.165Z" fill="white" stroke="black" stroke-width="3"/>
<path d="M1402.96 525.402L1452.79 527.157C1452.79 527.157 1465.61 538.819 1465.8 548.859C1465.99 559.095 1462.78 569.825 1452.69 571.561C1445.09 572.866 1437.8 563.067 1437.8 563.067C1437.8 563.067 1431.4 575.243 1424.29 575.264C1417.1 575.284 1410.68 562.879 1410.68 562.879C1410.68 562.879 1404.79 569.465 1399.74 569.838C1395.47 570.154 1392.39 569.266 1389.39 566.208C1385.68 562.42 1386.57 550.892 1386.57 550.892C1386.57 550.892 1387.82 541.304 1391.77 535.393C1395.02 530.521 1402.96 525.402 1402.96 525.402Z" fill="#693875" stroke="black" stroke-width="3"/>
<circle cx="1548.5" cy="216.5" r="81.5" fill="white" stroke="black" stroke-width="3"/>
<circle cx="1548.39" cy="216.5" r="42.5" fill="#693875" stroke="black" stroke-width="3"/>
<circle cx="1701.5" cy="216.5" r="81.5" fill="white" stroke="black" stroke-width="3"/>
<circle cx="1701.39" cy="216.5" r="42.5" fill="#693875" stroke="black" stroke-width="3"/>
<path d="M1466.53 205H1782.53V365C1782.53 378.807 1771.34 390 1757.53 390H1491.53C1477.72 390 1466.53 378.807 1466.53 365V205Z" fill="white" stroke="black" stroke-width="3"/>
<rect x="1490.53" y="220" width="268" height="156" rx="25" fill="black" stroke="black" stroke-width="3"/>
<rect x="1508.53" y="248" width="100" height="100" stroke="black" stroke-width="3"/>
<circle cx="1558.53" cy="298" r="50" fill="white"/>
<circle cx="1558.53" cy="298" r="38" fill="black"/>
<path d="M1619 348C1619 340.121 1617.45 332.319 1614.43 325.039C1611.42 317.759 1607 311.145 1601.43 305.574C1595.85 300.002 1589.24 295.582 1581.96 292.567C1574.68 289.552 1566.88 288 1559 288C1551.12 288 1543.32 289.552 1536.04 292.567C1528.76 295.583 1522.15 300.002 1516.57 305.574C1511 311.145 1506.58 317.759 1503.57 325.039C1500.55 332.319 1499 340.121 1499 348L1559 348H1619Z" fill="black"/>
<rect x="1640.53" y="248" width="100" height="100" stroke="black" stroke-width="3"/>
<circle cx="1690.53" cy="298" r="50" fill="white"/>
<circle cx="1690.53" cy="298" r="38" fill="black"/>
<path d="M1751 348C1751 340.121 1749.45 332.319 1746.43 325.039C1743.42 317.759 1739 311.145 1733.43 305.574C1727.85 300.002 1721.24 295.582 1713.96 292.567C1706.68 289.552 1698.88 288 1691 288C1683.12 288 1675.32 289.552 1668.04 292.567C1660.76 295.583 1654.15 300.002 1648.57 305.574C1643 311.145 1638.58 317.759 1635.57 325.039C1632.55 332.319 1631 340.121 1631 348L1691 348H1751Z" fill="black"/>
<path d="M1843.44 421.585C1873.95 353.799 1783.84 275.007 1782.5 266.501L1782.5 319.5C1782.5 319.5 1822.67 360.579 1802.97 408.727C1783.27 456.875 1702.06 397.104 1708.71 404.195L1696.76 460.172C1696.76 460.172 1808.8 498.553 1843.44 421.585Z" fill="white" stroke="black" stroke-width="3"/>
<path d="M1697.94 460.19L1709.64 403.936L1700.93 383.953C1700.93 383.953 1689.31 359.995 1677.56 373.434C1672.5 379.234 1676.22 400.906 1676.22 400.906C1676.22 400.906 1667.66 397.729 1658.54 404.599C1652.8 408.919 1671.02 433.084 1671.02 433.084C1671.02 433.084 1652.6 418.368 1651.54 436.898C1651.28 441.363 1659.1 455.298 1669.37 458.075C1679.64 460.852 1687.75 466.287 1697.94 460.19Z" fill="#693875" stroke="black" stroke-width="3"/>
<path d="M1000.61 353H974.109L1000.61 649H1049.61L1000.61 353Z" fill="white" stroke="black" stroke-width="3" stroke-linecap="round" stroke-linejoin="round"/>
<path d="M1050 649L1000.5 649C1000.5 649 986.853 637.247 986.32 627.219C985.777 616.996 988.612 606.161 998.636 604.077C1006.18 602.508 1013.81 612.049 1013.81 612.049C1013.81 612.049 1019.78 599.658 1026.89 599.391C1034.07 599.12 1040.91 611.295 1040.91 611.295C1040.91 611.295 1046.58 604.509 1051.61 603.96C1055.87 603.497 1058.98 604.278 1062.08 607.23C1065.92 610.886 1065.43 622.438 1065.43 622.438C1065.43 622.438 1064.51 632.064 1060.77 638.109C1057.69 643.091 1050 649 1050 649Z" fill="#693875" stroke="black" stroke-width="3"/>
<path d="M947.61 353H974.11L947.61 649H898.61L947.61 353Z" fill="white" stroke="black" stroke-width="3"/>
<path d="M947.501 649.001L898.501 649.001C898.501 649.001 885.074 637.709 884.482 627.684C883.879 617.464 886.651 606.613 896.662 604.469C904.193 602.857 911.882 612.352 911.882 612.352C911.882 612.352 917.784 599.926 924.885 599.617C932.063 599.305 938.982 611.439 938.982 611.439C938.982 611.439 944.604 604.62 949.637 604.042C953.891 603.553 957.003 604.316 960.123 607.25C963.987 610.884 963.559 622.438 963.559 622.438C963.559 622.438 962.699 632.069 958.995 638.136C955.943 643.136 947.501 649.001 947.501 649.001Z" fill="#693875" stroke="black" stroke-width="3"/>
<path d="M757.046 378.311C773.713 282.938 815.84 255.997 815.84 255.997L819.331 305.26C819.331 305.26 798.004 346.427 795.854 416.619C793.703 486.81 798.02 520.919 798.02 520.919L748.45 518.394C748.45 518.394 742.516 461.455 757.046 378.311Z" fill="white" stroke="black" stroke-width="3"/>
<path d="M748.221 518.434L798.021 520.921C798.021 520.921 810.672 532.77 810.709 542.812C810.747 553.049 807.38 563.731 797.266 565.318C789.657 566.512 782.504 556.606 782.504 556.606C782.504 556.606 775.925 568.687 768.818 568.604C761.633 568.519 755.395 556.021 755.395 556.021C755.395 556.021 749.405 562.52 744.348 562.819C740.073 563.072 737.008 562.138 734.055 559.037C730.397 555.195 731.463 543.682 731.463 543.682C731.463 543.682 732.854 534.112 736.887 528.26C740.21 523.436 748.221 518.434 748.221 518.434Z" fill="#693875" stroke="black" stroke-width="3"/>
<path d="M1213.35 380.5C1189.99 286.543 1127.59 262 1127.59 262V311.386C1127.59 311.386 1169.59 333.636 1176.7 403.5C1183.8 473.364 1131.7 487 1131.7 487L1176.7 522.5C1176.7 522.5 1233.72 462.409 1213.35 380.5Z" fill="white" stroke="black" stroke-width="3"/>
<path d="M1176.17 522.624L1131.7 486.5L1109.7 486.5C1109.7 486.5 1084.11 494.446 1094.2 507.5C1098.91 513.594 1116.2 521 1116.2 521C1116.2 521 1112.18 536.519 1117.7 541C1123.27 545.529 1143.7 537.426 1143.7 537.426C1143.7 537.426 1126.7 548 1141.7 557.5C1145.31 559.791 1137.44 557.996 1141.7 557.5C1146.96 556.885 1160.98 555.816 1168.2 548C1175.41 540.184 1176.86 534.475 1176.17 522.624Z" fill="#693875"/>
<path d="M1141.7 557.5C1146.96 556.885 1160.98 555.816 1168.2 548C1175.41 540.184 1176.86 534.475 1176.17 522.624L1131.7 486.5L1109.7 486.5C1109.7 486.5 1084.11 494.446 1094.2 507.5C1098.91 513.594 1116.2 521 1116.2 521C1116.2 521 1112.18 536.519 1117.7 541C1123.27 545.529 1143.7 537.426 1143.7 537.426C1143.7 537.426 1126.7 548 1141.7 557.5ZM1141.7 557.5C1145.31 559.791 1137.44 557.996 1141.7 557.5Z" stroke="black" stroke-width="3"/>
<circle cx="897.608" cy="194.5" r="81.5" fill="white" stroke="black" stroke-width="3"/>
<circle cx="897.5" cy="194.5" r="42.5" fill="#693875" stroke="black" stroke-width="3"/>
<circle cx="1050.61" cy="194.5" r="81.5" fill="white" stroke="black" stroke-width="3"/>
<circle cx="1050.5" cy="194.5" r="42.5" fill="#693875" stroke="black" stroke-width="3"/>
<path d="M816.108 192H1132.11V352C1132.11 365.807 1120.92 377 1107.11 377H841.108C827.301 377 816.108 365.807 816.108 352V192Z" fill="white" stroke="black" stroke-width="3"/>
<rect x="840.108" y="207" width="268" height="156" rx="25" fill="black" stroke="black" stroke-width="3"/>
<rect x="858.108" y="235" width="100" height="100" stroke="black" stroke-width="3"/>
<circle cx="908.108" cy="285" r="50" fill="white"/>
<circle cx="908.108" cy="285" r="38" fill="black"/>
<path d="M959 338C959 331.434 957.707 324.932 955.194 318.866C952.681 312.8 948.998 307.288 944.355 302.645C939.712 298.002 934.2 294.319 928.134 291.806C922.068 289.293 915.566 288 909 288C902.434 288 895.932 289.293 889.866 291.806C883.8 294.319 878.288 298.002 873.645 302.645C869.002 307.288 865.319 312.8 862.806 318.866C860.293 324.932 859 331.434 859 338L909 338H959Z" fill="black"/>
<rect x="990.108" y="235" width="100" height="100" stroke="black" stroke-width="3"/>
<circle cx="1040.11" cy="285" r="50" fill="white"/>
<circle cx="1040.11" cy="285" r="38" fill="black"/>
<path d="M1091 338C1091 331.434 1089.71 324.932 1087.19 318.866C1084.68 312.8 1081 307.288 1076.36 302.645C1071.71 298.002 1066.2 294.319 1060.13 291.806C1054.07 289.293 1047.57 288 1041 288C1034.43 288 1027.93 289.293 1021.87 291.806C1015.8 294.319 1010.29 298.002 1005.64 302.645C1001 307.288 997.319 312.8 994.806 318.866C992.293 324.932 991 331.434 991 338L1041 338H1091Z" fill="black"/>
<path d="M349.609 353H323.109L349.609 649H398.609L349.609 353Z" fill="white" stroke="black" stroke-width="3" stroke-linecap="round" stroke-linejoin="round"/>
<path d="M399 649L349.5 649C349.5 649 335.853 637.247 335.32 627.219C334.777 616.996 337.612 606.161 347.636 604.077C355.177 602.508 362.809 612.049 362.809 612.049C362.809 612.049 368.784 599.658 375.887 599.391C383.067 599.12 389.914 611.295 389.914 611.295C389.914 611.295 395.577 604.509 400.612 603.96C404.87 603.497 407.977 604.278 411.08 607.23C414.922 610.886 414.426 622.438 414.426 622.438C414.426 622.438 413.51 632.064 409.771 638.109C406.689 643.091 399 649 399 649Z" fill="#693875" stroke="black" stroke-width="3"/>
<path d="M296.609 353H323.109L296.609 649H247.609L296.609 353Z" fill="white" stroke="black" stroke-width="3"/>
<path d="M296.5 648.999L247.5 648.999C247.5 648.999 234.073 637.707 233.481 627.682C232.878 617.462 235.65 606.611 245.661 604.467C253.192 602.855 260.881 612.35 260.881 612.35C260.881 612.35 266.783 599.924 273.884 599.615C281.062 599.303 287.981 611.437 287.981 611.437C287.981 611.437 293.603 604.618 298.636 604.04C302.89 603.551 306.002 604.314 309.122 607.248C312.986 610.882 312.558 622.436 312.558 622.436C312.558 622.436 311.698 632.067 307.994 638.134C304.942 643.134 296.5 648.999 296.5 648.999Z" fill="#693875" stroke="black" stroke-width="3"/>
<path d="M97.8168 353.852C121.183 259.896 165.109 236 165.109 236V285.386C165.109 285.386 140.926 324.943 133.82 394.807C126.714 464.67 128.609 499 128.609 499L79.3415 492.977C79.3415 492.977 77.4467 435.761 97.8168 353.852Z" fill="white" stroke="black" stroke-width="3"/>
<path d="M79.109 493.001L128.609 499.001C128.609 499.001 140.391 511.714 139.718 521.734C139.032 531.949 134.919 542.366 124.718 543.234C117.043 543.887 110.609 533.501 110.609 533.501C110.609 533.501 103.192 545.087 96.109 544.501C88.9484 543.909 83.609 531.001 83.609 531.001C83.609 531.001 77.1742 537.06 72.109 537.001C67.8269 536.951 64.8352 535.803 62.109 532.501C58.7322 528.41 60.609 517.001 60.609 517.001C60.609 517.001 62.6726 507.554 67.109 502.001C70.7653 497.424 79.109 493.001 79.109 493.001Z" fill="#693875" stroke="black" stroke-width="3"/>
<path d="M548.401 353.852C525.035 259.896 481.109 236 481.109 236V285.386C481.109 285.386 505.292 324.943 512.398 394.807C519.504 464.67 517.609 499 517.609 499L566.876 492.977C566.876 492.977 568.771 435.761 548.401 353.852Z" fill="white" stroke="black" stroke-width="3"/>
<path d="M567.109 493.001L517.609 499.001C517.609 499.001 505.827 511.714 506.5 521.734C507.185 531.949 511.299 542.366 521.5 543.234C529.174 543.887 535.609 533.501 535.609 533.501C535.609 533.501 543.025 545.087 550.109 544.501C557.269 543.909 562.609 531.001 562.609 531.001C562.609 531.001 569.044 537.06 574.109 537.001C578.391 536.951 581.383 535.803 584.109 532.501C587.486 528.41 585.609 517.001 585.609 517.001C585.609 517.001 583.545 507.554 579.109 502.001C575.452 497.424 567.109 493.001 567.109 493.001Z" fill="#693875" stroke="black" stroke-width="3"/>
<circle cx="246.609" cy="170.5" r="81.5" fill="white" stroke="black" stroke-width="3"/>
<circle cx="246.5" cy="170.5" r="42.5" fill="#693875" stroke="black" stroke-width="3"/>
<circle cx="399.609" cy="170.5" r="81.5" fill="white" stroke="black" stroke-width="3"/>
<circle cx="399.5" cy="170.5" r="42.5" fill="#693875" stroke="black" stroke-width="3"/>
<path d="M165.109 168H481.109V328C481.109 341.807 469.917 353 456.109 353H190.109C176.302 353 165.109 341.807 165.109 328V168Z" fill="white" stroke="black" stroke-width="3"/>
<rect x="189.109" y="183" width="268" height="156" rx="25" fill="black" stroke="black" stroke-width="3"/>
<rect x="207.109" y="211" width="100" height="100" stroke="black" stroke-width="3"/>
<circle cx="257.109" cy="261" r="50" fill="white"/>
<circle cx="257.109" cy="261" r="38" fill="black"/>
<rect x="339.109" y="211" width="100" height="100" stroke="black" stroke-width="3"/>
<circle cx="389.109" cy="261" r="50" fill="white"/>
<circle cx="389.109" cy="261" r="38" fill="black"/>
</g>
<defs>
<clipPath id="clip0_223_41482">
<rect width="7800" height="650" fill="white"/>
</clipPath>
</defs>
</svg>
