<svg width="5200" height="653" viewBox="0 0 5200 653" fill="none" xmlns="http://www.w3.org/2000/svg">
<path d="M4832.52 400L4867.02 396C4873.12 385.448 4859.84 442.546 4913.52 477C4967.2 511.454 5053.49 474.229 5052.02 477.5C5052.02 477.5 5051.01 528.634 5051.02 533.5C5051.03 538.366 4917.09 533.508 4890.52 505.5C4863.96 477.493 4838.52 449.5 4832.52 400Z" fill="white" stroke="black" stroke-width="3"/>
<path d="M5052.02 477.5L5051.17 534.21C5051.17 534.21 5040.72 538.148 5030.69 538.759C5020.48 539.382 5010.64 536.03 5008.49 526.038C5006.87 518.52 5024.49 521.534 5024.49 521.534C5024.49 521.534 5004.94 504.93 5004.63 497.84C5004.31 490.672 5019.64 493.489 5019.64 493.489C5019.64 493.489 5009 481.562 5008.41 476.538C5007.92 472.291 5012.32 465.828 5012.32 465.828C5012.32 465.828 5017.71 461.485 5025.51 462.77C5032.79 463.97 5037.26 464.627 5042.52 469.5C5046.7 473.366 5052.41 476.942 5052.02 477.5Z" fill="#693875" stroke="black" stroke-width="3"/>
<path d="M4899.52 390L4948.02 387C4945.7 386.439 4919.91 400.308 4911.02 436C4904.36 522.225 4910.43 571.423 4914.39 649.714L4865.39 649.714C4870.63 566.869 4869.49 469.886 4876.39 439.714C4883.28 409.542 4899.52 390 4899.52 390Z" fill="white" stroke="black" stroke-width="3"/>
<path d="M4914.39 649.714L4865.39 649.714C4865.39 649.714 4851.86 637.166 4851.43 627.133C4850.99 616.904 4853.93 606.099 4863.98 604.116C4871.53 602.624 4879.07 612.242 4879.07 612.242C4879.07 612.242 4885.17 599.912 4892.27 599.717C4899.46 599.519 4906.18 611.763 4906.18 611.763C4906.18 611.763 4911.91 605.035 4916.95 604.537C4921.21 604.117 4924.31 604.929 4927.39 607.912C4931.19 611.608 4930.58 623.154 4930.58 623.154C4930.58 623.154 4929.56 632.77 4925.76 638.777C4922.63 643.727 4914.39 649.714 4914.39 649.714Z" fill="#693875" stroke="black" stroke-width="3"/>
<path d="M4743.25 335.306C4817.91 396.943 4847 387 4847 387L4833.5 342.127C4833.5 342.127 4738.9 285.021 4702.35 278.08C4665.8 271.139 4632.65 315.503 4632.65 315.503L4668.84 342.127C4668.84 342.127 4682.45 285.115 4743.25 335.306Z" fill="white" stroke="black" stroke-width="3"/>
<path d="M4668.65 342.122L4632.64 315.518C4632.64 315.518 4622.18 324.968 4618.35 334.233C4613.82 345.2 4615.48 357.172 4623.32 363.754C4631.07 370.259 4634.1 353.085 4631.65 352.169C4630.98 353.744 4637.37 372.659 4644.29 374.02C4651.34 375.407 4654.18 367.53 4654.18 367.53C4654.18 367.53 4657.42 374.881 4667.41 378.674C4677.39 382.467 4678.78 366.39 4678.78 366.39C4678.78 366.39 4676.83 356.982 4673.76 351.41C4670.94 346.28 4668.65 342.122 4668.65 342.122Z" fill="#693875" stroke="black" stroke-width="3"/>
<path fill-rule="evenodd" clip-rule="evenodd" d="M5095.92 456.31C5095.92 456.31 5095.31 456.718 5094.27 457.357C5094.94 456.468 5095.57 456.037 5095.92 456.31Z" fill="#693875"/>
<path d="M5095.53 427.662L5145.51 429.187C5149.03 431.4 5148.09 450.915 5148.02 452.703C5147.94 454.491 5143.61 468.609 5138.61 471.979C5134.82 474.529 5129.9 476.931 5125.51 476.204C5119.64 475.231 5118.3 467.148 5120.29 463.116C5117.79 468.069 5103.8 477.597 5095.57 473.176C5088.83 469.554 5091.85 460.536 5094.27 457.359L5094.27 457.357C5095.31 456.718 5095.92 456.31 5095.92 456.31C5095.57 456.037 5094.94 456.468 5094.27 457.357L5094.27 457.359C5090.02 459.961 5078.67 466.382 5072.74 464.636C5059.62 460.771 5066.01 445.787 5074.79 438.919C5082.69 432.73 5095.53 427.662 5095.53 427.662Z" fill="#693875"/>
<path d="M5094.27 457.359L5094.27 457.357M5094.27 457.359C5091.85 460.536 5088.83 469.554 5095.57 473.176C5103.8 477.597 5117.79 468.069 5120.29 463.116C5118.3 467.148 5119.64 475.231 5125.51 476.204C5129.9 476.931 5134.82 474.529 5138.61 471.979C5143.61 468.609 5147.94 454.491 5148.02 452.703C5148.09 450.915 5149.03 431.4 5145.51 429.187L5095.53 427.662C5095.53 427.662 5082.69 432.73 5074.79 438.919C5066.01 445.787 5059.62 460.771 5072.74 464.636C5078.67 466.382 5090.02 459.961 5094.27 457.359ZM5094.27 457.357C5094.94 456.468 5095.57 456.037 5095.92 456.31C5095.92 456.31 5095.31 456.718 5094.27 457.357Z" stroke="black" stroke-width="3"/>
<path d="M5095.94 290.339C5019.62 235.175 4999.82 256.717 4994.61 258.775C4994.61 258.775 4982.42 263.652 4982.29 273.186C4982.15 282.72 5039.91 295.023 5086.1 330.272C5132.29 365.522 5084.01 437.688 5095.56 427.652L5145.53 429.188C5146.02 429.697 5172.45 345.643 5095.94 290.339Z" fill="white" stroke="black" stroke-width="3"/>
<path d="M4880.48 201.268C4885.77 245.898 4853.83 286.373 4809.13 291.672C4764.43 296.97 4726.26 273.324 4720.97 228.694C4715.67 184.064 4745.27 135.351 4789.96 130.052C4834.66 124.754 4875.19 156.638 4880.48 201.268Z" fill="white" stroke="black" stroke-width="3"/>
<path d="M4841.64 205.872C4844.4 229.145 4827.74 250.252 4804.43 253.015C4781.13 255.778 4759.99 239.151 4757.23 215.878C4754.47 192.604 4771.13 171.498 4794.44 168.735C4817.75 165.972 4838.88 182.598 4841.64 205.872Z" fill="#693875" stroke="black" stroke-width="3"/>
<path d="M5034.87 193.109C5040.16 237.739 5009.72 292.971 4965.02 298.269C4920.33 303.568 4879.8 271.683 4874.51 227.053C4869.22 182.423 4901.16 141.948 4945.86 136.65C4990.56 131.351 5029.58 148.479 5034.87 193.109Z" fill="white" stroke="black" stroke-width="3"/>
<path d="M4997.54 212.469C5000.3 235.743 4983.64 256.849 4960.33 259.612C4937.02 262.375 4915.89 245.748 4913.13 222.475C4910.37 199.202 4927.03 178.095 4950.34 175.332C4973.65 172.569 4994.78 189.196 4997.54 212.469Z" fill="#693875" stroke="black" stroke-width="3"/>
<path d="M4720.85 228.663L5034.65 191.463L5053.46 350.108C5055.09 363.798 5045.29 376.214 5031.58 377.839L4767.43 409.153C4753.72 410.779 4741.28 400.998 4739.66 387.308L4720.85 228.663Z" fill="white" stroke="black" stroke-width="3"/>
<path d="M4730.41 267.749C4728.79 254.059 4738.59 241.643 4752.3 240.018L4968.78 214.354C4982.49 212.729 4994.92 222.509 4996.55 236.199L5009.01 341.301C5010.63 354.992 5000.83 367.407 4987.12 369.033L4770.64 394.696C4756.93 396.322 4744.5 386.541 4742.87 372.851L4730.41 267.749Z" fill="black" stroke="black" stroke-width="3"/>
<rect width="99.9993" height="99.8471" transform="matrix(0.993046 -0.117723 0.11775 0.993043 4748.64 268.605)" stroke="black" stroke-width="3"/>
<rect width="99.9993" height="99.8471" transform="matrix(0.993046 -0.117723 0.11775 0.993043 4879.72 253.065)" stroke="black" stroke-width="3"/>
<path d="M4280.36 565.74L4307.44 521.499C4307.44 521.499 4328.21 523.569 4336.45 529.299C4344.86 535.141 4351.68 544.027 4347.17 553.222C4343.79 560.139 4331.57 560.315 4331.57 560.315C4331.57 560.315 4337.69 572.634 4333.55 578.408C4329.35 584.244 4315.54 582.184 4315.54 582.184C4315.54 582.184 4317.43 590.818 4314.77 595.132C4312.52 598.779 4310 600.754 4305.77 601.393C4300.52 602.185 4291.7 594.707 4291.7 594.707C4291.7 594.707 4284.66 588.078 4282.18 581.417C4280.14 575.928 4280.36 565.74 4280.36 565.74Z" fill="#693875" stroke="black" stroke-width="3"/>
<path d="M4142.48 354.821L4168.7 344.499C4168.7 344.499 4173.6 439.616 4206.94 472.999C4240.28 506.383 4307.44 520.999 4307.44 520.999L4280.26 565.842C4280.26 565.842 4183.73 508.769 4168.7 485.609C4153.67 462.449 4140.87 405.669 4142.48 354.821Z" fill="white" stroke="black" stroke-width="3"/>
<path d="M4202.31 338.057L4226.45 345.616L4142.86 641.732L4094.44 649.348L4202.31 338.057Z" fill="white" stroke="black" stroke-width="3"/>
<path d="M4142.94 642L4094.44 650C4094.44 650 4088.68 639.27 4086.45 629.479C4084.18 619.496 4085.9 609.249 4095.41 605.504C4102.56 602.686 4102.44 620.562 4102.44 620.562C4102.44 620.562 4115.66 598.589 4122.61 597.127C4129.63 595.65 4129.33 611.235 4129.33 611.235C4129.33 611.235 4139.38 598.802 4144.24 597.412C4148.35 596.237 4155.45 599.533 4155.45 599.533C4155.45 599.533 4160.6 604.143 4160.6 612.05C4160.59 619.429 4157.34 623.992 4152.62 629.392C4148.77 633.795 4142.94 642 4142.94 642Z" fill="#693875" stroke="black" stroke-width="3"/>
<path fill-rule="evenodd" clip-rule="evenodd" d="M4446.98 332.811C4446.98 332.811 4446.81 333.528 4446.48 334.707C4446.37 333.595 4446.53 332.851 4446.98 332.811Z" fill="#693875"/>
<path d="M4427.2 312.083L4464.87 279.197C4468.96 278.423 4481.54 293.364 4482.7 294.727C4483.86 296.09 4490.3 309.382 4488.92 315.257C4487.88 319.702 4485.91 324.806 4482.2 327.261C4477.24 330.541 4470.75 325.533 4469.47 321.223C4471.01 326.553 4467.23 343.056 4458.19 345.414C4450.79 347.346 4446.87 338.68 4446.48 334.708L4446.48 334.707C4446.81 333.528 4446.98 332.811 4446.98 332.811C4446.53 332.851 4446.37 333.595 4446.48 334.707L4446.48 334.708C4445.13 339.504 4441.19 351.931 4435.65 354.685C4423.41 360.781 4417.9 345.447 4419.66 334.446C4421.24 324.533 4427.2 312.083 4427.2 312.083Z" fill="#693875"/>
<path d="M4446.48 334.708L4446.48 334.707M4446.48 334.708C4446.87 338.68 4450.79 347.346 4458.19 345.414C4467.23 343.056 4471.01 326.553 4469.47 321.223C4470.75 325.533 4477.24 330.541 4482.2 327.261C4485.91 324.806 4487.88 319.702 4488.92 315.257C4490.3 309.382 4483.86 296.09 4482.7 294.727C4481.54 293.364 4468.96 278.423 4464.87 279.197L4427.2 312.083C4427.2 312.083 4421.24 324.533 4419.66 334.446C4417.9 345.447 4423.41 360.781 4435.65 354.685C4441.19 351.931 4445.13 339.504 4446.48 334.708ZM4446.48 334.707C4446.37 333.595 4446.53 332.851 4446.98 332.811C4446.98 332.811 4446.81 333.528 4446.48 334.707Z" stroke="black" stroke-width="3"/>
<path d="M4334.08 211.158C4240.61 222.651 4240.76 251.909 4238.34 256.964C4238.34 256.964 4245.44 291.853 4250.16 280.779C4254.89 269.705 4290.58 247.816 4354.03 247.12C4417.49 246.424 4427.18 312.759 4427.22 312.053L4464.88 279.187C4465.59 279.227 4427.78 199.636 4334.08 211.158Z" fill="white" stroke="black" stroke-width="3"/>
<path fill-rule="evenodd" clip-rule="evenodd" d="M3944.12 288.419C3944.12 288.419 3943.88 287.722 3943.51 286.554C3944.21 287.429 3944.47 288.144 3944.12 288.419Z" fill="#693875"/>
<path d="M3971.98 295.112L3958.16 343.168C3955.14 346.034 3936.46 340.305 3934.75 339.789C3933.04 339.272 3920.43 331.592 3918.4 325.909C3916.86 321.61 3915.75 316.255 3917.54 312.179C3919.93 306.732 3928.09 307.423 3931.51 310.348C3927.32 306.705 3921.55 290.791 3927.86 283.908C3933.04 278.272 3941.03 283.427 3943.51 286.552L3943.51 286.554C3943.88 287.722 3944.12 288.419 3944.12 288.419C3944.47 288.144 3944.21 287.429 3943.51 286.554L3943.51 286.552C3942.04 281.794 3938.62 269.213 3941.78 263.899C3948.76 252.136 3961.7 262.035 3966.19 272.231C3970.24 281.418 3971.98 295.112 3971.98 295.112Z" fill="#693875"/>
<path d="M3943.51 286.552L3943.51 286.554M3943.51 286.552C3941.03 283.427 3933.04 278.272 3927.86 283.908C3921.55 290.791 3927.32 306.705 3931.51 310.348C3928.09 307.423 3919.93 306.732 3917.54 312.179C3915.75 316.255 3916.86 321.61 3918.4 325.909C3920.43 331.592 3933.04 339.272 3934.75 339.789C3936.46 340.305 3955.14 346.034 3958.16 343.168L3971.98 295.112C3971.98 295.112 3970.24 281.418 3966.19 272.231C3961.7 262.035 3948.76 252.136 3941.78 263.899C3938.62 269.213 3942.04 281.794 3943.51 286.552ZM3943.51 286.554C3944.21 287.429 3944.47 288.144 3944.12 288.419C3944.12 288.419 3943.88 287.722 3943.51 286.554Z" stroke="black" stroke-width="3"/>
<path d="M4104.95 329.423C4177.25 269.09 4161.26 244.585 4160.56 239.025C4160.56 239.025 4135.67 213.56 4137.71 225.427C4139.74 237.295 4121.62 275.037 4068.68 310.026C4015.74 345.015 3971.63 294.531 3971.98 295.146L3958.15 343.183C3957.54 343.531 4032.46 389.908 4104.95 329.423Z" fill="white" stroke="black" stroke-width="3"/>
<path d="M4332.8 145.49C4337.91 190.142 4305.8 230.485 4261.08 235.601C4216.36 240.716 4178.28 216.913 4173.17 172.262C4168.06 127.611 4197.86 79.019 4242.58 73.9039C4287.29 68.7888 4327.69 100.839 4332.8 145.49Z" fill="white" stroke="black" stroke-width="3"/>
<path d="M4293.94 149.935C4296.61 173.219 4279.86 194.257 4256.54 196.925C4233.22 199.592 4212.16 182.879 4209.49 159.594C4206.83 136.31 4223.57 115.272 4246.89 112.604C4270.21 109.937 4291.28 126.65 4293.94 149.935Z" fill="#693875" stroke="black" stroke-width="3"/>
<path d="M4179.19 167.115C4184.3 211.766 4153.63 266.872 4108.91 271.987C4064.19 277.102 4027.05 246.151 4021.94 201.5C4011.44 155 4045.69 115.406 4090.41 110.29C4135.13 105.175 4174.08 122.463 4179.19 167.115Z" fill="white" stroke="black" stroke-width="3"/>
<path d="M4141.78 186.321C4144.44 209.606 4127.7 230.644 4104.38 233.311C4081.06 235.979 4059.99 219.265 4057.33 195.981C4054.67 172.697 4071.41 151.658 4094.73 148.991C4118.05 146.324 4139.11 163.037 4141.78 186.321Z" fill="#693875" stroke="black" stroke-width="3"/>
<path d="M4020.28 189.351L4334.23 153.438L4352.39 312.158C4353.96 325.855 4344.11 338.231 4330.39 339.8L4066.11 370.03C4052.39 371.599 4040 361.768 4038.44 348.071L4020.28 189.351Z" fill="white" stroke="black" stroke-width="3"/>
<path d="M4029.68 228.475C4028.11 214.778 4037.96 202.403 4051.68 200.834L4268.26 176.058C4281.98 174.489 4294.37 184.321 4295.94 198.017L4307.97 303.17C4309.54 316.866 4299.69 329.242 4285.97 330.811L4069.38 355.586C4055.67 357.155 4043.27 347.324 4041.71 333.627L4029.68 228.475Z" fill="black" stroke="black" stroke-width="3"/>
<rect width="99.9993" height="99.8471" transform="matrix(0.993521 -0.113649 0.113676 0.993518 4047.9 229.406)" stroke="black" stroke-width="3"/>
<path d="M4142.99 268.778C4146.12 296.171 4126.42 320.922 4098.99 324.06C4071.55 327.198 4046.77 307.536 4043.64 280.143C4040.5 252.749 4060.2 227.999 4087.64 224.86C4115.07 221.722 4139.86 241.385 4142.99 268.778Z" fill="white"/>
<path d="M4131.07 270.142C4133.45 290.96 4118.48 309.771 4097.63 312.156C4076.78 314.541 4057.94 299.598 4055.56 278.779C4053.18 257.96 4068.15 239.149 4089 236.764C4109.85 234.379 4128.69 249.323 4131.07 270.142Z" fill="black"/>
<path d="M4047.47 317.663C4053.98 316.807 4060.26 314.678 4065.95 311.396C4071.63 308.114 4076.62 303.744 4080.62 298.536C4084.61 293.328 4087.55 287.383 4089.25 281.041C4090.95 274.699 4091.38 268.084 4090.53 261.574C4089.67 255.064 4087.54 248.786 4084.26 243.099C4080.98 237.412 4076.61 232.426 4071.4 228.428C4066.19 224.43 4060.25 221.496 4053.91 219.796C4047.56 218.095 4040.95 217.66 4034.44 218.515L4040.95 268.089L4047.47 317.663Z" fill="black"/>
<path d="M4043.44 224.781C4044.87 231.189 4047.55 237.253 4051.32 242.626C4055.1 248 4059.89 252.577 4065.43 256.097C4070.98 259.618 4077.16 262.012 4083.63 263.143C4090.09 264.274 4096.72 264.12 4103.13 262.69C4109.54 261.26 4115.6 258.581 4120.98 254.808C4126.35 251.034 4130.93 246.239 4134.45 240.696C4137.97 235.154 4140.36 228.972 4141.49 222.504C4142.62 216.036 4142.47 209.408 4141.04 203L4092.24 213.89L4043.44 224.781Z" fill="black"/>
<path d="M3506.28 325.245L3531.08 320.238L3600.47 620L3561.7 650L3506.28 325.245Z" fill="white" stroke="black" stroke-width="3"/>
<path d="M3599.83 621.667L3561.7 650C3561.7 650 3540.73 645.648 3534.84 637.514C3528.84 629.22 3525.35 618.58 3532.63 611.391C3538.12 605.983 3549.71 609.856 3549.71 609.856C3549.71 609.856 3548 596.206 3553.82 592.128C3559.71 588.006 3572.07 594.518 3572.07 594.518C3572.07 594.518 3573.14 585.745 3577.07 582.553C3580.4 579.853 3583.43 578.823 3587.64 579.62C3592.85 580.607 3598.7 590.58 3598.7 590.58C3598.7 590.58 3603.16 599.164 3603.29 606.27C3603.41 612.127 3599.83 621.667 3599.83 621.667Z" fill="#693875" stroke="black" stroke-width="3"/>
<path d="M3559.11 332.35L3618.54 341.532C3618.54 341.532 3482.75 380.946 3466.7 409.5C3450.65 438.054 3477.7 517 3477.7 517L3432.2 517C3432.2 517 3418.95 447.255 3432.2 405C3445.46 362.745 3541.68 334.384 3559.11 332.35Z" fill="white" stroke="black" stroke-width="3"/>
<path d="M3432.2 517L3477.7 517C3477.7 517 3482.03 527.648 3482.81 537.659C3483.6 547.865 3480.41 557.754 3470.46 560.076C3462.97 561.823 3465.69 544.155 3465.69 544.155C3465.69 544.155 3449.41 563.971 3442.33 564.407C3435.17 564.848 3437.73 549.471 3437.73 549.471C3437.73 549.471 3425.98 560.31 3420.97 560.978C3416.73 561.543 3410.19 557.251 3410.19 557.251C3410.19 557.251 3405.76 551.939 3406.91 544.117C3407.99 536.817 3411.87 532.775 3417.33 528.12C3421.78 524.323 3432.2 517 3432.2 517Z" fill="#693875" stroke="black" stroke-width="3"/>
<path fill-rule="evenodd" clip-rule="evenodd" d="M3825.63 342.73C3825.63 342.73 3825.57 343.466 3825.45 344.682C3825.15 343.604 3825.19 342.843 3825.63 342.73Z" fill="#693875"/>
<path d="M3802.68 325.579L3834.35 286.887C3838.25 285.444 3853.15 298.084 3854.52 299.236C3855.89 300.387 3864.45 312.424 3864.07 318.446C3863.78 323.002 3862.69 328.362 3859.43 331.4C3855.08 335.46 3847.86 331.6 3845.87 327.564C3848.28 332.563 3847.3 349.465 3838.78 353.293C3831.8 356.428 3826.49 348.535 3825.45 344.684L3825.45 344.682C3825.57 343.466 3825.63 342.73 3825.63 342.73C3825.19 342.843 3825.15 343.604 3825.45 344.682L3825.45 344.684C3824.92 349.637 3823.09 362.546 3818.09 366.182C3807.03 374.229 3799.05 360.025 3798.95 348.885C3798.87 338.846 3802.68 325.579 3802.68 325.579Z" fill="#693875"/>
<path d="M3825.45 344.684L3825.45 344.682M3825.45 344.684C3826.49 348.535 3831.8 356.428 3838.78 353.293C3847.3 349.465 3848.28 332.563 3845.87 327.564C3847.86 331.6 3855.08 335.46 3859.43 331.4C3862.69 328.362 3863.78 323.002 3864.07 318.446C3864.45 312.424 3855.89 300.387 3854.52 299.236C3853.15 298.084 3838.25 285.444 3834.35 286.887L3802.68 325.579C3802.68 325.579 3798.87 338.846 3798.95 348.885C3799.05 360.025 3807.03 374.229 3818.09 366.182C3823.09 362.546 3824.92 349.637 3825.45 344.684ZM3825.45 344.682C3825.15 343.604 3825.19 342.843 3825.63 342.73C3825.63 342.73 3825.57 343.466 3825.45 344.682Z" stroke="black" stroke-width="3"/>
<path d="M3694.07 241.543C3603.82 268.416 3608.82 297.243 3607.28 302.63C3607.28 302.63 3616.27 337.252 3619.08 325.546C3621.9 313.84 3653.45 286.322 3715.91 275.085C3778.36 263.849 3802.76 326.249 3802.69 325.546L3834.36 286.875C3835.06 286.797 3784.55 214.601 3694.07 241.543Z" fill="white" stroke="black" stroke-width="3"/>
<path d="M3359.74 404.628L3345.22 356.926C3345.22 356.926 3333.25 351.001 3323.34 349.339C3313.66 347.714 3299.89 352.007 3300.81 362.204C3301.5 369.875 3318.51 376.318 3318.51 376.318C3318.51 376.318 3303.18 382.08 3304.99 388.954C3306.82 395.902 3326.34 404.778 3326.34 404.778C3326.34 404.778 3314.46 407.209 3315.4 412.187C3316.2 416.395 3316.88 418.527 3320.6 420.637C3325.22 423.251 3336.89 423.486 3336.89 423.486C3336.89 423.486 3348.27 423.345 3352.96 418.011C3356.83 413.614 3359.74 404.628 3359.74 404.628Z" fill="#693875" stroke="black" stroke-width="3"/>
<path d="M3460.99 296.132C3500.62 207.795 3522.54 186.014 3522.54 186.014L3474.8 200.597C3481.92 203.412 3444.51 234.155 3408.05 300.429C3371.59 366.703 3340.48 356.476 3345.62 358.065L3359.93 404.56C3366.33 413.788 3421.68 383.747 3460.99 296.132Z" fill="white" stroke="black" stroke-width="3"/>
<path d="M3729.91 174.63C3723.79 219.154 3682.68 250.279 3638.09 244.149C3593.5 238.02 3562.51 205.522 3568.63 160.997C3574.75 116.473 3615.66 76.7833 3660.25 82.9131C3704.84 89.0429 3736.03 130.106 3729.91 174.63Z" fill="white" stroke="black" stroke-width="3"/>
<path d="M3691.16 169.304C3687.97 192.522 3666.54 208.753 3643.28 205.557C3620.03 202.36 3603.77 180.947 3606.96 157.729C3610.15 134.51 3631.58 118.28 3654.84 121.476C3678.09 124.673 3694.35 146.086 3691.16 169.304Z" fill="#693875" stroke="black" stroke-width="3"/>
<path d="M3579.23 139.645C3573.11 184.169 3532.01 215.294 3487.41 209.164C3442.82 203.034 3411.84 170.536 3417.96 126.012C3424.07 81.488 3464.98 41.7981 3509.57 47.9279C3554.16 54.0577 3585.35 95.1208 3579.23 139.645Z" fill="white" stroke="black" stroke-width="3"/>
<path d="M3540.49 134.319C3537.3 157.537 3515.86 173.768 3492.61 170.571C3469.36 167.375 3453.09 145.962 3456.28 122.743C3459.47 99.5253 3480.91 83.2945 3504.16 86.491C3527.42 89.6876 3543.68 111.101 3540.49 134.319Z" fill="#693875" stroke="black" stroke-width="3"/>
<path d="M3417.85 125.954L3730.91 168.986L3709.16 327.255C3707.28 340.912 3694.67 350.46 3680.99 348.58L3417.47 312.356C3403.79 310.476 3394.22 297.88 3396.1 284.222L3417.85 125.954Z" fill="white" stroke="black" stroke-width="3"/>
<path d="M3417.26 166.187C3419.14 152.53 3431.75 142.982 3445.43 144.862L3661.39 174.549C3675.07 176.429 3684.64 189.025 3682.76 202.683L3668.35 307.536C3666.47 321.193 3653.86 330.741 3640.19 328.861L3424.22 299.174C3410.54 297.294 3400.97 284.698 3402.85 271.04L3417.26 166.187Z" fill="black" stroke="black" stroke-width="3"/>
<rect width="99.9993" height="99.8471" transform="matrix(0.990684 0.136179 -0.136152 0.990688 3434.68 171.607)" stroke="black" stroke-width="3"/>
<path d="M3517.05 233.321C3513.29 260.637 3488.07 279.732 3460.72 275.971C3433.36 272.211 3414.23 247.019 3417.98 219.704C3421.73 192.388 3446.95 173.293 3474.31 177.054C3501.67 180.814 3520.8 206.006 3517.05 233.321Z" fill="white"/>
<path d="M3505.16 231.687C3502.31 252.447 3483.14 266.959 3462.35 264.101C3441.56 261.243 3427.02 242.097 3429.87 221.338C3432.72 200.578 3451.89 186.066 3472.68 188.924C3493.47 191.782 3508.01 210.928 3505.16 231.687Z" fill="black"/>
<path d="M3408.94 250.339C3415.26 252.101 3421.87 252.599 3428.39 251.806C3434.91 251.012 3441.21 248.943 3446.93 245.716C3452.64 242.489 3457.67 238.167 3461.72 232.997C3465.77 227.827 3468.76 221.91 3470.52 215.585C3472.28 209.26 3472.78 202.649 3471.99 196.131C3471.19 189.613 3469.12 183.315 3465.9 177.597C3462.67 171.879 3458.35 166.852 3453.18 162.804C3448.01 158.756 3442.09 155.766 3435.76 154.005L3422.35 202.172L3408.94 250.339Z" fill="black"/>
<rect width="99.9993" height="99.8471" transform="matrix(0.990684 0.136179 -0.136152 0.990688 3565.46 189.582)" stroke="black" stroke-width="3"/>
<path d="M3636.92 249.798C3633.17 277.114 3607.95 296.209 3580.59 292.448C3553.23 288.688 3534.1 263.496 3537.85 236.181C3541.61 208.865 3566.83 189.77 3594.18 193.531C3621.54 197.291 3640.67 222.483 3636.92 249.798Z" fill="white"/>
<path d="M3625.03 248.164C3622.18 268.924 3603.01 283.436 3582.22 280.578C3561.43 277.72 3546.89 258.574 3549.74 237.815C3552.59 217.055 3571.76 202.543 3592.55 205.401C3613.34 208.259 3627.89 227.405 3625.03 248.164Z" fill="black"/>
<path d="M3531.7 268.429C3538.16 269.589 3544.79 269.464 3551.21 268.061C3557.62 266.659 3563.7 264.007 3569.09 260.257C3574.48 256.507 3579.08 251.732 3582.62 246.204C3586.16 240.677 3588.58 234.506 3589.74 228.043C3590.9 221.58 3590.78 214.952 3589.38 208.537C3587.97 202.123 3585.32 196.047 3581.57 190.657C3577.82 185.267 3573.05 180.669 3567.52 177.125C3561.99 173.581 3555.82 171.16 3549.36 170L3540.53 219.215L3531.7 268.429Z" fill="black"/>
<path d="M3550.62 181C3550.1 187.546 3550.88 194.129 3552.91 200.374C3554.94 206.618 3558.18 212.402 3562.45 217.395C3566.71 222.387 3571.92 226.491 3577.77 229.471C3583.62 232.451 3590 234.25 3596.55 234.765C3603.09 235.279 3609.68 234.499 3615.92 232.47C3622.16 230.44 3627.95 227.2 3632.94 222.936C3637.93 218.671 3642.04 213.464 3645.02 207.614C3648 201.763 3649.8 195.383 3650.31 188.837L3600.46 184.918L3550.62 181Z" fill="black"/>
<path d="M3634 306.498C3635.21 300.044 3635.13 293.415 3633.77 286.991C3632.41 280.566 3629.81 274.472 3626.09 269.056C3622.38 263.64 3617.64 259.009 3612.14 255.426C3606.63 251.843 3600.48 249.378 3594.02 248.174C3587.57 246.969 3580.94 247.047 3574.52 248.405C3568.09 249.762 3562 252.371 3556.58 256.083C3551.17 259.795 3546.54 264.538 3542.95 270.041C3539.37 275.543 3536.9 281.697 3535.7 288.152L3584.85 297.325L3634 306.498Z" fill="black"/>
<path d="M2849.71 354.118L2875.22 346.947L2928.42 650L2882.42 650L2849.71 354.118Z" fill="white" stroke="black" stroke-width="3"/>
<path d="M2928.42 650H2882.42C2882.42 650 2865.89 637.451 2865.46 627.418C2865.02 617.19 2867.97 606.384 2878.01 604.402C2885.57 602.91 2893.1 612.527 2893.1 612.527C2893.1 612.527 2899.2 600.197 2906.31 600.002C2913.49 599.805 2920.21 612.049 2920.21 612.049C2920.21 612.049 2925.94 605.32 2930.99 604.823C2935.25 604.402 2938.35 605.214 2941.42 608.198C2945.22 611.893 2944.61 623.439 2944.61 623.439C2944.61 623.439 2943.6 633.056 2939.8 639.062C2936.66 644.013 2928.42 650 2928.42 650Z" fill="#693875" stroke="black" stroke-width="3"/>
<path d="M2900.42 361.969L2960.42 366C2960.42 366 2875.92 389.5 2875.92 417.5C2875.92 445.5 2961.39 519.048 2966.42 511L2930.92 540C2930.92 540 2845.42 465 2845.42 424C2845.42 383 2883.23 365.496 2900.42 361.969Z" fill="white" stroke="black" stroke-width="3"/>
<path d="M2930.65 540.877L2967.14 510.411C2967.14 510.411 2977.01 515.639 2984.1 522.75C2991.33 529.999 2995.32 539.59 2989.25 547.818C2984.69 554.008 2975.29 538.802 2975.29 538.802C2975.29 538.802 2975.77 564.441 2970.67 569.371C2965.5 574.354 2957.47 560.995 2957.47 560.995C2957.47 560.995 2955.57 576.865 2952.19 580.628C2949.33 583.808 2941.57 584.786 2941.57 584.786C2941.57 584.786 2934.76 583.621 2930.56 576.921C2926.64 570.669 2926.97 565.077 2928.1 557.992C2929.02 552.215 2930.65 540.877 2930.65 540.877Z" fill="#693875" stroke="black" stroke-width="3"/>
<path fill-rule="evenodd" clip-rule="evenodd" d="M3177.38 328.249C3177.38 328.249 3177.33 328.985 3177.2 330.202C3176.91 329.124 3176.95 328.362 3177.38 328.249Z" fill="#693875"/>
<path d="M3154.43 311.098L3186.1 272.407C3190.01 270.964 3204.9 283.604 3206.27 284.755C3207.64 285.907 3216.2 297.944 3215.82 303.966C3215.53 308.522 3214.44 313.882 3211.19 316.92C3206.84 320.979 3199.61 317.12 3197.63 313.083C3200.03 318.083 3199.05 334.984 3190.53 338.813C3183.55 341.948 3178.25 334.055 3177.2 330.203L3177.2 330.202C3177.33 328.985 3177.38 328.249 3177.38 328.249C3176.95 328.362 3176.91 329.124 3177.2 330.202L3177.2 330.203C3176.67 335.156 3174.85 348.066 3169.85 351.702C3158.78 359.749 3150.81 345.545 3150.71 334.404C3150.62 324.366 3154.43 311.098 3154.43 311.098Z" fill="#693875"/>
<path d="M3177.2 330.203L3177.2 330.202M3177.2 330.203C3178.25 334.055 3183.55 341.948 3190.53 338.813C3199.05 334.984 3200.03 318.083 3197.63 313.083C3199.61 317.12 3206.84 320.979 3211.19 316.92C3214.44 313.882 3215.53 308.522 3215.82 303.966C3216.2 297.944 3207.64 285.907 3206.27 284.755C3204.9 283.604 3190.01 270.964 3186.1 272.407L3154.43 311.098C3154.43 311.098 3150.62 324.366 3150.71 334.404C3150.81 345.545 3158.78 359.749 3169.85 351.702C3174.85 348.066 3176.67 335.156 3177.2 330.203ZM3177.2 330.202C3176.91 329.124 3176.95 328.362 3177.38 328.249C3177.38 328.249 3177.33 328.985 3177.2 330.202Z" stroke="black" stroke-width="3"/>
<path d="M3045.82 227.062C2955.57 253.936 2960.58 282.762 2959.03 288.149C2959.03 288.149 2968.02 322.772 2970.84 311.066C2973.65 299.36 3005.21 271.842 3067.66 260.605C3130.12 249.368 3154.52 311.768 3154.44 311.066L3186.12 272.394C3186.82 272.317 3136.3 200.121 3045.82 227.062Z" fill="white" stroke="black" stroke-width="3"/>
<path fill-rule="evenodd" clip-rule="evenodd" d="M2720.62 502.46C2720.62 502.46 2721.19 502.926 2722.17 503.664C2721.58 502.712 2721 502.222 2720.62 502.46Z" fill="#693875"/>
<path d="M2723.81 473.987L2673.92 470.623C2670.2 472.482 2669.22 491.994 2669.13 493.781C2669.03 495.568 2671.96 510.042 2676.61 513.885C2680.13 516.792 2684.79 519.663 2689.23 519.368C2695.16 518.973 2697.29 511.061 2695.71 506.853C2697.71 512.027 2710.7 522.876 2719.33 519.279C2726.39 516.333 2724.26 507.063 2722.17 503.665L2722.17 503.664C2721.19 502.926 2720.62 502.46 2720.62 502.46C2721 502.222 2721.58 502.712 2722.17 503.664L2722.17 503.665C2726.14 506.669 2736.81 514.168 2742.88 513.01C2756.31 510.445 2751.41 494.908 2743.35 487.216C2736.09 480.285 2723.81 473.987 2723.81 473.987Z" fill="#693875"/>
<path d="M2722.17 503.665L2722.17 503.664M2722.17 503.665C2724.26 507.063 2726.39 516.333 2719.33 519.279C2710.7 522.876 2697.71 512.027 2695.71 506.853C2697.29 511.061 2695.16 518.973 2689.23 519.368C2684.79 519.663 2680.13 516.792 2676.61 513.885C2671.96 510.042 2669.03 495.568 2669.13 493.781C2669.22 491.994 2670.2 472.482 2673.92 470.623L2723.81 473.987C2723.81 473.987 2736.09 480.285 2743.35 487.216C2751.41 494.908 2756.31 510.445 2742.88 513.01C2736.81 514.168 2726.14 506.669 2722.17 503.665ZM2722.17 503.664C2721.58 502.712 2721 502.222 2720.62 502.46C2720.62 502.46 2721.19 502.926 2722.17 503.664Z" stroke="black" stroke-width="3"/>
<path d="M2736.81 337.279C2818.15 289.834 2835.75 313.207 2840.74 315.764C2840.74 315.764 2856.21 347.831 2845.75 341.879C2835.28 335.926 2793.62 340.116 2742.7 377.983C2691.78 415.851 2724.24 474.509 2723.78 473.973L2673.9 470.621C2673.36 471.081 2655.26 384.845 2736.81 337.279Z" fill="white" stroke="black" stroke-width="3"/>
<path d="M2912.65 170.333C2910.38 215.219 2872.11 249.767 2827.15 247.499C2782.2 245.231 2748.53 215.521 2750.79 170.635C2753.06 125.75 2790.4 82.6855 2835.35 84.9536C2880.3 87.2217 2914.91 125.447 2912.65 170.333Z" fill="white" stroke="black" stroke-width="3"/>
<path d="M2873.59 168.362C2872.41 191.769 2852.45 209.785 2829.01 208.602C2805.56 207.419 2787.52 187.486 2788.7 164.079C2789.88 140.673 2809.84 122.657 2833.28 123.839C2856.72 125.022 2874.77 144.956 2873.59 168.362Z" fill="#693875" stroke="black" stroke-width="3"/>
<path d="M3066.25 187.686C3063.99 232.572 3024.73 281.92 2979.77 279.652C2934.82 277.384 2900.21 239.158 2902.47 194.273C2904.74 149.387 2943.01 114.839 2987.97 117.107C3032.92 119.375 3068.52 142.801 3066.25 187.686Z" fill="white" stroke="black" stroke-width="3"/>
<path d="M3026.17 200.996C3024.99 224.402 3005.03 242.418 2981.59 241.236C2958.15 240.053 2940.1 220.119 2941.28 196.713C2942.46 173.306 2962.42 155.29 2985.87 156.473C3009.31 157.655 3027.35 177.589 3026.17 200.996Z" fill="#693875" stroke="black" stroke-width="3"/>
<path d="M2750.72 170.106L3066.32 186.027L3058.27 345.581C3057.58 359.349 3045.84 369.947 3032.05 369.251L2766.39 355.849C2752.6 355.153 2741.98 343.428 2742.67 329.659L2750.72 170.106Z" fill="white" stroke="black" stroke-width="3"/>
<path d="M2753.56 210.721C2754.25 196.953 2766 186.355 2779.79 187.051L2997.51 198.034C3011.3 198.73 3021.91 210.455 3021.22 224.224L3015.89 329.928C3015.19 343.697 3003.45 354.294 2989.66 353.599L2771.94 342.615C2758.15 341.919 2747.54 330.194 2748.23 316.425L2753.56 210.721Z" fill="black" stroke="black" stroke-width="3"/>
<rect width="99.9993" height="99.8471" transform="matrix(0.99873 0.0503838 -0.0503571 0.998731 2771.39 214.62)" stroke="black" stroke-width="3"/>
<path d="M2858.76 269.015C2857.37 296.552 2833.89 317.747 2806.31 316.356C2778.73 314.965 2757.5 291.514 2758.89 263.977C2760.27 236.44 2783.76 215.244 2811.34 216.636C2838.91 218.027 2860.15 241.478 2858.76 269.015Z" fill="white"/>
<path d="M2846.77 268.411C2845.72 289.339 2827.87 305.447 2806.91 304.39C2785.95 303.332 2769.82 285.51 2770.87 264.581C2771.93 243.653 2789.77 227.545 2810.73 228.602C2831.69 229.66 2847.83 247.482 2846.77 268.411Z" fill="black"/>
<rect width="99.9993" height="99.8471" transform="matrix(0.99873 0.0503838 -0.0503571 0.998731 2903.22 221.27)" stroke="black" stroke-width="3"/>
<path d="M2979.6 275.111C2978.21 302.648 2954.73 323.843 2927.15 322.452C2899.57 321.06 2878.34 297.609 2879.73 270.072C2881.12 242.535 2904.6 221.34 2932.18 222.731C2959.76 224.123 2980.99 247.574 2979.6 275.111Z" fill="white"/>
<path d="M2967.62 274.506C2966.56 295.434 2948.72 311.543 2927.76 310.485C2906.8 309.428 2890.66 291.605 2891.72 270.677C2892.77 249.749 2910.62 233.64 2931.58 234.698C2952.54 235.755 2968.67 253.578 2967.62 274.506Z" fill="black"/>
<path d="M2872.9 322.63C2879.46 322.237 2885.87 320.557 2891.77 317.685C2897.68 314.813 2902.96 310.807 2907.32 305.894C2911.67 300.982 2915.02 295.259 2917.16 289.053C2919.31 282.847 2920.21 276.28 2919.82 269.725C2919.42 263.171 2917.74 256.758 2914.87 250.853C2912 244.948 2907.99 239.667 2903.08 235.311C2898.17 230.954 2892.45 227.608 2886.24 225.463C2880.03 223.318 2873.47 222.417 2866.91 222.81L2869.91 272.72L2872.9 322.63Z" fill="black"/>
<path d="M2893.33 213C2892.82 219.546 2893.6 226.129 2895.63 232.373C2897.66 238.618 2900.9 244.402 2905.16 249.394C2909.43 254.387 2914.64 258.49 2920.49 261.471C2926.34 264.451 2932.72 266.25 2939.26 266.764C2945.81 267.279 2952.39 266.499 2958.64 264.469C2964.88 262.44 2970.66 259.2 2975.66 254.935C2980.65 250.67 2984.75 245.464 2987.73 239.613C2990.71 233.763 2992.51 227.382 2993.03 220.836L2943.18 216.918L2893.33 213Z" fill="black"/>
<path d="M2213.63 358.191L2253.34 349.675C2254.87 340.942 2247.46 416.405 2298.22 443.037C2348.97 469.67 2381.48 413.329 2385.05 418.499C2385.05 418.499 2411.53 458.112 2413.55 454.998C2415.57 451.885 2333.72 519.369 2279.55 479.499C2225.38 439.628 2231.36 405.798 2213.63 358.191Z" fill="white" stroke="black" stroke-width="3"/>
<path d="M2385.53 416.414L2413.21 455.066C2413.21 455.066 2407.26 464.517 2399.64 471.06C2391.88 477.731 2382.02 481.003 2374.26 474.344C2368.43 469.334 2384.29 461.088 2384.29 461.088C2384.29 461.088 2358.68 459.666 2354.15 454.208C2349.56 448.691 2363.48 441.671 2363.48 441.671C2363.48 441.671 2347.79 438.598 2344.29 434.948C2341.33 431.862 2340.93 424.053 2340.93 424.053C2340.93 424.053 2342.6 417.339 2349.59 413.649C2356.12 410.205 2361.67 410.946 2368.65 412.599C2374.34 413.947 2385.53 416.414 2385.53 416.414Z" fill="#693875" stroke="black" stroke-width="3"/>
<path d="M2068 351.184C2112.15 330.741 2130.05 334.719 2130.05 334.719L2140.48 282.118C2119.42 288.81 2025.31 325.61 1998.17 352.01C1971.02 378.411 1988.71 437.047 1994.65 439.185L2035.11 420.534C2035.11 420.534 2003.5 381.054 2068 351.184Z" fill="white" stroke="black" stroke-width="3"/>
<path d="M2035.4 419.585L1993.91 439.019C1993.91 439.019 1998 452.053 2004.28 459.885C2011.72 469.155 2021.93 475.253 2031.48 471.554C2040.91 467.9 2030.58 453.778 2028.59 455.487C2029.65 456.835 2047.14 461.768 2051.66 456.358C2056.27 450.845 2050.72 444.548 2050.72 444.548C2050.72 444.548 2058.73 445.257 2066.86 438.329C2075 431.401 2061.56 422.418 2061.56 422.418C2061.56 422.418 2052.49 419.04 2046.13 419.038C2040.27 419.037 2035.4 419.585 2035.4 419.585Z" fill="#693875" stroke="black" stroke-width="3"/>
<path d="M2193.03 392L2219.03 392C2219.03 392 2200.1 406.439 2193.03 440C2182.39 524.998 2193.14 570.344 2201.53 650L2152.53 650C2157.78 567.155 2156.64 470.172 2163.53 440C2170.42 409.828 2193.03 392 2193.03 392Z" fill="white" stroke="black" stroke-width="3"/>
<path d="M2201.53 650L2152.53 650C2152.53 650 2139 637.451 2138.57 627.418C2138.13 617.19 2141.08 606.384 2151.12 604.402C2158.68 602.91 2166.21 612.527 2166.21 612.527C2166.21 612.527 2172.31 600.197 2179.42 600.002C2186.6 599.805 2193.33 612.049 2193.33 612.049C2193.33 612.049 2199.06 605.32 2204.1 604.823C2208.36 604.402 2211.46 605.214 2214.53 608.198C2218.34 611.893 2217.72 623.439 2217.72 623.439C2217.72 623.439 2216.71 633.056 2212.91 639.062C2209.78 644.013 2201.53 650 2201.53 650Z" fill="#693875" stroke="black" stroke-width="3"/>
<path d="M2439.43 329.093C2383.43 250.119 2353.83 234.908 2353.83 234.908L2355.44 285.096C2344.65 294.318 2414.93 396.836 2460.24 403.244C2505.55 409.652 2537.26 380.859 2537.26 380.859C2537.26 380.859 2511.75 350.209 2509.81 345.302C2507.87 340.394 2482.21 389.422 2439.43 329.093Z" fill="white" stroke="black" stroke-width="3"/>
<path d="M2509.99 345.358L2537.28 380.849C2537.28 380.849 2549.94 374.644 2556.17 366.791C2563.54 357.497 2565.25 345.532 2559.53 337.045C2553.87 328.657 2546.22 344.332 2548.33 345.888C2549.4 344.558 2548.47 324.615 2542.19 321.401C2535.8 318.127 2530.9 324.917 2530.9 324.917C2530.9 324.917 2529.81 316.959 2521.25 310.562C2512.69 304.164 2506.93 319.238 2506.93 319.238C2506.93 319.238 2506.22 328.82 2507.63 335.022C2508.93 340.73 2509.99 345.358 2509.99 345.358Z" fill="#693875" stroke="black" stroke-width="3"/>
<path d="M2235.68 236.653C2240.97 281.283 2209.03 321.758 2164.33 327.056C2119.63 332.355 2080.88 281.283 2075.59 236.653C2070.3 192.023 2100.47 170.735 2145.17 165.437C2189.86 160.138 2230.39 192.023 2235.68 236.653Z" fill="white" stroke="black" stroke-width="3"/>
<path d="M2196.84 241.256C2199.6 264.53 2182.95 285.636 2159.64 288.399C2136.33 291.162 2115.2 274.536 2112.44 251.262C2109.68 227.989 2126.33 206.882 2149.64 204.119C2172.95 201.356 2194.08 217.983 2196.84 241.256Z" fill="#693875" stroke="black" stroke-width="3"/>
<circle cx="2308.43" cy="205.555" r="81.5" fill="white" stroke="black" stroke-width="3"/>
<circle cx="2308.33" cy="205.555" r="42.5" fill="#693875" stroke="black" stroke-width="3"/>
<path d="M2076.02 235.108L2389.82 197.907L2408.63 356.552C2410.25 370.242 2400.46 382.658 2386.74 384.283L2122.6 415.597C2108.88 417.223 2096.45 407.442 2094.83 393.752L2076.02 235.108Z" fill="white" stroke="black" stroke-width="3"/>
<path d="M2085.58 274.193C2083.95 260.503 2093.75 248.087 2107.46 246.462L2323.95 220.798C2337.66 219.173 2350.09 228.953 2351.71 242.643L2364.18 347.745C2365.8 361.436 2356 373.851 2342.29 375.477L2125.81 401.14C2112.09 402.766 2099.66 392.985 2098.04 379.295L2085.58 274.193Z" fill="black" stroke="black" stroke-width="3"/>
<rect width="99.9993" height="99.8471" transform="matrix(0.993046 -0.117723 0.11775 0.993043 2103.81 275.049)" stroke="black" stroke-width="3"/>
<path d="M2199.06 314.031C2202.3 341.411 2182.71 366.242 2155.28 369.493C2127.86 372.744 2103 353.183 2099.75 325.803C2096.51 298.423 2116.1 273.591 2143.53 270.34C2170.95 267.09 2195.81 286.65 2199.06 314.031Z" fill="white"/>
<path d="M2187.14 315.443C2189.61 336.252 2174.71 355.124 2153.87 357.595C2133.03 360.065 2114.14 345.199 2111.67 324.39C2109.2 303.581 2124.1 284.709 2144.94 282.239C2165.78 279.768 2184.67 294.634 2187.14 315.443Z" fill="black"/>
<path d="M2111.08 387.741C2117.51 386.419 2123.62 383.844 2129.06 380.161C2134.49 376.479 2139.15 371.762 2142.77 366.279C2146.38 360.797 2148.88 354.656 2150.12 348.208C2151.36 341.76 2151.31 335.131 2149.99 328.699C2148.67 322.268 2146.1 316.159 2142.41 310.723C2138.73 305.287 2134.01 300.629 2128.53 297.016C2123.05 293.403 2116.91 290.905 2110.46 289.664C2104.01 288.424 2097.38 288.466 2090.95 289.788L2101.02 338.765L2111.08 387.741Z" fill="black"/>
<rect width="99.9993" height="99.8471" transform="matrix(0.993046 -0.117723 0.11775 0.993043 2234.89 259.509)" stroke="black" stroke-width="3"/>
<path d="M2319.22 299.785C2322.46 327.165 2302.87 351.997 2275.44 355.247C2248.02 358.498 2223.16 338.937 2219.91 311.557C2216.67 284.177 2236.26 259.346 2263.69 256.095C2291.11 252.844 2315.97 272.405 2319.22 299.785Z" fill="white"/>
<path d="M2307.3 301.198C2309.77 322.007 2294.87 340.878 2274.03 343.349C2253.19 345.82 2234.3 330.954 2231.83 310.145C2229.36 289.336 2244.26 270.464 2265.1 267.993C2285.94 265.523 2304.83 280.389 2307.3 301.198Z" fill="black"/>
<path d="M2212.52 260.089C2213.31 266.607 2215.38 272.905 2218.61 278.623C2221.84 284.341 2226.16 289.367 2231.33 293.414C2236.5 297.462 2242.42 300.452 2248.75 302.212C2255.07 303.973 2261.68 304.471 2268.2 303.677C2274.72 302.883 2281.01 300.813 2286.73 297.586C2292.45 294.358 2297.48 290.035 2301.52 284.865C2305.57 279.695 2308.56 273.778 2310.32 267.453C2312.08 261.127 2312.58 254.517 2311.79 247.999L2262.15 254.044L2212.52 260.089Z" fill="black"/>
<path d="M1652.82 369.041L1627.59 360.953L1600.53 423.738L1561.91 650.874L1623.15 618.905L1627.59 429.499L1652.82 369.041Z" fill="white" stroke="black" stroke-width="3" stroke-linecap="round" stroke-linejoin="round"/>
<path d="M1623.1 619.796L1562.17 650.812C1562.17 650.812 1550.51 645.259 1548.8 635.363C1547.06 625.275 1549.33 617.504 1557.54 611.385C1564.05 606.529 1577.42 604.537 1578.04 606.404C1578.04 606.404 1582.72 593.928 1589.74 592.828C1596.84 591.715 1605.16 600.397 1605.16 600.397C1608.2 592.854 1613.4 587.81 1613.4 587.81C1616.43 583.005 1635.48 576.765 1635.72 590.239C1635.72 590.239 1636.09 599.05 1633.09 605.492C1630.61 610.802 1623.1 619.796 1623.1 619.796Z" fill="#693875" stroke="black" stroke-width="3"/>
<path d="M1661.31 361.67L1701.02 353.154C1702.54 344.421 1695.14 419.884 1745.89 446.516C1796.65 473.149 1829.16 416.808 1832.73 421.978C1832.73 421.978 1859.21 461.591 1861.23 458.477C1863.25 455.364 1781.4 522.848 1727.23 482.978C1673.06 443.107 1679.04 409.277 1661.31 361.67Z" fill="white" stroke="black" stroke-width="3"/>
<path d="M1833.21 419.892L1860.88 458.544C1860.88 458.544 1854.94 467.995 1847.32 474.539C1839.56 481.21 1829.69 484.482 1821.94 477.822C1816.1 472.812 1831.97 464.566 1831.97 464.566C1831.97 464.566 1806.36 463.144 1801.82 457.687C1797.24 452.17 1811.16 445.15 1811.16 445.15C1811.16 445.15 1795.47 442.077 1791.97 438.427C1789.01 435.341 1788.61 427.532 1788.61 427.532C1788.61 427.532 1790.28 420.817 1797.27 417.127C1803.8 413.684 1809.35 414.425 1816.33 416.078C1822.02 417.426 1833.21 419.892 1833.21 419.892Z" fill="#693875" stroke="black" stroke-width="3"/>
<path fill-rule="evenodd" clip-rule="evenodd" d="M1912.41 465.619C1912.41 465.619 1913.13 465.449 1914.31 465.126C1913.2 465.011 1912.45 465.174 1912.41 465.619Z" fill="#693875"/>
<path d="M1891.78 445.739L1858.71 483.246C1857.91 487.33 1872.79 499.991 1874.15 501.157C1875.51 502.323 1888.77 508.822 1894.65 507.475C1899.1 506.455 1904.21 504.513 1906.69 500.811C1909.99 495.865 1905.02 489.355 1900.71 488.05C1906.03 489.615 1922.56 485.921 1924.96 476.893C1926.93 469.499 1918.28 465.537 1914.31 465.126L1914.31 465.126C1913.13 465.449 1912.41 465.619 1912.41 465.619C1912.45 465.174 1913.2 465.011 1914.31 465.126L1914.31 465.126C1919.11 463.807 1931.56 459.92 1934.34 454.4C1940.49 442.183 1925.19 436.601 1914.18 438.304C1904.26 439.837 1891.78 445.739 1891.78 445.739Z" fill="#693875"/>
<path d="M1914.31 465.126L1914.31 465.126M1914.31 465.126C1918.28 465.537 1926.93 469.499 1924.96 476.893C1922.56 485.921 1906.03 489.615 1900.71 488.05C1905.02 489.355 1909.99 495.865 1906.69 500.811C1904.21 504.513 1899.1 506.455 1894.65 507.475C1888.77 508.822 1875.51 502.323 1874.15 501.157C1872.79 499.991 1857.91 487.33 1858.71 483.246L1891.78 445.739C1891.78 445.739 1904.26 439.837 1914.18 438.304C1925.19 436.601 1940.49 442.183 1934.34 454.4C1931.56 459.92 1919.11 463.807 1914.31 465.126ZM1914.31 465.126C1913.2 465.011 1912.45 465.174 1912.41 465.619C1912.41 465.619 1913.13 465.449 1914.31 465.126Z" stroke="black" stroke-width="3"/>
<path d="M1816.78 374.498C1822.53 292.838 1790.1 281.451 1811.98 268.552C1811.98 268.552 1813.78 220.998 1821.28 236.998C1828.78 252.998 1867.75 296.477 1858.7 364.3C1849.64 432.123 1887.41 448.454 1891.75 445.756L1858.7 483.258C1858.7 489.3 1812.02 442.092 1816.78 374.498Z" fill="white" stroke="black" stroke-width="3"/>
<path d="M1474.76 326.184C1518.91 305.741 1536.81 309.718 1536.81 309.718L1547.24 257.118C1526.18 263.81 1432.07 300.609 1404.92 327.01C1377.78 353.411 1395.47 412.047 1401.41 414.185L1441.86 395.534C1441.86 395.534 1410.26 356.054 1474.76 326.184Z" fill="white" stroke="black" stroke-width="3"/>
<path d="M1442.16 394.585L1400.66 414.019C1400.66 414.019 1404.75 427.053 1411.04 434.885C1418.48 444.155 1428.69 450.252 1438.24 446.554C1447.67 442.899 1437.33 428.778 1435.35 430.487C1436.41 431.835 1453.89 436.768 1458.41 431.357C1463.02 425.845 1457.48 419.548 1457.48 419.548C1457.48 419.548 1465.49 420.257 1473.62 413.329C1481.75 406.4 1468.32 397.418 1468.32 397.418C1468.32 397.418 1459.25 394.039 1452.88 394.038C1447.03 394.037 1442.16 394.585 1442.16 394.585Z" fill="#693875" stroke="black" stroke-width="3"/>
<path d="M1815.17 156.316C1820.13 201.052 1787.9 241.345 1743.16 246.311C1698.42 251.278 1660.42 227.307 1655.46 182.571C1650.49 137.834 1680.44 89.2736 1725.17 84.3068C1769.91 79.34 1810.2 111.58 1815.17 156.316Z" fill="white" stroke="black" stroke-width="3"/>
<path d="M1776.3 160.631C1778.89 183.96 1762.08 204.971 1738.75 207.561C1715.42 210.152 1694.41 193.339 1691.82 170.011C1689.23 146.682 1706.04 125.671 1729.37 123.081C1752.7 120.49 1773.71 137.303 1776.3 160.631Z" fill="#693875" stroke="black" stroke-width="3"/>
<path d="M1661.88 171.237C1666.85 215.974 1636.01 271.056 1591.27 276.022C1546.53 280.989 1506.24 248.75 1501.27 204.013C1496.31 159.277 1528.55 118.985 1573.28 114.018C1618.02 109.051 1656.91 126.501 1661.88 171.237Z" fill="white" stroke="black" stroke-width="3"/>
<path d="M1624.41 190.342C1627 213.671 1610.19 234.682 1586.86 237.273C1563.53 239.863 1542.52 223.051 1539.93 199.722C1537.34 176.393 1554.15 155.382 1577.48 152.792C1600.81 150.202 1621.82 167.014 1624.41 190.342Z" fill="#693875" stroke="black" stroke-width="3"/>
<path d="M1501.46 199.278L1815.53 164.408L1833.19 323.431C1834.71 337.154 1824.82 349.514 1811.1 351.037L1546.72 380.389C1533 381.913 1520.64 372.023 1519.12 358.301L1501.46 199.278Z" fill="white" stroke="black" stroke-width="3"/>
<path d="M1510.74 238.494C1509.21 224.771 1519.1 212.411 1532.83 210.888L1749.49 186.832C1763.22 185.309 1775.58 195.198 1777.1 208.921L1788.8 314.274C1790.32 327.996 1780.43 340.356 1766.71 341.88L1550.04 365.935C1536.32 367.459 1523.96 357.569 1522.43 343.846L1510.74 238.494Z" fill="black" stroke="black" stroke-width="3"/>
<rect x="1528.96" y="239.489" width="100" height="100" transform="rotate(-6.33527 1528.96 239.489)" stroke="black" stroke-width="3"/>
<path d="M1623.93 279.253C1626.97 306.698 1607.19 331.418 1579.75 334.465C1552.3 337.512 1527.58 317.733 1524.54 290.287C1521.49 262.842 1541.27 238.122 1568.71 235.075C1596.16 232.028 1620.88 251.807 1623.93 279.253Z" fill="white"/>
<path d="M1612 280.577C1614.31 301.435 1599.28 320.222 1578.42 322.538C1557.57 324.854 1538.78 309.822 1536.46 288.963C1534.15 268.104 1549.18 249.318 1570.04 247.002C1590.9 244.686 1609.68 259.718 1612 280.577Z" fill="black"/>
<path d="M1623 336.687C1616.6 335.209 1610.56 332.485 1605.21 328.671C1599.87 324.857 1595.32 320.028 1591.85 314.459C1588.37 308.89 1586.02 302.69 1584.94 296.214C1583.85 289.738 1584.06 283.112 1585.54 276.714C1587.01 270.317 1589.74 264.273 1593.55 258.928C1597.37 253.583 1602.2 249.042 1607.76 245.563C1613.33 242.085 1619.53 239.737 1626.01 238.655C1632.49 237.572 1639.11 237.776 1645.51 239.254L1634.25 287.97L1623 336.687Z" fill="black"/>
<path d="M1522.49 231.761C1523.25 238.283 1525.28 244.592 1528.48 250.327C1531.68 256.062 1535.97 261.112 1541.12 265.187C1546.27 269.262 1552.17 272.283 1558.49 274.078C1564.8 275.873 1571.41 276.406 1577.93 275.647C1584.45 274.888 1590.76 272.852 1596.5 269.655C1602.23 266.458 1607.28 262.163 1611.36 257.015C1615.43 251.866 1618.45 245.966 1620.25 239.65C1622.04 233.334 1622.58 226.726 1621.82 220.204L1572.15 225.982L1522.49 231.761Z" fill="black"/>
<rect x="1660.15" y="224.923" width="100" height="100" transform="rotate(-6.33527 1660.15 224.923)" stroke="black" stroke-width="3"/>
<path d="M1744.19 265.901C1747.23 293.346 1727.45 318.066 1700.01 321.113C1672.56 324.16 1647.84 304.381 1644.8 276.935C1641.75 249.49 1661.53 224.771 1688.97 221.723C1716.42 218.676 1741.14 238.455 1744.19 265.901Z" fill="white"/>
<path d="M1732.26 267.225C1734.58 288.084 1719.54 306.87 1698.68 309.186C1677.83 311.502 1659.04 296.47 1656.72 275.611C1654.41 254.753 1669.44 235.966 1690.3 233.65C1711.16 231.334 1729.94 246.366 1732.26 267.225Z" fill="black"/>
<path d="M1055.79 324.878L1080.59 319.871L1149.98 619.633L1111.22 649.633L1055.79 324.878Z" fill="white" stroke="black" stroke-width="3"/>
<path d="M1149.34 621.3L1111.22 649.633C1111.22 649.633 1090.25 645.281 1084.36 637.146C1078.36 628.853 1074.86 618.213 1082.15 611.024C1087.63 605.616 1099.22 609.489 1099.22 609.489C1099.22 609.489 1097.52 595.838 1103.34 591.761C1109.22 587.638 1121.58 594.151 1121.58 594.151C1121.58 594.151 1122.66 585.378 1126.59 582.185C1129.91 579.486 1132.95 578.456 1137.15 579.253C1142.37 580.24 1148.22 590.213 1148.22 590.213C1148.22 590.213 1152.67 598.797 1152.81 605.903C1152.92 611.76 1149.34 621.3 1149.34 621.3Z" fill="#693875" stroke="black" stroke-width="3"/>
<path d="M978.152 315.214L1037.58 324.396C1037.58 324.396 901.797 363.81 885.745 392.364C869.693 420.918 928.396 494.501 928.396 494.501L878.391 498.002C878.391 498.002 837.99 430.119 851.245 387.864C864.499 345.608 960.726 317.248 978.152 315.214Z" fill="white" stroke="black" stroke-width="3"/>
<path d="M878.249 498.536L927.408 494.5C927.408 494.5 930.86 505.079 932.408 515C933.987 525.115 929.462 535.45 919.716 538.532C912.383 540.852 913.731 523.027 913.731 523.027C913.731 523.027 899.033 544.039 892.004 545.02C884.898 546.012 886.264 530.484 886.264 530.484C886.264 530.484 875.388 542.197 870.441 543.25C866.259 544.14 859.411 540.365 859.411 540.365C859.411 540.365 854.582 535.411 855.13 527.522C855.642 520.162 859.197 515.833 864.28 510.77C868.425 506.642 878.249 498.536 878.249 498.536Z" fill="#693875" stroke="black" stroke-width="3"/>
<path d="M847.398 288.185C891.543 267.741 909.448 271.719 909.448 271.719L919.874 219.118C898.817 225.81 804.702 262.61 777.56 289.011C750.418 315.411 768.104 374.047 774.044 376.185L814.499 357.534C814.499 357.534 782.897 318.055 847.398 288.185Z" fill="white" stroke="black" stroke-width="3"/>
<path d="M814.795 356.585L773.301 376.019C773.301 376.019 777.39 389.053 783.676 396.885C791.114 406.156 801.327 412.253 810.873 408.555C820.308 404.9 809.969 390.778 807.986 392.487C809.045 393.835 826.529 398.768 831.052 393.358C835.66 387.845 830.119 381.548 830.119 381.548C830.119 381.548 838.124 382.257 846.258 375.329C854.391 368.401 840.957 359.418 840.957 359.418C840.957 359.418 831.885 356.04 825.522 356.039C819.664 356.038 814.795 356.585 814.795 356.585Z" fill="#693875" stroke="black" stroke-width="3"/>
<path fill-rule="evenodd" clip-rule="evenodd" d="M1016.3 431.216C1016.3 431.216 1015.8 430.676 1015 429.751C1015.99 430.273 1016.52 430.823 1016.3 431.216Z" fill="#693875"/>
<path d="M1044.5 426.139L1051.17 475.696C1049.57 479.533 1030.16 481.8 1028.39 482.016C1026.61 482.231 1011.97 480.273 1007.83 475.886C1004.69 472.568 1001.52 468.112 1001.52 463.661C1001.52 457.713 1009.27 455.061 1013.58 456.366C1008.28 454.712 996.592 442.465 999.607 433.624C1002.08 426.382 1011.47 427.888 1015 429.751L1015 429.751C1015.8 430.676 1016.3 431.216 1016.3 431.216C1016.52 430.823 1015.99 430.273 1015 429.751L1015 429.751C1011.74 425.987 1003.54 415.843 1004.3 409.708C1005.96 396.13 1021.79 399.988 1030 407.517C1037.4 414.302 1044.5 426.139 1044.5 426.139Z" fill="#693875"/>
<path d="M1015 429.751L1015 429.751M1015 429.751C1011.47 427.888 1002.08 426.382 999.607 433.624C996.592 442.465 1008.28 454.712 1013.58 456.366C1009.27 455.061 1001.52 457.713 1001.52 463.661C1001.52 468.112 1004.69 472.568 1007.83 475.886C1011.97 480.273 1026.61 482.231 1028.39 482.016C1030.16 481.8 1049.57 479.533 1051.17 475.696L1044.5 426.139C1044.5 426.139 1037.4 414.302 1030 407.517C1021.79 399.988 1005.96 396.13 1004.3 409.708C1003.54 415.843 1011.74 425.987 1015 429.751ZM1015 429.751C1015.99 430.273 1016.52 430.823 1016.3 431.216C1016.3 431.216 1015.8 430.676 1015 429.751Z" stroke="black" stroke-width="3"/>
<path d="M1184.17 408.596C1226.1 324.28 1193.34 295.994 1190.45 291.188C1190.45 291.188 1161.58 285.639 1168.21 295.687C1174.85 305.734 1173.44 347.577 1139.04 400.903C1104.64 454.229 1043.95 425.747 1044.52 426.17L1051.18 475.712C1050.76 476.278 1142.13 493.127 1184.17 408.596Z" fill="white" stroke="black" stroke-width="3"/>
<path d="M1072.98 142.481C1066.86 187.005 1025.76 218.13 981.165 212C936.574 205.87 905.587 173.372 911.706 128.848C917.824 84.3238 958.732 44.6339 1003.32 50.7637C1047.91 56.8935 1079.1 97.9567 1072.98 142.481Z" fill="white" stroke="black" stroke-width="3"/>
<path d="M1034.24 137.155C1031.05 160.373 1009.61 176.604 986.359 173.407C963.106 170.211 946.842 148.797 950.033 125.579C953.223 102.361 974.66 86.1304 997.914 89.3269C1021.17 92.5234 1037.43 113.937 1034.24 137.155Z" fill="#693875" stroke="black" stroke-width="3"/>
<path d="M1224.45 173.47C1218.33 217.994 1174.97 263.779 1130.37 257.649C1085.78 251.519 1054.59 210.456 1060.71 165.932C1066.83 121.407 1107.94 90.2827 1152.53 96.4124C1197.12 102.542 1230.57 128.946 1224.45 173.47Z" fill="white" stroke="black" stroke-width="3"/>
<path d="M1183.45 182.804C1180.26 206.022 1158.82 222.253 1135.57 219.056C1112.31 215.859 1096.05 194.446 1099.24 171.228C1102.43 148.01 1123.87 131.779 1147.12 134.976C1170.38 138.172 1186.64 159.585 1183.45 182.804Z" fill="#693875" stroke="black" stroke-width="3"/>
<path d="M911.603 128.79L1224.66 171.822L1202.91 330.091C1201.03 343.748 1188.42 353.296 1174.74 351.416L911.22 315.192C897.542 313.312 887.975 300.716 889.852 287.058L911.603 128.79Z" fill="white" stroke="black" stroke-width="3"/>
<path d="M911.01 169.023C912.887 155.365 925.497 145.818 939.176 147.698L1155.14 177.385C1168.82 179.265 1178.39 191.861 1176.51 205.519L1162.1 310.372C1160.23 324.029 1147.62 333.577 1133.94 331.697L917.968 302.01C904.29 300.129 894.723 287.534 896.6 273.876L911.01 169.023Z" fill="black" stroke="black" stroke-width="3"/>
<rect width="99.9993" height="99.8471" transform="matrix(0.990684 0.136179 -0.136152 0.990688 928.435 174.442)" stroke="black" stroke-width="3"/>
<path d="M1010.8 236.157C1007.04 263.472 981.825 282.567 954.468 278.807C927.111 275.046 907.977 249.854 911.731 222.539C915.485 195.224 940.705 176.129 968.062 179.889C995.419 183.65 1014.55 208.842 1010.8 236.157Z" fill="white"/>
<path d="M998.911 234.523C996.058 255.283 976.89 269.795 956.099 266.937C935.308 264.079 920.766 244.933 923.619 224.173C926.472 203.414 945.64 188.902 966.431 191.76C987.222 194.618 1001.76 213.763 998.911 234.523Z" fill="black"/>
<path d="M923.248 170.001C922.675 176.543 923.397 183.132 925.372 189.395C927.346 195.657 930.535 201.469 934.755 206.499C938.976 211.529 944.146 215.678 949.97 218.71C955.794 221.742 962.159 223.597 968.7 224.169C975.241 224.741 981.831 224.02 988.093 222.045C994.355 220.071 1000.17 216.882 1005.2 212.661C1010.23 208.441 1014.38 203.271 1017.41 197.447C1020.44 191.622 1022.29 185.258 1022.87 178.717L973.057 174.359L923.248 170.001Z" fill="black"/>
<rect width="99.9993" height="99.8471" transform="matrix(0.990684 0.136179 -0.136152 0.990688 1059.21 192.417)" stroke="black" stroke-width="3"/>
<path d="M1130.67 252.634C1126.92 279.949 1101.7 299.044 1074.34 295.284C1046.98 291.523 1027.85 266.331 1031.6 239.016C1035.36 211.701 1060.58 192.606 1087.94 196.366C1115.29 200.127 1134.43 225.319 1130.67 252.634Z" fill="white"/>
<path d="M1118.78 251C1115.93 271.759 1096.76 286.272 1075.97 283.414C1055.18 280.556 1040.64 261.41 1043.49 240.65C1046.35 219.891 1065.51 205.379 1086.3 208.237C1107.1 211.094 1121.64 230.24 1118.78 251Z" fill="black"/>
<path d="M1143.77 276.695C1137.48 278.601 1130.89 279.251 1124.35 278.608C1117.82 277.964 1111.47 276.04 1105.68 272.945C1099.89 269.85 1094.77 265.644 1090.6 260.569C1086.44 255.493 1083.31 249.647 1081.41 243.363C1079.5 237.08 1078.85 230.483 1079.49 223.948C1080.14 217.414 1082.06 211.07 1085.16 205.279C1088.25 199.488 1092.46 194.364 1097.53 190.198C1102.61 186.033 1108.45 182.908 1114.74 181.002L1129.25 228.848L1143.77 276.695Z" fill="black"/>
<path d="M366.581 353.454L392.092 346.283L445.294 649.336L399.294 649.336L366.581 353.454Z" fill="white" stroke="black" stroke-width="3"/>
<path d="M445.292 649.336H399.292C399.292 649.336 382.765 636.787 382.334 626.754C381.894 616.526 384.84 605.72 394.883 603.738C402.44 602.246 409.976 611.863 409.976 611.863C409.976 611.863 416.076 599.534 423.181 599.338C430.363 599.141 437.087 611.385 437.087 611.385C437.087 611.385 442.818 604.656 447.859 604.159C452.121 603.738 455.22 604.55 458.292 607.534C462.098 611.229 461.485 622.776 461.485 622.776C461.485 622.776 460.47 632.392 456.67 638.398C453.538 643.349 445.292 649.336 445.292 649.336Z" fill="#693875" stroke="black" stroke-width="3"/>
<path d="M276.758 357.119L336.758 361.151C336.758 361.151 252.258 384.651 252.258 412.651C252.258 440.651 337.734 514.198 342.758 506.151L307.258 535.151C307.258 535.151 221.758 460.151 221.758 419.151C221.758 378.151 259.572 360.646 276.758 357.119Z" fill="white" stroke="black" stroke-width="3"/>
<path d="M306.988 536.027L343.481 505.561C343.481 505.561 353.347 510.79 360.437 517.9C367.666 525.149 371.66 534.74 365.595 542.968C361.031 549.158 351.631 533.953 351.631 533.953C351.631 533.953 352.112 559.591 347.006 564.521C341.845 569.504 333.812 556.145 333.812 556.145C333.812 556.145 331.911 572.016 328.531 575.778C325.673 578.959 317.915 579.936 317.915 579.936C317.915 579.936 311.095 578.772 306.897 572.072C302.978 565.819 303.305 560.227 304.436 553.143C305.358 547.365 306.988 536.027 306.988 536.027Z" fill="#693875" stroke="black" stroke-width="3"/>
<path d="M492.52 363.376C436.368 284.516 455.214 299.781 455.214 299.781L477.902 252.598C483.801 247.687 546.071 348.521 546.944 392.845C547.818 437.169 499.394 476.744 493.603 475.722L473.386 435.606C473.386 435.606 527.48 412.474 492.52 363.376Z" fill="white" stroke="black" stroke-width="3"/>
<path d="M473.359 435.794L493.585 475.736C493.585 475.736 482.525 484.471 472.751 486.7C461.182 489.339 449.653 485.712 444.471 476.883C439.349 468.157 456.789 468.029 457.282 470.6C455.618 470.998 438.034 461.544 437.845 454.495C437.653 447.314 445.894 445.825 445.894 445.825C445.894 445.825 439.187 441.405 437.112 430.924C435.038 420.443 451.121 421.755 451.121 421.755C451.121 421.755 460.071 425.25 465.054 429.204C469.641 432.843 473.359 435.794 473.359 435.794Z" fill="#693875" stroke="black" stroke-width="3"/>
<path fill-rule="evenodd" clip-rule="evenodd" d="M96.0841 383.103C96.0841 383.103 95.4721 382.691 94.4827 381.971C95.5631 382.256 96.2019 382.672 96.0841 383.103Z" fill="#693875"/>
<path d="M122.405 371.784L140.107 418.55C139.409 422.651 121.018 429.245 119.336 429.857C117.655 430.469 102.954 431.869 97.9262 428.533C94.1228 426.008 90.0236 422.386 89.0167 418.05C87.6711 412.256 94.6248 407.921 99.1119 408.219C93.58 407.805 79.4252 398.517 80.3641 389.222C81.1331 381.61 90.6215 380.954 94.4811 381.971L94.4827 381.971C95.4721 382.691 96.0841 383.103 96.0841 383.103C96.2019 382.672 95.5631 382.256 94.4827 381.971L94.4811 381.971C90.4529 379.042 80.1806 371.012 79.5268 364.866C78.0798 351.262 94.3709 351.443 104.071 356.922C112.812 361.858 122.405 371.784 122.405 371.784Z" fill="#693875"/>
<path d="M94.4811 381.971L94.4827 381.971M94.4811 381.971C90.6215 380.954 81.1331 381.61 80.3641 389.222C79.4252 398.517 93.58 407.805 99.1119 408.219C94.6248 407.921 87.6711 412.256 89.0167 418.05C90.0236 422.386 94.1228 426.008 97.9262 428.533C102.954 431.869 117.655 430.469 119.336 429.857C121.018 429.245 139.409 422.651 140.107 418.55L122.405 371.784C122.405 371.784 112.812 361.858 104.071 356.922C94.3709 351.443 78.0798 351.262 79.5268 364.866C80.1806 371.012 90.4529 379.042 94.4811 381.971ZM94.4827 381.971C95.5631 382.256 96.2019 382.672 96.0841 383.103C96.0841 383.103 95.4721 382.691 94.4827 381.971Z" stroke="black" stroke-width="3"/>
<path d="M249.45 319.655C271.239 228.043 243.763 217.986 239.868 213.956C239.868 213.956 204.69 208.457 213.425 216.745C222.159 225.033 230.243 266.112 208.788 325.833C187.333 385.554 121.779 371.526 122.426 371.81L140.112 418.564C139.829 419.212 227.605 411.5 249.45 319.655Z" fill="white" stroke="black" stroke-width="3"/>
<path d="M358.786 170.548C356.523 215.434 318.247 249.982 273.294 247.714C228.34 245.446 194.67 215.736 196.933 170.851C199.196 125.965 236.535 82.9006 281.488 85.1687C326.442 87.4368 361.049 125.662 358.786 170.548Z" fill="white" stroke="black" stroke-width="3"/>
<path d="M319.727 168.577C318.547 191.984 298.587 210 275.145 208.817C251.703 207.635 233.656 187.701 234.837 164.294C236.017 140.888 255.977 122.872 279.419 124.054C302.861 125.237 320.907 145.171 319.727 168.577Z" fill="#693875" stroke="black" stroke-width="3"/>
<path d="M510.035 200.417C507.772 245.303 469.496 279.851 424.543 277.583C379.589 275.315 345.92 245.605 348.182 200.72C350.445 155.834 387.784 112.77 432.737 115.038C477.691 117.306 512.298 155.532 510.035 200.417Z" fill="white" stroke="black" stroke-width="3"/>
<path d="M471.159 194.909C469.979 218.316 450.019 236.332 426.577 235.149C403.135 233.966 385.088 214.033 386.268 190.626C387.448 167.22 407.408 149.204 430.85 150.386C454.292 151.569 472.339 171.503 471.159 194.909Z" fill="#693875" stroke="black" stroke-width="3"/>
<path d="M196.826 170.802L512.423 186.723L504.378 346.276C503.684 360.045 491.943 370.642 478.153 369.947L212.492 356.545C198.702 355.849 188.087 344.123 188.781 330.355L196.826 170.802Z" fill="white" stroke="black" stroke-width="3"/>
<path d="M199.7 210.936C200.394 197.168 212.135 186.57 225.925 187.266L443.647 198.249C457.436 198.945 468.052 210.671 467.358 224.439L462.028 330.143C461.334 343.912 449.593 354.51 435.803 353.814L218.081 342.83C204.291 342.135 193.676 330.409 194.37 316.641L199.7 210.936Z" fill="black" stroke="black" stroke-width="3"/>
<rect width="99.9993" height="99.8471" transform="matrix(0.99873 0.0503838 -0.0503571 0.998731 217.526 214.836)" stroke="black" stroke-width="3"/>
<path d="M304.897 269.23C303.508 296.767 280.026 317.963 252.447 316.571C224.868 315.18 203.636 291.729 205.025 264.192C206.413 236.655 229.896 215.46 257.475 216.851C285.054 218.242 306.285 241.693 304.897 269.23Z" fill="white"/>
<path d="M292.912 268.626C291.857 289.554 274.01 305.662 253.05 304.605C232.09 303.548 215.954 285.725 217.009 264.797C218.064 243.868 235.911 227.76 256.871 228.817C277.831 229.875 293.967 247.698 292.912 268.626Z" fill="black"/>
<path d="M292.912 268.626C291.857 289.554 274.01 305.662 253.05 304.605C232.09 303.547 215.954 285.725 217.009 264.796C218.065 243.868 235.911 227.76 256.872 228.817C277.832 229.875 293.968 247.697 292.912 268.626Z" fill="black"/>
<rect width="99.9993" height="99.8471" transform="matrix(0.99873 0.0503838 -0.0503571 0.998731 349.358 221.485)" stroke="black" stroke-width="3"/>
<path d="M425.743 275.326C424.355 302.863 400.872 324.058 373.293 322.667C345.714 321.275 324.482 297.824 325.871 270.287C327.259 242.75 350.742 221.555 378.321 222.946C405.9 224.338 427.132 247.789 425.743 275.326Z" fill="white"/>
<path d="M413.758 274.721C412.703 295.649 394.856 311.758 373.896 310.7C352.936 309.643 336.8 291.82 337.855 270.892C338.911 249.964 356.758 233.855 377.718 234.913C398.678 235.97 414.814 253.793 413.758 274.721Z" fill="black"/>
</svg>
