<svg width="5202" height="653" viewBox="0 0 5202 653" fill="none" xmlns="http://www.w3.org/2000/svg">
<path d="M4983.5 400L4949 396C4942.9 385.448 4956.18 442.546 4902.5 477C4848.82 511.454 4762.53 474.228 4764 477.5C4764 477.5 4765.01 528.634 4765 533.5C4764.99 538.366 4898.93 533.508 4925.5 505.5C4952.06 477.492 4977.5 449.5 4983.5 400Z" fill="white" stroke="black" stroke-width="3"/>
<path d="M4764 477.5L4764.86 534.21C4764.86 534.21 4775.3 538.148 4785.33 538.759C4795.55 539.381 4805.38 536.03 4807.53 526.038C4809.16 518.52 4791.54 521.534 4791.54 521.534C4791.54 521.534 4811.08 504.93 4811.39 497.839C4811.71 490.672 4796.38 493.489 4796.38 493.489C4796.38 493.489 4807.02 481.562 4807.61 476.538C4808.1 472.291 4803.7 465.827 4803.7 465.827C4803.7 465.827 4798.32 461.485 4790.51 462.77C4783.23 463.97 4778.76 464.626 4773.5 469.5C4769.32 473.366 4763.61 476.942 4764 477.5Z" fill="#693875" stroke="black" stroke-width="3"/>
<path d="M4916.5 390L4868 387C4870.32 386.439 4896.11 400.308 4905 436C4911.66 522.225 4905.59 571.423 4901.63 649.714L4950.63 649.714C4945.39 566.869 4946.53 469.886 4939.63 439.714C4932.74 409.542 4916.5 390 4916.5 390Z" fill="white" stroke="black" stroke-width="3"/>
<path d="M4901.64 649.714L4950.64 649.714C4950.64 649.714 4964.16 637.166 4964.59 627.133C4965.03 616.904 4962.09 606.099 4952.04 604.116C4944.49 602.624 4936.95 612.242 4936.95 612.242C4936.95 612.242 4930.85 599.912 4923.75 599.717C4916.56 599.519 4909.84 611.763 4909.84 611.763C4909.84 611.763 4904.11 605.035 4899.07 604.537C4894.81 604.117 4891.71 604.929 4888.63 607.912C4884.83 611.608 4885.44 623.154 4885.44 623.154C4885.44 623.154 4886.46 632.77 4890.26 638.777C4893.39 643.727 4901.64 649.714 4901.64 649.714Z" fill="#693875" stroke="black" stroke-width="3"/>
<path d="M5072.77 335.306C4998.11 396.943 4970 392.5 4970 392.5L4982.5 346.5C4982.5 346.5 5077.12 285.021 5113.67 278.08C5150.22 271.139 5183.37 315.504 5183.37 315.504L5147.18 342.127C5147.18 342.127 5133.57 285.115 5072.77 335.306Z" fill="white" stroke="black" stroke-width="3"/>
<path d="M5147.37 342.122L5183.38 315.519C5183.38 315.519 5193.84 324.968 5197.67 334.233C5202.2 345.2 5200.55 357.172 5192.71 363.754C5184.96 370.259 5181.92 353.085 5184.37 352.17C5185.04 353.745 5178.66 372.659 5171.74 374.021C5164.69 375.408 5161.84 367.53 5161.84 367.53C5161.84 367.53 5158.61 374.881 5148.62 378.674C5138.63 382.467 5137.24 366.39 5137.24 366.39C5137.24 366.39 5139.19 356.983 5142.26 351.41C5145.09 346.28 5147.37 342.122 5147.37 342.122Z" fill="#693875" stroke="black" stroke-width="3"/>
<path fill-rule="evenodd" clip-rule="evenodd" d="M4720.1 456.311C4720.1 456.311 4720.71 456.718 4721.75 457.358C4721.08 456.468 4720.45 456.037 4720.1 456.311Z" fill="#693875"/>
<path d="M4720.49 427.662L4670.51 429.188C4666.99 431.401 4667.93 450.915 4668 452.703C4668.08 454.491 4672.41 468.61 4677.41 471.98C4681.2 474.529 4686.12 476.932 4690.51 476.204C4696.38 475.232 4697.72 467.149 4695.73 463.117C4698.23 468.07 4712.22 477.597 4720.45 473.176C4727.19 469.555 4724.17 460.537 4721.76 457.359L4721.75 457.358C4720.71 456.718 4720.1 456.311 4720.1 456.311C4720.45 456.037 4721.08 456.468 4721.75 457.358L4721.76 457.359C4726 459.961 4737.35 466.382 4743.28 464.636C4756.4 460.772 4750.01 445.787 4741.23 438.919C4733.33 432.73 4720.49 427.662 4720.49 427.662Z" fill="#693875"/>
<path d="M4721.76 457.359L4721.75 457.358M4721.76 457.359C4724.17 460.537 4727.19 469.555 4720.45 473.176C4712.22 477.597 4698.23 468.07 4695.73 463.117C4697.72 467.149 4696.38 475.232 4690.51 476.204C4686.12 476.932 4681.2 474.529 4677.41 471.98C4672.41 468.61 4668.08 454.491 4668 452.703C4667.93 450.915 4666.99 431.401 4670.51 429.188L4720.49 427.662C4720.49 427.662 4733.33 432.73 4741.23 438.919C4750.01 445.787 4756.4 460.772 4743.28 464.636C4737.35 466.382 4726 459.961 4721.76 457.359ZM4721.75 457.358C4721.08 456.468 4720.45 456.037 4720.1 456.311C4720.1 456.311 4720.71 456.718 4721.75 457.358Z" stroke="black" stroke-width="3"/>
<path d="M4720.08 290.338C4796.4 235.174 4816.2 256.717 4821.41 258.775C4821.41 258.775 4833.6 263.652 4833.73 273.186C4833.87 282.719 4776.11 295.022 4729.92 330.272C4683.73 365.522 4732.01 437.687 4720.46 427.652L4670.49 429.187C4670 429.697 4643.57 345.642 4720.08 290.338Z" fill="white" stroke="black" stroke-width="3"/>
<path d="M4935.54 201.268C4930.25 245.898 4962.19 286.373 5006.89 291.672C5051.59 296.97 5089.76 273.324 5095.06 228.694C5100.35 184.064 5070.76 135.351 5026.06 130.052C4981.36 124.754 4940.83 156.638 4935.54 201.268Z" fill="white" stroke="black" stroke-width="3"/>
<path d="M4974.38 205.872C4971.62 229.145 4988.28 250.252 5011.59 253.015C5034.89 255.778 5056.03 239.151 5058.79 215.878C5061.55 192.605 5044.89 171.498 5021.58 168.735C4998.27 165.972 4977.14 182.599 4974.38 205.872Z" fill="#693875" stroke="black" stroke-width="3"/>
<path d="M4781.15 193.109C4775.86 237.739 4806.3 292.971 4851 298.269C4895.7 303.568 4936.22 271.683 4941.51 227.053C4946.8 182.423 4914.86 141.948 4870.16 136.65C4825.46 131.351 4786.45 148.479 4781.15 193.109Z" fill="white" stroke="black" stroke-width="3"/>
<path d="M4818.48 212.469C4815.72 235.743 4832.38 256.849 4855.69 259.612C4879 262.375 4900.13 245.748 4902.89 222.475C4905.65 199.202 4888.99 178.095 4865.68 175.332C4842.38 172.569 4821.24 189.196 4818.48 212.469Z" fill="#693875" stroke="black" stroke-width="3"/>
<path d="M5095.17 228.664L4781.37 191.463L4762.56 350.108C4760.93 363.798 4770.73 376.214 4784.45 377.839L5048.59 409.153C5062.31 410.779 5074.74 400.998 5076.36 387.308L5095.17 228.664Z" fill="white" stroke="black" stroke-width="3"/>
<path d="M5085.61 267.749C5087.23 254.059 5077.43 241.643 5063.72 240.018L4847.24 214.354C4833.53 212.729 4821.1 222.509 4819.48 236.199L4807.01 341.301C4805.39 354.991 4815.19 367.407 4828.9 369.033L5045.38 394.696C5059.09 396.322 5071.52 386.541 5073.15 372.851L5085.61 267.749Z" fill="black" stroke="black" stroke-width="3"/>
<rect width="99.9993" height="99.8471" transform="matrix(-0.993046 -0.117723 -0.11775 0.993043 5067.38 268.605)" stroke="black" stroke-width="3"/>
<rect width="99.9993" height="99.8471" transform="matrix(-0.993046 -0.117723 -0.11775 0.993043 4936.3 253.065)" stroke="black" stroke-width="3"/>
<path d="M4178.07 565.74L4151 521.499C4151 521.499 4130.23 523.569 4121.99 529.299C4113.58 535.141 4106.76 544.027 4111.27 553.221C4114.65 560.139 4126.87 560.315 4126.87 560.315C4126.87 560.315 4120.75 572.634 4124.89 578.407C4129.08 584.244 4142.9 582.183 4142.9 582.183C4142.9 582.183 4141.01 590.818 4143.67 595.132C4145.92 598.778 4148.44 600.754 4152.67 601.393C4157.92 602.185 4166.74 594.707 4166.74 594.707C4166.74 594.707 4173.78 588.078 4176.26 581.417C4178.3 575.928 4178.07 565.74 4178.07 565.74Z" fill="#693875" stroke="black" stroke-width="3"/>
<path d="M4315.96 354.821L4289.74 344.499C4289.74 344.499 4284.84 439.615 4251.5 472.999C4218.16 506.383 4151 520.999 4151 520.999L4178.18 565.842C4178.18 565.842 4274.71 508.769 4289.74 485.609C4304.77 462.448 4317.57 405.669 4315.96 354.821Z" fill="white" stroke="black" stroke-width="3"/>
<path d="M4256.13 338.058L4231.99 345.617L4315.58 641.733L4364 649.349L4256.13 338.058Z" fill="white" stroke="black" stroke-width="3"/>
<path d="M4315.5 642L4364 650C4364 650 4369.76 639.27 4371.99 629.479C4374.26 619.496 4372.54 609.249 4363.03 605.504C4355.87 602.686 4355.99 620.562 4355.99 620.562C4355.99 620.562 4342.77 598.589 4335.83 597.127C4328.81 595.65 4329.11 611.235 4329.11 611.235C4329.11 611.235 4319.06 598.802 4314.2 597.412C4310.09 596.237 4302.99 599.533 4302.99 599.533C4302.99 599.533 4297.84 604.143 4297.84 612.05C4297.85 619.429 4301.1 623.992 4305.82 629.392C4309.67 633.795 4315.5 642 4315.5 642Z" fill="#693875" stroke="black" stroke-width="3"/>
<path fill-rule="evenodd" clip-rule="evenodd" d="M4011.46 332.811C4011.46 332.811 4011.63 333.529 4011.96 334.707C4012.07 333.595 4011.9 332.851 4011.46 332.811Z" fill="#693875"/>
<path d="M4031.24 312.083L3993.57 279.197C3989.48 278.423 3976.89 293.364 3975.74 294.727C3974.58 296.091 3968.14 309.382 3969.52 315.258C3970.56 319.702 3972.53 324.806 3976.24 327.261C3981.2 330.541 3987.69 325.533 3988.97 321.223C3987.43 326.553 3991.21 343.057 4000.25 345.415C4007.65 347.346 4011.57 338.68 4011.96 334.708L4011.96 334.707C4011.63 333.529 4011.46 332.811 4011.46 332.811C4011.9 332.851 4012.07 333.595 4011.96 334.707L4011.96 334.708C4013.3 339.505 4017.25 351.931 4022.79 354.685C4035.03 360.781 4040.54 345.447 4038.78 334.446C4037.2 324.533 4031.24 312.083 4031.24 312.083Z" fill="#693875"/>
<path d="M4011.96 334.708L4011.96 334.707M4011.96 334.708C4011.57 338.68 4007.65 347.346 4000.25 345.415C3991.21 343.057 3987.43 326.553 3988.97 321.223C3987.69 325.533 3981.2 330.541 3976.24 327.261C3972.53 324.806 3970.56 319.702 3969.52 315.258C3968.14 309.382 3974.58 296.091 3975.74 294.727C3976.89 293.364 3989.48 278.423 3993.57 279.197L4031.24 312.083C4031.24 312.083 4037.2 324.533 4038.78 334.446C4040.54 345.447 4035.03 360.781 4022.79 354.685C4017.25 351.931 4013.3 339.505 4011.96 334.708ZM4011.96 334.707C4012.07 333.595 4011.9 332.851 4011.46 332.811C4011.46 332.811 4011.63 333.529 4011.96 334.707Z" stroke="black" stroke-width="3"/>
<path d="M4124.36 211.158C4217.83 222.651 4217.68 251.909 4220.1 256.964C4220.1 256.964 4213 291.853 4208.28 280.779C4203.55 269.705 4167.86 247.816 4104.41 247.12C4040.95 246.424 4031.26 312.759 4031.22 312.053L3993.56 279.187C3992.85 279.227 4030.66 199.636 4124.36 211.158Z" fill="white" stroke="black" stroke-width="3"/>
<path fill-rule="evenodd" clip-rule="evenodd" d="M4514.32 288.419C4514.32 288.419 4514.56 287.722 4514.92 286.554C4514.23 287.429 4513.97 288.144 4514.32 288.419Z" fill="#693875"/>
<path d="M4486.46 295.112L4500.28 343.168C4503.3 346.034 4521.97 340.305 4523.69 339.789C4525.4 339.272 4538.01 331.592 4540.04 325.909C4541.58 321.61 4542.69 316.255 4540.9 312.179C4538.51 306.732 4530.35 307.423 4526.93 310.348C4531.11 306.705 4536.89 290.791 4530.57 283.908C4525.4 278.272 4517.41 283.427 4514.93 286.552L4514.92 286.554C4514.56 287.722 4514.32 288.419 4514.32 288.419C4513.97 288.144 4514.23 287.429 4514.92 286.554L4514.93 286.552C4516.4 281.794 4519.82 269.213 4516.66 263.899C4509.68 252.136 4496.74 262.035 4492.25 272.231C4488.2 281.418 4486.46 295.112 4486.46 295.112Z" fill="#693875"/>
<path d="M4514.93 286.552L4514.92 286.554M4514.93 286.552C4517.41 283.427 4525.4 278.272 4530.57 283.908C4536.89 290.791 4531.11 306.705 4526.93 310.348C4530.35 307.423 4538.51 306.732 4540.9 312.179C4542.69 316.255 4541.58 321.61 4540.04 325.909C4538.01 331.592 4525.4 339.272 4523.69 339.789C4521.97 340.305 4503.3 346.034 4500.28 343.168L4486.46 295.112C4486.46 295.112 4488.2 281.418 4492.25 272.231C4496.74 262.035 4509.68 252.136 4516.66 263.899C4519.82 269.213 4516.4 281.794 4514.93 286.552ZM4514.92 286.554C4514.23 287.429 4513.97 288.144 4514.32 288.419C4514.32 288.419 4514.56 287.722 4514.92 286.554Z" stroke="black" stroke-width="3"/>
<path d="M4353.49 329.423C4281.19 269.091 4297.18 244.586 4297.88 239.026C4297.88 239.026 4322.77 213.56 4320.73 225.428C4318.7 237.295 4336.82 275.038 4389.76 310.026C4442.7 345.015 4486.81 294.531 4486.46 295.146L4500.29 343.183C4500.9 343.532 4425.98 389.909 4353.49 329.423Z" fill="white" stroke="black" stroke-width="3"/>
<path d="M4125.64 145.49C4120.53 190.142 4152.64 230.485 4197.36 235.6C4242.08 240.715 4280.16 216.913 4285.27 172.262C4290.38 127.61 4260.58 79.0188 4215.86 73.9037C4171.15 68.7885 4130.75 100.839 4125.64 145.49Z" fill="white" stroke="black" stroke-width="3"/>
<path d="M4164.5 149.935C4161.83 173.219 4178.58 194.257 4201.9 196.925C4225.22 199.592 4246.28 182.879 4248.95 159.594C4251.61 136.31 4234.87 115.272 4211.55 112.604C4188.23 109.937 4167.16 126.65 4164.5 149.935Z" fill="#693875" stroke="black" stroke-width="3"/>
<path d="M4279.25 167.115C4274.14 211.766 4304.81 266.872 4349.53 271.987C4394.25 277.102 4431.39 246.151 4436.5 201.5C4447 155 4412.75 115.406 4368.03 110.29C4323.31 105.175 4284.36 122.463 4279.25 167.115Z" fill="white" stroke="black" stroke-width="3"/>
<path d="M4316.66 186.321C4314 209.606 4330.74 230.644 4354.06 233.311C4377.38 235.979 4398.45 219.265 4401.11 195.981C4403.77 172.697 4387.03 151.658 4363.71 148.991C4340.39 146.324 4319.33 163.037 4316.66 186.321Z" fill="#693875" stroke="black" stroke-width="3"/>
<path d="M4438.16 189.351L4124.21 153.438L4106.05 312.158C4104.48 325.855 4114.33 338.23 4128.05 339.799L4392.33 370.03C4406.04 371.599 4418.44 361.768 4420 348.071L4438.16 189.351Z" fill="white" stroke="black" stroke-width="3"/>
<path d="M4428.76 228.475C4430.33 214.778 4420.48 202.403 4406.76 200.834L4190.18 176.058C4176.46 174.489 4164.07 184.321 4162.5 198.017L4150.47 303.17C4148.9 316.866 4158.75 329.242 4172.47 330.811L4389.06 355.586C4402.77 357.155 4415.16 347.324 4416.73 333.627L4428.76 228.475Z" fill="black" stroke="black" stroke-width="3"/>
<rect width="99.9993" height="99.8471" transform="matrix(-0.993521 -0.113649 -0.113676 0.993518 4410.54 229.406)" stroke="black" stroke-width="3"/>
<path d="M4315.45 268.778C4312.31 296.171 4332.01 320.922 4359.45 324.06C4386.88 327.198 4411.67 307.536 4414.8 280.142C4417.93 252.749 4398.24 227.998 4370.8 224.86C4343.36 221.722 4318.58 241.384 4315.45 268.778Z" fill="white"/>
<path d="M4327.37 270.141C4324.99 290.96 4339.96 309.771 4360.81 312.156C4381.66 314.541 4400.5 299.598 4402.88 278.779C4405.26 257.96 4390.29 239.149 4369.44 236.764C4348.59 234.379 4329.75 249.323 4327.37 270.141Z" fill="black"/>
<path d="M4410.97 317.662C4404.46 316.807 4398.18 314.677 4392.49 311.396C4386.81 308.114 4381.82 303.744 4377.82 298.536C4373.83 293.327 4370.89 287.382 4369.19 281.04C4367.49 274.698 4367.06 268.084 4367.91 261.573C4368.77 255.063 4370.9 248.786 4374.18 243.098C4377.46 237.411 4381.83 232.426 4387.04 228.428C4392.25 224.43 4398.19 221.496 4404.53 219.795C4410.88 218.095 4417.49 217.66 4424 218.515L4417.48 268.089L4410.97 317.662Z" fill="black"/>
<path d="M4415 224.78C4413.57 231.189 4410.89 237.253 4407.12 242.626C4403.34 247.999 4398.55 252.577 4393.01 256.097C4387.46 259.617 4381.28 262.011 4374.81 263.143C4368.35 264.274 4361.72 264.12 4355.31 262.69C4348.9 261.26 4342.84 258.581 4337.46 254.807C4332.09 251.034 4327.51 246.239 4323.99 240.696C4320.47 235.153 4318.08 228.971 4316.95 222.504C4315.82 216.036 4315.97 209.408 4317.4 203L4366.2 213.89L4415 224.78Z" fill="black"/>
<path d="M3660.42 325.245L3635.62 320.238L3566.23 620L3605 650L3660.42 325.245Z" fill="white" stroke="black" stroke-width="3"/>
<path d="M3566.87 621.667L3605 650C3605 650 3625.97 645.648 3631.86 637.514C3637.86 629.22 3641.36 618.58 3634.07 611.391C3628.58 605.983 3616.99 609.856 3616.99 609.856C3616.99 609.856 3618.7 596.206 3612.88 592.128C3606.99 588.006 3594.63 594.518 3594.63 594.518C3594.63 594.518 3593.56 585.745 3589.63 582.553C3586.3 579.853 3583.27 578.823 3579.06 579.62C3573.85 580.607 3568 590.58 3568 590.58C3568 590.58 3563.55 599.164 3563.41 606.27C3563.29 612.127 3566.87 621.667 3566.87 621.667Z" fill="#693875" stroke="black" stroke-width="3"/>
<path d="M3607.59 332.35L3548.16 341.532C3548.16 341.532 3683.95 380.946 3700 409.5C3716.05 438.054 3689 517 3689 517L3734.5 517C3734.5 517 3747.75 447.255 3734.5 405C3721.25 362.745 3625.02 334.384 3607.59 332.35Z" fill="white" stroke="black" stroke-width="3"/>
<path d="M3734.5 517L3689 517C3689 517 3684.67 527.648 3683.89 537.659C3683.1 547.865 3686.29 557.754 3696.24 560.076C3703.73 561.823 3701.01 544.155 3701.01 544.155C3701.01 544.155 3717.29 563.971 3724.37 564.407C3731.53 564.848 3728.97 549.471 3728.97 549.471C3728.97 549.471 3740.72 560.31 3745.73 560.978C3749.97 561.543 3756.51 557.251 3756.51 557.251C3756.51 557.251 3760.94 551.939 3759.79 544.117C3758.71 536.817 3754.83 532.775 3749.37 528.12C3744.92 524.323 3734.5 517 3734.5 517Z" fill="#693875" stroke="black" stroke-width="3"/>
<path fill-rule="evenodd" clip-rule="evenodd" d="M3341.07 342.73C3341.07 342.73 3341.13 343.466 3341.25 344.682C3341.55 343.604 3341.51 342.843 3341.07 342.73Z" fill="#693875"/>
<path d="M3364.02 325.579L3332.35 286.887C3328.45 285.444 3313.55 298.084 3312.18 299.236C3310.81 300.387 3302.26 312.424 3302.63 318.446C3302.92 323.002 3304.01 328.362 3307.27 331.4C3311.62 335.46 3318.84 331.6 3320.83 327.564C3318.42 332.563 3319.4 349.465 3327.92 353.293C3334.9 356.428 3340.21 348.535 3341.25 344.684L3341.25 344.682C3341.13 343.466 3341.07 342.73 3341.07 342.73C3341.51 342.843 3341.55 343.604 3341.25 344.682L3341.25 344.684C3341.78 349.637 3343.61 362.546 3348.61 366.182C3359.67 374.229 3367.65 360.025 3367.75 348.885C3367.83 338.846 3364.02 325.579 3364.02 325.579Z" fill="#693875"/>
<path d="M3341.25 344.684L3341.25 344.682M3341.25 344.684C3340.21 348.535 3334.9 356.428 3327.92 353.293C3319.4 349.465 3318.42 332.563 3320.83 327.564C3318.84 331.6 3311.62 335.46 3307.27 331.4C3304.01 328.362 3302.92 323.002 3302.63 318.446C3302.26 312.424 3310.81 300.387 3312.18 299.236C3313.55 298.084 3328.45 285.444 3332.35 286.887L3364.02 325.579C3364.02 325.579 3367.83 338.846 3367.75 348.885C3367.65 360.025 3359.67 374.229 3348.61 366.182C3343.61 362.546 3341.78 349.637 3341.25 344.684ZM3341.25 344.682C3341.55 343.604 3341.51 342.843 3341.07 342.73C3341.07 342.73 3341.13 343.466 3341.25 344.682Z" stroke="black" stroke-width="3"/>
<path d="M3472.63 241.543C3562.88 268.416 3557.88 297.243 3559.42 302.63C3559.42 302.63 3550.43 337.253 3547.62 325.547C3544.8 313.841 3513.25 286.322 3450.79 275.086C3388.34 263.849 3363.94 326.249 3364.01 325.547L3332.34 286.875C3331.64 286.798 3382.15 214.601 3472.63 241.543Z" fill="white" stroke="black" stroke-width="3"/>
<path d="M3806.96 404.628L3821.48 356.926C3821.48 356.926 3833.45 351.001 3843.36 349.339C3853.04 347.714 3866.81 352.007 3865.89 362.204C3865.2 369.875 3848.19 376.318 3848.19 376.318C3848.19 376.318 3863.52 382.08 3861.71 388.954C3859.88 395.902 3840.36 404.778 3840.36 404.778C3840.36 404.778 3852.24 407.209 3851.3 412.187C3850.51 416.395 3849.82 418.527 3846.1 420.637C3841.48 423.251 3829.81 423.486 3829.81 423.486C3829.81 423.486 3818.43 423.345 3813.74 418.011C3809.87 413.614 3806.96 404.628 3806.96 404.628Z" fill="#693875" stroke="black" stroke-width="3"/>
<path d="M3705.71 296.132C3666.08 207.795 3644.16 186.014 3644.16 186.014L3691.9 200.597C3684.78 203.412 3722.19 234.155 3758.65 300.429C3795.12 366.703 3826.22 356.476 3821.08 358.065L3806.77 404.56C3800.37 413.788 3745.02 383.747 3705.71 296.132Z" fill="white" stroke="black" stroke-width="3"/>
<path d="M3436.79 174.63C3442.91 219.154 3484.02 250.279 3528.61 244.149C3573.2 238.02 3604.19 205.522 3598.07 160.997C3591.95 116.473 3551.04 76.7832 3506.45 82.913C3461.86 89.0428 3430.67 130.106 3436.79 174.63Z" fill="white" stroke="black" stroke-width="3"/>
<path d="M3475.54 169.304C3478.73 192.522 3500.16 208.753 3523.42 205.557C3546.67 202.36 3562.93 180.947 3559.74 157.729C3556.55 134.51 3535.12 118.28 3511.86 121.476C3488.61 124.673 3472.35 146.086 3475.54 169.304Z" fill="#693875" stroke="black" stroke-width="3"/>
<path d="M3587.47 139.645C3593.59 184.169 3634.69 215.294 3679.29 209.164C3723.88 203.034 3754.86 170.536 3748.75 126.012C3742.63 81.488 3701.72 41.7981 3657.13 47.9279C3612.54 54.0577 3581.35 95.1208 3587.47 139.645Z" fill="white" stroke="black" stroke-width="3"/>
<path d="M3626.21 134.319C3629.4 157.537 3650.84 173.768 3674.09 170.571C3697.35 167.375 3713.61 145.962 3710.42 122.744C3707.23 99.5254 3685.79 83.2947 3662.54 86.4912C3639.28 89.6877 3623.02 111.101 3626.21 134.319Z" fill="#693875" stroke="black" stroke-width="3"/>
<path d="M3748.85 125.954L3435.79 168.986L3457.54 327.255C3459.42 340.912 3472.03 350.46 3485.71 348.58L3749.23 312.356C3762.91 310.476 3772.48 297.88 3770.6 284.222L3748.85 125.954Z" fill="white" stroke="black" stroke-width="3"/>
<path d="M3749.44 166.187C3747.56 152.529 3734.95 142.982 3721.27 144.862L3505.31 174.549C3491.63 176.429 3482.06 189.025 3483.94 202.683L3498.35 307.536C3500.23 321.193 3512.84 330.741 3526.51 328.861L3742.48 299.174C3756.16 297.293 3765.73 284.697 3763.85 271.04L3749.44 166.187Z" fill="black" stroke="black" stroke-width="3"/>
<rect width="99.9993" height="99.8471" transform="matrix(-0.990684 0.136179 0.136152 0.990688 3732.02 171.606)" stroke="black" stroke-width="3"/>
<path d="M3649.65 233.321C3653.41 260.636 3678.63 279.731 3705.98 275.971C3733.34 272.21 3752.47 247.019 3748.72 219.703C3744.97 192.388 3719.75 173.293 3692.39 177.054C3665.03 180.814 3645.9 206.006 3649.65 233.321Z" fill="white"/>
<path d="M3661.54 231.687C3664.39 252.446 3683.56 266.959 3704.35 264.101C3725.14 261.243 3739.68 242.097 3736.83 221.337C3733.98 200.578 3714.81 186.066 3694.02 188.924C3673.23 191.781 3658.69 210.927 3661.54 231.687Z" fill="black"/>
<path d="M3757.76 250.339C3751.44 252.1 3744.83 252.599 3738.31 251.805C3731.79 251.012 3725.49 248.943 3719.77 245.716C3714.06 242.488 3709.03 238.166 3704.98 232.997C3700.93 227.827 3697.94 221.91 3696.18 215.585C3694.42 209.259 3693.92 202.649 3694.71 196.131C3695.51 189.613 3697.58 183.315 3700.8 177.597C3704.03 171.878 3708.35 166.852 3713.52 162.804C3718.69 158.756 3724.61 155.766 3730.94 154.004L3744.35 202.172L3757.76 250.339Z" fill="black"/>
<rect width="99.9993" height="99.8471" transform="matrix(-0.990684 0.136179 0.136152 0.990688 3601.25 189.581)" stroke="black" stroke-width="3"/>
<path d="M3529.78 249.798C3533.53 277.113 3558.75 296.208 3586.11 292.448C3613.47 288.687 3632.6 263.495 3628.85 236.18C3625.09 208.865 3599.87 189.77 3572.52 193.53C3545.16 197.291 3526.03 222.483 3529.78 249.798Z" fill="white"/>
<path d="M3541.67 248.164C3544.52 268.924 3563.69 283.436 3584.48 280.578C3605.27 277.72 3619.81 258.574 3616.96 237.814C3614.11 217.055 3594.94 202.543 3574.15 205.401C3553.36 208.259 3538.81 227.404 3541.67 248.164Z" fill="black"/>
<path d="M3635 268.429C3628.54 269.588 3621.91 269.463 3615.49 268.061C3609.08 266.659 3603 264.007 3597.61 260.257C3592.22 256.506 3587.62 251.731 3584.08 246.204C3580.54 240.677 3578.12 234.505 3576.96 228.042C3575.8 221.579 3575.92 214.951 3577.32 208.537C3578.73 202.122 3581.38 196.047 3585.13 190.657C3588.88 185.267 3593.65 180.669 3599.18 177.125C3604.71 173.58 3610.88 171.159 3617.34 170L3626.17 219.215L3635 268.429Z" fill="black"/>
<path d="M3616.08 181C3616.6 187.546 3615.82 194.129 3613.79 200.374C3611.76 206.618 3608.52 212.402 3604.25 217.394C3599.99 222.387 3594.78 226.49 3588.93 229.471C3583.08 232.451 3576.7 234.25 3570.15 234.764C3563.61 235.279 3557.03 234.499 3550.78 232.47C3544.54 230.44 3538.75 227.2 3533.76 222.935C3528.77 218.671 3524.66 213.464 3521.68 207.614C3518.7 201.763 3516.9 195.382 3516.39 188.836L3566.24 184.918L3616.08 181Z" fill="black"/>
<path d="M3532.7 306.498C3531.49 300.043 3531.57 293.415 3532.93 286.99C3534.29 280.566 3536.89 274.472 3540.61 269.056C3544.32 263.64 3549.06 259.008 3554.56 255.425C3560.07 251.842 3566.22 249.378 3572.68 248.173C3579.13 246.969 3585.76 247.047 3592.18 248.404C3598.61 249.761 3604.7 252.371 3610.12 256.083C3615.53 259.795 3620.17 264.538 3623.75 270.04C3627.33 275.543 3629.8 281.697 3631 288.151L3581.85 297.325L3532.7 306.498Z" fill="black"/>
<path d="M3018.71 354.118L2993.2 346.947L2940 650L2986 650L3018.71 354.118Z" fill="white" stroke="black" stroke-width="3"/>
<path d="M2940 650H2986C2986 650 3002.53 637.451 3002.96 627.418C3003.4 617.189 3000.45 606.384 2990.41 604.401C2982.85 602.91 2975.31 612.527 2975.31 612.527C2975.31 612.527 2969.21 600.197 2962.11 600.002C2954.93 599.805 2948.2 612.048 2948.2 612.048C2948.2 612.048 2942.47 605.32 2937.43 604.822C2933.17 604.402 2930.07 605.214 2927 608.197C2923.19 611.893 2923.81 623.439 2923.81 623.439C2923.81 623.439 2924.82 633.055 2928.62 639.062C2931.75 644.012 2940 650 2940 650Z" fill="#693875" stroke="black" stroke-width="3"/>
<path d="M2968 361.969L2908 366C2908 366 2992.5 389.5 2992.5 417.5C2992.5 445.5 2907.02 519.048 2902 511L2937.5 540C2937.5 540 3023 465 3023 424C3023 383 2985.19 365.496 2968 361.969Z" fill="white" stroke="black" stroke-width="3"/>
<path d="M2937.77 540.877L2901.28 510.411C2901.28 510.411 2891.41 515.639 2884.32 522.75C2877.09 529.999 2873.1 539.59 2879.16 547.818C2883.73 554.008 2893.13 538.802 2893.13 538.802C2893.13 538.802 2892.65 564.441 2897.75 569.371C2902.91 574.354 2910.95 560.995 2910.95 560.995C2910.95 560.995 2912.85 576.865 2916.23 580.628C2919.09 583.808 2926.84 584.786 2926.84 584.786C2926.84 584.786 2933.66 583.621 2937.86 576.921C2941.78 570.669 2941.45 565.077 2940.32 557.992C2939.4 552.215 2937.77 540.877 2937.77 540.877Z" fill="#693875" stroke="black" stroke-width="3"/>
<path fill-rule="evenodd" clip-rule="evenodd" d="M2691.04 328.249C2691.04 328.249 2691.09 328.985 2691.22 330.202C2691.51 329.123 2691.47 328.362 2691.04 328.249Z" fill="#693875"/>
<path d="M2713.99 311.098L2682.31 272.407C2678.41 270.964 2663.51 283.603 2662.14 284.755C2660.77 285.906 2652.22 297.943 2652.6 303.966C2652.89 308.521 2653.98 313.882 2657.23 316.92C2661.58 320.979 2668.81 317.119 2670.79 313.083C2668.39 318.082 2669.36 334.984 2677.88 338.812C2684.86 341.948 2690.17 334.055 2691.22 330.203L2691.22 330.202C2691.09 328.985 2691.04 328.249 2691.04 328.249C2691.47 328.362 2691.51 329.123 2691.22 330.202L2691.22 330.203C2691.74 335.156 2693.57 348.065 2698.57 351.701C2709.63 359.749 2717.61 345.544 2717.71 334.404C2717.8 324.366 2713.99 311.098 2713.99 311.098Z" fill="#693875"/>
<path d="M2691.22 330.203L2691.22 330.202M2691.22 330.203C2690.17 334.055 2684.86 341.948 2677.88 338.812C2669.36 334.984 2668.39 318.082 2670.79 313.083C2668.81 317.119 2661.58 320.979 2657.23 316.92C2653.98 313.882 2652.89 308.521 2652.6 303.966C2652.22 297.943 2660.77 285.906 2662.14 284.755C2663.51 283.603 2678.41 270.964 2682.31 272.407L2713.99 311.098C2713.99 311.098 2717.8 324.366 2717.71 334.404C2717.61 345.544 2709.63 359.749 2698.57 351.701C2693.57 348.065 2691.74 335.156 2691.22 330.203ZM2691.22 330.202C2691.51 329.123 2691.47 328.362 2691.04 328.249C2691.04 328.249 2691.09 328.985 2691.22 330.202Z" stroke="black" stroke-width="3"/>
<path d="M2822.6 227.062C2912.85 253.936 2907.84 282.762 2909.39 288.149C2909.39 288.149 2900.4 322.772 2897.58 311.066C2894.76 299.36 2863.21 271.842 2800.75 260.605C2738.3 249.368 2713.9 311.768 2713.97 311.066L2682.3 272.394C2681.6 272.317 2732.11 200.121 2822.6 227.062Z" fill="white" stroke="black" stroke-width="3"/>
<path fill-rule="evenodd" clip-rule="evenodd" d="M3147.8 502.459C3147.8 502.459 3147.23 502.925 3146.25 503.663C3146.84 502.712 3147.42 502.222 3147.8 502.459Z" fill="#693875"/>
<path d="M3144.61 473.986L3194.5 470.623C3198.22 472.481 3199.19 491.994 3199.29 493.781C3199.39 495.568 3196.46 510.042 3191.81 513.885C3188.29 516.792 3183.63 519.663 3179.19 519.367C3173.25 518.973 3171.12 511.06 3172.71 506.853C3170.71 512.026 3157.71 522.876 3149.09 519.279C3142.03 516.333 3144.16 507.063 3146.25 503.665L3146.25 503.663C3147.23 502.925 3147.8 502.459 3147.8 502.459C3147.42 502.222 3146.84 502.712 3146.25 503.663L3146.25 503.665C3142.28 506.669 3131.61 514.168 3125.54 513.01C3112.1 510.445 3117 494.908 3125.06 487.216C3132.32 480.285 3144.61 473.986 3144.61 473.986Z" fill="#693875"/>
<path d="M3146.25 503.665L3146.25 503.663M3146.25 503.665C3144.16 507.063 3142.03 516.333 3149.09 519.279C3157.71 522.876 3170.71 512.026 3172.71 506.853C3171.12 511.06 3173.25 518.973 3179.19 519.367C3183.63 519.663 3188.29 516.792 3191.81 513.885C3196.46 510.042 3199.39 495.568 3199.29 493.781C3199.19 491.994 3198.22 472.481 3194.5 470.623L3144.61 473.986C3144.61 473.986 3132.32 480.285 3125.06 487.216C3117 494.908 3112.1 510.445 3125.54 513.01C3131.61 514.168 3142.28 506.669 3146.25 503.665ZM3146.25 503.663C3146.84 502.712 3147.42 502.222 3147.8 502.459C3147.8 502.459 3147.23 502.925 3146.25 503.663Z" stroke="black" stroke-width="3"/>
<path d="M3131.61 337.279C3050.26 289.834 3032.66 313.207 3027.68 315.764C3027.68 315.764 3012.2 347.831 3022.67 341.879C3033.14 335.927 3074.79 340.116 3125.71 377.983C3176.63 415.851 3144.18 474.51 3144.64 473.973L3194.52 470.622C3195.05 471.081 3213.15 384.846 3131.61 337.279Z" fill="white" stroke="black" stroke-width="3"/>
<path d="M2955.77 170.333C2958.03 215.219 2996.31 249.767 3041.26 247.499C3086.22 245.231 3119.89 215.521 3117.62 170.636C3115.36 125.75 3078.02 82.6856 3033.07 84.9537C2988.12 87.2218 2953.51 125.447 2955.77 170.333Z" fill="white" stroke="black" stroke-width="3"/>
<path d="M2994.83 168.363C2996.01 191.769 3015.97 209.785 3039.41 208.602C3062.85 207.42 3080.9 187.486 3079.72 164.079C3078.54 140.673 3058.58 122.657 3035.14 123.84C3011.7 125.022 2993.65 144.956 2994.83 168.363Z" fill="#693875" stroke="black" stroke-width="3"/>
<path d="M2802.16 187.686C2804.43 232.572 2843.69 281.92 2888.65 279.652C2933.6 277.384 2968.21 239.158 2965.94 194.272C2963.68 149.387 2925.4 114.838 2880.45 117.107C2835.5 119.375 2799.9 142.801 2802.16 187.686Z" fill="white" stroke="black" stroke-width="3"/>
<path d="M2842.24 200.996C2843.42 224.402 2863.38 242.418 2886.83 241.236C2910.27 240.053 2928.31 220.119 2927.13 196.713C2925.95 173.306 2905.99 155.29 2882.55 156.473C2859.11 157.655 2841.06 177.589 2842.24 200.996Z" fill="#693875" stroke="black" stroke-width="3"/>
<path d="M3117.7 170.106L2802.1 186.027L2810.15 345.581C2810.84 359.349 2822.58 369.947 2836.37 369.251L3102.03 355.849C3115.82 355.153 3126.44 343.428 3125.74 329.659L3117.7 170.106Z" fill="white" stroke="black" stroke-width="3"/>
<path d="M3114.86 210.721C3114.16 196.953 3102.42 186.355 3088.63 187.051L2870.91 198.034C2857.12 198.73 2846.5 210.455 2847.2 224.224L2852.53 329.928C2853.22 343.697 2864.96 354.294 2878.75 353.599L3096.48 342.615C3110.27 341.919 3120.88 330.194 3120.19 316.425L3114.86 210.721Z" fill="black" stroke="black" stroke-width="3"/>
<rect width="99.9993" height="99.8471" transform="matrix(-0.99873 0.0503838 0.0503571 0.998731 3097.03 214.62)" stroke="black" stroke-width="3"/>
<path d="M3009.66 269.015C3011.05 296.552 3034.53 317.747 3062.11 316.356C3089.69 314.965 3110.92 291.514 3109.53 263.977C3108.14 236.44 3084.66 215.244 3057.08 216.636C3029.5 218.027 3008.27 241.478 3009.66 269.015Z" fill="white"/>
<path d="M3021.64 268.41C3022.7 289.339 3040.55 305.447 3061.51 304.39C3082.47 303.332 3098.6 285.509 3097.55 264.581C3096.49 243.653 3078.65 227.545 3057.69 228.602C3036.73 229.659 3020.59 247.482 3021.64 268.41Z" fill="black"/>
<rect width="99.9993" height="99.8471" transform="matrix(-0.99873 0.0503838 0.0503571 0.998731 2965.2 221.27)" stroke="black" stroke-width="3"/>
<path d="M2888.81 275.111C2890.2 302.648 2913.69 323.843 2941.26 322.452C2968.84 321.06 2990.08 297.609 2988.69 270.072C2987.3 242.535 2963.82 221.34 2936.24 222.731C2908.66 224.123 2887.43 247.574 2888.81 275.111Z" fill="white"/>
<path d="M2900.8 274.506C2901.85 295.434 2919.7 311.543 2940.66 310.485C2961.62 309.428 2977.76 291.605 2976.7 270.677C2975.65 249.749 2957.8 233.64 2936.84 234.698C2915.88 235.755 2899.74 253.578 2900.8 274.506Z" fill="black"/>
<path d="M2995.52 322.63C2988.96 322.237 2982.55 320.557 2976.64 317.685C2970.74 314.813 2965.46 310.807 2961.1 305.894C2956.75 300.982 2953.4 295.259 2951.25 289.053C2949.11 282.847 2948.21 276.28 2948.6 269.725C2948.99 263.171 2950.67 256.758 2953.55 250.853C2956.42 244.948 2960.42 239.667 2965.34 235.311C2970.25 230.954 2975.97 227.608 2982.18 225.463C2988.38 223.318 2994.95 222.417 3001.51 222.81L2998.51 272.72L2995.52 322.63Z" fill="black"/>
<path d="M2975.08 213C2975.6 219.546 2974.82 226.129 2972.79 232.374C2970.76 238.618 2967.52 244.402 2963.25 249.394C2958.99 254.387 2953.78 258.49 2947.93 261.471C2942.08 264.451 2935.7 266.25 2929.16 266.764C2922.61 267.279 2916.03 266.499 2909.78 264.47C2903.54 262.44 2897.75 259.2 2892.76 254.935C2887.77 250.671 2883.66 245.464 2880.68 239.614C2877.7 233.763 2875.91 227.382 2875.39 220.836L2925.24 216.918L2975.08 213Z" fill="black"/>
<path d="M2351.88 358.19L2312.18 349.674C2310.65 340.942 2318.05 416.404 2267.3 443.037C2216.55 469.669 2184.03 413.328 2180.46 418.498C2180.46 418.498 2153.99 458.111 2151.97 454.998C2149.95 451.884 2231.8 519.368 2285.96 479.498C2340.13 439.628 2334.16 405.797 2351.88 358.19Z" fill="white" stroke="black" stroke-width="3"/>
<path d="M2179.98 416.413L2152.31 455.065C2152.31 455.065 2158.26 464.516 2165.87 471.06C2173.64 477.73 2183.5 481.003 2191.25 474.343C2197.09 469.333 2181.23 461.087 2181.23 461.087C2181.23 461.087 2206.83 459.665 2211.37 454.207C2215.96 448.69 2202.04 441.67 2202.04 441.67C2202.04 441.67 2217.72 438.597 2221.22 434.947C2224.18 431.861 2224.58 424.052 2224.58 424.052C2224.58 424.052 2222.92 417.338 2215.92 413.648C2209.4 410.204 2203.84 410.945 2196.86 412.598C2191.17 413.946 2179.98 416.413 2179.98 416.413Z" fill="#693875" stroke="black" stroke-width="3"/>
<path d="M2497.51 351.185C2453.37 330.741 2435.46 334.719 2435.46 334.719L2425.04 282.118C2446.09 288.81 2540.21 325.61 2567.35 352.011C2594.49 378.411 2576.81 437.047 2570.87 439.185L2530.41 420.534C2530.41 420.534 2562.01 381.055 2497.51 351.185Z" fill="white" stroke="black" stroke-width="3"/>
<path d="M2530.12 419.585L2571.61 439.019C2571.61 439.019 2567.52 452.053 2561.24 459.885C2553.8 469.156 2543.58 475.253 2534.04 471.555C2524.6 467.9 2534.94 453.778 2536.92 455.487C2535.87 456.835 2518.38 461.768 2513.86 456.358C2509.25 450.845 2514.79 444.548 2514.79 444.548C2514.79 444.548 2506.79 445.257 2498.65 438.329C2490.52 431.401 2503.95 422.418 2503.95 422.418C2503.95 422.418 2513.03 419.04 2519.39 419.039C2525.25 419.038 2530.12 419.585 2530.12 419.585Z" fill="#693875" stroke="black" stroke-width="3"/>
<path d="M2372.49 392L2346.49 392C2346.49 392 2365.42 406.439 2372.49 440C2383.13 524.998 2372.37 570.344 2363.99 650L2412.99 650C2407.74 567.155 2408.88 470.172 2401.99 440C2395.09 409.828 2372.49 392 2372.49 392Z" fill="white" stroke="black" stroke-width="3"/>
<path d="M2363.98 650L2412.98 650C2412.98 650 2426.51 637.451 2426.94 627.418C2427.38 617.19 2424.44 606.384 2414.39 604.402C2406.84 602.91 2399.3 612.527 2399.3 612.527C2399.3 612.527 2393.2 600.198 2386.1 600.002C2378.91 599.805 2372.19 612.049 2372.19 612.049C2372.19 612.049 2366.46 605.32 2361.42 604.823C2357.16 604.402 2354.06 605.215 2350.98 608.198C2347.18 611.893 2347.79 623.44 2347.79 623.44C2347.79 623.44 2348.81 633.056 2352.61 639.062C2355.74 644.013 2363.98 650 2363.98 650Z" fill="#693875" stroke="black" stroke-width="3"/>
<path d="M2126.08 329.093C2182.09 250.119 2211.69 234.908 2211.69 234.908L2210.08 285.096C2220.87 294.318 2150.59 396.835 2105.28 403.243C2059.96 409.652 2028.25 380.859 2028.25 380.859C2028.25 380.859 2053.77 350.209 2055.71 345.301C2057.65 340.393 2083.3 389.421 2126.08 329.093Z" fill="white" stroke="black" stroke-width="3"/>
<path d="M2055.53 345.358L2028.23 380.849C2028.23 380.849 2015.58 374.644 2009.35 366.791C2001.97 357.496 2000.26 345.531 2005.99 337.044C2011.65 328.657 2019.3 344.332 2017.19 345.887C2016.11 344.558 2017.05 324.615 2023.32 321.401C2029.72 318.127 2034.62 324.917 2034.62 324.917C2034.62 324.917 2035.71 316.958 2044.27 310.561C2052.82 304.164 2058.59 319.238 2058.59 319.238C2058.59 319.238 2059.3 328.82 2057.88 335.021C2056.58 340.73 2055.53 345.358 2055.53 345.358Z" fill="#693875" stroke="black" stroke-width="3"/>
<path d="M2329.84 236.653C2324.54 281.283 2356.49 321.758 2401.19 327.057C2445.88 332.355 2484.64 281.283 2489.93 236.653C2495.22 192.023 2465.05 170.736 2420.35 165.437C2375.65 160.139 2335.13 192.023 2329.84 236.653Z" fill="white" stroke="black" stroke-width="3"/>
<path d="M2368.67 241.257C2365.91 264.53 2382.57 285.637 2405.88 288.4C2429.19 291.163 2450.32 274.536 2453.08 251.263C2455.84 227.989 2439.18 206.883 2415.87 204.12C2392.57 201.357 2371.43 217.984 2368.67 241.257Z" fill="#693875" stroke="black" stroke-width="3"/>
<circle cx="81.5" cy="81.5" r="81.5" transform="matrix(-1 -6.25423e-09 -2.10541e-08 1 2338.58 124.055)" fill="white" stroke="black" stroke-width="3"/>
<circle cx="42.5" cy="42.5" r="42.5" transform="matrix(-1 -6.25423e-09 -2.10541e-08 1 2299.69 163.055)" fill="#693875" stroke="black" stroke-width="3"/>
<path d="M2489.5 235.108L2175.7 197.907L2156.89 356.552C2155.26 370.242 2165.06 382.658 2178.77 384.283L2442.92 415.597C2456.63 417.223 2469.06 407.442 2470.69 393.752L2489.5 235.108Z" fill="white" stroke="black" stroke-width="3"/>
<path d="M2479.94 274.193C2481.56 260.503 2471.76 248.087 2458.05 246.462L2241.57 220.798C2227.86 219.173 2215.43 228.953 2213.8 242.644L2201.34 347.746C2199.72 361.436 2209.52 373.852 2223.23 375.477L2439.71 401.141C2453.42 402.766 2465.85 392.986 2467.48 379.295L2479.94 274.193Z" fill="black" stroke="black" stroke-width="3"/>
<rect width="99.9993" height="99.8471" transform="matrix(-0.993046 -0.117723 -0.11775 0.993043 2461.71 275.05)" stroke="black" stroke-width="3"/>
<path d="M2366.46 314.031C2363.21 341.411 2382.81 366.242 2410.23 369.493C2437.65 372.744 2462.52 353.183 2465.76 325.803C2469.01 298.423 2449.41 273.591 2421.99 270.341C2394.57 267.09 2369.71 286.651 2366.46 314.031Z" fill="white"/>
<path d="M2378.38 315.443C2375.91 336.252 2390.8 355.124 2411.64 357.595C2432.48 360.065 2451.38 345.199 2453.85 324.39C2456.31 303.581 2441.42 284.71 2420.58 282.239C2399.74 279.768 2380.84 294.634 2378.38 315.443Z" fill="black"/>
<path d="M2454.44 387.741C2448 386.42 2441.9 383.844 2436.46 380.161C2431.02 376.479 2426.36 371.762 2422.75 366.279C2419.14 360.797 2416.64 354.656 2415.4 348.208C2414.16 341.76 2414.2 335.131 2415.52 328.7C2416.85 322.268 2419.42 316.16 2423.1 310.723C2426.79 305.287 2431.5 300.629 2436.99 297.016C2442.47 293.403 2448.61 290.905 2455.06 289.665C2461.5 288.425 2468.13 288.467 2474.57 289.788L2464.5 338.765L2454.44 387.741Z" fill="black"/>
<rect width="99.9993" height="99.8471" transform="matrix(-0.993046 -0.117723 -0.11775 0.993043 2330.63 259.509)" stroke="black" stroke-width="3"/>
<path d="M2246.3 299.785C2243.05 327.166 2262.65 351.997 2290.07 355.248C2317.5 358.499 2342.36 338.938 2345.6 311.558C2348.85 284.177 2329.25 259.346 2301.83 256.095C2274.41 252.845 2249.55 272.405 2246.3 299.785Z" fill="white"/>
<path d="M2258.22 301.198C2255.75 322.007 2270.64 340.879 2291.48 343.349C2312.33 345.82 2331.22 330.954 2333.69 310.145C2336.16 289.336 2321.26 270.464 2300.42 267.994C2279.58 265.523 2260.68 280.389 2258.22 301.198Z" fill="black"/>
<path d="M2353 260.089C2352.2 266.607 2350.13 272.905 2346.9 278.623C2343.68 284.341 2339.35 289.367 2334.18 293.415C2329.01 297.462 2323.1 300.452 2316.77 302.213C2310.45 303.974 2303.84 304.471 2297.32 303.677C2290.8 302.884 2284.5 300.814 2278.78 297.586C2273.07 294.358 2268.04 290.036 2263.99 284.866C2259.94 279.695 2256.96 273.779 2255.19 267.453C2253.43 261.127 2252.94 254.517 2253.73 247.999L2303.36 254.044L2353 260.089Z" fill="black"/>
<path d="M1672.45 369.041L1697.68 360.953L1724.74 423.738L1763.36 650.873L1702.12 618.905L1697.68 429.498L1672.45 369.041Z" fill="white" stroke="black" stroke-width="3" stroke-linecap="round" stroke-linejoin="round"/>
<path d="M1702.17 619.796L1763.1 650.812C1763.1 650.812 1774.76 645.259 1776.47 635.363C1778.21 625.274 1775.94 617.504 1767.73 611.385C1761.22 606.529 1747.85 604.537 1747.23 606.403C1747.23 606.403 1742.55 593.928 1735.53 592.827C1728.43 591.715 1720.11 600.396 1720.11 600.396C1717.07 592.854 1711.87 587.809 1711.87 587.809C1708.84 583.005 1689.79 576.764 1689.55 590.239C1689.55 590.239 1689.18 599.049 1692.18 605.491C1694.66 610.801 1702.17 619.796 1702.17 619.796Z" fill="#693875" stroke="black" stroke-width="3"/>
<path d="M1663.96 361.669L1624.25 353.154C1622.73 344.421 1630.13 419.884 1579.38 446.516C1528.63 473.148 1496.11 416.807 1492.54 421.977C1492.54 421.977 1466.07 461.59 1464.05 458.477C1462.02 455.364 1543.87 522.848 1598.04 482.977C1652.21 443.107 1646.23 409.276 1663.96 361.669Z" fill="white" stroke="black" stroke-width="3"/>
<path d="M1492.06 419.892L1464.39 458.544C1464.39 458.544 1470.33 467.995 1477.95 474.539C1485.72 481.21 1495.58 484.482 1503.33 477.822C1509.17 472.812 1493.3 464.566 1493.3 464.566C1493.3 464.566 1518.91 463.144 1523.45 457.687C1528.03 452.17 1514.11 445.15 1514.11 445.15C1514.11 445.15 1529.8 442.077 1533.3 438.427C1536.26 435.341 1536.66 427.532 1536.66 427.532C1536.66 427.532 1534.99 420.817 1528 417.127C1521.47 413.684 1515.92 414.425 1508.94 416.078C1503.25 417.426 1492.06 419.892 1492.06 419.892Z" fill="#693875" stroke="black" stroke-width="3"/>
<path fill-rule="evenodd" clip-rule="evenodd" d="M1412.86 465.619C1412.86 465.619 1412.14 465.45 1410.96 465.126C1412.08 465.011 1412.82 465.175 1412.86 465.619Z" fill="#693875"/>
<path d="M1433.49 445.739L1466.56 483.247C1467.36 487.33 1452.48 499.991 1451.12 501.157C1449.76 502.323 1436.5 508.822 1430.62 507.475C1426.17 506.456 1421.06 504.514 1418.58 500.812C1415.28 495.866 1420.26 489.355 1424.56 488.05C1419.24 489.615 1402.72 485.921 1400.31 476.894C1398.35 469.5 1406.99 465.537 1410.96 465.126L1410.96 465.126C1412.14 465.45 1412.86 465.619 1412.86 465.619C1412.82 465.175 1412.08 465.011 1410.96 465.126L1410.96 465.126C1406.16 463.807 1393.71 459.92 1390.93 454.4C1384.78 442.183 1400.08 436.602 1411.09 438.304C1421.01 439.838 1433.49 445.739 1433.49 445.739Z" fill="#693875"/>
<path d="M1410.96 465.126L1410.96 465.126M1410.96 465.126C1406.99 465.537 1398.35 469.5 1400.31 476.894C1402.72 485.921 1419.24 489.615 1424.56 488.05C1420.26 489.355 1415.28 495.866 1418.58 500.812C1421.06 504.514 1426.17 506.456 1430.62 507.475C1436.5 508.822 1449.76 502.323 1451.12 501.157C1452.48 499.991 1467.36 487.33 1466.56 483.247L1433.49 445.739C1433.49 445.739 1421.01 439.838 1411.09 438.304C1400.08 436.602 1384.78 442.183 1390.93 454.4C1393.71 459.92 1406.16 463.807 1410.96 465.126ZM1410.96 465.126C1412.08 465.011 1412.82 465.175 1412.86 465.619C1412.86 465.619 1412.14 465.45 1410.96 465.126Z" stroke="black" stroke-width="3"/>
<path d="M1508.49 374.498C1502.75 292.838 1535.17 281.452 1513.29 268.552C1513.29 268.552 1511.49 220.998 1503.99 236.998C1496.49 252.998 1457.52 296.477 1466.58 364.3C1475.63 432.123 1437.86 448.455 1433.52 445.756L1466.58 483.258C1466.58 489.3 1513.25 442.093 1508.49 374.498Z" fill="white" stroke="black" stroke-width="3"/>
<path d="M1850.51 326.185C1806.37 305.741 1788.46 309.719 1788.46 309.719L1778.04 257.118C1799.09 263.81 1893.21 300.61 1920.35 327.011C1947.49 353.411 1929.8 412.047 1923.86 414.185L1883.41 395.534C1883.41 395.534 1915.01 356.055 1850.51 326.185Z" fill="white" stroke="black" stroke-width="3"/>
<path d="M1883.11 394.585L1924.61 414.019C1924.61 414.019 1920.52 427.053 1914.23 434.885C1906.79 444.156 1896.58 450.253 1887.04 446.555C1877.6 442.9 1887.94 428.778 1889.92 430.487C1888.86 431.835 1871.38 436.768 1866.86 431.358C1862.25 425.845 1867.79 419.548 1867.79 419.548C1867.79 419.548 1859.78 420.257 1851.65 413.329C1843.52 406.401 1856.95 397.418 1856.95 397.418C1856.95 397.418 1866.02 394.04 1872.39 394.039C1878.24 394.038 1883.11 394.585 1883.11 394.585Z" fill="#693875" stroke="black" stroke-width="3"/>
<path d="M1510.1 156.316C1505.14 201.052 1537.38 241.345 1582.11 246.311C1626.85 251.278 1664.85 227.307 1669.82 182.571C1674.78 137.834 1644.84 89.2737 1600.1 84.3069C1555.36 79.3401 1515.07 111.58 1510.1 156.316Z" fill="white" stroke="black" stroke-width="3"/>
<path d="M1548.97 160.632C1546.38 183.96 1563.2 204.972 1586.52 207.562C1609.85 210.152 1630.86 193.34 1633.45 170.011C1636.04 146.682 1619.23 125.671 1595.9 123.081C1572.58 120.491 1551.56 137.303 1548.97 160.632Z" fill="#693875" stroke="black" stroke-width="3"/>
<path d="M1663.39 171.238C1658.42 215.974 1689.27 271.056 1734 276.023C1778.74 280.989 1819.03 248.75 1824 204.014C1828.96 159.277 1796.73 118.985 1751.99 114.018C1707.25 109.051 1668.36 126.501 1663.39 171.238Z" fill="white" stroke="black" stroke-width="3"/>
<path d="M1700.86 190.343C1698.27 213.671 1715.09 234.683 1738.41 237.273C1761.74 239.863 1782.75 223.051 1785.34 199.722C1787.93 176.393 1771.12 155.382 1747.79 152.792C1724.46 150.202 1703.45 167.014 1700.86 190.343Z" fill="#693875" stroke="black" stroke-width="3"/>
<path d="M1823.81 199.278L1509.74 164.408L1492.08 323.431C1490.56 337.154 1500.45 349.514 1514.17 351.037L1778.55 380.389C1792.27 381.913 1804.63 372.024 1806.16 358.301L1823.81 199.278Z" fill="white" stroke="black" stroke-width="3"/>
<path d="M1814.53 238.494C1816.06 224.771 1806.17 212.411 1792.45 210.888L1575.78 186.832C1562.05 185.309 1549.69 195.198 1548.17 208.921L1536.47 314.274C1534.95 327.997 1544.84 340.356 1558.56 341.88L1775.23 365.935C1788.95 367.459 1801.31 357.569 1802.84 343.846L1814.53 238.494Z" fill="black" stroke="black" stroke-width="3"/>
<rect width="100" height="100" transform="matrix(-0.993893 -0.110346 -0.110346 0.993893 1796.31 239.489)" stroke="black" stroke-width="3"/>
<path d="M1701.35 279.253C1698.3 306.698 1718.08 331.418 1745.52 334.465C1772.97 337.512 1797.69 317.733 1800.74 290.287C1803.78 262.842 1784 238.123 1756.56 235.075C1729.11 232.028 1704.39 251.807 1701.35 279.253Z" fill="white"/>
<path d="M1713.27 280.577C1710.96 301.436 1725.99 320.222 1746.85 322.538C1767.71 324.854 1786.49 309.822 1788.81 288.963C1791.12 268.105 1776.09 249.318 1755.23 247.002C1734.37 244.686 1715.59 259.718 1713.27 280.577Z" fill="black"/>
<path d="M1702.27 336.687C1708.67 335.209 1714.72 332.485 1720.06 328.671C1725.41 324.857 1729.95 320.028 1733.43 314.459C1736.9 308.89 1739.25 302.691 1740.33 296.214C1741.42 289.738 1741.21 283.112 1739.74 276.715C1738.26 270.317 1735.53 264.273 1731.72 258.928C1727.91 253.583 1723.08 249.042 1717.51 245.564C1711.94 242.085 1705.74 239.737 1699.26 238.655C1692.79 237.572 1686.16 237.776 1679.76 239.254L1691.02 287.97L1702.27 336.687Z" fill="black"/>
<path d="M1802.78 231.761C1802.02 238.283 1799.99 244.592 1796.79 250.327C1793.59 256.062 1789.3 261.112 1784.15 265.187C1779 269.262 1773.1 272.284 1766.79 274.078C1760.47 275.873 1753.86 276.406 1747.34 275.648C1740.82 274.889 1734.51 272.853 1728.77 269.656C1723.04 266.459 1717.99 262.163 1713.91 257.015C1709.84 251.867 1706.82 245.966 1705.02 239.65C1703.23 233.334 1702.69 226.726 1703.45 220.204L1753.12 225.983L1802.78 231.761Z" fill="black"/>
<rect width="100" height="100" transform="matrix(-0.993893 -0.110346 -0.110346 0.993893 1665.12 224.924)" stroke="black" stroke-width="3"/>
<path d="M1581.09 265.901C1578.04 293.347 1597.82 318.066 1625.26 321.113C1652.71 324.16 1677.43 304.381 1680.47 276.936C1683.52 249.49 1663.74 224.771 1636.3 221.724C1608.85 218.677 1584.13 238.455 1581.09 265.901Z" fill="white"/>
<path d="M1593.01 267.225C1590.7 288.084 1605.73 306.87 1626.59 309.186C1647.45 311.502 1666.23 296.47 1668.55 275.611C1670.86 254.753 1655.83 235.966 1634.97 233.65C1614.11 231.335 1595.33 246.366 1593.01 267.225Z" fill="black"/>
<path d="M996.115 324.878L971.314 319.871L901.927 619.632L940.693 649.632L996.115 324.878Z" fill="white" stroke="black" stroke-width="3"/>
<path d="M902.569 621.3L940.693 649.633C940.693 649.633 961.662 645.281 967.55 637.146C973.553 628.853 977.049 618.213 969.76 611.024C964.276 605.616 952.689 609.489 952.689 609.489C952.689 609.489 954.392 595.839 948.57 591.761C942.686 587.639 930.328 594.151 930.328 594.151C930.328 594.151 929.253 585.378 925.321 582.185C921.996 579.486 918.962 578.456 914.754 579.253C909.542 580.24 903.692 590.213 903.692 590.213C903.692 590.213 899.239 598.797 899.101 605.903C898.987 611.76 902.569 621.3 902.569 621.3Z" fill="#693875" stroke="black" stroke-width="3"/>
<path d="M1073.76 315.214L1014.33 324.396C1014.33 324.396 1150.11 363.81 1166.16 392.364C1182.22 420.918 1123.51 494.501 1123.51 494.501L1173.52 498.002C1173.52 498.002 1213.92 430.119 1200.66 387.864C1187.41 345.608 1091.18 317.248 1073.76 315.214Z" fill="white" stroke="black" stroke-width="3"/>
<path d="M1173.66 498.536L1124.5 494.5C1124.5 494.5 1121.05 505.079 1119.5 515C1117.92 525.115 1122.45 535.45 1132.19 538.532C1139.53 540.852 1138.18 523.027 1138.18 523.027C1138.18 523.027 1152.88 544.039 1159.9 545.02C1167.01 546.012 1165.64 530.484 1165.64 530.484C1165.64 530.484 1176.52 542.197 1181.47 543.25C1185.65 544.14 1192.5 540.365 1192.5 540.365C1192.5 540.365 1197.33 535.411 1196.78 527.522C1196.27 520.162 1192.71 515.833 1187.63 510.77C1183.48 506.642 1173.66 498.536 1173.66 498.536Z" fill="#693875" stroke="black" stroke-width="3"/>
<path d="M1204.51 288.185C1160.37 267.741 1142.46 271.719 1142.46 271.719L1132.04 219.118C1153.09 225.81 1247.21 262.61 1274.35 289.011C1301.49 315.411 1283.8 374.047 1277.86 376.185L1237.41 357.534C1237.41 357.534 1269.01 318.055 1204.51 288.185Z" fill="white" stroke="black" stroke-width="3"/>
<path d="M1237.11 356.585L1278.61 376.019C1278.61 376.019 1274.52 389.053 1268.23 396.885C1260.79 406.156 1250.58 412.253 1241.04 408.555C1231.6 404.9 1241.94 390.778 1243.92 392.487C1242.86 393.835 1225.38 398.768 1220.86 393.358C1216.25 387.845 1221.79 381.548 1221.79 381.548C1221.79 381.548 1213.78 382.257 1205.65 375.329C1197.52 368.401 1210.95 359.418 1210.95 359.418C1210.95 359.418 1220.02 356.04 1226.39 356.039C1232.24 356.038 1237.11 356.585 1237.11 356.585Z" fill="#693875" stroke="black" stroke-width="3"/>
<path fill-rule="evenodd" clip-rule="evenodd" d="M1035.6 431.216C1035.6 431.216 1036.11 430.676 1036.91 429.752C1035.92 430.273 1035.39 430.823 1035.6 431.216Z" fill="#693875"/>
<path d="M1007.41 426.14L1000.73 475.696C1002.34 479.533 1021.75 481.8 1023.52 482.016C1025.3 482.232 1039.94 480.273 1044.08 475.886C1047.21 472.568 1050.39 468.113 1050.39 463.661C1050.39 457.713 1042.64 455.062 1038.33 456.366C1043.63 454.712 1055.32 442.465 1052.3 433.624C1049.83 426.382 1040.44 427.888 1036.91 429.751L1036.91 429.752C1036.11 430.676 1035.6 431.216 1035.6 431.216C1035.39 430.823 1035.92 430.273 1036.91 429.752L1036.91 429.751C1040.17 425.987 1048.36 415.844 1047.61 409.708C1045.95 396.13 1030.12 399.988 1021.91 407.518C1014.51 414.302 1007.41 426.14 1007.41 426.14Z" fill="#693875"/>
<path d="M1036.91 429.751L1036.91 429.752M1036.91 429.751C1040.44 427.888 1049.83 426.382 1052.3 433.624C1055.32 442.465 1043.63 454.712 1038.33 456.366C1042.64 455.062 1050.39 457.713 1050.39 463.661C1050.39 468.113 1047.21 472.568 1044.08 475.886C1039.94 480.273 1025.3 482.232 1023.52 482.016C1021.75 481.8 1002.34 479.533 1000.73 475.696L1007.41 426.14C1007.41 426.14 1014.51 414.302 1021.91 407.518C1030.12 399.988 1045.95 396.13 1047.61 409.708C1048.36 415.844 1040.17 425.987 1036.91 429.751ZM1036.91 429.752C1035.92 430.273 1035.39 430.823 1035.6 431.216C1035.6 431.216 1036.11 430.676 1036.91 429.752Z" stroke="black" stroke-width="3"/>
<path d="M867.742 408.596C825.809 324.28 858.572 295.994 861.455 291.188C861.455 291.188 890.331 285.64 883.696 295.687C877.061 305.734 878.472 347.578 912.87 400.903C947.268 454.229 1007.96 425.747 1007.39 426.17L1000.73 475.712C1001.15 476.278 909.782 493.127 867.742 408.596Z" fill="white" stroke="black" stroke-width="3"/>
<path d="M978.925 142.481C985.043 187.005 1026.15 218.13 1070.74 212C1115.33 205.871 1146.32 173.373 1140.2 128.848C1134.08 84.3242 1093.18 44.6343 1048.59 50.7641C1003.99 56.8939 972.806 97.957 978.925 142.481Z" fill="white" stroke="black" stroke-width="3"/>
<path d="M1017.67 137.155C1020.86 160.373 1042.3 176.604 1065.55 173.408C1088.8 170.211 1105.07 148.798 1101.88 125.58C1098.68 102.362 1077.25 86.1308 1053.99 89.3274C1030.74 92.5239 1014.48 113.937 1017.67 137.155Z" fill="#693875" stroke="black" stroke-width="3"/>
<path d="M827.456 173.47C833.574 217.994 876.943 263.779 921.534 257.649C966.125 251.519 997.313 210.456 991.195 165.932C985.076 121.407 943.967 90.2827 899.376 96.4124C854.785 102.542 821.337 128.946 827.456 173.47Z" fill="white" stroke="black" stroke-width="3"/>
<path d="M868.46 182.804C871.65 206.022 893.087 222.252 916.34 219.056C939.594 215.859 955.857 194.446 952.667 171.228C949.476 148.01 928.039 131.779 904.786 134.976C881.533 138.172 865.269 159.585 868.46 182.804Z" fill="#693875" stroke="black" stroke-width="3"/>
<path d="M1140.31 128.79L827.25 171.822L849.001 330.091C850.878 343.748 863.489 353.296 877.167 351.416L1140.69 315.192C1154.37 313.312 1163.93 300.716 1162.06 287.058L1140.31 128.79Z" fill="white" stroke="black" stroke-width="3"/>
<path d="M1140.9 169.023C1139.02 155.365 1126.41 145.818 1112.73 147.698L896.764 177.385C883.086 179.265 873.519 191.861 875.396 205.519L889.806 310.372C891.683 324.029 904.293 333.577 917.972 331.697L1133.94 302.01C1147.62 300.13 1157.19 287.534 1155.31 273.876L1140.9 169.023Z" fill="black" stroke="black" stroke-width="3"/>
<rect width="99.9993" height="99.8471" transform="matrix(-0.990684 0.136179 0.136152 0.990688 1123.47 174.443)" stroke="black" stroke-width="3"/>
<path d="M1041.11 236.157C1044.86 263.473 1070.08 282.567 1097.44 278.807C1124.8 275.047 1143.93 249.855 1140.18 222.539C1136.42 195.224 1111.2 176.129 1083.85 179.89C1056.49 183.65 1037.36 208.842 1041.11 236.157Z" fill="white"/>
<path d="M1053 234.523C1055.85 255.283 1075.02 269.795 1095.81 266.937C1116.6 264.079 1131.14 244.933 1128.29 224.174C1125.44 203.414 1106.27 188.902 1085.48 191.76C1064.69 194.618 1050.14 213.763 1053 234.523Z" fill="black"/>
<path d="M1128.66 170.002C1129.23 176.543 1128.51 183.133 1126.54 189.395C1124.56 195.657 1121.37 201.469 1117.15 206.499C1112.93 211.529 1107.76 215.678 1101.94 218.71C1096.11 221.742 1089.75 223.597 1083.21 224.169C1076.67 224.742 1070.08 224.02 1063.82 222.045C1057.55 220.071 1051.74 216.882 1046.71 212.662C1041.68 208.441 1037.53 203.271 1034.5 197.447C1031.47 191.623 1029.61 185.258 1029.04 178.717L1078.85 174.36L1128.66 170.002Z" fill="black"/>
<rect width="99.9993" height="99.8471" transform="matrix(-0.990684 0.136179 0.136152 0.990688 992.703 192.417)" stroke="black" stroke-width="3"/>
<path d="M921.236 252.634C924.99 279.949 950.211 299.044 977.567 295.284C1004.92 291.523 1024.06 266.332 1020.3 239.016C1016.55 211.701 991.33 192.606 963.973 196.367C936.616 200.127 917.482 225.319 921.236 252.634Z" fill="white"/>
<path d="M933.124 251C935.977 271.76 955.145 286.272 975.936 283.414C996.727 280.556 1011.27 261.41 1008.42 240.651C1005.56 219.891 986.395 205.379 965.604 208.237C944.813 211.095 930.271 230.241 933.124 251Z" fill="black"/>
<path d="M908.141 276.695C914.424 278.601 921.022 279.251 927.556 278.608C934.091 277.964 940.434 276.04 946.225 272.945C952.016 269.85 957.141 265.644 961.306 260.569C965.472 255.493 968.597 249.647 970.503 243.364C972.409 237.08 973.059 230.483 972.416 223.949C971.772 217.414 969.848 211.07 966.753 205.279C963.658 199.489 959.452 194.364 954.377 190.199C949.301 186.033 943.455 182.908 937.171 181.002L922.656 228.848L908.141 276.695Z" fill="black"/>
<path d="M348.928 353.454L323.417 346.283L270.215 649.336L316.215 649.336L348.928 353.454Z" fill="white" stroke="black" stroke-width="3"/>
<path d="M270.217 649.336H316.217C316.217 649.336 332.744 636.787 333.175 626.754C333.614 616.526 330.669 605.72 320.625 603.738C313.069 602.246 305.533 611.863 305.533 611.863C305.533 611.863 299.433 599.534 292.328 599.338C285.146 599.141 278.422 611.385 278.422 611.385C278.422 611.385 272.691 604.656 267.65 604.159C263.388 603.738 260.289 604.55 257.216 607.534C253.411 611.229 254.024 622.776 254.024 622.776C254.024 622.776 255.038 632.392 258.839 638.398C261.97 643.349 270.217 649.336 270.217 649.336Z" fill="#693875" stroke="black" stroke-width="3"/>
<path d="M438.75 357.119L378.75 361.151C378.75 361.151 463.25 384.651 463.25 412.651C463.25 440.651 377.774 514.198 372.75 506.151L408.25 535.151C408.25 535.151 493.75 460.151 493.75 419.151C493.75 378.151 455.936 360.646 438.75 357.119Z" fill="white" stroke="black" stroke-width="3"/>
<path d="M408.52 536.027L372.028 505.561C372.028 505.561 362.161 510.79 355.071 517.9C347.843 525.149 343.848 534.74 349.914 542.968C354.477 549.158 363.877 533.953 363.877 533.953C363.877 533.953 363.396 559.591 368.502 564.521C373.663 569.504 381.696 556.145 381.696 556.145C381.696 556.145 383.597 572.016 386.978 575.778C389.836 578.959 397.594 579.936 397.594 579.936C397.594 579.936 404.413 578.772 408.612 572.072C412.53 565.819 412.203 560.227 411.072 553.143C410.15 547.365 408.52 536.027 408.52 536.027Z" fill="#693875" stroke="black" stroke-width="3"/>
<path d="M222.988 363.376C279.14 284.516 260.294 299.781 260.294 299.781L237.607 252.598C231.708 247.687 169.438 348.521 168.564 392.845C167.691 437.169 216.115 476.744 221.906 475.722L242.122 435.606C242.122 435.606 188.029 412.474 222.988 363.376Z" fill="white" stroke="black" stroke-width="3"/>
<path d="M242.149 435.794L221.923 475.736C221.923 475.736 232.984 484.471 242.758 486.7C254.327 489.339 265.856 485.712 271.038 476.883C276.16 468.157 258.72 468.029 258.226 470.6C259.891 470.998 277.475 461.544 277.664 454.495C277.856 447.314 269.615 445.825 269.615 445.825C269.615 445.825 276.322 441.405 278.397 430.924C280.471 420.443 264.388 421.755 264.388 421.755C264.388 421.755 255.437 425.25 250.454 429.204C245.868 432.843 242.149 435.794 242.149 435.794Z" fill="#693875" stroke="black" stroke-width="3"/>
<path fill-rule="evenodd" clip-rule="evenodd" d="M619.424 383.102C619.424 383.102 620.036 382.69 621.026 381.971C619.945 382.256 619.306 382.671 619.424 383.102Z" fill="#693875"/>
<path d="M593.103 371.784L575.402 418.55C576.1 422.65 594.49 429.245 596.172 429.857C597.854 430.468 612.554 431.869 617.582 428.532C621.386 426.008 625.485 422.386 626.492 418.049C627.837 412.255 620.884 407.92 616.396 408.218C621.928 407.804 636.083 398.516 635.144 389.222C634.375 381.609 624.887 380.954 621.027 381.97L621.026 381.971C620.036 382.69 619.424 383.102 619.424 383.102C619.306 382.671 619.945 382.256 621.026 381.971L621.027 381.97C625.055 379.041 635.328 371.012 635.981 364.865C637.428 351.262 621.137 351.442 611.437 356.921C602.696 361.858 593.103 371.784 593.103 371.784Z" fill="#693875"/>
<path d="M621.027 381.97L621.026 381.971M621.027 381.97C624.887 380.954 634.375 381.609 635.144 389.222C636.083 398.516 621.928 407.804 616.396 408.218C620.884 407.92 627.837 412.255 626.492 418.049C625.485 422.386 621.386 426.008 617.582 428.532C612.554 431.869 597.854 430.468 596.172 429.857C594.49 429.245 576.1 422.65 575.402 418.55L593.103 371.784C593.103 371.784 602.696 361.858 611.437 356.921C621.137 351.442 637.428 351.262 635.981 364.865C635.328 371.012 625.055 379.041 621.027 381.97ZM621.026 381.971C619.945 382.256 619.306 382.671 619.424 383.102C619.424 383.102 620.036 382.69 621.026 381.971Z" stroke="black" stroke-width="3"/>
<path d="M466.059 319.655C444.269 228.043 471.745 217.986 475.64 213.956C475.64 213.956 510.818 208.458 502.084 216.745C493.349 225.033 485.266 266.112 506.72 325.833C528.175 385.554 593.729 371.526 593.082 371.81L575.396 418.565C575.68 419.212 487.903 411.5 466.059 319.655Z" fill="white" stroke="black" stroke-width="3"/>
<path d="M356.723 170.548C358.986 215.434 397.262 249.982 442.216 247.714C487.169 245.446 520.839 215.736 518.576 170.85C516.313 125.965 478.975 82.9005 434.021 85.1686C389.068 87.4367 354.46 125.662 356.723 170.548Z" fill="white" stroke="black" stroke-width="3"/>
<path d="M395.782 168.577C396.962 191.984 416.922 210 440.364 208.817C463.806 207.635 481.853 187.701 480.673 164.294C479.493 140.888 459.533 122.872 436.091 124.054C412.649 125.237 394.602 145.171 395.782 168.577Z" fill="#693875" stroke="black" stroke-width="3"/>
<path d="M205.474 200.418C207.737 245.303 246.013 279.852 290.967 277.584C335.92 275.315 369.59 245.606 367.327 200.72C365.064 155.834 327.726 112.77 282.772 115.038C237.819 117.306 203.211 155.532 205.474 200.418Z" fill="white" stroke="black" stroke-width="3"/>
<path d="M244.35 194.909C245.53 218.316 265.49 236.332 288.932 235.149C312.374 233.967 330.421 214.033 329.241 190.626C328.061 167.22 308.101 149.204 284.659 150.386C261.217 151.569 243.17 171.503 244.35 194.909Z" fill="#693875" stroke="black" stroke-width="3"/>
<path d="M518.684 170.802L203.086 186.723L211.131 346.276C211.825 360.045 223.567 370.642 237.356 369.947L503.017 356.545C516.807 355.849 527.423 344.123 526.728 330.355L518.684 170.802Z" fill="white" stroke="black" stroke-width="3"/>
<path d="M515.81 210.936C515.116 197.168 503.374 186.57 489.585 187.266L271.862 198.249C258.073 198.945 247.457 210.671 248.151 224.439L253.481 330.143C254.175 343.912 265.917 354.509 279.706 353.814L497.428 342.83C511.218 342.135 521.834 330.409 521.139 316.64L515.81 210.936Z" fill="black" stroke="black" stroke-width="3"/>
<rect width="99.9993" height="99.8471" transform="matrix(-0.99873 0.0503838 0.0503571 0.998731 497.983 214.836)" stroke="black" stroke-width="3"/>
<path d="M410.612 269.23C412.001 296.767 435.484 317.963 463.063 316.571C490.642 315.18 511.873 291.729 510.485 264.192C509.096 236.655 485.614 215.46 458.035 216.851C430.456 218.242 409.224 241.693 410.612 269.23Z" fill="white"/>
<path d="M422.597 268.626C423.652 289.554 441.499 305.662 462.459 304.605C483.419 303.548 499.555 285.725 498.5 264.797C497.445 243.868 479.598 227.76 458.638 228.817C437.678 229.875 421.542 247.698 422.597 268.626Z" fill="black"/>
<path d="M422.597 268.626C423.652 289.554 441.499 305.662 462.459 304.605C483.419 303.548 499.555 285.725 498.5 264.797C497.445 243.869 479.598 227.76 458.638 228.818C437.678 229.875 421.542 247.698 422.597 268.626Z" fill="black"/>
<rect width="99.9993" height="99.8471" transform="matrix(-0.99873 0.0503838 0.0503571 0.998731 366.151 221.485)" stroke="black" stroke-width="3"/>
<path d="M289.766 275.326C291.155 302.863 314.637 324.058 342.216 322.667C369.795 321.275 391.027 297.824 389.639 270.287C388.25 242.75 364.767 221.555 337.188 222.946C309.609 224.338 288.378 247.789 289.766 275.326Z" fill="white"/>
<path d="M301.751 274.721C302.806 295.649 320.653 311.758 341.613 310.7C362.573 309.643 378.709 291.82 377.654 270.892C376.599 249.964 358.752 233.855 337.792 234.913C316.832 235.97 300.696 253.793 301.751 274.721Z" fill="black"/>
</svg>
