<svg width="3900" height="651" viewBox="0 0 3900 651" fill="none" xmlns="http://www.w3.org/2000/svg">
<path d="M3595.43 275.957L3619.37 279.395C3585.21 326.938 3571.42 391.006 3568.37 401.68C3565.32 412.353 3561.27 432.68 3553.32 464.856C3545.38 497.033 3556.37 528.68 3556.37 528.68L3514.87 566.18C3510.83 570.586 3510.38 472.431 3535.87 409.68C3561.35 346.928 3559.7 321.993 3595.43 275.957Z" fill="white" stroke="black" stroke-width="3" stroke-linecap="round" stroke-linejoin="round"/>
<path d="M3611.92 369.68H3585.23C3596.45 392.601 3601.32 407.018 3608.23 434.68C3617.81 521.056 3616.08 567.933 3599.73 648.68H3652.88C3649.59 531.531 3646.02 481.964 3635.73 430.68C3629.02 407.726 3624.74 394.682 3611.92 369.68Z" fill="white" stroke="black" stroke-width="3" stroke-linecap="round" stroke-linejoin="round"/>
<path d="M3556.91 529.83L3514.98 566.239C3514.98 566.239 3501.13 569.192 3494.99 562.73C3488.74 556.142 3489.35 549.775 3495.81 541.887C3500.67 535.953 3511.21 531.44 3511.21 531.44C3511.21 531.44 3510.29 520.505 3515.56 515.736C3520.88 510.916 3529.53 512.644 3529.53 512.644C3529.53 512.644 3531.11 503.215 3534.64 499.59C3537.63 496.526 3540.93 495.569 3544.98 495.569C3550.01 495.569 3553.58 501.242 3553.58 501.242C3553.58 501.242 3558.38 508.367 3558.98 514.885C3559.47 520.256 3556.91 529.83 3556.91 529.83Z" fill="#693875" stroke="black" stroke-width="3"/>
<path d="M3599.81 648.928L3652.97 648.928C3652.97 648.928 3666.38 643.427 3666.95 634.17C3667.55 624.732 3654.76 607.806 3654.76 607.806L3639.55 615.068L3626.53 603.291L3612.45 614.191L3601.78 607.347L3591.98 610.863C3591.98 610.863 3587.48 629.363 3587.95 631.302C3588.43 633.242 3589.26 637.245 3592.97 642.852C3596.03 647.473 3599.81 648.928 3599.81 648.928Z" fill="#693875" stroke="black" stroke-width="3"/>
<path d="M3389.87 298.194C3408.46 275.444 3418.52 275.627 3424.37 275.695V312.694C3425.16 319.578 3416.83 307.587 3411.37 330.694C3405.9 353.801 3407.87 357.194 3407.87 357.194C3407.87 357.194 3352.23 364.646 3356.37 347.694C3360.51 330.742 3374.99 316.396 3389.87 298.194Z" fill="white" stroke="black" stroke-width="3"/>
<path d="M3358.37 342.694L3407.87 357.194C3407.87 357.194 3416.74 369.959 3415.38 379.284C3413.99 388.79 3411.72 394.971 3401.45 394.744C3393.73 394.574 3387.37 391.694 3387.37 391.694C3387.37 391.694 3379.12 397.911 3372.07 396.639C3364.94 395.353 3358.87 384.194 3358.87 384.194C3358.87 384.194 3344.19 388.947 3339.37 387.194C3328.37 383.194 3328.1 376.61 3329.37 372.694C3334.37 357.194 3335.37 357.194 3342.87 349.694C3346.38 346.185 3356.12 340.342 3358.37 342.694Z" fill="#693875" stroke="black" stroke-width="3"/>
<path d="M3793.62 329.293C3778.7 268.44 3714.37 239.77 3714.37 239.77L3721.13 288.682C3721.13 288.682 3743.44 291.311 3756.24 354.654C3769.04 417.998 3764.66 400.937 3764.66 400.937L3800.58 401.52C3800.58 401.52 3812.16 404.966 3793.62 329.293Z" fill="white" stroke="black" stroke-width="3"/>
<path d="M3802.85 399.692L3764.66 400.937C3764.66 400.937 3755.42 407.961 3755.53 413.886C3755.65 419.927 3758.41 426.267 3766.25 427.317C3772.16 428.107 3777.55 422.342 3777.55 422.342C3777.55 422.342 3782.81 429.544 3788.3 429.574C3793.86 429.605 3798.5 422.299 3798.5 422.299C3798.5 422.299 3803.23 426.201 3807.15 426.434C3810.46 426.631 3812.81 426.115 3815.05 424.318C3817.83 422.092 3816.84 415.286 3816.84 415.286C3816.84 415.286 3815.62 409.624 3812.42 406.125C3809.78 403.242 3802.85 399.692 3802.85 399.692Z" fill="#693875" stroke="black" stroke-width="3"/>
<path d="M3575.37 224.162C3575.37 269.166 3611.85 305.649 3656.87 305.649C3701.88 305.649 3738.37 269.166 3738.37 224.162C3744.87 154.174 3701.88 142.676 3656.87 142.676C3611.85 142.676 3575.37 179.158 3575.37 224.162Z" fill="white" stroke="black" stroke-width="3"/>
<circle cx="42.5" cy="42.5" r="42.5" transform="matrix(-1 0 0 1 3700.37 181.704)" fill="#693875" stroke="black" stroke-width="3"/>
<ellipse cx="81.5" cy="81.4864" rx="81.5" ry="81.4864" transform="matrix(-1 0 0 1 3585.26 119.68)" fill="white" stroke="black" stroke-width="3"/>
<circle cx="42.5" cy="42.5" r="42.5" transform="matrix(-1 0 0 1 3546.37 158.704)" fill="#693875" stroke="black" stroke-width="3"/>
<path d="M3738.26 198.667H3422.26V358.636C3422.26 372.443 3433.45 383.636 3447.26 383.636H3713.26C3727.06 383.636 3738.26 372.443 3738.26 358.636V198.667Z" fill="white" stroke="black" stroke-width="3"/>
<rect width="268" height="155.974" rx="25" transform="matrix(-1 0 0 1 3714.26 213.664)" fill="black" stroke="black" stroke-width="3"/>
<rect width="100" height="99.9833" transform="matrix(-1 0 0 1 3697.37 241.659)" stroke="black" stroke-width="3"/>
<ellipse cx="50" cy="49.9916" rx="50" ry="49.9916" transform="matrix(-1 0 0 1 3697.37 241.659)" fill="white"/>
<ellipse cx="38" cy="37.9936" rx="38" ry="37.9936" transform="matrix(-1 0 0 1 3685.37 253.657)" fill="black"/>
<path d="M3584.63 253.813C3591.2 253.795 3597.7 255.071 3603.77 257.568C3609.85 260.065 3615.37 263.733 3620.02 268.363C3624.68 272.994 3628.38 278.496 3630.91 284.556C3633.44 290.615 3634.75 297.114 3634.76 303.68C3634.78 310.246 3633.5 316.751 3631.01 322.824C3628.51 328.897 3624.84 334.419 3620.21 339.074C3615.58 343.729 3610.08 347.427 3604.02 349.956C3597.96 352.484 3591.46 353.795 3584.9 353.812L3584.76 303.813L3584.63 253.813Z" fill="black"/>
<path d="M3149.66 308.993C3130.88 249.22 3073.66 232.069 3073.66 232.069L3080.43 280.981C3080.43 280.981 3117.66 284.993 3116.16 327.493C3114.66 369.993 3114.16 361.992 3114.16 361.992L3157.66 361.993C3156.58 358.018 3160.31 342.891 3149.66 308.993Z" fill="white" stroke="black" stroke-width="3"/>
<path d="M3157.66 361.493L3114.66 361.493C3114.66 361.493 3104.05 367.568 3104.16 373.493C3104.28 379.534 3107.32 383.443 3115.16 384.493C3121.07 385.283 3125.66 380.493 3125.66 380.493C3125.66 380.493 3133.17 384.729 3138.66 384.759C3144.22 384.79 3151.66 376.993 3151.66 376.993C3151.66 376.993 3156.75 382.76 3160.66 382.993C3163.97 383.19 3167.42 383.29 3169.66 381.493C3172.44 379.267 3171.16 372.993 3171.16 372.993C3171.16 372.993 3168.87 367.992 3165.66 364.493C3163.02 361.609 3157.66 361.493 3157.66 361.493Z" fill="#693875" stroke="black" stroke-width="3"/>
<path d="M2964.1 370.979L2936.01 375.993C2955.66 397.493 2963.99 410.817 2970.9 438.479C2973.9 489.979 2975.9 612.979 2975.9 612.979L3018.9 641.979C3018.9 641.979 3015.19 493.263 3004.9 441.979C2999.1 417.479 2985.06 385.979 2964.1 370.979Z" fill="white" stroke="black" stroke-width="3" stroke-linecap="round" stroke-linejoin="round"/>
<path d="M3019.1 641.978L2976.1 612.978C2976.1 612.978 2970.66 601.326 2975.04 592.291C2979.51 583.08 2981 579.769 2990.78 582.792C2998.14 585.066 3006.44 592.306 3006.44 592.306C3006.44 592.306 3013.97 591.266 3020.31 594.467C3026.73 597.702 3030.53 604.754 3030.53 604.754C3030.53 604.754 3037.52 604.601 3042.2 606.556C3046.15 608.209 3048.13 611.108 3049.42 615.192C3051.02 620.251 3046.59 626.361 3046.59 626.361C3046.59 626.361 3041.14 634.343 3034.94 637.826C3029.83 640.696 3019.1 641.978 3019.1 641.978Z" fill="#693875" stroke="black" stroke-width="3"/>
<path d="M2713.92 363.831C2737.29 269.874 2781.21 245.979 2781.21 245.979V295.365C2781.21 295.365 2757.03 334.922 2749.92 404.785C2742.82 474.649 2744.71 508.979 2744.71 508.979L2695.45 502.956C2695.45 502.956 2693.55 445.74 2713.92 363.831Z" fill="white" stroke="black" stroke-width="3"/>
<path d="M2695.21 502.978L2744.71 508.978C2744.71 508.978 2756.5 521.692 2755.82 531.712C2755.14 541.926 2751.02 552.343 2740.82 553.211C2733.15 553.865 2726.71 543.478 2726.71 543.478C2726.71 543.478 2719.3 555.064 2712.21 554.478C2705.05 553.886 2699.71 540.978 2699.71 540.978C2699.71 540.978 2693.28 547.037 2688.21 546.978C2683.93 546.929 2680.94 545.781 2678.21 542.478C2674.84 538.387 2676.71 526.978 2676.71 526.978C2676.71 526.978 2678.78 517.531 2683.21 511.978C2686.87 507.402 2695.21 502.978 2695.21 502.978Z" fill="#693875" stroke="black" stroke-width="3"/>
<path d="M2902.66 362.937H2926.84C2899.79 414.853 2889.34 479.917 2887.84 490.915C2886.34 501.913 2886.34 530.908 2887.84 555.904C2889.34 580.9 2902.66 618.894 2902.66 618.894L2858.6 641.979C2858.6 641.979 2844.54 544.971 2855.84 490.915C2867.14 436.86 2873.84 413.586 2902.66 362.937Z" fill="white" stroke="black" stroke-width="3" stroke-linecap="round" stroke-linejoin="round"/>
<path d="M2904.39 619.266L2858.49 641.979C2858.49 641.979 2842.53 635.214 2837.74 626.39C2832.85 617.394 2831.02 614.259 2839.18 608.065C2845.31 603.406 2856.03 600.87 2856.03 600.87C2856.03 600.87 2859.57 594.142 2865.86 590.846C2872.23 587.514 2880.17 588.531 2880.17 588.531C2880.17 588.531 2884.12 582.754 2888.43 580.092C2892.08 577.843 2895.59 577.916 2899.66 579.246C2904.7 580.895 2907.1 588.047 2907.1 588.047C2907.1 588.047 2910.41 597.132 2909.63 604.197C2908.99 610.02 2904.39 619.266 2904.39 619.266Z" fill="#693875" stroke="black" stroke-width="3"/>
<path d="M2934.66 216.461C2934.66 261.465 2971.15 297.947 3016.16 297.947C3061.17 297.947 3097.66 261.465 3097.66 216.461C3104.16 146.473 3061.17 134.975 3016.16 134.975C2971.15 134.975 2934.66 171.457 2934.66 216.461Z" fill="white" stroke="black" stroke-width="3"/>
<circle cx="42.5" cy="42.5" r="42.5" transform="matrix(-1 0 0 1 3059.66 174.002)" fill="#693875" stroke="black" stroke-width="3"/>
<ellipse cx="81.5" cy="81.4864" rx="81.5" ry="81.4864" transform="matrix(-1 0 0 1 2944.55 111.979)" fill="white" stroke="black" stroke-width="3"/>
<circle cx="42.5" cy="42.5" r="42.5" transform="matrix(-1 0 0 1 2905.66 151.002)" fill="#693875" stroke="black" stroke-width="3"/>
<path d="M3097.55 190.965H2781.55V350.934C2781.55 364.742 2792.75 375.934 2806.55 375.934H3072.55C3086.36 375.934 3097.55 364.742 3097.55 350.934V190.965Z" fill="white" stroke="black" stroke-width="3"/>
<rect width="268" height="155.974" rx="25" transform="matrix(-1 0 0 1 3073.55 205.963)" fill="black" stroke="black" stroke-width="3"/>
<rect width="100" height="99.9833" transform="matrix(-1 0 0 1 2928.66 233.958)" stroke="black" stroke-width="3"/>
<ellipse cx="50" cy="49.9916" rx="50" ry="49.9916" transform="matrix(-1 0 0 1 2928.66 233.958)" fill="white"/>
<ellipse cx="38" cy="37.9936" rx="38" ry="37.9936" transform="matrix(-1 0 0 1 2916.66 245.956)" fill="black"/>
<path d="M2929.09 231.979C2929.19 238.544 2928 245.065 2925.58 251.169C2923.16 257.274 2919.57 262.842 2915 267.556C2910.43 272.27 2904.97 276.038 2898.94 278.644C2892.92 281.251 2886.44 282.644 2879.87 282.746C2873.31 282.847 2866.79 281.655 2860.68 279.236C2854.58 276.817 2849.01 273.22 2844.29 268.65C2839.58 264.079 2835.81 258.625 2833.21 252.598C2830.6 246.571 2829.21 240.09 2829.1 233.525L2879.1 232.752L2929.09 231.979Z" fill="black"/>
<path d="M2829.71 234.979C2836.23 235.741 2842.54 237.78 2848.28 240.98C2854.01 244.18 2859.06 248.478 2863.13 253.628C2867.2 258.779 2870.22 264.681 2872.01 270.998C2873.8 277.315 2874.33 283.923 2873.57 290.445C2872.81 296.966 2870.77 303.274 2867.57 309.008C2864.37 314.741 2860.07 319.788 2854.92 323.861C2849.77 327.934 2843.87 330.952 2837.55 332.743C2831.23 334.535 2824.63 335.065 2818.1 334.303L2823.91 284.641L2829.71 234.979Z" fill="black"/>
<path d="M2830.1 334.914C2830.44 328.356 2832.06 321.929 2834.88 315.998C2837.7 310.067 2841.65 304.749 2846.53 300.348C2851.4 295.947 2857.09 292.549 2863.28 290.347C2869.46 288.146 2876.02 287.184 2882.58 287.518C2889.14 287.851 2895.56 289.473 2901.5 292.291C2907.43 295.108 2912.74 299.066 2917.15 303.939C2921.55 308.812 2924.94 314.504 2927.15 320.69C2929.35 326.876 2930.31 333.435 2929.98 339.993L2880.04 337.453L2830.1 334.914Z" fill="black"/>
<rect width="100" height="99.9833" transform="matrix(-1 0 0 1 3056.66 233.958)" stroke="black" stroke-width="3"/>
<ellipse cx="50" cy="49.9916" rx="50" ry="49.9916" transform="matrix(-1 0 0 1 3056.66 233.958)" fill="white"/>
<ellipse cx="38" cy="37.9936" rx="38" ry="37.9936" transform="matrix(-1 0 0 1 3044.66 245.956)" fill="black"/>
<path d="M3056.09 231.979C3056.19 238.544 3055 245.065 3052.58 251.169C3050.16 257.274 3046.57 262.842 3042 267.556C3037.43 272.27 3031.97 276.038 3025.94 278.644C3019.92 281.251 3013.44 282.644 3006.87 282.746C3000.31 282.847 2993.79 281.655 2987.68 279.236C2981.58 276.817 2976.01 273.22 2971.29 268.65C2966.58 264.079 2962.81 258.625 2960.21 252.598C2957.6 246.571 2956.21 240.09 2956.1 233.525L3006.1 232.752L3056.09 231.979Z" fill="black"/>
<path d="M2954.1 338.933C2954.39 332.373 2955.95 325.932 2958.72 319.979C2961.49 314.025 2965.41 308.675 2970.25 304.235C2975.08 299.794 2980.75 296.35 2986.91 294.098C2993.08 291.847 2999.63 290.832 3006.19 291.113C3012.75 291.393 3019.19 292.962 3025.15 295.732C3031.1 298.501 3036.45 302.416 3040.89 307.253C3045.33 312.09 3048.78 317.754 3051.03 323.922C3053.28 330.09 3054.29 336.641 3054.01 343.201L3004.06 341.067L2954.1 338.933Z" fill="black"/>
<path d="M2247.26 365.537H2271.44C2244.39 417.453 2233.94 482.517 2232.44 493.515C2230.94 504.513 2230.94 533.509 2232.44 558.504C2233.94 583.5 2247.26 621.494 2247.26 621.494L2202.94 644.579C2202.94 644.579 2189.14 547.571 2200.44 493.515C2211.74 439.46 2218.43 416.186 2247.26 365.537Z" fill="white" stroke="black" stroke-width="3" stroke-linecap="round" stroke-linejoin="round"/>
<path d="M2080.94 293.093C2099.53 270.343 2109.59 270.525 2115.44 270.593V307.593C2116.23 314.477 2107.9 302.485 2102.44 325.593C2096.97 348.7 2098.94 352.093 2098.94 352.093C2098.94 352.093 2043.3 359.544 2047.44 342.593C2051.58 325.641 2066.06 311.295 2080.94 293.093Z" fill="white" stroke="black" stroke-width="3"/>
<path d="M2049.44 337.593L2098.94 352.093C2098.94 352.093 2107.81 364.858 2106.45 374.183C2105.06 383.689 2102.8 389.87 2092.53 389.643C2084.8 389.473 2078.44 386.593 2078.44 386.593C2078.44 386.593 2070.19 392.81 2063.14 391.538C2056.01 390.252 2049.94 379.093 2049.94 379.093C2049.94 379.093 2035.26 383.846 2030.44 382.093C2019.44 378.093 2019.17 371.509 2020.44 367.593C2025.44 352.093 2026.44 352.093 2033.94 344.593C2037.45 341.084 2047.19 335.241 2049.44 337.593Z" fill="#693875" stroke="black" stroke-width="3"/>
<path d="M2248.37 621.243L2203.35 644.578C2203.35 644.578 2186.29 636.872 2181.64 627.972C2176.9 618.899 2175.12 615.734 2183.37 609.673C2189.58 605.114 2200.34 602.751 2200.34 602.751C2200.34 602.751 2203.99 596.081 2210.33 592.887C2216.75 589.658 2224.68 590.804 2224.68 590.804C2224.68 590.804 2228.72 585.091 2233.07 582.499C2236.75 580.309 2240.27 580.439 2244.31 581.835C2249.33 583.564 2251.61 590.754 2251.61 590.754C2251.61 590.754 2254.77 599.891 2253.88 606.943C2253.15 612.755 2248.37 621.243 2248.37 621.243Z" fill="#693875" stroke="black" stroke-width="3"/>
<path d="M2287.4 365.579H2260.7C2280.35 387.079 2291.45 388.917 2298.35 416.579C2301.35 468.079 2281.35 507.579 2281.35 507.579L2326.35 517.079C2326.35 517.079 2336.65 463.363 2326.35 412.079C2319.65 389.125 2308.35 380.579 2287.4 365.579Z" fill="white" stroke="black" stroke-width="3" stroke-linecap="round" stroke-linejoin="round"/>
<path d="M2281.88 508.618L2327.74 518.93C2327.74 518.93 2344.6 510.688 2347.32 501.021C2350.1 491.166 2351.18 487.704 2341.86 483.471C2334.85 480.286 2323.83 480.189 2323.83 480.189C2323.83 480.189 2318.89 474.412 2312.02 472.593C2305.08 470.754 2297.55 473.507 2297.55 473.507C2297.55 473.507 2292.42 468.748 2287.63 467.108C2283.58 465.721 2280.17 466.571 2276.49 468.771C2271.94 471.495 2271.19 479 2271.19 479C2271.19 479 2269.98 488.593 2272.3 495.311C2274.21 500.847 2281.88 508.618 2281.88 508.618Z" fill="#693875" stroke="black" stroke-width="3"/>
<path d="M2467.74 294.079C2443.51 277.465 2436.59 275.512 2430.74 275.58V312.579C2425.91 325.554 2439.24 307.079 2444.24 322.579C2449.24 338.079 2446.74 337.579 2446.74 337.579C2446.74 337.579 2509.56 335.893 2495.74 321.079C2481.92 306.266 2482.2 303.993 2467.74 294.079Z" fill="white" stroke="black" stroke-width="3"/>
<path d="M2496.05 323.611L2447.15 333.869C2447.15 333.869 2430.34 346.884 2433.86 353.957C2436.26 358.767 2437.45 362.603 2446.67 365.015C2453.9 366.905 2464.68 362.927 2464.68 362.927C2464.68 362.927 2477 370.38 2484.05 369.203C2491.18 368.014 2502.22 356.061 2502.22 356.061C2502.22 356.061 2509.62 361.634 2514.46 360.098C2525.49 356.595 2529.77 350.324 2529.82 346.889C2530.02 334.064 2525.71 328.79 2516.18 325.208C2511.21 323.344 2498.32 321.625 2496.05 323.611Z" fill="#693875" stroke="black" stroke-width="3"/>
<path d="M2266.44 219.061C2266.44 264.065 2302.93 300.547 2347.94 300.547C2392.95 300.547 2429.44 264.065 2429.44 219.061C2435.94 149.073 2392.95 137.575 2347.94 137.575C2302.93 137.575 2266.44 174.057 2266.44 219.061Z" fill="white" stroke="black" stroke-width="3"/>
<circle cx="42.5" cy="42.5" r="42.5" transform="matrix(-1 0 0 1 2391.44 176.603)" fill="#693875" stroke="black" stroke-width="3"/>
<path d="M2277.36 219.065C2277.36 264.069 2240.87 300.551 2195.86 300.551C2150.85 300.551 2114.36 264.069 2114.36 219.065C2107.86 149.077 2150.85 137.579 2195.86 137.579C2240.87 137.579 2277.36 174.061 2277.36 219.065Z" fill="white" stroke="black" stroke-width="3"/>
<circle cx="2194.86" cy="219.106" r="42.5" fill="#693875" stroke="black" stroke-width="3"/>
<path d="M2429.33 193.565H2113.33V353.535C2113.33 367.342 2124.52 378.534 2138.33 378.534H2404.33C2418.14 378.534 2429.33 367.342 2429.33 353.534V193.565Z" fill="white" stroke="black" stroke-width="3"/>
<rect width="268" height="155.974" rx="25" transform="matrix(-1 0 0 1 2405.33 208.563)" fill="black" stroke="black" stroke-width="3"/>
<rect width="100" height="99.9833" transform="matrix(-1 0 0 1 2260.44 236.558)" stroke="black" stroke-width="3"/>
<rect width="100" height="99.9833" transform="matrix(-1 0 0 1 2388.44 236.558)" stroke="black" stroke-width="3"/>
<path d="M1603.57 267.444L1579.63 270.882C1613.79 318.425 1627.58 382.494 1630.63 393.167C1633.68 403.84 1637.73 424.167 1645.67 456.344C1653.62 488.52 1642.63 520.167 1642.63 520.167L1684.13 557.667C1688.17 562.073 1688.62 463.918 1663.13 401.167C1637.65 338.416 1639.3 313.48 1603.57 267.444Z" fill="white" stroke="black" stroke-width="3" stroke-linecap="round" stroke-linejoin="round"/>
<path d="M1588.08 369.68H1614.77C1603.55 392.601 1598.68 407.018 1591.77 434.68C1582.19 521.056 1583.92 567.933 1600.27 648.68H1547.12C1550.41 531.531 1553.98 481.964 1564.27 430.68C1570.98 407.726 1575.26 394.682 1588.08 369.68Z" fill="white" stroke="black" stroke-width="3" stroke-linecap="round" stroke-linejoin="round"/>
<path d="M1642.09 521.317L1684.02 557.727C1684.02 557.727 1697.87 560.679 1704.01 554.217C1710.26 547.629 1709.65 541.263 1703.19 533.374C1698.33 527.44 1687.79 522.927 1687.79 522.927C1687.79 522.927 1688.71 511.992 1683.44 507.224C1678.11 502.403 1669.47 504.131 1669.47 504.131C1669.47 504.131 1667.89 494.702 1664.36 491.078C1661.37 488.013 1658.07 487.056 1654.02 487.056C1648.99 487.056 1645.42 492.729 1645.42 492.729C1645.42 492.729 1640.62 499.855 1640.02 506.372C1639.52 511.744 1642.09 521.317 1642.09 521.317Z" fill="#693875" stroke="black" stroke-width="3"/>
<path d="M1600.27 648.928L1547.11 648.928C1547.11 648.928 1533.71 643.427 1533.13 634.17C1532.54 624.732 1545.32 607.806 1545.32 607.806L1560.53 615.068L1573.55 603.291L1587.63 614.191L1598.3 607.347L1608.11 610.863C1608.11 610.863 1612.61 629.363 1612.13 631.302C1611.65 633.242 1610.83 637.245 1607.11 642.852C1604.06 647.473 1600.27 648.928 1600.27 648.928Z" fill="#693875" stroke="black" stroke-width="3"/>
<path d="M1810.13 298.194C1791.54 275.444 1781.48 275.627 1775.63 275.695V312.694C1774.84 319.578 1783.17 307.587 1788.63 330.694C1794.1 353.801 1792.13 357.194 1792.13 357.194C1792.13 357.194 1847.77 364.646 1843.63 347.694C1839.49 330.742 1825.01 316.396 1810.13 298.194Z" fill="white" stroke="black" stroke-width="3"/>
<path d="M1841.63 342.694L1792.13 357.194C1792.13 357.194 1783.26 369.959 1784.62 379.284C1786.01 388.79 1788.28 394.971 1798.54 394.744C1806.27 394.574 1812.63 391.694 1812.63 391.694C1812.63 391.694 1820.88 397.911 1827.93 396.639C1835.06 395.353 1841.13 384.194 1841.13 384.194C1841.13 384.194 1855.81 388.947 1860.63 387.194C1871.63 383.194 1871.9 376.61 1870.63 372.694C1865.63 357.194 1864.63 357.194 1857.13 349.694C1853.62 346.185 1843.88 340.342 1841.63 342.694Z" fill="#693875" stroke="black" stroke-width="3"/>
<path d="M1406.38 329.293C1421.3 268.44 1485.63 239.77 1485.63 239.77L1478.87 288.682C1478.87 288.682 1456.56 291.311 1443.76 354.654C1430.96 417.998 1435.34 400.937 1435.34 400.937L1399.42 401.52C1399.42 401.52 1387.84 404.966 1406.38 329.293Z" fill="white" stroke="black" stroke-width="3"/>
<path d="M1397.15 399.692L1435.34 400.937C1435.34 400.937 1444.59 407.961 1444.47 413.886C1444.35 419.927 1441.59 426.267 1433.75 427.317C1427.85 428.107 1422.46 422.342 1422.46 422.342C1422.46 422.342 1417.19 429.544 1411.7 429.574C1406.14 429.605 1401.5 422.299 1401.5 422.299C1401.5 422.299 1396.77 426.201 1392.85 426.434C1389.54 426.631 1387.19 426.115 1384.95 424.318C1382.17 422.092 1383.17 415.286 1383.17 415.286C1383.17 415.286 1384.38 409.624 1387.58 406.125C1390.22 403.242 1397.15 399.692 1397.15 399.692Z" fill="#693875" stroke="black" stroke-width="3"/>
<ellipse cx="1543.13" cy="201.166" rx="81.5" ry="81.4864" fill="white" stroke="black" stroke-width="3"/>
<circle cx="1543.02" cy="201.204" r="42.5" fill="#693875" stroke="black" stroke-width="3"/>
<ellipse cx="1696.24" cy="201.166" rx="81.5" ry="81.4864" fill="white" stroke="black" stroke-width="3"/>
<circle cx="1696.13" cy="201.204" r="42.5" fill="#693875" stroke="black" stroke-width="3"/>
<path d="M1461.74 198.667H1777.74V358.636C1777.74 372.443 1766.55 383.636 1752.74 383.636H1486.74C1472.94 383.636 1461.74 372.443 1461.74 358.636V198.667Z" fill="white" stroke="black" stroke-width="3"/>
<rect x="1485.74" y="213.664" width="268" height="155.974" rx="25" fill="black" stroke="black" stroke-width="3"/>
<rect x="1630.63" y="241.659" width="100" height="99.9833" stroke="black" stroke-width="3"/>
<ellipse cx="1680.63" cy="291.651" rx="50" ry="49.9916" fill="white"/>
<ellipse cx="1680.63" cy="291.651" rx="38" ry="37.9936" fill="black"/>
<path d="M1729.62 239.68C1729.72 246.245 1728.53 252.766 1726.11 258.871C1723.69 264.975 1720.1 270.543 1715.52 275.257C1710.95 279.972 1705.5 283.739 1699.47 286.346C1693.45 288.952 1686.97 290.345 1680.4 290.447C1673.83 290.548 1667.31 289.356 1661.21 286.937C1655.1 284.519 1649.54 280.921 1644.82 276.351C1640.11 271.78 1636.34 266.326 1633.73 260.299C1631.13 254.272 1629.73 247.791 1629.63 241.226L1679.63 240.453L1729.62 239.68Z" fill="black"/>
<path d="M1735.31 341.677C1728.75 341.722 1722.24 340.473 1716.15 338.002C1710.07 335.53 1704.53 331.885 1699.86 327.274C1695.18 322.663 1691.46 317.176 1688.91 311.127C1686.36 305.078 1685.02 298.585 1684.97 292.019C1684.93 285.453 1686.18 278.943 1688.65 272.86C1691.12 266.776 1694.77 261.239 1699.38 256.565C1703.99 251.89 1709.48 248.17 1715.52 245.616C1721.57 243.062 1728.07 241.724 1734.63 241.68L1734.97 291.679L1735.31 341.677Z" fill="black"/>
<rect x="1502.63" y="241.659" width="100" height="99.9833" stroke="black" stroke-width="3"/>
<ellipse cx="1552.63" cy="291.651" rx="50" ry="49.9916" fill="white"/>
<ellipse cx="1552.63" cy="291.651" rx="38" ry="37.9936" fill="black"/>
<path d="M1513.19 357.215C1512.2 350.724 1512.49 344.102 1514.06 337.726C1515.63 331.349 1518.43 325.344 1522.32 320.053C1526.21 314.762 1531.1 310.288 1536.72 306.888C1542.34 303.487 1548.57 301.226 1555.06 300.234C1561.55 299.242 1568.17 299.538 1574.55 301.106C1580.92 302.673 1586.93 305.481 1592.22 309.369C1597.51 313.257 1601.99 318.149 1605.39 323.766C1608.79 329.383 1611.05 335.615 1612.04 342.105L1562.61 349.66L1513.19 357.215Z" fill="black"/>
<path d="M963.96 318.26L940.026 321.698C974.181 369.241 993.778 432.158 996.827 442.831C999.876 453.504 1004 482.205 1006.07 507.16C1008.14 532.115 1000.35 571.616 1000.35 571.616L1047.6 591.979C1047.6 591.979 1047.37 490.18 1028.5 438.281C1009.63 386.381 999.694 364.296 963.96 318.26Z" fill="white" stroke="black" stroke-width="3" stroke-linecap="round" stroke-linejoin="round"/>
<path d="M1157.84 286.492C1133.61 269.878 1126.69 267.925 1120.84 267.993V304.992C1116.01 317.967 1129.34 299.493 1134.34 314.992C1139.34 330.492 1136.84 329.992 1136.84 329.992C1136.84 329.992 1199.66 328.306 1185.84 313.492C1172.02 298.679 1172.29 296.406 1157.84 286.492Z" fill="white" stroke="black" stroke-width="3"/>
<path d="M1186.14 316.024L1137.25 326.282C1137.25 326.282 1120.44 339.297 1123.96 346.37C1126.36 351.18 1127.55 355.016 1136.77 357.428C1144 359.318 1154.78 355.34 1154.78 355.34C1154.78 355.34 1167.09 362.793 1174.15 361.617C1181.28 360.427 1192.32 348.474 1192.32 348.474C1192.32 348.474 1199.72 354.047 1204.56 352.511C1215.59 349.008 1219.87 342.737 1219.92 339.302C1220.12 326.477 1215.81 321.204 1206.27 317.621C1201.31 315.757 1188.41 314.038 1186.14 316.024Z" fill="#693875" stroke="black" stroke-width="3"/>
<path d="M754.838 308.993C773.62 249.22 830.839 232.069 830.839 232.069L824.073 280.981C824.073 280.981 786.838 284.993 788.338 327.493C789.838 369.993 790.338 361.992 790.338 361.992L746.838 361.993C747.925 358.018 744.186 342.891 754.838 308.993Z" fill="white" stroke="black" stroke-width="3"/>
<path d="M746.838 361.493L789.838 361.493C789.838 361.493 800.454 367.568 800.338 373.493C800.219 379.534 797.183 383.443 789.338 384.493C783.435 385.283 778.838 380.493 778.838 380.493C778.838 380.493 771.333 384.729 765.838 384.759C760.282 384.79 752.838 376.993 752.838 376.993C752.838 376.993 747.753 382.76 743.838 382.993C740.527 383.19 737.077 383.29 734.838 381.493C732.064 379.267 733.338 372.993 733.338 372.993C733.338 372.993 735.634 367.992 738.838 364.493C741.478 361.609 746.838 361.493 746.838 361.493Z" fill="#693875" stroke="black" stroke-width="3"/>
<path d="M1000.1 571.978L1047.33 591.978C1047.33 591.978 1062.78 584.345 1067.06 575.26C1071.42 565.999 1073.06 562.763 1064.57 557.049C1058.18 552.75 1047.33 550.834 1047.33 550.834C1047.33 550.834 1043.41 544.32 1036.94 541.391C1030.39 538.43 1022.52 539.902 1022.52 539.902C1022.52 539.902 1018.24 534.361 1013.79 531.952C1010.02 529.915 1006.52 530.19 1002.53 531.753C997.59 533.688 995.612 540.966 995.612 540.966C995.612 540.966 992.827 550.226 994.007 557.235C994.979 563.011 1000.1 571.978 1000.1 571.978Z" fill="#693875" stroke="black" stroke-width="3"/>
<path d="M941.793 375.993H968.489C948.837 397.493 940.507 410.817 933.604 438.479C930.604 489.979 928.604 612.979 928.604 612.979L885.604 641.979C885.604 641.979 889.308 493.263 899.604 441.979C899.604 418.479 920.837 390.993 941.793 375.993Z" fill="white" stroke="black" stroke-width="3" stroke-linecap="round" stroke-linejoin="round"/>
<path d="M885.604 641.978L928.604 612.978C928.604 612.978 934.05 601.326 929.667 592.291C925.199 583.08 923.712 579.769 913.931 582.792C906.572 585.066 898.27 592.306 898.27 592.306C898.27 592.306 890.739 591.266 884.393 594.467C877.978 597.702 874.18 604.754 874.18 604.754C874.18 604.754 867.184 604.601 862.511 606.556C858.56 608.209 856.574 611.108 855.286 615.192C853.691 620.251 858.114 626.361 858.114 626.361C858.114 626.361 863.571 634.343 869.767 637.826C874.873 640.696 885.604 641.978 885.604 641.978Z" fill="#693875" stroke="black" stroke-width="3"/>
<ellipse cx="1041.45" cy="193.465" rx="81.5" ry="81.4864" fill="white" stroke="black" stroke-width="3"/>
<circle cx="1041.34" cy="193.502" r="42.5" fill="#693875" stroke="black" stroke-width="3"/>
<ellipse cx="888.104" cy="194.465" rx="81.5" ry="81.4864" fill="white" stroke="black" stroke-width="3"/>
<circle cx="887.995" cy="194.502" r="42.5" fill="#693875" stroke="black" stroke-width="3"/>
<path d="M806.946 190.965H1122.95V350.934C1122.95 364.742 1111.75 375.934 1097.95 375.934H831.946C818.139 375.934 806.946 364.742 806.946 350.934V190.965Z" fill="white" stroke="black" stroke-width="3"/>
<rect x="830.946" y="205.963" width="268" height="155.974" rx="25" fill="black" stroke="black" stroke-width="3"/>
<rect x="975.837" y="233.958" width="100" height="99.9833" stroke="black" stroke-width="3"/>
<ellipse cx="1025.84" cy="283.95" rx="50" ry="49.9916" fill="white"/>
<ellipse cx="1025.84" cy="283.95" rx="38" ry="37.9936" fill="black"/>
<rect x="847.837" y="233.958" width="100" height="99.9833" stroke="black" stroke-width="3"/>
<ellipse cx="897.837" cy="283.95" rx="50" ry="49.9916" fill="white"/>
<ellipse cx="897.837" cy="283.95" rx="38" ry="37.9936" fill="black"/>
<path d="M946.592 222.979C946.694 229.544 945.501 236.065 943.082 242.169C940.664 248.274 937.066 253.842 932.496 258.556C927.925 263.27 922.471 267.038 916.444 269.644C910.418 272.251 903.936 273.644 897.371 273.746C890.806 273.847 884.285 272.655 878.18 270.236C872.076 267.817 866.508 264.22 861.794 259.65C857.079 255.079 853.312 249.625 850.705 243.598C848.099 237.571 846.706 231.09 846.604 224.525L896.598 223.752L946.592 222.979Z" fill="black"/>
<path d="M974.093 303.705C968.267 306.734 961.902 308.585 955.36 309.154C948.819 309.723 942.23 308.997 935.968 307.019C929.707 305.041 923.897 301.85 918.87 297.626C913.842 293.403 909.695 288.231 906.667 282.405C903.638 276.579 901.787 270.213 901.218 263.672C900.649 257.131 901.375 250.541 903.353 244.28C905.331 238.019 908.522 232.209 912.746 227.181C916.969 222.154 922.141 218.007 927.967 214.979L951.03 259.342L974.093 303.705Z" fill="black"/>
<path d="M343.811 365.537H319.632C346.68 417.453 357.132 482.517 358.632 493.515C360.132 504.513 360.132 533.509 358.632 558.504C357.132 583.5 343.811 621.494 343.811 621.494L388.132 644.579C388.132 644.579 401.932 547.571 390.632 493.515C379.332 439.46 372.637 416.186 343.811 365.537Z" fill="white" stroke="black" stroke-width="3" stroke-linecap="round" stroke-linejoin="round"/>
<path d="M510.133 293.093C491.543 270.343 481.48 270.525 475.633 270.593V307.593C474.841 314.477 483.167 302.485 488.633 325.593C494.098 348.7 492.133 352.093 492.133 352.093C492.133 352.093 547.774 359.544 543.633 342.593C539.491 325.641 525.007 311.295 510.133 293.093Z" fill="white" stroke="black" stroke-width="3"/>
<path d="M541.633 337.593L492.133 352.093C492.133 352.093 483.26 364.858 484.622 374.183C486.011 383.689 488.276 389.87 498.545 389.643C506.271 389.473 512.633 386.593 512.633 386.593C512.633 386.593 520.884 392.81 527.933 391.538C535.059 390.252 541.133 379.093 541.133 379.093C541.133 379.093 555.811 383.846 560.633 382.093C571.633 378.093 571.896 371.509 570.633 367.593C565.633 352.093 564.633 352.093 557.133 344.593C553.624 341.084 543.876 335.241 541.633 337.593Z" fill="#693875" stroke="black" stroke-width="3"/>
<path d="M106.384 324.192C121.297 263.339 185.634 234.669 185.634 234.669L178.867 283.581C178.867 283.581 156.562 286.21 143.762 349.553C130.961 412.897 135.34 395.836 135.34 395.836L99.4213 396.419C99.4213 396.419 87.8399 399.865 106.384 324.192Z" fill="white" stroke="black" stroke-width="3"/>
<path d="M97.1504 394.591L135.34 395.836C135.34 395.836 144.587 402.86 144.471 408.785C144.352 414.826 141.594 421.166 133.748 422.216C127.846 423.006 122.457 417.241 122.457 417.241C122.457 417.241 117.194 424.443 111.698 424.473C106.142 424.503 101.498 417.198 101.498 417.198C101.498 417.198 96.7704 421.1 92.855 421.333C89.5449 421.53 87.1875 421.014 84.9485 419.217C82.1751 416.991 83.1658 410.185 83.1658 410.185C83.1658 410.185 84.3798 404.523 87.5836 401.024C90.224 398.141 97.1504 394.591 97.1504 394.591Z" fill="#693875" stroke="black" stroke-width="3"/>
<path d="M342.969 621.243L387.985 644.578C387.985 644.578 405.045 636.872 409.697 627.972C414.439 618.899 416.214 615.734 407.963 609.673C401.755 605.114 390.996 602.751 390.996 602.751C390.996 602.751 387.349 596.081 381 592.887C374.581 589.658 366.655 590.804 366.655 590.804C366.655 590.804 362.613 585.091 358.26 582.499C354.58 580.309 351.069 580.439 347.021 581.835C342.006 583.564 339.729 590.754 339.729 590.754C339.729 590.754 336.563 599.891 337.452 606.943C338.185 612.755 342.969 621.243 342.969 621.243Z" fill="#693875" stroke="black" stroke-width="3"/>
<path d="M301.206 364.579H327.902C308.25 386.079 301.206 386.579 282.632 415.579C245.804 473.079 240.632 506.579 240.632 506.579L192.632 512.079C192.632 512.079 210.863 470.114 236.132 415.579C255.49 381.616 288.564 372.34 301.206 364.579Z" fill="white" stroke="black" stroke-width="3" stroke-linecap="round" stroke-linejoin="round"/>
<path d="M239.499 509.391L192.809 514.777C192.809 514.777 176.913 504.791 175.234 494.89C173.523 484.796 172.811 481.238 182.529 478.019C189.841 475.597 200.804 476.669 200.804 476.669C200.804 476.669 206.331 471.45 213.356 470.37C220.457 469.279 227.644 472.815 227.644 472.815C227.644 472.815 233.251 468.627 238.191 467.505C242.367 466.557 245.667 467.764 249.087 470.341C253.324 473.533 253.271 481.075 253.271 481.075C253.271 481.075 253.464 490.743 250.442 497.176C247.952 502.478 239.499 509.391 239.499 509.391Z" fill="#693875" stroke="black" stroke-width="3"/>
<path d="M324.632 219.061C324.632 264.065 288.144 300.547 243.132 300.547C198.121 300.547 161.632 264.065 161.632 219.061C155.133 149.073 198.121 137.575 243.132 137.575C288.144 137.575 324.632 174.057 324.632 219.061Z" fill="white" stroke="black" stroke-width="3"/>
<circle cx="242.132" cy="219.103" r="42.5" fill="#693875" stroke="black" stroke-width="3"/>
<ellipse cx="396.241" cy="196.065" rx="81.5" ry="81.4864" fill="white" stroke="black" stroke-width="3"/>
<circle cx="396.132" cy="196.103" r="42.5" fill="#693875" stroke="black" stroke-width="3"/>
<path d="M161.741 193.565H477.741V353.535C477.741 367.342 466.548 378.534 452.741 378.534H186.741C172.934 378.534 161.741 367.342 161.741 353.534V193.565Z" fill="white" stroke="black" stroke-width="3"/>
<rect x="185.741" y="208.563" width="268" height="155.974" rx="25" fill="black" stroke="black" stroke-width="3"/>
<rect x="330.632" y="236.558" width="100" height="99.9833" stroke="black" stroke-width="3"/>
<ellipse cx="380.632" cy="286.55" rx="50" ry="49.9916" fill="white"/>
<ellipse cx="380.632" cy="286.55" rx="38" ry="37.9936" fill="black"/>
<path d="M429.62 225.579C429.722 232.144 428.529 238.665 426.111 244.769C423.692 250.874 420.095 256.442 415.524 261.156C410.954 265.87 405.499 269.638 399.473 272.244C393.446 274.851 386.965 276.244 380.399 276.346C373.834 276.447 367.313 275.255 361.209 272.836C355.104 270.418 349.536 266.82 344.822 262.25C340.108 257.679 336.34 252.225 333.734 246.198C331.128 240.171 329.734 233.69 329.632 227.125L379.626 226.352L429.62 225.579Z" fill="black"/>
<rect x="202.632" y="236.558" width="100" height="99.9833" stroke="black" stroke-width="3"/>
<ellipse cx="252.632" cy="286.55" rx="50" ry="49.9916" fill="white"/>
<ellipse cx="252.632" cy="286.55" rx="38" ry="37.9936" fill="black"/>
</svg>
