<svg width="3250" height="651" viewBox="0 0 3250 651" fill="none" xmlns="http://www.w3.org/2000/svg">
<path d="M2951.5 352.996H2925L2951.5 648.996H3000.5L2951.5 352.996Z" fill="white" stroke="black" stroke-width="3" stroke-linecap="round" stroke-linejoin="round"/>
<path d="M3000.89 648.996L2951.39 648.996C2951.39 648.996 2937.74 637.243 2937.21 627.215C2936.67 616.992 2939.5 606.157 2949.53 604.073C2957.07 602.505 2964.7 612.045 2964.7 612.045C2964.7 612.045 2970.67 599.654 2977.78 599.387C2984.96 599.116 2991.8 611.291 2991.8 611.291C2991.8 611.291 2997.47 604.505 3002.5 603.956C3006.76 603.493 3009.87 604.274 3012.97 607.226C3016.81 610.882 3016.32 622.434 3016.32 622.434C3016.32 622.434 3015.4 632.06 3011.66 638.105C3008.58 643.087 3000.89 648.996 3000.89 648.996Z" fill="#693875" stroke="black" stroke-width="3"/>
<path d="M2898.5 352.996H2925L2898.5 648.996H2849.5L2898.5 352.996Z" fill="white" stroke="black" stroke-width="3"/>
<path d="M2898.39 648.996L2849.39 648.996C2849.39 648.996 2835.96 637.704 2835.37 627.679C2834.77 617.459 2837.54 606.608 2847.55 604.464C2855.08 602.852 2862.77 612.347 2862.77 612.347C2862.77 612.347 2868.67 599.921 2875.77 599.612C2882.95 599.3 2889.87 611.435 2889.87 611.435C2889.87 611.435 2895.49 604.615 2900.53 604.037C2904.78 603.548 2907.89 604.311 2911.01 607.245C2914.88 610.879 2914.45 622.433 2914.45 622.433C2914.45 622.433 2913.59 632.065 2909.89 638.131C2906.83 643.131 2898.39 648.996 2898.39 648.996Z" fill="#693875" stroke="black" stroke-width="3"/>
<path d="M2699.71 353.848C2723.07 259.892 2767 235.996 2767 235.996V285.382C2767 285.382 2742.82 324.939 2735.71 394.803C2728.6 464.667 2730.5 498.996 2730.5 498.996L2681.23 492.973C2681.23 492.973 2679.34 435.757 2699.71 353.848Z" fill="white" stroke="black" stroke-width="3"/>
<path d="M2681 492.996L2730.5 498.996C2730.5 498.996 2742.28 511.709 2741.61 521.729C2740.92 531.944 2736.81 542.361 2726.61 543.229C2718.93 543.882 2712.5 533.496 2712.5 533.496C2712.5 533.496 2705.08 545.082 2698 544.496C2690.84 543.904 2685.5 530.996 2685.5 530.996C2685.5 530.996 2679.06 537.055 2674 536.996C2669.72 536.946 2666.73 535.798 2664 532.496C2660.62 528.405 2662.5 516.996 2662.5 516.996C2662.5 516.996 2664.56 507.549 2669 501.996C2672.66 497.419 2681 492.996 2681 492.996Z" fill="#693875" stroke="black" stroke-width="3"/>
<path d="M3150.29 353.848C3126.93 259.892 3083 235.996 3083 235.996V285.382C3083 285.382 3107.18 324.939 3114.29 394.803C3121.39 464.667 3119.5 498.996 3119.5 498.996L3168.77 492.973C3168.77 492.973 3170.66 435.757 3150.29 353.848Z" fill="white" stroke="black" stroke-width="3"/>
<path d="M3169 492.996L3119.5 498.996C3119.5 498.996 3107.72 511.709 3108.39 521.729C3109.08 531.944 3113.19 542.361 3123.39 543.229C3131.06 543.882 3137.5 533.496 3137.5 533.496C3137.5 533.496 3144.92 545.082 3152 544.496C3159.16 543.904 3164.5 530.996 3164.5 530.996C3164.5 530.996 3170.93 537.055 3176 536.996C3180.28 536.946 3183.27 535.798 3186 532.496C3189.38 528.405 3187.5 516.996 3187.5 516.996C3187.5 516.996 3185.44 507.549 3181 501.996C3177.34 497.419 3169 492.996 3169 492.996Z" fill="#693875" stroke="black" stroke-width="3"/>
<circle cx="2848.39" cy="157.496" r="81.5" fill="white" stroke="black" stroke-width="3"/>
<circle cx="2848.28" cy="157.496" r="42.5" fill="#693875" stroke="black" stroke-width="3"/>
<path d="M3082.89 170.496C3086.81 217.369 3048.1 252.806 3001.39 251.996C2956.38 251.996 2919.89 215.507 2919.89 170.496C2919.89 125.485 2956.38 88.9961 3001.39 88.9961C3046.4 88.9961 3082.89 125.485 3082.89 170.496Z" fill="white" stroke="black" stroke-width="3"/>
<circle cx="3001.28" cy="170.496" r="42.5" fill="#693875" stroke="black" stroke-width="3"/>
<path d="M2767 167.996H3083V327.996C3083 341.803 3071.81 352.996 3058 352.996H2792C2778.19 352.996 2767 341.803 2767 327.996V167.996Z" fill="white" stroke="black" stroke-width="3"/>
<rect x="2791" y="182.996" width="268" height="156" rx="25" fill="black" stroke="black" stroke-width="3"/>
<rect x="2809" y="210.996" width="100" height="100" stroke="black" stroke-width="3"/>
<circle cx="2859" cy="260.996" r="50" fill="white"/>
<circle cx="2859" cy="260.996" r="38" fill="black"/>
<rect x="2941" y="210.996" width="100" height="100" stroke="black" stroke-width="3"/>
<circle cx="2991" cy="260.996" r="50" fill="white"/>
<circle cx="2991" cy="260.996" r="38" fill="black"/>
<path d="M2262.71 352.996H2289.21L2262.71 648.996H2213.71L2262.71 352.996Z" fill="white" stroke="black" stroke-width="3"/>
<path d="M2262.6 648.996L2213.6 648.996C2213.6 648.996 2200.17 637.704 2199.58 627.679C2198.97 617.459 2201.75 606.608 2211.76 604.464C2219.29 602.852 2226.98 612.347 2226.98 612.347C2226.98 612.347 2232.88 599.921 2239.98 599.612C2247.16 599.3 2254.08 611.435 2254.08 611.435C2254.08 611.435 2259.7 604.615 2264.73 604.037C2268.99 603.548 2272.1 604.311 2275.22 607.245C2279.08 610.879 2278.65 622.433 2278.65 622.433C2278.65 622.433 2277.79 632.065 2274.09 638.131C2271.04 643.131 2262.6 648.996 2262.6 648.996Z" fill="#693875" stroke="black" stroke-width="3"/>
<path d="M2315.71 352.996H2289.21L2315.71 648.996H2364.71L2315.71 352.996Z" fill="white" stroke="black" stroke-width="3" stroke-linecap="round" stroke-linejoin="round"/>
<path d="M2365.1 648.996L2315.6 648.996C2315.6 648.996 2301.95 637.243 2301.42 627.215C2300.87 616.992 2303.71 606.157 2313.73 604.073C2321.27 602.505 2328.91 612.045 2328.91 612.045C2328.91 612.045 2334.88 599.654 2341.98 599.387C2349.16 599.116 2356.01 611.291 2356.01 611.291C2356.01 611.291 2361.67 604.505 2366.71 603.956C2370.97 603.493 2374.07 604.274 2377.18 607.226C2381.02 610.882 2380.52 622.434 2380.52 622.434C2380.52 622.434 2379.61 632.06 2375.87 638.105C2372.78 643.087 2365.1 648.996 2365.1 648.996Z" fill="#693875" stroke="black" stroke-width="3"/>
<path d="M2063.91 353.848C2087.28 259.892 2131.21 235.996 2131.21 235.996V285.382C2131.21 285.382 2107.02 324.939 2099.92 394.803C2092.81 464.667 2094.71 498.996 2094.71 498.996L2045.44 492.973C2045.44 492.973 2043.54 435.757 2063.91 353.848Z" fill="white" stroke="black" stroke-width="3"/>
<path d="M2045.21 492.996L2094.71 498.996C2094.71 498.996 2106.49 511.709 2105.81 521.729C2105.13 531.944 2101.02 542.361 2090.81 543.229C2083.14 543.882 2076.71 533.496 2076.71 533.496C2076.71 533.496 2069.29 545.082 2062.21 544.496C2055.04 543.904 2049.71 530.996 2049.71 530.996C2049.71 530.996 2043.27 537.055 2038.21 536.996C2033.92 536.946 2030.93 535.798 2028.21 532.496C2024.83 528.405 2026.71 516.996 2026.71 516.996C2026.71 516.996 2028.77 507.549 2033.21 501.996C2036.86 497.419 2045.21 492.996 2045.21 492.996Z" fill="#693875" stroke="black" stroke-width="3"/>
<path d="M2513.15 355.397C2498.79 245.423 2450.29 230.248 2445.86 237.545V286.931C2450.34 269.976 2474.91 308.058 2477.15 396.352C2479.38 484.646 2464.75 493.045 2464.75 493.045L2513.15 496.545C2513.15 496.545 2524.07 439.091 2513.15 355.397Z" fill="white" stroke="black" stroke-width="3"/>
<path d="M2513.63 496.199L2464.75 493.045C2464.75 493.045 2453.59 504.569 2448.8 513.396C2443.29 523.546 2440.14 533.822 2454.75 536.545C2462.32 537.956 2471.75 529.545 2471.75 529.545C2471.75 529.545 2473.18 543.329 2480.25 544.045C2487.4 544.768 2502.28 532.741 2502.28 532.741C2502.28 532.741 2503.76 541.179 2508.75 542.045C2512.97 542.777 2504.92 540.121 2508.75 542.045C2520.59 547.998 2523.57 529.521 2524.25 519.545C2525.38 503.045 2513.94 495.48 2513.63 496.199Z" fill="#693875"/>
<path d="M2508.75 542.045C2520.59 547.998 2523.57 529.521 2524.25 519.545C2525.38 503.045 2513.94 495.48 2513.63 496.199L2464.75 493.045C2464.75 493.045 2453.59 504.569 2448.8 513.396C2443.29 523.546 2440.14 533.822 2454.75 536.545C2462.32 537.956 2471.75 529.545 2471.75 529.545C2471.75 529.545 2473.18 543.329 2480.25 544.045C2487.4 544.768 2502.28 532.741 2502.28 532.741C2502.28 532.741 2503.76 541.179 2508.75 542.045ZM2508.75 542.045C2512.97 542.777 2504.92 540.121 2508.75 542.045Z" stroke="black" stroke-width="3"/>
<path d="M2294.32 165.496C2294.32 210.507 2257.84 246.996 2212.82 246.996C2166.04 250.76 2127.78 218.024 2131.32 165.496C2131.32 120.485 2167.81 83.9961 2212.82 83.9961C2257.84 83.9961 2294.32 120.485 2294.32 165.496Z" fill="white" stroke="black" stroke-width="3"/>
<circle cx="2212.71" cy="165.496" r="42.5" fill="#693875" stroke="black" stroke-width="3"/>
<circle cx="2365.71" cy="170.496" r="81.5" fill="white" stroke="black" stroke-width="3"/>
<circle cx="2365.6" cy="170.496" r="42.5" fill="#693875" stroke="black" stroke-width="3"/>
<path d="M2131.2 167.996H2447.2V327.996C2447.2 341.803 2436.01 352.996 2422.2 352.996H2156.2C2142.4 352.996 2131.2 341.803 2131.2 327.996V167.996Z" fill="white" stroke="black" stroke-width="3"/>
<rect x="2155.21" y="182.996" width="268" height="156" rx="25" fill="black" stroke="black" stroke-width="3"/>
<rect x="2173.1" y="210.996" width="100" height="100" stroke="black" stroke-width="3"/>
<circle cx="2223.1" cy="260.996" r="50" fill="white"/>
<circle cx="2223.1" cy="260.996" r="38" fill="black"/>
<path d="M2203.7 190.996C2209.44 194.188 2214.49 198.478 2218.57 203.622C2222.65 208.766 2225.68 214.664 2227.48 220.978C2229.28 227.292 2229.82 233.9 2229.07 240.423C2228.31 246.945 2226.29 253.256 2223.09 258.995C2219.9 264.733 2215.61 269.787 2210.47 273.867C2205.32 277.948 2199.43 280.975 2193.11 282.776C2186.8 284.577 2180.19 285.117 2173.67 284.365C2167.14 283.612 2160.83 281.583 2155.1 278.392L2179.4 234.694L2203.7 190.996Z" fill="black"/>
<rect x="2305.1" y="210.996" width="100" height="100" stroke="black" stroke-width="3"/>
<circle cx="2355.1" cy="260.996" r="50" fill="white"/>
<circle cx="2355.1" cy="260.996" r="38" fill="black"/>
<path d="M2422.82 278.829C2417.05 281.968 2410.72 283.94 2404.19 284.633C2397.66 285.326 2391.06 284.726 2384.76 282.868C2378.47 281.01 2372.6 277.929 2367.49 273.802C2362.38 269.675 2358.14 264.583 2355 258.815C2351.86 253.048 2349.89 246.719 2349.19 240.19C2348.5 233.66 2349.1 227.058 2350.96 220.761C2352.82 214.463 2355.9 208.593 2360.03 203.486C2364.15 198.379 2369.24 194.135 2375.01 190.996L2398.91 234.913L2422.82 278.829Z" fill="black"/>
<path d="M1637.95 352.996H1611.45L1617.95 390.496L1637.95 648.996H1686.95L1645.95 390.496L1637.95 352.996Z" fill="white" stroke="black" stroke-width="3" stroke-linecap="round" stroke-linejoin="round"/>
<path d="M1687.34 648.997L1637.84 648.997C1637.84 648.997 1624.19 637.244 1623.66 627.216C1623.11 616.993 1625.95 606.158 1635.97 604.074C1643.51 602.505 1651.15 612.046 1651.15 612.046C1651.15 612.046 1657.12 599.655 1664.22 599.388C1671.4 599.117 1678.25 611.292 1678.25 611.292C1678.25 611.292 1683.91 604.506 1688.95 603.957C1693.21 603.494 1696.31 604.275 1699.42 607.227C1703.26 610.883 1702.76 622.435 1702.76 622.435C1702.76 622.435 1701.85 632.061 1698.11 638.106C1695.03 643.088 1687.34 648.997 1687.34 648.997Z" fill="#693875" stroke="black" stroke-width="3"/>
<path d="M1585.05 352.996H1611.55L1605.45 390.496L1585.05 648.996H1536.05L1576.45 390.496L1585.05 352.996Z" fill="white" stroke="black" stroke-width="3"/>
<path d="M1584.95 648.996L1535.95 648.996C1535.95 648.996 1522.52 637.704 1521.93 627.679C1521.32 617.459 1524.09 606.608 1534.11 604.464C1541.64 602.852 1549.33 612.347 1549.33 612.347C1549.33 612.347 1555.23 599.921 1562.33 599.612C1569.51 599.3 1576.43 611.435 1576.43 611.435C1576.43 611.435 1582.05 604.615 1587.08 604.037C1591.34 603.548 1594.45 604.311 1597.57 607.245C1601.43 610.879 1601 622.433 1601 622.433C1601 622.433 1600.14 632.065 1596.44 638.131C1593.39 643.131 1584.95 648.996 1584.95 648.996Z" fill="#693875" stroke="black" stroke-width="3"/>
<path d="M1836.74 377.848C1813.37 283.892 1769.45 259.996 1769.45 259.996V309.382C1769.45 309.382 1793.63 348.939 1800.73 418.803C1807.84 488.667 1805.94 522.996 1805.94 522.996L1855.21 516.973C1855.21 516.973 1857.11 459.757 1836.74 377.848Z" fill="white" stroke="black" stroke-width="3"/>
<path d="M1855.45 516.996L1805.95 522.996C1805.95 522.996 1794.16 535.709 1794.84 545.729C1795.52 555.944 1799.64 566.361 1809.84 567.229C1817.51 567.882 1823.95 557.496 1823.95 557.496C1823.95 557.496 1831.36 569.082 1838.45 568.496C1845.61 567.904 1850.95 554.996 1850.95 554.996C1850.95 554.996 1857.38 561.055 1862.45 560.996C1866.73 560.946 1869.72 559.798 1872.45 556.496C1875.82 552.405 1873.95 540.996 1873.95 540.996C1873.95 540.996 1871.88 531.549 1867.45 525.996C1863.79 521.419 1855.45 516.996 1855.45 516.996Z" fill="#693875" stroke="black" stroke-width="3"/>
<path d="M1386.2 380.445C1396.29 270.364 1443.05 261.361 1453.49 262.593V311.979C1449.01 295.024 1424.44 333.106 1422.2 421.4C1419.97 509.694 1434.6 518.093 1434.6 518.093L1386.2 521.593C1386.2 521.593 1378.5 464.497 1386.2 380.445Z" fill="white" stroke="black" stroke-width="3"/>
<path d="M1385.72 521.247L1434.6 518.093C1434.6 518.093 1445.76 529.617 1450.55 538.444C1456.05 548.594 1459.21 558.87 1444.6 561.593C1437.03 563.004 1427.6 554.593 1427.6 554.593C1427.6 554.593 1426.17 568.377 1419.1 569.093C1411.95 569.816 1397.07 557.789 1397.07 557.789C1397.07 557.789 1395.59 566.226 1390.6 567.092C1386.38 567.825 1394.43 565.169 1390.6 567.092C1378.76 573.046 1375.78 554.569 1375.1 544.593C1373.97 528.093 1385.41 520.528 1385.72 521.247Z" fill="#693875"/>
<path d="M1390.6 567.092C1378.76 573.046 1375.78 554.569 1375.1 544.593C1373.97 528.093 1385.41 520.528 1385.72 521.247L1434.6 518.093C1434.6 518.093 1445.76 529.617 1450.55 538.444C1456.05 548.594 1459.21 558.87 1444.6 561.593C1437.03 563.004 1427.6 554.593 1427.6 554.593C1427.6 554.593 1426.17 568.377 1419.1 569.093C1411.95 569.816 1397.07 557.789 1397.07 557.789C1397.07 557.789 1395.59 566.226 1390.6 567.092ZM1390.6 567.092C1386.38 567.825 1394.43 565.169 1390.6 567.092Z" stroke="black" stroke-width="3"/>
<path d="M1616.7 186.496C1616.7 231.507 1580.21 267.996 1535.2 267.996C1487.69 269.083 1450 233.116 1453.7 186.496C1453.7 141.485 1490.18 104.996 1535.2 104.996C1580.21 104.996 1616.7 141.485 1616.7 186.496Z" fill="white" stroke="black" stroke-width="3"/>
<circle cx="1535.09" cy="186.496" r="42.5" fill="#693875" stroke="black" stroke-width="3"/>
<path d="M1769.7 186.496C1769.7 231.507 1733.21 267.996 1688.2 267.996C1640.69 269.083 1603 233.116 1606.7 186.496C1606.7 141.485 1643.18 104.996 1688.2 104.996C1733.21 104.996 1769.7 141.485 1769.7 186.496Z" fill="white" stroke="black" stroke-width="3"/>
<circle cx="1688.09" cy="186.496" r="42.5" fill="#693875" stroke="black" stroke-width="3"/>
<path d="M1453.55 195.996H1769.55V355.996C1769.55 369.803 1758.36 380.996 1744.55 380.996H1478.55C1464.75 380.996 1453.55 369.803 1453.55 355.996V195.996Z" fill="white" stroke="black" stroke-width="3"/>
<rect x="1477.55" y="210.996" width="268" height="156" rx="25" fill="black" stroke="black" stroke-width="3"/>
<rect x="1627.55" y="242.996" width="100" height="100" stroke="black" stroke-width="3"/>
<circle cx="1677.55" cy="292.996" r="50" fill="white"/>
<circle cx="1677.55" cy="292.996" r="38" fill="black"/>
<path d="M1001.5 352.996H975L1001.5 648.996H1050.5L1001.5 352.996Z" fill="white" stroke="black" stroke-width="3" stroke-linecap="round" stroke-linejoin="round"/>
<path d="M1050.89 648.996L1001.39 648.996C1001.39 648.996 987.744 637.243 987.211 627.215C986.668 616.992 989.503 606.157 999.527 604.073C1007.07 602.505 1014.7 612.045 1014.7 612.045C1014.7 612.045 1020.68 599.654 1027.78 599.387C1034.96 599.116 1041.81 611.291 1041.81 611.291C1041.81 611.291 1047.47 604.505 1052.5 603.956C1056.76 603.493 1059.87 604.274 1062.97 607.226C1066.81 610.882 1066.32 622.434 1066.32 622.434C1066.32 622.434 1065.4 632.06 1061.66 638.105C1058.58 643.087 1050.89 648.996 1050.89 648.996Z" fill="#693875" stroke="black" stroke-width="3"/>
<path d="M948.5 352.996H975L948.5 648.996H899.5L948.5 352.996Z" fill="white" stroke="black" stroke-width="3"/>
<path d="M948.391 648.996L899.391 648.996C899.391 648.996 885.964 637.704 885.372 627.679C884.769 617.459 887.54 606.608 897.551 604.464C905.083 602.852 912.771 612.347 912.771 612.347C912.771 612.347 918.673 599.921 925.774 599.612C932.952 599.3 939.872 611.435 939.872 611.435C939.872 611.435 945.494 604.615 950.526 604.037C954.781 603.548 957.893 604.311 961.013 607.245C964.877 610.879 964.449 622.433 964.449 622.433C964.449 622.433 963.588 632.065 959.885 638.131C956.833 643.131 948.391 648.996 948.391 648.996Z" fill="#693875" stroke="black" stroke-width="3"/>
<path d="M749.708 353.848C773.075 259.892 817 235.996 817 235.996V285.382C817 285.382 792.817 324.939 785.711 394.803C778.605 464.667 780.5 498.996 780.5 498.996L731.233 492.973C731.233 492.973 729.338 435.757 749.708 353.848Z" fill="white" stroke="black" stroke-width="3"/>
<path d="M731 492.996L780.5 498.996C780.5 498.996 792.282 511.709 791.609 521.729C790.923 531.944 786.81 542.361 776.609 543.229C768.935 543.882 762.5 533.496 762.5 533.496C762.5 533.496 755.084 545.082 748 544.496C740.84 543.904 735.5 530.996 735.5 530.996C735.5 530.996 729.065 537.055 724 536.996C719.718 536.946 716.726 535.798 714 532.496C710.623 528.405 712.5 516.996 712.5 516.996C712.5 516.996 714.564 507.549 719 501.996C722.656 497.419 731 492.996 731 492.996Z" fill="#693875" stroke="black" stroke-width="3"/>
<path d="M1200.29 353.848C1176.93 259.892 1133 235.996 1133 235.996V285.382C1133 285.382 1157.18 324.939 1164.29 394.803C1171.39 464.667 1169.5 498.996 1169.5 498.996L1218.77 492.973C1218.77 492.973 1220.66 435.757 1200.29 353.848Z" fill="white" stroke="black" stroke-width="3"/>
<path d="M1219 492.996L1169.5 498.996C1169.5 498.996 1157.72 511.709 1158.39 521.729C1159.08 531.944 1163.19 542.361 1173.39 543.229C1181.07 543.882 1187.5 533.496 1187.5 533.496C1187.5 533.496 1194.92 545.082 1202 544.496C1209.16 543.904 1214.5 530.996 1214.5 530.996C1214.5 530.996 1220.93 537.055 1226 536.996C1230.28 536.946 1233.27 535.798 1236 532.496C1239.38 528.405 1237.5 516.996 1237.5 516.996C1237.5 516.996 1235.44 507.549 1231 501.996C1227.34 497.419 1219 492.996 1219 492.996Z" fill="#693875" stroke="black" stroke-width="3"/>
<path d="M980.141 155.496C980.141 200.507 943.653 236.996 898.641 236.996C851.135 238.083 813.446 202.116 817.141 155.496C817.141 110.485 853.63 73.9961 898.641 73.9961C943.653 73.9961 980.141 110.485 980.141 155.496Z" fill="white" stroke="black" stroke-width="3"/>
<circle cx="898.533" cy="155.496" r="42.5" fill="#693875" stroke="black" stroke-width="3"/>
<path d="M1133.14 173.496C1133.46 218.507 1096.65 268.997 1051.64 268.997C1006.63 268.997 970.142 232.508 970.142 187.497C970.142 142.485 1013.64 106.996 1051.64 105.997C1051.26 105.111 1132.7 111.971 1133.14 173.496Z" fill="white" stroke="black" stroke-width="3"/>
<circle cx="1051.53" cy="187.496" r="42.5" fill="#693875" stroke="black" stroke-width="3"/>
<path d="M817.25 168.996H1133.25V328.996C1133.25 342.803 1122.06 353.996 1108.25 353.996H842.25C828.443 353.996 817.25 342.803 817.25 328.996V168.996Z" fill="white" stroke="black" stroke-width="3"/>
<rect x="841.25" y="183.996" width="268" height="156" rx="25" fill="black" stroke="black" stroke-width="3"/>
<rect x="859.25" y="211.996" width="100" height="100" stroke="black" stroke-width="3"/>
<circle cx="909.25" cy="261.996" r="50" fill="white"/>
<circle cx="909.25" cy="261.996" r="38" fill="black"/>
<path d="M889.743 191.996C895.481 195.188 900.535 199.478 904.615 204.622C908.696 209.766 911.723 215.664 913.524 221.978C915.325 228.292 915.865 234.9 915.113 241.423C914.361 247.945 912.331 254.256 909.14 259.995C905.949 265.733 901.658 270.787 896.514 274.867C891.37 278.948 885.472 281.975 879.158 283.776C872.844 285.577 866.237 286.117 859.714 285.365C853.191 284.612 846.88 282.583 841.142 279.392L865.442 235.694L889.743 191.996Z" fill="black"/>
<rect x="991.25" y="211.996" width="100" height="100" stroke="black" stroke-width="3"/>
<circle cx="1041.25" cy="261.996" r="50" fill="white"/>
<circle cx="1041.25" cy="261.996" r="38" fill="black"/>
<path d="M1108.86 279.829C1103.1 282.968 1096.77 284.94 1090.24 285.633C1083.71 286.326 1077.11 285.726 1070.81 283.868C1064.51 282.01 1058.64 278.929 1053.53 274.802C1048.43 270.675 1044.18 265.583 1041.04 259.815C1037.91 254.048 1035.93 247.719 1035.24 241.19C1034.55 234.66 1035.15 228.058 1037.01 221.761C1038.86 215.463 1041.94 209.593 1046.07 204.486C1050.2 199.379 1055.29 195.135 1061.06 191.996L1084.96 235.913L1108.86 279.829Z" fill="black"/>
<path d="M1021.74 191.996C1027.48 195.188 1032.54 199.478 1036.62 204.622C1040.7 209.766 1043.72 215.664 1045.52 221.978C1047.33 228.292 1047.87 234.9 1047.11 241.423C1046.36 247.945 1044.33 254.256 1041.14 259.995C1037.95 265.733 1033.66 270.787 1028.51 274.867C1023.37 278.948 1017.47 281.975 1011.16 283.776C1004.84 285.577 998.237 286.117 991.714 285.365C985.191 284.612 978.88 282.583 973.142 279.392L997.442 235.694L1021.74 191.996Z" fill="black"/>
<path d="M351.5 352.996H325L351.5 648.996H400.5L351.5 352.996Z" fill="white" stroke="black" stroke-width="3" stroke-linecap="round" stroke-linejoin="round"/>
<path d="M400.891 648.996L351.391 648.996C351.391 648.996 337.744 637.243 337.211 627.215C336.668 616.992 339.503 606.157 349.527 604.073C357.068 602.505 364.7 612.045 364.7 612.045C364.7 612.045 370.675 599.654 377.778 599.387C384.958 599.116 391.805 611.291 391.805 611.291C391.805 611.291 397.468 604.505 402.504 603.956C406.761 603.493 409.868 604.274 412.971 607.226C416.813 610.882 416.317 622.434 416.317 622.434C416.317 622.434 415.401 632.06 411.662 638.105C408.58 643.087 400.891 648.996 400.891 648.996Z" fill="#693875" stroke="black" stroke-width="3"/>
<path d="M298.5 352.996H325L298.5 648.996H249.5L298.5 352.996Z" fill="white" stroke="black" stroke-width="3"/>
<path d="M298.391 648.996L249.391 648.996C249.391 648.996 235.964 637.704 235.372 627.679C234.769 617.459 237.54 606.608 247.551 604.464C255.083 602.852 262.771 612.347 262.771 612.347C262.771 612.347 268.673 599.921 275.774 599.612C282.952 599.3 289.872 611.435 289.872 611.435C289.872 611.435 295.494 604.615 300.526 604.037C304.781 603.548 307.893 604.311 311.013 607.245C314.877 610.879 314.449 622.433 314.449 622.433C314.449 622.433 313.588 632.065 309.885 638.131C306.833 643.131 298.391 648.996 298.391 648.996Z" fill="#693875" stroke="black" stroke-width="3"/>
<circle cx="248.5" cy="170.496" r="81.5" fill="white" stroke="black" stroke-width="3"/>
<circle cx="248.391" cy="170.496" r="42.5" fill="#693875" stroke="black" stroke-width="3"/>
<circle cx="401.5" cy="170.496" r="81.5" fill="white" stroke="black" stroke-width="3"/>
<circle cx="401.391" cy="170.496" r="42.5" fill="#693875" stroke="black" stroke-width="3"/>
<path d="M167 167.996H483V327.996C483 341.803 471.807 352.996 458 352.996H192C178.193 352.996 167 341.803 167 327.996V167.996Z" fill="white" stroke="black" stroke-width="3"/>
<rect x="191" y="182.996" width="268" height="156" rx="25" fill="black" stroke="black" stroke-width="3"/>
<rect x="209" y="210.996" width="100" height="100" stroke="black" stroke-width="3"/>
<circle cx="259" cy="260.996" r="50" fill="white"/>
<circle cx="259" cy="260.996" r="38" fill="black"/>
<path d="M307.879 312.537C307.981 305.971 306.788 299.45 304.369 293.346C301.951 287.241 298.354 281.673 293.783 276.959C289.212 272.245 283.758 268.477 277.731 265.871C271.705 263.265 265.224 261.871 258.658 261.769C252.093 261.668 245.572 262.86 239.468 265.279C233.363 267.698 227.795 271.295 223.081 275.866C218.367 280.436 214.599 285.89 211.993 291.917C209.386 297.944 207.993 304.425 207.891 310.99L257.885 311.763L307.879 312.537Z" fill="black"/>
<rect x="341" y="210.996" width="100" height="100" stroke="black" stroke-width="3"/>
<circle cx="391" cy="260.996" r="50" fill="white"/>
<circle cx="391" cy="260.996" r="38" fill="black"/>
<path d="M440.879 208.996C440.981 215.561 439.788 222.082 437.369 228.186C434.951 234.291 431.354 239.859 426.783 244.573C422.212 249.287 416.758 253.055 410.731 255.661C404.705 258.268 398.224 259.661 391.658 259.763C385.093 259.864 378.572 258.672 372.468 256.253C366.363 253.835 360.795 250.237 356.081 245.667C351.367 241.096 347.599 235.642 344.993 229.615C342.386 223.588 340.993 217.107 340.891 210.542L390.885 209.769L440.879 208.996Z" fill="black"/>
<path d="M99.7084 353.848C123.075 259.892 167 235.996 167 235.996V285.382C167 285.382 142.817 324.939 135.711 394.803C128.605 464.667 130.5 498.996 130.5 498.996L81.2331 492.973C81.2331 492.973 79.3383 435.757 99.7084 353.848Z" fill="white" stroke="black" stroke-width="3"/>
<path d="M81.0001 492.996L130.5 498.996C130.5 498.996 142.282 511.709 141.609 521.729C140.923 531.944 136.81 542.361 126.609 543.229C118.935 543.882 112.5 533.496 112.5 533.496C112.5 533.496 105.084 545.082 98.0001 544.496C90.8396 543.904 85.5001 530.996 85.5001 530.996C85.5001 530.996 79.0653 537.055 74.0001 536.996C69.718 536.946 66.7263 535.798 64.0001 532.496C60.6233 528.405 62.5001 516.996 62.5001 516.996C62.5001 516.996 64.5638 507.549 69.0001 501.996C72.6564 497.419 81.0001 492.996 81.0001 492.996Z" fill="#693875" stroke="black" stroke-width="3"/>
<path d="M550.292 353.848C526.925 259.892 483 235.996 483 235.996V285.382C483 285.382 507.183 324.939 514.289 394.803C521.395 464.667 519.5 498.996 519.5 498.996L568.767 492.973C568.767 492.973 570.662 435.757 550.292 353.848Z" fill="white" stroke="black" stroke-width="3"/>
<path d="M569 492.996L519.5 498.996C519.5 498.996 507.718 511.709 508.391 521.729C509.077 531.944 513.19 542.361 523.391 543.229C531.065 543.882 537.5 533.496 537.5 533.496C537.5 533.496 544.916 545.082 552 544.496C559.16 543.904 564.5 530.996 564.5 530.996C564.5 530.996 570.935 537.055 576 536.996C580.282 536.946 583.274 535.798 586 532.496C589.377 528.405 587.5 516.996 587.5 516.996C587.5 516.996 585.436 507.549 581 501.996C577.344 497.419 569 492.996 569 492.996Z" fill="#693875" stroke="black" stroke-width="3"/>
</svg>
